<?xml version="1.0" encoding="utf-8"?>
<!-- Generator: Adobe Illustrator 27.0.0, SVG Export Plug-In . SVG Version: 6.00 Build 0)  -->
<svg version="1.1" id="Layer_1" xmlns="http://www.w3.org/2000/svg" xmlns:xlink="http://www.w3.org/1999/xlink" x="0px" y="0px"
	 viewBox="0 0 500 500" style="enable-background:new 0 0 500 500;" xml:space="preserve">
<style type="text/css">
	.st0{fill:#E74646;stroke:#FFFFFF;stroke-width:4.6041;stroke-linecap:square;stroke-linejoin:bevel;stroke-miterlimit:3.998;}
</style>
<g transform="matrix(0.999751,0,0,0.999751,18.6633,21.7738)">
	<path vector-effect="none" class="st0" d="M420.4,299.3l0.6,0.8l0.2,0.9l0.2,0.8l0.2,0.9l-0.3,0.8v0.9l0.2,1.1v0.9v0.9v0.9l0.2,0.9
		l0.3,0.8l-0.2,0.9l-0.3,0.9l-0.5,0.6l-0.6,0.8l-0.6,0.6l-0.6,0.8l-0.3,0.9l-0.2,0.8l-0.2,0.9l-0.2,0.9l-0.3,0.8l-0.5,0.8l-0.5,0.8
		l-0.2,0.9v0.9l0.2,0.9l0.2,0.9l0.5,0.8l0.6,0.9v0.9l-0.2,0.8l-0.5,0.8l-0.5,0.8l-0.3,0.9l-0.6,0.6l-0.3,0.9v0.9v0.3v0.6l-0.8,0.3
		l-0.8-0.3l-0.9-0.3l-0.8-0.3l-0.9,0.5l-0.2,0.8l-0.2,0.9v0.9l0.2,0.9l0.2,0.9l0.2,0.9l0.2,0.9l-0.2,0.9l-0.5,0.8l-0.6,0.8l-0.6,0.6
		l-0.6,0.6l-0.6,0.6l-0.5,0.9l-0.3,0.8l-0.5,0.8l-0.3,0.2l-0.5,0.2l-0.5-0.6l-0.3-0.9l-0.3-0.8l-0.3-0.8l-0.5-0.8h-0.9l-0.9,0.2
		l-0.6,0.5l-0.8,0.6l-0.6,0.6l-0.6,0.8l-0.6,0.8l-0.2,0.8l-0.5,0.8l-0.5,0.8l-0.8,0.5l-0.8,0.5l-0.8,0.3l-0.9,0.3l-0.9,0.2l-0.3,0.2
		l-0.5,0.2l-0.3,1.1l0.5,0.8l0.6,0.8v0.8l-0.2,0.9l-0.5,0.8l-0.5,0.8v0.9l0.6,0.6l0.9,0.2l0.9,0.2l0.6,0.6l0.8,0.5l0.8-0.3l0.8-0.5
		l0.6-0.3l0.2-0.2l0.9,0.2l0.5,0.6l0.3,0.9v0.9v0.9l0.3,0.9l0.6,0.5l0.5,0.9l-0.2,0.8l0.5,0.8l0.8,0.6l0.3,0.8l-0.5,0.8l0.2,0.9
		l0.8,0.5l0.8,0.3l0.8,0.6l0.8,0.6l0.8,0.3l0.3,0.5l-0.6,0.6l-0.6,0.6l-0.8,0.5l-0.8,0.5l-0.8,0.3l-0.8,0.3l-0.8-0.6l-0.8-0.6h-0.9
		l-0.9,0.2l-0.8,0.3l-0.6,0.6l-0.8,0.5l-0.8,0.5l-0.8,0.3l-0.8,0.5l-0.5,0.8l-0.5,0.9l-0.2,0.8l-0.2,0.9v0.9l-0.8,0.6l-0.9,0.2
		l-0.8-0.2l-0.5-0.2l-0.5-0.2l-0.8-0.3l-0.9-0.3l-0.8-0.2h-0.9h-0.9l-0.8-0.2l-0.9-0.3l-0.8-0.2l-0.9-0.3l-0.8-0.2h-0.9l-0.6,0.6
		l-0.5,0.8l-0.6,0.6l-0.8-0.3l-0.8-0.5l-0.6-0.6l-0.8-0.6l-0.8-0.5l-0.8-0.3l-0.8-0.5l-0.8-0.5l-0.8-0.3h-0.9l-0.9,0.2l-0.9,0.3
		l-0.8,0.5l-0.6,0.5l-0.8,0.8l-0.6,0.6l-0.6,0.5l-0.9,0.9v0.8v1.1v0.9l0.3,0.8l0.2,0.3l0.5,0.5l0.3,0.8l0.2,0.9v0.9l0.6,0.8l0.8,0.5
		l0.8,0.2l0.6,0.5l-0.3,0.8l-0.6,0.6l-0.8,0.6l-0.6,0.6l-0.6,0.6l-0.8,0.5l-0.8,0.5l-0.8,0.6l-0.5,0.6l0.2,0.9l0.8,0.2l0.9-0.3
		l0.9-0.3h0.9l0.8,0.2l0.3,0.9l-0.3,0.8l-0.6,0.6l-0.9,0.3l-0.6,0.6l-0.8,0.9l0.5,0.8l0.2,0.9l0.3,0.8l0.6,0.8l0.5,0.6l0.5,0.9
		l0.3,0.8l0.2,0.9l0.2,0.9l0.5,1.1l-0.3,0.9l-0.5,0.9l-0.3,0.9l0.3,0.8v0.9l-0.2,0.9l0.2,0.9l-0.3,0.8l-0.6,0.8l-0.8,0.3l-0.9,0.2
		h-0.9l-0.6,0.5l-0.3,0.9v0.9v0.9l-0.2,0.9l-0.3,0.8l-0.5,0.8l-0.3,0.2l-0.3,0.6l-0.6,0.6l-0.5,0.8l-0.6,0.8l-0.6,0.5l-0.8-0.5h-0.8
		l-0.5,0.8l-0.2,0.8l0.2,0.9l-0.5,0.8l-0.8,0.3l-0.3,0.9l0.2,0.9l0.3,0.8l0.3,0.9v0.9v0.9l-0.3,0.8l-0.2,0.9l-0.3,0.8l-0.3,0.8
		l-0.6,0.8l-0.6,0.6l-0.6,0.6l-0.6,0.8l-0.5,0.8l-0.5,0.8l-0.6,0.8l-0.5,0.6l-0.6,0.8l-0.5,0.8l-0.6,0.6h-0.9l-0.8-0.3H347l-0.9,0.2
		l-0.6,0.8l-0.6,0.5l-0.5,0.8l-0.2,0.9l-0.6,0.5h-0.9l-0.5,0.6l-0.2,0.9l-0.5,0.8l-0.8,0.5l-0.6,0.6l-0.6,0.6l-0.2,0.2l-0.3,0.6
		l-0.3,0.5l-0.2,0.5l-0.2,0.8l0.2,1.1v0.9l-0.2,0.8l-0.3,0.8l-0.8,0.5l-0.9,0.2l-0.8,0.2l-0.9-0.3l-0.5-0.2l-0.6,0.6l-0.9,0.2
		l-0.8,0.3l-0.3,0.8l0.2,0.9l-0.6,0.8h-0.9l-0.8-0.5h-0.9l-0.8,0.5l-1.3,0.3l-0.6-0.5l-0.8-0.6L324,464l-0.5,0.6l-0.2,0.9l0.2,0.9
		l0.3,0.9l0.3,0.8v0.9l-0.5,0.6l-0.9,0.2l-0.9,0.2h-0.9h-0.9l-0.9,0.2l-0.9,0.3l-0.8,0.3l-0.6,0.6l-0.6,0.6l-0.6,0.8l-1.1,0.8
		l-0.9-0.6l-0.9-0.5l-0.8-0.3l-0.8-0.2l-0.9-0.3l-0.8-0.3l-0.8-0.6l0.3-0.8l0.5-0.8l-0.2-0.8l-0.5-0.8l-0.3-0.9l0.5-0.8l0.6-0.6
		v-0.9l-0.5-0.8l-0.5-0.8l-0.6-0.6l-0.8-0.3l-0.9-0.2l-0.8-0.3l-0.9-0.2l-0.8-0.5l-0.8-0.5l-0.8-0.6l-0.6-0.6l-0.8-0.6l-0.8-0.5
		l-0.8-0.2l-0.9,0.2l-0.8,0.5l-0.5,0.8l-0.8-0.3l-0.9-0.2L294,459l-0.8,0.3l-0.8,0.5l-0.6,0.6l-0.9,0.3h-0.9H289l-0.8,0.2l-0.9,0.2
		l-0.8-0.5l-0.8-0.6l-0.9-0.3H284l-0.9-0.3l-0.8-0.5l-0.8-0.2l-0.9,0.2l-0.8,0.5l-0.8,0.5l-0.6,0.5l-0.9,0.3h-0.9l-0.9,0.3l-0.8,0.2
		l-0.9,0.2l-0.9,0.2l-0.8-0.9l-0.2-0.9l-0.5-0.8l-0.5-0.8l-0.6-0.6l-0.8-0.6l-0.5-0.6l-0.5-0.6l-0.8,0.6l-0.6,0.5l-0.6,0.6l-0.8,0.5
		l-0.8,0.6l-0.8,0.3l-0.9,0.3l-0.8-0.3l-0.8-0.3l-0.9-0.3l-0.8-0.2l-0.9-0.5l-0.5-0.6l-0.3-0.9l-0.6-0.6v-0.9l0.5-0.8l0.2-0.8
		l-0.5-0.8l-0.8-0.3h-0.9h-0.9l-0.8-0.5l-0.6-0.8l-0.6-0.6l-0.8-0.6l-0.6-0.5v-0.9v-1.1l-0.2-0.9l-0.2-0.8l-0.3-0.9l-0.5-0.8
		l-0.3-0.8l-0.6-0.6l-0.6-0.8l-0.8-0.5l-0.6-0.8l0.3-1.4l0.2-0.8l-0.2-1.1l0.3-0.8l0.5-0.8l-0.5-0.8l-0.9,0.2l-0.9,0.2l-0.9,0.3
		l-0.5,0.6v0.9l-0.2,0.9l-0.8,0.6l-0.8-0.2l-0.6-0.6l-0.5-0.8l-0.3-0.8l-0.8-0.6l-0.8-0.3l-0.8,0.5l-0.3,0.9l-0.9,0.3l-0.6,0.3
		l-0.3,0.8h-0.9l-0.9-0.2l-0.8-0.5l-0.2-0.8l0.2-0.9l0.3-0.8v-0.9l-0.5-0.8l-0.3-0.8l-0.3-0.9l-0.5-0.8L233,429l-0.8-0.5l-0.8-0.3
		l-0.8-0.6l-0.6-0.5l-0.6,0.8l-0.8,0.5l-0.8,0.3L227,429l-0.8,0.5l-0.9,0.3l-0.8,0.3l-0.5,0.8l-0.3,0.8l0.2,0.9l-0.2,0.9l-0.2,0.9
		l-0.8,0.5l-0.8,0.5l-0.6,0.6l-0.6,0.8l-0.6,0.6l-0.3,0.8l0.3,0.8l0.8,0.5l0.8,0.3l0.9,0.3l0.8,0.3l0.8,0.5l0.3,0.8v0.9l-0.6,0.8
		l-0.6,0.6l-0.3,0.8v0.9l0.3,0.9l0.3,0.8l-0.2,0.8l-0.6,0.8l-0.6,0.8l-0.6,0.6h-0.9l-0.8,0.2l-0.9,0.5l-0.8,0.3l-0.8,0.5l-0.8,0.3
		l-0.8-0.3l-0.9-0.2l-0.8,0.3l-0.8,0.6l-0.5,0.8l-0.5,0.8l-0.6,0.6l-0.8,0.3l-0.9,0.3l-0.8,0.3l-0.8,0.3l-0.8,0.5l-0.8,0.6l-0.6,0.6
		l-0.8,0.6l-0.6,0.6l-0.6,0.6l-0.8,0.6l-0.6,0.8l-0.6,0.6l-0.3,0.9l-0.5,0.8l-0.6,0.5l-0.9,0.3H199L198,464l-0.8-0.5l-0.5-0.8
		l-0.3-0.8l-0.6-0.6h-0.9l-0.8,0.3l-0.5,0.9l-0.3,0.8l-0.6,0.8l-0.8-0.2l-0.8-0.5l-0.3-0.9l-0.3-0.8l-0.6-0.6l-0.6-0.3v-0.6
		l-0.3-0.9l-0.5-0.6l-0.8-0.6l-0.8-0.3l-0.5-0.8V456l0.3-0.8l0.6-0.6l0.6-0.6l0.6-0.8l-0.3-0.6l-0.9,0.2h-0.9l-0.5-0.6l0.2-0.9
		l0.6-0.6l0.6-0.6l0.8-0.8l0.5-0.6l0.6-0.8l0.6-0.6l0.6-0.8l0.6-0.6l0.5-0.8l0.5-0.8l0.3-0.8l0.5-0.8l0.8-0.8l0.8-0.3l0.9,0.2
		l0.9,0.2l0.8-0.3l0.8-0.5l0.6-0.8l0.3-0.8l0.5-0.8l0.5-0.8l0.5-0.8l0.6-0.6l0.8-0.5l0.8-0.6l0.5-0.8l0.5-0.8l0.3-0.8l0.2-0.9
		l0.3-0.8l0.3-0.8l0.3-0.9l0.3-0.8l0.2-0.8V427l-0.3-0.9l-0.5-0.8l-0.6-0.6l-0.8-0.5h-0.9l-0.9,0.3l-0.8,0.5l-0.8,0.2l-0.3-0.8
		l-0.6-1.3l-0.6-0.6l-0.2-0.9l-0.8-0.3l-0.9,0.2l-0.9-0.2l-0.6-0.6l-0.5-0.8l-0.3-0.8l-0.8-0.5l-0.8-0.5l-0.8-0.5l-0.8,0.5l-0.8,0.3
		h-0.8l-0.9-0.2l-0.8-0.3l-0.8-0.3l-0.8-0.5l-0.9-0.3l-0.8-0.3h-0.9h-0.9l-0.8,0.5l-0.8,0.3l-0.8,0.6l-0.5,0.8l-0.5,0.5l-0.3,0.8
		l-0.5,0.8l-0.3,0.8l-0.3,0.8l-0.3,0.9l0.2,0.9l0.2,0.9l0.2,0.9l0.2,0.9l-0.2,0.9l-0.3,0.8l-0.3,0.8l-0.2,0.9l-0.2,0.8l-0.5,0.8
		l-0.6,0.8l-0.9,0.3h-0.8l-0.9-0.2H172h-0.9l-0.8,0.3l-0.9,0.3l-0.8,0.5l-0.8,0.5l-0.6,0.5l-0.8,0.6l-0.6,0.6l-0.8,0.6l-0.6,0.6
		l-0.6,0.6l-0.3,0.5h-0.8l-0.9,0.2l-0.8,0.5l-0.8,0.5l-0.6,0.8l-0.6,0.5l-0.9,0.3l-0.6,0.6l-0.8,0.5l-0.6,0.6l-0.8,0.5l-0.6,0.6
		l-0.6,0.8l-0.8,0.6l-0.8,0.3l-0.6-0.2l-0.5-0.8l-0.3-0.8l-0.6-0.8l-0.5-0.8l-0.6-0.6l-0.9-0.3l-0.8-0.3l-0.9,0.2l-0.8,0.2l-0.9,0.2
		l-0.9,0.2l-0.9,0.3l-1.1-0.3v-1.3v-0.9l-0.3-0.8v-0.8v-0.9l-0.2-0.9l-0.3-0.8l-0.3-0.8l-0.6-0.8l-0.6-0.8l-0.6-0.6l-0.5-0.8
		l-0.3-0.8l-0.3-0.8l-0.5-0.8l-0.3-0.9v-0.9l0.2-0.9v-0.9v-0.9l0.3-0.8l0.3-0.8v-0.9l-0.5-0.8l-0.5-0.8l-0.2-0.9l-0.2-0.9v-0.9v-0.9
		l0.2-0.8l0.2-0.9v-0.9l-0.8-0.6l-0.6-0.6l-0.6-0.6l-0.5-0.8l-0.2-0.9v-0.9l0.2-0.9l0.2-0.9l0.2-0.8l-0.2-0.9l-0.6-0.8l-0.6-0.6
		l-0.8-0.5l-0.8-0.5l-0.8-0.6l-0.6-0.6l-0.8-0.5l-0.9-0.5l-0.3-0.8l-0.2-0.9l-0.3-0.8l-0.5-0.8l-0.6-0.8l-0.8-0.5l-0.9-0.2l-0.9,0.2
		h-0.9l-0.8,0.3l-0.9,0.2l-0.3-0.9l-0.2-0.9v-0.8v-0.9l-0.3-0.8l-0.6-0.8l-0.3-0.8l-0.2-0.9l0.2-0.9l0.2-0.8l0.3-0.8l0.8-0.8
		l0.8-0.3l0.8-0.5l0.6-0.6l-0.3-0.3l-0.8-0.5l-0.8-0.6l-0.6-0.6l-0.8-0.6l-0.2-0.8l0.3-0.9l0.3-0.8l0.3-0.9v-0.8l0.2-0.9v-0.9
		l-0.5-0.8l-0.8-0.6l-0.5-0.6l-0.6-0.8l-0.5-0.8v-0.9l-0.3-0.8l-0.3-0.8l-0.6-0.8l-0.8-0.5l-0.9-0.2h-0.9l-0.9,0.5h-0.8l-0.5-0.8
		l-0.2-0.8l-0.2-0.9l-0.2-0.9l-0.5-0.8l-0.5-0.8l-0.8-0.6l-0.8-0.5l-0.8-0.5v-0.5l-0.3-0.9l0.2-0.9l-0.2-0.9l0.2-0.9v-0.9l0.2-0.8
		l0.2-0.9l0.3-0.8l0.5-0.8l0.8-0.5l0.9,0.2l0.9,0.3l0.8-0.2l0.9-0.3l0.5-0.5l0.6-0.8l0.8-0.5l0.6-0.5l-0.2-0.9l-0.5-0.8l-0.5-0.6
		l-0.3-0.9l-0.3-0.8l-0.3-0.8v-0.9l0.3-0.8l0.5-0.8l0.8-0.6l0.6-0.6l0.8-0.5l0.8-0.5l0.8-0.5l0.9-0.3l0.8-0.3l0.8-0.3l0.6-0.8
		l0.5-0.6l0.6-0.8l0.5-0.8l0.8-0.5l0.8-0.5l0.8-0.5l0.9-0.2l0.9-0.2l0.8-0.2h0.9l0.9-0.3l0.6-0.8l0.5-0.6l0.3-0.9l-0.6-0.6l-0.3-0.8
		l-0.2-0.9l-0.2-0.9l-0.9-0.3l-0.8-0.2l-0.9,0.2l-0.9,0.2l-0.8-0.3l-0.8-0.6l-0.2-0.8l-0.2-0.9l-0.8-0.5h-0.9l-0.8,0.3l-0.9,0.3
		l-0.8-0.3l-0.2-0.9l-0.2-0.9l0.2-0.9l-0.5-0.8l-0.8-0.5L118,323l-0.8-0.3l-0.8-0.6l-0.2-0.8v-1.1l-0.6-1.1l-0.5-0.6l-0.8-0.5
		l-0.9-0.3l-0.9,0.2l-0.6,0.6l-0.6,0.6l-0.8,0.5l-0.9,0.3h-0.9l-0.9,0.2l-0.8,0.5h-0.8l-0.5-0.8l-0.6-0.6l-0.6-0.6l-0.5-0.6
		l-0.5-0.8l-0.6-0.8l-0.5-0.6l-0.6-0.8l-0.5-0.8l-0.8-0.6l-0.8-0.3l-0.9-0.2l-0.8-0.3l-0.8-0.3l-0.9-0.2l-0.6,0.5l-0.5,0.8l-0.3,0.9
		l-0.3,0.8l-0.6,0.8l-0.6,0.6l-0.6,0.6l-0.3,0.8l-0.5,0.8h-0.8l-0.8-0.5l-0.8-0.3l-0.8-0.6l-0.6-0.6l-0.5-0.8l-0.5-0.8l-0.3-0.8
		l-0.2-0.9l-0.2-0.9l0.2-0.9v-0.9l-0.3-0.8l-0.5-0.8l-0.8-0.6l-0.8-0.5l-0.8-0.3l-0.9-0.2l-0.9,0.2l-0.5-0.9l-0.3-0.8l-0.3-0.9
		l-0.3-0.8l-0.6-0.6l-0.3-0.9l0.3-0.8v-1.1l-0.5-0.8l-0.8-0.5l-0.8,0.3l-0.8,0.5l-0.8,0.3l-0.9,0.2l-0.8,0.2l-0.8-0.6l-0.5-0.8
		l-0.2-0.8l-0.2-1.1l0.3-0.8v-0.9l-0.2-0.9L73,294l0.2-0.9l0.2-0.9v-0.9l-0.2-0.9l-0.3-0.8l-0.3-0.8v-0.9l0.2-0.9l0.5-0.8l0.6-0.8
		l0.6-0.6l0.6-0.6l0.6-0.8l0.6-0.6l0.2-0.9l0.2-0.9l0.3-0.8l0.3-0.9l0.2-0.8l0.6-0.8l0.6-0.5l0.8-0.6l0.6-0.5l0.6-0.8l0.3-0.8
		l-0.3-0.9v-0.9l0.2-0.9l0.2-0.8l0.3-0.9L82,269l0.8-0.6l0.6-0.6l0.6-0.6l0.6-0.8l0.6-0.6l0.6-0.6l0.9-0.3l0.9-0.2l0.8-0.3l0.8-0.3
		l0.8-0.5l0.8-0.6l0.6-0.5l0.5-0.8l-0.2-0.9l-0.8-0.6l-0.6-0.6l-0.8-0.5l-0.8-0.6l-0.8-0.6l-0.6-0.6l-0.5-1.3l0.6,0.3l0.9-0.2h0.9
		h0.9l0.9,0.2l0.9,0.3l0.8,0.2l0.8,0.3l0.9,0.3l0.8,0.6l0.8,0.3l0.8,0.3l0.8,0.3h0.9h0.9l0.8-0.6l0.5-0.8l0.6-0.5h0.9l0.9,0.3
		l0.8,0.3l0.9,0.3l0.8,0.2h0.9l0.9,0.2l0.8,0.3h0.9l0.9-0.2h0.9l0.8-0.5l0.8-0.3l0.8-0.6l0.3-0.8l0.6-0.6l0.8-0.6l0.5-1.1l-0.5-0.8
		l-0.3-0.8v-0.9l-0.6-0.8l-0.8-0.3l-0.5-0.8v-0.9l0.5-0.8l0.5-0.8l0.5-0.8l0.3-0.8v-0.9l-0.2-0.9l-0.3-0.8l-0.3-0.9l-0.2-0.9
		l0.2-0.8l0.5-0.8l0.3-0.9l0.3-0.8v-0.8l-0.3-0.9l-0.2-0.9v-0.9V233l0.2-0.9l0.3-0.8v-0.8l-0.3-0.9l-0.5-0.8l-0.3-0.8l0.2-0.9v-0.9
		l0.2-0.9l0.2-0.9l0.2-0.8v-0.9l0.2-0.9l-0.3-0.9l-0.3-0.8l-0.5-0.8l-0.6-0.8l-0.3-0.8l-0.2-0.9l-0.2-0.9l0.2-0.9v-0.9v-0.9
		l-0.2-0.9l-0.2-0.9l-0.5-0.8l-0.8-0.5l-0.3-0.8l0.2-0.8l0.5-0.8l0.3-0.9v-0.9l-0.2-0.9l-0.2-0.9l-0.2-0.8l-0.2-0.9l-0.2-0.9
		L111,200l-0.2-0.9l-0.3-0.9l-0.3-0.8l-0.3-0.8l-0.3-0.8l-0.5-0.9l-0.5-0.8l-0.2-0.8l0.2-0.9l0.3-0.8l-0.3-0.8l-0.8-0.5l-0.8-0.3
		l-0.9-0.3l-0.6-0.6l-0.8,0.5l-0.8,0.6l-0.6,0.6l-0.6,0.6l-0.8,0.3l-0.6-0.5l-0.5-0.8H100l-0.8,0.5l-0.5,0.8L98,192l-0.9,0.3h-0.9
		l-0.6-0.6l-0.9-0.3l-0.8,0.5l0.2,0.9v0.8l-0.8,0.5l-0.6,0.6l-0.2,0.9l-0.2,0.9l-0.5,0.8l-0.6,0.6l-0.8,0.5h-0.9l-0.9-0.2l-0.8-0.5
		l-0.5,0.2h-0.9l-0.6,0.6l-0.9,0.3l-0.8,0.2l-0.5-0.8l-0.6-0.6l-0.6-0.8l-0.8-0.5l-0.8-0.3l-0.6-0.8l-0.3-0.8l-0.3-0.9v-0.9
		l-0.2-0.8l-0.3-0.9l-0.2-0.9l-0.5-0.8l-0.6-0.6L77,188l-0.8-0.6l-0.8-0.6l-0.8-0.3l-0.8-0.6l-0.5-0.8l-0.5-0.6l-0.8-0.5l-0.8-0.5
		l-0.9-0.2h-0.9l-0.9,0.3l-0.8,0.3l-0.8,0.5l-0.8,0.3l-0.9,0.2l-0.9,0.2l-0.9-0.2l-0.8-0.3l-0.6-0.8l-1.3-0.6l-0.8,0.3l-0.9,0.2H58
		l-0.6-0.6l-0.8-0.3l-0.9,0.3h-0.9h-0.9l-0.8-0.5l-0.5-0.3v-0.6l0.3-0.9l0.2-0.8v-0.9l0.2-0.9L53,177l-0.5-0.8v-0.9l-0.2-0.9
		l0.2-0.9v-0.9v-0.9l0.2-0.9l0.2-0.8v-0.9v-0.9l-0.3-0.8l-0.2-0.9v-0.9l0.6-0.5l0.9-0.2v-0.8l-0.8-0.6l-0.3-0.8l0.2-0.9l0.2-0.9
		v-0.9l-0.5-0.8l-0.6-0.5l-0.9-0.2l-0.8-0.2l-0.8-0.5l-0.3-0.9l-0.5-0.6l-0.8-0.8l-0.8-0.3l-0.9,0.2l-0.9,0.3h-0.8l-0.8-0.5
		l-0.6-0.8l-0.9-0.3h-0.9l-0.9,0.2l-0.9-0.3v-0.9l-0.3-0.8l-0.6-0.6l-0.9-0.2l-0.8-0.2l-0.9-0.2h-1.1l-0.8,0.2l-0.9,0.2h-0.9
		l-0.9-0.3l-0.5-0.6l-0.5-0.8l-0.3-0.8l-0.8-0.5l-0.9-0.3l-0.5-0.8l0.3-0.8l0.5-0.8l0.6-0.8l0.6-0.6l0.6-0.8l0.3-0.8l-0.2-0.8
		l-0.3-0.9l-0.5-0.8l-0.3-0.8l-0.5-0.8l-0.3-0.8v-1.1l0.3-0.9l0.3-0.8l0.3-0.8l0.3-0.9l0.3-0.8l0.5-0.8l0.5-0.8l0.8-0.3l0.9,0.2
		l0.8,0.3l0.9,0.3v1.3l-0.2,0.9l0.3,0.8l0.8,0.6l0.8,0.6l0.8,0.5l0.6,0.5l0.8,0.5l1.1-0.2l0.8-0.2l0.9,0.3l0.8,0.3h0.9h0.9l0.9-0.2
		l0.9,0.2h0.9l0.8-0.2l0.8-0.5l0.6-0.6l0.6-0.8l0.5-0.8l0.8-0.5l0.8-0.3l0.9-0.3l0.8-0.3l0.8-0.5l0.8-0.3l0.9-0.2l1.1-0.2l0.8,0.3
		h0.9l0.5-0.8l0.3-0.8l0.2-0.9v-0.9v-0.9l0.2-0.9l0.2-0.9l0.3-0.8l0.6-0.6l0.8-0.6l0.5-0.8l0.3-0.8l0.2-0.9l0.2-0.8v-0.9v-0.9v-0.9
		l0.3-0.9l0.2-0.9l0.3-0.8l0.3-0.8l0.5-0.8l-0.2-0.9l-0.5-0.8l-0.3-0.8l-0.3-0.8l-0.3-0.9l-0.5-0.8l-0.2-0.8l-0.3-0.9l-0.5-0.8
		l-0.5-0.8l-0.5-0.8l-0.3-0.8l0.2-0.9l0.6-0.8l0.8-0.5l0.8-0.3l0.5-0.8l-0.2-0.9l-0.2-0.9l-0.2-0.9l0.2-0.8l0.5-0.8l0.5-0.8h0.9
		l0.8,0.5l0.6,0.6l0.9,0.2l0.3-0.9l0.2-0.9l0.3-0.8l0.3-0.9l0.5-0.8l0.6-0.6l0.9-0.3l0.9-0.2h0.9l0.9,0.2l0.8,0.2h0.9l0.9-0.3
		l0.8-0.5l0.8-0.5l0.8-0.5l0.8-0.3l0.8-0.3l0.9-0.2l0.9-0.2l0.9-0.2l0.9,0.2H84l0.9-0.3l-0.5-1.4L84.3,86l-0.5-0.8v-0.9l-0.3-0.9
		l-0.5-0.8L82.6,82L82.3,81v-0.9l0.2-0.8l0.2-0.9v-0.9l-0.2-0.9L82,75.7l-0.6-0.6v-0.5l-0.5-0.8L80.2,73l-0.5-0.6l-0.5-0.9L79,70.7
		v-0.9l0.8-0.3l0.9-0.2l0.8,0.5l0.8,0.5l0.6-0.8l0.3-0.8l0.3-0.8l0.2-0.9l0.2-0.9l0.2-0.8v-0.9l0.2-0.9v-0.9L84,61.4l-0.3-0.9h-0.8
		H82L81,60.6h-1.1H79h-0.9L77.4,60l0.2-0.9l0.2-0.8l0.2-0.9l0.3-0.9l0.3-0.8l0.3-0.8l0.2-0.9l0.3-0.8l0.3-0.9l0.2-0.8l0.2-0.9
		l0.2-0.9l0.2-0.9l0.8-0.2l-0.5-0.6v-1.1v-0.9l0.6-0.6l0.8-0.5h0.9l0.8-0.5l0.3-0.8l0.3-0.9h0.9L86,42l0.8-0.5l0.8-0.3l0.9-0.3
		l0.9-0.2l0.8,0.2l0.9,0.2l0.8,0.3l0.8,0.5h0.9l0.3-0.9l1.4,0.2l0.8-0.3l0.8,0.5l0.2,0.8l0.2,0.9l0.8,0.5l0.9,0.5l0.6,0.5l0.3,0.8
		l0.3,0.9l0.5,0.8l0.6-0.6l0.6-0.8l0.3-0.8l0.8-0.2l0.6,0.6l0.6,0.8l0.9-0.2l0.8-0.2l0.8,0.5l0.9,0.3l0.8,0.5h0.9l0.8,0.2l0.9,0.2
		l0.9,0.2l0.8,0.2l-0.2,0.9v0.9v0.9l-0.2,0.9l-0.3,0.9l-0.3,0.8l-0.3,0.8l-0.5,0.9v0.9l0.5,0.8l0.8,0.3l0.5,0.6l0.3,0.9l0.8,0.5
		l0.6,0.6l0.8,0.5l0.8,0.5l0.5,0.8l0.3,0.9l0.2,0.8l0.3,0.9l0.3,0.8l0.3,0.9l0.2,0.8l0.2,0.9l0.8,0.3l0.8,0.6l0.5,0.6l0.5,0.8
		l0.6,0.6l0.9,0.5l0.8,0.3l0.8,0.6l0.6,0.6l0.3,0.8l0.5,0.9l0.6,0.5l0.8-0.3l0.8-0.5l0.8-0.3l0.8-0.6l0.8-0.5l0.8-0.3l0.9-0.2h0.9
		l0.9-0.2l0.8-0.5l0.6-0.6l0.6-0.5l0.8-0.5l0.9-0.3l0.3-0.6l0.6-0.8l0.6-0.5l0.8-0.5l0.8-0.5l0.9-0.3l0.8-0.3l0.9-0.2l0.8-0.3
		l0.6-0.8l0.9,0.2l0.6-0.3l0.8-0.5l0.5-0.6l-0.3-0.8v-0.9l0.2-0.9l0.5-0.8l0.6-0.6l0.8-0.3l0.9-0.3l0.8-0.3l0.8-0.5l0.8-0.5l0.8-0.2
		l0.6-0.6l0.8-0.6l0.9-0.2l0.9-0.2l0.2-0.9l0.5-0.8l0.8-0.5l0.9-0.2l0.8,0.3l0.6,0.6l0.8,0.6l0.8,0.3l0.9-0.2l0.6-0.5l0.2-0.9
		l-0.2-0.9v-0.9l-0.3-0.8l-0.2-0.9l0.3-0.8l0.2-1.1l-0.2-0.9l-0.6-0.8l-0.8-0.5l-0.6-0.5l-0.9-1.1l-0.3-0.8l-0.3-0.6l-0.5-0.8
		l-0.3-0.8l-0.5-0.9v-0.6l-0.3-0.6l-0.6-0.8l-0.8-0.5l-0.5-0.8l-0.2-0.8l-0.5-0.8l-0.8-0.3l-0.9-0.2l-0.6-0.6l-0.2-0.9l0.3-0.9
		l0.2-0.8l0.5-0.8l0.5-0.8l0.6-0.8l0.6-0.6l0.5-0.8l0.2-0.9l-0.3-0.9l-0.8-0.6l-0.8-0.5l-0.6-0.5l-0.3-0.9l0.2-0.9l0.5-0.8l0.6-0.6
		l0.6-0.6l0.8-0.6l0.5-1.3l-0.8-0.6l-0.8-0.5l-0.8-0.3l-0.9-0.2l-0.9-0.2l-0.8-0.2l-1.1,0.2h-0.9l-0.8,0.3l-0.8,0.5l-0.6,0.8
		l-0.6,0.9L146,20h-0.8h-0.9l-0.9-0.2h-0.9l-0.9,0.3l-0.9,0.2l-0.9-0.2l-0.6-0.5l0.5-0.9l0.6-0.5l0.3-0.9l-0.6-1.1l-0.8-0.5
		l-0.8-0.5l-0.8-0.3l-0.9-0.3l-0.8-0.3l-0.8-0.3l-0.8-0.3l-0.8-0.6l-0.5-0.8l-0.5-0.8l-0.5-0.8l-0.9-0.3l-0.9,0.2H129h-0.8l-0.9-0.3
		l-0.5-0.8l-0.3-0.8l-0.3-0.8l-0.6-0.8l-0.6-0.6l-0.8-0.2l-0.5-1.1l-0.5-0.6l-0.3-0.9l-0.2-0.9V1.8l0.3-0.8l0.3-0.9l0.5-0.8l0.6-0.6
		l0.6-0.5l-0.2-0.9l-0.2-0.9v-0.9v-0.9l0.2-0.9v-0.9l0.6-0.2l0.8,0.5l0.6,0.6l0.9,0.3l0.6-0.6l0.5-0.8l0.6-0.6l0.6-0.6l0.5-0.9
		l0.5-0.8l0.6-0.6l0.6-0.8l0.8-0.5l0.8-0.2l0.9-0.3l0.8-0.3l0.9-0.3l0.6-0.5l0.8-0.6l0.5-0.8h0.9l1.1-0.2l0.8-0.2l0.9-0.2l0.8,0.5
		l0.5,0.8l0.3,0.9l0.6,0.5l0.9,0.3l0.8,0.2l0.6,0.8l0.2,0.9l0.5,0.8l0.3,0.8l0.5,0.8l0.6,0.6l0.6,0.6l0.8,0.3l0.9,0.2l0.9,0.3
		l0.8,0.3l0.6,0.8l0.3,0.8l0.8,0.5l0.8,0.5l0.5,0.8l-0.8,0.3l-0.8,0.5l-0.6,0.6l0.6,0.6l0.9,0.2l0.8,0.2l0.9-0.2L158-1h0.9h0.8h0.9
		h0.9h0.9l0.9,0.2l0.9,0.2l0.9,0.2l0.9-0.2h0.9l0.8,0.2l0.9,0.3l0.6,0.6l0.6,0.6l0.5,0.8l0.6,0.6l0.6,0.8l0.6,0.6l0.8,0.6l0.9,0.5
		l0.5,0.8l0.9,0.3l0.8,0.3h0.9l0.9-0.3l0.8-0.5l0.8-0.3l0.9-0.2l0.8-0.3h1.1l0.9,0.2l0.8,0.2l0.8,0.5l0.6,0.8l0.2,0.8l0.3,0.9
		l0.2,0.9l0.3,0.8l-0.2,0.9l-0.3,0.8l0.2,0.9l0.3,0.8l0.5,0.8l0.2,0.9v0.8l0.5,0.8l0.8,0.6l0.8,0.5l0.8,0.5l0.8,0.5l0.8,0.3l0.8,0.5
		l0.8,0.6v0.8l-0.3,0.8l-0.6,0.8l-0.3,0.9l-0.2,0.8V25l0.5,0.8l0.6,0.6l0.8,0.5l0.8,0.3l0.9,0.5l0.6,0.6l0.8,0.5l0.8,0.6l0.8,0.5
		l0.8,0.3l0.8,0.6l0.3,0.9l0.9,0.3l0.5,0.8l0.3,0.8l0.8,0.6l0.9,0.3l0.8,0.2l0.9,0.2h0.9l0.9,0.2h0.9h0.9l0.8-0.3l0.8-0.5l0.9-0.2
		l0.8,0.3l0.8,0.3l0.9,0.2l0.8-0.6l0.3-0.8l0.6-0.8l0.9-0.3l0.8,0.2l0.8,0.5l0.9,0.3l0.6,0.6l0.6,0.6l0.5,0.9l0.3,0.8l0.5,0.8
		l0.3,0.9l0.9,0.2l0.8-0.2l0.9-0.3l0.8-0.5l0.8-0.3l0.9-0.3l0.8-0.3l0.8-0.3l0.8-0.6l0.8-0.5l0.8-0.3l0.6,0.6l0.8,0.6l0.5,0.8
		l0.3,0.8l-0.2,0.9l0.3,0.8l0.5,0.8l0.9,0.2l0.3,0.9l0.3,0.8l0.9-0.2l0.8-0.5l0.8-0.3l0.3-0.8l0.3-0.6l-0.2-0.9v-0.9l0.5-0.8
		l0.8,0.2l0.9,0.3l0.8,0.6l0.6,0.6l0.5,0.8l0.6,0.2l0.2,0.9l0.2,0.9l-0.3,0.9v0.8L244,44l0.3,0.8l-0.2,0.9l0.6,0.8l0.8,0.3l0.8,0.6
		l0.3,0.8l0.3,0.9l0.6,0.6l0.8,0.5l0.8-0.2l0.9-0.3L251,50l0.3,0.8l0.2,0.9v0.9l-0.2,0.9v0.9v0.9v0.9l0.2,0.9l0.2,0.9v0.9v0.9
		l-0.3,0.8l-0.3,0.9l-0.3,0.8l-0.8,0.6l-0.8,0.8l0.3,0.8l0.8,0.6L251,66h0.9l0.9-0.3l0.8-0.3l0.8-0.5l0.8-0.5l0.8-0.3l0.9-0.2
		l0.9-0.2h0.9l0.8,0.3l0.9,0.2l0.8,0.2l0.9,0.3l0.9,0.3l0.5-0.8l0.8-0.6l0.8-0.2l0.9,0.2h0.9l0.8-0.5v-0.9l0.2-0.9l0.8-0.5l0.9-0.2
		l0.8,0.3l0.9,0.2l0.6,0.5l0.8,0.2l0.8-0.2l0.9-0.3l0.8-0.3l0.8-0.5l0.9-0.3l0.8-0.3h0.9l0.9,0.2l0.8,0.5l0.6,0.6l0.8,0.3l0.9,0.3
		h0.9l1.3-0.5l0.6,0.6l-0.6,0.6l-0.6,0.6l-0.2,0.9V65l0.5,0.8l0.2,0.8l0.2,0.9l-0.2,0.9l-0.2,0.9l-0.5,0.8l-0.6,0.6l-0.6,0.8
		l-0.6,0.6l-0.3,0.8l-0.3,0.9l-0.2,0.9v0.9v0.8l-0.2,0.9l0.2,1.1v0.9l-0.2,0.8l-0.2,0.9l-0.2,0.9l-0.2,0.9v0.9l0.2,0.9l-0.2,0.8
		l-0.5,0.8l-0.8,0.5l-0.9-0.3l-0.8-0.5l-0.9,0.3l-0.2,0.8l-0.3,0.9l-0.2,0.9l-0.2,0.8l-0.2,0.9l-0.2,0.9v0.9l0.2,0.9v0.9l0.2,0.9
		v0.9l-0.3,0.8l-0.3,0.9l-0.2,0.8l-0.8,0.3l-1.1-0.2l-0.9-0.2l-0.8,0.3l-0.3,0.9l0.3,0.8l0.6,0.6v0.9l-0.2,0.9l-0.5,0.8l-0.3,0.8
		l-0.2,0.9l-0.6,0.6l-0.6,0.6v0.9l-0.2,0.9l-0.5,0.8l0.2,0.9l0.9,0.3l0.8,0.3l0.9,0.2l0.6,0.6v0.9v0.9l0.2,0.9l0.3,0.9l0.5,0.8
		l0.6,0.6l0.8,0.5l0.8,0.5l0.8,0.6l0.8,0.3l0.9,0.2l0.9-0.3l0.8-0.3l1.1-0.3l0.8-0.9l0.9-0.2l0.9-0.2h0.9l0.9-0.2l0.8-0.5l0.8-0.5
		l0.5-0.6l0.2-0.9l0.2-0.9l0.3-0.8l0.6-0.6l0.9-0.3l0.9,0.3l0.8,0.2l0.9,0.3l0.8,0.2l0.9,0.2l-0.8,3l0.5,3.6l0.6,4.9l0.8,3.6
		l2.7,3.1l1.7,1.9l-0.8,2.5l-0.8,0.3l-0.8,0.6l-0.8,0.5l-0.6,0.6l-0.3,0.8v0.9v0.9l0.3,0.9l0.3,0.8l0.2,0.9v0.9v0.9l0.8,0.3l0.9-0.3
		l0.8-0.2l0.8,0.6l0.6,0.6l0.9,0.2l0.8,0.2l0.9,0.3l0.8,0.5l0.8,0.5l0.8,0.3l0.9-0.2l0.9,0.3l-0.3,0.8l-0.8,0.6l-0.8,0.5l-0.8,0.3
		l-0.9,0.2l-0.8,0.5v0.8l0.8,0.5h0.9l0.8,0.3l0.9,0.2l0.8,0.5l0.6,0.8v0.9l0.2,0.9l0.3,0.8l0.6-0.3l0.9-0.3l0.5,0.6l-0.3,0.8
		l0.6,0.5l0.9-0.2l0.2-0.5l0.6-0.8l0.8-0.5h0.9l0.9,0.3l0.8-0.2l0.9,0.2h0.9l0.9-0.2l0.9-0.2h0.9h0.9h0.9h0.9l0.9-0.2h0.9l0.8-0.6
		l0.6-0.6l0.8-0.5l0.8-0.3l0.9-0.2l0.8,0.2l0.8,0.5l0.9-0.3l0.9,0.2l0.8,0.3l0.6,0.8l0.6,0.6l0.9-0.8l0.8-0.6l0.6-0.6l0.6-0.6
		l0.3-0.9l-0.3-0.8l-0.6-0.8l-0.3-0.8l-0.3-0.8v-1.1l0.2-0.8l0.3-0.8l-0.2-0.9l-0.3-0.9l-0.2-0.9l0.5-0.6l0.8-0.6l0.9-0.2l0.8,0.2
		l0.9-0.2l0.9-0.3l0.8-0.5l-0.2-0.8l-0.2-0.9l0.3-0.8l0.2-0.8v-0.9l0.2-0.9l0.6-0.5l0.9-0.2l0.5-0.6l0.2-0.9v-0.9v-0.9l0.6-0.6h0.8
		l0.9-0.2l0.9-0.2l0.8,0.5l0.3,0.8l0.6,0.5h0.9l0.9-0.2l0.9-0.2l0.9-0.2l0.8-0.3l0.9-0.3l0.8-0.3l0.9-0.3l0.9-0.2l0.8,0.5l0.3,0.8
		l0.2,0.9l-0.2,0.9v0.9l0.8,0.2l0.9,0.3l0.3,0.8l0.6,0.8l0.6,0.6l0.6,0.8l0.3,0.8l0.6,0.8l0.8,0.6l0.6,0.6l0.6,0.6l0.5,0.8l0.8,0.6
		l0.8-0.3l0.8-0.3l0.9-0.3l0.9-0.2l0.8-0.3l0.9,0.2l0.8,0.3v0.9v0.9l0.3,0.9l0.3,0.8l0.2,0.9l0.5,0.8l0.2,0.9l0.3,0.8v0.9l0.3,0.9
		l0.2,0.9l0.2,0.9l-0.2,0.9l-0.3,0.8l-0.3,0.8v1.1l0.3,0.8l0.5,0.8l0.6,0.8l0.3,0.8l0.5,0.8l0.3,0.9l0.2,0.8l0.2,0.9v0.8l-0.6,0.8
		l-0.8,0.3l-0.9-0.2l-0.9,0.2l-0.8,0.5l-0.5,0.8l-0.3,0.8v0.9l0.6,0.6v0.9l-0.5,0.8l-0.3,0.8l-0.2,0.9l-0.5,0.8l-0.6,0.8l-0.6,0.6
		l-0.8,0.6l-0.6,0.6l-0.9,0.2l-0.8-0.2l-0.8-0.3l-1.1-0.3l-0.8-0.3l-0.5-0.8l-0.3-0.8l-0.6-0.8l-0.8-0.3l-0.9,0.3l-0.8,0.5l-0.6,0.6
		h-0.9l-0.9-0.2l-0.8-0.3l-0.5-0.8l-0.6-0.8l-0.6-0.6l-0.8-0.5l-0.9-0.2h-0.9l-0.8-0.5l-0.8-0.3v-0.9v-0.9V167l-0.9-0.3l-0.8,0.5
		l-0.2,0.9l-0.6,0.6h-0.9l-0.9-0.2h-0.9l-0.9-0.2l-0.2-0.9v-0.9h-0.9l-0.6,0.5l-0.6,0.8l-0.8,0.3l-0.6-0.8l-0.5-0.8l-0.9,0.2
		l-0.6,0.5l-0.9,0.5l-0.8-0.3l-0.8-0.6l-0.8-0.5l-0.8-0.2l-0.2,0.8l-0.3,0.9l-0.6,0.5l-0.9,0.3l-0.9-0.2l-0.9,0.2l-0.9-0.2h-0.9
		l-0.9-0.3l-0.8-0.2h-0.9h-0.9l-0.8,0.6l-0.5,0.8l-0.3,0.8v0.9l0.8,0.6l0.8,0.5l0.6,0.8l0.6,0.6l0.8,0.6l0.6,0.8l-0.2,0.8l-0.8,0.6
		l-0.5,0.8l-0.2,0.9l0.5,1.1l0.9,0.2l0.9,0.2h0.9l0.9-0.2l0.8-0.2h0.9l0.9,0.2l0.8,0.6l0.3,0.8v0.9l0.2,0.9l0.2,0.9l0.2,0.9l0.2,0.9
		l-0.2,0.9l0.2,0.9l0.9,0.2l0.5,0.6l-0.2,0.9l-0.8,0.6l0.2,0.8l0.5,0.8l0.5,0.8l0.5,0.8l0.5,0.8v0.9l-0.5,0.8l-0.8,0.5l-0.8,0.5
		l-0.8,0.3l-0.6,0.6l0.2,0.9l0.2,0.9l0.8,0.9l-0.5,0.8l-0.8,0.5l-0.6,0.5l-0.8,0.6l-0.8,0.6l-0.3,0.6l-0.8,0.3l-0.8,0.5l-0.8,0.5
		l-0.8,0.6l-0.6,0.5l-0.6,0.6l-0.6,0.8l-0.8,0.5l-0.9-0.2h-0.9l-0.9-0.3l-0.8-0.5l-0.8-0.3l-0.9-0.2l-0.9,0.3l-0.8-0.2l-0.9-0.2
		l-0.9-0.3l-0.8-0.2l-0.8-0.5l-0.8-0.5l-0.6-0.2l-0.8,0.6l-0.5,0.8l-0.5,0.8l-0.3,0.6l0.6,0.6l0.3,0.8l-0.5,0.8l-0.2,0.9l0.2,0.9
		l0.3,0.8l0.5,0.8l0.6,0.6l0.6,0.8l0.5,0.8v0.8l-0.6,0.8l-0.6,0.5l-0.6,0.8l-0.3,0.8l0.2,0.9l0.2,0.6l0.5,0.6l0.5,0.9l0.2,0.8v0.9
		l-0.3,0.9l-0.6,0.8l-0.6,0.6l-0.6,0.6L312,228l-0.3,0.8l-0.3,0.8v0.9l0.3,0.8l0.5,0.9l0.6,0.5l0.8,0.5l0.8,0.5l0.6,0.8l0.3,0.9
		l0.6,0.5h0.9l0.8-0.3l0.9-0.2l0.8,0.5l0.8,0.6l0.5,0.8l0.8,0.6l0.5,0.8l0.8,0.5l0.9,0.3l0.3,0.8l0.3,0.9l-0.3,0.9l-0.5,0.8
		l-0.8,0.6l-0.3,0.8l0.2,1.3l0.9,0.2h0.9h0.9l0.9,0.2v0.9l-0.3,0.8l-0.3,0.8l0.5,0.9l0.8,0.2h1.1l0.8-0.3l0.8-0.5l0.6-0.6l0.6-0.5
		l0.8-0.8l0.8-0.3l0.9-0.2l0.8,0.3l0.6,0.8l0.8,0.3l0.9,0.2h0.9h0.9l0.5,0.8l-0.2,0.9l-0.2,0.8l0.6,0.8l-0.5,0.8l-0.8,0.5l-0.9,0.2
		l-0.6,0.6l-0.2,0.9v0.9l0.3,0.9l0.3,0.8l0.2,0.6l1.3,0.2l0.9-0.2l0.9-0.2l0.9,0.2l0.8,0.2l0.9,0.2l0.8-0.5l0.6-0.6l0.2-0.9v-0.9
		l0.3-0.8l0.6-0.6l0.9-0.3l0.9-0.2l0.8,0.5l0.3,0.8l-0.3,0.8l-0.5,0.8l0.2,0.9l0.3,0.8l0.5,0.8l0.8,0.5h0.9l0.6-0.5l0.8-0.6l0.8,0.6
		l0.9,0.2h0.9l0.6,0.5l0.3,0.9v0.9l-0.2,0.9l0.2,0.8l0.3,0.9l0.2,0.9l-0.2,0.8v1.1l0.5,0.8l0.6,0.6l0.5,0.8l0.2,0.9v0.9v0.9
		l-0.2,0.9l0.2,0.8l-0.2,0.8v0.9l-0.2,0.9l-0.2,0.9l-0.3,0.8l-0.5,0.8l-0.3,0.8l-0.6,0.8l-0.6,0.8l-0.8,0.5l-0.6,0.6l-0.8,0.6
		l-0.6,0.5l-0.8,0.5l-0.8,0.5l-0.9,0.3l-0.9,0.2l-0.8,0.3l-0.8,0.6l-0.3,0.8l-0.3,0.8l-0.3,0.8l-0.6,0.8l-0.5,0.8l-0.6,0.9l0.6,0.6
		l0.8,0.3l0.8,0.5l0.9,0.2l0.9,0.2l0.9-0.2h0.9l0.3,0.8l0.2,0.9l0.2,0.9l0.3,0.9l0.6,0.6l0.9-0.2l0.9-0.2l0.8-0.3l0.9-0.2l0.9-0.2
		l0.9-0.2h0.9l0.9,0.2l0.8,0.2h0.9l0.8-0.5l0.8-0.3l0.9-0.3h0.9l0.8,0.2l0.9,0.2l0.9,0.2h0.9l0.8-0.3l0.8-0.5l0.9-0.2l0.8,0.3
		l0.8,0.6l0.8-0.3l0.9-0.2l0.9,0.2h0.8l0.8-0.6l0.6-0.5l0.8-0.5l0.6-0.6l0.8-0.8l0.6-0.6l0.5-0.8l0.5-0.8l0.6-0.6l0.8-0.5l0.9-0.3
		l0.8-0.3l0.6,0.8l0.3,0.8v1.1l0.8,0.2l0.9,0.2l0.8,0.3l0.8,0.5l0.9,0.2l0.5-0.8l0.5-0.6l0.9,0.2l0.2,0.9l0.9-0.2l0.8-0.3h0.9h0.8
		l0.8-0.5l0.8-0.5l0.3-0.8l0.2-0.9l0.3-0.8l0.6-0.8l0.6,0.6l0.2,0.9l0.6,0.6l0.8,0.6l0.2,0.8l-0.3,0.9l-0.3,0.8l-0.3,0.8l-0.3,0.9
		v0.9v0.9l0.6,0.6l1.4-0.3l0.8-0.3l0.5,0.6l-0.6,0.8l0.5,0.6h0.9l0.9-0.2h0.9h0.9l0.6,0.6l0.9,0.5l0.8,0.2l0.9,0.3l0.8,0.3l0.9-0.2
		l0.9-0.2h0.9l0.9-0.2l0.9,0.5l0.8,0.5l0.8,0.5l0.8,0.5l0.9,0.2h0.8l0.9-0.2l0.9-0.3L420.4,299.3L420.4,299.3"/>
</g>
</svg>
