<?xml version="1.0" encoding="utf-8"?>
<!-- Generator: Adobe Illustrator 27.0.0, SVG Export Plug-In . SVG Version: 6.00 Build 0)  -->
<svg version="1.1" id="Layer_1" xmlns="http://www.w3.org/2000/svg" xmlns:xlink="http://www.w3.org/1999/xlink" x="0px" y="0px"
	 viewBox="0 0 500 500" style="enable-background:new 0 0 500 500;" xml:space="preserve">
<style type="text/css">
	.st0{fill:#E74646;stroke:#FFFFFF;stroke-width:4.6041;stroke-linecap:square;stroke-linejoin:bevel;stroke-miterlimit:3.998;}
</style>
<g transform="matrix(0.999751,0,0,0.999751,18.6633,21.7738)">
	<path vector-effect="none" class="st0" d="M453.4,221.3v3l1,2.5l2.5,2.5v2.5l-2,1.5l-3,1l-1.5,2.5l-1,2.5l-1.5,2.5l-2.5,2H443l-3-1
		l-3-0.5h-3l-2.5,1.5l-1.5,2.5v3l1.5,2.5l1.5,2.5l-0.5,3l-2.5,1l-3-0.5l-3,0.5l-2.5,1l-2,2l-2,2.5l-2,3.9h-3l-2.5,2l-2,1.5l-2.5,1.5
		l-2.5,1.5l-3,1h-3l-2.5-0.5l-3-1h-3l-2.5,1.5l-2.5,1.5l-2,2l-2.5,2l-2,2l-2.5,1.5l-2.5,1l-3,0.5l-3-0.5l-2.5-1l-3-1l-2.5-1.5
		l-2.5,1l-3,0.5l-3,0.5l-3,0.5l-2.5,1l-3,0.5l-3,1l-2.5-0.5l-2.5-1l-3,1l-2.5,1.5l-2.5,1l-3,1l-2.5,1l-1.5,1v3l-1,3l-1,3l-1,2.5
		l-1,2.5l-1,3v3l1.5,2.5l2.5,1.5l0.5,3.9l0.5,3.9l1.5,3l1,2.5l1,1.5l2,2l2,1l3,0.5l2.5,1.5l2.5,1l2.5,1.5l2.5,1.5l2,2.5l2.5,1.5l3-1
		l3-0.5h2.5l2.5,2l1,2.5v2.5v2l1,2.5l1.5,3l1.5,2.5l1,2.5l-0.5,2.5l-1.5,3l-2,2l-2.5,1l-2,2l0.5,3l0.5,3l-1.5,2.5l-1.5,2.5l-0.5,2.5
		l1.5,2.5l2.5,2l0.5,3l-1,3l-2,1.5l-2.5,1.5l-3,1l-2.5,1.5l-1.5,2.5l-1,2.5l-1,2.5l-0.5,3l-1.5,2.5l-2,2l-1.5,2h-3l-1.5,2.5l-2,2
		h-2.5l-2-2.5l-2.5-1.5l-3.5-2.5l-3,1l-2,2l1,2.5v3l-2.5,1.5h-2.5l-3-1l-2.5-1l-3-0.5h-3l-2.5-0.5l-2.5-1.5l-2-2l-2.5-2.5l-2.5-0.5
		h-3l-3,1l-2.5,1l-2.5,1.5l-2.5,2l-2,1.5l-2.5,2.5v2.5l-0.5,3l-1,3l-1.5,2l-2,2.5l-2,2.5l-2,2l-2.5,2l-2,2l-3,1l-2.5,1l-2.5,1
		l-2.5,1.5l-1,2.5v3.5l2.5,1.5l2.5,1.5l2.5,1l1.5,2.5l1,2.5v3.9l-3-0.5l-2.5-0.5l-3-0.5l-3-0.5l-3,0.5l-2.5,1.5l-2.5,1l-3,1
		l-2.5-0.5l-2.5-2l-2.5-2l-2.5-1.5l-2.5-1l-2.5-1l-2.5-1l-3-1l-2-2l-2-2.5l-1.5-3.5l1-2.5v-3v-3l-1-3l-2-2l-2-2.5l-1-2.5l-4.4-0.5
		h-3l-3,0.5h-3l-2.5,1l-2.5,1.5l-2.5,2h-2.5h-3h-3h-3l-3-0.5h-3l-3-0.5l-2.5-0.5l-2.5-1.5l-2.5-2l-3-0.5l-2-1.5l-3,0.5l-1,2.5
		l-1,2.5l-2.5,1.5l-3-1l-2-1.5l-2-2.5l-2.5-1l-2.5,0.5l-1,3l-0.5,2.5l-1.5,3l-2,2l-2.5,1.5l-2.5,1l-2.5,1l-3,1l-2,1.5l-2.5,2
		l-1.5,2.5l-0.5,2.5l-1.5,2.5l-2.5,2l-2.5,1.5l-2.5,1l-2.5-1l-2-1l-2-2.5l-1-2.5l-1-2.5l-2-2.5l-2-2l-2.5-1.5l-3-1l-2-2l-1-3
		l-1.5-2.5l-2-2l-2-2l-3-0.5h-3l-3,0.5l-2.5,1h-3h-3l-3-0.5l-2.5-0.5l-3-1.5l-2-1.5l-3-1l-2.5-1l-2-2.5l-1.5-2l-2.5-2l-2.5-1.5l-2-2
		l-1-3v-3l-0.5-3v-3l-0.5-3l-0.5-3l-1-3l-1-2.5l-1.5-2.5l-2-2l-2.5-1l-2.5-2l-1.5-2.5l0.5-2.5l2-2l2.5-1.5l2-1.5l2.5-1.5l2.5-1.5
		l2.5-1l1.5-2.5l-1-2.5l-0.5-3l0.5-3l1.5-2.5l2-2l1-3l1.5-2.5l-1-2.5l-1.5-2.5v-3.5v-2.5l-1.5-2.5l-2.5-2l-2.5-1.5l-2.5-1l-2.5-1.5
		l-3-1l-2-2l-3-1l-2.5-0.5l-1-3.5v-3l1-3l0.5-2.5l1-2.5l0.5-3l1-3l1.5-2.5l1.5-2.5l2-2.5l2-2l1.5-2.5l2-2l2.5-2l2-2l2-2l3-1.5l2-1.5
		l2.5-1.5l3-1l3-0.5L46,286l2.5-1v-3.5l1.5-1.5l3-0.5l3-1l2.5-1l2.5-1l2.5-1l2-2l3,0.5l3,0.5h3l3-0.5l2.5-1.5l2-2l1.5-2.5v-3l0.5-3
		l1-2l3-0.5l2.5,1.5l1,3l1,2.5l2.5,1.5l3,0.5l2,2l3-1l2-2.5l-1.5-2.5l-0.5-3l0.5-3l1-2.5l2.5-2l2-2l0.5-3l0.5-2.5l2-2.5l1.5-2.5
		l1.5-2.5l1-2.5l2.5-1.5l3-0.5l2.5-1.5l2-2l1.5-2.5l-2-2l-1.5-2.5l-1.5-2.5l-1-2.5l-1-3l-1-2.5L117,212l-0.5-3l-1.5-2.5l-2-1.5l-3,1
		l-3-0.5l-2.5-1l-2-2l-2.5-2.5l-2-2l-2-2.5l-1-2.5l-2-2l-2-2.5l-2-2l-1.5-2.5l-2-2l-2.5-2.5l-2-1.5l-1.5-3l0.5-2.5l0.5-3v-3l-1.5-3
		l-2.5-0.5l-3-0.5l-2.5-1.5l0.5-2.5l1-2.5l2-2.5l1.5-2.5l1-2.5l1.5-2.5l2.5-1.5l3-0.5l2.5-1l2.5-1.5l1.5-2.5l0.5-3l2-2h3l3-1
		l2.5-1.5l2-1.5l2.5-2l2.5-1.5l2.5-0.5h3l2.5,1.5l2.5,1l2,2l2,2.5l2.5,2l3-0.5l2.5-1.5l1-2l2.5-1l2.5-1.5l2.5-1l3-1.5l2.5-1.5l2.5-1
		l2.5-1.5l2.5-1l2.5-1.5l0.5-3l-1-2.5l1-2.5l2-2l3-1l2-1.5l2.5-2l1-2.5v-3v-3v-3l2.5-1.5l2-2.5l2-2l2.5-1.5l2-2.5l1.5-2.5l0.5-3
		l0.5-2.5l0.5-3l1.5-2.5h2.5l3,1l2.5,1.5l2,2l2.5,1.5l2.5-1.5l2.5-2l2.5-0.5l3-0.5l3,0.5h3l2.5-1l2.5-1.5l2.5-1l3-1l2,2l1,2.5l2.5,1
		l2.5-1.5l2-2l2-2l-0.5-3.9l-2-2l-2.5-2l-1.5-2.5l-2.5-2l-2.5-2l-2-1.5l-2.5-2l-2.5-2l-0.5-3l-1.5-2l-2-2.5l-2.5-1.5l-2.5-2l-2-2
		l-1.5-2.5l0.5-3l0.5-3l1.5-2.5l1.5-2.5l1.5,0.5l2.5,1.5l2,2.5l2,2l2,2.5l2.5,1l3-1h3l3,0.5l2.5-0.5l3-1l1-2l-1-2.5l-1.5-2.5
		l-1.5-2.5l-1-3l-0.5-3v-3l2-1.5l3-1l2.5-0.5l3-1l3-0.5l2.5-1h3h3l3,0.5l2.5,0.5l3-1l2.5-1l2.5-2v-3l-0.5-3l-0.5-3l-1-2.5v-3v-3
		l2.5-2l2.5-1.5l2.5,0.5l3,0.5l2.5,1l3,1l2,2l1,2.5l0.5,3l0.5,3l-1.5,2.5v3l-0.5,3l1,3l1.5,2.5l1,2.5l1,2.5l1.5,2.5l2,2l1.5,2.5l1,3
		l0.5,2.5l2.5,2l2.5,1l3,1.5l2,1.5l2,2.5l2,2l2.5,2l1.5,2.5l2,2l2.5,1l3,0.5l3,0.5l2.5,1l2,2.5l1.5,2l2,2.5l1,1.5l3.5,1.5l1.5,2.5
		l1.5,2.5l2,2l2.5,2l1.5,2.5l1,2.5l1.5,2.5l2.5,2l1.5,2.5l2.5,2l2,2l2.5,2l2.5,0.5h3h3l3-0.5l3-0.5l3-1l2.5-0.5l3-1l3-0.5h3l3-0.5
		l3,0.5l2.5,0.5l3,0.5l2.5,1l3,0.5l3,0.5l2.5,0.5l3,0.5l2.5,1l3,0.5l3,0.5l2.5,1l2.5,1l3,1l2.5,1.5l2.5,1l2.5-0.5l3-1l1-2.5l1.5-2.5
		l2.5-1.5l2.5-1l2.5-1.5l3-0.5h3h3h3l2.5,1l3,1h3l2.5,0.5l3,0.5l2.5,1.5l-0.5,9.4l-2.5-0.5l-3-0.5l-3-0.5l-3,0.5l-2,1.5l-0.5,3
		l0.5,3l0.5,2.5l1,3l1,2.5l0.5,3l-1,2.5l-3,1h-3l-2.5,0.5l-2.5,1.5l-2.5,1.5l-3,0.5l-2-2l-2.5-1.5l-3-0.5l-3,0.5l-2.5,1.5l-3,0.5
		l-2.5,1.5l-2.5,1l-2.5,1.5l-2.5,1.5l-1.5,2.5l-0.5,3l1.5,2l1,3l-2,2l-2.5,1l-3,0.5l-1,2.5v3l1,2.5l1,3l1.5,2.5l1,2.5l1,2.5l1,3
		l1,2.5v3l-0.5,3l-1,2.5l-0.5,3l-1.5,3.5l2.5,2l2,2.5l2,2l1.5,2.5l1.5,2.5l1.5,2l2,2.5l1,2.5l1.5,2.5l1.5,2.5l1.5,2.5l2.5,1.5l2.5,2
		l2.5,1.5l2,2l1.5,3l1,2.5l2,2l2,2l2.5,1.5l3,1L453.4,221.3L453.4,221.3"/>
</g>
</svg>
