<?xml version="1.0" encoding="utf-8"?>
<!-- Generator: Adobe Illustrator 27.0.0, SVG Export Plug-In . SVG Version: 6.00 Build 0)  -->
<svg version="1.1" id="Layer_1" xmlns="http://www.w3.org/2000/svg" xmlns:xlink="http://www.w3.org/1999/xlink" x="0px" y="0px"
	 viewBox="0 0 500 500" style="enable-background:new 0 0 500 500;" xml:space="preserve">
<style type="text/css">
	.st0{fill:#E74646;stroke:#FFFFFF;stroke-width:4.6041;stroke-linecap:square;stroke-linejoin:bevel;stroke-miterlimit:3.998;}
</style>
<g transform="matrix(0.999751,0,0,0.999751,18.6633,21.7738)">
	<path vector-effect="none" class="st0" d="M418.1,47.4l0.9,0.4l1.1,0.4l0.9,0.4l0.9,0.4l1.1,0.2l1.1,0.2l1.1,0.2l0.9,0.2l1.1,0.4
		l0.9,0.6l0.8,0.6l0.9,0.6l0.8,0.9l0.4,0.9l0.6,0.9v1.1v1.1l0.4,1.1l-0.2,1.1l-0.2,1.1l0.4,0.9l0.8,0.8l0.2,1.1l-0.6,0.9l-0.8,0.8
		l-0.4,0.9l-0.4,1.1L431,68l0.4,0.9l0.9,0.8l0.9,0.2l0.9-0.4l1.1-0.4l0.9-0.2l1.1-0.2h1.1h1.1l0.9,0.2l1.1,0.2l1.1,0.4l0.8,0.6
		l0.8,0.8l0.9,0.8l0.9,0.4l0.9,0.4h1.1l0.9,0.4l0.9,0.4l1.1,0.2h1.1h1.1l1.1,0.2l0.9,0.2l-0.6,0.9l-0.9,0.6l-0.9,0.4l-0.9,0.9
		l-0.2,1.1l1.3,0.4l0.9,0.4l1.1,0.4l0.8,0.9l0.9,0.8l0.8-0.2l0.8,0.8l0.9,0.8l0.8,0.9l0.8,0.8l0.9,0.8l0.9,0.6l0.8,0.6l1.1,0.2
		l1.1,0.2l1.1,0.4l0.9,0.4l0.9,0.4l1.1,0.2l0.6,0.8l0.4,1.1l-0.4,0.9l-0.2,1.1L471,92l0.6,0.9l0.4,1.1l0.2,0.9l0.2,1.1l0.2,0.9
		l0.2,1.1l0.4,1.1l0.6,0.9l-0.9,0.6l-0.4,0.9L472,103l0.6,0.9l0.2,0.9l0.4,1.1l0.2,0.9l0.2,1.1l0.2,1.1l0.2,1.1l0.4,0.9v1.1l0.4,0.9
		l0.4,0.9l0.2,1.1l-0.4,1.1l-0.6,0.9l-0.6,0.9l-0.8,0.8l-0.9,0.4l-1.1,0.2l-1.1,0.2l-0.8,0.9l-0.4,0.9l-0.2,0.9l-0.4,1.1l-0.2,1.1
		l-0.2,0.9l-0.2,1.1l0.8,0.9l0.8,0.8l0.8,0.8l0.4,1.1l0.2,0.9l0.8,0.9l0.8,0.9l0.8,0.8l0.2,1.1v1.1l-0.4,0.9l-0.6,0.9l-0.4,0.9
		l-0.4,1.1l-0.6,0.8l-0.6,0.9l-0.4,1.1l-0.4,0.9l-0.2,1.1l-0.2,0.9l-0.2,1.1l-0.4,0.9l-0.8,0.9l-0.4,1.1l-0.8,1.1l-0.8,0.9l-0.8,0.6
		l-0.9,0.6l-0.9,0.4h-1.1l-0.9-0.6l-0.8-0.8l-0.9-0.8l-0.6-0.9l-0.4-0.9L458,149v-1.1l-0.4-0.9v-1.1l-0.8-0.8l-0.2-1.1l-0.8,0.4
		l-0.6,0.9l-0.8,0.8l-1.1,0.2l-0.9,0.2l-1.1-0.2l-0.9-0.6l-0.9-0.6l-0.9-0.4l-1.1,0.2l-1.1-0.2l-1.1,0.2l-1.1,0.2l-0.9,0.4l-0.9,0.4
		l-0.9,0.6l-1.1,0.2l-1.1,0.2l-0.9,0.4l-0.9,0.6l-0.8,0.8l-0.9,0.8l-0.8,0.8l-0.8,0.8l-0.9,0.4l-1.1,0.6l-0.9,0.4l-0.9,0.4l-0.9,0.6
		l-0.8,0.8l-0.8,0.9l-0.8,0.9l-0.6,0.8l-0.6,0.9l-0.8,0.9l-0.8,0.6l-0.9,0.6l-0.6,0.9l-0.6,0.9l-0.2,1.1l-0.2,1.1l-0.6,0.8l-0.9,0.8
		l-0.9,0.6l-0.9,0.6H417l-1.1-0.2l-0.9,0.6l-0.6,0.9v1.1l-0.2,1.1l-0.2,1.1l-0.6,0.6l-0.8-0.8l-0.6-0.9l-0.9-0.9l-0.9-0.6l-0.9,0.4
		l-0.8,0.8l-0.8,0.9l-0.8,0.8l-0.8,0.8l-0.8,0.9l-0.8,0.8l-0.8,0.9l-0.8,0.8l-0.9,0.6l-0.9,0.8l-0.6,0.8l-0.8,0.9l-0.8,0.8l-0.6,0.9
		l-0.6,0.9l-0.6,0.9l-0.8,0.8l-0.6,0.9l-0.8,0.9l-0.6,0.9l-0.6,0.8l-0.6,0.9l-0.8,0.8l-0.9,0.8l-0.6-0.8l-0.2-1.1l-0.2-0.9l-0.2-1.1
		l0.6-0.9l0.4-0.9v-1.1l-0.4-0.9l-0.4-1.1l-0.8-0.6l-0.9-0.6l0.2-1.1l0.2-0.9l-0.4-1.1l-0.9-0.6l-0.9-0.8l-0.8-0.4l-0.8,0.8
		l-0.6,0.9l-0.8,0.6l-0.9-0.2L383,176v0.9l-0.9,0.2l-1.1,0.4l0.6,0.9l-0.8,0.9l-0.9,0.4l-0.9,0.8l-0.9,0.6l-0.8,0.6l-0.9,0.8
		l-0.9,0.6l-0.9,0.6l-1.1,0.2l-0.8,0.2l-1.3,0.4H370l-1.1-0.4l-0.9-0.2l-1.1-0.4l-0.6-0.8l0.4-1.1l0.2-0.9l0.6-0.9l-0.2-1.1
		l-0.4-0.9l0.4-1.1l0.6-0.9l0.8-0.8l0.4-0.9l-0.4-1.7l-1.1-0.4l-0.9-0.2l-1.1-0.2h-1.1l-1.1,0.2l-0.9,0.4l-0.9,0.2l-0.9,0.6
		l-0.9,0.6l-0.8,0.6l-1.1-0.4l-0.9-0.2l-1.1-0.2l-0.9,0.6l-0.6,0.9l-0.6,0.9l-0.8,0.8l-0.9,0.8l-0.8,0.8l-0.9,0.6l-0.9,0.8l-0.8,0.6
		l-0.8,0.9l-0.8,0.8l-0.9,0.8l-0.8,0.8l-0.8,0.9l-0.8,0.8l-0.8,0.9l-0.8,0.8l-0.9,0.8l-0.8,0.6l-0.9,0.6l-1.1,0.2l-0.8-0.8l-0.9-0.8
		l-0.9-0.4h-1.1l-0.9,0.4l-0.9,0.6l-0.9-0.8l-0.9-0.6l-0.8-0.8l-0.4-0.9l-0.4-1.1l-0.4-0.9l-0.8-0.9l-0.6-0.8l-0.4-1.1l-0.6-0.9
		l-0.9-0.4l-1.1-0.2h-1.1h-0.9l-0.8,0.9l-0.6,0.9l-0.2,1.1v1.1v1.1l-0.4,0.9l-0.6,0.9l-0.9,0.6l-0.9,0.4l-1.1,0.4L316,187l-0.6,0.9
		l-0.9,0.4l-1.1-0.2l-1.1-0.2l-0.9-0.2h-1.1H309h-1.1l-1.1-0.2h-1.1l-0.9,0.2l-1.1,0.4l-1.1,0.2l-0.9,0.4l-1.1,0.2l-0.4,1.1v1.1
		l-0.2,0.9l-0.2,1.1v1.1l0.2,1.1v1.1l-0.6,0.9l-0.8,0.8l-0.2,1.1l0.2,1.1l0.6,0.8l0.9,0.6l1.1,0.4l0.9,0.2l0.9,0.6l0.9,0.6l0.9,0.6
		l0.9,0.8l0.8,0.8l0.4,0.9l0.4,0.9l0.6,0.9l0.8,0.9l0.9,0.8l0.6,0.8l0.8,0.9l0.8,0.9l0.9,0.6l0.8,0.9l0.6,0.9l0.2,0.9l0.2,1.1v1.1
		l-0.4,0.9l-0.4,0.9l-0.4,1.1l-0.2,0.9l-0.4,1.1v1.1l0.2,1.1l0.2,0.9l-0.2,1.1l-0.4,0.9l-0.6,1.1l-0.2,0.9l-0.6,0.9l-0.4,0.9
		l-0.8,0.9l-0.6,0.9l-0.9,0.6l-0.9,0.4l-0.4,1.1l0.6,0.8l0.9,0.4h1.1l0.6,0.9l-0.2,1.1l-0.2,1.1l-0.2,0.9l0.2,1.3v1.1l0.4,0.9
		l0.2,0.9l-0.9,0.8l-0.6,0.9l-0.4,0.9l-0.4,1.1l-0.4,0.9l0.4,0.9l0.4,1.1l0.2,0.9v1.3v1.1l-0.2,0.9l-0.8,0.9l-0.9,0.4l-1.1-0.4
		l-0.9,0.2l-1.1,0.4l-0.9-0.4l-0.9-0.8l-0.9-0.6l-0.9-0.4l-1.1,0.2l-0.8,0.6l-0.8,0.9l-1.1,0.2l-0.9,0.6l-0.6,0.9l-0.4,0.9l-0.4,0.9
		l0.2,1.1l0.4,1.1l0.9-0.8l0.8-0.8l0.9-0.2l0.8,0.8l0.4,0.8l0.4,1.1l-0.2,1.1l-0.4,0.9l0.2,0.9l0.8,0.9l0.9,0.8l0.6,0.9v1.1
		l-0.4,0.9l0.6,0.9l0.8,0.8l0.9,0.8l0.8,0.6l0.9,0.6l1.1,0.4l0.9,0.4l0.9-0.6l-0.9-0.8l-0.6-0.9l0.9-0.4l1.1,0.2l0.9-0.6l0.4-0.9
		l0.2-1.1l-0.6-0.9l-0.4-0.9l0.2-1.1l0.4-0.9l0.8-0.9l0.4-0.9l0.8-0.9l0.9-0.6l0.9-0.4l0.8-0.8l0.4-0.9l0.6-0.9l0.6-0.9l0.6-0.9
		l0.8-0.8l0.8-0.8l1.1,0.2l0.9,0.6l0.9,0.6h0.9l0.4,0.9l0.4,0.9l0.4,1.1l0.2,0.9l0.6,0.9l0.6,0.9l0.2,1.1l0.2,0.9l0.4,1.1v1.1v1.1
		l-0.2,0.9l-0.2,1.1l0.2,1.1l0.2,1.1v1.1v1.1l0.2,1.1l0.6,0.9l0.9,0.6l1.1,0.2l0.9,0.4l0.9,0.8l0.8,0.6l0.8,0.9l0.8,0.9l0.8-0.4
		l0.4-0.9l0.4-1.1l0.8-0.4l0.9,0.2l0.9,0.8v1.1l-0.2,0.9l-0.2,1.1v1.1l0.9,0.4l0.9-0.2l1.1-0.4l0.8-0.8l0.8-0.8h0.9l0.8,0.8l0.9,0.6
		l0.9,0.4l0.8,0.8l0.2,1.1l-0.4,0.9v1.1l0.8,0.8h0.9l0.9,0.6l0.4,0.9v1.1l-0.8,0.8l-0.9,0.6l-0.6,0.9l-0.2,1.1l0.2,1.1l-0.2,1.1
		l-0.2,1.1l-0.4,0.9l-0.6,0.9l-0.6,0.9l-0.2,0.9v1.1l0.4,0.9l0.8,0.9l0.9,0.6l1.1,0.4l0.9,0.2l0.9,0.6l0.8,0.8l0.6,0.9l0.4,0.9
		l-0.2,1.1l-0.2,1.1l-0.2,1.1l-0.2,0.9l-0.2,1.1l-0.6,0.9l-0.8,0.9l-0.4,0.9l-0.6,0.9v1.1l1.3-0.4l0.9-0.2l1.1-0.2l0.9-0.4l0.9-0.4
		l1.1-0.6l0.8-0.6l0.9-0.6l0.9-0.6l1.1-0.4l0.8-0.6l0.8-0.8l0.8-0.9l0.8-0.8l0.6-0.9l0.8-0.9l0.8-0.8l0.9,0.8l0.9,0.4l0.9,0.8
		l0.8,0.8l0.6,0.9l0.2,0.9l0.2,1.1l0.2,1.1v1.1l0.2,1.1l0.4,0.9l0.2,1.1v1.1l0.4,0.9l0.6,0.9l0.4,0.9l0.2,1.1l-0.2,1.1l-0.2,0.9
		l-0.2,1.1l-0.4,0.9l-0.4,1.1l-0.4,0.9v1.1l0.4,0.9l0.8,0.9l0.9,0.4l1.1,0.2l1.1,0.2l0.9,0.4l1.1,0.4l0.8,0.6l0.8,0.9l0.8,0.8
		l0.8,0.9l0.8,0.9l0.6,0.8l0.6,1.1l-0.4,0.9l0.2,1.1l0.6,0.9l0.9,0.4l0.9,0.8l0.9,0.4l1.1,0.2l0.9,0.4l0.9,0.4l1.1,0.4l0.8,0.8
		l0.4,0.9l-0.2,1.1l-0.2,1.1l-0.4,0.9l-0.9,0.8l-0.6,0.8l-0.8,0.9l-0.2,1.1l-0.2,1.7l-0.9,0.8l-0.8,0.6l-0.6,0.9l-0.4,1.1l-0.2,0.9
		l-0.4,1.1l-0.4,0.9l-0.4,0.9l-0.2,1.1v1.1l-0.4,0.9l-0.4,0.8l0.2,1.5v1.1v1.1l0.4,1.1v1.1l0.2,1.1l-0.2,1.1v1.1v1.1v0.9l0.4,0.9
		l0.8,0.9l0.9,0.8l0.9,0.4l1.1-0.4h1.1l0.2,0.9l0.4,1.1l0.2,1.1l-0.2,0.9l-0.6,0.9l-0.9,0.6l-0.9,0.4l-0.9,0.6l-0.4,1.1l0.4,0.9
		l0.4,0.9l0.2,1.1l-0.8,0.6h-1.1l-1.1,0.4l-0.9,0.2l-1.1,0.2l-1.1,0.2l-0.8,0.8l-0.9,0.8l-0.9,0.6l-0.8,0.8l0.6,1.5l1.1,0.4l0.9-0.4
		l0.9-0.4l1.1-0.2l1.1,0.2h1.1l1.1-0.2l0.9-0.2h1.1l1.1-0.2l1.1,0.2l0.6,0.9l0.2,0.9l0.6,0.9l0.2,1.1l-0.8,0.4l-0.6,0.8l-0.2,0.8
		l-1.1,0.2l-0.8,0.8l-0.8,0.8l-0.8,0.9l-0.4,0.9l-0.4,0.9v1.1v1.1l-0.6,0.9l-0.9,1.3l-0.8,0.4l-0.9,0.6l-0.9,0.6l-0.9,0.6l-0.8,0.9
		l-0.6,0.8l-0.9,0.8l-0.8,0.6l-0.9,0.6l-0.9,0.6l-0.8,0.8l-0.6,0.9v1.1l-0.2,1.1l-0.2,0.9l-0.4,1.1l-0.2,1.1l0.2,1.1v1.1l-0.4,0.9
		l-0.6,0.9l-0.4,0.9l-0.6,0.9l-0.6,0.9l-0.6,0.9l-0.6,0.9l-0.6,0.9l-0.6,0.8l-0.9,0.9l-0.4,0.9l-0.2,0.9l0.4,1.1l0.8,0.8l0.2,1.1
		l-0.2,0.9l-0.4,1.1l-0.9,0.6l-0.9,0.2l-1.1-0.2l-0.9-0.6l-0.9-0.6l-0.8-0.8l-0.9-0.4l-0.9,0.8l-0.6,0.8l-0.4,1.1l-0.4,0.9l-0.2,1.1
		l-0.9,0.6l-0.9,0.4l-1.1-0.2l-0.9-0.6l-0.9-0.6l-0.9-0.4l-0.9-0.6l-0.9-0.6l-0.4-0.9l0.8-0.8l0.4-1.1l-0.8-0.8l-0.9-0.2l-1.1-0.2
		l-1.1-0.2l-1.1,0.2l-0.9,0.2l-0.9,0.6l-1.1,0.4h-0.9l-0.8-0.8l-0.8-0.8l-0.8-0.9l-0.4-0.9l-0.9-0.4l-0.9,0.4l-0.8,0.8l-0.8,0.9
		l-0.8,0.8l-0.6,0.9l-0.6,0.9l-0.8-1.1l-0.2-1.1l-0.6-0.9l-0.8-0.8l-0.4-0.9l-0.6-1.1l-0.2-0.9l-0.4-0.9v-1.1l0.6-0.9l0.6-0.9
		l0.8-0.8l0.9-0.4l0.9-0.4l0.2-0.9l-0.2-1.1l0.2-1.1l0.4-0.9l0.2-1.1l0.4-0.9l0.2-1.1l-0.8-0.9l-0.6-0.8l-0.2-1.1v-1.1l0.4-1.1
		l0.4-0.9l-0.2-0.9l-0.6-0.9l-0.9-0.6v-1.1l-0.8-0.9l-0.8-0.6l-0.8-0.8l-0.4-0.9l-0.6-0.9l-1.1-0.2l-0.9,0.8l-0.6,0.8l-0.8,0.9
		l-1.1,0.2l-0.9,0.4h-1.1l-0.6,0.9v1.1l0.8,0.8l0.9,0.4l0.6,0.9l0.6,0.9l0.9,0.8l0.2,1.1l-0.6,0.9l-0.8,0.8l-0.8,0.8l-0.8,0.8
		l-0.8,0.9l-0.2,0.9l0.6,0.9l1.1,0.4l0.9,0.6l-0.4,0.9l-0.8,0.4h-1.1l-1.1-0.2l-1.1,0.2l-1.1,0.2l-1.1,0.8l-0.6-1.1l-0.6-1.1
		l-0.6-0.9l-0.6-1.1l-0.4-0.9l-0.6-0.9l-0.2-1.1l0.8-0.9l0.8-0.6l0.6-0.9l0.2-1.1l0.4-0.9v-1.1l-0.6-0.9l-0.4-0.9l-0.4-1.1l-0.2-0.9
		v-1.1l0.4-1.1l-0.4-0.9l-0.8-0.9l-0.2-0.9l0.2-1.1l0.9-0.4h1.1h0.9l0.8-0.8l-0.4-1.1l-0.2-0.9l-0.2-1.1l0.2-1.1l0.2-0.9l0.6-0.9
		l0.8-0.8l0.8-0.8l0.6-0.9v-1.1l-0.8-0.8l-0.9-0.6l-1.1-0.2l-0.9-0.2l-0.8-0.9l-0.8-0.6l-1.1-0.2l-1.1,0.2l-1.1,0.4h-0.9l-1.1,0.2
		h-1.1l-1.1,0.4l-0.8,0.8l-0.9,0.6h-1.1h-1.1l-0.9-0.2l-1.1-0.2l-0.9-0.4l-0.9-0.4l-1.1-0.2l-1.1-0.2l-0.9-0.4l-0.9-0.6l-0.8-0.8
		l-0.9-0.6l-1.1-0.4l-0.8-0.6l-0.9-0.8l-0.4-0.9v-1.1v-1.1l0.4-0.9l0.4-0.9l0.9-0.8l0.8-0.8l0.8-0.8l0.8-0.8l0.9-0.8l0.4-0.9
		l0.4-1.1l-0.8-0.8l-0.8-0.8l-0.9-0.8l-0.8-0.8l-0.4-0.9l-0.4-1.1l-0.2-0.9l-0.4-1.1l-0.6-0.9v-0.9l0.2-1.1l0.2-1.1l0.2-1.1v-1.1
		v-1.1l-0.4-0.9l-0.2-1.1l-0.4-0.9l-0.2-1.1l-0.4-0.9l-0.4-1.1l0.2-1.1l-0.2-1.1l-0.2-0.9l-0.4-1.1l0.2-1.1l-0.4-1.5l-0.2-1.1v-0.9
		l0.2-1.1l0.4-1.1v-1.1l-0.2-1.1l-0.8-0.6l-0.9-0.4l-1.1,0.2l-1.1,0.2l-0.8,0.8l-0.9,0.8l-0.4,0.9v1.1l-0.6,0.9l-0.8,0.8l-0.9,0.4
		l-0.4-0.9l-0.6-0.9l-0.8-0.8l-0.8-0.9l-0.8-0.8h-1.1l-0.9,0.4l-0.9,0.6l-0.9,0.4l-1.1,0.4l-0.9-0.2l-0.9-0.6l-0.9-0.6l-0.8-0.8
		l-0.9-0.8l-0.9-0.6l-0.9-0.4l-1.1,0.2h-0.9l-0.9,0.6l-0.9,0.8l-0.8,0.8l-0.6,0.9l-0.8,0.9l-0.8,0.8l-0.9,0.6H254l-1.1-0.2l-0.9-0.4
		h-1.1l-1.1,0.2l-0.9,0.6l-0.8,0.8l-0.9,0.8l-0.6,0.9l-0.9,0.6l-0.9-0.4h-1.1l-0.9,0.4l-0.4,1.1l-0.4,0.9l-0.6,0.9l-0.9,0.8h-1.1
		l-0.9-0.6l-0.8-0.9l-0.6-0.8l-0.6-1.1v-1.1l-0.2-0.9v-1.1l-0.8-1.3l-0.6-0.9l-0.8-0.8l-0.4-1.5l0.2-1.1l0.2-1.1l0.2-1.1l0.6-0.9
		l0.4-0.9l0.4-0.9l-0.2-1.1l-0.2-1.1l-0.6-0.9l-0.8-0.8l-0.6-0.9l-0.8-0.8l-0.8-0.9l-0.8-0.9l-0.9-0.6l-0.9,0.4l-0.9,0.6l-0.9,0.6
		l-0.4,0.9l-0.4,0.9l-0.8,0.9l-0.9,0.6l-1.1,0.2l-1.1-0.2l-0.9-0.4l-0.8-0.9l-0.4-0.9l-0.6-0.9l-1.1-0.2l-1.1,0.2l-0.9,0.4l-1.1,0.2
		l-1.1-0.2l-0.8-0.8v-1.1v-1.1l-0.4-0.9l-0.9-0.8l-0.9-0.4h-1.1l-0.9,0.2l-0.8,0.9l-0.8,0.6l-0.9,0.8l-0.9,0.4l-1.1,0.4h-0.9
		l-0.9-0.4l-0.9-0.6l-0.8-0.8l-0.9-0.8h-1.1H198l-0.9,0.4l-0.9,0.4l-0.4,1.1l-0.2,1.1v1.1l0.2,0.9l0.2,1.1l0.4,0.9l0.4,1.1l0.2,0.9
		l-0.4,0.9l-0.9,0.8h-1.1l-0.9,0.4l-0.9,0.6l-0.6,0.8l0.2,1.1l0.6,0.9l0.6,0.9l0.4,1.1l0.2,0.9l-0.6,1.1l-0.6,0.8l-0.9,0.8l-0.4,0.9
		l0.8,0.9l0.9,0.8l0.4,0.9l0.4,0.9l0.9,0.8l0.8,0.8l0.9,0.4l0.9,0.6l0.6,0.9l0.2,1.1l-0.8,0.8l-0.9,0.4l-0.8,0.8l-0.6,0.9l-0.4,1.1
		l-0.2,1.1l-0.2,0.9l-0.2,1.1l-0.6,0.9l-0.6,0.9l-0.9,0.6l-0.9,0.6l-0.9,0.2l-1.1,0.2l-1.1-0.2l-0.9,0.4l-0.4,1.1v1.1l-0.9,0.6
		l-0.9,0.4l-0.9,0.2l-1.1,0.4l-0.9,0.6l-0.9,0.6l-0.8,0.8l-0.8,0.8l-0.6,0.9h-1.1l-0.9-0.4l-0.8-0.8l-0.2-1.1v-1.1v-1.1l-0.2-1.1
		l-0.4-0.9l-0.9-0.8l-0.9-0.4l-0.9-0.4l-0.9-0.6l-0.8-0.9L170,369l-0.8-0.8l-0.9-0.8l-0.8-0.8l-0.8-0.9l-0.9-0.4l-1.1,0.2l-0.9,0.4
		l-0.9,0.4l-0.9,0.8l-0.9,0.4l-1.1,0.4l-0.9-0.4l-1.1-0.2l-1.1-0.2l-0.9,0.2l-0.9,0.6l-0.8,0.9l-0.8,0.6l-0.8,0.8l-0.8,0.8l-0.6,0.9
		l-0.2,1.1v1.1l0.2,1.1l0.2,0.9l0.4,1.1v1.1l-0.9,0.6l-0.9,0.4l-0.9,0.4l-0.9,0.6l-1.1,0.2l-1.1,0.2l-0.9,0.4l-0.6,0.9l-0.8,0.6
		l-0.8-0.8l-0.2-0.9l-0.4-1.1l-0.9-0.2l-1.1-0.4h-1.1h-1.1h-0.9l-1.1-0.4l-0.9-0.6l-0.4-1.1l0.2-0.9l0.6-0.9l0.6-0.9l0.2-1.1V372
		l-0.8-0.8l-0.9,0.4l-0.8,0.9l-0.2,1.1l-0.2,0.9l-0.6,0.9l-0.4,1.1l-0.4,0.9l-0.6,0.9l-0.2,1.1l0.6,0.9l0.9,0.4l0.9,0.6l0.9,0.6
		l0.8,0.6l0.9,0.4l0.9,0.8l0.8,0.8l0.8,0.8l0.9,0.8l0.6,0.9l0.4,0.9L140,389l-0.6,0.9l-0.6,0.8l-0.4,1.1v1.1l0.4,1.1l-0.2,1.1
		l-0.8,0.6h-1.1l-0.9,0.6l-0.4,0.9l-0.2,1.1l0.2,1.1l0.6,0.9v1.1l-0.8,0.6l-1.1,0.2H133h-1.1l-0.4-0.8l0.4-1.1v-1.1v-1.1l-0.2-0.9
		l-0.6-0.9l-0.9-0.4l-1.1,0.2l-0.9,0.4l-0.4,0.9l0.2,1.1l0.6,0.9l0.2,1.1l-0.6,0.8l-0.8,0.9l-0.8,0.8l-0.4,0.9l-0.8,0.8l-0.4,0.9
		l-0.2,1.1v1.1l0.4,0.9l0.8,0.9l0.6,0.9l0.4,0.9l-0.4,0.9l-0.8,0.8l-0.9,0.6l-1.3,0.8l-0.9-0.4l-0.8-0.8l-0.6-0.9l-0.6-0.9l-0.4-0.9
		l-0.9-0.6l-1.1-0.2l-0.9,0.4l-1.1-0.2l-0.8-0.6l-0.9-0.6l-0.9-0.4l-1.1-0.2l-0.9,0.4l-0.9,0.6l-1.1,0.4l-1.1-0.2l-0.6-0.9l0.2-1.1
		l0.4-0.9l0.8-0.8l0.8-0.9l0.9-0.6l0.9-0.6l0.8-0.8l0.6-0.9l0.6-0.8v-1.1l-0.2-1.1l0.2-1.1l0.4-0.9l0.9-0.4l0.8-0.8v-1.1l-0.9-0.2
		v-1.1l0.8-0.8l0.9-0.6l0.8-0.9l0.2-0.9l-0.8-0.8h-1.1l-1.1,0.2l-0.9-0.6v-0.9l-0.6-0.9l-0.9-0.8l-0.9-0.4l-0.9-0.6l-0.8-0.9
		l-0.4-0.9v-1.1v-1.1l-0.2-1.1l-0.2-0.9l-0.8-0.9l-0.6-0.8l-0.4-1.1L106,376l-0.9-0.4l-0.9-0.9l-0.8-0.8l-0.6-1.5l-0.2-0.9l-0.8-0.8
		l-0.9-0.6l-0.2-1.1l-0.8-0.8l-0.9-0.6l-0.9-0.6l-0.6,0.9l-0.2,1.1v1.1l0.2,1.1l0.4,0.9l0.6,0.9l0.2,0.9v1.1l0.2,1.1l0.8,0.9
		l0.8,0.8l0.8,0.8l0.8,0.9l0.8,0.9l0.6,0.9l0.4,0.9l0.6,0.9l0.4,0.9l0.2,1.1v1.1v1.1l-0.2,0.9l-0.2,1.1v1.1l-0.4,0.9l-0.8,0.9
		l-0.6,0.8l-0.8,0.9l-0.9,0.6l-0.8,0.9l-0.4,0.9l-0.4,0.9l0.2,0.9l0.9,0.8l0.8,0.6l0.8,0.8l0.4,1.1v1.1l-0.8,0.8l-0.9,0.4h-1.1
		l-0.9-0.6l-0.9-0.6l-0.8-0.8l-0.9-0.8l-0.8-0.8l-0.9-0.6l-1.1-0.2H92l-0.9,0.6l-0.2,0.9l-0.6,0.9L90,404l-0.6,0.6l-1.5-0.6
		l-0.8-0.6l-0.8-0.9l-0.8-0.8l-0.4-1.1l0.4-0.9l0.4-0.9l0.4-1.1v-1.1l-0.2-0.9l-0.8-0.9l-0.8-0.8l-0.9-0.8l-0.6-0.9l-0.6-0.9
		l0.2-0.9l0.6-0.9v-1.1l-0.2-1.1v-1.1l-0.4-0.9l-0.6-0.9l-0.4-0.9l-0.4-0.9l-0.2-1.1l-0.4-0.9l-0.4-1.1l-0.4-0.9l-0.8-0.9l-0.8-0.8
		l-0.8-0.9l-0.2-1.1l0.2-1.1l0.2-0.9l0.6-0.9l0.6-0.9l0.6-0.9l0.2-1.1l-0.4-0.9l-0.4-0.9l-0.8-0.9l-0.9-0.8l-0.8-0.8l-0.8-0.9
		l-0.8-0.8l-0.9-0.8l-0.9-0.6l-0.9-0.4l-0.9-0.4h-1.1l-0.9,0.2l-1.1,0.4l-0.9,0.4l-1.1,0.4l-0.9,0.2h-1.1l-0.9-0.8l-0.8-0.6
		l-0.9-0.6l-1.1-0.2l-0.9,0.4l-0.9,0.2l-0.2-1.1v-1.1l0.6-0.9l-0.4-1.1l-0.9-0.4l-0.9-0.4l-0.8-0.8l-0.9-0.6l-0.6-0.9l-1.1-0.6h-0.9
		l-0.8,0.8l-0.2,0.9l-0.8,0.8l-0.9,0.4l-0.9,0.6l-0.9,0.8l-0.6,0.9l-0.8,0.8l-0.6,0.8l-0.8,0.9l-0.9,0.6l-0.9,0.2l-0.8-0.9l-0.4-0.9
		l-0.4-0.9l-0.9-0.6h-1.1l-1.1-0.2l-0.9-0.4l-0.9-0.6h-0.9l-1.1-0.2l-0.9-0.6v-0.9l0.6-0.9l0.4-1.1l-0.4-0.9l-1.1-0.4l-0.9-0.4
		l-0.9-0.6l-0.8-0.8l-1.1-0.4l0.8-1.5l0.4-0.9l-0.6-0.9l-0.4-1.1v-0.9l0.4-0.9l0.8-0.9l0.4-0.9l-0.9-0.6l-1.1-0.2l-0.4-0.9l-0.2-0.9
		l-0.6-0.9h-1.1l0.4-0.9l0.8-0.8l0.9-0.2l0.4-0.9v-1.1l-0.8-0.8l-0.8-0.8l-0.2-1.1V329v-1.1l-0.4-1.1v-0.9l-0.2-1.1l-0.2-1.1
		l-0.2-1.1l-0.2-0.9l-0.4-0.9l-0.4-1.1v-1.1v-1.1l-0.4-0.9l-0.8-0.4l-0.6,0.9l-1.3,0.2l-0.2,1.3l-0.8,0.8h-1.1l-0.4-0.9l0.2-0.9
		l-0.9-0.6l-0.9-0.4l-1.1-0.2l-1.1,0.2l-1.1,0.2l-1.1-0.2h-1.1h-1.1h-1.1L9.1,316l-0.9-0.4l-0.9-0.8l-0.9-0.4l-1.1,0.2L4,314.3
		l-0.4-0.9l-0.4-1.1l-0.4-0.9l-1.3-0.6l-0.9-0.2l-1.1-0.4l-0.9-0.4l-0.6-0.9l-0.4-1.1l0.4-0.9l0.6-0.9l0.8-0.8l0.4-1.1l0.2-0.9
		l-0.2-1.1l-0.4-0.9l-0.8-0.9l-1.1-0.2l-0.9-0.6l-0.9-0.4l-1.1-0.2l-0.6-0.8l-0.4-1.1l-0.4-0.8H-8l-1.1,0.2h-1.1l-0.6-0.9l-0.2-0.9
		v-1.1l-0.4-1.1L-12,291l-0.4-0.9l0.2-1.1l0.4-0.9l-0.2-0.9l-0.8-0.8l-0.4-0.8l-0.4-1.1v-1.1v-1.1l0.6-0.9l0.4-0.9l0.4-0.9l0.4-1.1
		l0.4-0.9l0.9-0.6l1.1,0.4l0.9,0.6l0.9-0.4l0.8-0.8l1.1-0.2l1.1-0.2l0.9-0.4l0.8-0.8l-0.6-0.9l-0.8-0.8l-0.8-0.8l0.2-1.1l0.4-0.9
		l0.6-1.1l0.9-0.4l0.9-0.4h1.1l1.1,0.2l1.3,0.6l0.9,0.4l1.1,0.2l1.1-1.1l0.2-1.1v-1.1l0.2-0.9l0.8-0.8l1.1-0.2l0.9,0.8l0.8,0.8
		l1.1-0.2l0.8-0.6l0.8-0.9l0.9-0.4l0.9-0.4l0.8-0.8l0.6-0.9l-0.4-1.1l0.2-1.1l0.6-0.8l0.6-0.9l0.6-0.9v-1.1l0.4-1.1l0.6-0.8l0.9-0.8
		l0.8-0.6l0.9-0.8l1.1-0.2l1.1,0.2l0.9-0.2l0.9-0.6l0.9-0.6l1.1-0.4l0.9,0.4l1.1,0.4l0.8,0.6l1.1-0.2l0.9-0.2l0.9-1.1l-0.2-1.1
		l-0.4-0.9l0.4-1.1l0.2-0.9l-0.4-1.1l-0.9-0.8l-0.6-0.8l0.2-1.1l0.2-1.1l0.8-0.8l0.6-0.9v-1.1V237l0.4-0.9l0.4-0.9l0.6-0.9l-0.2-1.1
		l-0.4-0.9l-0.8-0.9l-0.8-0.6l-1.1-0.4l-1.1-0.2l-0.8-0.8l-0.4-1.1l-0.2-0.9l-0.4-1.1l-0.9-0.6H25l-0.9-0.4l-0.8-0.8l-0.4-1.1
		l-0.6-0.9l-0.8-0.6l-0.9-0.6l-1.1-0.4l-0.9-0.4l-0.8-0.9v-0.9v-1.1l-0.6-1.1l-0.9-0.4h-1.1l-0.9-0.4v-1.1l0.2-1.1l0.6-0.6l0.8,0.2
		l1.1,0.2l1.1-0.2h1.1h0.9h1.1l1.3,0.2h0.9l0.9-0.4l0.4-0.9l0.6-0.9l0.9-0.6l-0.6-1.1l-0.9-0.6l-0.8-0.6l-0.9-0.8l-0.6-0.9l-0.2-0.9
		v-1.1l0.4-0.9l1.1-0.4L25,203l0.9,0.4l1.1,0.4l0.9,0.6l0.9,0.2l1.1-0.4L31,204l0.9,0.6l0.9,0.8l0.9,0.2l0.6-0.8l-0.2-1.1l-0.8-0.9
		l-0.9-0.6l-0.6-0.9l-0.2-1.1l0.4-0.9l0.6-0.9l0.8-0.8l0.8-0.9l0.4-0.9v-1.1l0.6-0.9l0.8-0.9l0.8-0.8l0.8-0.8l0.4-0.9l1.1-0.9
		l0.8-0.9l0.4-0.9l0.8-0.8l0.9-0.4l1.1-0.2l1.1,0.2l0.4,0.9l0.4,0.9l0.4,1.1l0.6,0.8l0.8-0.8l0.9,0.6l0.4,0.9h0.8l0.4-1.1l0.8-0.6
		h1.1l0.4,0.9l0.4,0.9l1.1,0.2l0.9,0.2l0.8,0.9l0.8,0.8l0.9,0.6l1.1,0.4h0.9l3.6-1.1L63,193l0.9,0.6l0.9,0.6l0.8,0.8l0.9,0.6
		l0.9,0.6l0.9,0.6l0.9,0.6l0.8,0.6l0.9,0.9l0.9,0.2l1.1,0.4l0.9,0.4l0.9,0.8l0.6,0.9l0.6,0.9l0.4,0.9l0.6,0.9l0.6,0.9l0.4,0.9
		l0.4,0.9l0.6,0.9l0.4,0.9l0.4,1.1l0.2,1.1l0.4,0.9l0.8,0.6l1.1,0.2h1.1l0.6,0.9l0.2,1.1l0.6,0.8l0.9-0.6l0.9-0.8l0.8-0.9l0.8-0.8
		l0.9-0.8l0.9-0.6l0.9-0.2L92,211h1.1l1.1,0.2l0.9-0.4l0.9-0.4l1.1-0.2l1.1-0.2l0.9-0.2l1.1-0.2l1.1-0.2l0.9-0.6v-0.9L102,207
		l-0.2-0.9l0.6-0.9l1.1-0.6l0.9-0.4l0.9-0.4l1.1,0.2h1.1l1.1,0.2h1.1h1.1l0.9-0.2l1.1-0.4l0.9-0.4l0.9-0.4h1.1l0.9,0.4l1.1,0.4
		l0.9,0.6l0.8,0.8l0.8,0.9l0.8,0.8l0.8,0.8l0.9,1.1l-0.2,1.1l-0.8,0.6l-0.8,0.8l-0.2,1.1l0.6,0.9l0.6,0.9l0.6,0.9l0.4,0.9l0.6,0.9
		l0.6,0.9l0.8,0.9l0.6,0.8l0.6,0.9l0.2,1.1l0.2,1.1l-0.2,1.1l-0.4,0.9l0.6,1.1l1.3-0.6l0.9-0.2l0.2,1.7v1.1v1.1l0.6,0.9l0.8,0.8
		l0.6,0.9l0.2,1.1l0.2,0.9l0.9,0.8h0.9l1.1,0.2l0.9,0.4l1.1,0.4h1.1l0.9-0.4l0.9-0.4l1.1-0.4l0.9-0.2l1.1,0.2l0.9,0.6l0.9,0.4
		l0.9,0.2l0.8,0.2l1.1-0.2l0.9-0.2l1.1-0.2l0.9-0.6l1.1-0.2l0.9-0.2l1.1-0.2l0.6-0.9l0.4-0.9l0.8-0.9l0.6-0.8l1.1,0.2l0.6,0.8
		l0.4,1.1l0.6,0.9l0.6,0.9l0.8,0.8l1.1,0.2l0.9-0.4l0.9-0.6l0.6-0.9l0.9-0.6l0.9,0.4l0.9-0.9l0.2-0.9l-0.2-1.1l0.4-0.9l0.8-0.8
		l0.9-0.6l1.1-0.4l0.9-0.6l0.8-0.8l0.9-0.8l0.8-0.8l0.9-0.8l0.8-0.9l0.8-0.8l0.8-0.9l0.8-0.8l0.8-0.8l0.8-0.9l0.8-0.8l0.8-0.8
		l0.9-0.8l0.6-0.9l0.9-0.8l0.2-0.8l0.6-1.1l0.4-0.9l0.4-0.9l0.6-0.9l0.2-1.1l0.6-0.9l0.4-0.9l0.4-0.9l0.6-0.9l0.4-0.9l0.6-0.9
		l0.6-0.9l0.6-0.9l0.8-0.8l0.8-0.9l0.4-0.9l0.9-0.9l0.8-0.9l0.6-0.9l0.4-0.9l0.6-0.9l0.2-1.1l0.4-0.9l0.4-0.9l0.6-1.1l0.4-0.9
		l0.4-0.9l0.6-0.9l0.8-0.8l0.8-0.9l0.8-0.8l0.8-0.9l0.6-0.8l0.6-0.9l1.1-0.2l0.4-0.6l0.8-0.9l0.6-0.9l0.6-0.9l0.2-0.9l0.2-0.9
		l0.8-0.9l0.9-0.6l0.8-0.6l0.6-0.9l0.6-0.9l0.6-0.9l0.6-0.9l0.4-0.9l0.9-0.8l0.9-0.6l0.6-0.9l-0.2-1.1l-0.9-0.8l-0.9-0.4l-0.9-0.4
		l-0.9-0.4l-0.9-0.9l-0.4-0.9l-0.4-0.9l-0.2-1.1l-0.6-0.9l-0.9-0.6l-0.6-0.9l-0.4-0.9l0.2-1.1l0.8-0.9l0.8-0.8l0.6-0.8l0.9-0.9
		l0.8-0.6l0.8-0.9l0.9-0.6l0.9-0.8l0.8-0.8l0.6-0.9l-0.4-0.9l-0.6-0.9l0.2-0.9l0.6-0.9l0.9-0.6l1.1,0.2l1.1,0.2l1.1,0.2l1.1-0.2
		l1.1,0.2l0.9,0.4l1.1,0.2l1.1,0.2l0.9,0.4l0.6,0.9l0.8,0.8l0.8,0.9h0.9l0.8-0.9l0.6-0.9l0.6-0.9l0.8-0.8l0.8-0.8l0.8-0.8l0.8-0.9
		l0.8-0.8l0.9-0.6l1.3-0.6l1.1,1.1l0.6,0.9l0.6,0.9l0.2,1.1v0.9l0.2,1.1l0.2,1.1l0.8,0.8l0.9,0.2l1.1-0.4l1.1,0.4l0.9,0.2l0.9,0.8
		l0.8,0.9l0.9,0.4l1.1,0.2h1.1l0.9-0.6l0.9-0.2l1.1-1.1l0.8-0.8l0.9-0.8l0.8-0.8l0.8-0.8l0.9-0.8l0.8-0.8l0.8-0.9l0.9-0.8l0.8-0.6
		l0.9-0.8l0.9-0.8l0.8-0.8l0.6-0.9l-0.4-0.8l-1.1-0.4h-1.1l-0.9-0.4l-1.1-0.4l-0.4-0.9l0.2-1.1v-1.1v-1.1l0.4-1.1l0.4-0.9l0.8-0.8
		l1.1-0.2h1.1l1.1-0.2l0.8-0.8l0.6-0.9v-1.1l0.6-0.8l0.9-0.4l1.1-0.4l0.9-0.4l0.6-0.8l0.2-0.9l-0.6-1.1l-0.9-0.4l-0.6-0.8v-1.1
		l-0.2-1.1l-0.4-0.9l0.2-1.1l0.6-0.9l0.8-0.8l0.6-0.9l0.6-0.9l0.4-0.9l0.8-0.9l0.8-0.6l0.9-0.8l0.8-0.8l0.4-0.9l0.4-1.1v-1.1
		l-0.4-0.9l-0.9-0.4h-1.3l-0.9-0.2l-1.1-0.2l-0.6-0.9v-0.9l0.6-0.8l0.8-0.8l0.9-0.6l0.8-0.8l0.9-0.8l0.9-0.4l0.8-0.8l0.8-0.9
		l0.9-0.8l0.9-0.6l0.8-0.6l0.9-0.6l1.1-0.4l0.9-0.6l0.9-0.4l0.9-0.8l0.6-0.9l0.2-0.9l-0.2-1.1l-0.8-0.8l-0.2-1.1L278,86l0.8-0.8
		l0.9-0.6l1.1-0.4l0.8-0.8l0.8-0.8l0.4-0.9v-1.1l-0.2-0.8l-0.2-0.9l0.4-1.1l0.6-0.9V76l-0.8-0.8l-0.9-0.8l-0.6-0.8l0.8-0.9l0.8-0.8
		l1.1-0.2l1.1-0.2l1.1-0.2l1.1,0.2l0.9,0.2l1.1-0.2l1.1-0.2l0.9-0.2l1.1-0.2l1.1-0.2l0.9-0.4l0.9-0.6l0.4-1.1l0.2-0.9l0.9-0.8h1.1
		l0.9-0.2l0.9-0.6l0.2-0.9l-0.4-0.9v-1.1v-1.1l0.2-1.1l0.6-0.8l0.8-0.9l0.9-0.6l0.9-0.6l0.9-0.6l0.9-0.4l0.9-0.4l1.1-0.6l0.9-0.4
		l0.9-0.4l0.9-0.6l0.8-0.8l0.9-0.6l0.9-0.4l1.1-0.6l-0.6-0.8l-0.4-0.9v-1.1l0.6-0.9l0.4-1.1l-0.4-0.9l-0.4-1.1l-0.2-0.9l0.9-0.6
		l-0.2-0.9l-0.8-0.8l-0.9-0.8l-0.9-0.4l-0.9-0.6l-0.9-0.8l-0.9-0.4l-0.9-0.4l0.2-1.1l-0.6-0.8h-1.1l-0.9-0.4l-1.1-0.4l-0.9-0.6
		l-0.6-0.9l-0.8-0.8l-0.8-0.9l-0.8-0.8l-1.1-0.4l-0.9-0.4l-0.9-0.4l-0.8-0.9l-0.6-0.9l-0.8-0.8l-0.4-0.9l-0.6-0.9l-0.6-0.9l-0.8-0.9
		l-0.8-0.8l-0.9-1.1l-0.4-1.1l-0.2-1.7v-0.8v-0.8l0.6-0.8l1.1-0.6l1.1-0.6l1.1-0.6l1.3-0.2l0.9-0.6l0.4-0.9l-0.4-1.1l-0.4-0.9
		l0.9-0.8l0.9-0.6l0.6-0.8l0.2-1.1l-0.4-1.1l-0.6-0.9l0.8-0.8l0.9-0.2l1.1,0.2l0.9,0.4l0.9,0.8l0.9,0.6l0.9,0.4h1.1L306,8l0.4-1.1
		L306,5.7l-0.4-0.9l-0.4-0.9l-0.6-0.9l-0.6-0.9L303.5,1l-0.9-0.8L301.6,0l-0.9-0.6l-0.2-1.1l0.6-0.9l-0.6-1.3v-1.1l0.9-0.6l0.9-0.4
		l1.1-0.2h1.1l0.9,0.2l1.1,0.4h0.9l1.1-0.2l0.9-0.4l0.9-0.8l0.9-0.4l1.1-0.4h0.9l0.9,0.8l0.8,0.8l1.1,0.4l0.9,0.4l0.9,0.2l1.1,0.6
		l0.8,0.8l0.8,0.8l0.9,0.8l0.9,0.6l0.8,0.8l0.8,0.8l0.8,0.9L326,1l0.4,1.1l0.6,0.9l0.8,0.6l1.1,0.2l1.1,0.4h1.1h1.1h1.1h1.1l0.9,0.4
		l0.4,1.1l0.4,0.9l0.4,1.1l0.9,0.6l0.9,0.6l0.8,0.6l0.9,0.6l0.9,0.6l0.9,0.8l0.9,0.6l0.9,0.6l0.8,0.8l0.9,0.6l0.8,0.8l0.9,0.8
		l0.6,0.9l0.8,0.9l0.9,0.6l0.9,0.6l1.1-0.2h1.1h1.1h0.9l0.9-0.2l0.9,0.4l0.9,0.6l0.9,0.4l0.9,0.8l0.9,0.4l0.9,0.4l1.1,0.4l0.9,0.4
		l0.9,0.4l0.9,0.8l0.9,0.8l0.8,0.6l0.9,0.6l0.6,0.8l0.9,0.6l0.8,0.9l0.8,0.8l0.9,0.6l0.9,0.6l0.9,0.8l0.9,0.4l1.1,0.2l0.9,0.4
		l0.6,0.9l0.6,0.9l0.6,0.9l0.4,0.9l0.4,0.6l-0.2,1.1v1.1l0.8,0.8l0.9,0.6h1.1h1.1l1.1,0.2l1.1,0.2l0.6,0.8l0.4,1.1l-0.4,0.9
		l-0.4,0.9l-0.2,1.1l0.2,1.1l0.6,0.9l0.2,1.1V48l0.2,1.1l1.3,0.9l0.9-0.2h1.1l1.1,0.2l1.1,0.4l0.9,0.4l1.1,0.2h1.1h1.1l0.9-0.4
		l0.9-0.6l0.9-0.4l1.1-0.2l1.1-0.2h1.1h1.1h1.1l1.1-0.2h1.1l0.9-0.2h1.3h0.9l1.1,0.2h1.3L414,49l1.1-0.4l0.9-0.4l0.9-0.4L418.1,47.4
		L418.1,47.4"/>
</g>
</svg>
