<?xml version="1.0" encoding="utf-8"?>
<!-- Generator: Adobe Illustrator 27.0.0, SVG Export Plug-In . SVG Version: 6.00 Build 0)  -->
<svg version="1.1" id="Layer_1" xmlns="http://www.w3.org/2000/svg" xmlns:xlink="http://www.w3.org/1999/xlink" x="0px" y="0px"
	 viewBox="0 0 500 500" style="enable-background:new 0 0 500 500;" xml:space="preserve">
<style type="text/css">
	.st0{fill:#E74646;stroke:#FFFFFF;stroke-width:4.6041;stroke-linecap:square;stroke-linejoin:bevel;stroke-miterlimit:3.998;}
</style>
<g transform="matrix(0.999751,0,0,0.999751,18.6633,21.7738)">
	<path vector-effect="none" class="st0" d="M422.1,89.9l0.7,1.2h-1l-1.2,0.8l-0.7-1.5l-0.5-0.5l-0.5-0.8l-1.2-0.8l-0.5-0.8v-0.5
		l0.5-0.5l0.3-0.8l-0.5-0.5l-1-0.3l-0.5-0.7l-0.8-0.2l-0.5,0.2l-0.5,0.3l-0.7,0.8l-1.7-0.7h-0.7l-0.5,0.3l-0.5,0.7L409,85l-0.2-0.7
		v-1l0.8-1l0.5-0.8l0.5-1.3l-1.2,0.7l-0.2-1l0.7-1l-0.2-0.7l-1,0.5l-0.3,0.5l-1-0.5l-0.2-1l-0.7-0.3l-0.3,0.8l0.3,0.8l-0.7,1.2
		l-0.7-0.2l-1.2-0.7l-0.3,2.2l0.3,1l-0.3,0.8l-0.5,0.7h-0.8l-0.2-0.7l-0.8-1.3l-0.7-1.2l-0.5-0.3L400,81l-0.2,0.7l-0.7-0.2l-0.3,0.7
		l0.7,1l0.5,0.7l-0.7,1.8l-1.2,0.7l0.5,1l0.2,0.8l1,1l0.8-0.7l0.3-1.7l0.3-1l0.8-1.2l0.7-0.2l1.5,0.2l0.3-0.5l0.5-0.5h0.7l0.5,0.5
		v1.2l2.2,0.5l0.3,0.5l0.2,0.7l0.3,0.5h0.7l0.8,0.2l0.3-0.5l0.2-0.5h0.7h0.5h0.7l0.5-0.3l0.7-0.2l0.8-0.3l0.7,0.2l0.7,1.5v0.8
		l-0.2,0.7l-1,0.7l-0.7,0.3l-0.5,0.5l0.7,0.5l0.8,0.3l0.5-0.3l0.3-0.7h0.5l0.5,0.7l0.8,0.5l0.7,1l0.7,0.5l1.2,0.3l1.2,0.2l-0.2,1
		l-1.2-0.3h-1l-1,0.5l0.8,0.7l0.3,0.8l-0.7-0.2h-1.3l-0.5,0.2l-0.7,0.3l1,0.7l-0.5,1l-0.2,0.7h1.2l0.5,0.7l-0.7,0.2l-0.7,0.2
		l-1.7-0.2l-1-0.3l-1,0.2l-1-0.2l-0.3-0.7l-0.5-0.7l-1,1l-0.8,0.3l-1.3-0.5l-0.7-0.2l-0.5-0.5l-0.5-0.8l-0.8-0.7l-0.5,0.2v0.7
		l0.7,0.8l-0.2,0.5l-0.7,0.7l0.8,0.8h0.5l0.5-0.3l0.7-0.2l0.3,0.8l0.7,0.3l-0.2,1l0.3,0.8l-0.3,0.7l0.5,0.8h-0.7l-0.8-1h-0.7
		l-1.5,0.2l0.5,0.8l0.8,0.3l-0.2,0.5H406l-0.5,1h1.7l0.5,0.3l0.5,1l-0.5,0.7v0.7l0.7,0.5l-0.3,1l-0.8-0.3l-0.7,1l-0.7,0.2l-0.7,0.2
		l-1.5,0.2l-0.7-0.3l-1.2,0.3l-0.7-0.3l-0.7,0.2l-0.7,0.3v0.7h0.8l0.8,0.5l1,0.5l1.7-1l0.7-0.2l0.8,0.5v1.3v0.8l0.7,0.7l-0.2,0.5
		l-0.8,1.8l-0.8-0.7l-1,0.3l-1.2,0.3l-0.7,0.2l-0.5-0.3l-2-0.7h-0.7l-0.5,0.5l-0.7-0.2l-0.8,0.8l-0.7-0.7l-0.7,0.2v1.2l0.5,0.3
		l0.2,1l-1.2,1.2l-0.5,1l-0.5,0.3l-0.8-0.2l-0.5-0.3l-0.3-0.8l-0.7-0.3l-1.3-0.2l-0.8,0.3l1,0.8l0.7,0.5l-0.5,0.5l-0.8-0.2l-0.5,0.2
		l-0.8,0.3l-0.8,0.7L387,125v0.5l0.2,0.8l0.8,1l0.3,1.2l2-0.2l0.7,0.2l1.3,0.3l0.5,0.2l0.5,0.3l0.3,1.3l1.8-0.3l0.8,0.5l0.7-0.5
		l0.5,0.5l-0.5,0.5l-1,1.5l-0.5,1l-0.8,0.7v0.8l1,1l0.8,0.2l1.5-0.8l0.3,0.3l-0.3,0.7l0.8,0.2l0.7-0.2l0.3,0.7l-0.8,1.2l-0.5,0.3
		l-1.3,0.5l-0.3,0.5l-0.7,0.3l-0.5,0.5l-0.3,0.5l0.5,0.3l0.3,0.7l-0.2,0.7l0.8,1.2l-0.2,1.3l1-0.2l0.5,0.7l-0.7,0.8l-1,0.7l-1.2,1.5
		h-1.2l-0.2-0.7l0.3-0.7l0.3-0.7l-0.3-0.8l-1,0.3l-1.3,1.3l-1.3,1l-0.7,0.3l-0.8,0.5l-0.7,0.7l-0.7,0.5l-1.3,0.5l-0.5,0.2l-1-0.2
		l-0.8-0.2h-0.7l-1-0.2l-0.3,0.5L381,152v1.2l-0.8,0.5l1.5,1.7l-1.2,0.3l-0.2,0.5l-0.8,0.5l-0.7,0.3l-0.5,0.7l-0.8,0.8v0.5l-0.3,0.8
		l-0.7,0.7h-0.7h-0.7l-0.7,0.2l-0.7-0.2l-1-0.3l-0.7-0.2l-0.8-0.5l-0.2-0.5l0.5-0.7l0.2-0.8l0.7-0.8l-0.5-0.3l-0.3-0.5l0.7-0.3
		l0.8,0.3v-1.5l-0.7-0.8l0.2-0.8l0.5-0.3l1.3-0.3l0.7-1.2l1.2-0.7l0.7-0.5l1.2,0.3l0.8-0.5l0.7,0.8l1.2,0.3l0.7-0.2l0.5-0.5
		l-0.2-0.8l0.7-0.5l0.7-1.5l0.5-0.3l0.7-0.5l-0.5-0.5l-0.3-0.7l0.3-0.7l0.7-0.7l0.2-0.5l-0.3-0.7l-0.8-0.5l0.5-1l1-0.5h1l1-0.8
		l1-0.2l0.8,0.2v-1.5l-0.8-0.5l1.8-1.2l0.3-0.3l0.2-0.8l1-1l0.8-1l0.5-1.3l-0.3-1l-1-0.3l-0.8,0.7l-0.7,0.5l-1.3-0.2l-0.5,0.2
		l-1.2,0.5h-0.7l-1-0.2h-0.7l-1.5,0.7l-0.7-0.3l0.8-0.3l-0.2-0.7l-0.7-0.5l-0.5,0.3l-1.2-0.3l-0.7,0.3l-0.7,0.7l-1.3,0.3l-0.3,1.7
		l0.7,0.5l0.5,1.2l0.2,1.7l-1.5,1.7l-0.3,0.5l-0.3,1l-0.8,1.2l0.3,1.5l0.2,0.7l-0.8,0.2l0.3,0.7l1,0.3l-0.5,0.7l-0.7,0.2l-0.5,0.3
		l-0.5,0.3l-0.7,0.7l-0.7-0.3l-0.2-1.3l0.7-1.5l-0.3-0.7l-1.3-0.5l-1.3-0.5l-0.5-0.3l0.5-0.5l-0.2-0.7l1-1.2l-1.3,0.3l-0.5,0.7
		l-0.2,0.5l-0.5,0.7l-1,0.3l-0.3,0.5l-1-0.7l-0.7-0.7l-0.2-0.8l1-0.2l0.5-0.8l-0.2-1.5l-1-1l0.2-1.7l0.7-0.7l0.5-1.2h0.8h0.7
		l0.8,0.3l1-0.5l-0.8-1.8l0.2-0.7v-0.7l-1,0.3l-1,1.2l-1.3,0.2l-0.3,0.5l-0.8-0.3l0.5-1l0.3-0.7l0.5-0.7l0.7-0.7l1-1l0.3-0.5
		l0.8-0.5l0.8-0.5l-1.3-0.3l-1,0.5l-0.3,0.5l-0.7,0.8h-1.3l-1.2,0.5l-0.8,0.3v1l-0.2,0.8l-0.3,0.5l-0.7,0.3v0.7l-0.3,0.5l0.2,0.8
		l1,0.3l0.3,0.7l-0.5,0.5l-0.7,0.5l0.7,1.2l-0.5,0.8l-0.7,0.2l-0.7-0.5l-0.2-0.8l-0.5-0.8l-0.3-0.5l-0.5-1.3l-0.5-0.7l-0.7-0.5
		l-0.5-1l0.3-0.5l-0.2-0.8l-1-0.7l-0.7-0.5l-0.3-0.3l-0.7-1l-0.5-0.5l-0.3-0.5l-0.5-0.5l-0.7-1.2l-0.3-0.5l-0.7,0.2l0.2,1l0.2,0.7
		l0.5,0.8l0.7,0.8l0.3,0.3l0.3,1.2l0.5,0.8l0.7,0.8l-0.2,1.2l-0.2,0.8l0.2,0.8l0.5,0.5l0.3,0.7l-0.2,1.5l0.2,0.5l0.3,0.5l0.7,0.7
		l1,0.2l0.7,0.7l0.3,0.5l0.2,1l-0.7,1.3l-0.8,0.3l-1.2-0.3l-0.8-0.7l-0.8-0.3l-0.7-0.7l-0.3-0.7l-0.7-1l0.3-0.5l-0.3-1l-0.7,0.5
		l-1-0.2H352l-0.7,0.3h-0.7v-0.5l0.3-0.8l0.3-0.8l-0.3-0.5v-0.7l-0.8-0.3l-0.8-0.8l-1.3,1l-0.7,0.3l-0.5-0.3l-0.8-0.3l0.3,0.8
		l-0.2,0.7l-0.3,0.8l-0.3,0.3l-0.7,0.7l-0.5,0.7l0.3,0.7l-0.3,0.5v1l-0.3,0.5l-1.3,0.5l1,0.3l0.7,1h0.8l2.9,0.2l0.5,0.8l0.2,0.7
		l0.7,0.5l-0.5,0.7l0.2,1.3l0.2,0.5l0.5,0.3l-0.5,0.8h-1.5l-0.5-0.7l-1.5-0.8l-1.2-0.7l-0.5,0.2l-0.3,0.7l-0.7,0.5h-0.7l0.2,0.7
		l0.5,0.2l0.5,0.8l0.5,0.7v0.7l1,1l0.7,0.8l0.8,0.5l0.8,0.3l1,0.8l0.5,0.3l0.7,0.8l0.5-0.3l0.5-0.7l0.3-0.8l0.8-0.2l0.5-0.8l1.3-0.5
		l0.8-0.3l0.7-0.8l0.8-0.2l0.2,0.7l1.2,0.2l1.2,0.2l0.5-0.3l0.8-0.3l1.3,0.3l1.2,1l-0.3,0.5l0.2,0.5l0.7,0.2l0.3-0.5h1l0.7,0.3
		l1.2,0.5l0.5,0.7l0.5,1l0.2,1.5l-0.7-0.3l-0.5,0.8l-0.8,0.8h1l1,0.5l-0.2,0.7v1.2l1.3,0.5l1.3,0.2l-0.8,0.8l-0.5,0.5l0.2,0.5h1
		l0.5,1.5l0.2,0.7l0.5-0.2l0.2,0.7l-0.3,0.5l1,0.5l0.5,0.7l-0.3,1l-0.5-0.2l-0.5,0.7l-0.8-0.3l-0.7,0.2l-0.5,0.7v1.7l-0.7,0.2
		l-0.5,0.3l-0.5,0.2l-0.7-0.3l0.5-0.7l0.5-0.7l-0.8-1.2l-0.5-0.5l-0.7-0.3l-0.5-0.3l-1,0.3h-0.7h-0.7l-0.7-0.7l-0.2-0.7h-0.7h-1
		h-0.7l-0.3-0.5l-0.5-0.5v-0.8l-1.2-0.3l-0.3-1h-0.7l-0.8-0.5l-0.5,0.8l-1,0.8l0.5,0.5l-0.8,0.8l-0.7,0.7l-0.8,0.3l-0.3-1l-0.5-0.5
		l-1.5-0.3H349l-0.8,0.2l0.3,0.5h0.8l0.2,1l-1.2,1.3l0.5,0.7l0.3,0.8l0.3,0.5l0.7-0.2l1.2-0.2l0.8,0.2l0.7-0.2l0.5,0.5l0.7-0.8
		l0.3-0.5l0.8-0.8l0.8,0.7l0.5,0.3l0.2,0.5l0.5,1.7v1l-0.3,0.8l-0.3,1.3l0.5,0.7l-0.3,0.7l-0.5,0.5l-0.5,0.5l0.3,0.5l1,0.2l0.7,0.8
		l2.5,0.3l-0.3,0.7l-0.3,0.8l-0.2,0.8l0.5,0.5l1,0.3h1l0.8-0.3l1-0.5l0.7-0.7l0.7-0.3l0.7-0.7l0.5-0.3l-0.5-0.8l0.3-1.2l-0.7-0.5
		l0.8-0.8l1.3-0.2l0.8-1.3l-0.5-0.8l0.3-0.7l0.8-0.2l0.3-0.5l0.7-0.3l0.3-0.7l0.3-0.7l0.3-0.7h0.7l0.7-0.3l0.7,0.2l0.3,1.5l0.8,0.5
		l0.7,0.3l-0.5,0.7l-0.2,1l1,0.2l0.8,0.3l0.5,1l-0.7,0.5l-0.5,0.5l-0.3,0.5l1,0.7l0.7-0.2l0.8-0.3h0.8l2.3-0.3h0.5l0.7-0.5l0.5-0.3
		l0.8-0.8l0.7-0.7l1.3-0.7l0.2,0.8l-0.5,0.7l-0.3,0.5l-0.3,0.7l-0.7,1l-0.3,0.3l-0.7,0.3l-0.7,0.5l-1,0.5l-0.7,0.5v1l-0.5,0.5
		l-0.5,0.5l-0.7-0.2l-0.8-0.2l-1.2,0.3L376,181l-0.2-0.7l-0.8-0.7h-0.7L374,180l-0.5,0.7h-0.8l-0.7,0.2l-0.8,0.3l-0.7,0.5l-0.2,1.2
		l0.5,0.5l0.7,0.2l0.5,0.2l-0.2,1.2l-0.7,1l-1-0.5l-0.5-0.8l-0.5-0.3l-1-0.3l-0.5-0.2l-0.3,0.5l-0.3,0.5l-0.8,0.3l-0.8,0.3l-1.2,0.5
		l-1.2,0.2h-0.7h-0.8l-1,0.2h-0.7l-0.5,0.2l-1.7,0.3l-0.8,0.3l-0.7,0.3l-0.5,0.3l-1,1.2l0.3,0.5l1-0.2l1.7-0.5l1,0.2l1.3,0.7
		l0.2,0.8l0.2,0.5l0.2,0.8l-0.7,1l-0.7,0.5l-1.2,0.3h-1.2l-0.8,0.8l-0.5,1l-0.7,0.3l-1.2,0.8l-0.2,1.3l0.2,0.8l0.5,1.2l-0.7,0.7
		l-0.8,0.7l-0.7-0.2l-1,0.2l-0.8,0.3l-0.3,0.3l-0.7,0.5h-0.8l-0.2,1l-0.5,0.8l-0.3,0.5l-0.2,0.7l-0.7,1.2l-0.3,0.8l-0.2,0.8l0.3,0.8
		l0.7-1.2l0.8,0.8l1.2,0.5l0.5,0.3l0.8,0.2h0.7l0.5,0.2l0.7,0.2h1.2l0.7,0.2l0.8,0.2l0.8,0.2l0.7,0.2l0.5,0.7l0.7,0.3l0.7,0.3
		l0.7,0.2l0.7,0.3h1.3l0.7-0.3l2.5-0.5l1,0.8l0.3,0.5v1.2l-0.3,0.5v1.3l-0.3,0.5l-0.2,0.7l-0.2,0.7l-0.5,0.3l-0.3,0.7l-0.3,0.5v1.5
		v0.5l-0.2,1.3l-0.5,0.7l-0.5,0.3l-1,0.2h-0.5l-0.7,0.3l-0.3,0.3l-0.7,0.8l-0.3,0.7l-0.5,1.2l-0.2,0.7l-0.3,0.7l-0.2,0.7l-0.5,0.5
		l-1.2,1.5l0.2,0.8l2,1.8l0.2,0.5v0.7l0.2,1.2l0.2,0.5l0.2,1.8l0.3,0.7v1l-0.8,1.2l-0.3,0.7v0.5l-0.7,0.8l-0.5,0.3l-0.7,1.2
		l-0.7,1.2l-1.5,0.2l-1,0.2l-0.7-0.7l-1.2-1h-1.2l-0.2,0.5l-1.7,1.7l-0.8,0.3h-0.5l-1-0.2l-1.2,0.5l-1,1l-0.3,0.8l-0.5,0.3l-0.3,0.5
		l-0.5,1.3l0.7,0.2l0.5-0.2l0.7-0.7l0.8,1.3v0.8h1l0.2-0.7l0.5,0.8l0.7,0.8v0.7l-0.8,0.8l-0.2,0.7l0.2,1l0.8,1.2l1,1.2l0.8,0.5
		l0.8-0.8l0.5-0.7v-0.8l0.5-0.8h0.7l1,0.2l0.5,0.3l0.5,0.3l1.7-0.3l0.5-0.2l0.3-0.7l0.5-0.3l0.5-0.2l1.2,0.5l-0.7,0.5l-0.5,0.3
		l-0.3,0.7l-0.8,0.5l0.2,0.8l-0.5,0.5l-0.5,0.8l0.2,0.8l0.5,0.7v0.8l0.7,0.2l0.5-0.2l0.8,0.2l-0.3,0.8l-1.2,0.2l-0.3,0.5l1,0.7
		l0.7-0.2h0.8l-0.3,1l-0.2,1l1.7-0.2l0.5-0.3l0.3-0.5l0.5,0.5l-1.3,2l1.2-0.2l0.8,0.3l0.8,0.2l-0.8,1.7l-0.7,0.3l-0.3,0.8l0.5,0.7
		l1.2-0.3l0.7,0.3l0.5,0.8l0.3,0.5v3.5l-0.5,0.5l-0.5,0.8l-0.2,0.7l-0.5,0.3h-0.7l-1.2,0.7l0.7,0.5l2.9-1.2l-0.2,1l-0.7,0.3
		l-0.5,0.3l-0.5,0.2l-1-0.2l-0.7,0.2l-0.7,0.2l-0.5,0.2l-0.3-0.7l0.5-0.8l0.3-0.5l-0.2-0.7l-0.3-0.8v-0.7l-0.2-0.5l-0.3-0.7
		l-0.5-0.5l-0.3-0.3l-0.7-1.2l0.2-0.8l0.5-0.3l0.8-0.3v-0.7l-1.3-0.5l-0.2-0.8l-0.3-0.8l-1.7,0.3l-0.3,0.7l-0.3,0.5l-1-0.2l-0.3,0.3
		v0.8l-0.3,1l-0.5,1.2l-0.3,0.8l0.2,0.7l0.7-0.2h0.7l1.2-0.3l0.7-0.7l0.5,0.3l-0.2,0.5l-0.7,0.7l-0.2,0.7l-0.2,0.7l-0.5,0.3
		l-1.3-0.2h-0.8l-1,0.3l-0.8,0.8l-0.5-0.8l0.7-0.8l0.2-0.7l-0.3-0.7l-0.3-0.7l-0.3-0.5l0.2-0.5h0.8l-0.2-0.8l-0.7-0.5l-0.5-0.3
		l-0.8-0.2l0.5-1l0.5-0.7l-0.2-0.5l0.8-0.7l-0.5-0.7H348l-1.3,0.7l-1,0.2l-0.5-0.2l-0.3,0.7l-0.3,0.5l0.2,0.7l-1,0.8l-1,0.5l0.3-0.8
		v-0.7l0.2-0.7l-0.2-0.7l-0.5-0.5l0.3-0.5l0.7-0.2l0.3-1l0.3-0.7l0.2-2.2l-0.8-0.3l-0.7,0.7l-1,0.3l-1.5-0.3l-1.2-0.8l-1.3-0.3h-0.7
		l-1,0.3l-0.7-0.5l-0.2-0.7l-0.5-0.7V263l0.3-1.2l1-2l0.5-0.7l-0.5-0.5l-1,1l0.5-2.2l-0.7,0.2l-0.7-0.2l-0.5-0.3l-0.3-0.8l-0.5-0.3
		l-0.7,0.2l-0.8,0.2h-0.5l0.3,0.8l0.3,1l0.2,1l0.2,1.2l0.5-0.3l1,0.8l0.2,0.7l-0.2,0.8l0.7,0.5v0.8l-0.8,1.3l0.2,1.8l-0.2,1.3
		l-0.5,1.7l-0.2,1.8l-0.3,0.7l1,1.2l0.8,0.8l-1,0.2l-1.2-0.3l-0.7,0.3l-0.7,1.3l-0.8-0.8l-0.3-0.8l0.2-0.5l-0.7-0.7l-0.5-0.3
		l-0.2-0.8v-0.5l0.7-1.7l-0.2-0.7v-1.5l0.5-1l0.2-0.7l0.3-1.2l0.3-0.8l0.7-1l0.5-0.8l0.3-0.8h-1.2l-0.8,0.5L329,261l-0.5-0.3
		l-1.2,1.2l0.3,1l0.3,1.2v0.7l-0.8,1.2l-0.5,1l-0.3,0.5l-0.3,0.5l-0.7,0.5l-0.8,0.3l-1,1.7l-0.8,0.2l-1.3,0.7l-0.8,0.5l-1.7,0.8
		l-0.5,0.7l-1.3,1.2l-1.5,2.2l-0.3,0.5l-0.3,0.7l-0.8,0.3l-0.5-0.8l-2.9-0.3l2.5,1.3l1.2,1.2l0.7,0.8l0.8,0.7l0.7,0.7h1.3l-0.2,1
		l0.3,0.8l0.7-0.3l1,0.5l0.2,0.7l0.8,0.3l0.8-0.5l0.3-1.5l1,1.3l0.3,0.7l0.2,0.7v0.8l0.3,0.5l0.5,0.5l-0.3,0.5l-0.7-0.2l-1.3,0.2
		h-0.5l-0.7,0.7l-0.2,1.3l0.5,0.2l0.3,0.8l1,1l1.2,0.7l0.7-0.2l0.2-0.5V291v-0.8l0.3-0.5l0.7-0.3l0.7-0.3l-0.5-0.5l0.5-0.7l0.2-0.7
		v-1.3l0.8,0.3l1,0.3l1.2,0.3l0.3-1h0.7l0.7,1.2l0.7,1l0.5,0.3l0.7,0.5l1,0.2l0.3,1l1.2,0.8l0.7-0.2l0.5,0.5l1,0.5l-0.3,0.8
		l-0.5,0.7h-1l-1.5,0.5l-0.2,0.7l-0.7,0.2l-0.7-0.3l-1.5-0.3l-1.2-0.3l-0.5,0.7l0.5,0.7l0.2,0.8l0.3,0.7v0.5l0.3,0.7l0.7,0.3v1
		l-0.3,0.5l-0.8,0.2l-0.8,1.5l-0.7-0.3l-0.8-0.8h-1.5l-0.8-0.3l-1.2-0.3h-0.8l-1,0.8l-0.8,0.5l-1,0.2l-0.7-0.2l-0.8-0.2l-0.3-1.3
		l-0.7-0.3l-0.3-0.5l-0.3-0.8l0.3-0.5l1-0.5v-1l-0.5-0.5l-0.7-0.3v-0.7l-0.3-0.5l-0.8-0.3l-1,0.5l-0.2,0.8l-0.8,0.3l-0.5,0.5l1,1.3
		l-0.8,1.2v1l-0.8,1.2l-1.2,0.8v1.2l0.5,0.7h0.7l0.3-0.5l1.3,0.5l1.2-0.2l-0.2,1.3l0.3,0.3l0.8,0.2l1.2-0.3l0.3,0.8l-0.2,0.7
		l0.2,0.7l-0.7,0.8l-0.2-0.7l-0.3-0.7h-0.5l-0.7,0.2l-0.7,0.2l-1.7-0.2l0.3,1.8l-0.7,0.8l-0.3-0.7l-0.5-0.3l-0.7-0.2l-0.8-0.3l0.5-1
		l0.2-1.7l-1.2,0.3L309,305l-0.3,1l0.2,0.8l0.2,0.7l0.5,1l-1.8-0.3l-0.8-0.8l0.7-0.8l-0.3-1l-0.7-0.5v-0.7l0.2-0.5l1.8,0.2l1-0.3
		l0.8-1.5l-0.2-0.7l0.3-1.2l0.3-1.3l0.5-0.7v-1.2l-0.7-0.8l-0.8-1.2l-1,0.7h-0.7l-0.5-0.3l-0.7,1l-0.5,0.5h-0.8l-1.3,0.5l-0.2,0.5
		l-0.5,1l-0.7,0.3v-0.7l-0.5-0.3l-0.8,0.2v-0.8l1.2-1.7l-0.5-1l0.7-0.7l0.5,0.3l0.7,0.2l0.8-0.3l0.7-0.3l0.7,0.2h0.5l0.8-0.7l0.3-1
		l-0.7-0.8L307,291l-0.7,0.7l-1.2-0.8l-0.5,0.2l-0.5,0.3l-1.3-0.5H302l-0.8,0.8l-0.3,0.3l-1.5,0.3l-0.7,0.8l-0.5,1.2l0.8,1.2l-2,0.3
		l1,1.7l0.3,0.5l-0.3,0.8l-0.7,0.8l-0.2,1l0.7-0.2l0.5-0.3l0.8-0.3l1.2,1l0.5,0.5h0.7l0.5,1l-0.2,0.5l-0.7,1l-0.5,0.3l-1.3,1.5
		l-0.2,1.2l0.5,0.3l0.7,0.3l0.7,0.2l0.7,0.3v0.7l-0.3,0.8L300,310l-0.8-0.2h-0.7L298,310l-0.5,0.3l-1.7,0.5l-0.5-0.2l-0.7,0.3
		l-0.5,0.3l-0.3,0.5l-0.5,0.3l-0.7,0.5l-0.5,0.3l0.2,0.7l1.2,1.2l0.3,0.5l0.8,1l0.3,0.5l0.5,0.2l1,0.7l0.5,0.5h0.7l0.5-0.3l1.2-0.2
		l0.3,0.7l-0.3,0.5l0.2,0.7l0.7,0.5h0.8l0.5-0.2l0.7-0.3h1l0.5-0.5l0.2-0.8l0.3-0.5L304,317v-0.7l0.2-0.5l0.8-0.2l0.8-0.7l0.7-0.2
		l0.2,0.7l-0.5,0.8l-0.5,0.7l-0.2,1.3l0.2,0.8l-0.5,0.5l-1,0.8l-0.2,0.7v0.7l0.2,0.5l0.2,0.7l0.2,0.5l0.3,0.5h1l0.7,0.2h0.8l0.5-0.2
		l0.2,0.7l-0.7,1l-1.3,0.3l-0.8,0.2l-0.7,0.2l-0.5-1.3l-0.7-0.5l-0.8-0.2h-1l-1,0.5l-1.8,0.3l-0.5,0.3l-0.5,0.3l-0.5,0.3l-0.8,0.5
		l0.7,0.8l0.8,0.2l0.2,1l0.3,0.7l0.5,0.5l0.7,0.2l0.5,0.2l0.7,0.5l0.7,0.7l0.7-0.3l0.5-0.5l0.8-0.2l0.5,0.3l0.3,1.2l0.2,0.8
		l-1.3,0.5l-0.3,0.5l-0.2,0.5l-0.8-0.2l-0.5-0.3l-0.8,0.3l-0.8,0.3l-0.5-0.3l-0.8-0.2l-1.2-0.7l-0.8-1.2h-0.5l-1-0.7l-0.5,0.3
		l-0.3,0.5l-0.5,0.3l-0.7,0.7l-0.5,0.3l-1,0.2l-0.3-0.3l-0.3-0.5l-0.5-0.7l-1-0.3l-1.2,0.3l-0.5,0.5v1l0.8,0.7l-0.2,0.7l-0.7,0.3
		l-0.5,0.3l-0.8,0.8l-0.5,0.2l-0.7,0.2h-2.3l-1.5,0.3l-0.8,0.3l-0.8,0.2l-0.7-1.5l0.3-0.5l-0.2-0.7l-0.3-0.7l0.3-0.7l0.5-0.2
		l0.5,0.2l1.3,0.5l0.7-0.5l0.2-0.5l0.7-0.7l0.2-1.3l-0.5-0.7l-1.2,0.8h-0.5l-0.2-0.7v-0.7l0.2-1.7l-0.7-0.3l-0.3,0.3l-0.2,0.7
		l-0.2,1v0.7v0.7l-0.3,0.5l-1,0.8l-0.5-0.5v-1.5v-0.7l0.2-0.7v-1l-0.8-0.8l-0.5-0.3l-0.3,0.5v2.2l-0.7,0.8l-0.7,0.5v0.7l0.7,0.3
		l0.5,0.3l0.8,1.8l-0.3,0.5l-0.3,1l-0.8,1.2l-2,0.3l-1,1l0.2,0.7l0.3,0.8l-0.5,0.7l1,0.5l0.7,0.5l0.3,1.2l0.8,0.3l0.3,1.2l1.2-0.3
		l0.5-0.8l0.8-0.2l0.7,0.3l0.8-0.5l0.7-1l0.7-0.2v0.7l-0.2,1.3l0.3,0.8l0.7,0.7l1,0.7l1.2-1l0.8,0.3l0.7-0.3l1,0.3l-0.7,2.7
		l-0.7,0.7l-0.5,1.3l-1.3,0.2l-0.5,0.3l-0.3,1.5l-0.3,0.8l-1,1.3l-0.8,1l-0.7,0.3l-0.8,0.3l-1.2-0.8l-0.8-1.3l-2.7,2l-0.3,0.7
		l0.5,0.3l0.2,1.2l0.2,1.5l0.5,1.2l0.7,0.3l1-0.8l0.7,0.5l0.5,0.5l0.2,0.8l-0.7,0.5l-0.3,1l0.2,0.7l-0.3,0.8l-0.8,0.5l-0.5,0.8
		l-0.3,0.5v0.8l-1-0.2l-0.7,0.8l-0.3,0.7l-0.7,0.8l-0.8,0.8l-1,0.2h-0.5l-1,0.5l-0.3,0.5l-0.5,0.7l-0.3-0.7l0.2-2l-0.5-1l0.5-0.2
		l0.3-0.5l0.8-0.7v-1.5l-1-0.7l-0.5,0.2l-0.8-0.2l-0.5-0.5l-0.8-0.5l-0.7-1.3l-1-0.3l-0.8-0.5l-0.7,0.2h-0.7l-0.8-1l-0.7-0.3l-1-0.2
		H258l-1.7,1l-0.2-1.3l0.7-0.7V359l-0.2-0.8l-0.2-1.2l-0.2-1v-1.5l0.5-0.5v-0.7l-1,0.3l-0.5-1.7l-0.5,0.3l-0.3,0.8v1l-0.2,0.7
		l-0.2,0.5l-0.7,1.8l0.2,0.7l0.5,0.5v1.2l0.5,0.8l-1.2,2.7l-1.3,0.8l-1,0.2l-1.3,1l-2.9,0.2l-1,1.2h-0.5h-1.2h-0.5l-0.5-0.3
		l-1.2-0.2v0.8v0.7v0.8l-0.3,0.7l-0.3,0.5l-0.8,0.8l-0.7,0.5l-0.7,0.3l-0.8,0.2l-0.5,0.2h-0.5l-1-0.5v-0.5l-0.3-0.3l-1.2-0.5
		l-0.7-0.2l-0.5-0.3l-0.2-1v-0.7l-0.2-0.5l-0.2-0.8l0.3-0.7l0.5-0.8l0.7,0.2h0.7h0.8l0.2-1.3l-1-0.2l-1,0.2l-0.5,0.2h-0.8l-0.7-0.3
		l-0.2-0.5l0.5-0.7l0.5-0.3l0.7-0.7v-0.5l-0.7-0.3l-0.5-0.5v-0.5l-0.2-1.5l-0.3-0.3l-0.8-0.2l-0.7,0.3v2.2l-0.7,0.2l-0.5-0.5
		l-0.7,0.5h-0.7l0.3,0.7l-0.2,2l-0.2,0.8l-2.3,1l0.7,0.7l-0.2,1.3l-0.5,0.2l-0.5,0.8l0.2,0.7l0.3,0.5l0.2,0.5l0.5,0.5v0.7l0.7,0.5
		l0.8,0.3l-0.2,0.7l0.8,0.5l1-0.5l0.7-0.2l0.7,0.3l0.3,0.3l0.8,0.3l0.7-0.2l0.8,0.8l0.2,0.7l0.2,1.2l0.2,0.5v0.7l-0.3,1.3l-0.3,0.7
		l-0.3,0.7l-0.2,0.5l-0.2,0.7l-0.3,0.7l-0.3,0.5l-0.3,0.5l-1.2,0.7l-0.3,0.5l-0.5,0.8l-0.7,0.2l-0.7-0.3l-0.7-0.2l-0.5-0.2l-1.3-0.2
		l-0.8-0.5l-0.8-0.3l-0.3-0.5l-0.3-0.5l-0.2-0.7v-0.7l0.5-0.5l0.8-1l-1.5-0.5v-0.8l0.3-0.7l0.5-1l0.2-0.8l0.2-0.7l0.3-0.7l0.3-0.5
		v-1.3l-0.5-0.8h-2.3h-1l-1.2,0.2l-1.2-0.2l-1,0.8l-1,0.2l-0.5,0.3l0.7,0.7l2,0.2l1,0.3l0.8,0.3l0.7,0.5l0.2,0.5l0.2,0.7l0.2,1
		l-0.7,0.8l-0.7,0.5l-0.7,0.7l-0.7,0.3l-0.2,0.7l0.3,0.5l0.7,0.8l0.7,0.8v0.7l-0.3,0.5h-1H219l-0.7-0.3l-0.7-0.3h-0.5l-1-0.7
		l-0.8,0.2l-0.8-0.2l-0.7-0.2l-0.5-0.5l-1.5-0.5h-1l-1.3-0.5l-1.3-0.2l0.3,0.8l0.5,0.2l0.5,0.3l0.8,0.2l0.3,0.3l0.5,0.7l0.5,0.5
		l-0.3,1l-0.8,0.7l-1.3,0.2l-0.7,0.2l-0.3,0.5l-0.8,0.8l-0.3,1.2v0.5v1l0.7-0.2l0.3-0.5l0.7-0.5l1.3-0.2l1.5,0.2l0.5,0.2l0.7-0.2
		l0.7-0.2l0.5-0.2l1.2-0.2l0.8,0.2l0.8-0.5l0.7-0.3l0.7-0.2l0.8-0.3l0.5,0.3h1l1.2-0.3l0.7-0.2h0.7l0.3,0.5v1l-0.5,0.8l-0.5,0.7v1.8
		l-0.7,0.7l-0.5,0.3l-0.5,0.5v1l0.7-0.2l1-0.8l0.5-0.2h1l0.5,0.2l0.7-0.2l0.7-0.8l0.8,0.2l0.3,0.5l0.3,0.5l0.5,0.3l0.7,0.3l-0.2,0.8
		l0.2,0.8l0.7,0.5l0.5,0.5v0.7l0.2,1.3l0.3,0.5l0.5,0.5v1l-0.7,0.8H228l-0.8,0.5l-0.3,0.5v0.7l-0.5,0.3l-0.8-0.3l-0.5-0.3h-0.7
		l-1,1.2l-1,1l-0.5,0.8l-0.7,1l-0.7-0.3l-1,0.5l-0.5-0.3l-0.2,1.7l-0.5,0.7l-1.2,1.3l-0.5,0.3v0.7l-0.3,0.7l-0.3,0.5l-0.5,0.3
		l-0.8-0.2v-0.8l-0.2-0.7l-0.8-0.2l-0.7,0.3v1l0.2,1l-0.7,1.3l-0.2,0.5l-0.3,0.5l-0.3,0.7l-0.7,0.8l-0.7,0.5l-0.5,0.8l-0.2,0.7
		l-0.2,0.8l-0.2,0.7l-0.2,0.7l-0.2,2.2l0.2,1.2l-0.2,0.7l-1,0.7l-0.8-0.3l-0.8-0.3l-0.5,0.5l-0.7,0.3l-0.5,0.3l-0.7,0.5l-0.5,0.5
		l-0.3,0.5v1l-1.8,0.3l-0.3,1l-0.3,0.7l-0.3,0.8l-0.3,0.5l-0.3,0.5h-0.7l-0.7,0.5l-0.3,0.5v0.7l-0.5,3v0.5l-0.3,0.3l-1,0.3l-0.5,0.3
		l-0.7,0.2l-0.7-0.5l-0.2-1.7l-0.3-0.8l1-0.5l0.5-0.5l0.3-0.7l0.3-0.5l0.3-0.5l0.2-0.5l0.3-0.5l0.3-0.5l0.3-0.7l0.3-0.5l0.5-1
		l0.7-0.7v-1.8h-1l-0.5,0.5h-0.7l-0.3-0.3v-1l-0.5-0.2l-0.7,1l-0.8,0.2l-0.7-0.3l-0.7-0.5l-1.3-0.3l-0.2,1.3l-0.8,0.7l-0.2,0.7
		l-0.2,0.5l-0.7,0.5l0.2,1.3l0.2,0.7l0.2,0.5l0.2,0.7l0.3,0.8l-0.2,0.7l-0.5,0.5l-0.5,0.7l-0.5,0.7l-0.5,0.3l-1,1l-0.3,0.3l-0.7,0.5
		l-0.5,0.8l-0.7,1l-0.2,0.7l-0.2,0.5l-0.2,1.2l-0.2,0.7l-0.2,0.7l-0.2,0.7l-0.2,2.5l0.2,0.7l0.2,0.5l0.2,0.7l0.2,0.5l0.7,1.2
		l0.3,0.5v0.5l-0.3,0.7l-0.8,0.8l-0.3,0.5l-0.3,0.5l-0.3,0.5l-0.2,0.8l-0.7,1l-0.2,0.5l-0.3,0.7l-0.7,0.8l-0.7-0.5v-0.7l0.2-1.3
		l0.3-1.7l-0.3-1l0.3-0.7l0.3-0.5l0.3-0.7l0.3-0.5l0.3-0.5l0.3-0.5v-0.8l-0.2-0.5l-0.2-0.7v-0.7l-0.2-0.7l-0.3-1.2l-0.2-0.5
		l-0.2-0.7l-0.3-0.7l-0.2-0.5l-0.2-0.7l-0.2-0.5l-1-1.2l-0.8-0.8l-2.2-0.2l-0.5-0.2h-1.8l-0.7-0.2l-0.5-0.2h-0.7l-0.7-0.3l-0.7-0.2
		l-0.7-0.3l-0.7-0.2h-0.8l-0.5-0.3l-0.8-0.2l-0.8-0.8l-0.8-0.3h-0.5l-1-0.2l-0.8,0.2l-0.7,0.2l-1.7,0.2l-0.2,0.8l0.3,0.7l0.7-0.5
		l0.8,0.2l0.5,0.3l0.8,0.8l1,0.2l0.7,0.2h1.5l0.8,0.2h0.7l0.8,0.3l0.5,0.5l1.2,1.2l0.8,0.8v1l-0.5,1l-0.2,0.5l0.2,1v0.8l-0.7,1.2
		H171l-0.3,0.5v0.7l-0.5,0.8l-0.7,0.8l-0.8,0.7l-0.2,0.5l-0.5,1l-0.2,0.7l-0.3,0.7h-1l-0.7-0.3l-0.7-0.5l-1.2-1l-0.5-0.2h-1.5
		l-0.5,0.3l-0.5,0.3l-0.5,0.3l-0.5,0.5l-0.7,0.7l-0.3,0.7l-0.7,0.5l-0.5,0.7l-1.3,0.2l-0.8-0.2l-0.5,0.2l-0.8,0.5l-1.7,0.5l-0.8,0.8
		l-0.2,1l0.2,2.2l0.2,1v1.2l-0.2,0.8v0.5l0.2,1.2l0.3,0.7l0.5,0.7v0.7l-0.3,0.7l-1,0.5l-0.5,0.3l-1.3,0.8l-0.5-0.2l0.2-1l0.2-0.5
		l-0.3-1.5l0.3-1.3l0.5-1.2l-0.2-0.7l-0.5-0.5l-0.7,0.2l-0.5,1.2l-0.7-0.2l-0.7-0.3l-0.7,0.3l0.5,1.3l0.3,0.5l0.7,1l0.2,1l-0.3,0.8
		l-0.5,0.3h-1l-1,0.2l-0.5,0.3l-0.5-1.2l-0.7-0.7l-0.8-0.5l-1-0.2l-0.8-0.3l-0.8-0.3l-0.8-0.5l-0.8-0.3l-1-0.2l-0.8-0.3l-0.8-0.3
		l-0.8-0.5l-0.8-0.5l-0.8-0.5l-0.7-0.7l-0.5-0.8l-0.3-0.8l-0.3-0.8l-0.2-1l-0.2-0.8l-0.3-1l-0.3-0.8l-0.2-0.8l-0.3-1l-0.3-0.8
		l-0.3-0.8l-0.3-0.8l-0.3-1l-0.5-0.8v-1l-0.3-0.8l-0.5-0.8l-0.5-0.7l-0.8-0.5l-0.8-0.7l-0.7-0.7l-0.3-0.8l-0.3-0.8l-0.3-1l-0.2-1
		v-0.8v-1l0.2-1v-1l0.2-0.8v-1.2l-0.2-0.8l-0.2-1v-1l0.3-0.5l0.5,0.2l0.8-0.3l0.2-1l-0.8-0.5l-0.8-0.3h-1h-1l-1-0.3l-0.2-0.8l0.3-1
		l-0.3-0.8l-0.3-0.8l-0.3-0.8l-0.5-0.8l-0.3-0.8l-0.3-1l-0.2-0.8l-0.3-1l0.5-0.8l0.7-0.7l0.7-0.8l0.7-0.7l0.8-0.5l0.8-0.5l0.7-0.5
		l0.8-0.7l0.7-0.7l0.7-0.7l-0.5-0.5l-0.3-0.8l-0.3-0.8l-0.7-0.8l-0.7-0.7l-0.7-0.5l-0.8-0.5l-0.8-0.5l-0.8-0.5l-0.2-0.8l-0.3-0.8
		l-0.2-0.8l-0.2-1l-0.5-0.8l-0.3-0.8l-0.3-0.8l-0.2-1l-0.2-1l-0.5-0.8l-0.7-0.7v-1v-1l-0.3-1l-0.3-0.8l-0.2-1v-1l-1.2-0.7l-0.8-0.3
		l-0.8-0.7l-0.7-0.8l-0.7-0.7l-0.7-0.7l-0.5-0.8l-0.3-0.8l-0.2-1l0.3-1l0.2-0.8v-1l-0.7-0.8l-0.7-0.7l-0.5-0.7l-0.8-0.7l-0.8-0.2
		l-0.8-0.3l-0.8-0.5l-0.8-0.7l-0.7-0.7l-0.7-0.8l-0.7-0.7l-0.5-0.8l-0.2-1l0.2-0.8l0.3-1l0.3-0.8l0.3-0.8l0.7-0.8l0.5-0.7l0.3-1
		l0.5-0.7l0.8-0.5l0.7-0.8l-0.2-1l-0.2-0.8l-0.5-0.8l-0.5-0.8l-0.7-0.7l-0.8-0.3l-1,0.2l-0.7,0.7l-0.7,0.7l-0.7,0.7l-0.7,0.7l-1-0.2
		l-1-0.2l-0.8-0.2h-1l-1,0.2h-1l-0.8,0.2l-1,0.3l-0.7,0.7l-0.8,0.5l-1,0.2l-1,0.2l-0.8-0.2h-1l-0.8,0.3l-0.7,0.7l-0.7,0.7l-0.7,0.8
		l-0.5,0.7l-0.7,0.8l-0.7,0.7l-0.8-0.3l-1,0.2l-0.8,0.2l-0.8-0.3l-0.3-1l-0.2-1v-1v-1l0.2-0.8l-0.2-1l-0.5-0.8l-0.5-0.8l-0.3-0.8
		l-0.2-1l-0.3-0.8l-0.5-0.8l-0.8-0.5l-0.8-0.5l-0.8-0.3l-0.8-0.5l-0.8-0.2l-1-0.2l-1-0.2l-0.7-0.5l0.3-1l0.5-0.7l-0.7-0.7l-0.7-0.8
		l-0.7-0.7l-0.7-0.8l-0.7-0.5l-1,0.2l-0.5-0.7v-1l0.5-0.8l0.7-0.5l1-0.3l0.7-0.5l-0.2-1l-0.5-0.7l-0.2-1l0.2-0.8l-0.8-0.7l-0.7,0.2
		l-1,0.3l-0.8,0.5l-0.7,0.5l-0.8,0.5l-0.2,1v1l0.3,1l-0.8,0.5l-0.8,0.2h-1l-0.5,0.7l-0.7,0.8l-0.5,0.7l-0.8,0.7h-1l-1-0.2l-0.8-0.2
		l-1,0.2l-1-0.2v-0.8l0.7-0.5l0.7-0.8l-0.5-0.7l-1-0.2h-1l-0.8,0.2l-0.8-0.7l-0.3-0.8l-0.5-0.8l-0.7-0.7l-1,0.2l-0.8,0.3l-0.8,0.5
		l-0.8,0.5l-1,0.2H41h-1h-1l-1-0.2l-1,0.2l-1-0.2l-1-0.2l-0.8-0.2l-1-0.2l-0.8-0.7l-0.3-0.8l-0.3-0.8l-0.3-0.8l-0.5-0.8h-1l-0.8,0.2
		l-0.8-0.7l-0.5-0.7l-0.7-0.7h-1l-1-0.2l-1-0.2h-1l-0.8-0.2l-1-0.3l-0.8-0.2l-1-0.2h-1l-0.3-1.2l-0.5-0.8l-0.7-0.7l-0.2-0.8l0.7-0.7
		l1,0.2L19,337l0.7-0.3l0.2-0.8l-0.5-0.8l-0.5-0.7l-0.8-0.7l-0.5-0.7l-0.3-1l0.3-0.8l0.7-0.7l0.8-0.3h1l0.8-0.3l0.8-0.5l0.3-0.8
		l-0.5-0.8l-0.7-0.7l-0.5-0.8l-0.7-0.7l-0.8-0.7l-0.8-0.5l-0.5-0.7l-0.3-1v-1l0.3-0.8l0.2-0.8l-0.3-0.8l-1-0.3l-0.8-0.3v-1v-1
		l-0.3-1l-0.3-1.3v-1l0.5-0.8l0.8-0.2h1l0.8-0.3l0.8-0.3l0.8-0.5l0.7-0.7l0.8-0.5l0.7-0.7l0.2-1l0.3-0.8l0.7-0.7l0.8-0.2l0.5-0.8
		l0.7-0.7l0.8-0.3l0.8-0.3l0.5-0.8l-0.2-0.8l-0.2-1l-0.5-0.8l-0.3-0.8l-0.3-0.8l-0.2-1v-0.8v-1l0.2-1l-0.2-1l0.2-1l0.2-1l0.8-0.3
		l0.7-0.3l0.7-0.8v-1l-0.5-0.7l-0.8-0.5l-0.7-0.7l-0.3-0.8l0.7-0.7l0.8-0.3l-0.3-0.8l-0.5-1l-0.3-1l0.3-1.3l-0.3-1.5l-0.3-0.7l1-1.2
		l0.3-0.8l0.8-0.2l1,0.3l1,0.2l0.8-0.2l0.5-0.8l-0.2-1l-0.2-1l-0.3-0.8l-0.5-0.8l-0.3-0.8l-0.3-0.8l0.2-1l0.3-0.8l0.5-0.8l0.7-0.7
		l0.3-1v-0.8v-1v-1l0.3-0.8l0.5-0.7l1-0.3l0.8-0.2l1-0.5l0.5-0.8V260l0.2-1l0.2-1l0.2-0.8l0.7-0.8l0.7-0.7l0.7-0.7l0.8,0.5l0.7,0.7
		l0.8,0.3l0.8-0.3v-1l-0.2-1l-0.5-0.8l-0.5-0.7l-0.7-0.8l-0.3-0.8l-0.7-0.7l-0.7-0.8l-0.5-0.7l-0.5-1v-1l0.3-0.8l0.5-0.8l0.8-0.5
		l0.8-0.5l0.7-0.7l0.8-0.7l0.7-0.7l0.8-0.5l1-0.2l0.8-0.3l0.8-0.2l1-0.3l0.8-0.3l1-0.2l0.8-0.3l1-0.2l0.8-0.5l0.7-0.7l0.7-0.7
		l0.7-0.8l0.7-0.7l0.7-0.8l1-0.8l0.5,0.2h0.8l0.5-0.8l0.3-1V232l0.5-0.8l1-0.2l0.5-0.7l0.5-0.8l0.7-0.7l0.7-0.8l0.7-0.7l0.8-1.3
		l0.7-0.7l0.7-0.8l0.7-0.7l0.8-0.7l0.5-0.8l0.8-0.5l0.8-0.3l0.7-0.7l0.5-0.8l0.5-0.8l0.5-0.8l0.2-1l-0.2-0.8l-0.7-0.7l-0.8-0.7
		l-0.5-0.8l-0.3-0.8l-1-0.2l-0.8,0.2l-0.8,0.5l-0.8,0.5L63,214l-0.7-0.7l-1-0.2l-0.7-0.7v-1v-1v-1v-0.8v-1.2v-0.8l0.2-1l0.5-0.8
		l0.3-0.8l0.3-1l0.3-0.8l0.5-0.8l0.7-0.7l0.5-0.8l0.3-0.8l0.5-0.8l0.7-0.8l0.8-0.5l0.7-0.5l0.5-0.8l0.5-0.8l0.7-0.8l0.5-0.8l0.3-0.8
		l0.5-0.8l0.7-0.7l0.8-0.2h1l1,0.2l0.8,0.3l0.8,0.3l0.7,0.7l0.8,0.7l1-0.2l0.8-0.3l0.7-0.7l0.3-0.8l-0.3-1l-0.3-1l0.2-0.8l0.3-1
		l0.3-0.8l0.5-0.8l0.5-0.8l0.7-0.7l0.5-0.8l-0.3-1h-0.8l-1,0.3l-0.8-0.3l-0.8-0.5l-0.7-0.8l-0.3-0.8l-0.5-0.8l-0.3-0.8l-0.5-0.8
		l-0.7-0.7l-0.5-0.8l-0.5-0.8l-0.5-0.8l-0.5-0.7l0.3-1l0.2-1l0.2-1l0.2-0.8v-1l0.2-1l0.3-0.8l-0.2-1.3l-0.7-0.8l-0.8-0.5L72,163
		l-0.7-0.8l-0.7-0.7l-0.7-0.7l-0.5-0.8l-0.2-1l0.5-0.8l0.3-0.8l0.5-0.8l0.5-0.8l0.3-1l0.5-0.8l0.3-0.8l0.2-1v-1l-0.3-0.8l-0.2-1
		l-0.2-1l0.2-1l0.2-0.8l0.3-1l0.5-0.8l0.8-0.8l0.7-0.7l0.8-0.7l0.7-0.7l0.5-0.8l0.3-0.8l0.3-1l0.5-0.8l0.5-0.8l0.5-0.8l0.8-0.5
		l0.7-0.8l0.5-0.8l0.5-0.8l0.5-0.8l0.3-0.8l0.5-0.8l0.8-0.5l0.8-0.5l0.8-0.3l0.8-0.3l1-0.5l1,0.3l0.8,0.3l0.8,0.3l0.8-0.3l0.7-0.7
		l0.3-0.8l0.8-0.7l0.8-0.5l0.8-0.5h1l0.8,0.2l0.8,0.5l0.8,0.2l0.7-0.8l0.7-0.7l0.8-0.2l1-0.2l1-0.3l0.8-0.3l0.8-0.5l0.8-0.2l0.8,0.5
		l0.7,0.7h0.8l0.8-0.7l0.3-0.8l0.2-0.8l0.3-1l0.5-0.7l0.8-0.7l0.8-0.3l0.8-0.7l0.7-0.5l0.8-0.5l0.8-0.5l0.8-0.3l0.8-0.5l0.8-0.2
		l0.3-1.2l-0.2-1l-0.3-1v-1v-1l0.3-0.8l0.3-0.8l0.5-0.8l0.7-0.8l0.8-0.7l0.7-0.7l0.7-0.7l0.7-0.7l0.7-0.7l0.7-0.7l0.5-0.8l0.5-0.8
		l0.5-0.8l0.5-0.8l0.3-0.8l0.3-1l0.3-0.8l0.3-0.8l0.5-1l-0.8-0.7h-0.8l-0.7-0.8l-0.5-0.8l-0.8-0.5l-0.8-0.5l-0.7-0.7l-0.7-0.7
		l-0.3-0.8v-1l0.2-1l0.2-0.8l0.3-1l0.2-1l0.3-0.8l0.7-0.7l0.5-0.8v-1l-0.5-0.8l-0.5-0.8l-0.5-0.7l-0.5-0.8l-0.3-0.8l-0.3-1l-0.2-1
		l-0.3-0.8l-0.2-1l-0.2-1l-0.2-1l-0.3-0.8l-0.3-0.8l-0.3-1l-0.2-0.8l-0.8-0.2l-0.8,0.7l-0.8,0.3l-0.8,0.3h-1l-0.7-0.7l-0.7-1.2
		l0.7-0.8l0.7-0.7l-0.2-1l0.2-1v-0.8l-1-0.3l-0.7,0.5l-1-0.3l-0.2-0.8v-1l0.2-1l0.5-0.8l0.7-0.7l0.8-0.7l0.7-0.5l1-0.2l0.8,0.3
		l0.7,0.8l0.5,0.7l0.5,1l0.7,0.5h1l0.5-0.7v-1l-0.2-1v-1l0.3-0.8l0.7-0.7h1l1,0.2h1h1l1-0.2h1l0.8-0.3l0.3-1l-0.2-1l0.5-0.8l0.8-0.3
		l1,0.2l1-0.2l0.7-0.5l0.8-0.7l0.7-0.7l0.5-0.8v-1v-1l0.8-0.3l0.8,0.2l0.7-0.8l0.2-0.8v-1l-0.2-1l-0.2-1v-1v-1l-0.2-1l-0.7-0.7
		l-0.7-0.8l-0.5-0.8l0.3-0.8h0.5l1-0.2l0.8-0.3l0.8-0.5l1-0.3l0.5,0.7l0.3,1l0.7,0.5l1-0.3l0.5-0.7l0.3-1l0.5-0.8l0.8-0.3l1-0.2
		l0.8-0.5l0.8-0.3l0.5-0.8l0.7-0.8l0.7-0.7l0.3-0.8l0.8-0.7l0.7-0.7l1-0.2l1-0.2l0.8-0.2l0.8-0.5l0.5-0.8l0.7-0.8l0.3-0.8l0.5-0.8h1
		l0.8,0.3l0.8,0.5l0.7,0.8l0.5,0.7l0.8,0.7l0.8,0.5l0.5,0.8v1l0.2,1l0.7,0.7l0.5,0.8l0.3,0.8l0.5,0.8l0.8,0.7l0.7,0.7l0.8,0.7
		l0.8,0.5l0.8,0.5l0.8,0.3l0.8,0.5l0.8,0.5l0.8,0.8l1-0.2l1,0.3l0.8,0.5l0.8,0.3l0.8,0.5h0.8l0.7-0.8l0.5-0.8l0.7-0.7l0.3-1l0.2-0.8
		l0.3-1v-1l0.2-0.8l0.3-1l0.3-0.8l0.7-0.8l0.7-0.7l0.7-0.7l0.8-0.5l0.8-0.7l0.7-0.5l0.8-0.5l0.8-0.3l1-0.3l0.8-0.5l0.8-0.3l0.8-0.3
		l0.8-0.5l0.8-0.7l0.7-0.5l0.8-0.7l1,0.2l0.8,0.3l0.8,0.3l1-0.3l0.7-0.5l0.7-0.8l0.8-0.3v-1l0.8-0.3h1l0.8,0.2l1,0.2l1,0.2l0.8,0.5
		l0.7,0.7l0.8-0.5l0.5-1v-1l0.3-0.5l1-0.2l1-0.2v-1l0.2-1l0.2-0.8l0.3-1l0.3-0.8l0.7-0.7l1-0.3l1-0.2h1h1l0.8-0.2l1-0.2h0.7l0.8-0.5
		l0.8-0.5l0.7-0.7l0.8-0.2l0.3-0.5l0.8-0.3l1-0.2l1-0.2l1-0.2l1-0.2h1l1-0.2l1-0.2l0.8-0.5l0.5-0.8l0.5-0.8l0.2-0.8l-0.2-1L228,4.7
		l-0.3-1l0.2-1l0.3-0.8l0.3-0.8V0l-0.8-0.5l-0.8-0.3h-1l-0.7-0.5l-0.3-1v-1l-0.2-1l0.2-1l0.5-0.8l0.8-0.7l0.8-0.5l0.7-0.5l0.8-0.5
		l0.8-0.5l0.7-0.7l0.8-0.3l1-0.5l0.8-0.3h1l0.5,0.7l0.5,0.8l0.5,0.7l0.7,0.7l1,0.3l0.8,0.3l0.8,0.3l1,0.3l0.7-0.5l-0.3-0.8l-0.7-0.7
		l-0.2-1l0.3-0.8l1-0.2h0.5h0.5l1-0.2l1-0.2l0.8-0.3l1-0.2l1,0.2l0.8,0.3l0.8,0.5l0.3,1l0.3,0.7h1l0.8-0.3l0.7-0.8l0.8-0.3l1-0.2
		l0.8-0.3l0.8-0.3l0.8-0.7l0.3-1l0.2-0.8l0.8-0.7h0.8l1,0.3l0.7,0.7l0.2,1l0.3,0.8l0.8,0.7l0.8,0.5l0.7,0.7l1,0.3l0.8,0.2h1l0.8,0.3
		l1,0.3l0.5,0.8l-0.2,0.8l-0.3,1l-0.3,0.8L266.1-4l-0.8,0.7l-0.7,0.7l-0.5,0.8l0.5,0.7l1-0.2l0.8,0.3l0.7,0.7l0.3,0.8l0.2,1l-0.2,1
		l-0.2,0.8l-0.5,1L266.3,5l-0.8,0.7L264.6,6l-0.7,0.7l-0.7,0.8l-0.7,0.8L262.1,9l-0.7,0.8l-0.5,0.8v0.8l0.7,0.8l0.3,0.8l0.2,1
		l0.2,1.5l-0.2,0.8v1v0.8l0.5,0.8l0.8,0.7l0.7,0.5l1,0.5l0.8,0.3l0.8,0.5l0.8,0.3l0.8,0.7l0.5,0.8l0.5,0.8l0.5,0.7l0.5,1l0.3,0.8
		l0.3,0.8l0.3,0.8l0.3,1l0.3,0.8l0.7,1.5l0.3,1l0.3,0.8l0.2,1l0.2,0.8l0.2,1l0.3,1l0.2,0.8l0.7,0.8l0.5,0.8l0.5,0.8l0.7,0.7l0.3,0.8
		l0.5,0.8v1l-0.5,0.8l-0.3,0.8v1l0.3,0.8l0.8,0.8l0.5,0.7l0.5,0.8l0.7,0.7l0.5,0.8l-0.2,1l-0.2,0.8l0.3,1l0.2,1l-0.2,0.8v1l0.2,1
		l0.3,0.8v1l-0.3,0.8l-0.7,0.8l-0.8,0.2l-0.8,0.7l-0.3,0.8l-0.2,1l0.5,0.8l0.7,0.7l0.5,0.8l0.7,0.8l0.2,0.8l0.2,1.2l0.8,0.7l1,0.2
		h0.8h0.5h0.5h1l0.8-0.3l0.7-0.7l-0.2-1l0.2-0.8h1l0.8,0.5h0.5h0.5l0.7-0.7l0.5-0.7l1-0.3l1,0.2l0.8,0.3l0.5,0.2l0.3,0.3l1,0.3
		l0.8,0.2l1,0.2l0.8-0.2l0.8-0.7l0.8-0.5l0.8-0.5l0.8,0.2l0.5,0.8l0.2,1l-0.2,1l0.3,1l0.5,0.8l0.7,0.5l1,0.3l0.8,0.2h1h1.2l1-0.2h1
		l1-0.2l1-0.2h1l0.8,0.2l1-0.2l1-0.2l0.3-0.5l0.3-0.8l0.7-0.8l0.5-0.8l0.7-0.8l0.7-0.7l0.8-0.5l0.7-0.7l0.8-0.7l0.7-0.7l0.3-1v-1
		l0.3-0.8l0.7-0.8l0.8-0.5l0.8-0.3l0.8-0.3h1l1,0.2l0.8,0.3l0.5,0.3l0.3,0.3l0.8,0.7l0.8-0.2l0.7-0.7l0.5-0.8l0.3-0.8l0.3-1l0.2-0.8
		l0.2-1l0.3-0.8l0.2-1l0.2-0.8l0.3-1l0.3-0.8l0.2-1l0.2-0.8l0.2-1v-1l-0.2-0.8l0.7-0.7l1,0.2l0.7,0.7l0.8,0.7h0.8l0.3-0.7l-0.3-0.8
		l-0.2-1l0.5-0.8l0.8-0.3l1-0.2h1.2h1l1-0.2l0.8-0.3l1-0.2h1l0.3,1v1l-0.2,0.8v1v1v1l-0.2,1l-0.2,1l0.7,0.7l0.8,0.7l0.7,0.7l0.8,0.7
		l0.5,0.8l0.5,0.8v1l-0.2,1v0.8l0.8,0.5l0.8-0.5l0.8-0.3h1l0.7,0.7l0.2,1v1v1.2l0.2,0.8l0.2,1l0.2,1.2l-0.5,0.8l-0.7,0.7l-0.3,1
		l0.5,0.7l1,0.2l0.3,0.8l0.2,1l-0.2,1l0.2,1.3l0.8,0.5l0.7,0.7l0.8,0.5l0.5,0.8l0.7,0.7l0.3,0.3l0.3,0.3l0.8,0.7l0.8,0.3l1,0.3
		l0.5,0.3l0.7-0.2l0.8-0.5l1-0.2l0.7,0.7l0.3,0.8l0.3,1l0.8,0.2l0.5-0.7l0.7-0.7l1,0.3l0.2,0.8l1,0.5h0.8l1-0.3l0.7-0.5l0.8-0.5
		l1-0.3l0.8-0.3l-0.2-1l0.5-0.8l0.8-0.5l0.5-0.8l0.5-0.8l0.7-0.7l0.7-0.5l1-0.3h0.7l0.8,0.5l0.5,0.7l0.2,0.2l0.7,0.7l0.7,0.5l1-0.2
		l0.8-0.3l0.8-0.7l0.8-0.5l0.7-0.7l0.7-0.8l0.7-0.7l0.7-0.8l0.5-0.8l0.5-0.8l0.7-0.8l0.8-0.7l0.8-0.3l0.8-0.3h1.2l0.8-0.2l1-0.3
		l1-0.2l0.8-0.2l1-0.2l1-0.3l1-0.2l0.7-0.2l0.5,0.7l0.5,1l0.5,0.7l0.5,0.8l0.7,0.7l1,0.3l0.8-0.3l1-0.3l0.8-0.3l1-0.2l0.8,0.2l1,0.5
		l0.3,0.8l0.2,1l0.2,1l0.3,1l0.3,0.8l0.5,0.7l0.8,0.7l0.8,0.7l0.7,0.7l0.5,0.7l0.5,1l0.3,0.8l0.5,0.8l0.8,0.7l0.8,0.7l0.3,0.8
		l-0.8,0.7l-0.5,0.7l0.2,1l0.5,0.8l0.3,0.8l-0.2,1l-0.2,1l0.3,0.7l0.3,0.5l0.8,0.7L422.1,89.9L422.1,89.9"/>
	<path vector-effect="none" class="st0" d="M373.8,253l1,0.2l0.8-0.2h1l0.7,0.7l0.8,0.5l0.8,0.5l-0.2,0.8l-0.7,0.7l-0.5,0.8l0.8,0.3
		l0.8,0.3l1,0.2h1l0.8-0.2l1-0.2l0.2,0.8l-0.7,0.8l-0.8,0.3l-0.5,0.8l-0.8-0.3l-0.7-0.7h-1l-0.8,1.2l-0.5,0.8l-0.3,1l-0.2,0.8v1
		l0.3,1l0.5,0.8h1l0.8,0.2l0.8,0.3l0.7-0.7l0.7,0.8l-0.2,1.3l-0.7,0.7h-1l-0.7-0.7h-1l-0.7,0.7h-1l-0.3,0.7l-0.8,0.3l-1,0.3
		l-0.7,0.8l-0.7,0.7l-0.2,0.8l0.3,1l0.8,0.2l0.8,0.5l-0.3,0.7l-0.8,0.5l-0.8,0.2l-0.8-0.5l-0.5-0.8l-0.5-0.8l-1-0.2l-0.8-0.2
		l-0.5-0.8l-0.5-0.7l-0.7-0.7v-1l0.2-1l0.7-0.5l0.3-0.8l-0.7-0.5h-1l-0.8,0.5l-0.7,0.7l-0.8-0.2v-1l0.5-0.8l0.5-0.8l0.8-0.7l0.8-0.3
		l1,0.2l0.8-0.2l0.8-0.2v-0.8l-0.7-0.8l-0.2-0.8v-1l0.3-1.5v-0.5l0.2-1l-0.2-1l-0.8-0.5l-0.8,0.3l-0.8,0.7l-0.7,0.5l-0.7-0.7
		l-0.8-0.7l0.3-1l0.7-0.5l0.5-0.8l0.7-0.7l0.8-0.7l0.3-0.8l0.7-0.7h1l0.5-0.8l0.7-0.8l0.8-0.3l0.8-0.7h1v0.8l-0.5,0.8l-0.5,0.7
		l-0.3,1l0.5,0.8L373.8,253L373.8,253"/>
	<path vector-effect="none" class="st0" d="M166.6,456.1l1,0.2l0.5-0.5l1-0.2l0.7-0.2l0.5-0.3l0.7-0.3l0.5-0.3l0.3-0.5l0.3-0.5
		l0.8-0.2l0.5,0.5v0.7l0.7,0.2l1.3,0.8l0.2,1l-0.5,0.7l-0.3,0.7h-1l-1-0.2l-0.7,0.5l-0.2,0.5l-0.2,0.7l-0.2,0.7v2l-0.2,0.8l0.5,0.5
		l0.2,0.5l-0.5,0.5l-1,0.3l-0.5,0.2l-1.2-0.5l-1.2-0.2l-1,0.8l-0.3,0.7l-0.2,0.5l-0.2,0.7l-0.2,0.8v0.5v1.5l0.5,0.7l0.8,0.5l0.5,0.5
		l-0.3,0.5h-0.7l-2.2,0.3l-0.7,0.3l-0.5,0.3l-0.5,0.3l-0.5,0.3l-0.7,0.2l-0.7-0.5l-0.8-0.5l-0.7-0.2l-0.5,0.3l-0.7,0.3l-0.7,0.3
		l-0.7,0.2l-0.5-1l0.7-0.8l0.8-1.2l1-0.5l0.8-0.5l0.7-0.7l0.3-0.3l0.5-0.5l0.3-0.5l0.8-1.2l0.7-0.7l0.3-0.5l0.5-0.8l0.3-0.5l0.2-1
		l-0.5-0.3l-0.7-0.2l-0.7-0.2l-0.5-0.3l-0.8-0.2l-0.7,0.5l-0.2,0.7l-1,0.3l-0.8-0.5l-0.5-0.3l0.3-1l0.8-1l0.2-0.7l0.2-1.3l-0.2-0.7
		l-0.3-0.5l-0.3-1.3l1.7-1.7l0.7-0.7l1-0.5l1.2-0.2l0.7,0.2l1.3,1.3l0.7,0.3l0.2,0.8L166.6,456.1L166.6,456.1"/>
	<path vector-effect="none" class="st0" d="M259.7,378.8l0.5,0.7l-0.3,0.8l-0.3,0.8l-0.5,0.8l-0.7,0.7l-0.5,0.8l-0.8-0.2l-0.7-0.7
		l-0.8-0.3l-0.8-0.2l-1-0.2l-1-0.2h-1l-0.8,0.3l-0.8,0.5l-0.7,0.7l-0.7,0.7l-0.5,0.8l-0.5,0.8l-0.8,0.7l-0.7-0.3l-0.8-0.7l-0.8-0.3
		l-1-0.2l-0.2-0.7l0.7-0.7l0.8-0.3l0.8-0.3l0.3-1l-0.8-0.7l-0.3-0.8l0.2-0.8l-0.5-1.2l-0.3-0.8l0.8-0.7l0.8,0.3l0.7,0.7l0.8,0.3
		l0.8,0.5l0.8,0.5h1l1-0.2l0.5-0.8l0.3-0.8l0.2-1l0.2-0.8l0.8-0.3l-0.2-1l0.3-0.8l0.7-0.8l0.8-0.3l0.8,0.2l0.7,0.8l0.8,0.5l0.8,0.3
		l0.2,1l0.2,1l0.5,0.5l0.7,0.5l-0.2,0.8L259.7,378.8L259.7,378.8"/>
	<path vector-effect="none" class="st0" d="M351.8,295.6l0.8,0.7l0.8-0.3l0.8-0.2l1,0.2l1-0.2l0.5,0.7l-0.7,0.7l-1,0.2l-0.7,0.7v0.8
		l0.8,0.7l-0.2,0.8l-1,0.2l-1,0.2l-1-0.2l-0.5-0.8l-0.7-0.5v-0.8l0.7-0.7l-0.8-0.5l-0.8-0.3h-0.7l-0.2,1l-0.8,0.2l-0.8-0.5l-0.8-0.3
		l-1-0.2l-0.8-0.3l0.3-1l-0.2-0.8l-0.2-0.8l0.8-0.5l0.7-0.7l0.3-1l0.8-0.3l0.7,0.7l0.7,0.5l0.7,0.5l0.3,1l0.3,0.8l0.8,0.3
		L351.8,295.6L351.8,295.6"/>
	<path vector-effect="none" class="st0" d="M355.3,202.1l0.7,0.7l0.8,0.7l0.7,0.8l0.8,0.7l0.3,0.8l-0.2,0.8l-0.7,0.7l-0.3,0.5h-0.7
		l-0.7-0.3h-0.8h-0.8h-1.3l-1.5,0.2l-0.5,0.3h-0.7l-0.8-0.5l-0.8-0.5l-0.3-0.8l0.3-0.8l0.5-0.8l0.7-1.2l0.3-0.8l1-0.3l0.8,0.2
		l1.3-0.3l0.8-0.5L355.3,202.1"/>
	<path vector-effect="none" class="st0" d="M364.4,146.1l-0.8,0.5l-0.8,0.5l-0.7,0.7l-0.3,0.8l-0.7,0.7l-0.7,0.3l-1-0.2l-1-0.2
		l-1-0.2l-1,0.2l-0.7-0.3l-0.7-0.7l-0.2-1l0.2-1l0.8-0.3l1-0.2l1-0.2h1h1l0.8,0.5l0.8-0.2l0.3-0.8l0.8-0.5l1-0.2l0.5,0.8
		L364.4,146.1"/>
	<path vector-effect="none" class="st0" d="M420.3,115.6l-0.3,0.8h-1l-0.8,0.5l-0.8,0.3l-0.8-0.3l-0.8-0.7l-0.8-0.7l-0.7-0.7l-0.3-1
		l0.3-0.8l0.7-0.7h1h1l0.8,0.5l0.5,0.8l0.7,0.7l0.8,0.5L420.3,115.6"/>
	<path vector-effect="none" class="st0" d="M370.4,149.8l-0.2,1l0.2,0.8l-0.5,0.8l-0.8-0.3l-0.8-0.5l-0.8,0.3l-1,0.3l-0.8-0.5
		l-0.8-0.5l-0.8-0.7l-0.2-1l1-0.2l0.8,0.3l0.8,0.2l0.8-0.7l0.7-0.5l0.8-0.5l1-0.2l0.7,0.8L370.4,149.8L370.4,149.8"/>
	<path vector-effect="none" class="st0" d="M316.9,316.5l-0.5,0.8l-0.7-0.5l-0.3-0.8l-0.7-0.8l0.8-0.7v-1l-0.3-0.8v-0.8l0.8-0.3
		l0.5-0.8l1-0.2l0.8-0.5l0.7,0.3l-0.5,0.8l-0.7,0.7l0.2,1l0.3,1l-0.3,0.8l-0.5,0.8L316.9,316.5"/>
	<path vector-effect="none" class="st0" d="M400.5,155.5l-0.7,0.7l-1-0.3l-0.5-0.8l-0.5-0.8l0.7-0.7l0.7-0.7l0.8-0.5l0.3-0.8
		l0.5-0.8l0.8,0.2l0.7,0.7v1l-0.3,0.8l-0.8,0.5l-0.5,0.8L400.5,155.5L400.5,155.5"/>
	<path vector-effect="none" class="st0" d="M384,196.4l0.7,0.3l0.7-0.8l0.7-0.3l0.8-0.3l0.5,0.8l-0.3,1l-0.7,0.7l-0.8,0.5l-0.8,0.3
		l-0.8,0.3l-1,0.2l-0.5-0.7l0.5-0.7v-0.8l-0.3-1l0.2-0.8l1-0.3l0.3,0.8V196.4L384,196.4"/>
	<path vector-effect="none" class="st0" d="M391.1,190.6l-0.8,0.2h-1l-0.7,0.5l-0.3,0.8l-0.5,1l-0.5-0.7l-0.5-0.8l0.2-1l0.7-0.7
		l0.8-0.7l0.8-0.5l0.7,0.2l1,0.2l0.7,0.7L391.1,190.6L391.1,190.6"/>
	<path vector-effect="none" class="st0" d="M239.6,384.6l-0.7,0.7h-0.7l-1-0.2l-0.5-0.8l0.7-0.8l0.3-0.7v-1l0.7-0.8l0.8-0.3l0.8,0.2
		l0.8,0.5l0.2,1l-0.5,0.8l-0.7,0.5L239.6,384.6L239.6,384.6"/>
	<path vector-effect="none" class="st0" d="M358.4,200.1L358,201l-1-0.5l-1-0.2l-0.8-0.3l-0.5-0.7l-0.3-1l0.2-0.8l1-0.2l0.8,0.2
		l0.8,0.3l1,0.2h1l0.5,0.7l-0.7,0.7L358.4,200.1L358.4,200.1"/>
	<path vector-effect="none" class="st0" d="M367.3,249.6v1l-0.7,0.7h-1l-1,0.2l-0.8,0.3l-0.8-0.3l-0.8-0.5l0.3-0.8h0.8l0.8,0.2
		l0.8-0.3l0.8-0.5l1-0.7L367.3,249.6"/>
	<path vector-effect="none" class="st0" d="M393.8,161.4l-0.3,0.8l-0.8,0.3l-0.8-0.3l-0.7,0.8l-1-0.3v-0.8l0.2-1l0.8-0.3l0.8-0.5
		l0.8-0.3l1-0.3l0.2,1L393.8,161.4L393.8,161.4"/>
	<path vector-effect="none" class="st0" d="M188.3,452.4l-0.7,0.7h-1l-0.3-0.8l0.2-1l0.2-1v-1v-1l0.7-0.7l0.8,0.5l0.2,1l0.2,1v1
		L188.3,452.4"/>
	<path vector-effect="none" class="st0" d="M370.6,280l-1,0.2h-1l-0.8,0.2l-0.7-0.8l0.5-0.8l0.8-0.2l0.7-0.7l1-0.2l0.7,0.3l0.3,0.8
		L370.6,280L370.6,280"/>
	<path vector-effect="none" class="st0" d="M247.5,368.4l0.2,0.8l-1,1h-1l-0.8-0.3l-1-0.8l0.7-0.7l1-0.2l0.8,0.2l0.3-0.5
		L247.5,368.4"/>
	<path vector-effect="none" class="st0" d="M359,261.8l-0.3,0.8l-0.8-0.3l-0.7-0.7l-0.8-0.5l0.3-0.8l0.8-0.7l0.8,0.3l0.3,1
		L359,261.8L359,261.8"/>
	<path vector-effect="none" class="st0" d="M349.3,283.1v1h-0.8l-1-0.5l-0.7-1l0.5-0.8l0.8-0.5l0.8,1L349.3,283.1L349.3,283.1"/>
	<path vector-effect="none" class="st0" d="M360.5,202l-0.3,0.8l-0.7-0.7l-0.3-1l0.5-0.8l1-0.3l0.8,0.3l-0.5,0.8L360.5,202
		L360.5,202"/>
	<path vector-effect="none" class="st0" d="M385,254.1l0.3,0.8l-0.3,0.8h-1h-1.2l-0.7-0.5v-1h1.2l0.8-0.2L385,254.1L385,254.1"/>
	<path vector-effect="none" class="st0" d="M401,130.5l-0.8,0.3l-1.2-0.5l0.7-0.8l0.7-0.7h1.2l0.2,0.8L401,130.5L401,130.5"/>
	<path vector-effect="none" class="st0" d="M368.3,284.8l-1,0.2l-0.3-1l0.2-0.8l0.5-0.8l0.8-0.2l0.2,0.8l0.2,1L368.3,284.8
		L368.3,284.8"/>
	<path vector-effect="none" class="st0" d="M413.2,116.9l-0.5,0.3l-1-0.2l-0.8-0.3v-0.7l0.8-0.5h1l0.8,0.5L413.2,116.9L413.2,116.9"
		/>
	<path vector-effect="none" class="st0" d="M434.9,172.8l-0.7,0.3l-0.8-0.3l0.5-1l0.7-0.3l0.8-0.2l0.3,0.8L434.9,172.8L434.9,172.8"
		/>
	<path vector-effect="none" class="st0" d="M390.1,217.4l-0.8,0.3l-0.2-1l-0.2-0.8l1-0.2l0.3,0.7L390.1,217.4L390.1,217.4"/>
	<path vector-effect="none" class="st0" d="M353.3,208.5l1.5,0.2l-1.2,0.5h-1l-1-0.2l-0.2-0.5h1H353.3"/>
	<path vector-effect="none" class="st0" d="M400.1,141.9l-1,0.2l-0.7-1l1-0.5l1,0.3L400.1,141.9"/>
	<path vector-effect="none" class="st0" d="M450.3,108.2L450,109h-0.8l-0.2-1l0.2-0.5l1-0.3L450.3,108.2L450.3,108.2"/>
	<path vector-effect="none" class="st0" d="M339.4,306.3l-0.8,0.5l-0.7-0.8l0.2-0.7l1,0.3L339.4,306.3"/>
	<path vector-effect="none" class="st0" d="M448.3,106.5l-0.5,0.8l-0.7-0.5l0.3-1l0.7-0.3L448.3,106.5"/>
	<path vector-effect="none" class="st0" d="M388.6,184.7l-0.5,1l-0.5-0.7l0.3-0.8l0.7-0.3L388.6,184.7"/>
	<path vector-effect="none" class="st0" d="M418.9,139.7l-0.8,0.5l-0.5-0.3l0.5-0.8l0.8-0.2V139.7"/>
	<path vector-effect="none" class="st0" d="M352.2,290.9l-1,0.3l-0.5-0.8l0.5-0.5l1,0.2V290.9"/>
	<path vector-effect="none" class="st0" d="M419.6,145.6h-1v-0.8l1-0.2l0.8,0.7L419.6,145.6"/>
	<path vector-effect="none" class="st0" d="M381.3,170.3l-0.8,1l-0.3-0.7l0.5-0.7L381.3,170.3"/>
	<path vector-effect="none" class="st0" d="M240.1,408.1l-0.5,1l-0.7-0.5l0.5-0.8L240.1,408.1"/>
	<path vector-effect="none" class="st0" d="M360.5,252.6l-0.5,0.8l-0.5-0.8l0.5-0.7L360.5,252.6"/>
	<path vector-effect="none" class="st0" d="M197,447.2l-0.8,0.3l0.5-1.2l1,0.2L197,447.2"/>
	<path vector-effect="none" class="st0" d="M400.8,162.2l-0.8,1l-0.5-0.5l0.7-0.7L400.8,162.2"/>
	<path vector-effect="none" class="st0" d="M309.4,312.8l-0.8,0.7l-0.3-0.5l0.5-0.7L309.4,312.8"/>
	<path vector-effect="none" class="st0" d="M405.7,122.3l-0.7,0.5l-0.3-0.5l1-0.7L405.7,122.3"/>
	<path vector-effect="none" class="st0" d="M193.6,452.1l-0.7,0.5l-0.8-0.3l0.7-0.5L193.6,452.1"/>
	<path vector-effect="none" class="st0" d="M409.7,177.8l-0.8,0.5v-1l0.8-0.3V177.8"/>
	<path vector-effect="none" class="st0" d="M386,216.2l-0.8,0.2v-0.8l1.2-0.2L386,216.2"/>
	<path vector-effect="none" class="st0" d="M416.4,144.8l-0.5,0.3l-0.5-0.7l0.8-0.3L416.4,144.8"/>
	<path vector-effect="none" class="st0" d="M421.9,141.6l-0.7,0.3l-0.2-1l0.8-0.2V141.6"/>
	<path vector-effect="none" class="st0" d="M400.8,158l-1,0.3l0.3-0.8L400.8,158"/>
	<path vector-effect="none" class="st0" d="M374.1,285.5v1.3l-0.7-0.7L374.1,285.5"/>
	<path vector-effect="none" class="st0" d="M397.1,150.5h-1.2l0.7-0.7L397.1,150.5"/>
</g>
</svg>
