<?xml version="1.0" encoding="utf-8"?>
<!-- Generator: Adobe Illustrator 27.0.0, SVG Export Plug-In . SVG Version: 6.00 Build 0)  -->
<svg version="1.1" id="Layer_1" xmlns="http://www.w3.org/2000/svg" xmlns:xlink="http://www.w3.org/1999/xlink" x="0px" y="0px"
	 viewBox="0 0 500 500" style="enable-background:new 0 0 500 500;" xml:space="preserve">
<style type="text/css">
	.st0{fill:#E74646;stroke:#FFFFFF;stroke-width:4.6041;stroke-linecap:square;stroke-linejoin:bevel;stroke-miterlimit:3.998;}
</style>
<g transform="matrix(0.999751,0,0,0.999751,18.6633,21.7738)">
	<path vector-effect="none" class="st0" d="M141.2,7.6l0.3,1.2l2.1,7.7l2.3,8.4l1.6,5.9l1.7,5.2l2.7,9.7l1.4,5.2l1.5,5.6l-2.5,2
		l-3.9,3.1l-2.5,2.4l1.9,3.1l2.8,4.7l2.3,4.1l2.6,4.9l1.1-0.3l1.1,1.9l3,3.7l0.9,1.1l2,1.1l1.5,0.9l0.6,1l0.1,2.2l-0.8,2.1l-1.8,3.7
		l-2.6,5.7l1.7,0.6l3.3,0.7l5.2,0.9l3.5-1.3l2.4-2.1l3.2-3.2l1.9-1.1l2.2-0.5l3.3-1.1l3.9-1.4l6.7,1.3l4.1,0.9l1.5-0.9l2.4-1.9
		l2.1,0.5l7.3,2l4.3,1.4l1.1,1.9l1.2,3l0.5,2.1l0.3,2.4L222,110l-1.1,1.5l-1.5,1.3l-2.5,2.1l-1.7,1.9l-1.7,2.3l-1.3,2.1l-0.7,1.3
		l-1.2,1.8l-1.3,0.9l-2.1,1.1l-3,1.4l-2.9,1.3l-2.8,2.1l-1.3,1.9l-1.7,2.1l-0.5,0.7l-0.4,0.5l1.5,0.5l1.5,0.3l2.9,0.3l2.2,0.3
		l2.4,1.4l2.9,2.1l2.5,1.9l1.6,1.1l2,0.8l0.9,0.5l3.6,2.2l0.3,0.5l0.3,0.5l0.3,1.7l0.1,1.8l0.1,1.7l0.5,1.3l1.1,0.3l2.7,0.5l0.9,1
		v1.8l0.1,0.6l1.5,0.5l2.5,0.6l3.8,0.5l2.2,0.5l0.7,0.7l0.1,0.8l-0.3,0.9l-0.5,2.5l-0.2,2.3l0.3,2.7l-0.1,1.5l-0.9,1l-0.7,1.4
		l0.5,1.2l0.5,0.7h0.3l0.7-0.5l0.4-0.3l0.6,0.1l0.7,0.7l0.3,0.9l0.1,0.9l0.4,0.6l1.8,0.3l1.5-0.2l2-0.6l1.4-0.8l1.5-0.7l0.7,0.6
		l-0.4,0.9l-0.5,0.3l-0.8,0.3l-0.5,0.6l0.3,0.6l1,2.3l1.1,1.4l1.1,0.8l0.3,0.7l1.1,2.3l1.3,0.1l1,0.5l1.1,1l2.3,1.5l1.1,1l0.3,0.9
		l0.5,0.4l0.5-0.3l0.8-0.5l1.1-0.3l0.7,0.2l0.7,0.1l1.1,0.9l0.5,0.1l0.7-0.3l0.8-0.3l1.3,0.1l0.4-0.5l0.1-1v-0.9l1.3-1.3l2.7-2.1
		l3.4-1.5v-0.3l-1.6-1.8l-1-1.2l-0.9-1.4l-0.4-0.5l-1.3-1.7l-2.7-3.4l0.5-0.3h1.3l1.7,0.1l2.8-0.2h2.2l3.2-0.7l3.3-0.7l4.8-1.5
		l0.9-0.3l1,0.7l1.2,1.3l1.6,1l2.6,1.1l2.9,1.2l4.7,1.7l1.6,0.4l1.4-0.3l2.1-1.4l5.6-2.2l2.3-2.3l1.3-1.3l2.5-1.2l3-1.3l3.4-0.5
		l4.4-1l3.1-0.3l2.9,0.8l3.7,0.9l-0.6,1.7l-1.7,3.6l0.7,1.4l2.5,3.9l1.9,3.5l-0.8,2l-1.3,3.7l-1.7,0.8l-2.8,1.3l-2.2,4.1l-3.2,5.4
		l-3.7,1.9l-3.2,1.7l-4,2.3l-1.3,0.7l-2.1,1.1l-1.1,0.5l0.5,0.9l0.5,0.6l0.7,1.1l0.6,1.4l-0.1,1.6l0.3,1.5l0.4,1.4l0.3,2l-4.3,0.7
		l-1.7,0.7l-0.1,0.5l-0.2,0.6l0.1,3.9l0.2,2.1l0.1,0.7l0.3,2.5l3.5,1.2l3,1.4l2.9,1.3l1.9,2l0.9,1.8l0.5,1.2l0.9,0.9l2.3,2.5
		l2.2,1.9l1.9,2l1.5,1.5l4.9,0.6l1.8,0.6l0.3,0.3l0.3,0.1l0.4-0.1l0.5,0.1l0.3,0.1l0.4,0.1l0.4,0.1l0.4,0.1l0.3,0.1l0.4,0.1h0.4
		l0.4-0.1l0.3-0.3l0.1-0.4l0.3-0.2h0.4h0.4l0.3,0.1l0.4,0.1l0.3,0.1l0.4,0.1l0.3,0.1l0.3,0.2l0.4,0.1l0.4,0.1l0.3,0.1l0.4-0.1
		l0.4-0.1l0.4,0.1l0.3,0.1l0.4,0.1l0.3,0.1h0.4l0.4-0.1l0.3-0.1l0.4-0.1l0.4-0.1l0.3,0.1l0.1,0.3l-0.3,0.3l-0.3,0.3l-0.3,0.2
		l-0.3,0.3l-0.3,0.2l-0.3,0.3L350,253v0.4l0.3,0.3h0.4l0.4,0.1l0.2,0.3v0.4l-0.3,0.3l-0.3,0.2l-0.4,0.1l-0.3,0.3l-0.2,0.3l-0.3,0.1
		l-0.4,0.1h-0.4l-0.4,0.1l-0.2,0.3l-0.2,0.3l-0.3,0.3l-0.2,0.3l0.1,0.4l0.3,0.3l0.3,0.3l0.2,0.3l0.1,0.4l0.2,0.3l0.3,0.2l0.4,0.1
		l0.4,0.1h0.4l0.4-0.1l0.3-0.1l0.3-0.2l0.3-0.3l0.4-0.2l0.3-0.1l0.3-0.2l0.2-0.3l0.3-0.1l0.4,0.2l0.3,0.2l0.4,0.2l0.3,0.1l0.3,0.3
		l0.3,0.1l0.3,0.2v0.5l0.1,0.3l-0.1,0.4l-0.1,0.4l0.1,0.4l0.3,0.2l0.3,0.3l0.3,0.3l0.1,0.3l0.2,0.3l0.2,0.3l0.3,0.3l0.1,0.4
		l-0.1,0.4l0.1,0.3l0.3,0.1l0.3,0.2l0.3,0.3v0.4l0.1,0.3l0.3,0.3l0.3,0.2l0.3,0.2l0.3,0.2l0.3,0.3l0.3,0.3l0.3,0.3l0.3,0.2h0.4h0.4
		l0.3,0.2l0.3,0.1l0.4,0.1l0.3,0.2l0.3,0.1l0.4,0.2l0.3,0.1l0.4-0.1h0.4l0.1,0.4l0.2,0.2l-0.1,0.4l0.1,0.4l0.1,0.3l0.1,0.4l0.1,0.4
		v0.4v0.4v0.4l0.2,0.3l0.3,0.1h0.4h0.4l0.4,0.2l0.2,0.3l0.3,0.3l0.4,0.1l0.3,0.2l0.3,0.3l0.1,0.3l0.1,0.3l0.1,0.4v0.4l0.1,0.4
		l0.1,0.3l0.3,0.3l0.3,0.2l0.1,0.4l-0.3,0.3l-0.3,0.3l-0.2,0.3l-0.1,0.4l-0.3,0.3l-0.3,0.1h-0.4l-0.4,0.1l-0.3,0.1l-0.3,0.2
		l-0.3,0.1l-0.4,0.2l-0.3,0.2l-0.2,0.3l-0.1,0.4l0.1,0.3l-0.1,0.5l0.5,0.7l0.1,0.4l0.1,0.4l0.1,0.3v0.4l0.1,0.4l0.2,0.3l0.3,0.3
		l0.3,0.3l0.1,0.4l0.1,0.3l0.1,0.4l-0.2,0.3l-0.3,0.1l-0.3,0.3l0.1,0.4l0.3,0.3l0.3,0.3l0.3,0.2l0.4,0.1l0.3-0.1l0.4-0.2h0.3
		l0.2,0.3l0.3,0.3l0.2,0.3l0.3,0.3l0.2,0.3l0.1,0.3v0.4l0.1,0.4l0.1,0.4l0.1,0.3l0.2,0.3l0.2,0.3l0.1,0.4l0.1,0.4l0.1,0.4l0.1,0.3
		l0.1,0.4l0.2,0.3l0.2,0.4l0.1,0.3l0.2,0.4l0.2,0.3l0.1,0.4l0.2,0.4l0.3,0.3l0.2,0.3l0.1,0.3l0.2,0.3l0.1,0.4l-0.1,0.4l-0.1,0.3
		l-0.2,0.3l-0.1,0.4v0.4l0.1,0.3l0.3,0.3l0.2,0.3l0.2,0.3l0.1,0.4l0.1,0.3l0.1,0.3l0.1,0.4l0.1,0.4l0.1,0.4v0.4l-0.1,0.4v0.4
		l-0.2,0.3l-0.2,0.3l-0.3,0.2l-0.4,0.1l-0.3,0.1L372,306h-0.4l-0.3,0.1h-0.4l-0.4,0.1l-0.3,0.3l-0.3,0.2l-0.3,0.3l-0.3,0.1l-0.3,0.2
		l-0.3,0.3l-0.2,0.3l-0.3,0.3l-0.1,0.4l-0.1,0.4l-0.1,0.2l-0.4,0.1l-0.1,0.3v0.4v0.4l-0.1,0.4l-0.1,0.4l-0.1,0.3l0.2,0.4l0.1,0.3
		l-0.2,0.3l-0.1,0.4l0.1,0.4l0.2,0.3l0.2,0.3l0.3,0.1l0.4,0.1l0.3,0.1l0.4,0.1l0.2,0.3l-0.1,0.4l-0.3,0.3h-0.4l-0.3,0.3v0.4
		l-0.1,0.4l0.1,0.4l0.2,0.3h0.3l0.3-0.3l0.1-0.4l0.4-0.1l0.5,0.3l0.1,0.4l0.1,0.4v0.4l0.3,0.3l0.1,0.4l0.1,0.4l0.3,0.2l0.3,0.2
		l0.1,0.3l0.1,0.5l0.4,0.1l0.4,0.1l0.4,0.1l0.3,0.1l0.4,0.1l0.4,0.1l0.3-0.1l0.2,0.3l-0.1,0.5v0.4l0.3,0.1l0.2-0.3l0.2-0.3l0.1-0.3
		l0.3-0.3l0.3-0.3l0.3-0.2l0.4-0.2h0.4l0.3,0.1l0.4-0.1l0.4,0.1l0.4,0.1h0.5l0.4,0.1l0.3,0.1l0.4,0.1l0.3,0.1l0.3,0.2l0.1,0.4
		l-0.1,0.3l-0.3,0.3L380,322l-0.3-0.3l-0.4-0.1l-0.3,0.1l-0.2,0.3l-0.1,0.4l0.1,0.3l0.3,0.3l0.1,0.3l-0.1,0.4l0.1,0.4l0.1,0.3
		l0.3,0.2l0.3,0.2l0.3,0.2l0.1,0.4v0.4l0.1,0.4l0.3,0.2l0.3,0.3l0.3,0.3l0.3,0.3l0.3,0.2h0.3l0.1,0.5l-0.2,1l0.4,0.7l0.6-0.1
		l0.5-0.7l0.4-0.6l1.5-0.1l1.4,0.4l1.4,0.6l0.1,0.2l-0.4,1.1l-0.8,0.8l-1.1,0.7l-1.4,0.7l-0.2,1.1h0.3l0.4-0.2l0.3-0.1l0.3-0.1
		l0.4-0.1l0.3-0.1h0.4l0.4-0.1l0.4-0.1l0.3-0.1l0.3-0.3l0.4-0.1l0.4,0.1l0.4,0.1l0.3-0.2l0.3-0.3l0.3-0.1l0.4,0.1l0.1,0.3l0.1,0.4
		l-0.3,0.3l-0.2,0.3l0.2,0.4l0.3,0.3l0.1,0.3l0.1,0.4l0.1,0.4l0.1,0.3l0.2,0.3l0.3,0.1l0.3-0.3l0.1-0.3l0.1-0.4l0.1-0.4l0.2-0.3
		l0.1-0.3l0.2-0.3l0.3-0.2h0.4l0.3,0.2l0.2,0.3l0.2,0.3l0.3,0.3l0.4,0.1l0.3,0.1l0.4,0.1v0.4l-0.1,0.3l0.2,0.4l0.1,0.3l0.1,0.4
		l0.1,0.4l0.1,0.4l0.3,0.3l0.3,0.3l0.1,0.3l0.1,0.4l0.1,0.3l0.3,0.2h0.4l0.3,0.3l0.1,0.4l0.1,0.3l0.3-0.1l0.3-0.2l0.3,0.3l0.1,0.4
		v0.4l0.1,0.3l0.3,0.1l0.1-0.2l0.2-0.3l0.3-0.3l0.3-0.3l0.3-0.3l0.3-0.2l0.3-0.2l0.4-0.2l0.3-0.2l0.3-0.2l0.3-0.2l0.3-0.3l0.3-0.3
		l0.3-0.3l0.1-0.3l0.1-0.4l0.1-0.3l0.2-0.3l0.1-0.3l0.2-0.4l-0.1-0.2v-0.4l-0.1-0.4l0.1-0.4v-0.5V334l0.1-0.4l-0.2-0.3l-0.4-0.1
		l-0.3-0.2l0.1-0.3l0.2-0.4L404,332l-0.2-0.3l-0.3-0.3l-0.3-0.3l-0.3-0.3l0.1-0.4l0.1-0.3l0.1-0.4l0.1-0.4l0.1-0.3l0.3-0.3l0.3-0.3
		l0.2-0.3l0.1-0.4l-0.1-0.4l-0.2-0.3l-0.1-0.3l-0.2-0.3l-0.2-0.3l-0.2-0.3l-0.1-0.3l-0.1-0.4v-0.4V324l0.1-0.4l0.1-0.4l0.2-0.3
		l0.3-0.3l0.3-0.3l0.3-0.3l0.4-0.2l0.3-0.1l0.5-0.1l0.4,0.1h0.4l0.4,0.1l0.3,0.1l0.3,0.1l0.4,0.1l0.3,0.1l0.4,0.1l0.3,0.1l0.3,0.3
		l0.3,0.3l0.3-0.1l0.4-0.1h0.3h0.4l0.3,0.2l0.3,0.3l0.1,0.3l0.2,0.3l0.3,0.3l0.4,0.1l0.4-0.1l0.3-0.2l-0.1-0.3l0.1-0.3l0.3-0.3
		l0.4-0.1l0.3,0.1l0.3,0.2l0.3,0.1l0.4-0.1l0.2-0.3l0.1-0.3l0.2-0.3l0.3-0.3l0.3,0.1l0.4,0.1l0.3-0.3l-0.1-0.4v-0.3l0.2-0.3l0.4,0.1
		l0.1,0.3l0.4,0.1l0.1-0.3l0.3-0.1l0.4,0.1l0.1-0.4l-0.3-0.3l-0.3-0.3l-0.2-0.3l0.3-0.1h0.4l0.1-0.3L419,319l-0.3-0.3l-0.3-0.3
		l-0.4-0.1l-0.3-0.3l-0.1-0.3l-0.1-0.4l-0.3-0.3l-0.3-0.2l-0.1-0.4l0.2-0.3l0.3-0.2h0.4l0.3-0.1l0.3-0.2l0.4-0.2l0.3-0.2l0.3-0.3
		l0.3-0.3l-0.1-0.4l-0.3-0.1l-0.4-0.1h-0.4l-0.2-0.3l0.3-0.3l0.4-0.1l0.3-0.1l0.3-0.3l0.3-0.3l0.3-0.3l0.1-0.3l-0.1-0.3v-0.4
		L420,311v-0.4v-0.4l0.1-0.4l0.1-0.4l0.1-0.3l0.1-0.3l0.2-0.3l-0.1-0.3l-0.3-0.1l-0.2-0.3l0.2-0.3v-0.3l-0.4,0.1l-0.3,0.1l-0.3-0.2
		l-0.3-0.3l-0.2-0.3l-0.1-0.3l-0.1-0.4l0.2-0.3l0.2-0.3l-0.3-0.3l-0.3-0.2l-0.1-0.3l-0.3-0.3l-0.3-0.2l-0.3-0.2l-0.1-0.3l-0.2-0.3
		l-0.4-0.1l-0.5-0.1l-0.4-0.1l-0.4-0.1l-0.4-0.1l-0.4-0.1l-0.4-0.1l-0.4-0.1l-0.4-0.1l-0.3-0.1l-0.3-0.3l-0.2-0.3l-0.2-0.3l-0.3-0.2
		l-0.4,0.1l-0.4,0.1l-0.3-0.3l-0.1-0.4l-0.3,0.2l-0.3,0.2l-0.2-0.3h-0.3l-0.3,0.3l-0.3-0.3l-0.2-0.3l-0.4-0.2h-0.4l-0.1,0.4v0.4
		l-0.3,0.3l-0.3,0.1l-0.3-0.5l-0.3-0.3l-0.1,0.3l-0.3,0.3H406l-0.2-0.3l-0.1-0.4l-0.3-0.3l-0.2-0.3l-0.1-0.4l0.1-0.3l0.4-0.1
		l0.3,0.2l0.3,0.3l0.1-0.3l-0.1-0.4l-0.1-0.3l-0.1-0.4l0.1-0.4l0.1-0.4l0.1-0.3l0.1-0.4l-0.1-0.3l-0.3-0.3l-0.3-0.3l-0.2-0.3
		l0.1-0.4l0.1-0.3l0.4-0.2l0.3-0.1v-0.4l0.2-0.3l0.2-0.3l0.1-0.4l-0.1-0.3l-0.1-0.4l-0.3-0.1l-0.4-0.1l-0.4-0.1l-0.3-0.2l-0.3-0.1
		l-0.4-0.1l-0.3-0.1l-0.3-0.3l-0.2-0.3l-0.2-0.3l-0.3-0.3l-0.3-0.1l-0.3-0.3l-0.3-0.2l-0.3-0.3v-0.4l0.3-0.1l0.3,0.3l0.4-0.1
		l0.3-0.1l0.3,0.3l0.3,0.1l0.4,0.1l0.3-0.1l0.3-0.3V288l-0.1-0.4l-0.1-0.3l-0.1-0.3l-0.1-0.4l-0.1-0.4l0.4-0.1l0.3-0.1l0.3-0.2
		l0.3-0.2l0.2-0.3l0.1-0.4l0.1-0.3l0.1-0.4l0.1-0.3l0.3-0.3l0.3,0.1l0.3-0.3l-0.1-0.3l-0.1-0.4l0.2-0.3l0.3-0.1l0.3-0.1l0.4-0.1
		l0.3-0.1h0.4l0.4,0.1l0.3,0.2l0.3,0.2l0.3,0.3l0.3,0.1l0.4-0.1l-0.1-0.3l-0.2-0.3l-0.1-0.4l0.1-0.4l0.1-0.3l0.1-0.3l0.2-0.4
		l0.1-0.3l0.2-0.3l0.1-0.3l0.1-0.3l0.1-0.4l-0.3-0.2l-0.2-0.3l-0.3-0.3l-0.1-0.3l0.1-0.4l0.1-0.4l0.3-0.3l-0.1-0.4l-0.3-0.2
		l-0.3,0.1l-0.4,0.1l-0.3-0.2l-0.3-0.3l-0.3-0.3v-0.4l-0.1-0.3l-0.2-0.3l-0.1-0.4l-0.3-0.3l-0.3-0.3l-0.3-0.3l0.1-0.4h0.3l0.3,0.3
		l0.1,0.3l0.1,0.3l0.3,0.3l0.3,0.3l0.2-0.1l0.1-0.3l0.1-0.4l0.3-0.1l0.3,0.2h0.4l0.4-0.1l0.1-0.4v-0.4v-0.4l0.1-0.4v-0.4v-0.5
		l0.1-0.3l0.1-0.4v-0.4v-0.4l-0.1-0.4l-0.2-0.3l-0.1-0.3l-0.2-0.3l-0.2-0.3l-0.2-0.3l-0.1-0.4l0.1-0.3l0.3-0.3l0.3,0.1l0.1,0.4
		l0.3,0.2l0.4-0.1l0.3,0.1l0.1,0.3l0.1,0.4l0.3,0.2l0.3-0.2l0.1-0.4l0.3-0.1h0.4l0.3,0.2l0.3,0.2l0.2,0.3l0.1,0.4h0.3l0.2-0.3
		l0.1-0.4l0.1-0.4v-0.4l0.1-0.4l0.3-0.1l0.4-0.1l0.4,0.1l0.3,0.2l0.3,0.3l0.3,0.3l0.3,0.3l0.3,0.1h0.4l0.3,0.3l0.3,0.2l0.3-0.1
		l0.2-0.3v-0.4v-0.4l0.1-0.4l0.3-0.1l0.3,0.1l0.3,0.3l0.3,0.3l0.2,0.3l0.3,0.3l0.3,0.2l0.4,0.1h0.4l0.4,0.1l0.4,0.1l0.3,0.1l0.2-0.3
		l0.1-0.4l0.4-0.1l0.3,0.2l0.3,0.1l0.4,0.1l0.3,0.1h0.4l0.4-0.1l0.3-0.1l0.4-0.1l0.4-0.1l0.3-0.1h0.4l0.4,0.1l0.3,0.1l0.3,0.3
		l0.3,0.3l0.3,0.3l0.3,0.2l0.3,0.3h0.5l0.3,0.1l0.3,0.3h0.2l-0.1,0.7v0.4v0.4l-0.1,0.4v0.4v0.3l0.2,0.4l0.1,0.3l0.1,0.4l0.1,0.4
		l0.1,0.4v0.4l0.1,0.3l0.1,0.4v0.4v0.4l0.1,0.4l0.1,0.4l0.3,0.1l0.3-0.3l0.3-0.3l0.3-0.1l0.2,0.3l0.1,0.3l0.3,0.2l0.4,0.1l0.3,0.1
		l0.4-0.1l0.4,0.1l0.3,0.1l0.3,0.1l0.4-0.1l0.3-0.2l0.4-0.1h0.4l0.3,0.3l0.3,0.3l0.3,0.2l0.3,0.2l0.3,0.2l0.3,0.3l0.1,0.4l-0.1,0.3
		l0.1,0.3v0.4l0.3,0.2h0.4l0.4-0.1h0.4l0.4-0.1l0.3,0.1l0.3,0.1l0.3,0.3l0.3,0.2h0.4l0.3-0.1l0.4-0.1h0.4l0.3,0.3l0.3,0.3l0.3,0.2
		l0.3,0.3l0.3,0.1l0.4,0.1l0.3,0.1l0.4,0.1l0.4,0.1l0.3,0.1l0.3,0.1l0.3,0.2l0.4,0.1h0.4l0.4,0.1h0.4l0.4,0.1l0.3,0.2l0.3,0.2
		l0.3,0.2l0.3,0.3l0.3,0.3l0.3,0.3l0.1,0.3l0.1,0.4v0.3l0.1,0.4v0.4v0.4v0.5l0.1,0.3l0.3,0.3l0.4-0.1l0.3-0.2l0.3-0.2l0.3-0.2
		l0.3-0.3l0.3-0.3l0.3,0.3l0.1,0.3l0.1,0.4v0.4l-0.3,0.3l-0.1,0.3v0.4l0.1,0.3l0.4,0.1l0.1,0.3l0.3,0.3l0.4,0.1l0.3,0.2l0.3-0.2
		l0.3-0.3l0.3,0.1l-0.1,0.3l-0.1,0.3l0.1,0.4l0.3-0.1l0.3-0.3l0.3,0.3l0.3-0.2l0.3,0.3l0.1,0.4l0.2,0.3l0.3,0.1l0.3-0.2l0.2-0.3
		l0.2-0.3l0.2-0.3l0.2-0.3l0.2-0.3l0.1-0.3l0.2-0.3l0.3-0.3l0.4-0.1v0.4l-0.1,0.3l-0.2,0.3l-0.1,0.4v0.4l0.1,0.3l0.2,0.3l0.4-0.1
		l0.3,0.1l0.2,0.3l0.3,0.3h0.3l0.3-0.2l0.3,0.3l0.3,0.2l0.3-0.3l0.3-0.2l0.3,0.3l0.4,0.1h0.3l0.3,0.2l0.2,0.3l0.1,0.4v0.4l0.3,0.3
		l0.3,0.1l0.2,0.3l0.1,0.4l0.1,0.3l0.3,0.3l0.3,0.3l0.1,0.3v0.4l0.1,0.4l0.2,0.3l0.4,0.1l0.3-0.1l0.4-0.2l0.3-0.1l0.4-0.1l0.3-0.3
		l0.2-0.3l0.2-0.3h0.4l0.3,0.2l0.2,0.3v0.4l0.4,0.1l0.3,0.1l0.4,0.1l0.3,0.3l0.3,0.3l0.4,0.1l0.3-0.1l0.4-0.1l0.1,0.3l0.1,0.3
		l0.2,0.3l0.2,0.3l0.3,0.3l0.3,0.3l0.3,0.1l0.4,0.1l0.3,0.1l0.3,0.3l0.3,0.3l0.1,0.1l-0.1,0.4l-0.1,0.3l-0.1,0.3l-0.1,0.3l-0.1,0.4
		l-0.1,0.3l-0.1,0.4l-0.1,0.3l-0.1,0.4l-0.3,0.3l-0.4-0.1l-0.2,0.3l-0.1,0.4v0.4l0.1,0.4l0.1,0.3l0.1,0.4l0.1,0.3l0.2,0.3l0.3,0.3
		l0.1,0.3l0.1,0.4l0.1,0.3l0.3,0.3l0.3,0.3l0.1,0.3l-0.1,0.4l-0.1,0.4v0.4l-0.1,0.4l-0.3,0.3l-0.2,0.3l-0.1,0.4l-0.1,0.3l-0.1,0.4
		v0.4v0.4v0.4l-0.1,0.4l-0.1,0.4l-0.1,0.3l-0.3,0.1l-0.3,0.1l-0.1,0.4l-0.1,0.4v0.4l-0.1,0.3l-0.3,0.3l-0.3,0.1l-0.4,0.1h-0.4h-0.4
		H474l-0.4,0.1l-0.3,0.3l-0.3,0.3l-0.2,0.3l-0.3,0.3l-0.3,0.2l-0.3,0.3l-0.3,0.2l-0.3,0.3l-0.3,0.3l0.1,0.4l0.3,0.5l0.1,0.4l0.1,0.3
		l0.1,0.4l-0.1,0.4l-0.1,0.4v0.4v0.4l-0.1,0.4v0.4l0.2,0.3l0.2,0.3l0.2,0.3l-0.2,0.3l-0.3,0.3l-0.2,0.3l0.1,0.4l0.2,0.3l0.2,0.3v0.4
		l-0.1,0.3l-0.1,0.4l-0.1,0.3v0.4l0.1,0.4l0.1,0.3l0.3,0.3l0.1,0.4l0.1,0.3v0.5l0.3,0.2l0.3,0.3l0.3,0.3l0.3,0.2l0.3,0.2l0.3,0.1
		l0.3,0.3l0.2,0.3l-0.1,0.5l-0.1,0.4l-0.1,0.4l-0.1,0.3l-0.1,0.4l-0.1,0.3v0.5l0.1,0.3l0.1,0.3l0.1,0.4v0.4l-0.1,0.4l0.2,0.3
		l0.1,0.3l0.1,0.4l-0.1,0.4l-0.3,0.3l-0.1,0.3l-0.1,0.4v0.4v0.4l-0.1,0.4l-0.1,0.3l-0.2,0.3l-0.2,0.3l-0.3,0.3l-0.3,0.2l-0.4,0.1
		h-0.4l-0.3,0.1l-0.4,0.1l-0.3,0.3l-0.3,0.3l-0.3,0.1H470h-0.4h-0.4h-0.4l-0.4-0.1H468h-0.4l-0.3-0.1l-0.4-0.1l-0.4,0.1h-0.4
		l-0.3-0.3l-0.3-0.3l-0.3-0.2l-0.4,0.1h-0.4l-0.1,0.3l-0.3,0.3l-0.3,0.2l-0.3,0.1l-0.4,0.1l-0.4,0.1l-0.3,0.1l-0.3,0.1l-0.4-0.1
		l-0.1-0.3v-0.4l-0.2-0.3l-0.3-0.2l-0.4-0.1l-0.3-0.1l-0.3-0.1l-0.4-0.1H459l-0.3,0.2l-0.3,0.3l-0.4,0.3h-0.4l-0.4-0.1l-0.4-0.1
		l-0.3,0.2l-0.3,0.3l-0.3,0.2h-0.4l-0.4,0.1l-0.3,0.1l-0.3,0.2l-0.3,0.2l-0.4,0.1l-0.3,0.1l-0.4-0.1l-0.4-0.2h-0.3l-0.3,0.2
		l-0.3-0.2l-0.4-0.1l-0.3-0.1l-0.4-0.1l-0.4,0.1l-0.3-0.1l-0.3-0.1l-0.3-0.3l-0.3-0.2l-0.3-0.1l-0.3-0.2l-0.4-0.1l-0.3-0.1l-0.3-0.3
		l-0.3-0.3l-0.3-0.3l-0.3-0.3l-0.5-0.2l-0.3,0.1l-0.4,0.1l-0.3,0.3v0.3l0.1,0.4l-0.1,0.3l-0.3,0.3l-0.1,0.4l-0.2,0.3l-0.4,0.1
		l-0.3-0.1l-0.3-0.2l-0.3,0.1l-0.3,0.3v0.4l0.3,0.3l0.3,0.3l0.3,0.3l0.3,0.3l0.1,0.4l0.2,0.3l0.1,0.3l0.1,0.4l0.1,0.4l0.1,0.3
		l0.1,0.4l0.1,0.3l0.1,0.4l0.1,0.4l-0.1,0.4l0.3,0.3l0.3,0.3l0.3,0.3l0.3,0.3l0.2,0.3l0.2,0.3l0.3,0.3l0.3,0.2l0.3,0.3l0.3,0.3
		l0.2,0.3l0.3,0.3l0.3,0.3l0.4,0.5l-0.2,0.3l-0.3,0.3l-0.3,0.3l-0.3,0.3l-0.3,0.3h-0.4h-0.4l-0.4-0.1h-0.4l-0.3,0.1l-0.3,0.1
		l-0.4,0.1h-0.4l-0.3,0.1l-0.4,0.1l-0.3,0.1l-0.4,0.1l-0.3,0.1l-0.3,0.2l-0.3,0.2l-0.3,0.1l-0.1-0.3l0.1-0.3l0.2-0.3l-0.1-0.4
		l-0.3-0.2h-0.4l-0.3,0.1l-0.4,0.1l-0.3-0.2l-0.3-0.3l-0.3,0.1l-0.1,0.4l-0.2,0.3l-0.3,0.1l-0.3,0.2l-0.1,0.4l0.1,0.3l0.2,0.3
		l-0.3,0.3l-0.3-0.1l-0.3-0.2l-0.4-0.1l-0.3-0.1h-0.4l-0.4,0.1l-0.3,0.1L435,356l-0.3-0.2l-0.3-0.2l-0.3-0.3l-0.4-0.1l-0.4,0.1
		l-0.3,0.1l-0.3,0.3l-0.2,0.1l-0.3-0.1l-0.3-0.1l-0.3-0.2l-0.3-0.2l-0.3-0.2l-0.3-0.1H430l-0.2,0.3l-0.2,0.3l-0.1,0.3l-0.1,0.4
		l-0.3,0.3l-0.3,0.2l-0.4,0.1l-0.4,0.1l-0.3,0.1h-0.4l-0.4,0.1l-0.4-0.1l-0.3-0.3l-0.1-0.3l-0.1-0.4l-0.1-0.4l-0.3-0.3l-0.3-0.2
		l-0.4-0.1l-0.3-0.3l-0.4-0.1l-0.5-0.3l-0.3-0.3l-0.3-0.3l-0.1-0.4l0.1-0.4l0.1-0.4l-0.1-0.3l-0.3-0.3l-0.3-0.2l-0.3-0.3L422,351
		l-0.3-0.2l-0.4-0.1l-0.3-0.1l-0.3-0.3l-0.2-0.3l-0.2-0.3l-0.3-0.2h-0.4l-0.4-0.1l-0.2-0.3l-0.3-0.3l-0.3-0.2l-0.4-0.1l-0.4-0.1
		l-0.3-0.1l-0.4-0.2l-0.3,0.1l-0.4,0.1l-0.4,0.1l-0.3,0.1l-0.4,0.1l-0.3,0.1l-0.4-0.1l-0.3-0.1l-0.4-0.1l-0.3-0.1l-0.4-0.1l-0.4-0.1
		h-0.4l-0.4-0.1l-0.3,0.1l-0.4,0.1l-0.3,0.2l-0.3,0.2l-0.3,0.1l-0.4,0.1l-0.4,0.1h-0.4l-0.4,0.1h-0.4l-0.3-0.1l-0.4-0.1l-0.3-0.2
		l-0.3-0.2l-0.3-0.1l-0.4,0.1l-0.3,0.3l-0.2,0.3l-0.1,0.3l-0.1,0.4l-0.1,0.3l-0.3,0.3l-0.3,0.3l-0.3,0.2l-0.3,0.1l-0.1,0.4l-0.1,0.4
		l-0.1,0.3l-0.1,0.4v0.4l0.1,0.4l0.1,0.4l0.1,0.3l0.1,0.4l0.1,0.4l0.2,0.3l0.1,0.4v0.4l0.2,0.3l0.3,0.3l0.3,0.3l0.2,0.3l0.3,0.3
		l0.1,0.3l0.2,0.3l0.1,0.4l0.1,0.3v0.5l-0.1,0.3l-0.3,0.3L405,360l-0.3,0.3l-0.1,0.3l0.1,0.4l0.3,0.5l-0.3,0.3l-0.4,0.1l-0.4-0.1
		l-0.4,0.1l-0.2,0.1l-0.1,0.4l-0.2,0.3l-0.3,0.3l-0.3,0.2l-0.3,0.3l-0.3,0.2l-0.3,0.3l-0.1,0.3l0.1,0.5l0.3,0.3l0.3,0.2l-0.1,0.4
		l-0.3,0.2l-0.4,0.1l-0.4-0.1l-0.4-0.1l-0.3,0.1l-0.3,0.3l-0.3,0.2l-0.4,0.1l-0.3,0.2l-0.3,0.1l-0.3,0.2l-0.3,0.3l-0.3,0.3l-0.3,0.3
		l-0.2,0.3l-0.1,0.4l0.2,0.3l0.2,0.6l0.3,0.3l0.2,0.3l0.3,0.3l0.3,0.2l0.3,0.1l0.4,0.1l0.4-0.1l0.3-0.1l0.3-0.1l0.3-0.2l0.4-0.1h0.4
		l0.4,0.1l0.3,0.1l0.3,0.2l0.3,0.3l0.2,0.3l0.3,0.3l0.3,0.3l0.3,0.2l0.4,0.1l0.4,0.1l0.3,0.2l0.3,0.2l0.2,0.3l0.3,0.3l0.2,0.3
		l0.3,0.3l0.3,0.3l0.1,0.3l0.1,0.4v0.4l0.1,0.3l0.2,0.4l0.3,0.3l0.3,0.3l0.3,0.2l0.3,0.2l0.4,0.1h0.4l0.3,0.1l0.3,0.3v0.3l-0.3,0.3
		l-0.3,0.2l-0.1,0.3l0.1,0.4l0.1,0.3v0.4l0.1,0.4v0.3v0.4l-0.3,0.1l-0.3,0.3l-0.3,0.3l-0.3,0.3l-0.3,0.1l-0.4,0.1l-0.4-0.1l-0.4-0.1
		l-0.3-0.1l-0.3-0.1l-0.4-0.1l-0.1-0.3l-0.3-0.2l-0.3-0.3l-0.3-0.3l-0.3-0.1l-0.4-0.1l-0.3-0.1l-0.3,0.3l-0.2,0.4l-0.2,0.3l-0.2,0.3
		l-0.1,0.4v0.3h0.4l0.3-0.2l0.3-0.1h0.4l0.3,0.3l0.2,0.3l0.1,0.4v0.4l-0.1,0.4l-0.1,0.4l0.1,0.4l0.1,0.3l0.2,0.3l0.3,0.3l0.3,0.3
		l0.1,0.3l-0.3,0.3l-0.2,0.3l-0.3,0.3l-0.3,0.3l-0.3,0.2l-0.3,0.1l-0.3-0.1l-0.4-0.1h-0.4l-0.3,0.3l-0.1,0.3l0.1,0.4l0.1,0.4
		l0.1,0.3l-0.2,0.3l-0.3,0.3l-0.3,0.3l-0.3,0.3l-0.1,0.4l-0.1,0.3v0.4v0.4l-0.1,0.4l-0.1,0.4l-0.1,0.4l-0.1,0.3l-0.2,0.3l-0.2,0.3
		l-0.2,0.3l-0.2,0.3l-0.1,0.3l-0.3,0.3l-0.2,0.3l-0.2,0.3l0.1,0.4v0.4l0.2,0.3l0.2,0.3l0.4,0.1h0.6l0.4,0.1l0.3,0.3v0.4v0.4
		l-0.1,0.3l-0.2,0.3l-0.2,0.3l-0.1,0.3l-0.1,0.4l0.1,0.4l0.2,0.3l0.1,0.3v0.4l0.1,0.4l0.1,0.4v0.4v0.3l0.1,0.4l0.3,0.3l0.3,0.3
		l0.3,0.2l0.3,0.2l0.3,0.3l0.3,0.3l0.3,0.3l0.3,0.3l0.2,0.3l0.1,0.4l0.1,0.4l0.1,0.3v0.4l0.1,0.4l-0.1,0.4l0.1,0.5l-0.3,0.2
		l-0.4,0.1l-0.3,0.3v0.4l0.2,0.3v0.3l-0.1,0.4l-0.3,0.3l-0.2,0.3l-0.3,0.2l-0.4,0.1l-0.3-0.1l-0.3-0.3l-0.1-0.3l-0.3-0.2l-0.3,0.1
		l-0.3,0.1l-0.3-0.3l-0.2-0.3l-0.1-0.3l-0.1-0.4v-0.4l-0.1-0.4v-0.4l-0.1-0.3l-0.1-0.4l-0.2-0.3l-0.4-0.1l-0.3-0.1l-0.4-0.1
		l-0.4-0.1l-0.3,0.1l-0.3,0.3l-0.2,0.3l-0.3,0.3l-0.4,0.1l-0.3,0.1l-0.3-0.1l-0.3-0.2l-0.3-0.2l-0.3-0.1h-0.4l-0.3,0.1l-0.4,0.1
		l-0.3,0.3l-0.3,0.2l-0.3,0.2l-0.3,0.3l-0.3,0.1l-0.3,0.3l-0.4,0.1l-0.3,0.1h-0.4h-0.3l-0.4-0.1l-0.4-0.1l-0.2-0.3v-0.4l-0.3-0.1
		l-0.3,0.1l-0.4,0.1l-0.2-0.3l0.2-0.3l0.1-0.3v-0.4l-0.3-0.3l-0.4-0.1l-0.4-0.1h-0.4l-0.4-0.1l-0.3,0.2l-0.2,0.3l-0.3,0.1l-0.4-0.1
		l-0.3-0.2l-0.3-0.2l-0.3-0.1l-0.3-0.1l-0.5-0.1l-0.4-0.1l-0.1,0.4l-0.1,0.3l-0.3,0.3l-0.2,0.3l-0.3,0.3l-0.3,0.1l-0.4,0.1l-0.3,0.3
		l-0.1,0.3l-0.2,0.3l-0.4,0.3l-0.2,0.3l-0.3,0.3l-0.3,0.3l-0.3,0.3l-0.3,0.3l-0.1,0.3l-0.1,0.4l-0.3,0.3l-0.2,0.3l0.1,0.3l0.1,0.3
		l0.1,0.4l-0.1,0.5l-0.1,0.3v0.4l-0.1,0.4l-0.3,0.3h-0.4h-0.4l-0.3-0.1l-0.4-0.1l-0.4-0.1l-0.4-0.1l-0.4-0.1l-0.3-0.1l-0.4,0.1
		l-0.3,0.2v0.4l0.1,0.3l0.2,0.3l0.2,0.3l0.1,0.3l0.3,0.2l0.2,0.3l0.1,0.4l-0.2,0.3l-0.1,0.3l0.1,0.4l0.3,0.3l0.4,0.1l0.3,0.1
		l0.3,0.3l0.3,0.3l0.3,0.3l0.3,0.3l0.3,0.1l0.3,0.1l0.3,0.3l0.3,0.3l0.4,0.1h0.4h0.4h0.4h0.4l0.4,0.1l0.1,0.3l0.3,0.3l0.4,0.1
		l0.3,0.1l0.3,0.3l0.1,0.3l0.1,0.4l-0.1,0.4v0.4v0.4v0.4l-0.4,0.1l-0.3-0.2l-0.1-0.4l-0.1-0.3l-0.1-0.3l-0.1-0.4l-0.3-0.2l-0.3,0.3
		l-0.1,0.3l-0.2,0.3l-0.3,0.3l-0.2,0.3l-0.1,0.4l0.3,0.2l0.3-0.3h0.3v0.4l-0.3,0.3l-0.1,0.3l0.1,0.4l0.1,0.3l-0.1,0.3v0.4l0.2,0.3
		l-0.2,0.4l-0.2,0.3l-0.1,0.4l0.2,0.3l0.1,0.4l0.1,0.3l0.1,0.4l-0.1,0.3l-0.3,0.3l-0.3,0.2l-0.3,0.3l-0.2,0.3l-0.2,0.3l-0.3,0.3
		l-0.3,0.3l-0.3,0.3l-0.3,0.1l-0.3-0.3l-0.3-0.2h-0.4h-0.4l-0.3,0.2l-0.3,0.1l-0.4,0.2l-0.3,0.2l-0.3,0.3l-0.3,0.2l-0.3,0.2
		l-0.3,0.3l-0.3,0.3l-0.3-0.2l-0.3-0.1l-0.4,0.1h-0.4l-0.4,0.1l-0.3,0.1l-0.4,0.1l-0.3,0.1l-0.4,0.1h-0.4l-0.3,0.3l-0.4,0.1
		l-0.4-0.1l-0.3-0.3l-0.3-0.2l-0.3-0.3l-0.3-0.1l-0.4-0.1l-0.3-0.1l-0.3-0.3h-0.4l-0.4,0.2l-0.3-0.3l-0.3-0.2l-0.3-0.2l-0.3-0.2
		l-0.4-0.1h-0.4l-0.3,0.2l-0.3,0.2l-0.3,0.3l-0.1,0.4l-0.1,0.3l-0.3,0.2l-0.3,0.1l-0.1,0.4v0.3l0.1,0.4l0.1,0.5l0.2,0.3l0.3,0.3
		l0.2,0.3l0.1,0.4l0.1,0.3l0.1,0.3l0.3,0.3l0.3,0.2l0.3,0.2l0.3,0.3l0.1,0.4l-0.1,0.3l-0.2,0.3l-0.3,0.2l-0.3,0.1l-0.4,0.1l-0.3,0.1
		l-0.3,0.1l-0.4,0.2l-0.3,0.2l-0.3,0.2l-0.3,0.3l-0.3,0.2l-0.3,0.2l-0.3,0.2l-0.3,0.3l-0.3,0.3l-0.3,0.3l-0.4,0.1h-0.3l-0.4,0.1
		l-0.4,0.1l-0.3,0.1l-0.3-0.2l-0.3-0.3l-0.3-0.2l-0.4,0.1l-0.3,0.3l-0.2,0.3l-0.2,0.3l-0.2,0.3l-0.2,0.3l-0.2,0.1l-0.3,0.3l-0.3,0.1
		h-0.4l-0.3,0.1l-0.4,0.1h-0.4h-0.4l-0.3-0.1l-0.2-0.3l-0.1-0.4l-0.1-0.4l-0.3-0.3l-0.3-0.2l-0.3-0.1l-0.4-0.1l-0.4-0.1h-0.4
		l-0.3,0.1l-0.3,0.2l-0.3,0.2l-0.4,0.1l-0.3,0.1l-0.4,0.1l-0.3,0.1l-0.3,0.2l-0.4,0.1L346,445l-0.4,0.1l-0.3,0.1h-0.4l-0.3-0.2
		l-0.2-0.3l-0.1-0.4l-0.1-0.3l-0.2-0.3l-0.2-0.3l-0.3-0.3l-0.3-0.2h-0.4l-0.3,0.1L342,443l-0.3,0.3l-0.3,0.1l-0.3,0.1l-0.4-0.2
		l-0.3-0.1H340l-0.4,0.1h-0.3l-0.1-0.4l-0.1-0.3l-0.1-0.3l-0.4-0.2l-0.3,0.1l-0.3,0.2h-0.4l-0.3-0.1l-0.4-0.1h-0.4l-0.3-0.3
		l-0.3-0.3l-0.3-0.1l-0.3-0.3l-0.2-0.3l-0.1-0.3l-0.1-0.4l-0.2-0.3l-0.3-0.3l-0.4-0.1l-0.3,0.1l-0.4,0.1h-0.3l-0.3-0.2l-0.1-0.3
		l-0.1-0.4l-0.2-0.3l-0.3-0.2l-0.4-0.1h-0.4l-0.4,0.1h-0.3l-0.3-0.3l-0.2-0.3l-0.3-0.3l-0.3-0.3l-0.3-0.3l-0.3-0.3l-0.3-0.1
		l-0.3-0.2l-0.2-0.3l-0.3-0.3l-0.3-0.3l-0.3-0.1l-0.4-0.1l-0.4-0.1l-0.3-0.1l-0.4-0.1l-0.1-0.3v-0.4v-0.4l-0.1-0.4l-0.1-0.3
		l-0.3-0.3l0.1-0.5l0.1-0.3l0.1-0.4l0.1-0.3l0.3-0.3l0.3-0.1h0.5l0.4,0.1l0.3,0.1l0.4-0.1l0.3-0.1l0.3-0.2l0.3-0.3l0.1-0.4l0.1-0.4
		l0.1-0.3l0.2-0.3l0.3-0.2l0.3-0.1l0.3-0.3l0.1-0.3l-0.2-0.3l-0.3-0.1l-0.3-0.1l-0.4-0.1h-0.4h-0.4l-0.4,0.1l-0.3-0.1l-0.1-0.3
		l0.1-0.3l0.4-0.2l0.2-0.3l0.1-0.3l0.2-0.3l0.2-0.3l0.2-0.3l0.1-0.4v-0.4l-0.1-0.4l-0.2-0.3l-0.1-0.3l-0.1-0.4l-0.1-0.4l-0.1-0.3
		l-0.1-0.4l0.1-0.4l-0.1-0.4l-0.1-0.3l-0.1-0.4l-0.1-0.3v-0.4l-0.1-0.4l-0.1-0.4l-0.1-0.4l-0.1-0.3l-0.1-0.3l-0.1-0.4l0.1-0.4
		l0.3-0.3l0.4-0.1l0.3,0.1l0.3,0.2l0.3,0.1l0.4,0.1l0.3,0.1l0.3,0.2l0.3,0.2l0.3-0.1l0.3-0.3l0.2-0.3l0.1-0.4l-0.1-0.3l-0.3-0.3
		l-0.3-0.2l-0.3-0.1l-0.4-0.2l-0.3-0.1l-0.4-0.1h-0.4l-0.4,0.1h-0.4l-0.4,0.1l-0.4-0.1l-0.3-0.1l-0.2-0.3l-0.1-0.4l-0.1-0.3
		l-0.2-0.3l-0.2-0.3l-0.2-0.3l-0.2-0.3l-0.3-0.3l-0.3-0.2l-0.3-0.2l-0.1-0.3l0.1-0.3l-0.1-0.4l-0.3-0.3l-0.3-0.3l-0.3-0.2l-0.1-0.4
		l-0.1-0.3l-0.1-0.4l-0.1-0.4l-0.1-0.3v-0.4l-0.2-0.1l-0.3-0.2l-0.1-0.3l0.1-0.4l0.1-0.4l0.2-0.3l0.2-0.3l0.1-0.3l0.1-0.4l0.1-0.4
		v-0.4l-0.2-0.3l-0.3-0.3l-0.3-0.3l-0.3-0.3l-0.2-0.3l-0.2-0.3l-0.3-0.3l-0.3-0.3l-0.3-0.2l-0.3-0.2l-0.3-0.3l-0.3-0.2l-0.3-0.2
		l-0.3-0.1l-0.4,0.1l-0.4,0.1l-0.4,0.1h-0.4l-0.1,0.3h-0.4h-0.4h-0.4h-0.4l-0.4-0.1l-0.3-0.1l-0.4-0.1l-0.3-0.1l-0.4-0.1h-0.5
		l-0.4-0.1l-0.4-0.1l-0.4,0.1l-0.3,0.1l-0.4,0.1l-0.4,0.1l-0.3,0.1l-0.3,0.1l-0.4,0.1h-0.4h-0.4l-0.3-0.1l-0.3-0.2l-0.3-0.2
		l-0.3-0.3l-0.3-0.3h-0.4l-0.3,0.1l-0.4,0.1l-0.4,0.1l-0.3-0.1l-0.3-0.3l-0.3-0.3l-0.3-0.3l-0.3-0.2l-0.3-0.1l-0.4-0.1l-0.4,0.1
		l-0.4,0.1l-0.3,0.2l-0.3,0.3l-0.3,0.3l-0.3,0.3l-0.4,0.1l-0.3,0.1l-0.3-0.3l-0.3-0.3l-0.1-0.3l-0.1-0.3v-0.4l-0.1-0.4l0.1-0.4
		l0.1-0.3l0.2-0.3l0.4-0.1l0.3-0.3l0.2-0.3l0.1-0.4v-0.4l-0.1-0.4l-0.2-0.3l-0.3-0.3l-0.4-0.1l-0.4,0.1l-0.3,0.1l-0.4,0.1l-0.3,0.3
		l-0.2,0.3l-0.2,0.3l-0.2,0.3l-0.1,0.3l-0.1,0.4l-0.3,0.1l-0.4,0.1l-0.3-0.1l-0.4-0.1l-0.4-0.1h-0.4l-0.4,0.1l-0.4-0.1l-0.4-0.1
		l-0.3-0.2l-0.3-0.2l-0.3-0.2l-0.3-0.2l-0.4-0.2l-0.3-0.1l-0.3-0.1l-0.4-0.1l-0.3-0.1l-0.3-0.3l-0.3-0.2l-0.3-0.2l-0.4-0.1l-0.3-0.1
		l-0.3-0.1l-0.4-0.1l-0.3-0.3l-0.1-0.4l0.1-0.5l0.1-0.3l0.1-0.3l0.1-0.4l0.3-0.3l0.1-0.4l0.1-0.3l0.1-0.4v-0.4v-0.4l-0.2-0.3
		l-0.3-0.3l-0.3-0.1l-0.3-0.1l-0.3-0.3l-0.1-0.4v-0.4l0.1-0.4l0.2-0.3l0.3-0.3l0.3-0.2l0.2-0.3l0.1-0.4v-0.4V384l-0.1-0.4l-0.3-0.3
		l-0.3-0.3l-0.1-0.4l0.3-0.3l0.3-0.2l0.4-0.1l0.3-0.2l0.3-0.2l-0.1-0.4l-0.2-0.3l-0.3-0.3l-0.3-0.1l-0.3-0.3l-0.1-0.4l-0.1-0.3
		l-0.1-0.4v-0.4l-0.1-0.4l-0.3-0.3l-0.3-0.1l-0.4-0.2l-0.3-0.1l-0.3-0.1l-0.4-0.1h-0.4l-0.4-0.1l-0.4-0.1l-0.3-0.1l-0.3-0.2
		l-0.3-0.3l-0.1-0.4l-0.1-0.3v-0.5l0.1-0.3l0.1-0.4l-0.1-0.3l-0.3-0.2l-0.3-0.2v-0.4v-0.4l-0.1-0.3l-0.3-0.3l-0.3-0.3h-0.2l-0.4-0.1
		l-0.4-0.1l-0.4-0.1l-0.4-0.1l-0.3,0.1l-0.3,0.2l-0.1,0.4l-0.1,0.4l-0.3,0.3h-0.4l-0.4-0.1l-0.3-0.1l-0.4-0.1l-0.4-0.1l-0.4-0.1
		l-0.3,0.2l-0.3,0.1l-0.3,0.2l-0.3,0.2l-0.2,0.3l-0.1,0.4l-0.2,0.3l-0.3,0.3l-0.3,0.3l-0.3,0.2l-0.3,0.2l-0.2,0.3l-0.3,0.2l-0.3,0.2
		h-0.4l-0.3,0.1l-0.1,0.3l-0.3,0.3l-0.3,0.1h-0.4l-0.4,0.1l-0.1,0.5l0.2,0.3l0.3,0.3l0.3,0.2l0.3,0.3l0.2,0.3l0.3,0.2l0.2,0.3
		l0.1,0.4l-0.2,0.3l-0.3,0.1l-0.4-0.1l-0.3-0.1l-0.4-0.1h-0.4l-0.3,0.3l-0.3-0.2l-0.3-0.1l-0.4-0.1h-0.4l-0.4,0.1l-0.4-0.1h-0.4
		l-0.4,0.1l-0.3,0.2l-0.4,0.1l-0.4-0.1l-0.3-0.1l-0.3-0.2l-0.4-0.1l-0.3,0.1l-0.1,0.3l-0.2,0.4l-0.1,0.4l-0.2,0.4l-0.1,0.3l-0.1,0.4
		l-0.2,0.4l-0.1,0.4l-0.2,0.3l-0.1,0.3l-0.3,0.1h-0.4l-0.4-0.1h-0.4l-0.3-0.1l-0.3-0.2l-0.3-0.1l-0.4,0.1l-0.3,0.1l-0.5-0.3
		l-0.3,0.2l-0.3,0.2l-0.3,0.2l-0.3,0.3l-0.3,0.3l-0.4,0.1h-0.4h-0.4l-0.3,0.2l-0.1,0.4l-0.1,0.4l0.1,0.3l0.2,0.3l0.2,0.3l0.2,0.3
		l0.2,0.3l0.2,0.3l0.3,0.3l0.2,0.3l0.1,0.3l0.1,0.4l0.1,0.3l0.1,0.4l-0.1,0.4l-0.1,0.3l-0.3,0.3l-0.3,0.3l-0.1,0.4l0.3,0.2l0.3,0.1
		l0.4,0.1l0.4,0.1l0.3,0.1l0.3,0.2l0.3,0.3l0.1,0.3l-0.1,0.3l-0.3,0.3l-0.3,0.1l-0.4,0.1l-0.2,0.3l-0.1,0.4l0.1,0.3l0.3,0.2l0.4-0.1
		l0.3-0.3l0.3-0.3l0.3-0.3l0.4,0.1l0.1,0.3l-0.2,0.3l-0.3,0.3l-0.1,0.3l-0.1,0.3l-0.2,0.3l-0.1,0.4v0.4l0.1,0.3l0.1,0.3l0.1,0.4
		l0.1,0.4l0.1,0.3l0.3,0.3l0.3,0.3l0.3,0.1l0.3,0.3l0.3,0.3l0.3,0.3l0.3,0.3l0.4,0.1h0.4l0.3,0.2l0.3,0.3l0.3,0.3l0.2,0.3l-0.1,0.4
		l-0.3,0.2l-0.3,0.1l-0.1,0.3l0.1,0.4l0.1,0.4v0.3l-0.2,0.4l-0.1,0.3v0.4l-0.2,0.3l-0.3,0.3l-0.3,0.3l-0.5,0.2l-0.3,0.3l-0.1,0.3
		l-0.3,0.3l-0.4-0.1h-0.3l-0.3,0.3l-0.3,0.1l-0.4-0.1l-0.4-0.1l-0.3-0.2l-0.3-0.3l-0.3-0.3l-0.3-0.1l-0.4-0.1H258l-0.3,0.2l-0.3,0.3
		l-0.2,0.3l-0.1,0.4l-0.2,0.3l-0.1,0.3l-0.1,0.3l-0.2,0.3l-0.1,0.3L256,409l-0.3,0.2l-0.3,0.2l-0.4,0.1h-0.4l-0.4-0.1h-0.4h-0.4
		l-0.4,0.1l-0.3,0.3l-0.1,0.3l-0.3,0.3l-0.3,0.2l-0.1,0.3v0.4l-0.1,0.3l-0.2,0.3l-0.1,0.4l-0.1,0.3v0.4l-0.1,0.4l-0.2,0.3l-0.3,0.2
		l-0.3,0.1l-0.4-0.1l-0.3-0.1l-0.4-0.1l-0.3-0.1l-0.3-0.3l-0.3-0.3l-0.2-0.3l-0.3-0.3l-0.3-0.1l-0.4,0.1l-0.3,0.3l-0.1,0.4v0.4
		l-0.1,0.3l-0.1,0.4l-0.1,0.4l-0.2,0.3l-0.3,0.3l-0.2,0.3l-0.3,0.3l-0.3,0.3l-0.3,0.1l-0.3,0.3l-0.1,0.3l-0.1,0.4l-0.2,0.3l-0.3,0.1
		l-0.3-0.1l-0.4-0.1l-0.3-0.2l-0.3-0.3v-0.3l0.2-0.3l0.2-0.3l0.2-0.3l0.1-0.3l0.1-0.4l0.1-0.4v-0.4l-0.1-0.4l-0.3-0.2l-0.3-0.3
		l-0.3-0.3l-0.3-0.3l-0.1-0.3l0.1-0.4l0.3-0.3l0.3-0.3l0.3-0.3l0.1-0.4l0.2-0.3l0.3-0.3l0.3-0.3l0.3-0.2l0.2-0.3l0.3-0.3l0.2-0.3
		l0.1-0.4v-0.4l0.1-0.4l0.1-0.3l0.1-0.3l0.3-0.3l0.3-0.3l0.3-0.3l0.2-0.3l0.1-0.4l0.3-0.3l0.3-0.3l0.3-0.3l0.1-0.4l0.1-0.4l-0.1-0.4
		l-0.1-0.3l-0.2-0.3l-0.3-0.3l-0.2-0.3l0.1-0.4l0.1-0.4l0.1-0.4v-0.4V400l0.1-0.3l-0.1-0.4l-0.3-0.3l-0.3-0.3l-0.3-0.1l-0.4-0.1
		l-0.3-0.2l-0.3-0.3l-0.3-0.3l-0.2-0.3l-0.3-0.3l-0.3-0.1h-0.4l-0.1,0.3l0.1,0.4l0.1,0.4l0.1,0.4v0.3l-0.3,0.1l-0.3-0.2l-0.4-0.1
		l-0.4,0.1l-0.1,0.3l-0.1,0.4l-0.2,0.3v0.4l0.2,0.3l-0.3,0.3l-0.3,0.3l-0.3,0.3l-0.3,0.1l-0.4,0.1h-0.4l-0.4-0.1l-0.4-0.1h-0.4h-0.3
		l-0.4-0.1l-0.5-0.1l-0.3-0.1l-0.2-0.3v-0.4l-0.1-0.3v-0.4l0.1-0.4l0.1-0.4l0.3-0.3l0.1-0.4v-0.4l-0.1-0.3l-0.1-0.4l0.1-0.4
		l-0.1-0.4l-0.1-0.3l-0.3-0.3l-0.1-0.3v-0.4l-0.1-0.4l-0.3-0.1l-0.3-0.1l-0.3-0.3l-0.3-0.3l-0.3-0.3l-0.3-0.2l-0.3-0.2l-0.3-0.2
		h-0.4h-0.4l-0.4-0.1l-0.3,0.2l-0.3,0.1h-0.4l-0.4-0.1l-0.3,0.3l-0.1,0.4v0.4l-0.1,0.3l-0.4,0.1l-0.4-0.1l-0.4,0.1l-0.3-0.1
		l-0.4-0.1l-0.3-0.1l-0.4-0.1h-0.4l-0.4-0.1l-0.3-0.1l-0.3-0.2l-0.4-0.1l-0.4-0.1l-0.3-0.1l-0.3-0.1l-0.3-0.3l-0.3-0.2h-0.3
		l-0.3,0.3l-0.3,0.1l-0.3,0.3l-0.4,0.1l-0.3-0.3l-0.3-0.3l-0.1-0.4l0.2-0.3l0.2-0.3v-0.4l0.1-0.4l0.1-0.3l0.2-0.3v-0.5l0.1-0.3
		l0.1-0.4l-0.1-0.4l-0.1-0.4l-0.1-0.3l-0.3-0.3l-0.3-0.3l-0.3-0.3l-0.1-0.3l0.1-0.4l0.1-0.3l-0.2-0.3l-0.3-0.1l-0.4-0.1l-0.4-0.1
		l-0.3-0.1l-0.4-0.1l-0.3-0.2l-0.3-0.3l-0.3-0.3l-0.1-0.4l-0.3-0.1l-0.4-0.1l-0.4-0.1l-0.3-0.2l-0.3-0.3l-0.3-0.3l-0.1-0.4v-0.4
		l-0.2-0.3l-0.1-0.3l-0.1-0.3l-0.3-0.3l-0.3-0.2l-0.3-0.2v-0.4l-0.1-0.2v-0.3l-0.1-0.4l-0.1-0.3l-0.5-0.5l-0.3-0.3l-0.1-0.3
		l-0.2-0.3l-0.3-0.3l-0.3-0.2l-0.3-0.3l-0.3-0.3v-0.4v-0.4v-0.4l-0.1-0.3L213,374l-0.1-0.3l-0.2-0.3l-0.3-0.3l-0.3-0.3l-0.2-0.3
		l-0.1-0.4l-0.1-0.3l-0.1-0.4l-0.3-0.3l-0.4-0.1l-0.4-0.1l-0.2-0.3l0.1-0.4l0.1-0.3l0.2-0.3l0.2-0.3l0.3-0.3l0.3-0.3l0.1-0.3
		l0.2-0.3l0.1-0.4l0.1-0.3l0.1-0.4l0.1-0.4l0.1-0.3l0.1-0.4l0.1-0.3l0.1-0.3l0.3-0.2l0.4-0.1l0.3-0.2l0.3-0.1l0.4-0.2l0.3-0.1
		l0.2-0.3l0.2-0.4l0.2-0.3l0.3-0.1l0.4-0.1h0.4l0.3,0.1l0.4,0.1l0.2,0.3l0.3,0.2l0.3,0.2l0.3,0.2l0.3,0.2l0.3,0.1l0.3,0.2l0.3,0.3
		l0.3,0.3l0.2,0.5l0.3,0.3l0.4-0.1l0.3-0.1l0.3-0.1h0.4h0.4h0.4l0.4,0.1l0.4,0.1l0.2,0.3l0.1,0.3l0.3,0.2h0.4l0.5,0.1l0.3,0.3
		l0.3,0.3l0.3,0.3l0.3,0.1l0.4,0.1l0.3,0.2l0.3,0.3l0.3,0.3l0.4,0.1l0.4,0.1l0.4,0.1l0.3,0.3l0.2,0.3l0.3,0.2l0.4,0.1h0.4l0.4,0.1
		l0.4,0.1l0.3,0.3l0.3,0.3l0.3,0.2l0.3,0.2l0.4,0.1l0.4,0.1h0.4h0.4l0.3,0.1l0.3,0.3l0.1,0.3l0.1,0.4l0.3,0.2l0.3-0.2l0.3-0.2h0.4
		l0.3,0.1l0.3,0.3l0.2,0.3l0.3,0.3l0.3,0.3l0.3,0.1l0.4,0.1l0.3,0.1l0.3,0.3l0.3,0.3l0.2,0.3l0.1,0.4l0.1,0.3l0.3,0.2l0.3,0.1
		l0.4,0.1l0.4,0.1l0.3,0.1l0.3,0.3l0.2,0.3l0.2,0.3l0.3,0.3l0.2,0.3l0.3,0.1l0.3,0.1l0.5-0.2l0.3-0.3l0.3-0.3l0.3-0.3l0.3-0.1
		l0.4-0.2l0.2-0.3l0.2-0.3l0.2-0.3l0.2-0.3l0.3-0.3l0.4-0.1l0.3,0.3l0.3,0.3l0.3,0.2l0.3,0.2l0.3,0.3l0.3,0.2l0.3,0.1l0.4,0.1
		l0.3-0.2l0.3-0.3l0.1-0.4v-0.4l-0.1-0.4v-0.3l0.3-0.3h0.4l0.4,0.1l0.3,0.1l0.3,0.3l0.3-0.1l0.2-0.3v-0.5v-0.4l0.1-0.4l0.1-0.4
		l0.1-0.3l0.3-0.3l0.3-0.3l0.3-0.2l0.2-0.3l0.2-0.3l0.1-0.4l0.1-0.3l0.5-0.1l0.4-0.1l0.3,0.3l0.7,0.3h0.7l0.7-0.7l0.3-0.3l0.2-0.3
		l0.1-0.3l0.1-0.4l0.3-0.3l0.4,0.1l0.3,0.2l0.4,0.1h0.4l0.4-0.1l0.3-0.1l0.2-0.3l-0.1-0.3l-0.3-0.3l-0.2-0.3l-0.3-0.2l-0.3-0.2
		l-0.3-0.2l-0.2-0.4l-0.1-0.3l-0.1-0.4l-0.2-0.3l-0.3-0.3l-0.2-0.3l-0.1-0.3l-0.1-0.4v-0.4l-0.1-0.4l-0.1-0.3l-0.2-0.3l-0.4-0.2
		l-0.3-0.1l-0.3-0.3l-0.3-0.3l-0.3-0.3l-0.3-0.2l-0.3-0.2h-0.4l-0.4,0.1h-0.4l-0.4-0.1l-0.3-0.1l-0.3-0.1l-0.3-0.3l-0.3-0.3
		l-0.3-0.3l-0.2-0.3l-0.2-0.3l-0.3-0.3l-0.3-0.1l-0.3-0.3l-0.3-0.3l-0.1-0.3l-0.1-0.3l-0.2-0.4l-0.1-0.3l-0.1-0.4l0.1-0.4l0.2-0.3
		l-0.1-0.4l-0.1-0.3l-0.2-0.3h-0.4l-0.2,0.3l-0.3,0.3l-0.3,0.3l-0.3,0.3l-0.3,0.3l-0.3,0.2l-0.4,0.1l-0.3-0.1l-0.3-0.2l-0.3-0.1
		l-0.3-0.3l-0.3-0.3l-0.2-0.3l-0.2-0.3l-0.2-0.4l-0.3-0.3l-0.3-0.3l-0.3-0.3v-0.4l0.2-0.3l0.4-0.1l0.3-0.1l0.4-0.1l0.4-0.1l0.4-0.1
		h0.3l0.3-0.3l0.3-0.3l0.3-0.3l0.3-0.3l0.3-0.3h0.4l0.3,0.1l0.3,0.3l0.2,0.3l0.3,0.2l0.4,0.1l0.3-0.3l0.1-0.3l-0.1-0.4v-0.4l0.1-0.6
		l0.1-0.4l0.1-0.4l0.1-0.3l0.1-0.5l0.1-0.3l0.1-0.4l0.1-0.4V346l0.2-0.3l0.3-0.1l0.4-0.1l0.4-0.1l0.3-0.1l0.4-0.1l0.3-0.3l0.1-0.3
		l-0.1-0.4l-0.1-0.3l0.3-0.3l0.3-0.3h0.2l0.1,0.2l0.1,0.4l0.3,0.2h0.3l0.4-0.1h0.4l0.4-0.1l0.3-0.1l0.3-0.2l0.3-0.3l0.3-0.3l0.3-0.3
		l0.3-0.3l0.2-0.3l0.3-0.3l0.3-0.3h0.2l0.4-0.1l0.3-0.2l0.3-0.2l0.3-0.1l0.4-0.1l0.3-0.1l0.3-0.2l0.3-0.2l0.3-0.2h0.4h0.4l0.4,0.1
		l0.4-0.1h0.4l0.3-0.3l0.2-0.3l0.1-0.3l0.1-0.4l0.1-0.4l0.1-0.3l0.2-0.3l0.3-0.3l0.3-0.1l0.3-0.3l0.1-0.4l0.2-0.3l0.2-0.3l0.3,0.1
		l0.4,0.1l0.4,0.1l0.4,0.1l0.3-0.2l0.3-0.3l0.1-0.4l-0.1-0.4l-0.3-0.3l-0.2-0.3l-0.1-0.3v-0.4v-0.4l-0.3-0.3l-0.3-0.1l-0.3-0.3
		l-0.1-0.4v-0.4l-0.1-0.4l-0.2-0.3l-0.3-0.2l-0.4-0.1h-0.4l-0.4-0.1l-0.3-0.3v-0.4l0.1-0.4l0.3-0.1l0.4-0.1l0.2-0.3l-0.1-0.4
		l-0.3-0.3l-0.3-0.3l-0.1-0.4v-0.4v-0.4l0.1-0.3l0.1-0.4l0.1-0.3l0.2-0.3l0.3-0.2l0.4,0.1l0.4,0.1l0.3,0.1l0.4,0.1h0.4l0.4,0.1
		l0.4,0.1h0.4l0.4-0.1l0.3-0.1l0.4-0.1l0.3-0.3l0.2-0.3l0.2-0.3l0.2-0.3l0.1-0.3l0.1-0.4l0.1-0.3l0.2-0.3l0.3-0.3l0.3-0.3l0.3-0.3
		l0.3-0.3l0.3-0.3l0.3-0.3l0.3-0.1h0.4l0.3,0.1l0.3,0.2l0.3,0.2l0.3,0.2l0.3,0.2l0.4,0.1l0.3,0.2l0.3,0.1l0.4,0.1l0.3,0.1l0.4,0.1
		l0.4,0.1l0.4,0.1l0.4,0.1l0.5-0.1l0.3-0.3l0.2-0.3l0.3-0.3l0.2-0.3l0.1-0.4l0.1-0.4v-0.4l-0.1-0.3l0.1-0.4l0.3-0.2l0.4-0.1v-0.5
		l-0.1-0.4l-0.1-0.3l-0.1-0.4l-0.1-0.3l-0.1-0.4l-0.1-0.4l-0.3-0.3l-0.3-0.3l-0.3-0.3l-0.3-0.3l-0.2-0.3l-0.1-0.3v-0.4v-0.4
		l-0.1-0.4V313v-0.4l0.1-0.4l0.2-0.3l0.2-0.3l0.3-0.3l0.3-0.2l0.3-0.1l-0.6-1.3l1.1,1l0.3-0.3l0.3-0.3l0.3-0.3l0.3-0.2l0.4-0.1h0.4
		l0.4,0.1l0.3,0.1h0.4h0.4l0.4,0.1l0.4,0.1h0.4l0.4,0.1l0.4,0.1l0.4,0.1l0.4,0.1l0.4-0.1l0.3-0.1v-0.5v-0.4l0.1-0.4v-0.4l-0.1-0.4
		v-0.4l-0.1-0.4v-0.3v-0.5l0.1-0.3l0.1-0.4l0.2-0.3l0.2-0.3l0.3-0.3l0.1-0.3l0.2-0.4v-0.3l-0.1-0.3l0.1-0.4l0.1-0.3l-0.2-0.3
		l-0.3-0.3l-0.3-0.3l-0.3-0.3l-0.3-0.2l-0.4-0.1l-0.3-0.1l-0.3-0.3l-0.2-0.3l0.1-0.4l0.4-0.1l0.4,0.1l0.4,0.1l0.3-0.1l0.3-0.3
		l0.1-0.4l0.1-0.4l0.1-0.4V298l0.3-0.3l0.4-0.1h0.3l0.1-0.4l0.1-0.3l0.1-0.4l0.2-0.3l0.3-0.2h0.4h0.4l0.4,0.1l0.4,0.1l0.3-0.1
		l0.2-0.3l-0.1-0.3l-0.3-0.3l-0.3-0.3l-0.3-0.3l-0.1-0.3V294l-0.1-0.4l-0.1-0.3l-0.3-0.3l-0.3-0.2l-0.4-0.1l-0.3-0.2l-0.3-0.1
		l-0.3-0.3l-0.3-0.3l-0.3-0.2l-0.3-0.2l-0.3-0.3l-0.3-0.3l-0.3-0.2l-0.3-0.1l-0.4-0.2l-0.3-0.1l-0.3-0.1l-0.3-0.3l-0.2-0.3l-0.2-0.3
		l-0.1-0.4l0.2-0.3l0.2-0.3l0.1-0.4l-0.1-0.3l-0.3-0.3l-0.4-0.1l-0.3-0.3l-0.1-0.4l-0.1-0.2v-1.2l-0.2-1.9l-0.1-1l-0.7-0.9l-0.5-0.7
		l-0.3-0.7l-0.1-1.1l-0.5-0.5l-1.4-0.3l-0.8-0.8l-0.5-0.8l-0.6-1.3l-0.4-1.3l0.1-0.2l1.1-0.6l0.7,0.3l0.3,0.2l0.3,0.2h0.4l0.4-0.1
		l0.3-0.1l0.3-0.2l0.3-0.1l0.1-0.3l0.3-0.3l0.3-0.3l0.2-0.3l-0.3-0.3l-0.1-0.3l-0.2-0.3l-0.3-0.3l-0.3-0.3l-0.2-0.3l-0.1-0.3
		l-0.2-0.3l-0.3-0.3l-0.3-0.2l-0.4-0.1l-0.3-0.1l-0.4-0.1l-0.3-0.1l-0.4-0.1l-0.3-0.2l-0.3-0.2l-0.1-0.3v-0.4v-0.4l-0.1-0.4
		l-0.2-0.3l-0.2-0.3l-0.3-0.3l-0.3-0.3l-0.3-0.3l-0.2-0.3L278,264l-0.3-0.2l-0.3-0.3l-0.3-0.3l-0.1-0.3v-0.4l0.3-0.3l0.3-0.2
		l0.3-0.1l0.4-0.1l0.3-0.3l0.1-0.4l0.1-0.4v-0.3l-0.1-0.4l-0.1-0.4v-0.4l-0.1-0.3l0.1-0.4l1.2,0.4l0.4-0.1l0.5-0.9l0.3-1.4l-0.1-1
		l-0.6-0.9l-1.2-0.7l-0.6-0.3l-0.4-0.5l-0.2-0.8l-0.3-0.6l-0.6-0.6l-0.9-0.3l-0.8-0.3l-0.7-0.7l-0.7-1l-0.3-0.3l-1.6-1.4l-0.9-0.9
		l-0.9-1l-1.1-0.4l-1.1-0.6l-1.9-1.1l-0.9-0.4l-0.6-0.6l0.3-0.9l0.4-0.5l0.9-1.5l0.1-0.9l-0.8-0.9l-0.5-0.8l-0.6-1.7l-0.1-1.4
		l0.3-1.1l-0.2-1.3l-0.6-0.8l-0.6-0.2l-0.5,0.3l-0.5,1.1l-1.2,1.3l-0.8,0.9l-0.7,0.7l-0.4,0.7l0.1,0.5l0.1,0.9l-0.1,1.1l-0.2,0.7
		l-0.9,0.9l-0.7-0.5l-0.8-0.4l-0.7-0.5l-0.1-0.9l-1.8-1.3l-1.5-0.7l-1.5-1.9l-1.6-1.6l-2.1-1.7l-1.3-1.7l-1-0.9l-2.3-1.6l-1.7-1.1
		l-1.9-1.1l-0.1-0.2l-0.6-0.8l-0.7-1.2l-0.9-1l-2.1-1.7l-1.3-1.3l-1.6-0.4l-0.8,0.1l-0.7-0.1l-0.5-0.7l-1.9-1.6l-1.8-1l-1.9-1
		l-1.1-0.5l-0.7-0.6l-0.1-0.4l0.6-1.1l-0.1-0.9l-0.2-1.3l-0.1-1.1l-1.1-1.1l-0.2-0.1l-1.6-0.5l-1.1-0.5l-1,0.1l-0.6-0.3l-0.3-0.4
		l-0.2-0.4L215,203l-0.9-0.6l-0.6-1.1v-0.5l0.1-0.7l-0.3-0.3l-0.7-0.2l-0.3,0.3l-0.2,0.1l-0.3-0.3l-0.1-0.5l0.1-0.4l-0.3-1.5
		l-0.7-1.1l-1.4-1.3l-1-0.8l-0.7-0.3l-0.1,0.7l0.1,0.7l0.1,0.7l-0.5,0.7l-0.5,0.4l0.2,0.5l0.3,0.6l0.1,0.7l-0.1,0.5l0.1,0.5l0.5,0.5
		l0.7,0.8v0.4l-0.1,0.4l-0.2,0.7l0.2,0.8l0.1,0.7l0.1,0.5l-0.2,0.3l-0.5-0.3l-1.5-1.5l-2.3-1.2l-0.5-0.8l-0.2-0.3l-0.3-0.3l-0.3-0.3
		l-0.3-0.3l-0.3-0.3l-0.3-0.3l-0.3-0.2L201,199l-0.3-0.2l-0.4-0.2l-0.3-0.2l-0.3-0.2l-0.3-0.2l-0.3-0.2l-0.3-0.2l-0.3-0.3l-0.3-0.3
		l-0.3-0.3l-0.2-0.3l-0.3-0.3l-0.3-0.2l-0.4-0.1l-0.3-0.1l-0.4-0.1l-0.3-0.1l-0.3-0.3l-0.3-0.3l-0.3-0.1l-0.4-0.1l-0.3-0.3l-0.2-0.3
		l-0.1-0.3l-0.2-0.3l-0.3-0.3l-0.3-0.3l-0.3-0.2l-0.3-0.3l-0.3-0.3l-0.3-0.3l-0.3-0.3l-0.2-0.3l-0.3-0.3l-0.2-0.3l-0.3-0.3l-0.3-0.3
		l-0.3-0.3l-0.1-0.4l0.2-0.3l0.1-0.3l-0.1-0.4l-0.3-0.1l-0.3-0.3l-0.3-0.3l-0.2-0.3h-0.4l-0.3,0.1h-0.4l-0.4-0.1l-0.3-0.3l-0.1-0.4
		v-0.4l0.1-0.4l0.1-0.4l-0.3-0.3l-0.3-0.3l-0.3-0.3l-0.3-0.2l-0.2-0.3l-0.1-0.3v-0.4l-0.1-0.4l-0.1-0.3l-0.3-0.3l-0.3-0.3l-0.3-0.2
		l-0.3-0.3l-0.3-0.3l-0.3-0.3l-0.3-0.3l-0.3-0.3l-0.3-0.3l-0.3-0.3l-0.3-0.2l-0.4-0.1l-0.3-0.2l-0.3-0.3l-0.3-0.2l-0.3-0.3l-0.3-0.3
		l-0.2-0.3l-0.3-0.3l-0.3-0.3l-0.3-0.3l-0.2-0.3l-0.3-0.3l-0.3-0.3l-0.3-0.3l-0.3-0.3l-0.3-0.3L178,174l-0.3-0.3l-0.3-0.2l-0.1-0.4
		l0.1-0.3l0.4-0.1l0.3-0.2l0.4-0.2l0.3-0.3l-0.1-0.3l-0.3-0.1l-0.4-0.1l-0.4-0.1l-0.3-0.3l-0.1-0.3l-0.3-0.3l-0.3-0.2l-0.4,0.1
		l-0.3,0.1l-0.3,0.3h-0.4l-0.4-0.1l-0.3-0.3l-0.1-0.3l-0.3-0.3l-0.2-0.3l-0.3-0.3l-0.3-0.3l-0.3-0.3l-0.3-0.3l-0.3-0.3l-0.3-0.3
		l-0.3-0.3l-0.3-0.3l-0.3-0.3l-0.3-0.2l-0.3-0.3v-0.4l-0.1-0.4l-0.2-0.3l-0.4-0.1l-0.4-0.1l-0.4-0.1h-0.4l-0.3,0.1l-0.3,0.2
		l-0.3,0.3l-0.1,0.4l-0.3,0.3l-0.3,0.3l-0.2,0.3l-0.3,0.3l-0.3,0.2l-0.3,0.2l-0.3,0.3l-0.3,0.3l-0.3,0.3l-0.3,0.1l-0.4,0.1l-0.3,0.3
		l-0.3,0.3l-0.3,0.3l-0.2,0.3l-0.3,0.3l-0.3,0.2l-0.3,0.1h-0.4l-0.3-0.1l-0.3-0.2l-0.3-0.3l-0.3-0.2l-0.4-0.1l-0.3,0.1l-0.4,0.1
		h-0.4l-0.3-0.1l-0.3-0.3l-0.3-0.3l-0.3-0.3l-0.1-0.6l-0.1-0.4l-0.2-0.3l-0.4-0.1l-0.3-0.3v-0.4l-0.1-0.3l-0.2-0.4l-0.4-0.1
		l-0.4-0.1l-0.4-0.1L155,165h-0.4l-0.6-0.1l-0.4-0.1l-0.3,0.3l-0.1,0.3l-0.1,0.5v0.4l-0.1,0.4l-0.1,0.3l-0.1,0.3l-0.3,0.3l-0.3,0.3
		l-0.3,0.3l-0.4,0.1l-0.3,0.3l-0.3,0.3l-0.3,0.3l-0.3,0.3l-0.3,0.2l-0.3,0.3l-0.3,0.3l-0.3,0.3l-0.3,0.2l-0.3,0.3l-0.3,0.3l-0.3,0.3
		l-0.3,0.2l-0.3,0.3l-0.3,0.3l-0.3,0.2l-0.3,0.3l-0.3,0.3l-0.1-0.5l-0.1-0.4l-0.3-0.2l-0.3-0.2l-0.3-0.3l-0.2-0.4l-0.3-0.3l-0.3-0.2
		l-0.3-0.2l-0.3-0.2l-0.4-0.2l-0.3-0.2l-0.3-0.2l-0.3-0.2l-0.3-0.2L141,169l-0.3-0.2l-0.3-0.3l-0.3-0.2l-0.3-0.3l-0.3-0.3l-0.3-0.3
		l-0.3-0.3l-0.3-0.3l-0.3-0.3l-0.3-0.3l-0.3-0.2l-0.3-0.1l-0.4-0.2l-0.3-0.1l-0.3-0.2l-0.4-0.1l-0.3-0.1l-0.5-0.1h-0.4l-0.3-0.1
		l-0.2-0.3l0.1-0.4l0.1-0.3l0.1-0.4l-0.1-0.4l-0.3-0.2l-0.3-0.3l-0.3-0.2l-0.3-0.3l-0.3-0.3l-0.3-0.3l-0.3-0.3l-0.3-0.2l-0.3-0.2
		l-0.3-0.3l-0.3-0.2l-0.4-0.1l-0.3-0.1l-0.4-0.2l-0.3-0.2l-0.3-0.2l-0.3-0.2l-0.3-0.3l-0.1-0.4l-0.1-0.3l-0.1-0.4l-0.2-0.3l-0.3-0.3
		l-0.3-0.2l-0.3-0.2l-0.3-0.2l-0.3-0.3l-0.2-0.3l-0.3-0.3l-0.9,0.4l-1.4-0.3l-1.7-1.2l-1.5-0.9l-1.5-0.5l-0.9-0.3l-0.5-0.1l-1.2-0.5
		l-1.3-0.5l-1.3-0.3l-0.9,0.6l-0.9,1.1l-0.8,0.7l-0.9,0.3l-0.3,0.7l0.5,1.1l0.6,1.2l0.4,1.3l-0.1,2l-0.1,0.9l-0.9,1.9l-0.5,1
		l-0.1,0.5l0.2,0.8l0.3,0.7v0.4l-0.6,0.4v0.7l0.3,0.6l0.1,0.5l-0.3,0.9l-0.4,0.7l0.1,0.7l0.1,0.7l-0.5,0.5l-0.6,0.1l-0.5,0.2
		l-0.1,0.6l-0.2,0.9l0.1,0.6l0.4,0.8l0.3,0.3v1.5l-0.2,1.7l-0.3,1.9l-0.4,1.7l-0.3,1.5l-0.3,1.3l-0.5,0.7l-1.9-0.7l-2.5-0.7
		l-1.1-0.3l-1.4-0.6l-0.3-0.2l-0.6-0.6l-0.2-0.5l-0.3-0.6l-0.7-0.2l-1.1-0.1l-0.7-0.2l-0.7-0.5l-0.6-0.5l-1-0.9l-0.6-0.9l-0.3-0.7
		l0.3-0.9l0.7-0.9l-0.3-0.7l-1.9-0.8l-1.8-1l-0.9-0.9l-0.6-0.8l-0.7-0.5h-0.3l-1.1,0.3l-1.4-0.1l-1.2-0.3l-0.9-0.8l-0.5-0.6
		l-0.4-0.3l-0.9,0.3l-0.7-0.3l-0.4-0.9l0.1-0.9l-0.1-0.9l-0.5-0.9l-1-1.1l-1-0.5h-1l-0.4-0.1l-0.3-0.4l-0.1-1.1l-0.5-0.7l-1.1-1.1
		l-0.7-0.7l-0.5-0.9l-0.7,0.1l-0.7,0.2l-1-1l-0.4-1.5l-1.1-2.4l-1.9-2.7l-0.9-0.2l-0.6-0.3l-0.5-0.9l-0.4-1.3l-0.9-0.9l-1-0.6
		l-1-0.8l-0.8-1.3l-0.8-1.7l-0.2-1l-0.5-0.7l-0.7-0.2l-2.5,0.2l-1.7-0.1l-1.3-0.3l-1.1-0.5l-1.2-0.6l-1.1-0.5l-1-0.5l-1.3-1.1
		l-0.3,0.3l-1.4,0.3l-1.7-0.7l-1.7-0.7l-1.3-0.6l-0.5-0.7l-0.5-0.7l-0.7-0.7l-2.3-0.7l-2-0.3l-1.9-0.5l-2.3-0.7l-1.9-0.7l-1.8-0.6
		l-1.9-0.5l-1.6-0.2l-0.7,1.1l-1.5,0.3l-1.3-0.2l-0.9-0.1l-0.7,0.1h-0.9l-0.7-0.5l-0.8-0.3l-0.8,0.3l-1.8,0.1l-1.9-0.7l-2.1-0.7
		l-2.1-0.8l-1.7-1.2l-1.3-0.5L3.1,128l-0.7,0.8l-0.7,1.1L1,130.5l-1,0.4l-1.4-0.1l-1-0.3l-0.7-0.1l-0.7,0.1l-0.5,0.4l-0.6,0.5
		l-0.9,0.1l-0.9-0.9l-0.5-0.2l-0.7,0.3l-0.8,0.4l-0.7,0.4l-0.5-0.1l-0.5-0.5l-0.7-0.3l-0.7,0.1l-0.7,0.5l-0.5,0.3l-0.7,0.1l-0.6-0.3
		l-0.6-0.4l-0.1-0.4l0.7-1.8l0.2-1.8l0.1-1.3l0.3-1.2l0.7-1.3l0.6-1.5l0.1-1.1l-0.2-1.6l-0.1-1.3l-0.5-1.1l-0.7-1l-0.2-0.4l-0.2-0.5
		l-0.1-0.4l-0.2-2.1l-0.1-2.3l0.1-2.6V105l-0.1-2.1v-1.5v-0.8l0.1-0.3l1-1.5l1.3-1.9l1.9-2.3L-9,93l0.9-1.3l0.5-1.3l0.5-2.7l0.5-2.1
		l0.5-1.7l0.6-2l0.1-2l0.1-0.3l0.4-1.9l0.2-1.3l0.3-1.1l1,0.1l2.5,1.3l1.7,0.7L3,78L5,78.9l1.1,0.5l0.5,0.3l1.3,0.5l1.3,0.1l1.5-0.9
		L13,78l1.7-0.7l1.7-0.5l1.5-0.7l1.1-0.6l0.5-0.5l2.5-2.5l2.3-2.5l1.3-1.4l1-0.9l0.4-0.5l0.3-0.3l0.9-1.4l1.3-1.4l1-0.8l1-0.4
		l0.8-0.7l0.6-1.1l0.3-0.9l0.1-0.3l0.4-0.8l1.1-1.3l1.8-1.4l1.7-1.3l1.7-1.1l1.6-1.2l1.9-1.1l2.1-1.5l3.3-2.6l2.3-1.4l1.8-0.9
		l1.7-0.7l2.2-1.1l0.6-0.3l2.2-1.3l1.6-0.4l2-0.5l1.8-0.4l1.8-0.7l1.9-0.7l1.3-0.4l2.3-0.5l2.3-0.5l2.5-0.2H80h2.2l0.4-0.1l2-0.3
		l1.2-0.2h1.1l0.4,0.2l0.5,0.2l1,0.3l3,0.5l1.9,0.3l1.5,0.3l1.7,0.2l1.9-0.2l1.3-0.5l1.5-0.9l1.1-1.3l0.9-2.5l0.1-1.3l-0.3-1.4
		l0.5-2.1l0.3-1.9l1-3.3l0.9-3.3l0.7-2.7l0.3-1.6l0.5-3.1l0.3-1.6l0.3-1.1l0.5-1.6l0.5-0.3l3.3-0.9l2.2-0.5l2.1-0.7l1.3-0.4l0.4-0.3
		l1.3,1.1h0.3l0.3,0.1h0.3h0.5h0.2h0.2h0.6l0.3,0.1h0.5h0.2h0.3h0.3h0.3h0.3h0.2h0.3h0.3l0.6,0.1h0.3h0.3l0.3,0.1l1.1,0.2l0.2,0.1
		l0.3,0.1l0.7,0.1h0.4l0.4,0.1l0.7,0.1h0.5l0.5,0.1h0.2l0.5,0.1h0.5h0.3l0.2,0.1l0.7,0.1l0.3,0.1l1.1,0.2l1.1,0.1l0.3,0.1h0.3h0.2
		h0.3l0.2-0.1l0.3-0.1l0.3-0.1l0.3-0.1l0.3-0.1l0.5-0.1h0.3h0.3h0.3h0.5h0.3L141.2,7.6L141.2,7.6"/>
</g>
</svg>
