<?xml version="1.0" encoding="utf-8"?>
<!-- Generator: Adobe Illustrator 27.0.0, SVG Export Plug-In . SVG Version: 6.00 Build 0)  -->
<svg version="1.1" id="Layer_1" xmlns="http://www.w3.org/2000/svg" xmlns:xlink="http://www.w3.org/1999/xlink" x="0px" y="0px"
	 viewBox="0 0 500 500" style="enable-background:new 0 0 500 500;" xml:space="preserve">
<style type="text/css">
	.st0{fill:#E74646;stroke:#FFFFFF;stroke-width:4.6041;stroke-linecap:square;stroke-linejoin:bevel;stroke-miterlimit:3.998;}
</style>
<g transform="matrix(0.999751,0,0,0.999751,18.6633,21.7738)">
	<path vector-effect="none" class="st0" d="M262.4,54.5l0.2,0.7l0.1,0.7v0.6l0.1,0.7l-0.1,0.7l-0.2,0.7l0.2,0.9l0.5,0.7l0.5,0.3
		l0.5,0.1l0.7,0.2l0.2,0.3l-0.1,0.5l0.1,0.7l0.3,0.6l0.6-0.1l0.6-0.2l0.7,0.1l0.2,0.7l-0.1,0.6l-0.1,0.7l-0.2,0.6l-0.2,0.6l-0.2,0.7
		l-0.2,0.6v0.7l0.2,0.6l0.5,0.5l0.7,0.2l0.6-0.3l0.5-0.3l0.6-0.3l0.6-0.5l0.5-0.3l0.5-0.6l0.5-0.5l0.6-0.5l0.5-0.3L273,65l0.7-0.1
		h0.6l0.7,0.2l0.6,0.1l0.7,0.1l0.6,0.2l0.7,0.1l0.6,0.1l0.6,0.3l0.6,0.3l0.6,0.2l0.5,0.6l0.6-0.2l0.7-0.1h0.7l0.6-0.2l0.6-0.2
		l0.7-0.2l0.6-0.2l0.3-0.6v-0.6l-0.1-0.7l0.3-0.5l0.7-0.1l0.6,0.2h0.7h0.7l0.6,0.2l0.6,0.2l0.6,0.2l0.6-0.3l0.5-0.6l0.5-0.5l0.6-0.3
		l0.5-0.5l0.2-0.6v-0.7l0.2-0.6l0.5-0.5l0.6-0.5l0.6-0.1l0.6,0.2h0.7l0.7-0.1l0.6-0.2l0.5-0.5l0.2-0.7l0.7,0.1l0.6-0.1v-0.7l0.6-0.3
		l0.7,0.1l0.6,0.3l0.6-0.1l0.2,0.6l0.2,0.7h0.7l0.5,0.3l0.2,0.6l0.3,0.6l0.5,0.5l0.2,0.6l0.6,0.5l0.5,0.5l0.2,0.6l0.7,0.2h0.6
		l0.7,0.1l0.5,0.5h0.7l0.7-0.1h0.7l0.6,0.2l0.5,0.5l0.1,0.7l-0.3,0.6l0.5,0.5l0.6,0.2l0.5,0.5l0.2,0.6l-0.1,0.7l-0.1,0.7l-0.2,0.6
		l-0.5,0.5l-0.6,0.2l-0.7,0.2l-0.5,0.3l0.1,0.7l-0.1,0.7l-0.3,0.6l-0.3,0.6l0.5,0.5l0.6,0.2l0.7,0.1l0.6,0.3l0.5,0.6l0.3,0.6
		l0.2,0.6v0.5l-0.5,0.6l-0.5,0.5l-0.6,0.2h-0.7l-0.6-0.1l-0.7,0.2l-0.5,0.3l-0.3,0.6l-0.2,0.6l-0.5,0.6l-0.6,0.3l-0.6,0.2h-0.7h-0.6
		l-0.7,0.2h-0.6l-0.6-0.2l-0.6-0.5l-0.6-0.1l-0.7,0.2l-0.2,0.6l-0.2,0.6l-0.3,0.6l-0.5,0.5V83v0.7l-0.3,0.5l-0.7-0.1l-0.3,0.5
		l-0.2,0.7l-0.5,0.5l-0.6,0.2l-0.7,0.2h-0.6l-0.6,0.3l-0.5,0.5l-0.6,0.3l-0.6,0.5l-0.3,0.6l-0.5,0.5l-0.5,0.5l-0.8,0.5l-0.3,0.6
		l-0.2,0.6l-0.1,0.7v0.7l0.1,0.6l0.1,0.7l0.1,0.7l-0.1,0.7l-0.2,0.6l-0.5,0.5l-0.5,0.6l-0.3,0.6l-0.3,0.5l-0.3,0.6l-0.3,0.6
		l-0.2,0.6l-0.2,0.7l0.1,0.7l-0.1,0.7v0.7l-0.1,0.6l-0.3,0.6l-0.5,0.6l-0.5,0.5l-0.6,0.2l-0.6,0.3l-0.6,0.2l-0.6,0.5l-0.3,0.6
		l-0.5,0.5l-0.6,0.3l-0.6,0.3l-0.5,0.3l-0.6,0.3l-0.7,0.1h-0.7h-0.7l-0.7,0.1l-0.6,0.1l-0.5,0.5l-0.3,0.6v0.7l-0.1,0.7l-0.5,0.5
		l0.2,0.9l2.1,1l2.8,1.3l2.3,1.6l1.5,1.2l0.5-0.7l0.3-0.5l0.7-0.2l0.6-0.1l0.6-0.2l0.7-0.1l0.6,0.3l0.6,0.3h0.7l0.7,0.1l0.2,0.7v0.7
		l-0.1,0.7l0.2,0.6l0.6,0.3v0.7l0.1,0.7l0.6,0.3l0.6,0.5h0.6l0.6-0.2l0.6-0.3l0.6-0.3l0.5-0.5l0.5-0.5l0.5-0.5l0.6-0.3l0.6-0.3
		l0.6-0.5l0.6-0.2l0.6-0.1l0.6,0.1l0.5,0.5l0.6-0.2l0.7-0.2h0.6l0.7-0.1l0.6-0.3l0.5-0.5l0.5-0.5l0.6-0.3l0.6-0.2l0.5-0.5l0.7-0.2
		h0.7l0.6,0.1l0.5,0.6l0.5,0.5l0.1,0.7l0.3,0.6l0.6,0.3l0.6,0.3l0.3-0.5l0.3-0.6l0.3-0.6l0.5-0.5l0.2-0.6l-0.1-0.7l-0.1-0.6
		l-0.1-0.7l0.2-0.7l0.6-0.3l0.6,0.2l0.7,0.2h0.7h0.6h0.7h0.7l0.5,0.6l0.3,0.6l0.7-0.1l0.6-0.1l0.7,0.2l0.2,0.6l0.3,0.6h0.7l0.5-0.3
		l0.3-0.6l0.3-0.6l0.2-0.6l0.2-0.6l0.1-0.7l0.1-0.6l0.2-0.7v-0.6l0.1-0.7l0.5-0.5l0.7,0.1l0.6,0.3h0.6l0.6-0.3l0.6-0.2l0.6-0.3
		l0.6-0.3l0.6-0.2l0.6-0.2l0.7,0.1h0.7l0.5-0.5l0.2-0.6l0.5-0.6l0.6-0.3h0.6l0.7,0.2l0.3,0.6l0.6,0.3h0.7l0.6,0.3l0.5,0.5l0.6,0.1
		l0.6-0.3l0.3-0.5h0.7l0.7-0.1l0.6-0.2l0.3-0.6l0.5-0.5l0.6-0.2l0.9-0.3l0.3-0.5l0.7-0.3l0.6-0.1l0.6-0.2l0.7-0.2l0.6-0.2l0.5-0.5
		l0.1-0.7l0.3-0.6h0.7l0.6,0.3l0.6,0.1h0.7l0.7-0.1l0.7-0.1l0.6,0.2l0.6,0.3l0.6,0.2l0.3-0.6l-0.2-0.6v-0.7l0.2-0.7h0.7l0.6-0.1
		l0.7-0.1l0.7-0.1l0.6,0.2l0.6,0.2l0.6,0.2l0.7,0.2h0.6l0.7,0.3l0.5,0.3l0.3,0.6l0.3,0.6l0.5,0.5l0.5,0.5l0.6,0.3l0.6,0.3l0.6,0.3
		l0.5,0.6l0.5,0.5l0.3,0.6l0.3,0.6l0.2,0.6l0.1,0.6v0.7l0.5,0.7l0.5,0.5l0.5,0.3l0.7,0.2l0.6-0.1l0.7-0.1h0.7l0.7,0.2l0.6,0.2
		l0.6,0.2l0.6,0.2l0.7,0.2l0.5,0.3l0.6,0.5l0.2,0.6l0.2,0.7l0.2,0.6l0.3,0.6l0.6,0.5l0.5,0.5l0.6,0.2l0.7,0.2l0.6,0.1v-0.3l0.3-0.6
		l0.7-0.1l0.6-0.2l0.7-0.2l0.6,0.1l0.7-0.1l0.6-0.3l0.6-0.2l0.7,0.1l0.6-0.3l0.3-0.6l-0.1-0.6l-0.5-0.6l-0.3-0.5l-0.6-0.5l-0.6-0.5
		l-0.5-0.5l-0.5-0.5l-0.6-0.3l-0.6-0.5v-0.7l-0.1-0.6l-0.3-0.6l-0.3-0.6l0.1-0.6l0.5-0.6l0.7-0.1l0.6,0.5h0.7l0.3-0.3v-0.7l-0.3-0.6
		l-0.7-0.2h-0.6l-0.7-0.2l-0.5-0.6l-0.2-0.5l-0.5-0.6l-0.1-0.7l0.2-0.6l0.5-0.6l0.3-0.6l-0.3-0.6l-0.3-0.6v-0.7l0.2-0.6l0.3-0.6
		l0.3-0.6l0.2-0.6v-0.7v-0.7l0.5-0.5l0.5-0.5l0.1-0.6l0.1-0.7l0.3-0.6l0.5-0.5l0.6-0.2l0.7-0.1l0.6,0.1l0.6,0.2l0.3,0.6l0.3,0.6
		l0.6,0.3l0.6-0.2l0.6-0.2v-0.7l-0.2-0.6l-0.3-0.6l-0.5-0.5l-0.1-0.7l0.1-0.6h0.7l0.7,0.1l0.6,0.1l0.7,0.2l0.6,0.1h0.7l0.7,0.1
		l0.7,0.1h0.7l0.5,0.5l0.3,0.5l0.6,0.5l0.6-0.1h0.7l0.3,0.6l0.2,0.6l0.2,0.6l0.2,0.6l0.6,0.5l0.7,0.1l0.6,0.1l0.7,0.1l0.7,0.1
		l0.7-0.1l0.7,0.1h0.7h0.7h0.6l0.7-0.1l0.6-0.3l0.6-0.3l0.6-0.2l0.7-0.1l0.5,0.5l0.3,0.6l0.2,0.6l0.6,0.5l0.6-0.1h0.7l0.7,0.1
		l0.3,0.5l-0.5,0.6l-0.5,0.3v0.6l0.7,0.1l0.7-0.1l0.6,0.1l0.7,0.1h0.7l0.6-0.5l0.3-0.5l0.5-0.6l0.3-0.5h0.7l0.6-0.1l0.6-0.3
		l-0.2-0.7v-0.7l0.1-0.7l0.6-0.3l0.5-0.3l0.6-0.3l0.7-0.2l0.5-0.1l0.6,0.5l-0.1,0.6l0.1,0.7L419,93l0.1,0.7l-0.5,0.3l-0.7,0.2
		l-0.5,0.3l-0.3,0.6v0.7l0.3,0.5l0.7-0.1l0.5,0.3l0.5,0.6l0.5,0.5l0.5,0.6l0.5,0.5l-0.3,0.5l-0.2,0.7l0.5,0.3l0.7,0.1l0.7,0.1
		l0.6,0.1l0.6,0.3l0.6,0.2l0.6,0.3l0.6,0.3l0.3,0.6l0.2,0.6l0.1,0.7l0.2,0.6l0.3,0.6l0.3,0.6l0.1,0.7l-0.1,0.6v0.7v0.7l0.1,0.7
		l0.2,0.7l0.6,0.2l0.6-0.1l0.7-0.1l0.6,0.2l0.5-0.5l0.5-0.6l0.3-0.5l0.5-0.6l0.5-0.5l0.5-0.5l0.6-0.2h0.7l0.6,0.1l0.7-0.1l0.7-0.1
		l0.6-0.3l0.5-0.5l0.7-0.2l0.6-0.1h0.7l0.7-0.1h0.7l0.6,0.1l0.7,0.1l0.7,0.1l0.5-0.5l0.5-0.5l0.5-0.5l0.5-0.5l0.7-0.1l0.6,0.2
		l0.5,0.5l0.3,0.6l0.3,0.6l0.1,0.6l0.1,0.7l-0.5,0.6l-0.6,0.3l-0.3,0.5l-0.2,0.7l-0.3,0.5l-0.5,0.6l-0.2,0.6l-0.2,0.6l-0.2,0.7
		l-0.1,0.6l0.1,0.7l0.3,0.6l0.5,0.5l0.5,0.6l0.5,0.5l0.6,0.5l0.6,0.3l0.6,0.2l0.6,0.1l0.6,0.5l0.3,0.5l0.5,0.5l0.5,0.6v0.7l-0.1,0.6
		l-0.2,0.7l0.1,0.7l0.2,0.6l0.3,0.6l0.5,0.5l0.5,0.5l0.5,0.6l0.6,0.5l0.6,0.2l0.8,0.5v0.7l0.1,0.7l0.2,0.6l0.2,0.7v0.7v0.7l0.5,0.5
		l0.3,0.6l0.1,0.7l0.1,0.7l0.2,0.6l0.2,0.6l0.3,0.6l0.1,0.7l0.1,0.6l0.2,0.6l0.1,0.6l0.6,0.3l0.6,0.3l0.6,0.3l0.5,0.3l0.5,0.5
		l0.5,0.6l0.2,0.6l0.2,0.6l0.3,0.3l-0.5,0.5l-0.5,0.5l-0.6,0.5l-0.5,0.3l-0.6,0.3l-0.6,0.3l-0.5,0.5l-0.5,0.6l-0.5,0.5l-0.3,0.6
		l0.2,0.7l0.1,0.6l0.2,0.7l0.2,0.6l0.3,0.6l0.2,0.6l0.2,0.6l0.2,0.6l-0.2,0.7l0.1,0.6l0.7,0.2h0.7h0.7l0.6,0.2l0.6,0.3l-0.1,0.7
		l-0.6,0.2l-0.3-0.1l-0.2,0.3v0.7l0.1,0.7l0.1,0.6v0.8l-0.1,0.6v0.7l-0.1,0.7v0.7v0.6l0.1,0.7l0.2,0.7l0.2,0.6l0.2,0.6l0.5,0.5
		l0.6,0.5l0.6,0.3l0.3,0.5l0.3,0.6l0.2,0.6v0.7l0.3,0.6l0.2,0.7l0.2,0.6l0.2,0.6l0.2,0.6l0.2,0.7l0.1,0.6l0.2,0.6l0.2,0.7l0.1,0.6
		l0.1,0.7l0.2,0.6l0.2,0.6l0.3,0.6l0.5,0.5l0.6,0.3l0.6,0.3l0.6,0.3l0.6,0.2l0.6,0.2l0.7,0.1l0.6,0.2l0.6,0.3l0.6,0.2l0.6,0.2
		l0.7,0.1l0.6,0.3l0.5,0.5l0.3,0.8l-0.9,0.2l-0.5,0.2l-0.5,0.3l-1.2,0.8l-0.7,0.3l-0.9,0.2l-0.5,0.1l-0.6-0.1l-0.3-0.2l-0.2-0.2
		l-0.5-0.6l-0.5-0.2l-0.5-0.3l-0.6-0.2l-0.8-0.1l-0.5,0.1l-0.5,0.1l-1.3-0.1l-0.5,0.2l-0.6-0.2l-0.6-0.1l-0.6-0.2l-0.3,0.2v0.6
		l0.6,0.5l0.2,0.3l0.2,0.3l-0.3,1l-0.5,0.5l-0.2,0.3l-0.3,0.2l-0.3,0.2l-0.6,0.3l-0.6,0.5l-0.6,0.1l-0.5,0.2h-0.8l-1-0.5l-0.5,0.3
		v0.7l0.1,0.8l-0.2,0.7l-0.3,0.5l-0.2,0.6l-0.3,0.7l-0.5,0.2l-0.1,1.4l0.3,0.2l0.3,0.6l-0.9,0.2H452h-0.3l-0.7,0.5l0.2,0.3l1.4-0.1
		l0.3,0.3v0.3l-0.1,1.3l-0.5,0.3l-0.3-0.1l-0.5-0.1l-0.8,0.7v0.6l-0.2,0.3l-0.6-0.2l-0.3-0.3l-0.3,0.3v1.2l-0.2,0.3l-0.7,0.5
		l-0.5,0.5l-0.5,0.6l-0.5,0.1l-0.5,0.1l-0.3,0.2l-0.5,0.5h-0.7l-0.5-0.1l-0.7-0.1l-0.5,0.1h-0.7h-1.3l-0.3,0.1l-1,0.1l-0.7-0.1
		l-0.5-0.1l-0.6-0.1h-0.6l-0.5-0.2l-0.9-0.6l-0.6-0.6l-1-0.8l-0.5-0.1l-0.3-0.2l-1.2,0.1l-0.1,0.8l0.2,0.7l0.2,0.3l0.2,0.6l0.3,0.5
		l0.7,0.6l0.5,0.1l0.3,0.5l0.2,0.5l0.2,0.3l0.1,0.3l0.5,0.6l0.6-0.1l0.5-0.2l0.5-0.1l0.6-0.1l0.3-0.2l0.5-0.3l0.6-0.6l0.3-0.2
		l0.5-0.2l0.3-0.2l0.5-0.1l0.7,0.6l0.6,0.6l0.5,0.1l0.7-0.1l0.5-0.1l0.6-0.1l1.4,0.5l0.3,0.6l0.1,1l0.3,0.5l0.1,0.3l0.2,0.5l0.1,0.8
		l0.1,0.6l0.1,0.3l0.1,0.5l0.6,0.6h1.3l0.2,0.5l-0.1,0.3l-0.9,0.7l-0.6,0.3h-0.3l-0.3-0.3l-0.1-0.5l-0.9-0.2l-0.3-0.9l0.2-0.3
		l-0.1-0.3l-0.3-0.6h-0.6l-0.8-0.1v0.5l0.1,0.5L444,205l-0.5,0.2l-0.3,0.2l-0.5,0.2l-0.3,0.2l-0.6,0.6l-0.2,0.3l-0.5,0.6l-0.5,0.6
		l-0.2,0.3l-0.2,0.5l-0.1,0.3l-0.1,0.6v0.3l-0.2,0.6l-0.3,0.3H439l-0.8-0.9l-0.7-0.1H437l-0.2-0.3l-0.2-0.3h-0.3l-0.5,0.2l-0.2,0.2
		l-0.5,0.3l-0.3,0.2l-0.6,0.6l-0.6,0.7l-0.2,0.3l-0.2,0.7l-0.2,0.9l-0.1,0.3v0.6l0.1,0.5l0.7,0.9l0.2,0.3l0.2,0.7l-0.3,0.5v0.7
		l-0.1,0.7l0.3,0.7l0.1,0.3l0.3,0.6l0.2,0.5l0.1,0.3l-0.1,0.5l-0.6,0.3l-0.3,0.3l-0.5-0.1h-0.3l-0.9,0.6l-0.1,0.6v0.9l-0.2,0.3
		l-0.2,0.3l-0.1,0.5v1L431,227l-0.8,0.2l-0.5-0.1l-0.6-0.3l-0.6-0.2h-0.7l-0.5,0.1l-0.5,0.1l-0.7,0.2l-0.5,0.1l-0.7,0.2l-0.3,0.1
		l-0.5,0.2l-0.5,0.1l-0.3,0.2l-0.6,0.1h-0.3l-0.7-0.3l-0.6-0.2l-0.7-0.2l-0.5-0.2l-0.3-0.2l-0.8-0.6l-0.3-0.2l-1.4-0.1l-0.3,0.2
		l-0.6,0.1l-0.3,0.2l-0.3,0.1l-0.5,0.3l-0.7,0.7L414,228l-0.3,0.2l-0.5,0.5l-0.5,0.2l-0.8,1l-0.5,0.7l-0.9,1l-0.7,0.7l-0.6,0.7
		l-0.7,0.7l-0.6,0.5l-0.6,0.5L407,235l-0.5,0.2l-0.5,0.1l-0.3,0.2l-0.5,0.5l-0.6,0.2l-0.3-0.2l-0.2-0.5l-0.2-0.5l-0.1-1.5l0.2-1
		l-0.3-0.1l-0.5,0.3v0.7l-0.1,0.3l-0.2,0.3l-0.7,0.3l-0.3,0.1l-0.7,0.3l-0.5,0.1l-0.3,0.1l-0.5,0.2l-0.7,0.3l-0.7,0.1l-0.5-0.1
		l-1,0.8l-0.5,0.2l-0.3,0.6l-0.3,0.2l-0.1-0.6l0.1-0.5v-0.8l-0.6,0.5v0.8l-0.5,0.2l-0.3,0.3l-0.5,0.2l-0.7,0.3l-0.3,0.3l-1,0.2
		l-0.3-0.2l-0.6-0.1l-0.2,0.2l-0.5,0.3l-0.7,0.5l-0.6,0.6l-0.5,0.6l-1,1l-0.3,0.5l-0.3,0.2l-0.5,0.1l-0.3-0.5l-0.5-2l-0.1-1.5
		l-0.3-1.2l0.2-0.3l1,0.3l-0.1-0.5l-0.3-0.3l-0.6-0.1l-1,0.1l-0.3-0.1l-0.6-0.5l-0.7-0.2l-0.3-0.2l-0.8-0.2l-0.9-0.3l-0.9-0.1
		l-0.9-0.2v-0.8l-0.3-0.6l-0.7-0.2l1.6-2.3l0.5-0.5l0.3-0.2l0.6-0.3l0.5-0.3l-0.2-0.5l-0.5,0.1l-0.3,0.1l-0.7,0.2l-0.3,0.2l-0.3,0.2
		l-0.2,0.5l-0.2,0.5L378,231v0.3l-0.5,0.6l-0.7,0.5l-0.2,0.3l-0.7,0.1l-0.5,0.2l-0.9,0.6l-0.3,0.2l-1.3-0.1l0.2,1.5l-0.6,0.3
		l-0.6,0.5l-0.5,0.2l-0.5,0.5l-0.6,0.6l-0.6,0.7l-0.6,0.7l-0.7,0.7l-0.7,1.5l-0.5,0.5v1.2l0.5,0.6l0.3,0.2l0.1,0.3l0.2,0.5l0.5,0.5
		l0.8,0.1l0.6-0.6v-0.5l-0.5-0.6l-0.1-0.6l0.2-0.3l0.8,0.1h0.5l1.2-0.1l0.1,0.8l-0.5,0.3l-0.2,0.1l-0.5,0.3l-0.3,0.2l-0.3,0.5
		l-0.5,0.9l-0.1,0.3v0.9l0.3,0.3l0.7,0.2l-0.5,0.8l-0.2,0.7l-0.5,0.1l-0.3-0.5l-0.6-0.3l-0.8-0.1l-1.3-0.7l-0.3-0.1l-0.9-0.6
		l-0.5-0.1l-0.3-0.2l-0.5-0.1l-0.6-0.1h-0.8l-0.7,0.2l-0.7,0.2l-0.5,0.2h-1.2h-0.6l-0.3-0.1l-0.6-0.1l-0.5-0.1l-0.3-0.3l-0.6-0.3
		l-0.5-0.3l-0.7-0.6l-0.1-0.3l-0.1-0.6v-0.5v-0.8l-0.1-0.7l0.1-0.8l-0.1-0.3l-0.3-0.5h-0.5l-0.7-0.3l-0.6-0.1h-1.4l-0.8,0.1
		l-0.6,0.1l-0.3,0.1l-0.3,0.1l-0.5,0.2l-0.3,0.1l-0.8-0.1v-0.9v-0.5l0.3-0.5l0.5-0.2l0.9-0.1l0.7-0.3v-0.3l0.2-0.3l0.3-0.3l0.2-0.2
		l0.5-0.5l1-0.9l0.3-0.2l0.5-1.3l-0.7,0.3l-0.3,0.5l-0.5,0.1l-0.5,0.3l-0.3,0.2l-0.3,0.3l-0.2,0.5l-0.2,0.3l-0.3,0.5l-0.7,0.1h-0.5
		h-1.2l-0.3,0.1l-0.8,0.1l-0.3,0.1l-0.7,0.2l-0.3,0.3l-0.6,0.5l-0.5,0.6l-0.1,0.6l0.3,0.2l0.3,0.1l0.3,0.2v0.3l-0.9,0.5l-0.5-0.6
		l-0.5-0.2l-0.1-0.3l-0.1-0.6l-0.3-0.2l-0.6-0.1l-0.3,0.1l-0.7,0.1l-0.3,0.1l-0.5,0.1l-0.3,0.1l-0.5,0.1l-0.5,0.1l-0.7,0.2l-0.5,0.1
		l-0.9,0.2l-0.3,0.1l-0.7,0.3l-0.2,0.3v0.5l0.3,0.5l0.1,0.3l-0.6,0.8l-0.6,0.6l-0.2,0.2l-0.1,0.7l0.2,0.5l0.2,0.7l-0.5,0.3l-0.1,0.3
		l-0.6,0.3l-0.7,0.1l-0.5,0.1l-0.6,0.2l-0.5,0.1l-0.8-0.3h-0.5l0.3,0.7v0.6l-0.1,0.5l-0.5,0.5l-0.3,0.5l-0.2,0.3l-0.5,0.6l-0.2,0.3
		l-0.6,0.7l-0.2,0.2l-0.2,0.5l-0.2,0.3l-0.1,0.3l-0.1,0.6l0.1,1.7l0.1,0.5l0.1,1.4l-0.5,0.2l-0.3,0.1h-0.5l-0.3-0.9l-0.1-0.6
		l-0.2-0.8l-0.1-0.3l-0.6-0.5l-0.5-0.2l-0.7-0.1l-0.6-0.1l-0.8,0.1h-0.3l-0.6,0.1l-0.3,0.2l-1.3-0.2l-0.3,0.1l-0.7,0.3l-0.9-0.1
		l-0.5,0.1l-0.3,0.3l-0.6-0.3v-0.7l-0.3-1.4l-0.1-0.7v-0.6l-0.6-0.7l-0.1-0.3l0.1-0.5l0.2-0.3l0.2-0.5l0.2-0.3l0.1-0.3v-0.8
		l-0.1-0.3l-0.1-1l0.2-0.8v-0.6v-0.3l0.2-0.6l0.6-0.5l0.3-0.1l0.5-0.2l0.3-0.2l0.6-0.7l0.3-0.2l0.7-0.1l0.6-0.3l0.3-0.5l0.3-0.6
		l-0.5-0.2l-0.3-0.1l-0.2-0.3L320,239l-0.3-0.8l-0.5,0.2l-0.1,0.3l-0.5,0.2l0.1,0.3l0.1,1.2l-0.6,0.7l-0.6,0.2l-0.7,0.3h-0.7
		l-0.6,0.1l-0.3-0.5l-0.7-0.2l-0.8-0.2l-0.7,0.6l-0.7,0.5l-0.3,0.1l-0.6,0.2l-0.3,0.1l-0.7,0.3l-0.5,0.3l-0.6,0.1l-0.8,0.2l-0.3,0.2
		l-0.9,0.5l-0.5,0.2l-0.3,0.1l-0.6,0.1l-0.7,0.1l-0.2,0.3l-0.9,0.2l0.2,0.8l0.5,0.1l0.5,0.2l0.1,0.7l-0.3,0.2h-0.6l-0.3-0.2
		l-0.7-0.1l-0.5-0.1l-0.1,0.3l0.5,0.8l-0.2,0.3l-0.3,0.2l-0.3,0.1l-0.6,0.3l-0.1,0.5l-0.2,0.6l-0.2,0.5l-0.1,0.3l0.5,0.2h0.3
		l0.9-0.2h0.3h1.4l0.7-0.2l0.5-0.1h0.9l0.3,0.2v0.5l-0.2,0.3l-0.2,0.3l-0.5,0.7l-0.5,0.8l-0.6,0.5l-0.5,0.2l-0.3,0.2l-0.7,0.1
		l-0.7,0.1l-0.3,0.1l-0.5,0.2l-0.5,0.3l-0.2,0.6l-0.2,0.7l-0.1,0.5l0.6,1l0.5,0.1l0.3-0.2l0.1-0.5l0.2-0.3l0.6-0.1h0.3l0.7-0.1
		l0.2,0.5l0.6,0.3l0.7,0.5l0.6,0.3h0.3l0.8,0.2l0.3,0.2l0.3,0.3l0.6,0.6l0.1,0.8l-0.3,0.5l-0.5,0.3l-0.5,0.1l-0.5,0.1l-0.3,0.1
		l-0.5,0.3l-0.5,0.2l-0.3,0.1l-0.8,0.1l-0.7,0.3l-0.3,0.2l-0.5,0.3l-0.3,0.8l-0.2,0.3l-0.5,0.3h-0.5l-0.5-0.3l-0.2-0.3l-0.3-0.2
		l-0.3-0.3l-0.1-0.3l-0.1-0.8v-0.7l-0.2-1.4l0.1-0.5v-0.6l-0.2-0.5l-0.2-0.3l-0.1-0.3l-0.6-0.8l-0.6-0.2l-1-0.5l-0.2-0.5l-0.1-0.5
		l-0.5-0.6l-0.5-0.5l-0.5-0.3l-0.3-0.2l-1-0.3l-0.5-0.1l-0.6,0.1l-0.8,0.3l-0.3,0.3l-0.3,0.2l-0.5,0.2h-0.5l-0.3-0.3l-0.6-0.2
		l-0.2,0.3l-0.3,0.2l-0.5-0.1l-0.3,0.3l-0.7,0.5h-0.9l-0.3,0.1l-0.5,0.1l-0.6,0.5L285,257l-0.5,0.7l-0.5,0.6l-0.2,0.2l-0.5,0.8
		l-0.5,0.6l-0.3,0.3l-1-0.1l-0.5-0.6l-0.6-0.3l-0.7,0.1l-0.6,0.3l-0.6,0.3l-0.7-0.1l-0.7,0.1l-1,0.1l-0.6,0.3l-1-0.1l-0.7,0.1h-0.7
		l-0.9,0.1l-0.8,0.5l-0.8,0.1v-0.6l-0.5-0.6l-0.8-0.1l-0.3,0.1l-0.3,0.2l-1-0.5h-1.2h-0.5h-1h-0.6l-0.2,0.3l-0.2,0.6l-0.1,1.2
		l-0.2,0.8l-1,0.6l-1.5,0.6l-0.7-0.1l-0.2-0.2V263l-0.1-0.3l0.1-0.5l0.3-0.1l0.8-0.1l0.5-0.3v-0.3l0.9-0.9v-0.7l-0.5-0.5l-0.2-0.3
		l-0.2-0.2l-0.2-0.3l-0.9-0.2l-0.6,0.3l-0.6-0.1l-0.3-0.6l-0.3-0.5l-0.9-1l-0.3-1.2l-0.8-1.5l-0.6-0.8l-0.5-0.5l-0.5-0.9l-1-1.5
		l-0.2-3.4l-0.6-1l-0.5-0.7h-1.4l-0.8,0.2l-0.6,0.1l-1.2,0.1l-0.7,0.2l-1.2-1.2l-1-0.7l-2.7-3.9l-0.2-1.9v-1l-0.2-0.7l0.1-0.9l0.7-1
		l0.6-1.3l-0.1-1.2h-0.6l-0.9,1.2l-0.7,0.7l-0.8,0.3l0.1-0.8l-0.3-1.4l-0.5-1.2l-0.5-1.4l-1.4-1.4l-0.2-0.7l-0.2-1.6l-0.3-0.5l-1-1
		l-1.2-0.3l-1.4-0.5v0.7l0.3,0.8l1,1.6l0.7,1l0.3,1.2l-0.3,1.6v0.8v1l-0.1,1.6v1l-0.2,1l1.3,1.7l0.7,0.9l1,2.2l1,0.7l1.5,0.6
		l2.7,3.9l-0.6,1.2l-1.3-0.7l-1.4-0.6l-0.7-0.8l-1.2-0.6l-1.5-0.8l-1-0.6l-1.3-1l-0.8,0.5l0.2,0.8l1.7,0.9l0.6,0.5l1.9,1.4l1,0.8
		l0.8,1.2l1,0.6l1,1.6l0.7,0.6l0.3,1.3v1.2l-1.4,0.9l-1.6-1.2l-2.3-2.8l-0.8-1l-0.7-0.8l-2.2-1.5l-1.9-1.4l-0.8-0.3l-1.7-1l-1.6-1.4
		l-0.9-1.5l-0.9-0.7l-0.2,0.5l-0.6,1.6l1,1.6l0.3,0.3l0.6,0.5l0.3,0.3l0.8,0.3l0.6,0.2l0.5,0.2l1.4,1.2l1.6,1.6l1.9,1.4l1.9,1.4
		l1.3,1.9l0.6,0.8l1,1.4l0.2,0.8l-0.2,1.3l0.3,0.9l0.5,0.3l0.1,0.7l-0.2,0.3v0.3l0.1,0.3v0.5l0.7,0.8l0.2,0.5l0.1,0.5v0.7l-0.3,0.7
		l-0.3,0.5l-0.1,1l-0.1,0.3l-0.3,0.2v0.7l-0.7,0.6l-0.2,0.5l-0.2,1.5l-0.3,0.6l0.6,1.2l0.5,0.5l0.7,0.2l1.3,0.6l0.6,0.1h0.6l0.5-0.1
		l0.6,0.8l-0.7,0.3l-0.8,1l0.1,0.5l0.1,0.6v0.5l-0.6,0.3l-0.3,0.3l-0.5,0.9l-0.2,0.3l0.2,0.7l0.3,0.5l0.2,0.7l0.3,0.7l0.1,0.5
		l-0.1,0.3l-0.7,0.3l-1,0.2l-0.6-0.3l-0.6-0.1l-0.6-0.1l-0.6,0.5l0.3,0.9l0.1,1l0.1,0.7l0.1,0.3l-0.1,0.7l-0.3,0.3l-0.2,0.3
		l-0.6-0.1h-0.9l-0.9,0.1l-0.9,0.2l-0.2-0.5l-1.9-0.7l-0.3-0.2l-1.3-0.2h-0.5l-0.7-0.1l-0.5,0.3H229l-0.3,0.2l0.1,0.6l-0.1,0.7
		l-0.7,1l-0.5,0.6l-0.3,0.5l-0.2,0.7l-1,1.7v0.5l-0.2,0.5l-0.2,0.5l-0.5,0.5l-0.5,0.3l-0.1,0.6l-0.3,0.6l-0.6,0.1l-0.3-0.1l-0.1-0.6
		l-1.6,0.3l-0.7,0.7l-0.5,0.3l-0.7,0.2l-0.6-0.2l-1,0.1l0.2-1.3l-0.1-1.2l-0.5,0.7l-0.3,0.5l-0.8,0.1l-0.5,0.1l-0.7,0.1l-1.6-0.7
		l-0.8-0.3h-0.6l-0.6-0.5l0.2-1l0.2-0.3l0.5-0.9l0.3-0.7l0.2-0.5v-0.5l-0.2-0.5l0.1-0.3l0.1-0.5l-0.6-0.6l0.1-1.2l-0.6-0.6l-0.1-0.8
		l0.2-0.5l0.7-0.5l0.2-0.5l0.5-0.5l0.6-0.5l0.5-0.6l0.3-0.2l0.1-0.6l0.5-0.6l0.1-0.6l0.2-0.7v-0.9l0.1-0.9v-1.9l-0.1-0.6l0.1-0.6
		l-0.1-0.6l-0.2-0.6l-0.5-0.2l-0.3,0.1l-0.3,0.7v0.8v0.6l0.1,1.4l-0.1,0.5l-0.2,0.8v0.9l-0.1,0.9l-0.2,0.7l-0.3,0.5l-0.3,0.5
		l-0.6,0.8l-0.8,0.5l-0.5,0.1h-0.8l-0.3-0.2l-0.5-0.8l0.1-1.2l0.1-1v-0.8v-1.2l-0.5-1.3l-0.3-0.7l-0.1-0.9l0.1-0.8l0.1-1.4l-0.1-0.8
		v-0.8v-0.8l-0.3-0.7l-0.2-0.6l-0.7-0.5l-0.8-0.3l-0.7,0.1l-0.1,0.9l0.2,0.6l0.1,0.9l-0.2,0.8l-0.1,0.9l0.3,0.9l0.1,0.8l0.1,1.2
		l0.2,1.3l0.2,1.4l0.1,1.4l-0.1,1.7l0.1,1.7l0.2,1l0.3,0.9l0.3,1.4l-0.2,0.5l-1,1l-0.6,0.9l-0.9,0.8l-0.5,0.8l-0.7,0.9l-0.6,1.4
		l-0.1,1l0.6,1.2l0.5,1l0.1,0.6l-0.1,0.9l-0.1,0.3l0.1,0.9l0.2,0.5l0.1,0.8l0.6,0.3l0.1,0.7l0.9,0.6l0.2,0.2v0.6l-0.3,0.6l-0.3,0.1
		l-0.5,0.5l-1.5,0.8l-0.5,0.2l-0.3,1l0.5,0.1l-0.5,0.6l-0.5,0.8l-1.3,0.6l-0.3,0.2h-1h-0.6l-0.6,0.7l0.3,0.2l-0.1,0.5l-1,0.1
		l-0.3-0.1l-0.9-0.9l-0.1-0.7l0.2-0.5l-0.2-0.2l-0.8-0.1l-0.3-0.5l0.2-0.3l0.1-0.8l-0.1-0.3l-0.9-1l-0.2-0.3l0.2-0.5l-0.2-0.8
		l-0.2-0.3l-0.5-0.3l-0.3-0.1h-0.6l-0.7,0.7l-0.8,0.3l-0.5,0.3l-0.8,0.1l-0.2-0.6l-0.5,0.3l-0.7,0.3l-0.3,0.5l-0.6,0.5l-0.3,0.6v1
		l0.3,0.5l-0.1,1l-0.7-0.1l-0.5-0.5l-0.2-0.2l-0.5,0.1l-0.6,0.7l-0.5,0.6l-0.6,0.8l0.2,1l-0.5,0.3l-0.8-0.1h-0.9l-0.6,0.3l0.1,0.6
		l-0.1,0.9l-0.2,0.3v1.3l0.1,0.5l-0.3,0.7l-0.6-0.1l-0.3-0.2l-0.3,0.2l0.3,0.3v0.3l-0.5,0.2l-0.7,0.6l-0.3,0.1l-1.3,0.5l-0.7-0.1
		l-1.2,0.1l-0.5-0.3l-0.1-0.7l-0.6-0.6l-0.6-0.1l-0.9-0.6l-0.6-0.2l-0.5-0.2l-0.3-0.3l-0.6-0.7l-0.7-0.6l-0.5,0.1l-0.2-0.9h-0.3
		l-0.2,0.2l-0.7,0.5l-0.6-0.2l-0.2-0.3l-0.5-0.6v-0.8l-0.2-0.5l0.2-0.5l0.7-0.8l-0.5-0.2l-0.1-0.3l-0.5-0.7l0.1-0.5l-0.1-0.8
		l-0.1-0.5l0.2-0.3l0.8-0.2h0.5l0.6,0.2l1-0.2l0.8-0.6l0.8-0.3l0.6-0.2l0.2-0.3V302l-0.1-0.3l-0.5-0.5l0.2-0.3l-0.5-0.3l-0.3,0.3
		l-1,0.3v0.6l0.8,0.1l0.3,0.1l0.1,0.6l-0.2,0.1l-1,0.1h-0.8l-0.5,0.2l-0.1,0.5l-0.5,0.1l-0.5,0.1l-0.6-0.2l-0.7,0.2l-0.8-0.2
		l-0.3-0.6l-0.5-0.5v-0.7l-0.3-0.3l-0.5-0.5l0.1-0.6l-0.8-0.5v0.6l0.2,0.7l0.1,0.5l0.3,0.7l0.3,0.8l0.1,0.7l0.2,0.9l0.2,1l0.1,0.3
		l0.5,0.7l-0.2,1l0.5,1l-0.1,0.9l0.3,0.5l0.1,0.5l0.3,0.5l-0.2,0.8l-0.2,0.5v0.3l-0.1,0.7v0.5l0.3,0.8l-0.3,0.5l-0.2,0.6l-0.3,0.5
		l-0.1,0.7l-0.3,0.1l-0.3,0.3l-0.8,0.2h-0.5l-0.3-0.1l-0.6,0.2l-0.3,0.2l-1.7,0.2l-0.7,0.7l-0.3,0.3l-0.3,0.1l-0.8-0.1l-1.2,0.1
		l-0.3,0.2h-0.5l-1.2-0.1l-0.5-0.5l0.2-0.9v-0.5l-0.2-0.3l-0.8,0.1H153l-0.8-0.2l-0.3-0.6l-0.1-0.3l0.2-0.8v-0.3l0.1-0.7l0.1-0.6
		l-0.6-0.5l-0.3-0.2h-0.7l-1.2,0.1l-0.7-0.1l-0.6,0.1l-0.7-0.1l-0.3,0.1l-1.7,0.7L145,314h-0.5l-0.9-0.1l-0.8-0.1l-0.6,0.2l-1.2-0.2
		l-0.5-0.7l-0.3-1.4l-0.3-0.7l-1.2,0.6l-0.9,0.2l-0.8-0.3l-1.3-0.2l-0.6,0.1l-0.5,0.8l0.2,1l0.2,1.4l0.8,0.2l1.6-0.1l1,0.6l1.6,0.6
		l-0.2,0.5l-1.3,0.7l-1.3,0.7l-0.1-0.3l-0.3-0.2l-0.6,0.3l-0.2,0.5l-0.9,0.8l-0.5,0.8l-0.7,0.7v0.7l0.1,0.7l0.5,0.8l0.3,0.8l0.3,0.8
		l0.8-0.3l0.9,0.1l0.6-0.2l0.5-0.6l0.5,0.1l0.3,0.3l0.3,0.2h0.6l0.5,0.1l0.2,0.7l-0.1,0.3l-0.3,0.3l-0.3,0.2l-0.7,0.3l-0.5,0.1
		l-0.9,0.7l-0.6,0.1l-0.5,0.1l-0.6,0.3l-0.3-0.2l-0.7-0.3l-0.3,0.2l-0.5-0.1l-0.3-0.3l-0.2,0.8l-0.2,0.2l-0.3,0.2l-1,0.8l-1.4,1.3
		l-0.5,0.6l-0.8-0.3l-0.5-0.3l-1.2,0.6l-0.6,0.2l-0.5,0.1l-0.3-0.3l0.2-0.5l0.8-1l0.1-0.6l0.3-0.2l0.7-0.3l0.9-0.7l0.6-0.7l-0.1-0.3
		l-0.5-0.2l-0.2-0.8l-0.3-0.2l-0.3-0.2l-0.1-0.3l0.3-0.2l0.5-0.2l0.5,0.1l0.3,0.2h0.7h0.3l1.4,0.2l1-0.5l0.3-0.3l0.1-0.3l-0.2-0.3
		l-0.2-0.7l0.1-0.6v-0.5l-0.3-0.2l-0.6,0.3l-0.9,0.3l-1.9,0.6h-0.5l-1.2-0.6l-0.5-0.3l-0.6-0.8l-0.2-0.3l0.7-0.2l1.2-0.7l0.2-0.3
		V318l0.3-0.5v-1.2l-0.2-0.6l-0.6,0.5l-0.6,0.5l-1.2-0.1l-0.6-0.1l-0.2-0.6l-0.2-1.2l-0.7-0.1l-0.3-0.1l-0.3,0.2l0.2,0.9l-0.5,0.8
		l-0.2-0.2l-0.2-0.3l-0.5-0.2h-0.6l-0.6,0.1l-0.8,0.6l-0.5-0.2l-0.6-0.7l-0.9-0.2l-0.6-0.7l-0.6-0.1l-0.5,0.2l-0.5,0.1l0.1,0.5
		l0.6,0.1h0.6l0.7,0.6l0.3,0.7h0.5l0.6,1l0.8,0.2l0.2,0.6v0.6l0.3-0.2l0.2-0.5l0.3-0.1l0.7,0.5l1,0.5l0.3,1.2v0.6l-0.1,0.6l-0.7,0.3
		v0.5l0.5-0.2l0.5,0.2v0.6l-0.2,0.3l-1.3,0.7l-0.6,0.2v0.3l0.3,0.2l0.6,0.5h0.6l0.5,0.2l0.3,0.5l-0.3,0.3l-0.6-0.2l-0.7-0.1L123,326
		l-1-0.1h-0.6l-0.6,0.2l-0.3,0.2l-0.7,0.7h-0.6l-0.3,0.3l-0.6,0.8l-0.2,0.7v0.8v0.3l0.2,1l-0.3,0.3l-1,0.3l-0.6,0.1l-0.8-0.7
		l-0.8-0.1h-0.5l-0.8,0.2l-1.2,0.5l-1.5,0.8l-1,0.7l-0.6,0.3l-0.2-0.3l0.6-1v-0.8l-0.3,0.5l-0.7,0.6h-0.7l-0.7,0.3l-0.6,0.5
		l-0.5,0.3l-0.8,0.6l-0.7,0.2l-0.3-0.3l-0.3-0.6l-0.5-0.2l-0.2-0.6l0.3-0.1l0.6,0.2h0.6l0.7-0.2l0.3-0.5l-1.5-0.2l0.9-0.6l0.5-0.3
		l-0.5-0.3l-0.2,0.2l-1.2,0.2l-0.5-0.6l-0.3-1l0.5-0.1l-0.2-0.3l-0.5-0.1l-0.5-0.6l-0.3-0.1l-0.8,0.2l-0.1,0.5l-0.1,0.6l0.5,0.9
		l0.8,0.5l0.3,0.8l-0.1,0.6h-0.5l-0.9-0.2l-0.9-0.3l0.2,0.6l-0.3,0.3l-1.3,0.6l-0.7,0.6l-1.2,1.2l-1,1.5l-0.8,0.9l-1.4,0.9l-1.2,0.7
		l-1.4,0.3l-0.3,0.3l-0.6-0.2l0.1-0.6l0.2-0.5l-0.1-0.3l-0.6-0.5v-0.6l0.7,0.5l1.3,0.3l0.6-0.6l-0.2-0.5l0.2-0.9l0.7-0.7l0.8-0.1
		l-0.1-0.5l-0.5-0.2l-0.5-0.8l-0.2,0.2l-0.6,0.6l-0.6-0.2l-0.3-0.2l-0.7-0.9l-0.8,0.3l-0.8,0.1l0.6-1l-0.3-0.3l-1.2-0.1l-0.3,0.2
		l0.1,0.5l-0.3,0.2l-0.7-0.1l-0.5-0.1h-0.8l-0.9,0.2l0.1,0.3l0.6,0.7l0.9,0.2l1-0.2l0.5-0.2H88l0.5,0.8l-0.5,0.6l-1.4,0.1l-0.8,0.1
		l-0.6,0.2l-0.6,0.3l-1.3,0.5l-0.7,0.1l-0.7-0.3l-0.8,0.3l-0.6,0.1l-0.3-0.3v-0.6l0.8-0.3l-0.7-0.1h-1l-0.3-0.1l-0.3-0.2l-0.3-0.2
		l0.1-0.6l0.7-0.2l-0.2-0.5l-1.2-0.1l-0.3-0.2l-1.5-0.3l-0.7-0.6l-0.5,0.5l-0.7,0.2l-0.1,0.8l-0.6,0.8l0.2,0.3l0.7,0.2l0.1,0.9
		l0.7-0.2l0.8-0.1h0.5l0.3-0.3l0.6,0.1l0.3,0.1l0.8,0.5l0.2,0.5l-0.3,0.2l-0.5,0.2l-0.9,0.2l-0.7,0.2l-0.6,0.2l-1.5,0.9l-0.3,0.3
		l-0.7,0.7l-0.7-0.3l-1,1.3h-0.9l-0.3-0.3h-0.5l-0.8,0.6l-1.6,1.2l-0.7,0.3l-0.8,0.1h-0.3l-0.6,0.1h-0.5l-2-0.3l-0.3-0.5l-0.3-0.2
		l-0.7-0.1l-1.5,0.2h-0.6l-1.2,0.5l-1.3,0.7l-0.5,0.5l-1.3,1.7l-2.6,3.6l-0.2,0.7l-0.3,1l-0.1,0.6l-0.5,0.2l-0.8,0.9l0.1,0.5
		l-0.3,0.8l-0.5-0.1l-2.1,0.5l-0.5-0.2l-0.3-0.3h-0.5l-0.3,0.2l-0.6,0.5l-0.6,0.5h-0.8l-0.8-0.1l-1.2-0.5h-0.8l-0.6,0.2l-0.3,0.2
		l-0.5,0.3l-0.7,0.2l-0.8,0.9h0.5l0.8-0.6l0.5-0.2l0.9-0.1l0.5-0.3l0.9,0.6l0.1,0.3l-0.3,0.5l0.8,0.1l0.5-0.3l0.6-0.1l0.8-0.2
		l0.8-0.1h0.5l0.1,0.6l0.3,0.2l0.5,0.1h0.5l0.7-0.3l0.5-0.6l0.3,0.5l0.2-0.3v-0.8l0.6-0.2l0.8-0.3l0.1,0.3l-0.3,0.7l-0.3,0.5
		l-1.6,2.2l-0.1,0.6l-0.6,1l-0.5,1.9l-0.3,0.7l-0.2,0.3l-0.7,0.2h-0.7l-0.5,0.1h-0.5l-0.5-0.5l0.3-0.2l-0.2-0.6v-0.3l-0.6-0.2
		l-0.5-0.3l0.6-0.9l-0.5-0.9L43,358l0.3-0.1l-0.1-0.5h-1l-0.9,0.7h-0.3h-0.5v0.5l-0.3,0.1l-0.8-0.3l-0.6-0.1l-0.2-0.2l-0.3-0.9
		l-0.3-0.2l-1.3,0.3l-0.1-0.5l0.7-0.5l0.3-0.7l-0.6,0.5l-0.8-0.3l0.1-0.5l0.2-0.2l0.5-0.3l0.2-0.3l0.6-0.9l0.6-0.3l0.2-0.5l-0.5-0.3
		l-0.8-0.3l-0.1-0.7v-0.7l0.1-0.5l0.3-0.5l0.5-0.1h0.7l0.3-0.5l0.5,0.8l0.1,0.5l0.3,0.6l0.6-0.2l-0.1-0.5l0.2-1.3l0.1-0.9l-0.5,0.3
		l-0.6,0.1l-0.3,0.1l-0.9-0.6l0.5-0.2l0.3-0.2l0.6-0.5l0.5-0.8l-0.5-0.3l-1.2-0.5l-0.5,0.1l-0.1,0.3v0.7v0.5l-0.3,0.8l-0.9,0.3
		l-0.3-0.3l-0.2-1.6v-1v-1.3l0.3-0.3l0.2-1.4l-0.7,0.2l-0.5,0.5l-0.1-0.5l-1-0.5l-0.1-0.6l-0.6-0.3l-0.1-0.7l-0.2-0.5l-0.2-0.6
		l0.2-0.8H33l-0.5,0.2l-0.9,0.3v1.2l1.7,3.3l0.8,1.3v1.5l-0.6,0.6l0.7,0.3l0.2,0.5l0.6,0.2l0.2,0.3l0.2,0.5v0.7l-0.6,0.8l-0.5,0.3
		l-0.1,0.3l0.7,0.8l1,1l0.2,0.6l-0.1,0.6l-0.1,0.5l-0.7,0.6l-0.1,0.3l-0.2,1l-0.3,0.6l-0.3,0.6v1l-0.2,0.2h-0.7l-0.3,0.1l-0.5,0.7
		l-0.5,0.3l-0.6,1.3l-0.6,0.3l-0.6,0.1l-0.7,0.2l-0.2,0.3l0.1,0.6l0.1,0.6l0.7,0.5h0.8H32h0.8l0.6-0.9l0.8-0.1l0.6,0.1l0.7,1.2
		l2.1,1.2h1.3h0.5l0.8-0.3l0.5-0.3l0.5-0.6l1-0.2h0.5h0.3l0.6,0.3l1.3,0.8l0.1,0.5l-0.1,0.7l-0.6,1.2l-0.3,0.7l-0.2,0.9l-0.3,1
		l-0.1,1.9l-0.2,1.3v0.8l-0.1,0.8l-0.5,0.3h-0.5l-0.5-0.1l-0.2-0.7l-0.2-0.9l0.5-0.7l-0.1-0.5l-1.2-0.9l-0.3-0.6l-0.7-0.8l-0.6-0.5
		l-0.3-0.1h-0.7l-1.2,0.3l-0.5-0.5l-0.3-0.1l-0.6,0.1l-0.9,0.3h-0.6l-0.3,0.1l-1-0.1h-0.6l-0.5,0.1l-0.3,0.3l-1.2,1.2l-1.2,0.7
		l-0.9,0.2l-0.9,0.1l-0.5,0.1l-0.6,0.2l-0.9,0.1l-0.3-0.6l0.2-0.6l1.2-1l0.6-0.6l0.6-1.5l0.9-0.6l0.6-0.2l0.5-0.6l0.1-0.7l0.2-0.3
		l0.6,0.2l0.3-0.2l0.3-0.5l0.7-0.3l-0.1-0.5l-0.5,0.2l-1.3,0.3h-0.3l-0.9-0.2l0.1-0.5l0.1-0.5l0.3-0.5h0.7l-0.2-1l-0.8-0.5l-0.3-0.3
		l-0.2-0.3l-0.5-0.1l-0.7,0.3l-1,0.1l-0.5,0.1l-0.1,0.8l0.2,0.3l-0.2,0.5l-0.3,0.5l-0.3,0.7l-0.1,1.6l-0.5,0.3l-0.1-0.7l0.1-0.5
		l-0.1-0.8l-0.1-0.7l0.3-0.5l-0.1-0.3l-0.2-0.9l-1,1l0.2,0.5l-0.7,0.8l0.1,0.5l-0.6,0.7l-0.6,1.2l0.2,0.7l0.5,0.2l0.2,0.6l-0.2,0.3
		h-0.6l-0.3,0.3l-0.7,0.3l-0.2,0.3l-0.3,0.5l0.1,0.5l-0.1,0.7l0.5,0.3v0.6l-0.5,0.9l-0.2,0.8v0.3l0.2,1.2l0.7,1.5l0.3,0.9l0.2,0.6
		v0.5l0.1,0.5l0.7,0.5h0.6l-0.2-0.6l0.1-0.3l0.6,0.1l0.7-0.1l0.2,0.3l0.5,0.2l1.3,0.5l0.7-0.1l0.6-0.2l0.8-0.2l0.5,0.1L28,379h0.5
		l0.2,0.3l0.9,0.2l0.8,0.5l0.5,0.5l2.4,5.5l-0.3,0.5v0.6l0.1,0.9l-0.7,0.9l-0.6,0.3l-0.7-0.6l-0.6-0.7l-0.2-0.5l-0.1-1.2l-0.7-1.6
		l0.1-0.6l0.1-0.7l-0.6,0.5l-0.1,0.6l0.1,1v0.5l-0.2,0.3l-0.7,0.2l-0.7-0.6l-0.1,0.3v1.2l0.6,0.3h0.5l0.3-0.6l0.3,0.3l-0.1,0.6
		l0.1,1l0.1,0.6l-0.5,0.3l-0.7,0.3l-0.5,0.1l-0.3,0.3l0.1,0.7l-0.6,0.6l-0.7-0.2l-0.1,0.5l0.2,0.3h0.9l0.3-0.2l0.3-0.5l0.3-0.3
		l0.3-0.1l0.7-0.5l0.2,0.3l-0.2,0.9l-0.1,1.2l-0.1,0.5h1l1,0.3l0.5-0.1l0.9,0.5l0.5,0.1l0.2,0.5l0.2,0.2l0.1,0.3l-0.6,1l0.2,0.3
		l0.6,0.6l0.6,0.1l0.9,0.8l0.3,0.3l0.5,0.3l0.5,0.5l0.6-0.1l0.6-0.2l0.5-0.3l0.7,0.2l1,1.3l0.2,0.6l0.5,0.6l0.5,0.9l0.3,1.5l0.2,0.3
		l0.8,0.9l0.1,0.5l0.1,0.5l-0.3,0.5l-0.1,0.7v0.9l-1,1.3l-0.5,0.3l-0.6,0.6l-0.7,0.6l-0.9,0.8l-0.2,0.7L38,414l-0.7,0.9l-0.7,0.8
		l-0.2,0.5l-0.9,0.8l-0.5,0.2l-0.9,0.8l-1.2,0.1H32l-0.7,0.3l-0.9,0.8l-0.6,0.5l-1.4,1.3l-0.8,0.3l-1.3,0.8h-0.5l-0.3-0.8l-0.5-0.3
		l-1.2-0.1l-0.5-0.2l-0.2-0.1l-0.6-0.3l-0.3-0.3l-0.3-0.2l-0.5,0.2l-0.5,0.6l-0.2,0.5l-0.3,0.6l-0.8,0.5l-0.7,0.3l-0.5,0.1l-1.2,0.1
		l-1.3-0.1l-0.2-0.3l-0.2-0.8l-0.1-0.5l-0.9-0.1l-0.6-0.1l-0.6-0.3l-1-1l-0.2-0.5l-0.3-0.5h-0.5l-1.2,0.2l-0.8,0.3l-0.9,0.3
		l-0.8,0.1L7,418.7H6.4l-0.8,0.7l-0.7,0.9l-0.7,0.9l-0.5,0.3l-0.3,0.1l-0.8-0.2l-0.3-0.2L2,420.6l0.1-0.5l0.2-0.3l0.3-0.3l0.5-1
		v-0.7l-0.2-0.6l-0.2-0.5l0.1-0.9l-0.3-1.3L2,413.7l-0.7-0.8h-1L0,412.6l-0.2-0.9v-0.5l0.7-0.5l-0.9-0.1l-0.5-0.6l0.3-0.1l1.2,0.2
		l0.5-0.5v-0.6l0.2-0.2l0.3-0.3L2,409l0.3,0.2l0.6-0.1l0.5,0.2l0.6,0.5l0.3,0.2l0.7,0.3h0.8l-0.2,0.6l-0.1,0.6l0.1,0.3l0.6,0.7
		l0.3,0.7l-0.1,0.8l0.2,0.3l0.6-0.3l-0.1-0.5L7,412.1l-0.3-0.5l0.5-0.3l0.5-0.2l0.5-0.6l0.3-0.1l0.2-1.4l0.1-0.5l0.2-0.6l0.1-0.6
		l-0.8,0.1H7.7H7.2l-0.3,0.1l-0.7-0.1l-0.3-0.7v-0.9L5.4,406l-0.2,0.6l-0.2,0.3l-0.1,0.7H4.2l-0.1-0.7l-0.3-0.5L3.6,406v-0.7v-0.5
		l0.1-0.5l-0.6-0.6l-0.3-1.3l-0.5,0.3v0.7l0.3,1.7l0.1,0.6l0.5,0.6l-0.2,0.7l-0.5,0.6l-0.3-0.5v-1l-0.5-0.9L1.6,405l-0.9-0.8
		l-0.5-0.1l-1.3-0.5h-0.6l-0.5,0.1l-0.6,0.3l-0.5-0.1l-0.9-0.2v-0.3l-0.5-0.8l-0.1-0.6l0.1-1.2l0.3-0.2l0.3,0.2l1.2-0.8l0.7-0.5
		l-0.5-0.2V399l0.2-0.3v-0.6l-0.6,0.5l-0.6-0.3l-0.5-0.8l-0.3-0.6l-0.8-0.8l-0.5-1.2l-0.7-0.9l-0.5-0.2l-0.6-0.2l-0.3,0.5L-8,394
		h-0.6l-0.2-0.5l0.1-0.9l-0.1-0.5l-0.5-0.5l0.2-0.3l0.2-0.3l0.5-0.1l0.5-0.5l0.2-0.5l0.3-0.2l0.6,0.2h0.5l0.3,0.2h1l0.7-0.1l0.3-0.2
		l0.9,0.1l0.7-0.2l0.3-0.3l0.1-0.8l-0.7,0.2h-0.5l-0.6-0.2h-0.3l-0.5,0.1l-0.7-0.1l-0.6,0.2l-0.8,0.2l-0.7,0.2l-0.2-0.2l-0.2-0.3
		l-0.7-0.8l-0.6-1l-0.1-0.5l0.3-0.7l0.3-0.9l0.3,0.5l-0.1-1.9l-0.3-0.2l0.1-0.7l-0.2-0.6l0.6-0.6l-0.3-0.7l0.5-0.3l-0.1-0.8l0.3-0.2
		l-0.1-0.6l-0.7-0.1l-1.3,0.6l-0.2,1.2l0.2,0.9l-0.3,1.3l-0.5-0.3l-0.5,0.2h-0.3l-0.2-0.3l-0.5-1.3l-0.3-0.5l-1.6-1.4l-0.1-0.5
		l0.1-0.9v-0.5l-0.3-0.7v-0.7l0.1-2l0.2-0.7l0.5-0.2l0.2-0.5l-0.2-0.6l0.1-0.5l0.8-2.1l-0.1-0.6l0.8,0.1l0.3,0.1h0.9l-0.6-1.4v-0.5
		l0.6-1.3l0.2-1l-0.1-0.7l-0.1-0.6l-0.6-0.6l-0.3-0.8l-0.3-0.3l-0.6-1.3l-0.1-0.3l0.3-0.7l0.2-0.5l0.1-0.3l0.2-0.3l0.7-0.6l1.4-1
		l0.6-0.9l0.5-0.2l1,0.1l0.7-0.6l0.3-0.9l0.3-0.6l0.1-1.6l-0.2-0.8l0.1-0.5l-0.1-0.7l0.3-0.9v-0.6l-0.1-0.6v-0.9l-0.5-1.4l0.3-0.3
		l0.3-0.1h2.1h0.3h0.5l0.8-0.2l0.3-0.1l0.6-0.2l1.2-0.5l1.7-0.2l0.7-0.9l-0.2-0.5l-0.1-0.3l-0.1-0.8l0.3-0.6l0.3-0.3l0.7-0.7
		l0.7-0.9L4,337.8l-0.7-0.7l-0.5-0.3l0.6-0.5l0.7-0.3l0.1-0.6v-0.6l-1,0.5l-1.4,0.1L1,335.1l-0.3,0.2L0.3,336l-1.4-0.5l-0.3-0.6
		l-0.1-0.8l-0.7,1.7v0.5l-0.1,0.3l-0.3,0.3h-0.5l-0.7-0.9l-0.1-0.5l0.1-0.3l-0.1-0.6l-0.1-0.9l0.1-0.5l-0.3-0.3v-0.5l0.1-0.7l-0.3-1
		l-1,0.3l-0.6-1l-0.1-0.6l0.8-0.9l0.3-0.6l-0.2-0.3l-0.8,0.6l-0.6,0.8l-1.3-1.2l0.1-0.5l-0.2-0.6v-0.7v-0.7l0.2-0.6l0.2-0.7l0.2-0.6
		l0.2-0.6l0.3-0.3h0.6l0.5,0.6l0.2,0.6l0.2,0.6l0.5,0.5l0.7,0.1l0.6-0.2l0.6-0.2l0.7-0.1l0.6-0.1l0.6-0.3l0.6-0.2l0.6-0.3l0.6-0.3
		l0.5,0.3l0.7,0.1l0.3-0.6l0.1-0.6l0.2-0.7l0.1-0.6l0.2-0.6l0.3-0.6l0.2-0.6l0.3-0.6l0.2-0.6v-0.7l0.1-0.7l0.1-0.6l0.1-0.7v-0.7
		l0.1-0.7v-0.6l0.1-0.7l0.1-0.7l0.1-0.6l0.2-0.6l0.2-0.7l0.3-0.5l0.5-0.6l0.5-0.5l0.5-0.5l0.5-0.5l0.6-0.3l0.6-0.1l0.5,0.2l0.7,0.2
		l0.6,0.3h0.6h0.7l0.7-0.1l0.6-0.2l0.7-0.1l0.6-0.1l0.6-0.3l0.3-0.6l0.5-0.5l0.6-0.1l0.6,0.3l0.6,0.2l0.6-0.1l0.7-0.2h0.6h0.7h0.7
		l0.7,0.1l0.6,0.1l0.7,0.1l0.6,0.2l0.6,0.2l0.7,0.1l0.6-0.2l0.6-0.3l0.6-0.2l0.5-0.6l0.2-0.6l0.1-0.8l1,0.6l0.3,0.5l0.5,0.6l0.5,0.5
		l0.6,0.2h0.7h0.7h0.7h0.7h0.7l0.1-0.8l0.1-0.7l0.2-0.6l-0.5-0.6l-0.3-0.5l-0.2-0.6l0.2-0.7v-0.6l-0.5-0.6l-0.5-0.3l-0.6-0.5
		l-0.1-0.6l0.2-0.7h0.3l0.1-1l-0.1-0.7l-0.2-0.6v-0.7v-0.7v-0.7V294v-0.7v-0.7v-0.7l0.1-0.7l0.1-0.6v-0.7l-0.5-0.5l-0.6-0.2
		l-0.6-0.3l-0.5-0.6l0.1-0.7L30,287l0.3-0.6l0.6-0.3l0.7-0.1l0.6,0.3l0.3,0.5l0.6,0.2l0.6-0.3l0.5-0.5l0.5-0.5l0.3-0.6l0.3-0.6
		l0.8,0.3l0.7,0.1l0.5,0.3l0.6,0.5l0.3,0.5l0.5,0.6l0.5,0.5l0.5,0.5l0.5,0.6l0.5,0.3h0.7l0.6-0.1l0.6-0.3l0.6-0.3l0.2-0.6l0.2-0.6
		l0.3-0.6l0.5-0.6l0.6-0.2l0.6-0.1l0.6,0.3l0.6,0.2l0.6,0.3l0.3,0.6l0.2,0.6l0.2,0.6l0.6,0.3l0.6,0.2l0.7,0.1l0.5-0.3l0.6-0.5
		l0.5-0.5l0.3-0.6l0.5-0.5l-0.3-0.7l-0.5-0.5l-0.2-0.6l-0.2-0.6l-0.1-0.7v-0.6l0.5-0.5l0.7-0.1h0.7l0.3-0.5l0.1-0.6l0.1-0.7l0.3-0.6
		l0.5-0.3l0.5-0.3l0.3-0.6l0.6-0.2l0.6,0.3l0.3,0.6l0.5,0.3l0.6,0.3l0.7,0.1l0.6-0.1l0.6-0.5l-0.2-0.7l-0.5-0.6l-0.1-0.6l-0.2-0.6
		l-0.2-0.6l-0.5-0.6l-0.3-0.6l-0.2-0.6l-0.2-0.6l-0.5-0.5l-0.6-0.2H55l-0.5-0.6v-0.7v-0.7l0.1-0.6l0.1-0.7v-0.7v-0.7l-0.2-0.6
		l-0.6-0.3l-0.5-0.5l-0.2-0.6V266l0.7-0.1l0.6,0.2l0.7,0.2l0.6,0.2h0.7l0.6-0.3l-0.1-0.6l-0.6-0.3v-0.7l0.1-0.6l0.3-0.6l0.5-0.6
		l0.2-0.6l0.1-0.6V261l-0.2-0.6l-0.1-0.7l0.2-0.6l0.5-0.5l0.5-0.5h0.7l0.3,0.6l0.6,0.5l0.3,0.6H61l0.5-0.5l0.3-0.6l0.5-0.5h0.6h0.7
		l0.7-0.1H65l0.6,0.1h0.7l0.3-0.5l0.2-0.6l0.2-0.7l1,0.1l0.7,0.1l0.6-0.2l0.5-0.5l0.6-0.5l0.2-0.6l0.3-0.6l0.6-0.2l0.6,0.2l0.7,0.1
		h0.6h0.7h0.7l0.7-0.2l0.6-0.2l0.5-0.3l0.5-0.5l0.2-0.6l0.5-0.6l0.5-0.5l0.5-0.5l0.6-0.3l-0.2-0.5l-0.5-0.5l-0.5-0.6l-0.3-0.5v-0.6
		l0.5-0.3l0.7-0.1h0.7l0.6-0.2l0.7-0.1h0.7h0.7l0.7,0.1h0.6h0.7l0.7,0.1l0.6-0.1l0.7-0.2l0.6-0.2l0.5-0.3l0.6-0.3l0.6-0.5l0.5-0.5
		l0.3-0.5l0.3-0.6l0.6-0.5l0.6-0.3l0.6-0.2l0.6-0.2l0.5-0.5v-0.7l0.2-0.7l0.3-0.5l0.5-0.6l0.5-0.5l0.6-0.3l0.5-0.5l0.5-0.5l0.5-0.6
		l0.5-0.5l0.2-0.6l0.2-0.6l0.3-0.6l0.2-0.6l0.3-0.6l0.1-0.7l-0.5-0.2l-0.2-0.7l-0.1-0.6l-0.2-0.6l0.3-0.5l0.6-0.3l0.6-0.2l0.6-0.5
		v-0.7v-0.7l0.3-0.6l0.5-0.3l0.6-0.5l0.5-0.5l0.3-0.5v-0.7l-0.1-0.7l-0.2-0.6l-0.6-0.1l-0.7-0.1l-0.7-0.1l-0.6-0.2l-0.2-0.6v-0.7
		v-0.7l-0.1-0.7v-0.7V220l-0.1-0.7l0.2-0.6l0.6-0.2l0.2-0.6l-0.1-0.7l-0.1-0.7l-0.1-0.6v-0.7l-0.2-0.6l-0.5-0.6l-0.2-0.6v-0.7v-0.7
		l-0.1-0.7l-0.1-0.6l-0.2-0.6l-0.1-0.7l0.1-0.7l0.3-0.5l0.3-0.6l0.1-0.7l-0.6-0.6l-0.2-0.6l0.2-0.6l0.1-0.7l0.2-0.6l0.3-0.6l0.1-0.6
		l0.2-0.7l-0.1-0.6l0.2-0.6l0.1-1v-0.7v-0.7v-0.7l0.1-0.7l0.3-0.5l0.6-0.2l0.6-0.3l0.5-0.5l0.5-0.5l0.5-0.6l0.5-0.5l0.5-0.5l0.2-0.6
		l0.5-0.6l0.3-0.5l0.5-0.6l0.3-0.6l0.1-0.6l0.5-0.5v-0.6v-0.7v-0.7l-0.1-0.8v-0.7v-0.7l0.5-0.3h0.7h0.6l0.7-0.1l0.6-0.1l0.7-0.1
		l0.7,0.1l0.6-0.1l0.7-0.2l0.5-0.3l0.7-0.2h0.7l0.6,0.1l0.6-0.1v-0.7l0.1-0.7v-0.7l0.2-0.5l0.5-0.5l0.6-0.3l0.5-0.5l0.6-0.5l0.5-0.5
		l0.1-0.6l-0.3-0.6l-0.6-0.1l-0.7-0.1h-0.7l-0.3-0.6v-0.7l0.1-0.6l0.2-0.6l0.2-0.7v-0.6l0.2-0.7l0.2-0.6l0.1-0.6l0.5-0.6l0.5-0.5
		h0.9l0.7,0.1l0.6-0.1l0.3-0.6l0.5-0.5h0.6l0.6,0.3l0.6,0.3l0.6,0.3l0.6,0.1l0.7,0.1l0.6,0.2h0.7h0.7l0.6-0.2l0.6-0.2l0.5-0.5
		l0.3-0.6l0.2-0.6v-0.6l-0.2-0.6l-0.2-0.7l-0.1-0.6l0.1-0.7l0.3-0.5l0.6-0.3l0.6-0.3l0.6-0.3l0.6-0.3l0.1-0.6l-0.3-0.6l0.1-0.7
		l0.6-0.3l0.5,0.3l0.7,0.2l0.6-0.2l0.6-0.2l0.6-0.3l0.6-0.3l0.5-0.6l0.5-0.3l-0.2-0.8l-0.2-0.7l-0.2-0.7l-0.3-0.6l-0.1-0.7l-0.2-0.6
		l-0.2-0.6l-0.2-0.6l-0.2-0.7l-0.2-0.6l-0.5-0.5l-0.3-0.6l-0.5-0.6l0.1-0.6l0.1-0.7l0.1-0.6l0.1-0.7v-0.7V149v-0.7l-0.1-0.7
		l-0.3-0.5l-0.2-0.7l-0.2-0.6l-0.1-1v-0.7l0.1-0.7l0.6-0.3h0.7l0.6,0.1l0.7-0.1l0.6-0.3l0.5-0.3l0.6-0.3l0.2-0.8l0.3-0.6l0.6-0.2
		h0.6l0.6,0.3l0.6-0.3l0.5-0.5l0.5-0.5l0.3-0.6l0.3-0.5l0.5-0.3l0.6-0.5l0.5-0.5l0.5-0.5l0.2-0.6l0.3-0.6l0.3-0.6l0.2-0.6l0.1-0.7
		V133l-0.2-0.6l-0.2-0.6l-0.2-0.6l-0.6-0.5l-0.5-0.5l-0.1-0.7l-0.1-0.6l-0.2-0.7l-0.3-0.6l-0.5-0.3l-0.6-0.5l-0.3-0.6l-0.5-0.5
		l-0.3-0.6l-0.1-0.7l0.2-0.6l0.2-0.6l0.3-0.6v-0.7l-0.3-0.6l-0.2-0.6l-0.1-0.6l-0.2-0.6l-0.5-0.6l-0.3-0.6l-0.6-0.3l-0.3-0.6
		l-0.3-0.6l-0.6-0.5l-0.5-0.5l-0.5-0.6l-0.1-0.6v-0.7l0.5-0.5h0.6l0.6-0.5l0.1-0.6l-0.2-0.6l-0.3-0.6L134,111v-0.7l0.1-0.6l0.5-0.6
		l0.5-0.5l0.6-0.3l0.6-0.3l0.6-0.2l0.7-0.1h0.7l0.5-0.5l0.2-0.6l0.6-0.6l0.3-0.6l0.3-0.5l0.5-0.6l0.5-0.5l0.5-0.5l0.3-0.6l0.3-0.6
		l0.2-0.6l0.5-0.6l0.5-0.5l0.6-0.2l0.7-0.1h0.7l0.6,0.1l0.7,0.2l0.6,0.2l0.2-0.6l0.1-0.7l0.1-0.6l-0.1-0.7l0.1-0.7l0.2-0.7v-0.7
		l0.1-0.6l0.1-0.7l0.2-0.6l0.2-0.6l-0.7-0.5l-0.6-0.2l-0.6-0.3l-0.5-0.5l-0.6-0.5l-0.5-0.3l-0.6-0.5l-0.2-0.7l0.3-0.6l0.5-0.5
		l0.3-0.6l0.2-0.6l0.3-0.6l0.3-0.6l0.1-0.6l-0.1-0.7V85l0.2-0.3l0.3-0.6l0.3-0.6l0.2-0.6l0.1-0.7l0.1-0.6l0.3-0.7l0.2-0.6l0.2-0.6
		v-0.7v-0.7l0.1-0.6l0.3-0.6l0.3-0.6l0.1-0.7l0.2-0.6l0.3-0.6h0.7l0.5,0.5l0.5,0.5l0.5,0.5l0.6,0.5l0.5,0.3l0.7-0.1l0.6-0.1l0.7,0.1
		l0.6,0.2l0.7-0.1l0.2-0.6l0.5-0.5l0.7-0.2l0.6-0.1l0.6-0.3l0.6-0.3l0.6-0.1l0.5,0.5l0.2,0.6l0.5,0.6l0.5,0.5l0.5,0.5l0.6,0.5
		l0.6-0.1l0.6-0.2l0.3-0.6l0.2-0.6l0.5-0.5l0.7-0.2l0.2,0.6l0.1,0.7l0.2,0.6l0.6,0.5l0.6-0.2l0.7-0.1l0.7,0.1l0.7,0.1l0.6,0.2
		l0.6,0.3l0.5,0.5l0.7,0.1l0.6,0.1h0.7L174,79l0.7-0.1l0.6-0.2l0.6-0.1l0.7-0.1l0.7-0.1h0.7l0.6,0.1l1,0.1l0.2,0.6l0.2,0.6l0.2,0.6
		l0.6,0.3l0.6,0.3l0.6,0.3l0.2,0.6l0.5,0.5l0.2,0.5l0.2,0.7v0.7l-0.2,0.6l-0.2,0.6l-0.1,0.7v0.7l0.5,0.3h0.7l0.7,0.2l0.2,0.6
		l0.2,0.6v0.7l-0.1,0.7l0.2,0.6l0.6,0.2l0.7,0.1l0.5,0.5l0.3,0.6l0.2,0.6v0.7l0.1,0.7v0.7l-0.1,0.8l0.6,0.1l0.6,0.2l0.7-0.1l0.7-0.1
		l0.6-0.1l0.7-0.1l0.6-0.3l0.5-0.3l0.6-0.2l0.6-0.3l0.6-0.3l0.6-0.5l0.6-0.2l0.7-0.1h0.7h0.6l0.7,0.1l0.7,0.2l0.6,0.1l0.7,0.1h0.6
		h0.7l0.1-0.6l0.2-0.6l0.2-0.7l0.2-0.6l0.2-0.6v-0.9v-0.7L202,88l-0.5-0.5l-0.6-0.1l-0.6-0.3v-0.7l0.1-0.7l-0.3-0.6l-0.3-0.6
		l0.1-0.6h0.7h0.7l0.3-0.6l0.1-0.7l0.5-0.3l0.1-0.7l-0.3-0.5l-0.3-0.6l-0.7-0.5l-0.7-0.2l-0.2-0.7l-0.1-0.6l-0.1-0.7l-0.2-0.6
		l-0.3-0.6v-0.6l0.5-0.5l0.6-0.2l0.6-0.3l0.6-0.2l0.6-0.2l0.6-0.5l0.3-0.6l-0.1-0.6l-0.5-0.6l-0.5-0.5l-0.5-0.5l-0.5-0.5l-0.5-0.6
		l-0.5-0.5h-0.7h-0.7l-0.6,0.2h-0.7l-0.7,0.1l-0.6,0.1h-0.7h-0.7l-0.7,0.1h-0.7l-0.6-0.2l-0.6-0.3l0.1-0.7l0.3-0.6v-0.6l-0.2-0.7
		v-0.7l-0.1-0.6l-0.2-0.7l0.2-0.6l0.6,0.1l0.6-0.2l0.2,0.5l0.5,0.6l0.5,0.3l0.7,0.1l0.6-0.1l0.6-0.3l-0.1-0.7l0.5-0.3l0.5-0.5
		l0.5-0.3l0.7,0.1l0.6-0.2l0.5-0.5l0.6-0.2h0.7l0.6,0.1l0.7,0.1l0.5-0.5l0.6-0.3l0.5-0.5l0.6-0.2l0.6-0.5l0.6-0.2l0.6-0.2l0.6-0.3
		l0.3-0.6l-0.1-0.6l0.2-0.7l0.6-0.2l0.6,0.2h0.6l0.3-0.3l-0.2-0.7V57v-0.7l0.2-0.6l0.3-0.6l0.3-0.5l0.5-0.6l0.6-0.5l0.6-0.2l0.6,0.1
		h0.7l0.6-0.2l0.6-0.3l0.6-0.3l0.5-0.5l0.5-0.5l0.7-0.2l0.3,0.6l0.5,0.5h0.7l0.7-0.1l0.6-0.1l0.7-0.1l0.5,0.6l0.3,0.5l0.3,0.6
		l0.2,0.6l-0.1,0.7l-0.1,0.6l0.7,0.1l0.6-0.1l0.7,0.2l0.6,0.1l0.6,0.3l0.6,0.5l0.1,0.7l0.1,0.6l0.1,0.7l0.5,0.5l0.6,0.2l0.7-0.1
		l0.7-0.1l0.6,0.1l0.6,0.5l0.2,0.6l0.3,0.6l0.5,0.3l0.7,0.1l0.7-0.2l0.5-0.3l0.7-0.1l0.6-0.1h0.7l0.5,0.5l0.2,0.6l0.2,0.7l0.6-0.2
		l0.7-0.2h0.7h0.6l0.7,0.3l0.3,0.5l0.5,0.6l0.1,0.6l-0.1,0.7V65h0.5l0.6-0.2l0.6-0.2l0.6-0.2l0.7-0.1l0.7-0.1l0.6-0.2l0.6-0.3
		l0.6-0.2l0.6-0.2l0.6-0.5l0.6-0.2h0.7h0.7l0.6-0.1l0.6-0.5l0.6-0.3l0.7-0.1l0.3,0.6l0.5,0.5l0.1,0.7l0.2,0.6l0.5,0.5l0.6,0.2
		l0.7,0.1l0.6-0.2l0.6-0.3l0.5-0.5l0.3-0.6l0.2-0.6l0.3-0.6l0.5-0.5l0.6-0.5l0.3-0.5l0.3-0.6l0.5-0.6l0.3-0.6l0.2-0.6l-0.2-0.6v-0.7
		l0.5-0.5h0.7h0.7l0.7-0.1l0.6-0.2l0.6-0.3l0.5-0.6l0.6-0.3L262.4,54.5L262.4,54.5"/>
	<path vector-effect="none" class="st0" d="M194.3,314.1l0.6,0.3l0.7-0.1h0.6l0.2,0.6l-0.1,0.7l-0.2,0.6l-0.6,0.3l-0.6,0.1l-0.7,0.1
		l-0.6,0.2l-0.5,0.5l-0.5,0.6l-0.3,0.6l-0.2,0.6l-0.2,0.6l-0.1,0.6v0.7l0.3,0.6l0.5,0.5v0.6l-0.5,0.6l-0.3,0.6l-0.3,0.5l-0.1,0.7
		l0.1,0.6l0.1,0.7l0.3,0.3l0.3,0.6l-0.1,0.5l0.3,0.5l-0.3,0.6l-0.5,0.5l-0.7,0.2l-0.1-0.7l-0.6-0.2l-0.5,0.5l-0.6,0.1l-0.1-0.7
		l0.5-0.5l-0.3-0.5l-0.6,0.2l-0.2-0.6l0.2-0.7v-0.6l-0.7,0.1h-0.6l-0.2-0.6l0.1-0.6l0.5-0.6l0.2-0.6l0.3-0.6l0.6-0.2h0.7l0.5-0.5
		l0.2-0.6l-0.2-0.5l-0.7-0.1l-0.7,0.1l-0.6,0.2l-0.6,0.3l-0.6-0.3h-0.7l-0.6-0.2v-0.6l0.2-0.6l-0.3-0.6l0.3-0.6l0.6-0.5l0.6-0.2
		l0.5-0.3l0.6-0.3l0.7-0.1h0.6l0.3-0.5l0.1-0.7l-0.1-0.7l0.1-0.6l0.6-0.3l0.3,0.6l0.6-0.2l0.7-0.1h0.6l0.6-0.2l0.6-0.3L194.3,314.1
		L194.3,314.1"/>
	<path vector-effect="none" class="st0" d="M469.4,188.2l0.5,0.5l0.6,0.2l0.3,0.6l-0.1,0.7l-0.2,0.6v0.7l0.1,0.7v0.7l-0.3,0.6
		l-0.6,0.2l-0.7,0.1l-0.6,0.2l-0.6-0.3l-0.5-0.5h-0.7l-0.7,0.1l-0.6,0.2h-0.7l-0.7-0.1l-0.6-0.3l-0.8-0.2l-0.7,0.1l-0.7,0.1
		l-0.7,0.1h-0.7l-0.7-0.1l-0.7-0.1l-0.6-0.2l-0.5-0.5l0.2-0.7l0.5-0.6l0.5-0.5l0.6-0.3l0.6-0.2l0.7-0.1l0.7,0.1l0.5,0.5l0.6,0.2
		l0.7-0.1l0.6-0.3l0.6-0.3l0.5-0.6l0.3-0.5l0.6-0.2l0.7,0.1l0.6,0.2h0.7l0.6-0.3l0.5-0.5h0.7L469.4,188.2"/>
	<path vector-effect="none" class="st0" d="M181,323l0.6,0.2h0.7l0.2,0.5l-0.1,0.6l-0.6,0.5l-0.7-0.1l-0.5,0.2l-0.3,0.6l-0.2,0.6
		h-0.6l-0.7-0.1l-0.6-0.2l-0.5-0.3l-0.7,0.1h-0.7l-0.6,0.3l-0.2,0.6l0.3,0.6l-0.2,0.3l-0.7-0.1l-0.9,0.3l-0.3-0.5l0.1-0.6l0.2-0.6
		l0.2-0.6l0.1-0.6l0.6-0.3l0.7-0.2l0.5-0.3l0.6-0.3l0.5-0.3l-0.6-0.3l-0.6-0.2l0.1-0.6l0.7-0.2l0.6-0.1l0.6-0.2l-0.2-0.6l0.2-0.7
		l0.6-0.2l0.7-0.2h0.7l0.5-0.2l0.6-0.3l0.7-0.2l0.6,0.2l0.3,0.5v0.6l-0.3,0.6l-0.5,0.6l-0.5,0.5l-0.2,0.6L181,323L181,323"/>
	<path vector-effect="none" class="st0" d="M229.2,292.7l0.5,0.6l0.5,0.1l0.7-0.6l0.3-0.1h0.6v0.5l-0.2,0.5l-0.8,0.5l-0.5,1
		l-0.5,0.9l-0.1,0.5v0.3l0.7,0.2l0.6,0.2l-0.2,0.5l-0.5-0.2l-0.7,0.2h-0.5l-0.5,0.1l-0.5,0.6h-0.6l-0.5-0.7l-0.5-0.3l-0.3,0.2
		l-0.5-0.1l-1.2,0.2l-0.3-0.2l-0.5-0.2l0.3-0.5l1.3-1.3l0.2-0.3l0.2-1.2l-0.1-0.5v-0.5l0.3-0.3l0.3-0.1h0.5l0.3,0.3l0.5,0.1l0.6-0.3
		l0.5-0.5l0.3-0.2l0.3,0.3L229.2,292.7L229.2,292.7"/>
	<path vector-effect="none" class="st0" d="M40.6,399l-0.7,0.2l-0.6-0.5l-0.2-0.6l0.1-0.7l-0.5-0.6l-0.1-0.6l-0.5-0.5h-0.7l-0.6-0.3
		l-0.6-0.3l-0.5-0.3l-0.6-0.3l-0.1-0.6l-0.3-0.6l0.5-0.5l0.7-0.1h0.5l0.3-0.5l0.5,0.3l0.5,0.5h0.6l0.6,0.3l0.5,0.5l0.3,0.6l0.1,0.7
		l0.1,0.6l0.3,0.6v0.7l0.1,0.7v0.6L40.6,399L40.6,399"/>
	<path vector-effect="none" class="st0" d="M240.1,291.7l-0.3,0.5l-0.7-0.1h-0.7l-0.6,0.1l-0.6,0.3l-0.5,0.1l-0.7-0.1l-0.3-0.5
		l-0.5-0.5l-0.3-0.6l-0.7-0.1v-0.6l0.3-0.6l-0.3-0.6l0.1-0.6l0.6-0.3l0.6-0.2l0.6-0.3l2.6-0.7l0.2,0.8l-0.3,0.6l0.3,0.5l0.5,0.6
		l0.1,0.6l-0.1,0.7l0.5,0.5L240.1,291.7L240.1,291.7"/>
	<path vector-effect="none" class="st0" d="M46.9,378.8l-0.7,0.1l-0.6-0.2l-0.6-0.3l-0.2-0.6V377l-0.3-0.6l-0.1-0.6l0.6-0.2l0.5-0.5
		l0.2-0.6l0.3-0.6l0.5-0.6l0.5-0.3l0.6-0.1l0.5,0.5l0.6,0.2l0.7,0.1l0.6,0.3v0.7l-0.3,0.6l-0.5,0.3l-0.1,0.7l-0.1,0.6l-0.5,0.6
		l-0.2,0.6l-0.6,0.3L46.9,378.8L46.9,378.8"/>
	<path vector-effect="none" class="st0" d="M219.8,301.3l0.5,0.2l0.5-0.1l0.6-0.1h0.5l0.3,0.1l0.1,0.3l-0.1,0.3l0.2,0.3l0.5,0.3
		l0.3,0.2l-0.3,0.3l-0.5-0.1l-0.2,0.5l-0.1,0.5l0.3,0.1l0.2,0.5l-0.3,0.2l-0.3,0.1l-0.3,0.3l-0.1,0.3l-0.5,0.1l-0.5-0.3l-0.3-0.1
		l-0.5,0.2l-0.3-0.2v-0.3l-0.1-0.5l-0.2-0.5l-0.5,0.1l-0.3-0.2l-0.1-0.5l0.2-0.3l0.5-0.3l0.1-0.3l0.1-0.5l0.3-0.3L219.8,301.3
		L219.8,301.3"/>
	<path vector-effect="none" class="st0" d="M218.5,296.3h0.5h0.6h0.3l0.2,0.3l-0.3,0.3l-0.2,0.3l0.3,0.2l0.3,0.3l-0.5,0.1h-0.6h-0.5
		l-0.1,0.5l-0.6,0.1l-0.5,0.2l-0.2,0.3l0.1,0.5v0.5l-0.3,0.5l-0.3,0.3l-0.5-0.1l-0.5-0.1v-0.5l0.2-0.5l0.3-0.3l0.2-0.5l-0.1-0.5
		l0.1-0.5v-0.5v-0.5l0.1-0.6l0.2-0.3l0.6-0.1l0.5,0.1L218.5,296.3L218.5,296.3"/>
	<path vector-effect="none" class="st0" d="M285.5,295.6l-0.7,0.1l-0.6-0.1l0.2-0.6l0.6-0.2l0.6-0.2l0.6-0.2l0.6-0.2l0.6-0.2
		l0.6-0.3l0.6-0.3l0.6-0.2l0.6-0.2h0.7l0.1,0.6l-0.3,0.5l-0.5,0.5l-0.6,0.3l-0.6,0.2L288,295l-0.6,0.2l-0.6,0.2l-0.7,0.1H285.5"/>
	<path vector-effect="none" class="st0" d="M462,182.2l-0.1,0.7l-0.5,0.5l-0.2,0.6l-0.1,0.7l-0.1,0.7l-0.2,0.6l-0.5,0.2l-0.6-0.5
		l-0.6,0.1h-0.7l-0.7-0.2l-0.1-0.7l0.1-0.6l0.5-0.5l0.5-0.6l0.6-0.5l0.5-0.5l0.6-0.1l0.6,0.2l0.6-0.3L462,182.2L462,182.2"/>
	<path vector-effect="none" class="st0" d="M-49,367.2l-0.6,0.2l-0.6-0.2h-0.6l0.1,0.7l-0.6,0.2l-0.3-0.1l-0.3-0.6l-0.1-0.7l0.1-0.7
		l0.1-0.6l0.2-0.6l0.3-0.6l0.6-0.2l0.7-0.2l0.6-0.1h0.6l0.6,0.5l0.1,0.6l-0.1,0.7l-0.1,0.7l-0.2,0.6L-49,367.2L-49,367.2"/>
	<path vector-effect="none" class="st0" d="M244.9,270.3l-0.6,0.3l-0.6-0.2l-0.5-0.8l0.5-0.6l0.1-0.6l0.5-0.5l0.5-0.3l0.3-0.5h0.7
		l0.5,0.5l0.3,0.1v0.7l-0.3,0.5l-0.3,0.6l-0.6,0.3L244.9,270.3L244.9,270.3"/>
	<path vector-effect="none" class="st0" d="M239.1,236.3l-0.2,0.3l-0.6-0.3l-0.3-0.6l-0.2-0.3l-0.2-0.2l-0.3-0.3l-0.2-0.6v-0.6V233
		v-0.6l0.2-0.3l0.6,0.3l0.3,0.3l0.2,0.2v0.6l0.3,0.3l0.2,0.2v0.7l0.3,0.2l0.2,0.6L239.1,236.3L239.1,236.3"/>
	<path vector-effect="none" class="st0" d="M215.2,306.6l0.2,0.6h0.3l0.3-0.1l0.3-0.5h0.5v0.3l-0.3,0.3v0.6v0.5h-0.7l-0.5-0.3
		l-0.7-0.1l-0.3,0.2l-0.3,0.7l-0.2,0.3l-0.3,0.1l-0.3-0.2v-1.3l-0.1-0.6l0.2-0.5l0.3,0.2l0.2,0.2l0.9-0.7L215.2,306.6L215.2,306.6"
		/>
	<path vector-effect="none" class="st0" d="M206.4,308.7l-0.5,0.5l-0.3-0.2l-0.2-0.6l-0.5-0.6v-0.6l0.6-0.5l0.5-0.3l0.7,0.1l0.8,0.5
		l0.2,0.6l-0.1,0.7l-0.5,0.3L206.4,308.7L206.4,308.7"/>
	<path vector-effect="none" class="st0" d="M22.8,373.1l-0.2,0.3h-0.5h-0.6l-0.3,0.3h-0.5l-0.3-0.3l-0.1-0.5l0.3-0.3l0.3-0.3
		l0.3-0.3l0.3-0.3l0.3-0.5l0.2,0.2l0.5,0.2l0.5,0.2l0.1,0.5l-0.1,0.5L22.8,373.1L22.8,373.1"/>
	<path vector-effect="none" class="st0" d="M45.5,416.1l-0.6,0.2h-0.6l-0.2-0.2l0.2-0.3l0.3-0.2l0.2-0.3l0.3-0.6V414l0.3-0.6
		l0.6,0.2l0.2,0.7v0.6l-0.3,0.2l-0.2,0.6L45.5,416.1L45.5,416.1"/>
	<path vector-effect="none" class="st0" d="M168.6,322.8L168,323l-0.6-0.3l-0.3-0.6l0.2-0.6l0.6-0.2l0.6-0.3l0.2-0.6l0.7,0.1
		l0.1,0.7v0.6l-0.3,0.6L168.6,322.8L168.6,322.8"/>
	<path vector-effect="none" class="st0" d="M310.4,263.1l0.3,0.5h0.7l0.6,0.2l-0.2,0.6l-0.6,0.3l-0.5,0.2l-0.6,0.1l-0.6-0.1
		l-0.6-0.5l-0.1-0.7l0.3-0.5l0.6-0.3L310.4,263.1L310.4,263.1"/>
	<path vector-effect="none" class="st0" d="M212.7,305h-0.3l-0.2-0.2l0.1-0.3l0.2-0.3l0.3-0.2l0.2-0.3l-0.1-0.3l0.2-0.3l0.3-0.3
		l0.6,0.5l0.1,0.3l-0.1,0.3l-0.3,0.2l-0.2,0.2l-0.3,0.3l-0.2,0.2L212.7,305L212.7,305"/>
	<path vector-effect="none" class="st0" d="M36.3,359.6l-0.3,0.5l-0.5-0.3l-0.5-0.2l-0.2-0.3l0.1-0.3l0.3-0.5l0.3-0.5l0.5-0.1
		l0.3,0.2l0.5,0.5v0.3l-0.2,0.5L36.3,359.6L36.3,359.6"/>
	<path vector-effect="none" class="st0" d="M241.4,290.4l-0.7,0.1l-0.3-0.3v-0.7l0.2-0.6l0.6-0.3l0.6,0.1l0.7,0.1l0.2,0.5l-0.5,0.3
		l-0.2,0.7L241.4,290.4L241.4,290.4"/>
	<path vector-effect="none" class="st0" d="M254.4,299.6h-0.6l-0.6-0.3l-0.5-0.5l-0.1-0.6l0.7-0.1l0.7-0.1l0.5-0.2l0.6,0.8l-0.2,0.6
		L254.4,299.6L254.4,299.6"/>
	<path vector-effect="none" class="st0" d="M252.3,302.9l-0.6,0.3l-0.6-0.1l0.1-0.7l-0.3-0.6l0.1-0.6l0.6-0.2h0.7l0.6,0.1l0.1,0.6
		l-0.3,0.6L252.3,302.9L252.3,302.9"/>
	<path vector-effect="none" class="st0" d="M257.8,288.5l-0.6,0.2l-0.3-0.6l-0.2-0.6l0.3-0.6l0.6-0.3l0.3-0.3v0.5l0.2,0.7l0.1,0.6
		L257.8,288.5L257.8,288.5"/>
	<path vector-effect="none" class="st0" d="M279.3,299.2l-0.7,0.1L278,299l0.5-0.6l0.6-0.3l0.7-0.2l0.6-0.2v0.7l-0.5,0.6
		L279.3,299.2"/>
	<path vector-effect="none" class="st0" d="M198.2,325.9l-0.8,0.5l-0.7-0.1l-0.7,0.1l-0.6-0.1l-0.1-0.6l0.6-0.3l0.6-0.2h0.7l0.6,0.1
		L198.2,325.9"/>
	<path vector-effect="none" class="st0" d="M311.7,256.7l-0.5,0.6l-0.6-0.3l-0.5-0.5l-0.2-0.6l0.5-0.6l0.5,0.3l0.5,0.5L311.7,256.7
		L311.7,256.7"/>
	<path vector-effect="none" class="st0" d="M240,239.3l-0.3,0.3l-0.6-0.1l-0.3-0.2l-0.2-0.3l-0.2-0.6l0.2-0.6l0.6,0.3l0.6,0.2
		l0.3,0.3V239.3L240,239.3"/>
	<path vector-effect="none" class="st0" d="M-42.1,375.4l-0.3,0.2h-0.6h-0.6l-0.2-0.2v-0.6l0.2-0.3l0.3-0.3l0.6,0.3l0.6,0.3l0.2,0.2
		L-42.1,375.4L-42.1,375.4"/>
	<path vector-effect="none" class="st0" d="M249,301.9l-0.6,0.2l-0.3-0.2v-0.6l0.3-0.6l0.6-0.2l0.7,0.1l0.2,0.6l-0.2,0.6L249,301.9
		L249,301.9"/>
	<path vector-effect="none" class="st0" d="M250.8,296.8l-0.3,0.1l-0.7-0.1l-0.5-0.5v-0.6l0.6-0.2h0.7l0.3,0.5l0.3,0.5L250.8,296.8
		L250.8,296.8"/>
	<path vector-effect="none" class="st0" d="M282.5,297.7h-0.7l-0.5-0.1l0.2-0.6l0.6-0.2l0.7-0.1l0.7,0.1l0.6,0.3l-0.1,0.6h-0.7
		H282.5"/>
	<path vector-effect="none" class="st0" d="M307.3,247.5h-0.6l-0.5-0.5l0.5-0.6l0.5-0.5l0.6-0.1l-0.1,1L307.3,247.5L307.3,247.5"/>
	<path vector-effect="none" class="st0" d="M265.5,295l-0.7,0.1l-0.6-0.2l0.1-0.7l0.8-0.5l0.6,0.3l0.2,0.6L265.5,295L265.5,295"/>
	<path vector-effect="none" class="st0" d="M237.5,230.7l-0.2,0.2h-0.6v-1.2l0.2-0.6l0.3-0.3l0.2,0.3l0.3,0.6v0.6L237.5,230.7
		L237.5,230.7"/>
	<path vector-effect="none" class="st0" d="M272.8,291h-0.3l-0.7-0.1l-0.5-0.5l0.2-0.5l0.6-0.2l0.7,0.1l0.3,0.6L272.8,291L272.8,291
		"/>
	<path vector-effect="none" class="st0" d="M273.5,305.2l-0.6,0.1l-0.3-0.3l0.3-0.5l0.5-0.5h0.5l0.5,0.3l-0.1,0.6L273.5,305.2
		L273.5,305.2"/>
	<path vector-effect="none" class="st0" d="M36.6,390.7l-0.8,0.1l-0.5-0.5l-0.2-0.6l0.3-0.5l0.7,0.2l0.3,0.6L36.6,390.7L36.6,390.7"
		/>
	<path vector-effect="none" class="st0" d="M205.6,293.5l-0.5,0.1l-0.6-0.5v-0.8l0.5-0.3l0.5,0.1l0.2,0.5v0.3L205.6,293.5
		L205.6,293.5"/>
	<path vector-effect="none" class="st0" d="M26.9,363.6l-0.7,0.1l-0.3-0.5l-0.2-0.6l0.5-0.1l0.6,0.1l0.5,0.3l0.1,0.3L26.9,363.6
		L26.9,363.6"/>
	<path vector-effect="none" class="st0" d="M151.9,330.1l-0.6,0.3l-0.6-0.2l-0.3-0.5l0.3-0.5l0.7,0.1L151.9,330.1L151.9,330.1"/>
	<path vector-effect="none" class="st0" d="M311.7,266.5l-0.6,0.3l-0.6-0.7l0.3-0.6l0.7-0.1l0.2,0.3L311.7,266.5L311.7,266.5"/>
	<path vector-effect="none" class="st0" d="M242.2,258.3l-0.2,0.2l-0.6-0.2l-0.3-0.3v-0.6l0.3-0.2l0.6,0.2l0.2,0.3V258.3
		L242.2,258.3"/>
	<path vector-effect="none" class="st0" d="M35.4,361.9l-0.5,0.2l-0.3-0.3l-0.2-0.3l0.3-0.3L35,361l0.5,0.2l0.2,0.3L35.4,361.9
		L35.4,361.9"/>
	<path vector-effect="none" class="st0" d="M16.8,424.1l-0.5,0.3l-0.8-0.1l-0.2-0.6l0.3-0.2l0.5-0.1l0.6,0.1L16.8,424.1L16.8,424.1"
		/>
	<path vector-effect="none" class="st0" d="M183.7,319.8l-0.6,0.1l0.1-0.7l0.6-0.5l0.6-0.1l-0.1,0.8L183.7,319.8L183.7,319.8"/>
	<path vector-effect="none" class="st0" d="M241.2,287.5l-0.5,0.1l-0.7-0.1l-0.3-0.3l0.5-0.5h0.7l0.6,0.2L241.2,287.5L241.2,287.5"
		/>
	<path vector-effect="none" class="st0" d="M178.1,327.1l-0.6,0.2l-0.7-0.1l-0.5-0.3l0.5-0.3l0.6,0.1L178.1,327.1"/>
	<path vector-effect="none" class="st0" d="M32.2,392.1l-0.6,0.1l-0.3-0.5l-0.1-0.8l0.6,0.1l0.5,0.5V392.1L32.2,392.1"/>
	<path vector-effect="none" class="st0" d="M250.6,287.8l-0.7,0.1l-0.7-0.1l-0.5-0.5l0.9-0.2l0.7,0.2L250.6,287.8"/>
	<path vector-effect="none" class="st0" d="M482,201.2l-0.7,0.2l-0.1-0.7l0.6-0.6l0.3,0.5L482,201.2"/>
	<path vector-effect="none" class="st0" d="M15.1,422.7l-0.2,0.3h-0.5l-0.3-0.1l0.1-0.6l0.1-0.3l0.5,0.1L15.1,422.7L15.1,422.7"/>
	<path vector-effect="none" class="st0" d="M247.8,295.6l-0.5,0.5l-0.5-0.6l0.1-0.7l0.6,0.1L247.8,295.6"/>
	<path vector-effect="none" class="st0" d="M164.2,336.7l-0.6,0.3l-0.3-0.1v-0.7l0.3-0.3l0.7,0.2L164.2,336.7L164.2,336.7"/>
	<path vector-effect="none" class="st0" d="M135,328h-0.6l0.6-0.9l0.5,0.1l0.3,0.5L135,328"/>
	<path vector-effect="none" class="st0" d="M207,299.1l-0.3,0.1l-0.3-0.2l-0.2-0.6h0.3l0.3,0.1l0.5,0.2L207,299.1L207,299.1"/>
	<path vector-effect="none" class="st0" d="M463.4,181.1l-0.2,0.6l-0.6-0.3l-0.2-0.3l0.6-0.3L463.4,181.1"/>
	<path vector-effect="none" class="st0" d="M149,325.9l-0.3,0.6l-0.6-0.2l0.1-0.5l0.2-0.5l0.3,0.2L149,325.9L149,325.9"/>
	<path vector-effect="none" class="st0" d="M86,342.4h-0.7l0.1-0.6l0.6-0.2l0.5,0.5L86,342.4"/>
	<path vector-effect="none" class="st0" d="M250.1,290.8l-0.6,0.2l-0.6-0.2v-0.6l0.7,0.1L250.1,290.8"/>
	<path vector-effect="none" class="st0" d="M33.6,382.8l-0.3,0.2l-0.5-0.1l-0.3-0.2l0.6-0.6l0.2,0.3L33.6,382.8L33.6,382.8"/>
	<path vector-effect="none" class="st0" d="M244,281l-0.3,0.6l-0.5-0.3l0.2-0.7l0.3-0.2L244,281"/>
	<path vector-effect="none" class="st0" d="M258.6,261.7l-0.1,0.6l-0.6-0.2l-0.3-0.6l0.5-0.1L258.6,261.7"/>
	<path vector-effect="none" class="st0" d="M256.7,285.6l-0.3,0.3l-0.5-0.5l0.1-0.7l0.5,0.2L256.7,285.6"/>
	<path vector-effect="none" class="st0" d="M223.3,299.8h-0.8l0.2-0.5l0.6-0.2l0.3,0.5L223.3,299.8"/>
	<path vector-effect="none" class="st0" d="M340.5,241.2l-0.6,0.1l0.1-0.6l0.6-0.2l0.3,0.3L340.5,241.2"/>
	<path vector-effect="none" class="st0" d="M215.4,301.8l-0.3,0.1l-0.3-0.2l-0.3-0.6l0.3-0.1l0.3,0.1l0.3,0.2V301.8L215.4,301.8"/>
	<path vector-effect="none" class="st0" d="M163.9,338.5h-0.3v-0.6l0.2-0.5l0.5,0.2l0.1,0.5L163.9,338.5L163.9,338.5"/>
	<path vector-effect="none" class="st0" d="M147.3,323.8l-0.6,0.3l-0.3-0.3l0.5-0.5l0.6-0.1L147.3,323.8"/>
	<path vector-effect="none" class="st0" d="M33.6,390.7v0.7l-0.7-0.1l-0.1-0.7l0.2-0.3L33.6,390.7"/>
	<path vector-effect="none" class="st0" d="M98.5,338.7l-0.6,0.2l-0.1-0.6l0.6-0.3l0.5,0.1L98.5,338.7"/>
	<path vector-effect="none" class="st0" d="M268.2,310.6l-0.3,0.6l-0.7-0.3l0.5-0.5L268.2,310.6"/>
	<path vector-effect="none" class="st0" d="M266.3,310.5l-0.5,0.3l-0.5-0.5l0.6-0.2L266.3,310.5"/>
	<path vector-effect="none" class="st0" d="M480.8,202.5l-0.1,0.8l-0.6-0.1l0.1-0.8L480.8,202.5"/>
	<path vector-effect="none" class="st0" d="M271.4,307.1l-0.6,0.3l0.3-0.9l0.5,0.1L271.4,307.1"/>
	<path vector-effect="none" class="st0" d="M104.5,335.3l-0.3,0.7l-0.6-0.1l0.3-0.5L104.5,335.3"/>
	<path vector-effect="none" class="st0" d="M149.4,327.1v0.5h-0.3l-0.3-0.3l0.3-0.5L149.4,327.1"/>
	<path vector-effect="none" class="st0" d="M261.4,289.1l-0.1,0.6l-0.7-0.2l0.1-0.6L261.4,289.1"/>
	<path vector-effect="none" class="st0" d="M308.4,250l-0.6,0.2v-0.6l0.6-0.2V250"/>
	<path vector-effect="none" class="st0" d="M323.6,260.5l-0.6,0.1l0.2-0.6l0.6,0.1L323.6,260.5"/>
	<path vector-effect="none" class="st0" d="M88.6,340.4l-0.5,0.2l-0.3-0.5l0.7-0.1L88.6,340.4"/>
	<path vector-effect="none" class="st0" d="M256.2,268.4l-0.1,0.7l-0.3-0.2v-0.7L256.2,268.4"/>
	<path vector-effect="none" class="st0" d="M146.7,329.6v0.6l-0.6-0.5L146.7,329.6"/>
	<path vector-effect="none" class="st0" d="M146.2,332.2l-0.5,0.1l-0.1-0.5h0.6V332.2"/>
</g>
</svg>
