<?xml version="1.0" encoding="utf-8"?>
<!-- Generator: Adobe Illustrator 27.0.0, SVG Export Plug-In . SVG Version: 6.00 Build 0)  -->
<svg version="1.1" id="Layer_1" xmlns="http://www.w3.org/2000/svg" xmlns:xlink="http://www.w3.org/1999/xlink" x="0px" y="0px"
	 viewBox="0 0 500 500" style="enable-background:new 0 0 500 500;" xml:space="preserve">
<style type="text/css">
	.st0{fill:#E74646;stroke:#FFFFFF;stroke-width:4.6041;stroke-linecap:square;stroke-linejoin:bevel;stroke-miterlimit:3.998;}
</style>
<g transform="matrix(0.999751,0,0,0.999751,18.6633,21.7738)">
	<path vector-effect="none" class="st0" d="M475.4,170.8l-0.2,0.6l-0.5,0.5H474l-0.7,0.1l-0.6,0.2l-0.6,0.4l-0.6,0.4l-0.5,0.5
		l-0.5,0.6l-0.1,0.6v0.7l0.2,0.7l0.4,0.6l0.2,0.6l-0.1,0.6l-0.6,0.5h-0.6l-0.5,0.5v0.7l0.1,0.6l0.5,0.6l0.5,0.5l0.6,0.5l0.4,0.6
		l0.4,0.6l0.6,0.4l0.4,0.6l0.5,0.6l0.2,0.6l0.1,0.6l0.2,0.6l0.4,0.6v0.7l-0.4,0.6l-0.2,0.6l-0.2,0.6l0.1,0.7l0.4,0.6l0.5,0.5
		l0.4,0.6l0.6,0.5l0.5,0.4l0.4,0.6l0.2,0.7l0.1,0.6l0.1,0.7l0.5,0.5l0.6,0.5l0.2,0.6l0.2,0.6l0.2,0.6v0.7l-0.1,0.7l-0.2,0.6
		l-0.4,0.6l-0.4,0.6l-0.2,0.6l-0.5,0.5l-0.5,0.5l-0.6,0.5l-0.5,0.4l-0.4,0.5l-0.4,0.6l-0.5,0.5l-0.5,0.5l-0.6,0.4l-0.6-0.4h-0.6
		l-0.6,0.2l-0.4,0.6l-0.2,0.8l-0.6,0.4l-0.5,0.4l-0.6,0.4l-0.7,0.1l-0.6-0.1h-0.7l-0.6,0.4l-0.1,0.7v0.7l0.1,1.1l0.2,0.6l0.2,0.7
		l0.4,0.5l0.1,0.7v0.7v0.7v0.7l-0.1,0.7l-0.1,0.6l-0.1,0.7l-0.1,0.6l0.5,0.6l0.4,0.6l0.5,0.5l0.2,0.6l0.2,0.7l0.2,0.6l0.2,0.6
		l0.2,0.6l0.1,0.7l0.4,0.6l0.2,0.7l0.2,0.7l0.2,0.8l-0.5,0.4l-0.5,0.6l-0.6,0.4l-0.6,0.4l-0.6,0.2l-0.6,0.2l-0.7-0.2l-0.5-0.4
		l-0.6,0.4l-0.1,0.7l0.4,0.6l-0.1,0.6l-0.6,0.4l-0.6,0.4l-0.6,0.4l-0.6,0.4l-0.4,0.5l-0.1,0.7l0.1,0.6l0.2,0.7l0.2,0.6v0.6l-0.2,0.6
		l-0.4,0.6L462,237l-0.6,0.2l-0.6,0.2h-0.7h-0.7l-0.6-0.2l-0.7-0.1l-0.6-0.1l-0.6-0.4l-0.6-0.4l-0.6-0.4h-0.6l-0.5,0.5l-0.4,0.6
		l-0.6,0.1L453,237H452l-0.5,0.5l-0.5,0.6l-0.1,0.6l-0.2,0.6l-0.2,0.7v0.6l-0.2,0.7l-0.2,0.6l-0.1,0.6v0.7l0.4,0.6h0.7l0.7,0.1
		l0.6,0.1l0.4,0.6l-0.1,0.6l-0.5,0.5l-0.6,0.5l-0.5,0.5l-0.6,0.4l-0.5,0.5l-0.2,0.5v0.7l-0.1,0.7v0.7l-0.6,0.1l-0.6-0.1h-0.7
		l-0.7,0.2l-0.5,0.4l-0.7,0.2l-0.6,0.1l-0.7-0.1l-0.7,0.1l-0.6,0.1l-0.7,0.1h-0.6h-0.7l-0.5,0.4v0.7v0.7l0.1,0.8v0.7v0.7v0.6
		l-0.5,0.5l-0.1,0.6l-0.4,0.6l-0.5,0.6l-0.4,0.5l-0.5,0.6l-0.2,0.6l-0.5,0.5l-0.5,0.5l-0.5,0.6l-0.5,0.5l-0.5,0.5l-0.6,0.4l-0.6,0.2
		l-0.4,0.5l-0.1,0.7v0.7v0.7v0.7l-0.1,1.1l-0.2,0.6l0.1,0.6l-0.2,0.7l-0.1,0.6l-0.4,0.6l-0.2,0.6l-0.1,0.7l-0.2,0.6l0.2,0.6l0.6,0.6
		l-0.1,0.7l-0.4,0.6l-0.4,0.5l-0.1,0.7l0.1,0.7l0.2,0.6l0.1,0.6l0.1,0.7v0.7v0.7l0.2,0.6l0.5,0.6l0.2,0.6v0.7l0.1,0.6l0.1,0.7
		l0.1,0.7l-0.2,0.6l-0.6,0.2l-0.2,0.6l0.1,0.7v0.7v0.7l0.1,0.7v0.7v0.7l0.2,0.6l0.6,0.2l0.7,0.1l0.7,0.1l0.6,0.1l0.2,0.6l0.1,0.7
		v0.7l-0.4,0.5l-0.5,0.5l-0.6,0.5l-0.5,0.4l-0.4,0.6v0.7v0.7l-0.6,0.5l-0.6,0.2l-0.6,0.4l-0.4,0.5l0.2,0.6l0.1,0.6l0.2,0.7l0.5,0.2
		l-0.1,0.7l-0.4,0.6l-0.2,0.6l-0.4,0.6l-0.2,0.6l-0.2,0.6l-0.5,0.5l-0.5,0.6l-0.5,0.5l-0.5,0.5l-0.6,0.4l-0.5,0.5l-0.5,0.6l-0.4,0.5
		l-0.2,0.7v0.7l-0.5,0.5l-0.6,0.2l-0.6,0.2l-0.6,0.4l-0.6,0.5l-0.4,0.6l-0.4,0.5l-0.5,0.5l-0.6,0.5l-0.6,0.4l-0.5,0.4l-0.6,0.2
		l-0.7,0.2l-0.6,0.1l-0.7-0.1h-0.7h-0.6l-0.7-0.1h-0.7h-0.7l-0.7,0.1l-0.6,0.2h-0.7l-0.7,0.1l-0.5,0.4v0.6l0.4,0.5l0.5,0.6l0.5,0.5
		l0.2,0.5l-0.6,0.4l-0.5,0.5l-0.5,0.5l-0.5,0.6l-0.2,0.6l-0.5,0.5l-0.5,0.4l-0.6,0.2l-0.7,0.2h-0.7h-0.7H408l-0.7-0.1l-0.6-0.2
		l-0.6,0.2l-0.4,0.6l-0.2,0.6l-0.6,0.5l-0.5,0.5l-0.6,0.2l-0.7-0.1l-1.1-0.1l-0.2,0.7l-0.2,0.6l-0.4,0.5h-0.7l-0.6-0.1h-0.7
		l-0.7,0.1h-0.7h-0.6l-0.5,0.5l-0.4,0.6l-0.5,0.5h-0.6l-0.4-0.6l-0.6-0.5l-0.4-0.6h-0.7l-0.5,0.5l-0.5,0.5l-0.2,0.6l0.1,0.7l0.2,0.6
		v0.7l-0.1,0.6l-0.2,0.6l-0.5,0.6l-0.4,0.6l-0.1,0.6v0.7l0.6,0.4l0.1,0.6l-0.6,0.4h-0.7l-0.6-0.2l-0.7-0.2l-0.6-0.2l-0.7,0.1v0.8
		l0.2,0.6l0.5,0.5l0.6,0.4l0.2,0.6v0.7v0.7l-0.1,0.7l-0.1,0.6v0.7v0.7l0.5,0.6h0.7l0.6,0.2l0.5,0.5l0.2,0.6l0.2,0.6l0.4,0.6l0.5,0.6
		l0.2,0.6l0.2,0.6l0.1,0.6l0.5,0.6l0.2,0.7l-0.6,0.5l-0.6,0.1l-0.7-0.1l-0.6-0.4l-0.5-0.4l-0.4-0.6l-0.6-0.4l-0.6,0.2l-0.4,0.6
		l-0.5,0.4l-0.5,0.4l-0.4,0.6l-0.1,0.7l-0.1,0.6l-0.4,0.5h-0.7l-0.7,0.1l-0.5,0.5v0.6l0.1,0.7l0.2,0.6l0.2,0.6l0.5,0.5l0.4,0.7
		l-0.5,0.5l-0.4,0.6l-0.5,0.5l-0.6,0.5l-0.5,0.4l-0.7-0.1l-0.6-0.2l-0.6-0.4l-0.2-0.6l-0.2-0.6l-0.4-0.6l-0.6-0.4l-0.6-0.2l-0.6-0.4
		l-0.6,0.1l-0.6,0.2l-0.5,0.6l-0.4,0.6l-0.2,0.6l-0.2,0.6l-0.6,0.4l-0.6,0.4l-0.6,0.1h-0.7l-0.5-0.4l-0.5-0.6l-0.5-0.5l-0.5-0.5
		l-0.5-0.6l-0.4-0.5l-0.6-0.5l-0.5-0.4l-0.7-0.1l-0.8-0.4l-0.4,0.6l-0.4,0.6l-0.5,0.5l-0.5,0.5l-0.6,0.4l-0.6-0.2l-0.4-0.5l-0.6-0.4
		l-0.7,0.1l-0.6,0.4l-0.4,0.6l-0.1,0.6l-0.1,0.7l0.5,0.6l0.6,0.4l0.6,0.2l0.5,0.5v0.7l-0.1,0.6l-0.1,0.7v0.7v0.7v0.7v0.7v0.7v0.7
		v0.7l0.2,0.6l0.1,0.7l-0.1,1.1h-0.4l-0.2,0.7l0.1,0.6l0.6,0.5l0.5,0.4l0.5,0.6v0.6l-0.2,0.7l0.2,0.6l0.4,0.5l0.5,0.6l-0.2,0.6
		l-0.1,0.7l-0.1,0.8h-0.7h-0.7h-0.7h-0.7h-0.7l-0.6-0.2l-0.5-0.5l-0.5-0.6l-0.4-0.5l-1.1-0.6l-0.1,0.8l-0.2,0.6l-0.5,0.6l-0.6,0.2
		l-0.6,0.4l-0.6,0.2l-0.7-0.1l-0.6-0.2l-0.6-0.2l-0.7-0.1l-0.6-0.1l-0.7-0.1h-0.7h-0.7h-0.6l-0.7,0.2l-0.6,0.1l-0.6-0.2l-0.6-0.4
		l-0.6,0.1L349,375l-0.4,0.6l-0.6,0.4l-0.6,0.1l-0.7,0.1l-0.6,0.2l-0.7,0.1h-0.7h-0.6l-0.6-0.4l-0.7-0.2l-0.5-0.2l-0.6,0.1l-0.6,0.4
		l-0.5,0.5l-0.5,0.5l-0.5,0.5l-0.5,0.6l-0.4,0.5l-0.2,0.7l-0.2,0.6l-0.1,0.6l-0.1,0.7l-0.1,0.7v0.6l-0.1,0.7v0.7l-0.1,0.7l-0.1,0.6
		l-0.1,0.7v0.7l-0.2,0.6l-0.4,0.6l-0.2,0.6l-0.4,0.6l-0.2,0.6l-0.1,0.6l-0.2,0.7l-0.1,0.6l-0.4,0.6l-0.7-0.1l-0.5-0.4l-0.6,0.4
		l-0.6,0.4l-0.6,0.2l-0.6,0.4l-0.6,0.1l-0.7,0.1l-0.6,0.2l-0.6,0.2l-0.7-0.1l-0.5-0.5l-0.2-0.6l-0.2-0.6l-0.5-0.6h-0.6l-0.4,0.4
		l-0.2,0.6l-0.2,0.6l-0.2,0.7l-0.2,0.6v0.7v0.7l0.2,0.6l-0.1,0.5l1.3,1.2l-0.2,0.6l-0.4,1.7l0.7,0.5l-0.1,0.7l0.6,0.6l0.1,0.6
		l0.1,0.7h-0.6l-0.1,0.5l0.1,0.4l-0.2,0.5H326l-0.2,0.6l-0.5,0.1l-0.6-0.5l-0.9-0.4l-0.5-0.5l-0.6-0.5l-1.5-0.7l-0.6-0.7l-0.6-0.4
		l-0.4-0.2v-0.5l0.7-1.1v-1.1l0.2-0.4l0.1-0.5l0.1-1.2l-0.1-0.5l0.1-0.7l0.4-0.4l0.5-0.2l0.4-0.5l-0.1-0.5l-0.5-0.7l-0.5,0.2
		l-0.1,0.6l-0.4,0.4l-1.1,0.7l-0.7,0.6l-0.4,0.9v0.5l0.1,0.4l-0.1,0.6l-0.7-0.4l-0.5-0.6l-0.5-0.2l-0.1-0.6h0.5l0.4-0.4l0.1-0.5
		l0.4-0.4l-0.5-0.2l-0.7,0.5l-0.4-0.2v-0.7l-0.2-0.5l0.2-0.4l-0.2-0.6l-0.8,0.4l-0.5-0.2v-0.6l-0.1-0.5l-0.2-0.5l0.2-0.5l0.1-0.4
		l-0.7-0.5l0.4-0.4l-0.1-0.6v-0.7l-0.5,0.2l-0.4-0.1v-0.6l0.5-0.5l0.5-0.5l0.5-0.2l0.6-0.4l0.1-0.9l0.2-0.4l0.2-0.4l0.5-1.1
		l-0.4-0.4l-0.1-0.5l-0.5,0.6l-0.5-0.4l-1.4,1.3l-0.6,0.2l-0.5,0.6l-0.5,0.6l-0.2,0.5l-0.7,0.4l-0.6,0.2l-0.5,0.6l-0.5,0.5l0.5,0.2
		l-0.2,0.7l0.7-0.2l0.6,0.4l0.1,0.8v0.5l-0.5,0.1l-1.1,0.2l-0.1-0.4l-0.5,0.1l-0.6-0.1l-0.9-0.2l-0.1,0.6l0.7,0.5h0.7l0.7,0.1
		l0.6,0.4h0.5l0.6,0.1l0.5,0.6l0.4,0.6l0.5,0.6l0.6,0.2l0.1,0.4l-0.6,0.2l0.4,0.4l0.6,0.4l0.5,0.6l0.4,0.4v0.5l-0.4,0.1l-0.4,0.5
		l-0.7,0.5l-0.1,0.7l-0.1,0.7l0.2,0.5v0.6l-0.7,0.8l-1.3,1.3l-0.6,0.5l-0.5,0.1l-0.4,0.5l-0.4,0.2l-0.7,0.4l-0.7-0.1v-0.5l0.4-0.5
		l0.1-0.6l-0.6-1.1l-0.4,0.4l-0.1,0.9l-0.2,0.7v0.6l0.1,0.4l-0.4,0.2l-0.4,0.2l-0.5,0.2l-0.4,0.1l-1.5-0.2l-1.1-0.2l-1.3,0.1
		l-0.4,0.2h-1.4l-1.2,0.2l-0.4-0.4l-0.1-0.4l0.2-0.4l-0.4-0.9l-0.4,0.5l-0.2,0.6l-0.4,0.6l-0.4,0.6l-0.4,0.4l-0.4-0.5l-0.1-0.6
		l-0.8,0.1l-0.7,0.4l-0.7-0.1H293l-0.7-0.1v-0.6l0.4-0.7v-0.7l0.2-0.7l-0.5-0.4l-0.2,0.7l-0.1,0.5l-0.1,0.5l-0.4,0.1l-0.2,0.6
		l-0.2,0.5l-0.1,0.4l-0.1,0.5v0.7l0.2,0.6l-1.3,0.2l-0.9,0.2l-0.7,0.1l-1.2,0.4l-0.9,0.2l-1.1-0.9l-0.9-0.4l-0.4-0.4l-0.4-0.2
		l-0.8-0.4l-0.7-0.1l-0.5-0.4l-0.5-0.2l-1.3-0.1l0.1-0.5l0.4-0.4l0.4-0.2l2-1.2l2-0.5l1.7-0.9l1.5-1.4l0.2-0.4l-0.2-1.4l-0.5-0.6
		l-0.2-0.5l-0.2-0.5l0.1-0.7l0.1-1.5l-0.6,0.9l-0.6-0.1l-0.8-0.2l-0.7,0.1l-0.2-0.2l0.1-0.6l-0.6,0.4l-0.1,0.8l-0.7,0.1l-0.4-0.2
		l-0.4-0.7l-0.2-1.4l-0.2,1.4l-0.4,0.4l-0.7-0.5v-0.5l0.6-1.1l0.4-0.6l0.1-0.7l-0.2-1.1l-0.4,0.8l-0.2,0.6l-1.2,0.6l-0.8,0.4h-0.5
		l-0.8,0.2h-0.8l-0.1,0.8h-2.4l-1.1-0.2l-1.2-0.2l-0.6-0.4l-0.4-0.4l-0.4-1.2l-0.2-1.4l-0.2-0.4l-1.4-0.1l-0.5-0.5l-0.9-0.6
		l-0.4-0.9l0.9-0.4l0.1-0.5l0.1-0.9l1.1-0.8l1.4-0.2l0.8-0.8l0.2-0.5l0.1-0.4l-1.2,0.1l-0.2-0.8l0.5-0.5l-0.8,0.2l-0.2,0.2l-0.2,0.5
		v0.4l-0.6,0.6l-0.5-0.6l0.2-0.9l-0.4-0.7v-0.4l-0.6-0.6l0.1-0.6v-0.6l-0.7-0.1l-0.7,0.1l-0.4-0.2l-0.4-0.1l-0.9-0.1l-0.2-0.7
		l-0.2,0.8l-1.2,0.4l1.2,0.2h0.5l0.5,0.4v0.5v0.8h0.6l0.4,0.5l0.2,0.4l0.6,0.2l0.4,0.2l0.1,0.5l-0.4,0.5l0.2,0.7l0.1,0.6l-0.9,0.1
		l-0.5,0.5l-0.5,0.6l-0.1,0.6l-0.5-0.2l-0.2-0.6l-0.1-0.6v-1.1h-0.6l0.1,0.8l-0.4,0.2l-0.1,0.5l0.4,0.4l-0.4,0.5l0.4,0.2l0.8,0.1
		l0.4,0.4v0.7l0.1,0.7l0.4,0.6l0.2,0.8l-0.6,0.6l0.2,0.2l1.1-0.2l0.5,0.4l0.8,0.2v0.5l-0.8,0.5l-0.6,0.2l-0.6,0.1l-1.1-0.6l-0.8-0.7
		h-0.6l-0.6,0.5l-0.7,0.4l-0.2,0.5h-0.4l-0.8,0.1l-0.6,0.4v0.5h-0.4l-0.5-1.3l0.2-0.7l-0.6-0.6l-0.9-0.7l-0.1-0.5l0.7,0.4h1.1
		l-0.4-0.6l0.7,0.1h0.4l0.5-0.9l0.1-0.6l-0.1-0.4l-0.5,0.1v0.7l-0.2,0.4l-0.6-0.1l-0.7-0.1l-0.7-0.4l-0.5-0.5v-0.6l0.2-0.5l0.4-0.2
		l-0.2-0.4l0.7-0.8l-0.5-0.4l0.2-0.6V384l-0.5-0.1l-0.2,0.9v0.6l-0.1,0.5l-4.5-1.7l0.6-0.9l0.1-0.4l0.5-0.5l0.4-0.5l0.2-0.2l0.1-0.5
		l-0.8-0.4l-0.5-0.5l0.1,1.1l-0.1,0.5l-0.8,0.7l-0.2-0.5l-0.4-0.8h-0.6l0.5,1.1l0.2,0.7l0.5,0.7l-0.6,0.9l-0.4,0.8l-0.7,0.6h-0.4
		l-0.4-0.4l0.2-0.5l-0.2-0.6l-0.4-0.6v-0.7l0.1-0.8l-0.6,0.2l-0.5-0.4l-0.8-0.6l-0.2-0.6l0.1-0.4l0.2-0.2l0.7-0.5l0.6-1.3l0.8-0.7
		l0.9-0.4v-0.5l-0.7-0.2l-0.1-0.6l0.1-0.5l0.7,0.5l0.4-1.9l0.2-0.6l-0.6-1.1l-0.5,0.2l-0.5-0.2l-0.4-0.1l-0.1,0.5l-0.4,0.2h-0.5
		l-0.5-0.7l-0.1,0.7v0.6l-1.2-1.2l-0.2,0.5l-0.5,0.2l-0.5-0.6l0.2-0.7l-1.1,0.6h-0.7v0.6l0.4,0.4l-1.1,0.6l-0.4,0.6l-0.2,0.5
		l-0.6-0.2l-0.4,0.6l0.6,1.1l-0.5,0.4l-0.8-0.6l-0.6-0.5l-0.8-0.5l0.4,0.8l0.5,0.7l0.5,0.2l0.1,0.5l0.2,0.7l0.4,0.4l0.2,0.6l0.1,0.5
		l0.4,0.2l0.5,0.4l0.2,0.4l0.2,1.1v0.4l-0.4,0.8l0.1,0.9l-0.1,0.5l-0.9-0.1l-0.7,0.5l0.4,0.2h0.6l0.5,0.5l0.5,0.8l-0.6,0.4l-0.5,0.1
		l-0.5,0.5l0.7,0.1h0.5l0.6-0.4l-0.4,1.3l0.6,0.1l0.5-0.9l-0.1-0.8l0.4-0.1l0.6-0.5l0.5-0.4l0.5-0.1l-0.1,0.6l-0.7,0.9v1.1l0.1,0.6
		l0.5-0.4l0.2,0.6l0.1,0.6l0.2,0.4l0.4-0.2l0.2,0.4l-0.6,0.7l-0.6,0.6l-0.4-0.2l-0.5-0.4l-0.5,0.5l0.4,1.1l-0.2,0.4h-0.5l-0.2,0.6
		l0.2,0.7l-0.6,0.7l-1.1,0.5l-0.7,0.2l-0.1,0.6l-0.5,0.1l-0.2-0.5l0.2-0.6l0.5-0.7l0.6-0.5l0.2,0.4l0.5-0.4l-0.7-0.8l-0.2-0.4
		l-0.5,0.2l-0.2,0.4l-0.4,0.8l-0.4,0.8l-0.1,0.9l-0.7,0.8l0.9,0.5h-1.4l-0.9,0.1l-0.5,0.2l-0.5-0.2h-1.2l-1.1-0.2v-0.5l0.1-0.5
		l0.2-0.2V396l-0.2-0.4l0.1-0.6l0.6-0.1l0.4,0.1l0.6-0.2l0.9,0.4l-0.5,0.6l-0.8,0.1l-0.2,0.4h0.7l0.4-0.1h0.5l0.5,0.2l0.4-0.2v-0.7
		l-0.2-0.5l-0.1-0.5l0.4-0.2l0.6-0.4l0.2-0.6h-0.5l-0.6,0.2l-0.8,0.5l-0.5-0.1l-0.2-0.6l0.4-0.5l-0.1-0.4l0.8-0.2l0.5-0.1l0.1-0.4
		l0.2-0.4h0.6l0.9-0.1l0.7-0.8L241,390h-0.4l-0.4,0.1l-0.6-0.1l-0.6,0.4l-0.7,0.2l-0.5,0.2l-0.4-0.4l0.8-0.5l0.4-0.8l0.5-0.6
		l-0.4-0.1l-1.3,0.6l-0.5-0.1l-0.6,0.4l-0.1,0.4l0.5,0.4l-1.1,0.1l-0.9-0.4l-0.2,0.4v0.5l0.7,0.1l-0.5,0.8l-0.4,0.2l-0.7,0.4
		l-0.4,0.4l-0.6,1.1l-0.5,0.7l-0.6-0.2l-0.2-0.4l0.1-0.6l0.4-0.2l0.6-0.4l0.6-0.8l-0.5-0.6l0.4-0.4V390l0.6-0.8l-0.4-0.1l-0.2-0.4
		l-0.5-0.4l-0.5-0.2l0.4-0.7v-0.6l0.6-0.6l0.2-0.5l-0.1-0.6l-0.6,0.7l-0.6,0.6l-0.4,1.5l-0.2,0.6L231,389l-0.6,0.2l0.2,0.5v0.6
		l0.1,0.4l0.5,0.7v0.7l-0.4,0.7l-0.1,0.5l-0.8,0.9l-0.1,0.4l0.5,0.5l0.7,0.2l-0.4,0.6l-1.3,1.5l-0.4,0.4l-0.4,0.8l-0.5,0.2l-0.7,0.1
		l-0.6,0.8l-0.5,0.5l-1.3,0.7l-0.7,0.5l-0.8,0.2l-0.4-0.4l0.2-0.6l0.5-0.2l0.4-0.4l0.4-0.9l0.2-0.4l0.5-0.2l-0.2-0.7l0.4-0.5
		l0.5-0.5l0.5-0.7l0.4-0.5l0.1-0.5L226,395l-0.1-0.5l0.2-0.8l-0.2-0.2l-0.5-0.1l-0.8-1.1l-0.7-0.2h-0.4l-0.1,0.7l0.4,0.6l-0.2,0.4
		l-0.5,0.2l-0.4,0.1l-1.2,0.2l-0.8,0.2h-0.5l-0.6,0.2l0.7,0.4l0.1,0.6l-0.4,0.2h-0.7l-0.7,0.2l-0.4-0.1l-0.1,0.6l0.4,0.7l0.4,0.5
		h0.5l1.1,0.2l0.4,0.4l0.8,0.4l-0.2,0.4l-0.5,0.1h-1.7l-0.7,0.1l-0.7,0.5l-0.5,0.1l-0.5-0.2l0.1-0.5v-0.5h-1.2l-0.4-0.4l0.2-0.8
		l-0.5-0.1l-1.2,0.2l-0.1,0.7l-0.9,0.2l-0.2-0.6l-0.2-0.6l-0.4-0.6l-0.5-0.5l-0.6-0.4l-0.6-0.2l-0.6-0.2l-0.7-0.2l-0.7-0.1l-2.1-0.4
		l-2.3-1.1l-1.2-0.7l-1.3-1.4l-0.2-0.8l-0.4-1.8l-0.4-0.5l-1.3-0.4l-1.7,0.1l-1.4-0.2l-1.5-0.9l-1.2-0.7l-2.4,1.5l-2.3,0.9l-2.4,0.8
		l-1.9,0.7l-2.1,0.5l-1.8-0.1l-1.1-0.2l-0.8-0.4l-2,0.8h-1.9l-0.7-0.8l-0.2-0.8l-0.7-0.2h-0.7l-0.5,0.1l-0.4,0.2l-0.5,0.1l-0.5,0.2
		l-0.6,0.5l-0.2,0.2l-0.4,0.4l-0.7,0.7l-0.4,0.5l-0.1,0.5l-0.2,0.4l-0.2,0.4l-0.6,0.5l-0.5,0.1l-0.4-0.1l-0.6-0.5l-0.2-0.4l0.1-1.2
		l0.1-0.4l0.1-0.4l0.1-0.5l0.1-0.9l-0.7-0.8l-0.1-0.5l-0.4-0.4l-0.5-0.7l-0.2-0.4l-0.4-0.6l-0.4-0.5l-0.1-0.4l-0.2-0.6l-0.2-0.4
		l-0.8-0.7l-0.4-0.2l-0.9-0.1l-0.4,0.2l-0.4,0.2l-0.5,0.1l-0.4,0.1l-0.4,0.4l-0.2,0.4l-0.2,0.5l-0.4,0.2l-0.5,0.1l-0.6-0.1l-0.8-0.1
		l-0.5-0.2l-0.5-0.5l-0.2-0.4l-0.4-0.4l-0.1-0.4v-0.5l-0.8-0.6l-0.4-0.2l-0.6-0.4l-0.4-0.1l-0.7-0.2l-0.4-0.1l-0.5-0.2l-0.4-0.2
		l-0.5-0.6l-0.4-0.2l-0.6-0.6l-0.9-1.1l-0.7-0.2l-0.4-0.2l-0.5-0.1l-0.4-0.2l-0.4-0.1l-0.5-0.1l-0.4-0.1l-0.8-0.2l-0.5-0.1l-0.4-0.1
		l-0.5-0.4l-0.4-0.2l-0.2-0.6l-0.2-0.4l0.2-0.6l0.5-0.6l0.5-0.6l0.6-0.4l0.4-0.2l0.4-0.2l0.6-0.5l0.5-0.5l0.1-0.4v-0.8l-0.2-0.6
		l-0.6-1.2l-0.4-0.4l-0.4-0.2L144,368l-0.7-0.2l-0.5,0.4l-0.5-0.2l-0.2-0.2l-0.4-0.1l-0.4,0.5l-0.4,0.7l-0.2,0.4l-0.6,0.5l-0.4,0.2
		l-0.7-0.7l-0.2-0.5l-1.1,0.1l-0.4-0.2l-0.4-0.5v-1.3l-0.2-0.7l-0.5-0.2l-0.2-0.4h-0.5l-0.6-0.1l-0.7-0.1H134l-2.3-0.1h-0.9
		l-0.7,0.2l-1.2-0.1l-0.6-0.7l-0.7-0.8l-0.4-0.6v-0.5l-0.5-0.4h-1.1l-0.4,0.1l-0.5,0.6l-0.1,0.5l-0.2,0.4l-0.2,0.4l-0.2,0.4
		l-0.7,0.9l-0.5,0.5l-0.4,0.4l-0.4,0.2l-0.5-0.1l-0.5-0.5l-0.2-0.5v-1.1l0.1-0.4l0.1-0.5l0.6-0.4l0.5-0.6l0.4-0.2l0.2-0.8v-0.8
		l-0.4-0.6l-0.1-0.7l0.2-0.4l0.5-0.7l-0.1-0.4l0.2-0.6l0.1-0.6l-0.5-0.7l-0.2-0.4l-0.4-0.7l-0.1-0.4l-0.1-0.5v-0.5l0.2-0.4l0.6-0.6
		l0.2-0.4v-0.5l-0.9-0.4l-0.8-0.5l-0.2-0.5v-0.8l0.1-0.5l0.2-0.4l0.2-0.4l0.7-0.6l0.2-0.1l0.2-0.9l-0.2-0.7v-0.4l-0.2-0.5l0.8-0.5
		l-1.2-1.2l-0.4-0.2l-0.4-0.2l-0.5-0.7v-0.8l-0.1-0.5v-0.6l-0.1-0.5l-0.2-0.6l-0.8-0.4H118l-0.6,0.1l-0.8-0.1l-0.6-0.1h-0.9
		l-0.7-0.6l-0.4-0.4l0.2-0.6l0.1-0.4l0.4-0.4l0.4-0.1l0.6-0.2V336v-0.5l-0.4-0.2l-0.4-0.1l-0.8-1.1l-0.2-0.4l0.1-0.7l-0.2-0.8
		l0.1-0.9l0.1-0.6l0.2-0.5l0.2-0.4l0.5-0.4l0.4-0.4l0.5-0.4l0.1-0.4l0.2-0.9l0.1-0.4l0.1-0.4l0.1-0.5l0.1-0.5l0.2-0.7l0.1-0.4
		l0.1-0.5l0.2-0.7l0.1-0.4l0.1-2.8l0.7-0.4l0.7,0.1l0.4,0.4l0.1,0.5l0.1,0.5l0.2,0.4l0.5,0.5l0.9,0.2h1.7h0.4l0.5-0.1l0.5-0.1
		l0.8-0.2l0.5-0.6l0.1-0.6l-0.4-0.4l-0.1-0.4l0.1-0.6l0.2-0.5l0.2-0.7l0.2-0.5l0.2-0.5l0.2-0.4l0.2-0.4l0.5-0.7l0.2-0.2l0.2-0.5
		l0.1-0.4l0.1-0.5l0.4-0.4l0.5-0.6V313l-0.2-0.5l-0.4-0.4l0.1-0.7l0.4-0.4l0.4-0.2l0.4-0.5l0.4-0.5l0.1-0.8l0.4-0.2l1.3,0.1l0.5-0.6
		l0.2-0.4l0.4-0.7l-0.1-1.1v-0.4l-0.1-0.4l-0.6-0.6l-0.8-0.1h-1.2h-0.5l-0.7-0.1l-0.4-0.2l-0.4-0.5l-0.2-0.4l-0.4-0.5l-0.7-0.6H126
		l-0.4-0.2l-0.4-0.4v-1.3l-0.5-0.5l-0.4-0.1l-0.8-0.1l-0.5-0.2l-1.1-0.1l-0.1,1.1l-0.4,0.4h-0.5l-0.5-0.2l-0.4-0.2l-0.6-0.5
		l-0.4-0.7l-0.2-0.6l-0.1-0.4l-0.1-0.4l-0.4-0.8l-0.5-0.6h-0.7l-0.9,0.7l-0.5,0.1l-0.5-0.1l-0.7-0.5l-0.4-0.4l-0.7-0.9l-0.4-0.2
		l-0.7-0.2l-0.6,0.4l-0.4,0.7l-0.1,0.5l-0.1,0.4l-0.1,0.5l-0.4,0.7l-0.7,0.4l-0.4-0.1l-0.5-0.2l-0.5,0.4l-0.7-0.1l-0.5,0.4l-0.2,0.4
		H107l-0.5-0.1h-0.4l-0.6,0.2l-0.1,0.4l-0.6,0.4l-1.1-0.1l-0.5,0.1h-0.7l-0.4,0.9l-0.8,0.6l-0.5,0.1l-0.2-0.4l-0.4-0.6l-0.8-0.1
		l-0.2,0.2l-0.6,0.1l-0.2-0.2l-0.9-0.2l-0.7,0.1l-0.7-0.7l-0.4-0.2l-0.4-0.4l-0.5-0.4v-0.5l0.5-0.5l0.1-0.7l-0.4-0.6l-0.4-0.5
		l-0.2-0.5l-0.2-0.4l-0.4-0.6l-0.2-0.5l-0.1-0.4l-0.6-0.6l-0.5-0.4l-0.7-0.4l-0.5-0.1l-0.4-0.1l-0.7-0.1h-0.5h-0.5l-0.7-0.4
		l-0.6-0.1l-0.7-0.1l-0.4,0.1l-0.4,0.1h-0.7h-0.7l-0.5-0.2l-0.5-0.1l-0.7-0.1h-0.5l-0.8,0.1h-0.5l-0.5,0.1l-0.5-0.1l-0.4-0.2
		l-0.6-0.2l-0.6,0.5l-0.1,1.7l-0.5,0.6l-0.5,0.6l-0.5,0.2h-0.5l-0.7-0.5l-0.8-0.1l-0.5,0.1l-1.1,0.4l-0.7-0.1l-0.6,0.1l-0.6,0.1
		l-0.8-0.1l-0.4,0.2l-0.5,0.2v0.4l-0.5,0.6l-0.5-0.6l-0.2-0.5l-0.5-0.4l-0.5-0.4v-0.6l0.1-0.9l-0.7-0.2l-0.4-0.4v-0.6l-0.6-0.7
		l-0.5-0.2h-0.7l-0.6-0.2l-0.5-0.5l-0.4-0.6l-0.2-0.4l-0.5-0.2l-0.4-0.1l-0.5-0.2l-0.7-0.5l-0.7-0.2l-0.8-0.6l-0.2-0.4l-0.4-0.6
		l-0.5-0.2l-0.7-0.2l-0.6-0.1l-0.5-0.1l-0.5-0.1l-0.7-0.8l-0.7-0.1l-0.6-0.1l-0.7-0.1l-0.4,0.2l-0.5,0.2l-0.5,0.1l-0.9-0.1h-0.6
		l-1.2,0.2l-0.5-0.4l-0.5-0.5v-0.6l0.2-1.1l-0.2-0.4l0.1-0.5l-0.1-0.5l0.2-1.3v-0.4v-0.9l-0.1-0.7l-0.1-0.5v-0.4L49,276l-0.4-0.1
		l-0.5-0.2l-0.5-0.1l-0.6-0.4l0.2-0.8l0.1-0.7v-0.7l0.4-0.6l0.5-0.5l0.6-0.4l0.6-0.4l0.4-0.5l0.2-0.7l0.1-0.9l0.1-0.7l0.5-0.5
		l0.7,0.2l0.6,0.4h0.6l0.5-0.4l0.2-0.7l0.2-0.6l0.1-0.7l0.7-0.2h0.6l0.7,0.1l0.6,0.2l0.6,0.4l0.6,0.2l0.6-0.2l0.1-0.7l-0.2-0.6
		l-0.2-0.6l0.5-0.4v-0.7l-0.4-0.6l-0.6-0.5l-0.5-0.5l-0.4-0.6v-0.7l0.7-0.1l0.6,0.2l0.6,0.5l0.6,0.1l0.5-0.5l0.6-0.5l0.5-0.5
		l0.6-0.5l0.5-0.4l0.6-0.4l0.6-0.6l0.5-0.5l0.2-0.6l0.1-0.7v-0.7V255l0.1-0.6l0.6-0.1l0.4,0.6l0.4,0.5l0.5,0.6l0.6,0.2l0.6,0.1
		l0.5-0.5l0.2-0.7v-0.7l0.2-0.6l0.5-0.6l0.6-0.4l0.6-0.2l0.6-0.2l0.6-0.1h0.7h0.7l0.7,0.1l0.5,0.6l0.1,0.6l0.5,0.5l0.7,0.1H75h0.7
		l0.7,0.1l0.6,0.2l0.6,0.2l0.7,0.2l0.5,0.4l0.2,0.7l-0.5,0.5l-0.5,0.6l-0.2,0.6v0.7l0.4,0.5l0.5,0.5l0.6,0.4l0.2-0.4v-0.7l0.2-0.7
		l0.4-0.5l0.5-0.5l0.6-0.1l0.6,0.1l0.5-0.2l0.5-0.5l0.4-0.6l0.4-0.6l0.5-0.5l0.5-0.5l0.2-0.6l0.5-0.6l0.7,0.1l0.6-0.1l0.6-0.5
		l0.4-0.6l0.4-0.6l0.2-0.6l0.5-0.5l-0.2-0.5l-0.2-0.6l-0.6-0.5l-0.4-0.6l0.2-0.7l0.5-0.5l0.4-0.6l0.4-0.6l0.1-0.6l0.1-0.7l0.1-0.7
		l0.2-0.6l0.2-0.6l0.2-0.6l0.2-0.7l0.2-0.6l0.4-0.6l0.1-0.6l-0.2-0.7l-0.4-0.5l-0.2-0.7l-0.1-0.6l-0.1-0.7v-0.7v-0.7v-0.7v-0.7
		l0.4-0.6l0.5-0.5l0.6-0.2l0.7-0.1l0.6-0.2l0.4-0.6l0.4-0.6l-0.4-0.5l-0.6-0.4V229l0.6-0.4l0.6-0.4l-0.1-0.6l-0.6-0.4l-0.6-0.1
		l-0.6-0.2l-0.6-0.6l-0.5-0.5l-0.4-0.6l-0.2-0.6l-0.1-0.7l0.1-0.6v-0.7l0.1-0.7l0.6-0.5l0.5-0.5l0.2-0.6l-0.7-0.1l-0.7-0.1h-0.7
		L88,220l-0.5-0.4l-0.7-0.2l-1.1-0.2l-0.6-0.2l-0.4-0.7l-0.6-0.5l-0.2-0.7l0.1-0.7l0.1-1.1v-0.7v-0.7v-0.7l0.1-0.7v-0.7V211
		l-0.1-1.1l-0.4-0.6l-0.9-0.7l-0.7-0.1l-0.7-0.2l-0.7-0.1h-0.7l-0.7,0.1l-1.9,0.6l-1.7,0.4l-1.3,0.8l-0.8,0.9l-0.6,0.5l-0.2,0.8
		l-0.5,3l-0.4,0.6l-0.7,0.7h-0.8l-1.5-1.1l-1.4-1.1l-1.2-0.8l-1.1-0.7l-1.2,0.1l-1.1,0.6l-1.5,0.9l-1.7,0.5l-1.3-0.9l-0.7-1.2
		l-0.9-1.4l-0.8-1.5l-1.2-1.4l-2.1-0.6l-0.9,0.5l-0.6,0.2l-0.5,0.5l-0.5,0.5l-0.4,0.6l-0.2,0.6l-0.6,0.5l-0.4,0.6l-0.4,0.6v0.7v0.6
		l-0.2,0.7l-0.4,0.5l-0.7-0.1l-0.6,0.1l-0.6-0.5l-0.5-0.4h-0.7h-0.7l-0.7-0.1l-0.6-0.2l-0.6-0.2l-0.5-0.5l-0.2-0.6l-0.4-0.6
		l-0.2-0.6l-0.6-0.5l-0.6-0.2l-0.6-0.1l-0.7-0.2l-0.6-0.4l-0.5-0.6l-0.5-0.5l-0.6-0.2l-0.7-0.1l-0.7-0.1l-0.5,0.6l-0.2,0.6l-0.1,0.6
		v0.7l-0.6,0.1l-0.6-0.4l-0.6-0.4l-0.5-0.5l-0.5-0.5l-0.6-0.4l-0.5-0.6l-0.5-0.5l-0.6-0.4l-0.6-0.2l-0.6-0.5l-0.2-0.5v-0.7v-0.7
		l0.4-0.6l0.5-0.4l0.7,0.1l0.6,0.2l0.5-0.5l0.4-0.6l0.4-0.6v-0.7l-0.2-0.6l-0.2-0.6l-0.5-0.6l-0.4-0.5L29,199l-0.5-0.5l-0.5-0.6
		v-0.6v-0.7v-0.7v-0.7l0.1-0.7l0.1-0.7l0.4-0.6l0.2-0.6l-0.1-0.6l-0.4-0.6l-0.5-0.6l-0.6-0.4l-0.6-0.4l-0.5-0.2l-0.6-0.5l-0.6-0.2
		l-0.6-0.4h-0.7l-0.6-0.2V188l0.5-0.4l-0.1-0.6l-0.2-0.7l-0.4-0.6l-0.4-0.5l-0.5-0.6l-0.6-0.4l-0.6-0.1l-0.7-0.1l-0.7-0.1l-0.6-0.1
		l-0.7-0.1h-0.7l-0.6,0.2l-0.5,0.5L16,185l-0.2,0.6l-0.6,0.4l-0.6,0.4l-0.6,0.1h-0.7l-0.7-0.1l-0.6-0.2l-0.6-0.5l-0.5-0.4l-0.6-0.4
		l-0.6-0.2l-0.6-0.2l-0.7-0.2l-0.6-0.1l-0.7-0.2l-0.6-0.2l-0.6-0.2l-0.7-0.1l-0.7-0.1L3.7,183H3l-0.6-0.1l-0.7-0.2L1,182.5l-0.6-0.1
		l-0.6,0.2l-0.6,0.4l-0.7,0.2l-0.6,0.1l-0.6,0.2l-0.5,0.5l0.1,1.1v0.7l-0.1,0.7l0.2,0.6l0.2,0.6v0.7l0.1,0.7v0.7v0.6l-0.2,0.7
		l-0.2,0.6l-0.6,0.4h-0.7l-0.6-0.1l-0.6-0.4l-0.5-0.6l0.1-0.6l-0.2-0.7l-0.5-0.5l-0.5-0.6l-0.6-0.4l-0.5-0.4l-0.7-0.1l-0.6-0.2
		l-0.4-0.6l0.2-0.6l0.2-0.6l-0.1-0.7l-0.4-0.6l-0.5-0.5l-0.5-0.6l-0.5-0.5l-0.5-0.5l0.1-0.6l-0.2-0.7l-0.4-0.6l-0.2-0.6l-0.4-0.6
		l-0.4-0.6v-0.6l-0.2-0.7l-0.2-0.6l-0.4-0.5l-0.2-0.9l-0.1-0.7l-0.1-0.6l-0.1-0.7l-0.2-0.6l-0.2-0.7l-0.1-0.6l-0.2-0.6l-0.1-0.7
		l-0.2-0.6l-0.1-0.7l-0.1-0.6v-0.7V167l0.1-0.7l0.2-0.6l0.2-0.7l0.2-0.6l0.4-0.6l0.6-0.4l0.4-0.6l0.4-0.6l0.6-0.5l0.5,0.2l0.7,0.2
		l0.6,0.2l0.6,0.5l0.4,0.5l0.4,0.6l0.5,0.6l0.5,0.5l0.5,0.6l0.4,0.6l0.4,0.5l0.6,0.5l0.6,0.1l0.7,0.1l0.7,0.1l0.6,0.1l0.7,0.2
		l0.5,0.5l0.5,0.6l0.5,0.5l0.6,0.5l0.6,0.1l0.7-0.4l0.5-0.4l0.5-0.6l0.5-0.5l0.5-0.5l0.6-0.4l0.6-0.4l0.6-0.1l0.7-0.1h0.7h0.7
		l0.7-0.4l0.7-0.2l0.5-0.4l0.5-0.6l0.4-0.6l0.2-0.6l0.4-0.6l0.4-0.5l0.5-0.5l0.6-0.4l0.6-0.5l0.6-0.4l0.6-0.2l0.7-0.1l0.6-0.1h0.7
		h0.7l0.7-0.2l0.6-0.1l0.7-0.1l0.6-0.1l0.7-0.1l0.6-0.4l0.5-0.5l0.6-0.5l0.2-0.6l0.2-0.6l0.2-0.6l0.1-0.7v-0.7l0.1-0.7l0.1-0.7
		l0.1-0.6l0.2-0.6l0.4-0.6l0.4-0.6l0.5-0.5l0.2-0.7l0.2-0.6l0.6-0.2l0.6-0.4l0.6-0.2l0.6-0.4l0.6-0.5l0.6-0.2l0.6-0.4l0.6-0.2
		l0.6-0.4l0.5-0.6l0.4-0.5l0.4-0.6l0.5-0.5l0.6-0.5l0.7-0.1h0.7l0.6,0.2L33,145l0.6,0.4l0.5,0.4l0.5,0.5l0.2,0.7v0.6v0.7l0.4,0.6
		l0.4,0.6l0.6,0.4l0.7,0.1l0.7-0.1l0.7-0.1h0.6l0.7-0.1h0.7H41l0.7-0.1l0.7,0.1l0.7,0.1l0.6-0.1h0.7h0.7l0.6,0.4l0.6,0.4l0.5,0.6
		l0.4,0.6l0.4,0.5l0.5,0.6l0.2,0.6l0.1,0.7v0.7l0.2,0.6l0.5,0.5l0.4,0.6l0.2,0.6l0.4,0.7l0.1,0.6l0.4,0.6l0.6,0.4l0.7,0.1l0.6,0.2
		l0.7,0.1l0.6,0.2l0.7,0.1l0.6,0.1l0.7,0.2h0.7l0.7,0.1l0.7,0.1l0.6,0.2l0.5,0.5l0.5,0.5l0.6,0.4l0.7,0.1l0.4,0.1h0.5l0.7,0.2
		l0.6,0.2l0.6,0.2l0.6,0.4l0.5,0.5l0.6,0.5l0.5,0.4l0.6,0.5l0.5,0.4l0.6,0.5l0.5,0.4l0.6,0.5l0.5,0.5l0.6,0.2l0.7,0.2l0.6,0.1h0.7
		l0.7-0.1l0.6-0.4l0.5-0.4l0.5-0.5l0.6-0.4l0.6-0.2l0.7-0.1h0.7l0.7,0.1l0.6,0.2l0.5,0.4l0.6,0.4l0.6,0.5l0.5,0.6l0.4,0.5l0.4,0.6
		l0.2,0.6l0.4,0.7l0.2,0.6l0.2,0.6l0.5,0.5l0.6,0.4l0.4,0.5l0.7-0.1l0.6-0.1l0.6-0.5l0.5-0.5l0.4-0.6l0.4-0.6l0.5-0.5l0.4-0.6
		l0.4-0.6l0.5-0.4l0.6-0.4l0.6-0.4l0.7-0.1l0.6-0.1l0.6-0.4l0.6-0.4l0.5-0.6l0.5-0.5l0.2-0.6l0.4-0.6l0.6-0.4l0.6-0.2l0.7-0.2
		l0.4-0.5l0.2-0.7l0.1-0.6l0.2-0.7l0.2-0.6l0.2-0.6l0.2-0.6l0.1-0.7l-0.1-0.7l-0.1-0.6v-0.8l0.1-0.6V155l-0.1-0.6l-0.2-0.7l-0.2-0.6
		l-0.5-0.5l-0.6-0.5l-0.5-0.5l-0.2-0.6l0.6-0.7l0.7-0.2l0.6-0.1l0.7-0.1l0.7-0.1l0.6-0.1h0.7l0.7-0.1l0.7-0.1l0.6-0.1l0.6-0.2
		l0.7-0.1l0.6-0.2l0.7-0.1h0.7h0.7h0.7l0.6-0.1l0.6-0.4l0.7-0.1l0.6-0.2l0.6-0.4l0.6-0.1l0.7-0.2l0.6-0.1l0.7-0.2l0.6-0.4l0.6-0.1
		l0.6-0.2h0.7l0.4-0.6l0.6-0.5l0.6-0.4l0.6-0.2h0.7l0.7-0.1l0.5-0.4l0.5-0.6l0.5-0.5l0.8-1.2l0.6-0.2l0.7-0.1l0.6-0.2l0.7-0.1
		l0.6-0.2l0.6-0.2l0.6-0.2l0.6-0.4l0.6-0.5l0.5-0.5l0.5-0.5l0.6-0.5l0.5-0.5l0.6-0.5l0.6-0.4l0.6-0.4h0.6l0.7,0.2l0.6,0.4h0.6
		l0.6-0.2l0.6-0.2l0.6-0.4l0.7-0.2l0.6,0.1l0.7,0.1h0.7l0.7-0.1l0.6-0.1l0.7-0.1l0.7-0.1l0.6-0.1l0.7-0.1l0.6-0.1l1.1,0.1l0.7-0.1
		l0.4-0.6l0.2-0.7l0.1-0.6l0.1-0.7l0.1-0.7l0.2-0.6l0.5-0.5l0.6-0.1l0.7-0.1l0.7,0.1l0.7,0.1l0.6,0.2l0.6,0.2l0.6,0.2l0.7-0.1
		l0.2-0.6l-0.1-0.7l0.4-0.6l0.5-0.5l0.4-0.5v-0.7v-0.7l-0.2-0.7v-0.7l-0.1-0.6l-0.1-0.7l-0.1-0.7l-0.1-0.6l-0.5-0.5l-0.6-0.5
		l-0.4-0.6l-0.2-0.6v-0.7l-0.1-0.7l0.1-0.7v-0.7l0.2-0.6l0.4-0.6l0.5-0.5l0.6-0.4l0.5-0.6l0.2-0.8l0.4-0.6l0.5-0.5l0.6-0.4l0.6-0.4
		l0.6-0.2l0.6-0.2l0.5-0.4l0.2-0.6l0.1-0.7l0.1-0.7v-0.7l0.6-0.4l0.6-0.2l0.7-0.1l0.6-0.1h0.7l0.7-0.1l0.6-0.1l0.7-0.2l0.6-0.1
		l0.7-0.2l0.5-0.4l0.6-0.5l0.6-0.4l0.6-0.2l0.6-0.2h0.7l0.2,0.6l0.2,0.7l0.2,0.6l0.1,0.7l0.1,0.6l0.2,0.7l0.5,0.5l0.6,0.2l0.7,0.1
		l0.7,0.1l0.5,0.5l0.4,0.6l0.5,0.5l0.6,0.5l0.5,0.4l0.6,0.5l0.4,0.2l0.2,1.1v0.7l0.1,0.6v0.7l-0.5,0.6l-0.6,0.1l-0.6,0.2l-0.5,0.5
		l-0.1,0.7l0.5,0.6l0.5,0.4l0.7,0.4l0.6,0.1l0.7-0.1l0.6-0.2l0.7-0.2l0.6-0.1l0.4,0.5l0.2,0.6l0.6,0.2l0.7,0.1h0.6l0.6,0.4v0.6
		l-0.4,0.5l-0.6,0.2l-0.2,0.6l-0.1,0.7l0.2,0.6l0.2,0.7l0.2,0.6v0.7l0.2,0.6l0.1,0.7l0.1,0.6l0.6,0.5l0.6-0.2l0.6-0.4l0.6-0.2
		l0.6-0.4l0.7-0.1l0.5,0.4v0.7v0.7l-0.1,0.7l-0.5,0.6l-0.2,0.6l-0.4,0.6l-0.1,0.6l-0.2,0.6l-0.1,0.7v0.7l0.6,0.2h0.6l0.6-0.4
		l0.7-0.2l0.7,0.1l0.6-0.2l0.6-0.2l0.5-0.6l0.4-0.5l0.4-0.6l0.4-0.6l0.7-0.1l0.6-0.1l0.6-0.2l0.6-0.4l0.6-0.5l0.5-0.5l0.2-0.6
		l0.2-0.6l0.5-0.5l0.5-0.6l0.6-0.2l0.7,0.2l0.2,0.6l0.1,0.7v0.7l-0.2,0.6v0.7l0.1,0.7l0.4,0.6l0.4,0.5l0.4,0.6l0.5,0.6l0.5,0.5
		l0.5,0.6l0.2,0.6l0.5,0.4l0.5-0.5l0.2-0.6l0.4-0.6l0.5-0.6l0.5-0.4l0.7-0.2l0.5,0.4l0.1,0.7l0.1,0.6l-0.2,0.7l-0.2,0.6l0.4,0.6
		l0.5,0.5l0.5,0.5l0.4,0.6l0.2,0.6l-0.2,0.7l-0.4,0.6l-0.2,0.5l-0.2,0.7l0.6,0.4l0.6-0.1l0.7-0.2l0.6-0.2l0.7,0.1l0.5,0.4l0.4,0.6
		l0.6,0.6l0.6-0.5l0.5-0.4l0.6-0.5l0.5-0.6l0.5-0.5l0.5-0.6l0.5-0.4l0.6-0.4l0.7-0.1l0.6-0.4l0.6-0.1l0.7-0.1l0.7-0.1l0.6-0.1
		l0.6-0.4l0.6-0.1l0.6-0.4l0.5-0.6l0.1-0.7l0.6-0.2l0.7,0.1l0.7,0.1l0.6,0.2h0.7h0.7l0.6,0.4h0.6l0.7-0.1l0.6-0.2l0.6-0.4l0.2-0.6
		l0.1-0.6l0.5-0.6l0.5-0.5l0.8-0.7l0.4-0.6l-0.4-0.6v-0.6l0.5-0.4v-0.7l-0.5-0.5l-0.2-0.6l0.5-0.5l0.5-0.5l0.2-0.6l-0.1-0.6
		l-0.4-0.6l-0.1-0.7l0.1-0.7l0.4-0.5v-0.7l-0.5-0.5l0.4-0.6l0.7,0.1l0.6-0.2l0.6-0.2l0.5-0.6l0.1-0.6v-0.7l-0.6-0.4l-0.6-0.2
		l-0.6-0.2l-0.1-0.6l0.5-0.4l0.6-0.4l0.9-0.2l0.6,0.2l0.6,0.2l0.6,0.5l0.2,0.6l0.4,0.5l0.6,0.2l0.6,0.4l0.5,0.5l0.5-0.5l0.2-0.6
		v-0.7l-0.6-0.4l-0.2-0.6l0.1-0.7l0.5-0.6l0.6-0.4l0.5-0.5l0.6-0.5l0.5-0.4l0.6-0.5l0.4-0.5v-0.7l0.4-0.6l0.6-0.5l0.6-0.2l0.7,0.2
		l0.6,0.1l0.6,0.5l0.2,0.6l0.5,0.4l0.7,0.1l0.6,0.5l0.5,0.4l0.6,0.6l0.4,0.5v0.7l-0.1,0.7l0.1,0.7l0.5,0.5h0.7l0.7-0.2l0.6-0.2h0.7
		l0.5,0.2l0.7-0.1l0.6,0.4l0.4,0.6l0.5,0.5l0.5,0.5l0.6,0.2l0.6,0.4l0.6,0.4l0.6,0.4l0.4,0.6l0.6,0.5l0.5,0.5l0.4,0.5l0.5,0.6
		l0.2,0.6l0.1,0.7l0.1,0.7l0.4,0.5l0.5,0.5l0.6,0.5l0.5-0.5l0.2-0.6l0.4-0.6v-0.7l-0.1-0.7l-0.1-0.6v-0.7l-0.1-0.7l-0.1-0.7
		l-0.1-0.6l-0.4-0.6l-0.5-0.5l-0.1-0.7l0.1-0.7l0.1-0.7l0.4-0.5l0.6-0.5l0.6-0.2l0.4-0.2l0.6-0.4l-0.1-0.7v-0.7l0.2-0.6l0.6-0.2
		l0.6,0.1l0.7,0.1l0.5-0.5l0.1-0.6l-0.2-0.6l-0.5-0.6l-0.5-0.5l0.1-0.7l0.4-0.6l0.4-0.6l0.2-0.6l0.4-0.6l0.5-0.6l0.4-0.5l0.7-0.2
		l0.6-0.2l0.7-0.1l0.6-0.1l0.6-0.2l0.7-0.1l0.6-0.4h0.7l0.4,0.6v0.6l-0.2,0.6l-0.2,0.7l0.5,0.5l0.4,0.6l0.2,0.6l-0.2,0.6l-0.1,0.6
		l0.5,0.6l0.5,0.4l0.6,0.4h0.7l0.6-0.2l0.6-0.4l0.6-0.2l0.7-0.1l0.7,0.1l0.6,0.2l0.7,0.1l0.5,0.4h0.7h0.6l0.7-0.2l0.6-0.2l0.6-0.2
		l0.7-0.1l0.2,0.6l0.2,0.7l0.6,0.2h0.7h0.7l0.6,0.5l0.5,0.5l0.6,0.1l0.7,0.2l0.6-0.2l0.6-0.2l0.5-0.5l0.4-0.6l0.2-0.6l-0.4-0.6
		l-0.6-0.2l-0.5-0.5l-0.2-0.6l-0.1-0.7v-0.7v-0.7v-0.7l0.1-0.6l0.1-0.7v-0.7v-0.7l0.2-0.7l0.4-0.6l0.2-0.6l0.2-0.6l0.2-0.6l0.4-0.6
		l0.2-0.6l0.1-0.7l-0.4-0.6l-0.5-0.5l-0.6-0.2l-0.7-0.1h-0.7l-0.5,0.5l-0.5,0.5h-0.6l-0.7,0.1L279,100l-0.4,0.6l-0.2,0.6l-0.5,0.6
		l-0.5,0.5l-0.5,0.5l-0.6,0.5h-0.7l-0.6,0.1l-0.7-0.1l-0.6-0.2l-0.4-0.6l-0.1-0.7l0.1-0.6l0.4-0.6l0.5-0.5l0.6-0.4l0.6-0.4l0.7-0.1
		l0.6-0.2l0.6-0.4l0.6-0.4l0.5-0.5l0.5-0.5l0.4-0.6l-0.2-0.6l0.6-0.4l0.6-0.2h0.7l0.7-0.1l0.7,0.1l0.7,0.1l0.6-0.2l0.6-0.1l0.7-0.1
		l0.6-0.4l0.6-0.2l0.6-0.2l0.7-0.1h0.7l0.4,0.6l0.1,0.7l-0.1,0.6l-0.1,0.7l0.4,0.6l0.7,0.1l0.6,0.1l0.7-0.1l0.4-0.5l0.2-0.7
		l-0.1-0.7l-0.1-0.6l0.2-0.9l0.7,0.4l0.5,0.5l0.2,0.6l0.1,0.7l0.2,0.6l0.1,0.7l0.5,0.6l0.5,0.4l0.7,0.1l0.6,0.4l0.7,0.1h0.6h0.7
		l0.7,0.1l0.6,0.2h0.7l0.7,0.1h0.7l0.6-0.4l0.5-0.4l-0.2-0.7l-0.2-0.6l-0.7,0.1h-0.7v-0.6l0.6-0.5L301,96l0.2-0.6l0.4-0.6l0.2-0.7
		l0.1-0.6l0.1-0.7l0.4-0.6l0.9-0.2l0.6-0.4l0.4-0.6l0.5-0.6l0.4-0.6l0.2-0.6l0.2-0.6l0.2-0.6l0.5-0.5l0.4-0.6l0.4-0.6l0.4-0.6
		l0.4-0.6l0.1-0.6l-0.2-0.7l-0.6-0.2l-0.2-0.7l0.4-0.5l0.6-0.4l0.6-0.4l0.6-0.5l0.6-0.2l0.7-0.2l0.7-0.2l0.2,0.7l0.6,0.4l0.6,0.6
		l0.5,0.4l0.7,0.4l0.7,0.2l0.6,0.2l0.7,0.1h0.7l0.7-0.1l0.4-0.6l0.6-0.5l0.6-0.4l0.9-0.6h0.7l0.7,0.2l0.7,0.2l0.6,0.8l0.1,0.7
		l0.4,0.5l0.7,0.1l0.7,0.2l1.1,0.1l0.7,0.7l0.4,1.1l0.2,0.7l-0.1,0.4h-0.7l-0.4-0.1l-0.6,0.1l-0.2,0.2l-0.6,0.9l-0.2,0.7v0.7
		l0.1,0.7l0.9,0.5l1.1-0.2l0.7-0.2l0.7,0.1h0.7l1.2-0.2l0.6-0.1h0.7l0.7-0.1l0.6-0.1l0.6-0.5l0.2-0.6l0.2-0.6l0.2-0.6l0.1-0.7v-0.7
		l-0.2-0.7l-0.4-0.5l-0.1-0.6v-0.7l-0.1-0.7l-0.5-0.5l-0.6-0.2l-0.4-0.6l0.4-0.6l0.2-0.7l0.4-0.6l0.2-0.6l0.4-0.5l0.5-0.6l0.5-0.4
		h0.7l0.6,0.2l0.7,0.1h0.6l0.6-0.2l0.7-0.4l0.4-0.5l0.4-0.6l0.1-0.6l0.1-0.7l0.1-0.7l0.4-0.6l0.4-0.5l0.2-0.7l-0.1-0.7v-0.7l0.2-0.6
		l0.4-0.6l0.5-0.6l0.5-0.5l0.5-0.5l0.5-0.5l0.5-0.6l0.4-0.5l0.5-0.5l0.4-0.1l0.4,0.4l0.4,0.6l0.5,0.5l0.5,0.4l0.6,0.4l0.4,0.5
		l0.1,0.7l0.5,0.4l0.7-0.1l0.6-0.4h0.6l0.6,0.4l0.6-0.2l0.7-0.1l0.1,0.7l0.1,0.7l0.1,0.6l-0.1,0.7l-0.5,0.5l-0.2,0.6l-0.2,0.6v0.7
		l-0.1,0.7l-0.1,0.7l-0.1,0.7l-0.1,0.7l0.2,0.6l0.6,0.4l0.6,0.2l0.2,0.6l0.6,0.2l0.6-0.4l0.6-0.2l0.6,0.4l0.5,0.6l0.5,0.4l0.7-0.2
		l0.4-0.6l0.4-0.5l0.2-0.7l0.4-0.6l0.4-0.5l0.6-0.5l1.1,0.1l0.2,0.6v0.7l0.5,0.5l0.6,0.4l0.6,0.4l0.4,0.6l0.2,0.6v0.5l-0.7,0.1V82
		l0.2,0.6l0.4,0.5l0.7,0.1h0.7l0.5,0.2l0.4-0.2l0.7-0.1l0.6-0.4l0.6-0.2l0.6-0.4l0.6-0.2l0.7-0.1l0.2-0.6l0.1-0.6l0.4-0.6l0.1-0.7
		l0.1-0.7V78v-0.7l0.5-0.5l0.6-0.4l0.1-0.6l0.2-0.6l0.4-0.6l0.2-0.6l0.6-0.5l0.5-0.5l0.5-0.5l0.5-0.5l0.6-0.5l0.5-0.5l0.5-0.6
		l0.4-0.5l0.6-0.5l0.5-0.4l0.6-0.4l0.6,0.4l0.6,0.2l0.6-0.5l0.4-0.5l0.4-0.6l0.5-0.5l0.5-0.6l0.4-0.6l0.4-0.5l0.4-0.6l0.1-0.7
		l-0.2-0.7l0.1-0.6l0.7-0.2l0.6-0.4l0.5-0.4l0.2-0.7l0.2-0.6l0.4-0.6l0.2-0.8l0.4-0.6l0.5-0.5l0.6-0.5h0.6l0.4,0.6l0.2,0.6l0.6,0.2
		l0.7-0.2l0.5-0.4l0.7,0.1l0.5,0.6h0.7l0.4,0.6l0.6,0.4l0.6-0.1l0.6-0.5l0.5-0.5l0.6-0.2l0.6,0.4l0.1,0.7l-0.2,0.6v0.7l-0.2,0.6
		l-0.1,0.7l0.5,0.4h0.7l0.6,0.5l0.5,0.1l0.6-0.4h0.7l0.7,0.2h0.6l0.7-0.2l0.6-0.2l0.6-0.2l0.6-0.5l0.5-0.4l0.7-0.1l0.7-0.1h0.6
		l0.7,0.1l0.6,0.2l0.6,0.4l0.2-0.5l0.2-0.6l0.1-0.6l-0.1-0.7v-0.7v-0.7l0.5-0.5l0.5-0.4v-0.8l-0.1-0.6l-0.1-0.7v-0.7l0.5-0.4
		l0.7-0.1h0.7l0.6,0.2l0.6,0.5l0.6,0.1v0.7l-0.1,0.6l-0.1,0.7v0.7l0.6,0.2h0.7l0.6,0.2l0.6,0.4l0.6,0.2h0.7l0.6-0.2l0.7-0.1l0.6,0.4
		l0.6,0.4l0.6,0.2h0.7l0.7-0.1l0.6-0.1l0.7,0.1h0.7l0.6,0.1l0.6,0.4l0.7,0.2l0.5,0.4l0.2,0.6l0.2,0.7l0.7,0.2l0.6,0.1l0.7,0.1h0.7
		h0.6l0.7,0.1l0.7,0.2l0.4,0.6v0.7v0.7l-0.2,0.6l-0.4,0.6l-0.1,0.7v0.6l0.1,0.7V69l-0.5,0.5l-0.4,0.6l-0.1,0.7l0.1,0.6l0.5,0.5h0.5
		l-0.2,0.8l-0.2,0.7l-0.4,0.6l-0.4,0.6l-0.1,0.6v0.7l0.1,0.6l-0.1,0.7l-0.4,0.5l-0.6,0.2l-0.6,0.5l-0.4,0.5l-0.4,0.6l-0.4,0.6
		l-0.2,0.6l-0.2,0.7V82l0.1,0.7l0.1,0.6l0.1,0.7l0.1,0.7l0.1,0.6l0.1,0.7l0.4,0.6l0.2,0.6v0.7l0.5,0.5l0.5,0.5l0.2,0.6l0.2,0.6
		l0.5,0.6l0.6,0.2l0.6,0.5l0.6,0.2l0.6-0.4l0.2-0.6l0.2-0.6l0.2-0.6l0.4-0.6l0.6-0.4l0.6-0.4l0.7-0.1l0.6-0.2l0.7-0.1l0.6,0.1
		l0.6,0.4l0.5,0.5l0.5,0.6l0.7,0.1l0.6-0.5l0.6,0.4l0.6-0.1l0.7-0.2l0.6-0.1l0.5,0.5V90l0.7,0.1l0.6-0.2l0.7,0.1l0.4,0.6l-0.5,0.4
		l-0.6,0.4l-0.6,0.4l-0.6,0.2l-0.7,0.2l-0.6,0.2l-0.4,0.5l-0.4,0.6l-0.2,0.6l-0.4,0.6l-0.4,0.6l-0.6,0.5L434,96l-0.1,0.7l0.4,0.6
		l0.5,0.4l0.5,0.5l-0.4,0.6l-0.4,0.6l-0.6,0.4l-0.7,0.1l-0.6,0.1h-0.7h-0.7l-0.6,0.1l-0.6,0.4l-0.6,0.4l-0.6,0.4l-0.1,0.7l-0.2,0.6
		l-0.2,1.7l-0.1,1.3v1.8l0.4,1.2l0.2,1.1l0.1,1.4v2.1l-0.1,1.5l-0.5,1.4l-0.2,1.4l0.2,1.4l-0.2,0.5v0.7l-0.1,0.7l-0.5,0.5l-0.5,0.4
		l-0.6,0.5l-0.5,0.6l-0.5,0.5l-0.4,0.6l-0.1,0.6l-0.4,0.7l-0.4,0.5l-0.5,0.4L423,126l-0.6,0.1l-0.7,0.1l-0.6,0.2l-0.6,0.5l-0.5,0.4
		l-0.5,0.5l-0.6,0.5l-0.4,0.6l-0.4,0.6l-0.4,0.6l-0.4,0.5l-0.6,0.5l-0.5,0.5l-0.6,0.4l-0.5,0.6l-0.2,0.2l0.4,0.6l0.1,0.7l0.1,0.6
		l-0.2,0.7l-0.1,0.6l-0.2,0.7l-0.2,0.6l-0.5,0.5l-0.2,0.6l-0.5,0.6l-0.6,0.4l-0.6,0.2l-0.6,0.2l-0.7,0.2l-0.5,0.4l-0.6,0.4l-0.6,0.4
		l-0.6,0.4l-0.5,0.5l-0.4,0.6l-0.4,0.6l-0.1,0.7l-0.1,0.6l-0.1,0.7l-0.2,0.6l-0.2,0.6l-0.4,0.6l-0.2,0.6l-0.2,0.7l-0.1,0.6l-0.1,0.7
		v0.7v0.7l0.1,0.6l0.4,0.6l0.2,0.7l0.2,0.6l0.2,0.6l0.4,0.6l0.2,0.6l0.2,0.6v0.7l0.2,0.7l0.6,0.2l0.6-0.1l0.6-0.2l0.6,0.5h0.6
		l0.6-0.2l0.6-0.4h0.7h0.7l0.7,0.1l0.6-0.1l0.1-0.6l-0.1-0.7v-0.7l0.2-0.7l0.2-0.6l0.1-0.6v-0.7l-0.1-0.7l-0.1-0.7l0.4-0.8l0.6-0.4
		h0.7h0.6l0.6-0.2l0.5-0.5l0.6-0.4l0.6-0.5l0.6-0.2l0.6-0.4l0.5-0.5l0.2-0.6l0.6-0.4l0.5-0.4l0.6-0.5l0.4-0.6l0.2-0.6l0.6-0.5
		l0.6-0.2l0.4-0.6l0.5-0.5l0.6-0.1l0.6,0.4l0.5,0.5l0.5,0.6l0.5,0.5l0.6,0.4l0.7,0.1l0.6,0.4l0.6,0.2l0.6-0.2l0.5-0.5l0.2-0.6
		l0.5-0.5l0.6-0.4l0.7,0.1l0.4,0.5l0.4,0.6l0.5,0.5l0.7,0.1l0.6,0.1l0.5,0.4l-0.2,0.6l-0.4,0.6l-0.2,0.6l-0.2,0.7v0.7l0.1,0.6
		l0.4,0.6l0.6,0.4l0.6,0.4l0.6,0.2l0.6,0.4v0.6l-0.1,0.7l-0.4,0.6l-0.5,0.5l-0.5,0.5l-0.5,0.6l-0.2,0.6l-0.1,0.7l0.4,0.5l0.6,0.4
		l0.6,0.2l0.6,0.2l0.6,0.4l0.2,0.7l-0.5,0.5l-0.5,0.6l-0.2,0.6l-0.2,0.6l0.2,0.6l0.4,0.6v0.6l-0.2,0.6v0.8l0.2,0.6l0.5,0.5l0.4,0.6
		l0.2,0.6l0.2,0.6l0.1,0.7l-0.1,0.7l-0.1,0.6l-0.1,0.7l-0.2,0.6l-0.2,0.6l-0.1,0.7l-0.2,0.6l-0.2,0.6l-0.4,0.6l-0.4,0.6l-0.2,0.6
		l-0.1,0.7l-0.1,0.6l0.4,0.6l0.6,0.4l0.5,0.4l0.4,0.4h0.7l0.6-0.1l0.6,0.4l0.6,0.4l0.5,0.5l0.5,0.7l0.4-0.1l0.6-0.6h0.6l0.7,0.1
		l0.6-0.1l0.4-0.6l0.1-0.7l0.1-0.6l0.4-0.6l0.6-0.4l0.5-0.5l0.7,0.1l0.7,0.1h0.6l0.7-0.2l0.4-0.5l0.2-0.6l0.2-0.7v-0.7l0.1-0.7
		l0.1-0.6l0.4-0.6l0.2-0.6l0.5-0.6l0.6-0.4l0.6-0.2h0.7l0.6-0.2h0.7h0.7l0.6-0.2l0.7-0.1l0.7-0.1l0.6-0.2l0.6,0.1l0.6,0.4l0.6,0.4
		l0.7,0.1l0.6-0.1l0.7,0.1l0.7,0.1h0.7l0.6,0.1l0.5,0.6l0.5,0.4l0.6-0.2l0.7-0.2l0.6,0.1l0.6,0.2l0.7,0.1l0.6-0.2l0.6-0.2l0.7-0.1
		h0.7l0.6,0.2l0.6,0.1l0.6,0.4l0.7,0.2l0.4,0.5L475.4,170.8L475.4,170.8"/>
	<path vector-effect="none" class="st0" d="M256.4,387.4l-0.2,0.6h-0.6l-0.6-0.4l-0.4-0.2l-0.2-0.4v-0.6l0.4-0.5l0.5,0.4l0.6,0.1
		l0.8,0.5L256.4,387.4L256.4,387.4"/>
	<path vector-effect="none" class="st0" d="M257.2,394.1l-0.7,0.5l-0.9-0.6l-0.4-0.4l-0.1-0.8h0.4l0.5,0.1h0.5l0.6,0.5L257.2,394.1
		L257.2,394.1"/>
	<path vector-effect="none" class="st0" d="M255.8,395.8l-0.5,0.6l-0.5-0.2l-0.1-0.7l-0.2-0.5l-0.1-0.7l0.6-0.1l0.6,0.4l0.2,0.6
		V395.8L255.8,395.8"/>
	<path vector-effect="none" class="st0" d="M239.7,400l-0.7,0.4l-0.8-0.2v-0.6l0.2-0.2l0.4-0.2l0.6-0.2h0.4l0.4,0.5L239.7,400
		L239.7,400"/>
	<path vector-effect="none" class="st0" d="M266.1,394.8l-0.7,0.2l-0.8-0.7l0.1-0.7l0.8-0.2l0.7,0.4l0.1,0.6L266.1,394.8
		L266.1,394.8"/>
	<path vector-effect="none" class="st0" d="M314.7,405.7l-0.5,0.1l-0.5-0.1l-0.1-0.5l0.5-0.8l0.4-0.1l0.6,0.1l0.5,0.6l-0.4,0.4
		L314.7,405.7L314.7,405.7"/>
	<path vector-effect="none" class="st0" d="M244.3,379.2l-0.6,0.7l-0.7-0.4l-0.4-0.6v-0.7l0.7,0.2h0.5L244.3,379.2L244.3,379.2"/>
	<path vector-effect="none" class="st0" d="M248.1,383.9l-0.5,0.4H247l-0.4-0.7l0.1-0.8l0.2-0.2l0.6,0.1l0.5,0.5V383.9L248.1,383.9"
		/>
	<path vector-effect="none" class="st0" d="M326.4,406.4l-0.4,0.2l-0.9-0.2h-0.6l-0.2-0.5l0.9-0.4h0.8l0.2,0.4L326.4,406.4
		L326.4,406.4"/>
	<path vector-effect="none" class="st0" d="M310,410.9l-0.2,0.2l-0.7-0.4l0.4-0.8l0.4-0.1l0.4,0.5L310,410.9L310,410.9"/>
</g>
</svg>
