<?xml version="1.0" encoding="utf-8"?>
<!-- Generator: Adobe Illustrator 27.0.0, SVG Export Plug-In . SVG Version: 6.00 Build 0)  -->
<svg version="1.1" id="Layer_1" xmlns="http://www.w3.org/2000/svg" xmlns:xlink="http://www.w3.org/1999/xlink" x="0px" y="0px"
	 viewBox="0 0 500 500" style="enable-background:new 0 0 500 500;" xml:space="preserve">
<style type="text/css">
	.st0{fill:#E74646;stroke:#FFFFFF;stroke-width:4.6041;stroke-linecap:square;stroke-linejoin:bevel;stroke-miterlimit:3.998;}
</style>
<g transform="matrix(0.999751,0,0,0.999751,18.6633,21.7738)">
	<path vector-effect="none" class="st0" d="M456.1,79.6l0.2,0.9l-0.2,0.9l-0.2,0.9v0.8l-0.2,0.9V85V86l0.2,0.8v0.9l0.2,0.9l0.5,0.8
		l0.8,0.6l0.2,0.8v0.9l0.2,0.9v0.9l0.2,0.9l0.3,0.8l0.5,0.8l0.5,0.8l0.6,0.6l0.8,0.5l0.8-0.3l0.6-0.5l0.9-0.3l0.8,0.3l0.3,0.9
		l0.3,0.8l0.6,0.2l0.8-0.5l0.8,0.2l0.2,0.9l0.2,0.8l-0.3,0.9l-0.3,0.8l-0.6,0.6l-0.8,0.6l-0.5,0.8l-0.3,0.8l-0.2,0.9v0.9l0.2,0.6
		l-0.5,0.8v0.9l-0.2,0.9l-0.3,0.8l-0.5,0.8l-0.2,0.8l-0.3,0.9l-0.6,0.6l-0.3,0.8l-0.3,0.9l-0.2,0.8l-0.3,0.9l-0.3,0.8l-0.2,0.9
		l0.2,0.9v0.9v0.9l0.2,0.9v0.9v0.9l0.8,0.3l-0.3,0.8l-0.5,0.8l-0.5,0.8l-0.2,0.9l0.2,0.8v0.9v0.9l0.5,0.8l0.8,0.5l0.3,0.8l0.2,0.9
		l-0.2,0.9l0.2,0.8v0.9l0.3,0.9l0.3,0.6l0.3,0.8l0.2,0.9l-0.2,0.9l-0.2,0.8l-0.5,0.8l-0.5,0.8v0.9l0.6,0.6l0.6,0.5l0.8,0.6l0.6,0.6
		l0.5,0.8l0.5,0.8l0.8,0.5l0.8,0.3l0.8,0.3l0.9,0.2h0.9l0.9-0.2h0.8l0.3,0.8v0.8l-0.5,0.8l0.3,0.9l0.8,0.5l0.6,0.6l0.3,0.8l0.2,0.9
		v0.9l0.2,0.9l0.8,0.6l0.2,0.9v0.9v0.9l-0.2,0.8l-0.2,0.9l-0.2,0.9L473,163l-0.3,1.4l-0.8,0.5l-0.6,0.6l-0.8,0.5h-0.9h-0.9l-0.6,0.5
		l-0.9,0.2v0.9l-0.5,0.8v0.9l-0.2,0.9l-0.2,0.9l-0.6,0.8l-0.6,0.8l-0.5,0.8l-0.2,0.9l-0.3,0.8l-0.8,1.2l-0.5,0.8l-0.5,0.8l-0.9,0.8
		l-1.2-0.2l-0.9-0.3l-0.8-0.5l-0.8-0.3h-0.8l-0.8,0.5l-0.9,0.2l-0.3-0.8l-0.2-0.9l-0.9-0.3l-0.8,0.2l-0.8-0.6l-0.8-0.3l-0.9,0.3
		l-0.6,0.6l-0.6,0.8l-0.5,0.6l-0.8,0.6l-0.5-0.6l0.3-0.9l-0.3-0.8l-0.8-0.3l-0.6,0.2l-0.8,0.8v0.9v0.9l-0.6,0.6l-0.5,0.8l-0.2,0.9
		l-0.2,0.9l-0.5,0.6l-0.6,0.8l-0.6,0.6l-0.5,0.8l-0.8,0.5l-0.8,0.5l-0.9-0.2l-0.8,0.2l-0.5,0.8l-0.2,0.8l-0.5,0.8l-0.3,0.9l-0.5,0.6
		L437,190l-0.5,0.6l-0.8,0.6l-0.8,0.5l-0.8,0.5l-0.8,0.5l-0.8,0.3l-0.8,0.3l-0.8,0.5l-0.8,0.5l-0.8,0.5l-0.8,0.5l-0.6,0.5l-0.6,0.6
		l-0.6,0.8l-0.3,0.8l0.3,0.9l0.5,0.8l0.3,0.8l-0.2,0.9l-0.5,0.6l-0.6,0.8l-0.5,0.8l-0.3,0.8l-0.3,0.8l-0.6,0.6l-0.8,0.3h-0.8
		l-0.6,0.2l-0.6,0.6l-0.8,0.5l-0.8,0.3l-0.9,0.2l-0.9-0.2l-0.9,0.2l-0.5,0.8l-0.3,0.8l0.6,0.8l0.6-0.3l0.9,0.2l0.6,0.6l0.6,0.6
		l0.6,0.6l0.9,0.2l0.2,0.8l0.3,0.8l0.8,0.6l0.3,0.9l-0.5,0.8l0.5,0.6l0.9-0.2l0.6-0.5l0.9-0.5h0.8l0.9,0.2l0.8-0.2h0.9l0.5-0.6
		l0.6-0.6v-0.8l0.2-0.9l0.6-0.6l0.8-0.5l0.8-0.5l0.6-0.6l0.8-0.6l0.8-0.5l0.6-0.6l0.9-0.3l0.8-0.3l0.9-0.2l0.8-0.2l0.8-0.3l0.8-0.5
		l0.9-0.3l0.8-0.2h0.9l0.8-0.3l0.9-0.5l0.3,0.8l-0.3,0.8l-0.5,0.6l-0.8,0.8l-0.6,0.6l0.2,0.8l0.8,0.2l0.9,0.2l0.9-0.2h0.9l0.8-0.2
		l0.9,0.2l0.9-0.3l0.2-0.9l0.8-0.3l0.8-0.3l0.6-0.6l0.5-0.8l0.5-0.8l0.6-0.6l0.5-0.8l0.6-0.8l0.6-0.5l0.9-0.3l0.3,0.8l0.3,0.9
		l0.9,0.2h0.9l0.8-0.2l0.8-0.5l0.9-0.2l0.8-0.2l0.9-0.2l0.9-0.3l0.8-0.2l0.8-0.3l0.9-0.3l0.8-0.2l0.9-0.2h0.9l0.2,0.6l0.5,0.8
		l0.5,0.8l0.5,0.8l0.9,0.2l0.9-0.2l0.8-0.3l0.8-0.2l0.3,0.8l-0.6,0.6l-0.3,0.8l-0.2,0.9l-0.3,0.9l0.3,0.8l0.5,0.8l0.9,0.2l0.8-0.5
		h0.8l0.8,0.5l0.8,0.5l0.3,0.9l0.2,0.8v0.9l0.2,0.9v0.9l0.2,0.9v0.9v0.9l0.2,0.8l0.9,0.3l0.9,0.2l0.3,0.8v0.9l-0.3,0.8l-0.6,0.6
		l0.2,0.9l-0.6,0.6l-0.9-0.2l-0.8-0.3l-0.8,0.2l-0.9,0.3l-0.8,0.5l-0.8,0.2l-0.8,0.3l-0.8,0.5l-0.8,0.5l-0.8,0.6l-0.3,0.8l0.5,0.8
		l0.8,0.3l0.8-0.3l0.6-0.6l0.6-0.6l0.8,0.3l0.6,0.6l0.6,0.6l0.8,0.2l0.5,0.8v0.9v0.9l-0.2,0.9l-0.3,0.8l-0.6,0.6l-0.2,0.9l0.3,0.8
		l0.8,0.3l0.6,0.6v0.9v1.1l-0.2,0.8l-0.2,0.9l-0.2,0.8l-0.8,0.2l-0.3-0.8l-0.6-0.6l-0.9-0.3h-0.8h-0.9l-0.9,0.3l-0.6,0.6l-0.6,0.6
		h-0.8l-0.6,0.5v0.9l-0.2,0.8l-0.8,0.3l-0.8-0.5l-0.8-0.3l-0.6,0.5l-0.2,0.9v0.8l-0.9,0.3l-0.9,0.2H463l-0.9,0.3l-0.8-0.3l-0.8-0.3
		l-0.9-0.3l-0.8-0.2l-0.9,0.3l0.2,0.9l0.3,0.8l0.5,0.8l0.5,0.8l0.5,0.8l0.8,0.6l0.8,0.2l0.9-0.3l0.8-0.5h0.9l0.5,0.6l-0.3,0.9
		l0.5,0.8l0.5,0.8l0.3,0.8l0.2,0.9l-0.2,0.9l0.2,0.9l-0.3,0.8l0.3,0.9l0.8,0.3l0.6,0.5l0.5,0.8l0.3,0.9l-0.3,0.8l-0.6,0.6l-0.6,0.6
		l-0.3,0.8l0.2,0.9l-0.5,0.8l-0.6,0.6l-0.5,0.8l0.2,0.9l0.6,0.6l0.2,0.8l-0.8,0.5l-0.8,0.5l-0.8,0.3l-0.8,0.3l-0.9,0.3l-0.8,0.5
		l-0.5,0.2l-0.3,0.6l-0.2,0.9l0.3,0.8l-0.2,0.9l-0.3,0.9l-0.5,0.6l-0.3,0.8l-0.5,0.8l-0.3,0.9l-0.6,0.5l-0.9,0.2l-0.5,0.6l0.3,0.9
		l0.3,0.8l0.5,0.8l0.3,0.8l0.3,0.8l0.8,0.6l0.8,0.5l0.8,0.3l0.8,0.3l0.8,0.6l0.2,0.8l0.8,0.2l0.8-0.6l0.3-0.8l0.8-0.3h0.9l0.9-0.2
		l0.8-0.3l0.8-0.3l0.9-0.2h0.8h0.9l0.6-0.6l-0.2-0.9l0.6-0.5l0.9-0.2l0.8,0.5l0.5,0.8l-0.6,0.6l-0.6,0.6l-0.5,0.8l0.2,0.8l-0.8,0.6
		l-0.3,0.8l-0.2,0.9l0.2,0.9l0.3,1.2l0.8,0.5l0.6,0.5l0.2,0.9l-0.5,0.8l-0.5,0.6l0.5,0.8l0.3,0.8l0.5,0.8l0.6,0.6l0.8,0.5l0.6,0.6
		l0.8,0.5l0.6,0.8l0.2,0.8l-0.2,0.9l-0.3,0.8l-0.8,0.6l-0.6,0.6h-0.9l-0.9,0.3l-0.2,0.8l0.3,0.9l0.3,0.8l0.2,0.9l-0.2,0.8l-0.3,0.9
		l-0.2,0.8l-0.3,0.9l-0.3,0.9l-0.9,0.3l-0.9,0.3l-0.8,0.3l-0.8,0.6l-0.8,0.5l-0.8,0.5l-0.5,0.6l0.3,0.9l0.8,0.3l0.3,0.9l-0.2,0.8
		l-0.5,0.8l-0.5,0.8l-0.5,0.8l-0.5,0.8l-0.6,0.6l-0.3,0.8l-0.3,0.8l-0.3,0.8l-0.5,0.8l-0.6,0.8l-0.5,0.8l-0.8,0.5l-1.2,0.3l-0.5,0.8
		l-0.2,0.9l-0.2,0.8l-0.3,0.9l-0.5,0.8l-0.3,0.8L459,330l-0.8,0.6v0.8h0.9l0.9-0.2l0.3,0.8l0.3,0.9l-0.6,0.5l-0.8,0.5h-0.9l-0.9-0.2
		h-0.9l-0.8-0.3l-0.9-0.2h-0.9h-0.8l-0.9-0.2l-0.8-0.5l-0.9-0.2l-0.6-0.5l-0.6-0.8l-0.2-0.9l-0.3-0.8l-0.2-0.9l-0.3-0.8l-0.6-0.6
		l-0.9-0.5l-0.3,1.2l0.2,0.8l0.2,0.9l-0.3,0.9l-0.5,0.6l-0.9,0.2l-0.8-0.2l-0.9-0.2l-0.5-0.8l0.2-0.9l0.2-0.8l-0.2-0.9l-0.5-0.8
		h-0.9l-0.9,0.2l-0.8,0.3l-0.8,0.3l-0.8,0.5l-0.9,0.2l-0.8,0.2l-0.8,0.3l-0.9-0.2l-0.9-0.2l-0.9,0.2h-0.9l-0.8,0.3l-0.8,0.5l0.3,0.8
		l-0.5,0.8l-0.6,0.6l-0.6,0.6l-0.8,0.5l-0.8,0.5l-0.8,0.3l-0.9,0.2l-0.8,0.5l-0.8,0.5L424,335l-0.5,0.8l-0.2,0.8l0.2,0.9l0.5,0.8
		l0.8,0.3l0.9,0.2l0.8-0.2h0.9l0.8-0.6l0.6-0.6l0.6-0.6l0.6-0.8l0.3-0.8l0.5-0.8l0.8-0.3l0.9-0.2h0.8l0.6-0.6l0.6-0.6h0.9l0.9,0.2
		l0.8,0.3l0.6,0.6l0.5,0.8l-0.2,0.9l-0.3,0.8l-0.5,0.8l-0.3,0.8l-0.3,0.8l-0.3,0.8l-0.5,0.8l-0.3,0.9v0.9v0.9l-0.2,0.9l-0.2,0.8v0.9
		v0.9v0.9l0.2,0.9l0.3,0.8l0.6,0.6l0.8,0.3l0.5,0.8l-0.3,0.8l-0.5,0.8l-0.6,0.6l-0.8,0.3l-0.8,0.3l-0.9-0.3l-0.8-0.2l-0.6-0.6
		l-0.8-0.6h-0.9h-0.9l-0.8-0.3l-0.3-0.9l-0.3-0.8l-0.9,0.2l-0.8,0.3l-0.8,0.3l-0.9,0.3h-0.8h-0.9l-0.6-0.5l-0.9-0.2l-0.8-0.3
		l-0.9-0.2l-0.9,0.2l-0.8,0.3l-0.8,0.5l-0.8,0.3h-0.9l-0.8-0.5l-0.6-0.5l-0.6-0.8l0.2-0.8l0.3-0.8l-0.3-0.8l-0.5-0.8l-0.6-0.6
		l0.3-0.9l0.3-0.8v-0.8l-0.5-0.8h-0.9l-0.8,0.5l-0.9,0.2l-0.8,0.3l-0.8,0.2l-0.9,0.2l-0.8,0.3l-0.9,0.3l-0.5,0.6l-0.6,0.8l-0.5,0.8
		l-0.3,0.8L404,348l-0.5,0.8l-0.2,0.9l0.6,0.6l0.6,0.8l0.3,0.8l-0.2,0.8l-0.6,0.6l-0.9-0.2l-0.8-0.2l-0.8,0.3l-0.3,0.8v0.9l0.2,0.9
		l-0.8,0.5l-0.5,0.3l-0.8,0.3l-0.8,0.6l-0.5,0.6l-0.2,0.9L398,360l0.2,0.9l0.6,0.6l0.5,0.8l0.2,0.8l0.2,0.9l0.2,0.9v0.9l0.2,0.8
		l0.2,0.9v0.9l-0.5,0.8l-0.3,0.8l-0.6,0.6l-0.8-0.6l-0.6-0.6l-0.5-0.6l-0.2-0.9l-0.2-0.9l-0.3-0.8l-0.6-0.8l-0.5-0.6l-0.6-0.6
		l-0.8-0.6l-0.5-0.8l-0.8-0.5l-0.8-0.5l-0.8-0.5l-0.8-0.3l-0.6-0.6l-0.6-0.6l-0.5-0.8l-0.8-0.5l-0.9,0.2l-0.6-0.3h-0.9l-0.8,0.3
		l-0.9,0.3h-0.9l-0.6-0.6l-0.2-0.9l0.2-0.9v-0.9l-0.5-0.6l-0.8-0.8l-0.6-0.5l-0.8-0.6l-0.9-0.2l-0.6-0.5l-0.3-0.8l-0.8-0.6l-0.8-0.2
		l-0.9-0.3l-0.8,0.3l-0.8,0.6l-0.5,0.8v0.9l-0.5,0.6l-0.8,0.6l-0.6,0.5l-0.8,0.6l-0.6,0.6l-0.8,0.5l-0.6,0.8l-0.2,0.9l0.3,0.8
		l0.8,0.5v0.9l-0.3,0.8l-0.6,0.6l-0.6-0.6l-0.8-0.5l-0.8-0.3l-0.5-0.6l-0.3-0.8l-0.8-0.6l-0.8-0.3l-0.8-0.3l-1.2,0.3l-0.8,0.5
		l-0.6,0.5l0.2,0.8l0.8,0.3l0.8,0.3l0.8,0.5v0.9l-0.2,0.8l-0.6,0.8l-0.8,0.3l-0.8,0.3l-0.9-0.2l-0.5,0.8l0.6,0.6v0.9l-0.5,0.6
		l-0.2,0.9l0.2,0.9l0.5,0.8l0.2,0.8l-0.3,0.8l-0.6,0.6l-0.6,0.6l0.3,0.8l0.6,0.6v0.9l-0.6,0.5v0.8l0.5,0.8l-0.5,0.8l-1.1,0.9
		l-0.6,0.6l-0.6,0.8l-0.2,0.8l-0.3,0.8l-0.8,0.5l-0.8,0.3l-0.9,0.2h-0.8l-0.8-0.5h-0.9h-0.9l-0.8-0.3l-0.9-0.2l-0.9-0.2l-0.8,0.3
		l-0.2,0.9l-0.6,0.8l-0.8,0.5l-0.8,0.2l-0.8,0.5l-0.8,0.2l-0.9,0.2l-0.9,0.2l-0.8,0.2l-0.8,0.5l-0.9,0.2l-0.8,0.5l-0.6,0.5l-0.6,0.8
		l-0.6,0.6l-0.6,0.8l-0.8,0.6l-0.6,0.5l-0.8,0.6l-0.8-0.8l-0.5-0.8l-0.6-0.5l-0.9-0.2l-0.8,0.3l-0.9,0.3l-0.8,0.2l-0.8-0.5l0.3-0.9
		l0.3-0.6l0.5-0.8l0.3-0.9l-0.3-0.8l-0.5-0.8l-0.6-0.6l-0.6-0.6l-0.5-0.8l0.3-0.8l0.3-0.9l-0.2-0.8l-0.2-0.9l-0.6-0.5L325,378
		l-0.6,0.5l-0.6,0.8l-0.5,0.8l-0.3,0.8l-0.6,0.6l-0.6-0.5l-0.3-0.8l-0.6-0.8l-0.6-0.6l-0.6-0.8l-0.5-0.8l-0.5-0.6l-0.5-0.8l-0.2-0.9
		V374l0.3-0.8v-0.9l-0.2-0.9l-0.3-0.8l-0.9-0.3l-0.8,0.3l-0.6,0.8L315,372l-0.3,0.8l-0.3,0.8l-0.6,0.6l-0.8,0.6l-0.8,0.5l-0.8,0.3
		l-0.8,0.2l-0.9,0.2l-0.5,0.8l-0.5,0.8l-0.5,0.6l-0.6,0.8l-0.8,0.3l-0.8,0.3l-0.9-0.2l-0.9,0.3l-0.8,0.5h-0.8l-0.8-0.3v-0.9l0.2-0.9
		l0.3-0.8l0.2-0.8l0.5-0.8l0.3-0.8l0.6-0.8l0.2-0.9v-0.9v-0.9l-0.6-0.5l-0.9,0.2l-0.8,0.5l-0.8,0.3l-0.8,0.5l-0.8,0.3l-0.8-0.6
		l-0.2-0.8l-0.2-0.9l-0.3-0.8v-0.9l-0.3-0.8l-0.3-0.9l-0.3-0.8l0.2-0.9l0.3-0.8l0.8-0.3l0.5-0.6v-0.8l-0.8-0.5h-0.8l-0.9-0.2
		l-0.8-0.3l-0.3-0.8l-0.5-0.6l-0.8,0.2l-0.9,0.3l-0.8,0.3l-0.9,0.2l-0.8-0.2l-0.9-0.5l-0.6-0.5l-0.6-0.8l0.2-0.9l0.6-0.6l0.8-0.3
		l0.8-0.2l0.6-0.8v-0.9l-0.2-0.8V354l-0.3-1.4l-0.5-0.3l-0.8-0.6l-0.6-0.5l-0.8-0.6l-0.6-0.6l-0.5-0.8l-0.6-0.6l-0.9-0.2l-0.9-0.2
		l-0.8-0.3l-0.6-0.6l-0.3-0.9l-0.2-0.8l-0.2-0.9l-0.3-0.8l-0.3-0.9l-0.3-0.8h-0.9l-0.8,0.3l-0.8,0.3l-0.8,0.5L278,344l-0.6,0.5
		l-0.9,0.3l-0.8,0.2l-0.9,0.3l-0.8,0.2l-0.9,0.2h-0.9l-0.8,0.2l-0.9,0.2l-0.8,0.3l-0.8,0.5v0.9l-0.2,0.9l-0.2,0.9l-0.3,0.8l-0.6,0.5
		l-0.8,0.3l-0.8,0.3l-0.8,0.5l-0.8,0.5l-0.6,0.6l-0.5,0.8l-0.3,1.1l-0.6,0.8l-0.8,0.5l-0.6,0.6l-0.5,0.8l-0.3,0.8v0.9l-0.2,0.9
		l0.2,0.9v0.9l0.3,0.8l0.5,0.8l0.8,0.6l0.6,0.6l0.2,0.8l0.2,0.9l0.2,0.9l0.2,0.8v0.9l0.3,0.9v0.9v0.9l-0.5,0.6l-0.6,0.6l-0.5,0.8
		l0.2,0.9l-0.3,0.8l-0.9,0.2l-0.8-0.3l-0.8-0.3l-0.8-0.3l-0.9-0.2l-0.9-0.2l-0.9,0.2l-0.8,0.2l-0.6,0.6l-0.3,0.8l-0.2,0.9l-0.2,0.9
		l-0.2,0.8l-0.3,0.9l-0.5,0.8l-0.9,0.2l-1.4-0.2l-0.8,0.2l-0.9,0.2l-0.8,0.2l-0.9,0.2l-0.9,0.2l-0.8,0.2l-0.9,0.2h-0.9l-0.9-0.2
		l-0.8-0.2l-0.9,0.3l-0.8,0.5l-0.8,0.3l-0.8,0.3H238l-0.8-0.5l-0.9-0.3h-0.8l-0.8,0.5l-0.8,0.5l-0.8,0.6l-0.6,0.6l-0.8,0.6l-0.6,0.6
		l-0.6,0.6l-0.8,0.6l-0.8,0.5l-0.8,0.3l-0.8,0.3l-0.8,0.3l-0.9,0.2l-0.8,0.3l-0.9,0.2l-0.8,0.3l-1.1,1.5l-0.6,0.6l-0.6,0.8l-0.6,0.5
		l-0.9,0.2h-0.9l-0.8,0.3l-0.8,0.5l-0.8,0.6l-0.5,0.8h-0.9l-0.8,0.3l-0.8,0.2l-0.8,0.5l-0.9,0.3l-0.8,0.2l-0.9,0.3l-0.8,0.2
		l-0.8,0.5l-0.8,0.3l-0.9,0.2l-0.8,0.5l-0.8,0.2h-0.9h-0.9h-0.9l-0.9,0.2l-0.8,0.3l-0.9,0.2l-0.8,0.3l-0.8,0.2l-0.9,0.2l-0.9,0.2
		h-0.9l-0.8,0.2l-0.9,0.2l-0.9,0.2l-0.8,0.2l-0.9,0.3l-0.8,0.9l0.3,0.8l0.6,0.6l0.8,0.6l0.6,0.6l0.3,0.8l0.3,0.9l0.2,0.8v1.1
		l-0.2,0.8v1.1l0.2,0.8l0.2,0.9l-0.2,0.9l-0.3,0.8l-0.3,0.8l-0.3,0.8l-0.3,0.9l-0.2,0.8l-0.3,0.9l-0.5,0.6l-0.9,0.3l-0.8,0.3
		l-0.8,0.5l-0.5,0.8l-0.3,0.8l-0.6,0.6l-0.6,0.8l-0.8,0.5l-0.8,0.5l-0.8,0.2l-0.9,0.2l-0.8,0.5l-0.8,0.5l-0.6,0.5l-0.5,0.8l-0.5,0.8
		l-0.6,0.6l-0.5,0.8l-0.5,0.8l-0.6,0.6l-0.8,0.6l-0.8,0.2l-0.9,0.2l-0.5-0.6l-0.8-0.5l-0.6-0.6l-0.3-0.8l-0.3-0.8l-0.5-0.9l-0.3-0.8
		l-0.5-0.8l-0.5-0.6l-0.6-0.8l-0.8-0.6l-0.8-0.5l-0.6-0.5l-0.8-0.3l-0.9-0.2h-0.9l-0.9,0.2l-0.8,0.3l-0.8,0.5l-0.6,0.6l-0.6,0.5
		l-0.8,0.5l-0.9,0.2h-0.9l-0.8-0.2l-0.9-0.3l-0.8-0.3L157,421l-0.8-0.6l-0.6-0.5l-0.8-0.6l-0.6-0.5l-0.8-0.6l-0.6-0.5l-0.8-0.6
		l-0.6-0.6l-0.8-0.5l-0.8-0.3l-0.8-0.3l-0.9-0.3h-0.6l-0.5-0.2l-0.9-0.2l-0.8-0.5l-0.6-0.6l-0.6-0.6l-0.8-0.3l-0.9-0.2l-0.9-0.2
		h-0.9l-0.9-0.3L139,412l-0.9-0.2l-0.8-0.3l-0.9-0.2l-0.8-0.3l-0.9-0.2l-0.8-0.5l-0.5-0.8l-0.2-0.8l-0.5-0.9l-0.3-0.8l-0.5-0.8
		l-0.6-0.6l-0.3-0.8v-0.9l-0.2-0.9l-0.3-0.8l-0.6-0.8l-0.5-0.6l-0.5-0.8l-0.6-0.8l-0.8-0.5l-0.8-0.5H126h-0.9l-0.8,0.2l-0.9-0.2
		l-0.9-0.2l-0.9,0.2h-0.9h-0.9l-0.9,0.2H118l-0.9,0.2l-0.9,0.2l-0.9-0.2l-0.8-0.5l-0.5-0.8l-0.5-0.8V396v-0.8l-0.3-0.9l-0.6-0.6
		l-0.6-0.5l-0.8-0.5l-0.9-0.2l-0.8-0.3h-0.9l-0.9,0.2l-0.8,0.6l-0.6,0.6l-0.5,0.8l-0.5,0.6l-0.6,0.8l-0.8,0.5l-0.8,0.3l-0.8,0.5
		l-0.8,0.3l-0.8,0.6l-0.8,0.5l-0.8,0.3l-0.8,0.5l-0.8,0.3l-0.3,0.8l-0.3,0.9l-0.6,0.6l-0.5,0.8l-0.5,0.8l-0.3,0.8l-0.2,0.8l-0.2,0.9
		l-0.2,0.9v0.9l-0.2,0.9l-0.3,0.8l-0.3,0.8l-0.3,0.8l-0.8,0.6l-0.6,0.6l-0.8,0.5l-0.9,0.2L90,413l-0.9,0.2l-0.8,0.2l-0.9,0.3h-0.9
		h-0.9l-0.8,0.2l-0.9,0.2l-0.8,0.3l-0.8,0.5l-0.8,0.6l-0.8,0.5l-0.6,0.6l-0.5,0.6l-0.5,0.8l-0.3,0.8l-0.5,0.8l-0.6,0.8l-0.6,0.5
		l-0.9,0.3l-0.9,0.5h-0.9h-0.9l-0.9,0.2l-0.8,0.2l-0.8,0.5l-0.8,0.5l-0.6,0.6l-0.6,0.6l-0.6,0.8l-0.6,0.5l-0.9,0.5l-0.8-0.2
		l-0.8-0.6l-0.6-0.6l-0.6-0.8l-0.6-0.6l-0.9-0.3l-0.8-0.2l-0.9-0.2l-0.9-0.2l-0.8-0.2l-0.8-0.6l-0.5-0.6l-0.5-0.8l-0.6-0.8l-0.6-0.6
		l-0.6-0.8l-0.5-0.8l-0.5-0.6l-0.8-0.6l-0.8-0.3l-0.9-0.3l-0.6-0.3l-0.2-0.6l-0.6-0.8l-0.3-0.8v-0.9l0.3-0.8l0.2-0.9l0.3-0.8
		l0.2-0.8l0.5-0.8l0.5-0.8l0.5-0.8l0.5-0.8l0.8-0.5l0.6-0.8l0.5-0.8l0.5-0.6l0.5-0.8l0.5-0.8l0.8-0.6L58,400l0.8-0.5l0.8-0.5
		l0.8-0.5l0.5-0.8l0.3-0.8l0.6-0.8l0.6-0.6l0.6-0.6l0.8-0.5l0.6-0.8l0.6-0.6l0.6-0.8l0.5-0.8l0.3-0.8V390l0.2-0.9l0.3-0.8l0.2-0.8
		v-0.9l-0.5-0.8l-0.6-0.8l-0.3-0.8l-0.3-0.8l0.6-0.9l0.5-0.8l0.3-0.8l0.5-0.8l0.3-0.9l0.3-0.8l0.3-0.8l0.5-0.8l0.2-0.9l0.2-0.9
		l0.2-0.8l0.3-0.9l0.3-0.8l0.3-0.8l0.8-0.3h0.9l0.6,0.6l0.8,0.6l0.6,0.6l0.5,0.8l0.6,0.6l0.8,0.6l0.9,0.2l0.6-0.6v-0.8v-0.9
		l-0.3-0.9l-0.5-0.8l-0.6-0.5l0.2-0.9l0.6-0.6l0.6-0.6l-0.2-0.9l-0.2-0.8l-0.6-0.6l-0.9-0.2l-0.6-0.8l-0.6-0.6l-0.8-0.3l-0.9,0.2
		l-0.8,0.3l-0.9,0.2l-0.8-0.3l-0.6-0.8l-0.8-0.5l-0.8-0.3l-0.8-0.5h-0.9h-0.8h-0.9l-0.8-0.3l-0.5-0.8l-0.2-0.9l-0.2-0.8l0.2-0.9
		v-1.1l0.2-0.8l0.2-0.9l-0.6-0.6l-0.9-0.2l-0.8-0.3l-0.8-0.3l-0.8-0.5l-0.6-0.6l-0.8-0.5l-0.9-0.2l-0.6,0.3l-0.6,0.8l-0.8,0.3
		l-0.6-0.5l0.2-0.9l0.3-0.8l0.3-0.9l0.2-0.8l-0.2-0.9l0.2-0.9v-1.1v-0.9v-0.9l0.3-0.8l0.3-0.8l0.6-0.8v-0.8l-0.2-0.9l0.2-0.9
		l-0.6-0.5l-0.6,0.3l-0.8,0.5l-0.8,0.3l-0.9,0.2l-0.8-0.5l-0.9-0.3l-0.8-0.2l-0.9,0.3l-0.6,0.6l-0.6,0.6l-0.5,0.8l-0.5,0.8l-0.6,0.6
		l-0.9-0.2l-0.3-1.4l0.2-0.5l0.3-0.8l0.2-0.9l0.3-0.8l-0.2-0.9l-0.2-0.9V338l0.2-0.9l-0.2-0.9l-0.6-0.6l-0.8-0.3h-0.9l-0.9-0.3
		l-0.9,0.2h-0.9l-0.9-0.3l-0.6-0.6l-0.5-0.6l-0.8-0.8l-0.6-0.8l-0.5-0.6l-0.5-0.8l-0.3-0.8l-0.2-0.9L36,328l0.2-0.9l0.2-0.8l0.3-0.8
		l0.3-0.8l0.3-0.9v-0.9l0.2-0.9l0.2-0.9l0.2-0.8l0.6-0.5l0.6,0.6l0.8,0.5l0.8,0.5h0.9l0.8-0.3l0.6-0.6l0.2-0.9l-0.3-0.8l0.2-0.9
		L43,317l0.5-0.8l0.6-0.8l0.6-0.6l0.3-0.8l0.2-0.9l0.2-0.9l0.2-0.8l0.5-0.8l0.3-0.8l0.5-0.8l0.3-0.9l-0.5-0.8l-0.5-0.8l-0.3-0.8V305
		l0.6-0.6l0.6-0.6l0.8-0.5l0.5-0.6l-0.3-1.2l0.3-0.5l0.6-0.8l0.5-0.8l0.5-0.8l0.5-0.8l0.6-0.9l0.5-0.8l0.2-0.8l0.2-0.9l0.2-0.9v-0.9
		l-0.2-0.9l-0.2-0.8l0.2-0.9l0.6-0.6h0.9L54,289l0.8-0.5l0.6-0.5l0.6-0.6l0.5-0.8v-1.1l-0.2-0.8l-0.2-0.9V283l0.2-0.8l0.6-0.8
		l0.5-0.8l0.5-0.8l0.3-0.8l0.3-0.8l0.3-0.8l0.3-0.9v-0.9v-0.9v-0.9l0.3-0.8l0.6-0.8l0.6-0.6l0.6-0.8l0.6-0.6l0.6-0.5l0.3-0.6
		l0.6-0.8l0.8-0.5l0.8-0.5l0.8-0.3l0.8-0.3l0.9-0.2l0.9-0.2l0.8-0.3l0.5-0.8l0.5-0.8l0.8-0.5l0.3-0.8v-0.9l-0.3-0.8l-0.3-0.9
		l-0.2-0.8v-0.9v-0.9l-0.2-0.9l-0.8-0.3l-0.9-0.3L68,256v-0.9v-0.8l-0.2-0.9l-0.3-0.9l-0.6-0.6l-0.3-0.8l-0.5-0.8l-0.6-0.8l-0.8-0.3
		h-0.9l-0.5-0.6v-0.9v-1.1l0.5-0.6l-0.2-0.9l-0.2-0.9l-0.6-0.5l-0.8-0.5l-0.9-0.2l-0.9-0.2l-0.8-0.2h-1.1h-0.9h-0.8l-0.9,0.2
		l-0.8-0.2l-0.5-0.8l-0.3-0.9l0.2-0.9v-0.9v-0.9v-0.9l-0.2-0.8l-0.2-0.9l-0.3-0.8l-0.3-0.9l-0.3-0.8l-0.3-0.8l-0.5-0.8l-0.5-0.8
		l-0.5-0.8l-0.6-0.5l-0.9,0.2l-0.5,0.8l-0.3,0.8l-0.3,0.9l-0.3,0.8l-0.5,0.8l-0.2,0.8l-0.5,0.8l-0.8,0.6l-0.6,0.8l-0.6,0.6l-0.6,0.5
		l-0.9,0.3l-0.9,0.2h-0.9h-0.8l-0.9,0.2l-0.9,0.2h-0.9h-0.9l-0.9-0.2l-0.8-0.2l-0.9-0.2l-0.9-0.3l-0.8-0.3l-0.8-0.2l-0.9-0.3
		l-0.8-0.3l-0.8-0.5l-0.6-0.6l-0.9-0.3l-0.8,0.2h-0.9l-0.8,0.3l-0.6,0.6l-0.5,0.9l-0.6,0.6l-0.6,0.6l-0.6,0.8l-0.6,0.6l-0.6,0.6
		l-0.3,0.8l-0.3,0.9l-0.2,0.8L21,244v0.9v0.9l-0.8,0.6h-0.9h-0.9h-0.9l-0.8,0.3l-0.8,0.3l-0.6,0.5l-0.8-0.3l-0.9-0.3l-0.8-0.3
		l-0.8-0.3l-0.9-0.2h-0.9l-0.8,0.3l-0.9,0.3l-0.8,0.3L7,247.4l-0.5-0.2H5.6l-0.9-0.2l-0.9-0.3L3,246.5l-0.8-0.3l-0.9-0.3l-0.8-0.3
		l-0.8-0.3l-0.3-0.9v-0.9l-0.3-0.8l-0.5-0.8l-0.6-0.6l-0.8-0.5l-0.8-0.5l-0.9-0.2l-0.5-1.2l-0.2-0.8l-0.2-0.9l-0.5-0.8l-0.2-0.8
		l0.2-0.9l0.6-0.6v-0.9l-0.2-0.9l0.3-0.8l0.6-0.8l0.6-0.6l0.2-0.9l0.3-0.8l0.2-0.9l-0.2-0.9l-0.8-0.3l-0.9-0.2l-0.9-0.2l-0.8-0.5
		l-0.2-0.9l-0.2-0.8l-0.2-0.9l-0.6-0.6l-0.5-0.8l-0.2-0.9v-0.9v-0.9v-0.9l0.5-0.6l0.9-0.5l0.6-0.5l0.3-0.9l0.3-0.8l0.8-0.5l0.9-0.2
		H-3l0.5-0.6l0.2-0.9v-0.9l0.2-0.9l0.2-0.9l0.2-0.8l0.2-0.9l0.2-1.4l-0.2-0.9l-0.8-0.5l-0.8-0.6l-0.3-0.8l-0.3-0.8l-0.2-0.9
		l-0.3-0.8v-0.9l-0.3-0.8l-0.5-0.8l-0.5-0.8l-0.6-0.8l-0.6-0.6l-0.8-0.5l-0.9-0.2l-0.8,0.3l-0.8,0.5l-0.8,0.5l-0.8,0.5l-0.5,0.8
		l-0.8,0.6h-0.8v-0.9l0.2-0.9l-0.6-0.6l-0.8-0.5l-0.2-0.9l-0.2-0.8l0.2-0.9l0.9,0.2l0.8,0.3l0.9,0.2h0.9l0.5-0.8l-0.2-0.8l-0.6-0.8
		l-0.8-0.5l-0.6-0.6l-0.5-0.8l0.5-0.3l0.9-0.3l0.8-0.2h0.9l0.9-0.2h0.9l0.8-0.3l0.8-0.5l0.8-0.6v-0.9l0.2-0.9l0.5-0.8l0.5-0.6
		l0.8-0.6l0.6-0.6l0.6-0.6l0.8-0.6l0.8-0.5l0.8-0.5l0.6-0.6l0.5-0.8l0.8-0.3l0.6-0.5l0.3-0.9l0.9-0.2l0.8-0.3l0.8-0.6l0.6-0.5
		l0.8-0.6l0.6-0.8l0.5-0.6l0.6-0.8l0.6-0.6l0.6-0.6l0.6-0.8l0.5-0.6l0.5-0.8l0.5-0.8l0.3-0.8l0.5-0.9l0.2-0.8l0.2-0.9l0.3-0.8
		l0.5-0.6l0.5-0.8l0.5-0.8l0.5-0.8l0.6-0.6h0.9l0.9,0.2l0.9,0.2l0.8,0.3l0.9,0.2l0.8,0.2l0.9,0.2l0.3,0.8v0.9v0.9l-0.2,0.9l0.3,0.9
		l0.6,0.6l0.8,0.6l0.6,0.8l0.6,0.8l0.8,0.3l0.8,0.3l0.8,0.3l0.9,0.3h0.9l0.9,0.2l0.6,0.5l0.8,0.8v0.9v0.8l0.3,0.9l0.5,0.8l0.3,0.8
		l0.8,0.6l0.8,0.5l0.9,0.2l0.5-0.5l0.8-0.3l0.8-0.5l0.8-0.6l0.8-0.5l0.9-0.2l0.8-0.3l0.8-0.5l0.5-0.8l-0.3-0.8l0.3-0.9l0.5-0.8
		l0.8-0.5l0.8-0.3l0.6-0.6l0.8-0.6l0.8-0.6l0.3-0.8v-0.9l0.3-0.8l0.6-0.6l0.6-0.8l0.6-0.6l0.5-0.8l0.5-0.8l0.5-0.8l0.6-0.6l0.6-0.6
		l0.9-0.3l0.8,0.3l0.9,0.3l0.8,0.3l0.6,0.6L54,163h0.9l0.5,0.8l0.8,0.6l0.8,0.2l0.9,0.2l0.8,0.3l0.8,0.6l0.8,0.6l0.6,0.5l0.8,0.5
		l0.3,0.8l0.2,0.9v0.9l0.3,0.8l0.3,0.8l0.5,0.8l0.8,0.6l0.6,0.6l0.8,0.3l0.9,0.3l0.8,0.2l0.9,0.3l0.8,0.3l0.8,0.3l0.9,0.3h0.8H72
		l0.9-0.2l0.9-0.2l0.8-0.3l0.9-0.2l0.8-0.3l0.9-0.2h0.9h0.9l0.8-0.3l0.8-0.3l0.9,0.2l0.3,0.6l-0.5,0.6l0.2,0.9h0.9l0.8-0.2l0.8-0.5
		l0.8-0.5l0.6-0.8l0.5-0.6l0.8-0.5h0.9l0.8,0.2l0.8,0.6l0.6,0.6l0.2,0.9l-0.2,0.9l0.3,0.8l0.3,0.9l0.5,0.5l1.4-0.2l0.8-0.5l0.5-0.6
		l0.8-0.5l0.8-0.6l0.6-0.6l0.8-0.5l0.8-0.5l0.8-0.3l0.9-0.2l0.8-0.3l0.8-0.6l0.8-0.3l0.8-0.5l0.8-0.5l0.8-0.6l0.8-0.3l0.6-0.8
		l0.6-0.6l0.8-0.5l0.8-0.3l0.9-0.3h0.8l0.9-0.3l0.8-0.3l0.9-0.2l0.9,0.2l0.8,0.2l0.9,0.3l0.9,0.2l0.8,0.2l0.9,0.3l0.8,0.3l0.6,0.8
		v0.9l0.3,0.6l0.8-0.5l0.8-0.6l0.5-0.8l0.3-0.8l0.5-0.8l0.5-0.8l0.3-0.8v-0.9l0.3-0.9l0.3-0.8l0.3-0.9l0.2-0.8l0.3-0.9l0.3-0.8
		l0.3-0.8l0.5-0.8l0.2-0.9l-0.8-0.3l-1.1-0.6v-0.9l0.5-0.8l0.5-0.8l0.5-0.6l0.6-0.8l0.8-0.5l0.8-0.5l0.8-0.5l0.6-0.8l0.5-0.6
		l0.3-0.8l0.3-0.9l0.2-0.8l0.3-0.9l0.3-0.8v-0.9l0.3-0.9v-0.9v-0.9l0.5-0.8l0.6-0.6l0.6-0.8l0.6-0.6l0.8-0.6l0.6-0.6l0.8-0.3
		l0.8-0.5h1.1l0.8,0.2l0.9-0.3l0.8-0.5h0.9h0.8l0.9-0.2l0.9-0.2h0.8l0.9-0.2l0.9,0.3l0.8,0.3l0.9-0.2l0.9,0.8l0.8,0.5l0.6,0.8
		l0.5,0.8l0.6,0.6l0.9,0.3l0.8,0.5l0.6,0.3l0.8,0.6l0.8,0.3l0.8,0.6l0.6,0.6v0.9l0.2,0.9l0.5,0.8l0.3,0.8l0.5,0.8l0.6-0.2l0.8-0.6
		l0.8-0.5l0.6-0.5l0.9-0.5h0.8l0.9-0.2l0.9-0.2l0.8-0.3l0.5-0.6l0.6-0.8l0.8-0.5l0.8-0.3l0.9-0.2h0.8l0.9,0.2h0.9h1.1h0.9l0.8,0.3
		l0.9-0.2l0.8-0.5l0.8-0.3l0.8-0.3l0.8-0.5l0.9-0.2l0.8-0.3l0.8-0.3l0.9-0.3l0.8-0.2l0.3,0.9l0.3,0.8l1.2-0.3l0.8-0.3l0.9-0.3
		l0.8-0.3l0.9-0.2l0.6,0.6l1.2-0.3l-0.2-0.9l0.9-0.2h0.9l0.9-0.2l0.8-0.3l0.8-0.3l0.8-0.5l0.8-0.3l0.9-0.3l0.8-0.3l0.8-0.3l0.9,0.2
		l0.8,0.3l0.9,0.2l0.9,0.2l0.9,0.2l0.8,0.3l0.8,0.5l0.9,0.2h0.9l0.8,0.2l0.9,0.2l0.9-0.3l0.8-0.5l0.8-0.5l0.6-0.5l0.8-0.6l0.8-0.6
		l0.6-0.5l0.8-0.5l0.8-0.5l0.9-0.3l0.8-0.3l0.8-0.5l0.5-0.6l-0.2-0.9l-0.3-0.8l0.5-0.6l0.5-0.8l-0.2-0.9l0.3-0.8l-0.2-0.9l-0.3-0.8
		l-0.9-0.3l-0.8-0.5v-0.8l0.2-0.9l0.5-0.8l0.3-0.8l0.3-0.9l0.2-0.8l0.2-0.9l0.3-0.9l0.2-0.8l-0.5-0.5l-0.9-0.3l-0.9-0.2l-0.8-0.3
		l-0.6-0.6l-0.8-0.5l-0.8-0.2l-0.9-0.3l-0.8-0.3l-0.2-0.9l0.3-0.8l0.3-0.9l0.3-0.8v-0.9l-0.2-0.8l-0.5-0.8l-0.5-0.8l-0.6-0.8
		l-0.6-0.8l-0.6-0.6l-0.6-0.8l-0.5-0.6l-0.5-0.8l-0.3-0.5l-0.8-0.6l-0.8-0.5l-0.6-0.5l-0.9-0.3l-0.8-0.5l-0.8-0.2l-0.9-0.2H198
		l-0.9-0.2H196h-0.8h-0.9h-0.9l-0.9,0.3l-0.8,0.3l-0.5,0.8l-0.2,0.9l-0.2,0.9l-0.6,0.5l-0.8-0.3l-0.9,0.3l-0.9,0.3l-0.8-0.3
		l-0.9-0.2l-0.9-0.2l-0.6-0.5l-0.8-0.5l-0.9-0.2l-0.8-0.3l-0.9-0.2l-0.9,0.3l-0.8,0.3l-0.8,0.3l-0.6-0.2l0.2-0.9l-0.2-0.9l-0.8-0.6
		l-0.3-0.8l-0.3-0.9v-0.9l0.5-0.8l0.5-0.8l0.6-0.6l0.5-0.8l0.2-0.8l0.2-0.9v-0.9l-0.3-0.9l-0.3-1.1l-0.9,0.5l-0.9-0.2l-0.8-0.5
		L175,91l-0.5-0.8l-0.3-0.8l-0.3-0.8l-0.5-0.9l-0.3-0.8l-0.3-0.8l-0.6-0.8h-0.9l-0.8,0.3l-0.8,0.3l-0.9,0.2l-0.5,0.8l-0.6,0.6
		l-0.3,0.9l-0.2,0.9l-0.2,0.8l-0.8,0.2l-0.8-0.6l-0.8-0.5l-0.8-0.3l-0.8-0.5l-0.8-0.5l-0.6-0.2l-1.1-0.6l-0.8-0.5l-0.8-0.2l-0.9-0.3
		l0.2-0.9l0.3-0.8l0.5-0.8l0.2-0.8l0.2-0.9v-0.9l0.2-0.9v-0.9v-0.9l-0.5-0.8l-0.3-0.9v-0.9l-0.2-0.8l-0.5-0.8l-0.5-0.8l-0.3-0.9
		l0.2-0.6v-1.2l0.2-0.9l0.3-0.9l0.3-0.8l0.6-0.6l0.6-0.6l0.8-0.6l0.6-0.6l0.8-0.6l0.6-0.6l0.5-0.8l0.5-0.8l0.6-0.6l0.6-0.8l0.6-0.6
		l0.6-0.6l0.8-0.6l0.8-0.2h0.9h1.1l0.8,0.3l0.8,0.3h0.9l1.1,0.2l0.8-0.5l0.8-0.3l0.9-0.2l0.8,0.3l0.9,0.3l0.8,0.3l0.8,0.3h0.9
		l0.8-0.5l0.8-0.5l0.3-0.9l-0.2-0.8l-0.5-0.8l-0.3-0.9l-0.3-0.8l0.3-0.9l0.5-0.8l0.8-0.5l0.8-0.3l0.8-0.5l0.8-0.5l0.6-0.6l0.6-0.8
		l0.6-0.6l0.8-0.6l0.5-0.6l0.2-0.9v-0.9l0.3-0.8l0.8-0.3l0.6,0.8l0.5,0.8l0.5,0.6l0.8,0.5l0.3,0.9l0.6,0.6l0.3,0.8l0.6,0.8l0.8,0.5
		l0.9,0.3l0.8,0.5l0.8,0.3l0.6,0.6l0.8,0.6l0.6,0.8l0.6,0.6l0.6,0.8l0.5,0.8l0.6,0.6l0.8-0.3h0.9h0.9l0.9,0.3l0.3,0.8l0.2,0.8
		l0.3,0.9l0.5,0.8l0.3,0.8l0.5,0.8l0.5,0.8l0.8,0.5l0.8,0.3l0.8,0.5l0.6,0.5l0.8,0.5l0.8,0.5l1.1,0.2l0.8,0.6l0.8,0.5l0.6,0.6
		l0.3,0.8l0.5,0.9l0.5,0.6l0.8,0.6l0.6,0.6l0.6,0.6l0.8,0.6l0.8,0.3h0.9l0.8-0.5l0.5-0.6l0.2-0.9l-0.5-0.8l-0.3-0.9v-0.9l0.5-0.5
		l0.3-0.8l0.5-0.8l0.2-0.8l0.8-0.5h0.9l0.9,0.2l0.8,0.5l0.6,0.6l0.8,0.6l0.6,0.6l0.8,0.5l0.8,0.5h0.9l0.8-0.3l0.6-0.6v-0.9l-0.3-0.9
		l-0.6-0.6l-0.6-0.5l-0.8-0.6l-0.2-0.8l0.3-0.8l0.3-0.8l0.6-0.8l0.8-0.5l0.6-0.8l0.5-0.6l0.6-0.8l0.3-0.8v-0.9l0.2-0.9l0.2-0.8v-0.9
		v-0.9l-0.2-0.9l-0.3-0.8l-0.5-0.8l-0.3-0.8l-0.5-0.8l-0.6-0.8l-0.6-0.8l-0.6-0.6l-0.6-0.6l-0.6-0.8l-0.2-0.9v-0.9l-0.2-0.8
		l-0.5-0.8l-0.3-0.8l-0.2-0.9v-0.9l0.2-0.9l0.5-0.8l0.8,0.5l0.8,0.5l0.6,0.6l0.2,0.9l0.8,0.5l0.6,0.6l0.2,0.8l0.5,1.2l0.6,0.6
		l0.8,0.8l0.8,0.3l0.6,0.5l0.3,0.9l0.5,0.6l0.6,0.8l0.2,0.8l0.2,0.9v0.9v0.9l0.3,0.8l0.6,0.8l0.8,0.5l0.8,0.3l0.8,0.6l0.5,0.8V56
		l0.8,0.5l0.9-0.2h0.9l0.6,0.6l-0.2,0.8l-0.6,0.8l-0.8,0.5l-0.6,0.6v0.9l0.8,0.2v0.9l-0.6,0.6l-0.8,0.3l-0.3,0.8l-0.2,0.9l0.2,0.9
		V66l-0.5,0.6l-0.5,0.8l-0.6,0.6l-0.8,0.5l-0.8,0.5l-0.6,0.8l-0.6,0.6l-0.3,0.8l-0.2,0.9l0.5,0.8l0.9,0.2l0.9-0.3l0.8-0.5l0.8-0.3
		l0.9,0.2l0.8,0.3l0.8,0.5l0.6,0.5l0.9,0.2l0.8-0.3l0.9,0.2l0.8,0.5l0.3,0.8l0.5,0.8l0.5,0.8l0.6,0.6L248,77l1.1-0.6l0.8-0.5
		l0.6-0.6l0.3-0.8l-0.3-0.8L250,73l-0.6-0.8l-0.3-0.8v-0.9l0.2-0.9l0.3-0.8l0.6-0.6l0.3-0.8l0.6-0.6l0.6-0.8l0.5-0.6l-0.2-0.9
		l-0.5-0.8l-0.2-0.9l0.3-0.8l0.8-0.3l0.9-0.2l0.8,0.3l0.5,0.8l0.2,0.8v0.9v0.9l-0.3,0.9l0.3,0.6h0.9h0.9l0.9-0.2l0.6-0.5v-0.9
		l-0.5-0.8l-0.2-0.9l0.2-0.9l0.3-0.8l0.8-0.5h0.9l0.6-0.5l0.2-0.9l-0.3-0.9v-0.9l0.3-0.9l0.5-0.6l0.5-0.8l0.3-0.8l-0.3-0.8l-0.5-0.8
		l-0.8-0.6l-0.6-0.6l-0.6-0.6l-0.8-0.6l-0.8-0.3l-0.6-0.5l-0.8-0.5l-0.8-0.5l-0.8-0.3l-0.5-0.8l0.2-0.9l0.5-0.8l0.3-0.8l0.3-0.9
		l0.5-0.8l0.2-0.8l0.2-0.9l0.6-0.8l0.8-0.3L258,42v0.9l-0.2,0.9l-0.5,0.8l-0.5,0.8l-0.2,0.8l0.3,0.9l0.8,0.5l0.9,0.3h0.8h0.9h0.9
		l0.9,0.3l0.8,0.2l0.3,0.9l0.2,0.8l0.6,0.6l0.6-0.5l0.5-0.8l0.8-0.3l0.9-0.2l0.9-0.2l0.8-0.5l0.8-0.3l0.8-0.3l0.8-0.5v-0.9l-0.3-0.9
		l-0.2-0.8l-0.2-0.9v-0.9l0.2-0.9l0.5-0.8l0.6-0.6l0.6-0.6l0.6-0.5l0.6-0.8l0.8-0.5L275,38l0.9,0.2l0.9,0.2l0.8,0.3l0.9-0.3l0.8-0.3
		l0.8-0.6l0.8-0.3l0.8-0.3l0.9-0.2l0.8,0.3l0.6,0.8l0.6,0.6l0.8,0.6l0.6,0.6l0.5,0.8l0.6,0.8l0.8,0.5l0.8,0.3l0.8,0.3l0.8,0.6
		l0.3,0.8l0.2,0.9v0.9v0.9l0.2,0.9l0.6,0.6l0.8,0.3h0.9l0.5-0.8l0.6-0.6l0.6-0.6l0.8-0.5l0.8-0.5l0.9-0.3l0.8-0.2l0.8-0.3l0.8-0.5
		v-0.9l0.3-0.9l0.8-0.3l0.9,0.2l0.9-0.2l0.8-0.2l0.8-0.5l0.8-0.5l0.5-0.8l0.5-0.8l0.2-0.9l0.2-0.8l0.2-0.9l0.3-0.9l0.5-0.8l0.6-0.6
		l0.8-0.3l0.6-0.6l-0.2-0.9l-0.5-0.8l-0.8-0.5l-0.8-0.3l-0.6-0.6l-0.8-0.6l-0.3-0.8l-0.3-0.8l-0.8-0.6l-0.6-0.8l0.3-0.8l0.8-0.6
		l0.5-0.6l0.5-0.9l-0.2-0.8l-0.3-0.9l-0.5-0.8l-0.5-0.8l-0.2-0.9l0.5-0.6l0.8-0.5l0.8-0.3h0.9l0.8-0.6l0.3-0.8l-0.2-0.8l-0.3-0.9
		l-0.3-0.8l-0.2-0.9l-0.2-0.8v-0.9l0.2-0.9l0.3-0.9l0.8-0.3l0.8-0.3h0.9h0.9l0.8,0.6l0.6,0.6l0.8,0.5l0.8,0.3h0.8l0.9-0.3l0.8-0.3
		l0.8-0.6l0.6-0.5l0.6-0.8l0.8-0.2h0.9l0.8,0.3l0.8,0.6l0.3,0.8v0.9v0.9l0.6,0.6L323,13l0.9-0.2l0.8-0.3l0.9-0.2l0.9,0.2l0.5,0.8
		l0.3,0.8l0.6,0.8l0.8,0.3l0.9,0.2l0.9-0.2l0.8-0.5l0.6-0.8l0.3-0.8l0.3-0.8l0.8-0.5l0.8-0.5l0.8-0.3l0.8,0.5l0.6,0.8l0.6,0.8
		l0.6,0.6l0.5,0.8l0.6,0.6L339,16l0.2,0.9l0.2,0.9l-0.3,0.8l-0.3,0.8l-0.5,0.8l-0.2,0.9l-0.2,0.9l-0.2,0.9l0.3,1.2l0.6,0.6l0.5,0.8
		l0.6,1.1v0.9l0.2,0.8v0.9l0.5,0.9l0.5,0.6l0.6,0.8l0.8,0.5h0.9l0.8-0.6l0.5-0.8l0.3-0.8l0.3-0.9l0.8-0.3h0.9l0.8,0.3l0.8-0.5
		l0.5-0.8l0.8-0.6l0.6-0.6l0.8-0.5l0.9-0.2h0.9l0.8,0.3l0.9,0.2h0.8l0.8-0.5l0.6-0.6l0.6-0.8l0.5-0.8l0.6-0.6l0.8-0.6l0.8-0.5h0.8
		l0.9-0.2l0.8,0.3l0.8,0.5l0.8,0.6l0.6,0.6l0.8,0.5l0.8,0.5l0.8,0.2l0.9-0.3l0.8-0.3l0.8-0.5l0.8-0.3h0.9l0.6,0.6l0.6,0.8l0.6,0.6
		l0.5,0.8l0.3,0.8l0.8-0.3l0.6-0.6l0.5-0.8v-0.9l0.3-0.8l0.8-0.6l0.6-0.6l0.9-0.2l0.9-0.2l0.8,0.3l0.6,0.5l0.2,0.9v0.9l-0.3,0.9
		l-0.2,0.9v0.8l0.2,0.9l0.3,1.2l-0.2,0.9l0.3,0.9l0.2,0.8l0.2,0.9l-0.2,0.9l0.3,0.9l0.3,0.8l0.2,0.9l0.3,0.8l0.2,0.9l0.3,0.8V40v0.9
		l-0.2,0.9l-0.2,0.9l-0.2,0.9v0.8l0.5,0.8l0.3,0.9l0.2,0.8l0.3,0.9l0.3,0.8l0.6,0.6l0.8,0.6l0.6,0.6l0.6,0.6l-0.3,0.9l-0.3,0.8
		l-0.8,0.6L384,54l-0.6,0.6l-0.6,0.6l-0.8,0.6l-0.3,0.8l-0.3,0.8v0.9v0.9l0.3,0.8l0.8,0.6l0.6,0.5l0.9,0.3l0.8,0.5l0.6,0.6l0.8,0.5
		l0.8,0.3l0.9,0.2l0.9,0.2l0.8,0.3l0.8,0.3l0.9,0.2l0.8,0.2h0.9h0.9l0.8-0.5l0.6-0.6l0.9-0.3h0.9l0.9-0.2h0.8l0.9-0.3l0.9-0.2
		l0.9,0.2l0.6,0.5l0.6,0.8l0.8,0.2l0.9,0.2l0.8,0.5l0.6,0.6v0.9l-0.5,0.8l-0.6,0.6l-0.6,0.6l-0.5,0.8l-0.2,0.8l-0.2,0.9l0.2,0.9
		l0.2,0.8l0.3,0.9l-0.6,0.6h-0.8h-0.9l-0.8,0.3l-0.2,0.9l0.2,0.8l0.6,0.8l0.3,0.8l-0.3,0.9v0.9l0.2,0.8L402,81l0.3,0.8l0.5,0.8v0.9
		l-0.3,0.8l-0.2,0.9l-0.5,0.8l-0.6,0.5l-0.6,0.8l0.2,0.9l0.5,0.8l0.3,0.8l0.5,0.9l0.5,0.8l0.5,0.9l0.5,0.9l0.9-0.6l0.9-0.2l0.9-0.2
		l0.9,0.2h0.9l0.6-0.3l0.3-0.8l-0.8-0.5l-0.9-0.3l-0.5-0.8l0.2-0.8l0.6-0.8l0.6-0.6l0.6-0.6l0.6-0.6l0.5-0.8l-0.2-0.9l-0.8-0.6
		l-0.5-0.8l-0.5-0.8l-0.8-0.3l-0.6-0.6v-0.9l0.5-0.8h0.9l0.8-0.3l0.9-0.2l0.6-0.8l0.5-0.6l0.8-0.6l0.9,0.2l0.5,0.8l0.3,0.8l0.6,0.6
		l0.6,0.5l0.6,0.8v0.9l0.8,0.5l0.5,0.8l0.2,0.8l-0.3,0.8l-0.3,0.9v0.9l0.2,0.9l0.5,0.6l0.6,0.8l-0.2,0.9l-0.3,0.8l-0.2,0.9l-0.3,0.8
		l-0.2,0.9l0.2,0.9l-0.2,0.8l-0.8,0.3l-0.8,0.3l-0.6,0.6l-0.5,0.8l-0.5,0.8v0.9l0.3,0.8l0.2,0.8l0.5,0.9l0.3,0.8l0.6,0.6l0.5,0.8
		l0.2,0.9l0.6,0.9l0.5-0.8l0.5-0.8l0.6-0.6l0.6-0.8l0.6-0.6l0.8-0.3l0.8,0.3l0.3,0.8l0.6,0.8l0.6,0.6l0.6,0.6h0.8l0.9-0.3l0.8-0.5
		l0.8-0.2l0.9-0.2l0.9,0.2l0.9,0.2l0.8,0.2l0.6,0.6l-0.3,0.9l-0.6,0.6l0.3,0.8l0.8,0.5l0.8,0.5l0.8,0.3l0.8,0.5l0.8,0.5l0.9,0.2
		l0.8-0.3l0.8-0.5l0.2-0.9l0.3-0.8l0.3-0.9l0.5-0.6l0.8-0.6l0.8,0.3l0.6,0.6l0.8,0.5l0.8,0.5l0.9,0.2l0.8-0.2l0.8-0.5l0.3-0.9
		l0.2-0.8l-0.2-0.9l-0.6-0.6l-0.3-0.9l0.2-0.8l0.3-0.8l0.8-0.8l0.5-0.6l0.5-0.8L445,97l0.5-0.8l0.5-0.8l0.5-0.8l0.3-0.8l0.5-0.8
		l0.3-0.8v-0.9l-0.2-0.9l0.2-0.9l0.3-0.9l0.2-0.8L448,87V86l0.5-0.8l0.6-0.6l0.8-0.5l0.8-0.5l0.6-0.5l0.8-0.6l0.5-0.6l0.6-0.8
		l0.8-0.5l0.8-0.5l0.8-0.5L456.1,79.6L456.1,79.6"/>
</g>
</svg>
