<?xml version="1.0" encoding="utf-8"?>
<!-- Generator: Adobe Illustrator 27.0.0, SVG Export Plug-In . SVG Version: 6.00 Build 0)  -->
<svg version="1.1" id="Layer_1" xmlns="http://www.w3.org/2000/svg" xmlns:xlink="http://www.w3.org/1999/xlink" x="0px" y="0px"
	 viewBox="0 0 500 500" style="enable-background:new 0 0 500 500;" xml:space="preserve">
<style type="text/css">
	.st0{fill:#E74646;stroke:#FFFFFF;stroke-width:4.6041;stroke-linecap:square;stroke-linejoin:bevel;stroke-miterlimit:3.998;}
</style>
<path vector-effect="none" class="st0" d="M426.2,52.3l0.7,1.7l0.7,1.7l0.7,2.1l0.7,1.4l1,1.7l1,1.7l1.7,1.4l1.4,1l2.1,0.3l1.7,0.3
	l1,1.7v2.1l1.7,1.4l1.7,1l1.7,0.3l1.7,0.7l1.4,1.4l1.7,0.7l2.1,0.3l1.4,1l1.7,1l1.7,0.7l2.1-0.3l1.7-0.7l1.4-1l2.1-0.7h1.7l2.1-0.3
	l0.7-1.7l1.7-1l1.7,1l0.7,1.7l1,1.7l1,1.7l0.7,1.7l0.3,1.7l0.7,1.7l0.3,2.1l0.7,1.7l0.7,1.7l0.7,1.7l0.3,2.1l0.7,1.7l0.3,1.7
	l0.7,1.7l0.7,2.1l0.3,1.7l0.7,1.7l0.3,2.1v1.7l0.3,2.1l0.7,1.7v2.1l0.3,2.1l0.3,1.7l0.3,2.1l0.3,1.7l0.3,2.1v2.1l0.3,1.7v2.1v2.1
	v2.1v2.1l0.3,2.1l0.7,1.7l0.7,1.7l1,1.4l1.7,0.7l1.4,1.4l0.7,1.7l0.3,2.1l0.7,1.7l-0.7,1.7l-1.7,0.7l-2.1,0.3l-1.7-0.3l-2.1-0.3
	h-2.1l-1.7,0.7l-0.7,1.7l-1.4,1.4l-1.7,1.4l-1.4,1.4l-1.4,1.4l-1.7,1l-1.7,1l-1.4,1.4l-1.4,1.4l-1.4,1l-1.4,1.4l-1.7,1l-1.4,1.4
	l-1,1.7l-1,1.7l-1.4,1.4l-1.4,1.4h-1.7l-0.7-1.7l-0.7-1.7l-0.7-1.7l-0.3-2.1v-1.7l-1.4-1.4l-0.3-2.1l-0.3-2.1l0.3-2.1l1.4-1.4
	l1.7-0.3l2.1,0.3l1.7,0.7l1.7-0.3l1.4-1.4l0.7-1.7l0.7-1.7l1-1.7l0.3-1.7h-1.7l-1.4,1l-1,1.7l-1.4,1.4l-1.7,0.7h-1.7l-2.1,0.3h-2.1
	l-1.7-0.3l-1.7-0.7l-1.7,0.7l-1.4,1l-1.4-1.4h-1.7l-2.4,0.7l1.4,1.4l1.7,0.3l1.4,1.4l1.4,1.7l1.4,1.4l1,1.4l1,1.7l0.7,1.7l0.3,2.1
	l1,1.7l-0.3,1.7l-1.4,1.4l-1.4,1.4l-0.3,2.1v1.7v2.1l-0.7,1.7l-1.4,1.7l-1.4,1.4l-1.7,1l-1.4,1l-1.7,1l-1.7,0.3l-1.7,0.7l-0.7,2.1
	l-1,1.4l-0.7,2.1l1,1.4l-1,1.7l-1.7-0.3H429l-2.1,0.3l-1.7,1l-1.4,1l-1.4,2.1l-0.7,1.7l-0.7,1.7l-0.7,1.7l-1,1.7v2.1l1.4,1.4
	l0.7,1.7l-0.3,1.7l-1.4,1.4l-1,1.7l-1.4,1.4l-1.7,0.7l-1.7-0.3l-1.4,1.4l-0.3,1.7l0.7,1.7v2.1l-0.3,2.1l-0.7,1.7l-1,1.4l-1.4,1.4
	l-1.7,0.7l-1.7-0.3l-0.7,1.4v2.1l-2.1,0.3l-1,1l1.7,0.7l1.4-1l1.7-1h1.4l-0.3,1.7l-1,1.7l-1.4,1.4l-1,1.7l-0.3,1.7l-0.3,2.1
	l-0.3,1.7l-1,1.7l-1.7,0.3l-2.1-0.3l-2.1,0.3l-1.7,0.7l-1.7,0.3l0.3,1.7l1.7-0.7l1.7,1l0.7,1.7l2.1-0.3l1,1.4v2.1l-0.3,1.7l-0.3,2.1
	l-0.3,1.7l-0.3,2.1l-0.3,1.7v2.1l-1,1.7l-1.4,1.4l-1.7,0.7l-1.4,1.7l-0.7,1.7l-0.7,1.7l-0.7,1.7l-0.7,1.7l-0.3,1.7l-0.7,2.1
	l-0.3,1.7l-0.3,1.7v2.1l-0.3,2.1v2.1v1.7l-0.3,2.1v2.1v2.1l-0.3,1.7l-1.7,0.3l-1.7-0.7l-1.4,1l-1.4,1.4l-1.7,1l-1.4,0.7v2.1l0.3,2.1
	l-0.7,1.7l-1.7,0.7l-1.7,0.7l-1.4,1.4l-0.7,1.7l1,1.7l1.4,1l1.7-0.3l1.7,1l1.7,1h2.1l1.4,1l1.4-1.4l1.7-0.7l0.7-1.7l-1.4-1.4
	l-0.3-2.1l-0.3-2.8l-1.4-1.4V315l0.3-1.7l1.4-1.4l1.7-1l1.4,1.4l0.7,2.1v1.7l0.3,2.1v2.1l0.7,1.7l0.7,1.7v2.1l0.7,1.7l1.4,1.4
	l0.7,1.7l-1.7,1l-1.7-0.3l-1.7,0.7l-2.1-0.3l-1.4,1l-1.7,1l-2.8-0.7l-1.7,1.4l-0.7,1.7l-0.7,1.7l-1,1.7l-0.7,1.7l-1.4,1l-1.7,1.4
	l-0.7,1.7l-0.3,1.7l0.3,2.1l-0.3,1.7l-0.7,1.7l-1,1.7l-1.7,0.7l-1.7-0.3l-1.7-1l-2.1,0.3h-1.7L359,355l-1.7,1.4l-1.7-1.4l-1.7-0.3
	l0.3-1.4l1.7-0.7l1.7-0.3h2.1l2.1-0.3l1-1l-2.8-1h-1.7l-2.1-0.3l-1.7,0.7l-1.7,1.4l-1.4,1.4l-1.4,1.4l-1,1.7l-1.7,0.7h-1.7l-2.1-0.3
	h-1.7l-1.7,1l-1.7,1l-1.4,1l-1.7,1l-1.4,1.4l-1.4,1.7l-1.7,0.7l-1.7,0.7l-1.7,0.7l-1.4,1.7l-1.4,1l-1.4,1.7l-2.1,1.7l-1.4,1.4
	l-1.7,1.4l-1,1.4l-1.4,1.4l-1.7,1L312,380l-1.4,1.4l-1.4,1.4l-1.4,1.4l-1.4,1.7l-1,1.4l-1,1.7l-0.7,1.7l-0.3,1.7l-0.3,2.1l-0.7,1.7
	l-0.7,1.7l-0.7,1.7l-0.3,2.1l-0.3,1.7l0.3,2.1l-0.7,1.7l-0.7,1.7l-0.7,1.7l-1,1.7l-1.4,1.4l-1.7,0.7h-2.1l-1.7,0.3l-1.7,0.7
	l-2.1,0.7l-1.7-1l-1.7-1h-1.7l-1.7-0.7l-1.7-1.4l-0.3-1.7l1.4-1.4l1.7,0.7l1.7,1h1.7h2.1l1.7-0.7l1.4-1.4l1-1.7l0.7-1.7l0.3-2.1
	l-0.3-1.7h-1.7l-1.4,1.7l-1.7,0.7l-2.1,0.3l-1.7-0.3h-1.7l-1.7,1l-1.4,1.4l-1.7,1h-1.7H272l-1.7,0.3h-2.1l-1.7-0.3l-1.7,0.7
	l-1.7,0.7l-1.7,0.7l-1.7,0.7l-1.7,1l-1.7,0.7l-1.7,0.7l-1.7,0.7l-2.1,0.3h-1.7l-1.7-0.7l-1.4-1.7l-1.4-1l-2.4-0.3l-1.7,1l-1.7,0.3
	l-1.7,1l-0.3,1.7l-0.7,2.1l-0.7,1.7l-0.7,1.7l-0.7,1.7l-0.7,1.7l-1,1.4l-1,1.7l-0.7,1.7l-0.3,2.1l0.7,1.7l1.7,0.7v1.7l0.3,1.7v2.1
	v2.1l0.3,1.7l-0.3,2.1l-0.7,1.7l-1.4,1.4l-0.7,1.7l-1,1.7l-1.4,1l-1.7,1l-1.4,1.4l-2.1,0.3l-1.7,0.3l-1.7,0.7l-1.7-0.3l-1-1.7
	l-1-1.7l-1.7-0.3l-2.1-0.3l-1.7-0.3l-1.7,0.3l-0.7,2.1l1,1.4l1,1.7l-0.3,2.1l-1.7,0.3l-1.4-1.4l-2.1,0.3h-1.7l-1,1.4l-2.1,1.4
	l-1.7-1l-1-1.4l0.3-2.1l1-1.7l0.7-1.7l-1-1.7l-1.7-0.7l-1.7-0.3l-1.7,0.3l-1.7-0.7l-1.4-1l-1.4,1.4l-1.7,1l-1.7,0.3l-1.4,1.7l-1,1.4
	l-1.7-0.3l-1-1.7v-1.7l1.4-1.4l1.4-0.7v-2.1l1.4-1v-1.7l-0.7-1.7l-1.4-1.7l-1-1.4l-1.4-1.7l-1.4-1l-1.7-0.7l-2.1-0.7h-1.7h-2.1h-2.1
	l-2.1-0.3h-2.1h-1.7l-2.1,0.3l-2.1-0.3l-1.7-0.3l-1.7-0.7l-1.7-1l-1.7-0.3l-2.1-0.3l-1.7-0.3l-2.1-0.7h-1.7l-2.1,0.7h-1.7l-2.1,0.3
	h-2.1h-2.1l-1.7,0.3l-2.1,0.3l-1.7,0.7l-1.7,0.7l-1.7,0.3l-2.1-0.3l-1.7-0.3l-1.7-0.7l-1.7-0.7l-1.7-1l-1-1.7l0.3-1.7l0.3-2.1
	l-1-1.4l-1.4-1.7l0.3-1.7l-1.4-1.4l-1.7,0.3l-1.7-0.7l-1-1.4l-2.1-0.7l-1.7-0.3h-2.1l-2.1,0.3h-2.1h-1.7h-2.1l-2.1,0.3l-1.7,0.7
	l-1.7,0.3h-2.1h-1.7l-0.7-1.7l-1.4-1.7l-1-1.4l-1-0.3l-1.7-1.4l-1-1.7l-0.7-1.4l-1.7-1.4l-1.4-1l-2.1-0.3l-1.7-0.3l-2.1-0.3h-2.1
	l-1.7-0.3l-2.1-0.3l-1.7-0.7l-1-1.4l-1-1.7l-1.4-1.7l-1.4-1.4l-1-1.4l-1.7-1l-1.7-0.7l-2.1-0.3l-1.7-0.7l-1.7-0.7l-1.7-0.7l-1.7-0.7
	l-1.7-0.7l-2.1-0.3l-2.1,0.3l-1.7-0.3l-2.1-0.3l-1.7-0.3l-2.1-0.7l-1.4-1l-1.7-1l-1-1.4l-1-1.7l-0.3-1.7l-0.3-2.1l0.3-2.1v-2.1
	l0.3-1.7l0.3-1.7l1-1.7l0.7-1.7l0.7-1.7L24,364l0.3-1.7l0.3-2.1v-1.7l0.3-2.1v-2.1v-1.7l-0.7-2.1l-0.3-1.7v-2.1l0.3-1.7v-2.1
	l0.3-2.1l-1-1.7l-0.3-2.1l-0.7-1.7l-0.3-1.7l-0.7-1.7l-1-1.7l-1.4-1.4l-1-1.7l-1-1.7l-0.7-1.4l-1-1.7l-1.7-0.7l-1.4-1.4l-1.4-1.4
	l-0.3-1.7l0.3-2.1l0.7-1.7l1.7-0.7v-1.7l0.7-1.7l1.4-1.4l0.7-1.7l0.7-1.7l0.7-2.1V300l-0.3-2.1l-0.7-1.7l-0.7-1.7v-2.1l-0.7-1.7
	l0.7-2.1v-1.7l-0.3-2.1l-1-1.7l-1-1.4l-0.7-1.7l-0.3-2.1l-0.3-2.1v-1.7l-0.7-2.1l-0.3-1.7l-0.7-1.7l-1-1.7l0.7-1.7v-1.7v-2.1l1.4-1
	h1.7l1.4-1.4l1.4-1.7l1.4-1.4l1.4-1.4l1-1.7h1.7l0.7-1.7l-0.7-1.7l-0.7-2.1v-2.1l0.7-1.7l-1.4-1.4l-1.7-1.4l-1.7-0.7l-1.4-1h-1.7
	l-1.4,1.4l-1-1.7l0.7-2.1l0.7-1.7l0.7-1.7l0.7-1.7v-2.1l-1-1.4v-2.1l0.3-1.7l2.4-2.1l1,0.3l1.4,1.4l1.7-0.7l1.4-1.4l-1-2.4l-1-1
	l0.7-1.7l2.1-0.3l-0.3-1.4l-0.7-3.1l0.7-1.7l1.4-1.4l1-1.7l1.4-1.4h1.7l2.1,0.3l2.1-0.3l1.7-0.3l1.7-0.7l2.1-0.7l1.7-0.7l1.7-0.7
	l1.7-1l1.4-1l1.7-1l1.4-1.4l1.4-1.4l1.4-1.4l1.4-1.7l1.4-1.4l1.7-1l1.7-0.7l1.7-0.7l1.4-1l1.7-0.7l1.7-1.4l1.7-1l1.4-0.7l1.7-1.4
	l1.4-1l1.7-1.4l1.4-1.4l1.7-1l0.7-1.4l1.4-0.3l1.4-1.7l1.4-1.4l1.4-1.4l1.4-1.4l1.4-1.4l1.4-1.4l1.4-1.4l1.4-1.4l1.4-1.4l1.4-1.4
	l1.7-0.7l1.7-0.7l2.1-0.7l1.7-0.7l1.7-0.3l2.1-0.7l1.7-0.7l1.7-0.7l1.7-0.7l1.7-1l1.7-0.7l1.7-0.7l1.7-0.7l1.7-1l1.7-0.3l1.7-1
	l1.7-0.7l1.7-0.7l1.7-1l1.4-1l1.7-1l1.7-1l1-1.4l0.7-2.1l0.3-1.7v-2.1v-2.1V133l-0.3-1.7l-2.1-0.3l-1.7,0.7l-1.7,0.7l-1.7-0.7
	l0.3-1.7l-0.3-2.1l-0.7-1.7l-0.3-1.7v-2.1l-0.3-2.1l0.3-1.7l1-1.7l1.7-1.4l1.4-1l1.4-1.4l1.4-1.7l1.4-1.4l1-1.7l0.7-1.7l1.4-1.4
	l2.1,0.3l1.7,0.3l1.7-1l1-1.7l0.7-1.7l0.7-1.7l-0.3-2.1l1-1.4h2.1h1.7l1.4-1.4l1.4-1.4l1.7-0.7l1.7,0.7l1.7,1l-0.3,1.7v1.7l2.1,0.7
	l1.7,0.3l2.1-0.3h2.1l1.7,0.7l1.7-1l1.4,1l1,1.7l1.7,1l1.7,1l1.7,0.7l2.1-0.3l1.7-0.7l1.4-1l1.7,0.7l1,1.7l0.3,2.1l1.4,1.4l0.3,2.1
	l1.4,1l1.4-0.7l1.4-1.4l1.7-0.7l1.7-1l1.7-0.7l1.7-1l1.7,0.3l0.7,1.7l-0.3,2.1l1.7-1l1.4-1l2.1-0.3l0.7-1.7l-1-1.4l-1.7-0.7
	l-1.7-0.7l-2.1-0.3l-1.7-0.3l-0.7-1l-1-1.7v-1.7l1-1.7l1.7-1l1.7-0.3l1.7-0.7l-0.7-1.4l-1.4-1l-0.7-1.7l1-1.7l1.4-1.4l1.7-1l1.4-1.4
	l1-1.7l1.4-1.4l1.7-0.7l1.7-1l1.7-0.7l1.7-0.7l1.7-0.7l2.1-0.7l1.7-0.3l2.1-0.3l2.1-0.3l1.7-0.7l1.7-0.7h1.7l2.1-0.3l1.7-0.7
	l1.4-1.4l1.4,1v2.1l1.7,0.7l1.7,2.1v1.7l1.7,0.7l1.7,1.4l1.7,0.7l2.1,0.3h1.7h2.1l2.1,0.3l1.7,0.3l1.4-1.4l0.3-1.7l1.7-0.7l1.7,0.7
	l1.4,1.7v1.7l1,1.7l1,1.7l1.4,1h2.1l1-2.1l1-1.7l0.7-1.7l1.4-1.4l1-1h2.1l1.7-0.7l2.1-0.7l1.7-0.3l2.1,0.3l1.4,1.4l1,1.7l1.4,1.4
	l1,1.4l1.7,0.7l2.1,0.3l2.1,0.3l0.7,2.4l1.4-0.3l0.3-1.7l1.4-1.4l1.7-1l1.4-1l1.7-1l1.4-1.4l2.1-0.3l1.7-0.7l2.1-0.3l1.7-0.7l1.4-1
	l1.7-0.7l2.1-0.3l1.7-1l1.4-1.4l1.4-1.4l1-2.1l0.7-1.7l0.7-1.7l0.7-1.7l1.7-1.4h1.7h2.1l1.7,0.3l2.1,0.7l1.7,0.7l1.7,1l1.4,1l1.7,1
	l1.7,1l1.7,0.7l1.7,0.7l2.1-0.3l1.7-0.3l2.1-0.3l1.7-0.7l1.4-1l1.7-1l1.7-1.4l1.7-0.7l1.4,0.3h2.1l1.4,1.4l1.7,1l1.7,0.3l1-1l-1-1.7
	l-0.3-1.7h2.8l0.3-2.1l2.1,0.3l1,1.7l-0.7,1.7l0.7,1.4h1.7l1.4,1.4l1,1.4l1.7-0.7v-2.1l1.4-0.3l1.7,1l1.7,1l1.4,1l1.7,0.7l1.7,0.7
	l2.1,0.7l1.7,0.3h2.1l2.1,0.3l2.1-0.3l1.4,1l-0.3,1.7V76l1.4,1.4l1.7,1l1.7,0.7l2.1,0.3l2.1-0.3l2.4-0.7l-0.3-2.1v-2.1l-0.3-1.7
	l-1.4-1.4h-2.1l-1.7-0.7l-0.7-1.7l0.3-1.7l0.3-1.7l0.7-1.7v-2.1l-0.3-2.1l-0.3-1.7l0.3-2.1l1.7-1l1.4-1l2.1-0.3h1.7h2.1l2.1,0.3
	l1.7-0.3l1.7-1l1.4-1.7l1-1.4l1.7-1l0.7-1.7v-2.1l0.3-2.1l2.1-0.3l0.3,1.7l1,1.7l0.7,1.7l1,1.7l0.7,1.7L426.2,52.3L426.2,52.3"/>
<path vector-effect="none" class="st0" d="M-1735.5-1975.1"/>
<path vector-effect="none" class="st0" d="M-1735.5-1975.1"/>
<path vector-effect="none" class="st0" d="M-1735.5-1975.1"/>
<path vector-effect="none" class="st0" d="M-1735.5-1975.1"/>
<path vector-effect="none" class="st0" d="M-1735.5-1975.1"/>
<path vector-effect="none" class="st0" d="M-1735.5-1975.1"/>
<path vector-effect="none" class="st0" d="M-1735.5-1975.1"/>
<path vector-effect="none" class="st0" d="M-1735.5-1975.1"/>
<path vector-effect="none" class="st0" d="M-1735.5-1975.1"/>
<path vector-effect="none" class="st0" d="M-1735.5-1975.1"/>
<path vector-effect="none" class="st0" d="M-1735.5-1975.1"/>
<path vector-effect="none" class="st0" d="M-1735.5-1975.1"/>
<path vector-effect="none" class="st0" d="M-1735.5-1975.1"/>
<path vector-effect="none" class="st0" d="M-1735.5-1975.1"/>
<path vector-effect="none" class="st0" d="M-1735.5-1975.1"/>
<path vector-effect="none" class="st0" d="M-1735.5-1975.1"/>
<path vector-effect="none" class="st0" d="M-1735.5-1975.1"/>
<path vector-effect="none" class="st0" d="M-1735.5-1975.1"/>
<path vector-effect="none" class="st0" d="M-1735.5-1975.1"/>
<path vector-effect="none" class="st0" d="M-1735.5-1975.1"/>
<path vector-effect="none" class="st0" d="M-1735.5-1975.1"/>
<path vector-effect="none" class="st0" d="M-1735.5-1975.1"/>
<path vector-effect="none" class="st0" d="M-1735.5-1975.1"/>
<path vector-effect="none" class="st0" d="M-1735.5-1975.1"/>
<path vector-effect="none" class="st0" d="M-1735.5-1975.1"/>
<path vector-effect="none" class="st0" d="M-1735.5-1975.1"/>
<path vector-effect="none" class="st0" d="M-1735.5-1975.1"/>
<path vector-effect="none" class="st0" d="M-1735.5-1975.1"/>
<path vector-effect="none" class="st0" d="M-1735.5-1975.1"/>
<path vector-effect="none" class="st0" d="M-1735.5-1975.1"/>
<path vector-effect="none" class="st0" d="M-1735.5-1975.1"/>
<path vector-effect="none" class="st0" d="M-1735.5-1975.1"/>
<path vector-effect="none" class="st0" d="M-1735.5-1975.1"/>
<path vector-effect="none" class="st0" d="M-1735.5-1975.1"/>
<path vector-effect="none" class="st0" d="M-1735.5-1975.1"/>
<path vector-effect="none" class="st0" d="M-1735.5-1975.1"/>
<path vector-effect="none" class="st0" d="M-1735.5-1975.1"/>
<path vector-effect="none" class="st0" d="M-1735.5-1975.1"/>
<path vector-effect="none" class="st0" d="M-1735.5-1975.1"/>
<path vector-effect="none" class="st0" d="M-1735.5-1975.1"/>
<path vector-effect="none" class="st0" d="M-1735.5-1975.1"/>
<path vector-effect="none" class="st0" d="M-1735.5-1975.1"/>
<path vector-effect="none" class="st0" d="M-1735.5-1975.1"/>
<path vector-effect="none" class="st0" d="M-1735.5-1975.1"/>
<path vector-effect="none" class="st0" d="M-1735.5-1975.1"/>
<path vector-effect="none" class="st0" d="M-1735.5-1975.1"/>
<path vector-effect="none" class="st0" d="M-1735.5-1975.1"/>
<path vector-effect="none" class="st0" d="M-1735.5-1975.1"/>
<path vector-effect="none" class="st0" d="M-1735.5-1975.1"/>
<path vector-effect="none" class="st0" d="M-1735.5-1975.1"/>
<path vector-effect="none" class="st0" d="M-1735.5-1975.1"/>
<path vector-effect="none" class="st0" d="M-1735.5-1975.1"/>
<path vector-effect="none" class="st0" d="M-1735.5-1975.1"/>
<path vector-effect="none" class="st0" d="M-1735.5-1975.1"/>
<path vector-effect="none" class="st0" d="M-1735.5-1975.1"/>
<path vector-effect="none" class="st0" d="M-1735.5-1975.1"/>
<path vector-effect="none" class="st0" d="M-1735.5-1975.1"/>
<path vector-effect="none" class="st0" d="M-1735.5-1975.1"/>
<path vector-effect="none" class="st0" d="M-1735.5-1975.1"/>
<path vector-effect="none" class="st0" d="M-1735.5-1975.1"/>
<path vector-effect="none" class="st0" d="M-1735.5-1975.1"/>
<path vector-effect="none" class="st0" d="M-1735.5-1975.1"/>
<path vector-effect="none" class="st0" d="M-1735.5-1975.1"/>
<path vector-effect="none" class="st0" d="M-1735.5-1975.1"/>
<path vector-effect="none" class="st0" d="M-1735.5-1975.1"/>
<path vector-effect="none" class="st0" d="M-1735.5-1975.1"/>
<path vector-effect="none" class="st0" d="M-1735.5-1975.1"/>
<path vector-effect="none" class="st0" d="M-1735.5-1975.1"/>
<path vector-effect="none" class="st0" d="M-1735.5-1975.1"/>
<path vector-effect="none" class="st0" d="M-1735.5-1975.1"/>
<path vector-effect="none" class="st0" d="M-1735.5-1975.1"/>
<path vector-effect="none" class="st0" d="M-1735.5-1975.1"/>
<path vector-effect="none" class="st0" d="M-1735.5-1975.1"/>
<path vector-effect="none" class="st0" d="M-1735.5-1975.1"/>
<path vector-effect="none" class="st0" d="M-1735.5-1975.1"/>
<path vector-effect="none" class="st0" d="M-1735.5-1975.1"/>
<path vector-effect="none" class="st0" d="M-1735.5-1975.1"/>
<path vector-effect="none" class="st0" d="M-1735.5-1975.1"/>
<path vector-effect="none" class="st0" d="M-1735.5-1975.1"/>
<path vector-effect="none" class="st0" d="M-1735.5-1975.1"/>
<path vector-effect="none" class="st0" d="M-1735.5-1975.1"/>
<path vector-effect="none" class="st0" d="M-1735.5-1975.1"/>
<path vector-effect="none" class="st0" d="M-1735.5-1975.1"/>
</svg>
