<?xml version="1.0" encoding="utf-8"?>
<!-- Generator: Adobe Illustrator 27.0.0, SVG Export Plug-In . SVG Version: 6.00 Build 0)  -->
<svg version="1.1" id="Layer_1" xmlns="http://www.w3.org/2000/svg" xmlns:xlink="http://www.w3.org/1999/xlink" x="0px" y="0px"
	 viewBox="0 0 500 500" style="enable-background:new 0 0 500 500;" xml:space="preserve">
<style type="text/css">
	.st0{fill:#E74646;stroke:#FFFFFF;stroke-width:4.6041;stroke-linecap:square;stroke-linejoin:bevel;stroke-miterlimit:3.998;}
</style>
<g transform="matrix(0.999751,0,0,0.999751,18.6633,21.7738)">
	<path vector-effect="none" class="st0" d="M365.5,72.4l0.4,0.6l0.4,0.6l0.2,0.7l0.1,0.6l-0.2,0.7l-0.4,0.6l-0.2,0.6l-0.4,0.6
		l-0.1,0.7l-0.4,0.6l-0.6,0.4l-0.6-0.1l-0.7,0.1l-0.6,0.4v0.7l0.6,0.5l0.5,0.5v0.7l-0.5,0.5l-0.5,0.6l-0.5,0.6l-0.4,0.6l-0.4,0.6
		l-0.5,0.5l-0.5,0.5l-0.7-0.1L359,86l-0.5,0.5l-0.2,0.6l-0.1,0.7l0.1,0.7l0.1,0.7l-0.2,0.6l-0.5,0.5l-0.7,0.1l-0.5,0.6l-0.5,0.5
		h-0.7l-0.6-0.2L354,91h-0.7l-0.6,0.4l-0.6,0.1l-0.6,0.4l-0.6,0.5l-0.4,0.6v0.7l0.4,0.6l0.5,0.5l0.6,0.5l0.6,0.2l0.6,0.2l0.7,0.1
		l0.7,0.1l0.6,0.1l0.6,0.4l-0.1,0.7l-0.4,0.6l-0.2,0.6l-0.5,0.6l-0.4,0.6l-0.5,0.5l-0.7,0.1h-0.7l-0.7-0.1l-0.7,0.1l-0.6,0.1
		l-0.6,0.4l-0.2,0.7l-0.1,0.7l-0.1,0.6l0.1,0.8v0.7l0.1,0.7l-0.1,0.7l-0.1,0.6l-0.4,0.7l-0.2,0.6l-0.5,0.5l-0.4,0.6l-0.2,0.7v0.7
		l0.1,0.7l0.2,0.6l0.5,0.5l0.6,0.4l0.7,0.2l0.6,0.2l0.5,0.6l0.5,0.8l0.6,0.4h0.7l1,0.2l0.4,0.6l0.4,0.6l0.4,0.6l0.6,0.2l0.7,0.4
		l0.6,0.2l0.6,0.4l0.6,0.4l0.6,0.4l0.6,0.4l0.5,0.5l0.5,0.5l0.6,0.5l0.6-0.4h0.7l0.6,0.2l0.7,0.1l0.5-0.6l0.5-0.5l0.4-0.6l0.6-0.4
		l0.6-0.2h0.7l0.5,0.5l0.1,0.7l-0.1,0.7l-0.4,0.6l-0.4,0.6l-0.4,0.6v0.7l0.1,0.7l0.1,0.7v0.5l0.6,0.1l0.5-0.4l0.7-0.4h0.7l0.7-0.1
		h0.7l0.6,0.1l0.2,0.7v0.7l-0.2,0.6l-0.1,0.7l0.5,0.6l0.5,0.5l0.6,0.4l0.6,0.2l0.7,0.2l0.7,0.1h0.6h0.7l0.7-0.1l0.7-0.2h0.7l0.6-0.2
		l0.7-0.4h0.7l0.7-0.1l0.7-0.1l0.6-0.1h0.8l0.7-0.1l0.7-0.1h0.7h0.7l0.6-0.4l0.6-0.2l0.7-0.2l0.6-0.2l0.7,0.1l0.7,0.1l0.6,0.2
		l0.1,0.6l-0.2,0.7l-0.4,0.6l-0.2,0.6l0.1,0.7l0.4,0.6l0.6,0.5l0.5,0.5l0.6,0.5l0.5,0.5l0.1,0.7v0.7l0.2,0.6l0.1,1.1v0.7v0.7
		l-0.1,0.6l-0.1,0.7l0.2,0.7l0.4,0.5l0.2,0.7l0.2,0.7v0.7l0.1,0.8l0.6,0.5l0.5,0.5l0.5,0.6l0.5,0.6l0.4,0.5l0.2,0.7l0.1,0.7l0.1,0.7
		l-0.4,0.6v0.7l1,0.2l1.1,0.1l0.6,0.4l0.6,0.2l0.6,0.4l0.6,0.5l0.6,0.2l0.6,0.5l0.5,0.5l0.2,0.7l0.4,0.6l0.2,0.6l0.2,0.6l0.4,0.6
		l0.1,0.7l-0.4,0.6l-0.2,0.6l-0.1,1.1l0.7,0.2l0.6,0.4l0.4,0.6l0.2,0.6v0.7l0.2,0.6l0.6,0.5l0.7,0.1l0.7-0.1h0.7h0.7l0.5,0.5
		l0.5,0.6l0.1,0.7l-0.1,0.7l-0.1,0.6l0.4,0.5l0.7-0.1l0.7-0.1l1.1-0.1l-0.5,0.7l-0.6,0.2l-1.6,0.6l-0.6,0.5l-1.7,0.5l0.2,0.5
		l-0.6,1.3l-0.5,0.5l-0.5,0.4l-1.3,0.4l-0.8,0.4l-2.8,0.7l-0.6,0.2l-1.1,0.8l-1.3,1.2l-0.5,0.4l-0.5,0.1l-0.6-0.5l-1.1,0.4l-1.4,1.2
		l-0.5,0.6l-0.2,0.5l-0.2,1.1l0.1,0.8l-0.1,0.6l-0.6,0.7l0.1,0.4h0.6v0.6l0.2,0.6l-0.1,0.5h-0.6l-0.6-0.1l-1.1,0.4l-0.4,0.2
		l-0.8,0.1l-1,0.1l-0.4,0.6l-0.8,1h-1l0.1,0.6v0.5l-0.4,0.6l-0.7,0.8l-0.4,0.2l-0.6,0.6l-0.5,0.6l-0.4,0.7v0.5l-0.1,0.5l-0.4,1.2
		l-0.7,0.5l0.2,0.7l-0.5,0.4l0.5,0.6v0.6l-0.1,0.5l-0.4,1.4l-0.1,0.7l-0.1,0.7l-0.4,0.8l-0.2,1l-0.4,0.5l-0.7-0.1l-0.4-0.2h-0.6
		l-0.5,0.2l-0.4,0.2l-0.4,0.8l-0.7,0.7l-0.1,0.4l0.2,0.6l0.4,0.2h0.6l1-1l0.4-0.7l0.5-0.5l0.4-0.2l0.4,0.7l-0.8,3.9l-0.2,1.2
		l0.1,0.8l-0.1,0.6l-0.4,1l0.5-0.1l0.6,0.1l-0.1,1.1l-0.2,0.4l0.4,0.6h0.7h1.3v1l0.6,0.2v0.5l-0.4,0.1l-0.7,0.4l-0.5,0.4v0.5
		l-0.6,0.1l-0.2,0.5l-0.4-1.1l-0.4-0.1l-0.6,0.8l-0.5,0.6h-0.6l-0.5,0.2l-0.7-0.5l-0.4,0.2l0.1,0.7v0.6l-0.7,1l-0.2,0.7l-0.2,0.5
		l-0.5,0.4l-0.4,0.5l-0.5,0.5l-0.4,0.4l-0.2,0.8v0.5l-0.5,0.4l-1.1,0.4v0.7h-0.8l0.4,0.7l-0.6,0.4h-0.4L371,223l0.4,0.4l-0.4,0.2
		l0.2,0.6l-0.7,1.1l-0.1,0.5l-0.7,0.7l-0.4,0.2l-0.2,0.7l-0.5,0.5l-0.4,0.1v-0.6l-0.5,0.2H367l-0.2,0.5l-0.7,0.2l-0.7,0.4l-1,0.2
		l-0.6,0.7l-0.5,0.5l-0.6,0.2l-0.2-0.6H362l-0.5,0.4l-0.5-0.4l-0.1-0.6l0.2-0.4l0.6-1l-1,0.2l-0.8,0.5l0.2,1.3l0.1,0.5l-0.2,0.6
		l-0.7-0.1l-0.2,0.5l-0.6-0.1l-0.4,0.1l-0.7,0.8l-0.4,0.5l-0.2,0.4l-0.8,0.2l-1,0.2h-0.8l-1.3-0.1l-0.8-0.2l-0.6-0.4l-0.6-1.3
		l-0.2-0.5l-0.2-0.7l-0.4,0.5l-0.6,0.1l-0.8,0.2h-0.7h-1.2l-0.7-0.1l-0.6,0.2l-1,0.5l-0.6,0.5l-1.7,1l-0.8,0.6l-1,1.2l-0.4,0.4
		l-0.5,0.4l-0.7,0.8l-0.6,0.6l-0.7,0.6l-3.5,3l-1.2,0.8l-0.6,0.6l-1.1,0.5l-1,0.2h-0.7l-0.5-0.4l0.1-0.4l-1.1-0.5l-0.4,0.1l-0.2,0.6
		l-0.6-0.2l-0.7-1l-0.8-0.6l-1.3-1.8l-0.6-1.4l-1.1-1.7l-0.4-0.7l-0.8-0.8l-1-1l-1.7-0.8l-0.6-0.5l-0.4-0.2l-1.9-0.5l-1.1-0.5
		l-0.6,0.1l-0.2-1l-0.5-0.6l-0.5-0.5l-0.4-0.6l-0.5-0.5l-0.5-0.6l-0.4-0.5l0.2-1v-0.7l-0.1-0.7l-0.2-0.7l-0.1-0.7l-0.2-0.6l-0.4-0.6
		l-0.4-0.6h-0.7h-0.7l-0.6-0.5l-0.2-0.6l-0.2-0.7l-0.5-0.5l-0.6-0.4l-0.7-0.1h-0.7h-0.7l-0.7,0.1l-0.6,0.4l-0.6,0.2l-0.6-0.1v-0.7
		l0.1-0.7l0.2-0.6l0.1-0.7v-0.7l0.1-0.7l0.1-0.6l0.1-0.7l0.4-0.6l0.2-0.7l0.1-0.6l0.1-0.7l0.1-0.6l0.1-0.7l0.1-0.7l0.1-0.7l0.1-0.6
		l0.4-0.6l0.4-0.6l-0.2-0.4l-0.5-0.6l-0.6-0.4l-0.6-0.4l-0.7-0.2L301,204h-0.7l-0.7,0.1l-0.6,0.5l-0.6,0.2l-0.7,0.1h-0.7l-0.7-0.1
		l-0.7-0.1l-0.7-0.1l-0.6,0.2l-0.6,0.4l-0.1,0.7l-0.2,0.7v0.7l-0.1,0.6l-0.2,0.7l-0.5,0.4l-0.6-0.1l-0.2-0.7v-0.7l-0.1-0.7l-0.5-0.5
		l-0.6-0.2l-0.6-0.2l-0.6-0.4l-0.6-0.4l-0.6-0.4l-0.5-0.5l-0.1-0.7v-0.7l0.2-0.7l0.5-0.5l0.1-0.7l-0.4-0.6l-0.4-0.6l-0.2-0.7
		l-0.1-0.6l-0.4-0.6l-0.6-0.2l-0.7-0.1l-0.6-0.2l-0.6-0.5v-0.7l0.4-0.6v-0.6l-0.5-0.6l-0.6-0.1l-0.6-0.2l-0.7-0.2l-0.6-0.2v-1
		l0.1-0.7v-0.7v-0.7l-0.1-0.7l-0.1-0.7l-0.2-0.6l-0.1-0.7l-0.2-0.6l-0.5-0.6l-0.5-0.5l-0.5-0.6l-0.2-0.6l-0.1-0.7l0.1-0.7v-0.6
		l0.1-0.7V181l0.1-0.7l0.1-0.7l0.2-0.6l0.1-0.7l0.1-0.7v-0.6l0.6-0.4l0.7-0.1l0.6-0.2l0.7,0.1l0.5,0.4l0.5,0.5l0.7,0.4l0.6,0.1
		l0.7-0.1l0.7,0.1l0.7-0.2l0.5-0.5l0.5-0.1l0.4-0.1l0.7,0.2l0.6,0.1l0.5,0.2l0.4-0.1l1.1-0.6l1-1l0.4-1.7l0.1-1.3l-0.5-0.7l-0.8-0.7
		l-1-0.6l-1.3,0.4l-1.3-0.2l-1.2-0.7l-1-0.8l-0.4-1.1l-0.6-1.1l-0.6-0.4l-0.5-0.6l-0.6-0.4l-0.5-0.5l-0.6-0.5l-0.5-0.5l-0.4-0.6
		l-0.4-0.6l-0.5-0.5L280,162l-0.2-0.7l-0.2-0.6l-0.4-0.6l-0.6-0.4l-0.6-0.5l-0.7-0.1l-0.7,0.1h-0.7l-0.6-0.2l-0.6-0.4l-0.6-0.4
		l-0.7-0.1l-0.6-0.2l-0.7,0.2l-0.5,0.6l-0.2,0.6l-0.6,0.4l-0.6,0.2l-0.6,0.4l-0.5-0.1l-0.7-0.2l-0.6-0.4l-0.5-0.5l-0.5-0.5l-0.2-0.6
		l-0.4-0.7l-0.5-0.5l-0.6-0.4l-0.6-0.5l-0.6-0.4l-0.4-0.6l-0.4-0.6l-0.4-0.6l-0.2-0.6l-0.5-0.6l-0.4-0.5l-0.4-0.6l-0.4-0.6l-0.5-0.5
		l-0.5-0.6l-0.6-0.5l0.4-0.8l0.1-0.7l0.2-0.6l0.1-0.7v-0.7l-0.2-0.6l-0.2-0.7l-0.2-0.6l-0.2-0.6l-0.4-0.6l-0.2-0.7l-0.2-0.6v-0.7
		l0.2-0.6l0.7-0.1l0.6-0.2l0.5-0.5l-0.2-0.7l-0.4-0.5l0.1-0.7l0.4-0.6l0.6-0.4l0.6-0.4l0.6-0.2l0.6-0.4l0.7-0.1l0.6-0.4l0.7-0.1
		l0.7,0.1l0.6,0.4l0.5,0.5l0.7-0.1l0.6-0.4l0.6-0.4l0.6-0.1h0.7l0.7-0.2l0.2-0.6l-0.1-0.7l-0.2-0.6l-0.2-0.7l-0.1-0.6l-0.1-0.7
		l0.1-0.7l0.5-0.4l0.7-0.1l0.7,0.1l0.7,0.1l0.6,0.1l0.1-2.3l-0.6-0.4l-0.7-0.1l-0.6-0.1h-0.7l-0.7-0.2l-0.6-0.2h-0.7H268h-0.7
		l-0.7,0.1l-0.6,0.4l-0.6,0.2l-0.6,0.4l-0.4,0.6l-0.2,0.6l-0.7,0.2l-0.6,0.1l-0.6-0.2l-0.6-0.4l-0.7-0.2l-0.6-0.2l-0.6-0.2l-0.7-0.1
		l-0.7-0.1l-0.6-0.2l-0.7-0.1l-0.6-0.1l-0.7-0.1l-0.7-0.1l-0.6-0.2l-0.7-0.1l-0.6-0.1l-0.7-0.1l-0.7,0.1h-0.7l-0.7,0.1l-0.7,0.2
		l-0.6,0.1l-0.7,0.2l-0.7,0.1l-0.7,0.1h-0.7h-0.7l-0.6-0.1l-0.6-0.5l-0.5-0.5l-0.6-0.5l-0.4-0.6l-0.6-0.5l-0.4-0.6l-0.2-0.6
		l-0.4-0.6l-0.6-0.5l-0.5-0.5l-0.4-0.6l-0.4-0.6l-0.8-0.4l-0.2-0.4l-0.5-0.6l-0.4-0.5l-0.5-0.6l-0.6-0.2l-0.7-0.1l-0.7-0.1l-0.6-0.2
		l-0.5-0.5l-0.4-0.6l-0.6-0.5l-0.5-0.5l-0.5-0.6l-0.5-0.4l-0.7-0.4l-0.6-0.2l-0.6-0.5l-0.1-0.6l-0.2-0.7l-0.4-0.6l-0.5-0.5l-0.4-0.6
		l-0.2-0.6l-0.2-0.6l-0.4-0.6l-0.2-0.7l0.1-0.7v-0.7l0.4-0.6l-0.1-0.7l-0.1-0.7l-0.2-0.6l-0.5-0.5l-0.7-0.2l-0.6-0.2l-0.7-0.1
		l-0.6-0.1l-0.6,0.4l-0.6,0.5v0.7v0.7l0.2,0.6l0.1,0.7l0.1,0.7v0.7l-0.6,0.5l-0.6,0.2l-0.7,0.2l-0.6-0.1l-0.7-0.1h-0.7H218l-0.6,0.2
		l-0.7,0.1l-0.7,0.2l-0.6,0.1l-0.7,0.2l-0.5,0.4v0.7l0.1,0.7l0.2,0.7l0.4,0.6l0.4,0.6l0.2,0.6l-0.2,0.5l-0.7,0.2l-0.6,0.1l-0.7-0.1
		h-0.7l-0.7,0.2l-0.6-0.2l-0.5-0.6l-0.5-0.5l-0.5-0.6l-0.6-0.4l-0.4-0.1l-0.4,0.6l-0.4,0.6l-0.1,0.7l-0.1,0.7l0.4,0.6l0.5,0.5
		l0.6,0.5l0.6,0.4l0.5,0.6l0.4,0.5l0.1,0.7l0.6,0.5l0.6,0.5l0.5,0.4l0.6,0.5l0.6,0.5l0.4,0.6l0.6,0.5l0.5,0.5l0.1,1l-0.5,0.5
		l-0.5,0.5l-0.6,0.4l-0.6-0.2l-0.2-0.6l-0.5-0.5l-0.7,0.2l-0.6,0.2l-0.6,0.4l-0.6,0.2h-0.7l-0.7-0.1l-0.7,0.1l-0.6,0.1l-0.6,0.5
		l-0.6,0.4l-0.6-0.4l-0.5-0.5l-0.6-0.4l-0.7-0.2h-0.6l-0.4,0.6l-0.1,0.7l-0.1,0.6l-0.1,0.7l-0.4,0.6l-0.5,0.6l-0.6,0.4l-0.5,0.5
		l-0.5,0.6l-0.6,0.4v0.7v0.7v0.7l-0.2,0.6l-0.6,0.5l-0.5,0.4l-0.7,0.2l-0.5,0.5l-0.2,0.6l0.2,0.6l-0.1,0.7l-0.6,0.4l-0.6,0.2
		l-0.6,0.4l-0.6,0.2l-0.6,0.4l-0.7,0.4l-0.6,0.2l-0.6,0.4l-0.6,0.2l-0.2,0.5l-0.6,0.4l-0.7,0.1l-0.6-0.5l-0.5-0.6l-0.5-0.5l-0.6-0.2
		l-0.6-0.4h-0.7l-0.6,0.1l-0.6,0.4l-0.6,0.5l-0.5,0.4L183,139l-0.7,0.2h-0.7l-0.5,0.5l-0.1,0.7l-0.4,0.6l-0.6,0.4l-0.6,0.2l-0.7,0.1
		l-0.6,0.4l-0.4,0.6l-0.2,0.6l-0.4,0.6l-0.5,0.6l-0.2,0.6l-0.1,0.6l0.6,0.4l0.7,0.1l0.6,0.1l0.4,0.7v0.7l-0.1,0.7l-0.1,0.6l0.4,0.7
		l0.5,0.4l0.6,0.6l0.5,0.5l0.4,0.6l0.5,0.5l0.5,0.6l0.5,0.5l0.2,0.6l0.5,0.6l0.5,0.5l0.6,0.6l0.5,0.5l0.6,0.2l0.7,0.1l0.7-0.2
		l0.5,0.4l0.4,0.6l0.1,0.7l0.4,0.6l0.2,0.6l0.2,0.7l0.2,0.6l0.4,0.6l0.4,0.6l0.5,0.5l-0.4,0.6l-0.5,0.5l-0.6,0.4l-0.7,0.1l-0.6,0.4
		l-0.2,0.6l-0.4,0.6l-0.4,0.6l-0.5,0.6l-0.1,0.6l-0.1,0.7l-0.5,0.5l-0.6,0.5l-0.2,0.6l-0.1,0.7l0.1,0.7l0.4,0.6l-0.5,0.6l-0.7,0.2
		l-0.5-0.5l-0.7-0.1l-0.6-0.4l-0.2-0.6l-0.2-0.7l-0.6-0.4l-0.7,0.1l-0.2,0.5L179,171v0.7l-0.4,0.6l-0.5,0.5l-0.6,0.4l-0.7,0.1h-0.7
		l-0.7-0.1l-0.7-0.1l-0.5,0.5l-0.6,0.2L173,174l-0.6,0.2l-0.7,0.2l-0.7,0.1l-0.4,0.4v0.8L170,176l-0.6,0.1l-0.7,0.1l-0.7,0.2
		l-0.6,0.4l-0.5,0.4l-0.7,0.4l-0.5,0.5l-0.5,0.5l-0.6,0.5l-0.5,0.5l-0.4,0.6l-0.5,0.5l-0.5,0.6l-0.4,0.6l-0.4,0.6l-0.2,0.7l-0.1,0.7
		l-0.2,0.6l-0.1,0.6l-0.2,0.7v0.7l0.2,0.8l0.6,0.1l0.7,0.2l0.5,0.5l0.7,0.2l0.6,0.4l0.6,0.2l0.6,0.4l0.6,0.5l0.4,0.6v0.6v0.8
		l0.4,0.6l0.2,0.6l-0.4,0.6l-0.2,0.7l-0.5,0.5l-0.4,0.6l-0.1,0.7l0.1,0.7l0.2,0.6l-0.4,0.6l-0.6,0.2l-0.6,0.4l-0.6,0.4l-0.5,0.4
		l-0.6,0.4l-0.5,0.5l-0.1,0.6l0.4,0.6l0.6,0.5l0.6,0.2l0.5,0.5l0.4,0.6l0.2,0.6l0.2,0.7l0.1,0.7l0.1,0.7v0.7l0.1,0.7v0.7l0.2,0.7
		l0.5,0.5l0.6,0.4l0.6,0.5l0.4,0.5l0.5,0.6l0.6,0.2l0.7,0.2l0.5,0.4l0.7,0.4l0.6,0.1l0.7,0.1h0.7h0.7l0.6-0.2l0.7-0.1h0.7l0.7,0.1
		l0.5,0.5l0.5,0.5l0.4,0.6l0.2,0.7l0.5,0.5l0.7,0.2l0.6,0.4l0.5,0.5l0.5,0.6l0.2,0.6l0.2,0.6l0.5,0.6l0.5,0.2l0.6,0.2l0.6-0.2
		l0.6-0.4l0.6-0.5l0.4-0.6l0.1-0.6l0.4-0.6l0.6-0.5l0.5-0.4l0.7-0.2l0.6-0.2l0.6-0.2l0.6-0.4l0.5-0.5l0.4-0.7l0.1-0.6l0.2-0.7
		l0.6-0.1l0.6,0.2l0.5,0.6l0.5,0.4l0.7,0.2l0.6-0.4l0.2-0.6l0.2-0.6l0.7-0.1l0.5,0.4l0.7,0.1l0.6,0.5l0.6,0.4l0.6,0.1l0.7,0.1h0.7
		l0.7,0.1h0.7h0.7h0.7h0.6l0.6-0.5l0.6-0.4l0.6-0.2h0.7l0.7-0.1h0.7l1.1,0.1l0.2,0.6l0.5,0.6l0.5,0.5l0.2,0.7v0.7v0.7l-0.2,0.6
		l0.4,0.8l0.5,0.6l0.5,0.5l0.7,0.2l0.6,0.2l0.6,0.2l0.6,0.2l0.6,0.4l0.6,0.5l0.6,0.5l0.6,0.1l0.7-0.2l0.6-0.2l0.6-0.4l0.7-0.1
		l0.7,0.1l0.7,0.1l0.6,0.1l0.7,0.1v-1l-0.2-0.6l-0.4-0.6l-0.6-0.2l-0.6-0.4l-0.6-0.4v-0.8l0.2-0.6l0.6-0.4l0.6-0.2l0.6-0.2l0.7-0.2
		l0.5-0.5l0.6-0.5l0.5-0.5l0.5-0.6l0.5-0.6l0.4-0.5l0.2-0.7l0.1-0.7v-0.6l0.6-0.6l0.5-0.4l0.6-0.5l0.6-0.4l0.6-0.2l0.7-0.2h0.7
		l0.6,0.1l0.6,0.6l0.5,0.5l0.6,0.4l0.6,0.1h0.7l0.7,0.1l0.6,0.2l0.7,0.2h0.6l0.6-0.4v-0.7l-0.2-0.6l0.5-0.5l0.7-0.2l0.8,0.6l0.6,0.4
		l0.5,0.6h0.6l0.5-0.5l0.4-0.6h0.7l-0.2,0.6l-0.2,0.7l-0.1,0.7v0.7l0.1,0.7l0.1,0.7l0.5,0.5l0.6,0.4l0.4,0.6l-0.1,0.7l-0.1,0.6v0.8
		l-0.1,0.6l-0.1,0.7l-0.1,0.7l0.1,0.6l0.5,0.6l0.6,0.2l0.7,0.2l0.6,0.5l0.5,0.5l-0.1,0.7l-0.2,0.6l-0.1,0.7l-0.1,0.7l-0.1,0.6
		l-0.2,0.7L243,225l-0.1,0.7v0.7l0.5,0.6l0.6-0.4l0.4-0.6l0.7-0.1l0.5,0.5l0.5,0.5l0.4,0.6l0.1,0.7l-0.2,0.6l-0.4,0.6l-0.1,0.6
		l-0.1,0.7l0.2,0.7l0.1,0.7l0.4,0.6l0.4,0.5l0.2,0.7l-0.1,0.7l-0.5,0.6l-0.4,0.5l-0.4,0.6v0.7l0.1,0.7l0.1,0.7l0.2,0.7l0.1,0.5h0.7
		l0.7-0.1h0.7l0.7,0.2l0.6,0.4l0.7,0.4v0.4l-0.4,0.6l-0.5,0.5l-0.4,0.6l-0.1,0.7l-0.2,0.6l-0.1,0.7l-0.1,0.6l-0.2,0.7v1l-0.6,0.4
		l-0.6,0.2l-0.7,0.2h-0.7l-0.7,0.2l-0.6,0.1l-0.6,0.4l-0.5,0.5l-0.6,0.4l-0.6,0.4l-0.7,0.2l-0.7,0.1l-0.5,0.6v0.7l-0.2,0.6l-0.2,0.6
		l-0.2,0.7l-0.2,0.6l-0.2,0.7l-0.1,0.6l-0.2,0.7l-0.1,0.6l-0.2,0.7l-0.1,0.6v0.7v0.8l0.2,0.6l0.2,0.7l0.1,0.7v0.7l0.1,0.4l0.6,0.4
		l0.5,0.5l0.2,0.6l0.1,0.7l-0.1,0.7v0.7l-0.1,0.7v0.7l0.1,0.7l0.2,0.6l0.2,0.6l0.2,0.7l0.2,0.6l0.4,0.5l0.6-0.2l0.7-0.1l0.7-0.2
		l0.6-0.1l0.7-0.1h0.7l0.7,0.1l0.6,0.4l0.4,0.6l0.2,0.6l0.4,0.6l0.5,0.6l0.5,0.4l0.7,0.2h0.7h0.7h0.7h0.7h0.7l0.7-0.1l0.7-0.2
		l0.6-0.1l0.7-0.1l0.7-0.2h0.7l0.6,0.4l0.5,0.5l0.2,0.7l0.2,0.6l-0.1,0.7v0.7l0.1,0.7l0.2,0.6l0.5,0.6l0.6,0.4l0.6,0.4l0.5,0.5
		l0.6,0.7l3-1.4l0.6-0.6l0.6-0.4l0.6-0.2l0.7-0.1l0.7-0.1l0.7-0.1h0.7l0.7,0.1l0.2,0.7v0.6l-0.5,0.6l-0.4,0.6l-0.1,0.7l0.5,0.5h0.7
		l0.7-0.1l0.6-0.1l0.7-0.2l0.6-0.2l0.7-0.2l0.6-0.1l0.7-0.2l0.6-0.2l0.6-0.4l0.7-0.2l0.6-0.2l0.6-0.4l0.6-0.5l0.5-0.4l0.6-0.4
		l0.6-0.2l0.7-0.2l0.7-0.1l0.6-0.1l0.8-0.1h0.7l0.6,0.2l0.6,0.2l0.7,0.2l0.6,0.1l0.8-0.4h0.6l0.4,0.2l0.6,1.2l0.6,1.1l0.4,0.5
		l0.5,0.6l0.1,0.5l0.5,0.7l0.2,0.6l0.8,1.3l0.6,1.2l0.8,0.7l0.6,0.8l0.5,0.8v0.5l0.2,0.6l0.5,1l1,1.2l0.5,0.8l0.5,1.1l0.4,0.6
		l0.7,0.7l1.1,1l0.6,0.4l1.2,1.2l2.3,2l0.6,0.4l-0.5,0.5l-0.5,0.6l-0.5,1l-0.6,0.5l-1.1-0.6l-0.6-1l-0.1,1.1l-0.7,0.2l0.2,0.6
		l1.1,0.1l0.5,0.4l-0.1,0.5l-0.8,0.4l-0.2,0.5l-0.5-0.1l-0.4,0.1l-0.5,0.1l-0.7,0.1l0.1,0.4l0.8,0.2l0.4,0.2v0.7l0.4,0.5l-0.5,0.8
		l0.5,0.2l0.5-0.4l0.6-0.5l1-0.1h0.6l0.2,0.6l-0.1,0.5l-0.2,1.1l-0.6,0.4l-0.4,0.6l0.1,0.7l0.1,0.7l-0.1,0.6l-0.4,0.5l-0.6,0.5
		l-0.4,0.6l-0.2,0.6l-0.4,0.6l-0.4,0.6l-0.5,0.6h-0.7l-0.7,0.1l-0.6,0.2l-0.6,0.2l-0.7,0.1h-0.7l-0.7,0.1l-0.7,0.1l-0.7,0.2
		l-0.7-0.1l-0.6,0.2l-0.6,0.5l-0.4,0.6l-0.4,0.6L290,319l-0.2,0.6l-0.2,0.7l-0.1,0.4l-0.2,0.6l-0.5,0.6l-0.1,0.7l-0.2,0.6l-0.1,0.7
		l-0.1,0.7v0.7l-0.1,0.6l-0.4,0.7l-0.1,0.6l-0.2,0.7l-0.2,0.6l-0.4,0.6l-0.2,0.6l-0.4,0.6l-0.2,0.7l-0.5,0.5l-0.5,0.5l-0.5,0.6
		l-0.6,0.4l-0.6,0.4h-0.7l-0.7-0.1l-0.6-0.2l-0.6-0.4l-0.7-0.1l-0.7,0.1l-0.7,0.1l-0.5,0.4l-0.5,0.6l-0.6,0.2l-0.6,0.4l-0.6,0.2
		l-0.7,0.1l-0.7,0.2l-0.6,0.1h-0.8l-0.6-0.1l-0.7-0.2l-0.7-0.1l-0.6,0.1l-0.7,0.2l-0.6,0.2l-0.7-0.1l-0.7-0.1l-0.6-0.2l-0.7-0.1
		h-0.7h-0.7l-0.7,0.2l-0.6,0.2l-1,0.1l-0.5,0.4l-0.7,0.2l-0.6,0.2h-0.7H259l-0.7,0.1h-0.7l-1.1,0.2l-0.5-0.2l-0.7-0.1l-0.6-0.1
		l-0.7-0.1l-0.7-0.1l-0.5,0.5l-0.7,0.4h-0.7h-0.7h-0.7l-0.6-0.1l-0.7,0.1l-0.6,0.2l-0.6,0.4l-0.6,0.5l-0.5,0.5l-0.4,0.6l-0.2,0.7
		l-0.1,0.6v0.7l-0.1,0.7l-0.1,0.7l-0.5,0.5l-0.2,0.6l-0.5,0.5l-0.6,0.4l-0.6,0.4l-0.6,0.4l-0.5,0.6l-0.4,0.6l-0.4,0.6l-0.4,0.6
		l-0.4,0.6l-0.4,0.6l-0.4,0.6l-0.4,0.6l-0.2,0.6l-0.4,0.7l-0.2,0.6l-0.5,0.5l-0.5,0.5l-0.5,0.6l-0.5,0.6l-0.4,0.5l-0.5,0.6l-0.5,0.5
		l-0.6,0.5l-0.6,0.4l-0.5,0.6l-0.4,0.6l-0.5,0.5l-0.5,0.6l-0.1,0.6l-0.6,0.5l-0.5,0.5l-0.5,0.5l-0.6,0.5l-0.5,0.6l-0.2,0.6l-0.2,0.7
		l-0.2,0.6l-0.5,0.5l-0.6-0.4l-0.4-0.6l-0.1-0.6l-0.4-0.6l-0.6-0.4l-0.6-0.4l-0.2-0.6l-0.5-1l-0.1-0.7l-0.4-0.6l-0.6-0.4l-0.6-0.4
		l-0.6-0.4l-0.7,0.1l-0.7,0.1l-0.5,0.4l-0.1,0.6v0.8l-0.1,0.6l-0.2,0.7l-0.1,0.6l-0.4,0.6l-0.4,0.6l-0.6,0.5L218,363l-0.7,0.1
		l-0.7,0.1l-0.5,0.5l-0.4,0.7l0.6,0.5l0.4,0.6v0.7l0.1,0.7v0.7l0.5,0.5h0.7l0.7,0.1l0.6,0.4l0.5,0.5l0.5,0.8l-0.4,0.6l-0.4,0.5
		l-0.7,0.2l-0.6,0.1l-0.5,0.7l-0.7,0.1l-0.6,0.1h-0.7l-0.6-0.2l-0.7-0.2l-0.6-0.2l-0.7-0.1h-0.7h-0.7l-0.7,0.1l-0.7,0.1h-0.7
		l-0.7,0.1l-0.6,0.4l-0.5,0.5l-0.6,0.4l-0.6,0.4L206,374l-0.6,0.4l-0.6,0.4l-0.6,0.2l-0.2,0.6l-0.4,0.6l-0.2,0.6l-0.1,0.7l-0.1,0.7
		l-0.1,0.6v0.8l0.1,0.7l-0.1,0.7l-0.1,0.6l-0.1,0.7l-0.4,0.6l-0.4,0.6l-0.6,0.5l-0.5,0.4l-0.7,0.2l-0.6,0.4l-0.4,0.6v0.7l-0.1,0.7
		l-0.4,0.6l-0.4,0.6l-0.2,0.6l-0.5,0.6l-0.1,0.7l-0.1,0.6l-0.4,0.6l0.1,0.7l0.1,0.7l-0.2,0.6l-0.2,0.6l-0.4,0.7l-0.2,0.7l-0.2,0.6
		l-0.2,0.6l-0.4,0.6l-0.5,0.6l-0.6,0.5l-0.5,0.5l-0.6,0.4l-0.5,0.5l-0.5,0.5L192,401v0.7l0.4,0.6l0.4,0.6l0.2,0.7l-0.1,0.6l-0.2,0.7
		l-0.2,0.6l-0.4,0.6l-0.4,1l-0.5,0.6l-0.4,0.5l-0.5,0.5l-0.5,0.6l-0.5,0.5l-0.5,0.5l-0.7,0.2l-0.6,0.5l-0.4,0.5v0.8v0.7v0.7
		l-0.2,0.6l-0.5,0.5l-0.7,0.2l-0.6,0.2l-0.7,0.2l-0.6,0.2l-0.6,0.4l-0.6,0.2l-0.6,0.4l-0.6,0.4l-0.6,0.2l-0.7,0.2l-0.6,0.1l-0.7,0.2
		l-0.6,0.2l-0.7,0.1l-0.6,0.4l-0.5,0.5l-0.6,0.4l-0.6,0.5l-0.2,0.5l-1.8,3.7l-0.6,0.5l-0.6,0.4l-0.5,0.5l-0.4,0.6l-0.2,0.6l-0.5,0.6
		l-0.6,0.5l-0.5,0.5l-0.5,0.5l-0.2,0.7l-0.2,0.6l-0.1,0.6l-0.2,0.7l-0.1,0.6l-0.1,0.7l-0.1,0.7l-0.1,0.7v0.7l-0.4,0.6l-0.5,0.6
		l-0.2,0.5l-0.5,0.5l-0.1,0.7l-0.1,0.7v0.7v0.8l0.5,0.6l0.1,0.7l-0.1,0.7v0.7l-0.1,0.7l-0.1,0.6l0.2,0.7l0.6,0.4l0.7,0.1l0.6,0.1
		l0.7,0.4l0.4,0.8l-0.2,0.6v0.7l0.2,0.6l0.4,0.6l0.4,0.6l0.1,0.7l-0.2,0.6l-0.2,0.7l0.5,0.4l0.6-0.4l0.6-0.2l0.6-0.2l0.7-0.2
		l0.7,0.1l0.5,0.5l0.2,0.7l0.1,0.7l-0.1,0.6l0.6,0.5l0.6,0.5l0.5,0.5l0.6,0.5l0.4,0.6l0.4,0.6l0.1,0.7l0.2,0.6v0.7v0.8v0.7l0.2,0.7
		v0.6l-0.6,0.4l-0.5,0.6l-0.4,0.6l-0.2,0.6l-0.5,0.6l-0.7,0.1H174l-0.7,0.1l-0.5,0.4l-0.5,0.5l-0.4,0.6l-0.5,0.6l-0.5,0.5l-0.6,0.5
		l-0.6,0.4l-0.6,0.2l-0.7,0.1l-0.6-0.1l-0.2-0.6l-0.2-0.7l-0.2-0.6l-0.2-0.7l-0.4-0.5l-0.7-0.2l-0.5-0.5l-0.2-0.6l-0.4-0.6l-0.5-0.6
		l-0.2-0.6l-0.1-0.7l-0.2-0.6h-0.7l-0.7-0.1l-0.6-0.2l-0.7-0.1l-0.7,0.2l-0.6,0.4l-0.6,0.2l-0.7-0.1l-0.5-0.4l-0.7-0.4l-0.7-0.1
		l-0.5,0.6l-0.2,0.6l-0.1,0.7l-0.5,0.4l-0.6,0.2h-0.7l-0.7,0.2l-0.2,0.6l-0.1,0.7l-0.1,0.7l-0.1,0.6l-0.2,0.7l-0.1,0.6l-0.4,0.6
		l-0.5,0.6l-0.6,0.4l-0.6,0.5l0.1,0.6l-0.4,0.6l-0.4,0.6l-0.6,0.2l-0.7,0.1h-0.7l-0.7,0.4l-0.6,0.2l-0.6,0.8l-0.7-0.2l-0.6-0.4
		l-0.2-0.6v-0.7l0.2-0.6l0.2-0.7v-0.6l-0.2-0.7l-0.4-0.6l-0.1-0.6l-0.4-0.6h-0.7l-0.7,0.2H141h-0.6h-0.7h-0.7h-0.7h-0.8h-0.7h-0.7
		l-1.3-1H134l-0.7,0.2l-0.7,0.1h-0.7l-0.6,0.2l-0.7,0.1l-0.7,0.2l-0.6,0.2l-0.6,0.2l-0.6,0.2l-0.7,0.2l-0.6,0.2h-0.7h-0.7l-0.7-0.2
		l-0.5-0.5l-0.5-0.5l-0.6-0.4l-0.5-0.6l-0.4-0.6l-0.1-0.7l-0.5-0.4h-0.7H120l-0.6-0.1l-0.6-0.4l-0.6-0.5l-0.6-0.4l-0.6-0.4l-0.6-0.2
		l-0.7-0.1l-0.6-0.1l-0.6-0.4l-0.5-0.6l-0.6-0.2l-0.7,0.1H112l-0.5-0.5l-0.6-0.5l-0.5-0.4h-0.7l-0.6,0.2l-0.7,0.2h-0.7l-0.6-0.2
		l-0.7-0.2l-0.6-0.4l-0.4-0.5l-0.6-0.4l-0.5,0.5l-0.6-0.2l-0.6-0.6l-0.6,0.1l-0.5,0.5l-0.6,0.2l-0.7-0.1l-0.6-0.4l-0.6-0.5l-0.6-0.2
		l-0.7,0.1h-0.7l-0.7,0.1H96l-0.7-0.1h-0.7l-0.7-0.1l-0.6-0.2l-0.6-0.5l-0.2-0.6l-0.1-0.7l-0.2-0.6l-0.2-0.6l-0.2-0.7l0.1-0.7
		l-0.5-0.5h-0.7l-0.4-0.6l-0.6-0.4l-0.6-0.2l-0.7-0.2l-0.5,0.2l-1.1,3.4l-0.6-0.2l-0.7-0.1l-0.5-0.5l-0.7-0.2h-0.7h-0.7l-0.7-0.2
		l-0.5-0.4l-0.6-0.4l-0.6-0.5l-0.7-0.1l-0.4,0.5l-0.6,0.4l-0.6-0.2l-0.6-0.4l-0.6-0.5l-0.6-0.2l-0.7-0.2l-0.6-0.1H74l-0.1-1
		l-0.2-0.7l-0.4-0.6L73,448l-0.5-0.5h-0.7H71l-0.6-0.2l-0.7-0.2l-0.6-0.4l-0.5-0.5l-0.5-0.6l-0.6-0.5l-0.6-0.1h-0.7h-0.7l-0.4-0.6
		v-0.7l-0.2-0.7l-0.6-0.4l-0.6-0.5l-0.1-0.7l0.1-0.7l0.2-0.6l0.4-0.6l0.4-0.6l0.1-0.6l-0.2-0.6l-0.4-0.6l-0.5-0.6l-0.5-0.5l-0.7-0.2
		l-0.6,0.1l-0.2-0.7l0.1-0.6l0.5-0.6l0.1-1.1l-0.5-0.5h-0.7h-0.7h-0.7l-0.6-0.5l-0.5-0.5l-0.1-0.6l0.2-0.6l0.5-0.6l0.5-0.6l0.5-0.5
		l0.1-0.6l-0.8-0.5h-0.7l-0.6-0.2l-0.2-0.6l0.4-0.6l0.4-0.6l0.6-0.4H60h0.7l0.7,0.2l0.6,0.2l0.7,0.1h0.7l0.6,0.1h0.7l0.6-0.4
		l-0.1-0.6l-0.1-0.7l-0.1-0.7l0.5-0.1l0.7-0.1l0.6-0.2l0.5-0.5l0.5-0.6l0.6-0.4l0.6-0.4l0.6-0.2l0.4-0.6l-0.1-0.8v-0.7l0.5-0.5
		l-0.1-0.6l-0.2-0.7l0.1-0.6l0.1-0.7l0.2-0.6l0.2-0.7l0.6-0.4l0.7-0.2l0.6,0.2l0.6,0.5v0.7l0.1,0.7l0.4,0.6l0.7,0.1l0.7-0.1l0.2-0.5
		l0.5-0.5l0.4-0.6l0.1-0.7l-0.1-0.7l-0.2-0.6l-0.2-0.7l-0.4-0.6l-0.2-0.6l-0.4-0.6l-0.1-0.7v-0.7l0.4-0.6l0.5-0.5l0.4-0.6l0.1-0.7
		l0.1-0.7l-0.5-0.6l-0.4-0.6l0.1-0.6l0.5-0.6l0.4-0.6L76,402l-0.5-0.6L75,401l-0.5-0.5l-0.6-0.5l0.1-0.6l0.2-0.7l0.4-0.6l0.4-0.6
		v-0.6l-0.2-0.7l-0.2-0.6l0.2-0.7l0.5-0.5l0.7-0.2l0.6-0.2l0.6-0.2l0.6-0.4l0.4-0.6l0.1-0.7l0.2-0.6l0.6-0.5l0.5-0.6l0.4-0.5
		l0.4-0.6l0.4-0.7l0.2-0.6l0.2-0.6l0.1-0.7l0.2-0.6l0.1-0.7l0.2-0.6l0.1-0.7v-0.7l0.2-0.6l0.4-0.6l0.5-0.6l0.4-0.6l0.6-0.5h0.6
		l0.4-0.6l0.1-0.6l0.1-0.7l0.1-0.7v-0.7l0.1-0.7l0.2-0.6l0.5-0.6l0.5-0.4l0.7-0.2l0.4,0.4l1.2-2.5l-0.1-1l0.1-0.6l0.2-0.7l0.4-0.6
		l0.5-0.6l0.4-0.6l0.4-0.5l0.2-0.7l0.4-0.6l0.4-0.6l0.4-0.6l0.5-0.6l0.2-0.6l0.4-0.6l0.2-0.6l0.1-0.7l0.1-0.6v-0.7l0.2-0.7l0.1-0.7
		l0.1-0.6v-0.7l0.1-0.7l0.1-0.7l0.1-0.6v-0.7l-0.1-0.7l-0.8-0.4l-0.7-0.2l-0.6-0.2l-0.6-0.1l-0.7-0.2h-0.7l-0.7-0.1h-0.7l-0.7,0.1
		l-0.6,0.1l-0.6-0.4l0.1-0.6l-0.4-0.6l0.2-0.6l0.4-0.6l0.6-0.4l0.6-0.4l0.5-0.5l-0.1-0.7l-0.2-0.6l-0.5-0.6l-0.6-0.5l-0.4-0.5
		l-0.2-0.6h-0.7l-0.6-0.2l-0.6-0.5l-0.4-0.6l-0.1-0.6V343v-0.7v-0.7v-0.7v-0.7l-0.2-0.6l-0.5-0.6l-0.6-0.4l-0.6-0.2L82,338l-0.2-0.7
		l-0.1-0.7l-0.2-0.6l-0.4-0.6l-0.5-0.5l-0.5-0.6l-0.6-0.4l-0.5-0.6l-0.2-0.6V332l-0.1-0.7l0.1-0.7l0.2-0.6l0.1-0.7l-0.1-0.7
		l-0.5-0.6l-0.5-0.5l-0.2-0.6l-0.4-0.7l-0.4-0.5l-0.6-0.5l-0.6-0.5l-0.5-0.4v-1l0.2-0.6L76,322l0.1-0.6l-0.2-0.7h-0.7l-0.6,0.1
		l-0.7-0.2l-0.6-0.2l-0.6-0.2h-0.7l-0.7,0.2h-0.7l-0.4-0.6l0.1-0.7l-0.4-0.5l-0.4-0.5l-0.1-0.7l-0.7-0.1l-0.7,0.2l-0.7,0.1l-0.6-0.4
		l-0.4-0.6l-0.5-0.5l-0.7-0.2h-0.6l-0.7,0.2h-0.6l-0.7-0.1l-0.7-0.1h-0.7l-0.6-0.5l-0.1-0.6L60,314l-0.4-0.6l-0.2-0.6v-0.7l0.1-0.7
		v-0.7l0.1-0.7v-0.7l-0.1-0.7l-0.2-0.7l-0.4-0.6l-0.5-0.5l-0.2-0.6l-0.1-0.7l0.2-0.7l0.2-0.6l0.2-0.6l0.2-0.6l0.4-0.6l0.5-0.5
		l0.5-0.6l0.4-0.6l0.1-0.7l-0.1-0.6l-0.4-0.6l-0.5-0.5v-0.7l-0.2-0.7l-0.4-0.6l-0.4-0.6l0.2-0.8l0.6-0.4l0.4-0.6V293l0.1-0.7
		l0.2-0.6l0.5-0.6l0.5-0.5l0.6-0.5l0.2-0.6l-0.2-0.7l-0.1-0.6l0.1-0.7l0.2-0.6l0.4-0.6l0.6-0.4h0.7h0.7h0.8h0.7l0.6-0.4l0.5-0.5
		l0.5-0.6l0.4-0.6v-0.7l-0.1-0.6l-0.1-0.8l0.4-0.6l0.7-0.1l0.5,0.5l0.7,0.2l0.6-0.2l0.5-0.5l0.4-0.6l0.2-0.7l0.2-0.6l0.4-0.6
		l0.4-0.6h0.7l0.6,0.1h0.7l0.2-0.8l-0.1-0.7l-0.1-0.7v-0.7l0.1-0.7l0.5-0.5l0.5-0.6l-0.2-0.7l-0.4-0.5l-0.7-0.1l-0.7-0.1l-0.6-0.2
		l-0.6-0.5l-0.4-0.6l-0.4-0.6l-0.5-0.5l-0.2-0.6l-0.2-0.7l0.1-0.7v-0.7v-0.7V265l-0.1-0.7l-0.1-0.7l-0.1-0.7v-0.7l0.4-0.6l0.5-0.5
		l1-0.2l0.5-0.5l0.6-0.5l0.5-0.5l0.5-0.6l0.5-0.5l0.4-0.6l0.5-0.6l0.4-0.6l0.4-0.5l0.6-0.5l0.7-0.1h0.7l0.5-0.6l0.5-0.5l0.4-0.6
		l0.2-0.6l0.2-0.7l0.4-0.6l0.7,0.4l0.6,0.2l0.7-0.1l0.4-0.5l0.2-0.6l0.4-0.7l0.7-0.2l0.6-0.2l0.7,0.1l0.4,0.6l0.2,0.7l0.1,0.6
		l0.5,0.6l0.6,0.2l0.6,0.4l0.5,0.5l0.1,0.7l0.2,0.7l0.2,0.6l0.5,0.5l0.6,0.1l0.7-0.2l0.5-0.4l0.6-0.4l0.5-0.5l0.5-0.6l0.6-0.4
		l0.6-0.4l0.6-0.2l0.6-0.2l0.7-0.2h0.7l0.6-0.2l0.5-0.6l0.4-0.6l0.4-0.6l0.5-0.4h0.7l0.7,0.2l0.6,0.2l0.5,0.5l0.4,0.6l0.4,0.6
		l0.5,0.5l0.4-0.7l0.1-0.7l0.1-0.6l0.2-0.7v-0.7l0.2-0.6l0.2-0.6l0.4-0.6l0.4-0.6l0.6-0.5h0.7l0.6-0.1l0.6-0.5l0.5-0.6l0.2-0.6
		l0.1-0.7l0.1-0.6l-0.2-0.6l-0.6-0.5l-0.6-0.4l-0.5-0.5l-0.1-0.7v-0.7v-0.7l0.2-0.6l0.1-0.7v-0.7l0.1-0.7l0.4-0.6l0.4-0.6l0.4-0.6
		l0.1-0.6l0.2-0.7l0.2-0.6l0.2-0.7l0.1-0.6l0.1-0.7l0.2-0.6l0.1-0.7l0.2-0.6l0.2-0.7l0.2-0.6l0.1-0.7l0.1-0.6l0.1-0.7l0.2-0.6
		l0.5-0.6l0.4-0.6l0.4-0.6l0.2-0.6l0.2-0.6l0.2-0.7l0.2-0.6V220v-0.7v-0.7l-0.4-0.2l-0.6-0.4l-0.6-0.5l-0.5-0.6l-0.2-0.6l-0.2-0.6
		l-0.4-0.6l-0.5-0.5l-0.7,0.1l-0.7,0.2l-0.6,0.1l-0.7,0.1l-0.6-0.4l-0.5-0.6l-0.4-0.6l-0.2-0.6l-0.4-0.6l-0.5-0.6l0.2-0.8l0.1-0.7
		v-0.7v-0.7v-0.7v-0.7l0.1-0.6l0.1-0.7l-0.1-0.7l0.1-0.7l0.1-0.7v-0.7l0.2-0.6l0.4-0.6l0.1-0.7l-0.1-0.7l-0.2-0.6l-0.1-0.6l-0.4-0.7
		l-0.4-0.6l-0.4-0.5l-0.4-0.6l-0.6-0.5l-0.6-0.2l-0.7-0.1h-0.7l-0.6,0.1l-0.7,0.2l-0.6,0.1l-0.7,0.2H98l-0.6-0.4l-0.6-0.2l-0.7-0.1
		h-0.7l-0.7,0.1l-0.6,0.1l-0.6-0.4l-0.6-0.5l-0.5-0.5l-0.8-0.5l-0.6-0.2l-0.7-0.1l-0.6-0.2l-0.6-0.2l-0.7-0.2l-0.6-0.2l-0.6-0.2
		h-0.7l-0.7-0.2l-0.6-0.4l-0.6-0.4l-0.5-0.5l-0.2-0.6l-0.4-0.6l-0.2-0.6l-0.4-0.6l-0.4-0.6l-0.7-0.2l-0.7-0.7l-0.6-0.5l-0.5-0.5
		l-0.5-0.6l-0.6-0.2H78l-0.7,0.2l-0.6-0.2l0.2-0.5l0.6-0.4l0.6-0.4l0.6-0.4l0.4-0.6l0.2-0.6l0.1-0.7v-0.7l0.1-0.7l0.1-0.7l0.1-0.6
		l0.2-0.7l0.5-0.5l0.6-0.1l0.1-0.7v-0.7v-0.7l-0.1-0.7v-0.7v-0.7h0.6l0.7,0.1l0.6,0.2h0.7l0.7-0.1l0.6-0.2l0.6-0.2l0.7-0.2l0.6,0.1
		l0.6,0.5l0.6,0.2l0.7,0.1l0.6-0.4l0.5-0.5l0.6-0.4l0.6-0.4l0.7-0.1h0.7l0.6-0.4l0.5-0.4l0.5-0.6l0.4-0.6l0.2-0.6l0.4-0.5l0.7-0.2
		l0.6,0.2l0.7,0.1l0.6-0.4l0.5-0.5l0.6-0.4l0.7,0.1l0.7-0.2l0.6-0.2l0.7-0.1l0.7,0.1l0.6,0.1l0.7-0.1l0.6-0.2l0.6-0.4l0.6-0.2
		l0.6-0.5l0.5-0.5l0.5-0.6l0.5-0.5l0.6-0.5l0.5-0.5l0.5-0.5l0.4-0.6l0.2-0.6l0.2-0.7l0.1-0.6l0.2-0.7l-0.6-0.2l-0.7-0.1l-0.6,0.1
		l-0.7,0.2H107l-0.5-0.4l-0.6-0.6l-0.5-0.5l-0.7,0.1l-0.4,0.6h-0.6l-0.7,0.1l-0.5,0.2l-0.5-0.5l-0.4-0.5l-0.6,0.4l-0.6,0.6l-0.6-0.1
		l-0.6-0.4h-0.7l-0.6-0.2l-0.4-0.6l-0.1-0.6l-0.1-0.7l-0.5-0.6l-0.4-0.6v-0.7l0.1-0.7v-0.6l-0.2-0.7l-0.1-0.7l-0.2-0.6l-0.2-0.6
		l-0.4-0.7v-0.7l0.4-0.6l0.2-0.6v-0.7v-0.7l-0.2-0.7l-0.1-0.6l-0.1-0.7l0.1-0.7l0.2-0.6v-0.7l-0.4-0.6l-0.6-0.5l-0.6-0.4l-0.7-0.1
		l-0.6-0.1l-0.6-0.4l-0.5-0.6l-0.4-0.6l-0.2-0.6l-0.2-0.6l-0.4-0.7l-0.4-0.6l-0.2-0.6l-0.4-0.6l-0.4-0.6l-0.4-0.5l-0.5-0.6l-0.4-0.6
		l-0.4-0.6l-0.4-0.6l-0.6-1l-0.5-0.5l-0.5-0.6l-0.4-0.4l-0.5-0.6l-0.6-0.5l-0.5-0.6l-0.4-0.5l-0.6-0.5l-0.6-0.5l-0.4-0.5l-0.2-0.7
		l0.2-0.7l0.4-0.6l0.2-0.6v-0.7l-0.1-0.7l-0.4-0.6l-0.2-0.6l-0.2-0.6l-0.4-0.6l-0.5-0.6l-0.7-0.2l-0.6-0.1l-0.2-0.6l-0.1-0.7
		l-0.4-0.6l-0.4-0.6l-0.1-0.6l-0.1-0.7l-0.1-0.6l-0.5-0.6l-0.5-0.6l-0.6-0.5l-0.5-0.5l-0.6-0.4l-0.6-0.4l-0.6-0.4l-0.6-0.4l-0.5-0.5
		l-0.4-0.6l-0.4-0.6l-0.4-0.6l-0.6-0.5l-0.6-0.4l-0.6-0.2l-0.6-0.4v-0.7l0.5-0.4l0.7-0.1h0.7l0.6-0.4l0.6-0.5l0.2-0.6l0.2-0.6
		l0.1-0.7l0.2-0.6l0.4-0.6l0.5-0.5l0.6-0.2h0.7h0.7l0.6-0.4l0.5-0.5l0.5-0.6l0.1-0.6l0.1-0.7l0.2-0.6v-0.7v-0.8v-0.7l-0.2-0.6
		l-0.7-0.1l-0.5,0.5l-0.6,0.2l-0.4-0.6l-0.1-0.7l-0.5-0.6l-0.5-0.5l-0.5-0.5L74,92.7l-0.4-0.6l-0.2-0.8l0.5-0.5l0.4-0.6l0.1-0.6
		l0.1-0.7l0.4-0.6l0.1-0.7l-0.1-0.7l-0.1-0.6l-0.4-0.6l-0.6-0.4l-0.7-0.4l-0.6-0.2L72,84.1l-0.1-0.6l-0.1-0.7L72,82l0.5-0.5l0.5-0.6
		l0.2-0.6l0.4-0.6l0.6-0.5l0.6-0.2l0.7-0.1l0.6-0.4l0.4-0.5l0.5-0.6l0.4-0.6l0.5-0.4l0.6-0.4l0.6-0.4l0.6-0.2h0.7H81h0.7l0.7,0.1
		h0.7h0.7l0.7-0.1l0.6-0.1l0.7-0.1l0.7,0.1l0.7,0.1l0.5,0.4l0.6,0.5l1.2,0.1l0.7-0.1L91,76l0.5-0.5l-0.4-0.8l-0.4-0.6l-0.4-0.6
		l-0.5-0.6l-0.1-0.6l0.2-0.7l0.2-0.6l0.1-0.7l0.1-0.7l-0.2-0.6v-0.7v-0.7l0.1-0.7V66l-0.4-0.6l-0.4-0.6l-0.2-0.6l-0.2-0.7v-0.7V62
		l-0.1-0.7l-0.4-0.6V60v-0.7v-0.7v-0.6l0.1-0.7l-0.1-0.8l0.2-0.6l0.1-0.7l0.1-0.6l0.4-0.6l0.4-0.6l0.5-0.6l0.5-0.6l0.5-0.5l0.4-0.6
		l0.4-0.6l0.5-0.6l0.4-0.6l0.5-0.5l0.5-0.6l0.2-0.6l0.4-0.6l0.4-0.6l0.6-0.5l0.6-0.2l0.6-0.4l0.6-0.2l0.6-0.4l0.6-0.2l0.6-0.4
		l0.6-0.4l0.6-0.4l0.5-0.5l0.6-0.4l0.5-0.5l0.5-0.6l0.1-0.6l0.1-0.7v-0.7l0.1-0.7l-0.1-0.7v-0.7l0.1-0.7l0.2-0.6l0.4-0.6l0.2-0.7
		v-0.6v-0.7l0.2-0.7l0.5-0.5l0.6-0.5l0.5-0.4l0.7-0.2l0.7-0.1h0.6l0.7,0.1l0.6,0.2l0.7,0.2l0.5,0.4l0.6,0.5l0.6-0.1l0.6-0.4l0.6-0.4
		l0.7-0.1l0.7,0.1l0.6,0.1l0.7,0.2l0.6,0.1l0.7,0.1h0.7l0.6-0.2l0.5-0.5l0.1-0.7l-0.1-0.7V29l0.4-0.6l0.4-0.6l0.5-0.5l0.6-0.5
		l0.7,0.1l0.4,0.2l-0.1,0.5l0.4,0.6l0.5,0.6l0.5,0.4l0.5,0.6l0.4,0.6l0.1,0.7v0.7l-0.2,0.6l-0.4,0.6l-0.5,0.6l-0.4,0.6l-0.4,0.6
		l-0.5,0.5l-0.5,0.5l-0.5,0.6l-0.2,0.6l0.1,0.7l0.5,0.5l0.6,0.2h0.7h0.7h0.7l0.7,0.1l0.6,0.4l-0.1,0.5l0.7,0.4l0.2,0.6l0.2,0.6
		l0.2,0.7v0.6v0.7v0.7v0.7v0.7l0.4,0.6l0.5,0.6l0.2,0.6l0.1,0.7l0.1,0.7l0.1,0.7l0.2,0.6l0.1,0.7l0.1,0.7l-0.2,0.6l-0.6,0.4
		l-0.7,0.1l-0.4,0.6l-0.5,0.5l-0.6,0.2l-0.2,0.6l0.1,0.7l0.4,0.6l0.4,0.6l0.1,0.6l0.1,0.7v0.7V59v0.7l0.1,0.7l0.1,0.7l0.1,0.7v0.7
		v0.7l-0.1,0.7l-0.1,0.6v0.7l-0.1,0.7l-0.4,0.6l-0.2,0.6l-0.2,0.7l-0.1,0.7l1-0.5l0.5-0.4l0.6-0.4l0.6-0.2h0.8l0.6,0.1l0.7,0.1
		l0.7-0.1l0.6-0.2l0.7-0.1h0.7l0.7-0.1l0.7,0.1l0.6,0.1l0.7,0.1l0.6-0.5l0.4-0.6l0.6-0.4l0.6-0.2l0.7,0.1l0.7,0.1l0.5,0.6l0.5,0.5
		l0.5,0.6l0.6,0.2l0.7-0.1h0.7l0.7,0.2l0.6,0.4l0.6,0.2l0.7,0.1l0.2-0.4l0.2-0.7v-0.7l0.5-0.5l0.6-0.2l0.7-0.2h0.6l0.7,0.1l0.7-0.2
		l0.5-0.4l0.5-0.6l-0.1-0.7l-0.2-0.6l-0.5-0.6l-0.5-0.5l-0.4-0.6v-0.6l0.1-0.7l0.5-0.5l0.6-0.2l0.6-0.4l0.6-0.2l0.7-0.1l0.7-0.2
		l0.6-0.2l0.6-0.2l0.6-0.5l0.6-0.4l0.6-0.2l0.6-0.4l0.6-0.4l0.6-0.2l0.6-0.2l0.5-0.5l0.6-0.5l0.6-0.2l0.6-0.2l0.5-0.5l0.5-0.6
		l0.5-0.6l0.6-0.5l0.5-0.4l0.6-0.4l0.6-0.4l0.6-0.4l0.6-0.4l0.6-0.4l0.5-0.5l0.4-0.6l0.2-0.6l0.6-0.5l0.5-0.4l0.6-0.5l0.5-0.5
		l0.6-0.4l0.5-0.6l0.5-0.5l0.6-0.4l0.6,0.1l0.7,0.1l0.5-0.5l0.4-0.6l0.6-0.5l0.5-0.5l0.6-0.5l0.5-0.5l0.4-0.6l0.5,0.1h0.6l0.6-0.4
		l0.7-0.1l0.6-0.2l0.7-0.2l0.6-0.1l0.1,0.5l0.2,0.7l0.2,0.6l0.4,0.6l0.4,0.6l0.2,0.6l0.4,0.6l0.4,0.6l0.4,0.5l0.4,0.6l0.6,0.6
		l0.5,0.5l0.5,0.5l0.4,0.6l0.1,0.7v0.7l-0.1,0.7l0.1,0.7l0.2,0.6l0.5,0.5h0.8l0.6,0.1h0.7h0.7l0.8-0.4L190,52l0.5-0.5L191,51
		l0.2-0.6l0.2-0.7l-0.1-0.7l-0.2-0.6l-0.2-0.6L191,47l0.2-0.6l0.5-0.6l0.6-0.1l0.6,0.5h0.5l0.4-0.6l0.6-0.4l0.5,0.5h0.6l0.4-0.6
		l0.2-0.6l0.1-0.7V43l0.1-0.7l0.1-0.6l0.2-0.7l0.2-0.6l0.5-0.5l0.6-0.4l0.6-0.5l0.6-0.4l0.5-0.4l0.6-0.4l0.6-0.5l0.2-0.6v-0.7
		l0.2-0.6l0.4-0.6l0.5-0.4l0.7-0.2l0.7-0.1h0.7h0.7l0.6,0.2l0.6,0.5l0.5,0.4l0.1,0.7v0.6l-0.4,0.7l-0.4,0.6l-0.2,0.6l-0.2,0.6
		l0.6,0.2h0.8l0.6,0.1l0.7-0.2l0.6-0.4l0.4-0.6l0.2-0.6l0.6-0.5l0.6-0.5l0.6-0.2h0.7l0.6,0.4l0.5,0.6l0.1,0.6l0.2,0.7l0.5,0.5
		l0.6,0.2l0.7,0.1h0.7l0.6-0.1l0.6-0.4l0.7-0.2l0.6,0.1h0.7h0.7l0.6-0.5l0.5-0.5h0.7l0.6,0.2l0.6,0.2l0.7,0.2l0.6,0.2l0.6,0.2
		l0.7,0.2l0.6,0.4l0.6,0.4l0.6,0.4l0.6,0.2l0.4-0.7l0.4-0.6l0.2-0.7l0.4-0.6l0.4-0.7l0.4-0.6l0.2-0.7l0.4-0.6l0.4-0.7l0.4-0.6
		l0.2-0.7l0.4-0.6l0.4-0.6l0.2-0.7l0.1-0.6v-0.7l0.1-0.7v-0.7l0.1-0.7v-0.7l-0.1-0.7v-0.7l-0.2-0.6l-0.4-0.6l-0.6-0.5l-0.6-0.4
		l-0.5-0.5l-0.5-0.6l-0.6-0.4l-0.6-0.2l-0.7-0.1l-0.5-0.5l-0.5-0.6l-0.2-0.6v-0.7l0.4-0.5h0.7l0.7,0.1l0.6,0.1h0.8l0.7-0.1h0.7
		l0.7,0.1l0.6-0.2l0.6-0.4l0.4-0.6v-0.7v-0.7V16l-0.1-0.7l-0.4-0.6l-0.2-0.6l-0.2-0.7l-0.1-0.6l-0.4-0.6l-0.4-0.6l-0.1-0.7l-0.1-0.7
		l-0.1-0.7V8.7L232,8V7.4V6.6l0.1-0.7l0.1-0.7V4.5l0.4-0.6l0.4-0.6l0.5-0.5l0.5-0.2l0.6-0.2l0.6-0.2l0.7-0.2l0.6-0.2l0.5-0.5
		l0.1-0.7l0.4-0.5l0.6-0.4l0.7-0.1l0.6-0.2l0.7-0.2l0.5-0.4l0.4-0.6l0.5-0.6l0.6-0.1l0.7,0.2l0.6,0.2l0.7-0.1l0.7,0.1h0.7l0.6,0.2
		l0.7-0.1l0.7-0.1l0.7,0.1l0.6,0.1l0.7-0.1l0.6-0.4l0.6-0.2h0.7l0.7,0.2l0.6,0.2l0.7,0.2l0.6,0.1l0.7,0.1l0.7-0.2l0.6-0.1l0.7-0.1
		l0.7-0.2l0.6-0.1l0.4-0.7l0.1-0.6l-0.1-0.7v-0.7l0.1-0.7l0.2-0.6l0.4-0.6l0.5-0.6l0.4-0.5l0.6-0.6l0.4-0.5l0.5-0.6l0.6-0.5l0.4-0.6
		l0.5-0.5l0.5-0.6l0.4-0.6l0.7-0.2l0.6,0.1l0.6,0.4l0.6,0.5l0.6,0.2l0.6,0.4h0.7l0.7-0.2l0.5-0.4l0.6-0.5l0.5-0.5l0.6-0.5l0.5-0.5
		l0.6-0.4l0.6-0.2l0.7-0.1l0.6,0.2l0.6,0.1l0.7,0.4l0.7-0.1l0.6-0.2l0.6-0.4l0.6-0.2l0.7-0.2l0.4,0.5l0.1,0.7l0.2,0.6l0.4,0.6
		l0.5,0.5l0.4,0.6l0.4,0.6l0.2,0.7l0.2,0.6l0.4,0.6l0.5,0.5l0.4,0.6l0.5,0.6l0.5,0.5l0.6,0.4l0.6,0.5l0.5,0.5l0.6,0.5l0.5,0.5
		l0.6,0.5l0.6,0.5l0.5,0.5l0.6,0.4l0.6,0.4l0.6,0.5l0.4,0.6l0.7,0.2l0.2,0.6l0.4,0.6l0.4,0.6l0.2,0.6v0.7v0.7L292,3.2v0.7l0.4,0.6
		l0.4,0.6l0.5,0.5l0.6,0.5l0.5,0.6l0.2,0.6V8L294,8.6l-0.5,0.5l-0.6,0.4l-0.6,0.2l-0.6,0.4l-0.6,0.2l-0.2,0.6v0.7l0.5,0.6l0.6,0.4
		l0.5,0.5l0.5,0.4l0.6,0.4l0.6,0.4l0.6,0.4l0.7,0.2l0.6,0.2l0.6,0.4l0.5,0.6l0.2,0.6l0.1,0.7l0.1,0.7l-0.1,0.7l-0.2,0.6V20l0.2,0.6
		l0.6,0.5l0.6,0.4l0.6,0.2l0.7,0.4l0.6,0.2l0.5,0.4v0.7l-0.2,0.7l-0.6,0.4h-0.7l-0.5,0.5l0.1,0.7l0.5,0.5l0.6,0.2h0.7h0.7l0.7-0.2
		l0.7-0.2l0.5-0.2l0.5-0.6l0.2-0.6l0.1-0.7V23l0.1-0.7l0.2-0.6l0.6-0.4h1l0.4,0.6l0.6,0.5l0.6,0.4l0.5,0.5l0.2,0.7l-0.1,0.6
		l-0.4,0.7l-0.6,0.4l-0.6,0.2l-0.7,0.2l-0.2,0.6l0.6,0.4l0.6,0.4l0.7,0.1h0.7h0.7l0.5,0.2l0.1,0.7l0.1,0.7V30l-0.2,0.6l-0.4,0.7
		l-0.4,0.5l-0.5,0.6l-0.1,0.6l0.1,0.7l0.6,0.4l0.7,0.4l0.5,0.4l0.5,0.6l0.2,0.6l0.5,0.5l0.4,0.6l0.2,0.7l0.1,0.7l-0.1,0.6l-0.2,0.7
		l-0.4,0.6l-0.2,0.6l-0.2,0.6l-0.2,0.7l-0.2,0.6l-0.1,0.7l-0.2,0.6l-0.6,0.5l-0.6-0.2l-0.7-0.1l-0.6-0.5l-0.1-0.6l-0.1-0.7l-0.6-0.4
		l-0.6-0.2h-0.7H305l-0.7,0.2l-0.6,0.2l-0.6,0.4l-0.2,0.6l-0.2,0.7l-0.1,0.7v0.6l-0.1,0.7l0.1,0.7l0.1,0.7l0.4,0.6l0.4,0.6l0.2,0.7
		l0.1,0.6l0.2,0.7l0.2,0.6l0.4,0.5l0.7,0.1l0.6,0.4l0.5,0.5l0.5,0.6l0.2,0.6v0.7l0.1,0.7v0.7l0.1,0.7l0.6,0.4l0.6,0.2l0.7,0.1
		l0.7,0.1l0.6,0.1l0.7,0.2l0.6,0.2l0.6,0.2l0.8,0.2v0.7l0.1,0.7l0.1,0.6l0.1,0.7v0.7l-0.4,0.6l-0.2,0.7l-0.5,0.5l-0.5,0.6l-0.2,0.6
		l-0.1,0.5l0.7,0.5l0.7,0.1l0.6,0.2l0.7,0.4l0.5,0.4l0.6,0.5l0.4,0.6l0.4,0.6l0.2,0.6v0.7v0.8l0.1,0.6l0.1,0.7l0.1,0.7l0.2,0.7
		l0.1,0.6l0.1,0.7l0.1,0.7l0.6,0.4l0.6,0.5l0.6-0.2l0.6-0.4l0.1-0.4l0.5-0.6L321,75l0.6-0.4l0.7-0.1l0.6-0.1l0.7-0.4l0.6-0.2
		l0.6-0.2l0.6-0.2h0.7h0.7l0.7-0.1l0.6-0.2l0.7-0.1h0.7l0.7,0.1h0.7h0.6l0.7-0.2l0.7-0.1l0.7,0.2l0.6,0.1l0.6,0.2l0.7,0.2l0.6,0.2
		l0.7,0.1l0.6,0.1l0.7-0.1l0.6-0.4l0.4-0.6l0.4-0.6l0.4-0.6l0.6-0.4l0.6-0.4l0.6-0.4l0.6-0.1l0.7-0.1l0.6,0.5l0.4,0.6l0.2,0.6
		l0.1,0.7l0.2,0.6l0.4,0.7l0.6,0.2l0.7,0.1l0.6,0.1l0.7-0.1l0.7-0.1l0.6-0.2l0.6-0.4l0.7-0.1l0.7,0.1l0.6,0.1l0.7,0.2l0.6,0.2h0.7
		l0.7,0.1l0.7,0.1h0.7h0.6l0.7,0.1h0.7l0.7-0.2l0.7-0.1h0.7l0.7-0.1h0.7l0.7,0.1l0.6,0.1l0.7-0.1l0.4-0.6l0.2-0.6l0.6-0.6
		L365.5,72.4L365.5,72.4"/>
	<path vector-effect="none" class="st0" d="M245.3,201l-0.6-0.5l-0.4-0.6l0.1-0.6l0.4-0.6l0.4-0.6l-0.1-0.7l-0.1-0.7l0.5-0.5
		l0.6-0.2l0.5-0.5l0.4-0.7l0.1-0.6l-0.2-0.6l-0.4-0.6l-0.4-0.7l-0.2-0.6v-0.5v-0.6l-0.2-0.6l-0.6-0.5h-0.6l-0.7,0.1l-0.7,0.2
		l-0.6-0.4l-0.5-0.6l-0.6-0.4l-0.6-0.4l-0.6-0.2l-0.6-0.4l-0.7-0.1l-0.5-0.2l-0.5-0.5l-0.2-0.4l-0.2-0.6l-0.4-0.7l-0.1-1l-0.1-1
		l-0.6-0.4l-0.4-0.6v-0.7l0.2-0.7l0.2-0.6l0.2-0.6l0.2-0.7l0.2-0.7v-0.7l0.4-0.2l0.6-0.2l0.7-0.2l0.6-0.2l0.6-0.4l0.7-0.2l0.6,0.2
		l0.6,0.1l0.7-0.2l0.7-0.1l0.6-0.2l0.7-0.1l0.7-0.1l0.7-0.1l0.6-0.2l0.6,0.4l0.7,0.2l0.6,0.2l0.7,0.1l0.7-0.1l0.6-0.2l0.6-0.4
		l0.5-0.5l0.6-0.5l0.5-0.5l0.6-0.4l0.6-0.4h0.7l0.7,0.2l0.6,0.1h0.7l0.7-0.2l0.6-0.4l0.6-0.4l0.5-0.4l0.6-0.5h0.7l0.4,0.5v0.7
		l-0.6,0.4l-0.6,0.4l-0.1,0.6l0.1,0.7l0.2,0.7v0.6l-0.1,0.7v0.7v0.6l0.1,0.7v0.7l-0.5,0.5l-0.5,0.6l-0.2,0.6l-0.1,0.7l-0.1,0.7v0.7
		l0.1,0.7l0.1,0.7l0.2,0.6l0.4,0.6l0.5,0.6l0.6,0.2l0.6,0.2h0.7h0.7h0.7l0.7,0.2l0.5,0.5l0.4,0.6l-0.1,1l-0.6,0.2l-0.7,0.1l-0.6,0.2
		l-0.6,0.4l-0.7,0.1l-0.6,0.4l-0.8,0.2l-0.5,0.5v0.7l0.5,0.5l0.6,0.4l0.6,0.4l0.5,0.5l0.2,0.7l-0.2,0.6l-0.4,0.6l-0.4,0.6l-0.2,0.6
		l-0.2,0.7l0.1,0.7v0.7v0.7v0.7v0.7l0.1,0.8v0.7l-0.1,0.6l-0.2,0.7l-0.2,0.6l-0.5,0.8l-1.1-0.4l-0.6-0.2h-0.7l-0.7-0.1l-0.6-0.1
		l-0.7-0.2l-0.6-0.2l-0.6-0.2l-0.7-0.1h-0.7l-0.7,0.1l-0.6,0.1h-0.7l-0.7-0.2l-0.6-0.4l-0.5-0.6l-0.4-0.6v-0.7v-0.6l-0.1-0.7
		l-0.7-0.2l-0.7,0.1l-0.7,0.1L245.3,201L245.3,201"/>
	<path vector-effect="none" class="st0" d="M362.8,236.1h-1l-0.2-0.6l0.2-0.2l0.4-0.4l0.6-0.2l0.6-0.4l0.4-0.2l0.4-0.4l0.2-0.6
		l0.4-0.6l0.2-0.6l0.4-0.2l0.4-0.4h0.6l0.6-0.2h0.6l0.4,0.2l-0.4,0.4l-0.2,0.2h-0.7l-0.2,0.4l-0.4,0.6l-0.4,0.6l-0.2,0.6l-0.4,0.2
		l-0.2,0.6l-0.4,0.4l-0.4,0.2l-0.6,0.4L362.8,236.1L362.8,236.1"/>
	<path vector-effect="none" class="st0" d="M343,250.9l-0.4,0.2l-0.2-0.2l-0.4-0.4l0.4-0.6l0.2-0.6l0.4-0.2l0.6,0.2v0.6l-0.2,0.4
		L343,250.9L343,250.9"/>
	<path vector-effect="none" class="st0" d="M358.4,235.5l-0.4,0.6l-0.6-0.2l0.4-0.6l0.2-0.4l0.4-0.2l0.2,0.2L358.4,235.5
		L358.4,235.5"/>
	<path vector-effect="none" class="st0" d="M373.5,224.3l-0.4,0.4l-0.2-0.4l0.2-0.6l0.4-0.2l0.2,0.2L373.5,224.3L373.5,224.3"/>
	<path vector-effect="none" class="st0" d="M375.6,220.2l-0.4,0.6l-0.4-0.2l0.4-0.6L375.6,220.2"/>
	<path vector-effect="none" class="st0" d="M344.8,245.5l-0.4,0.6l-0.4-0.4l0.4-0.6L344.8,245.5"/>
	<path vector-effect="none" class="st0" d="M374.3,222.3l-0.4,0.4l-0.4-0.2l0.4-0.4L374.3,222.3"/>
	<path vector-effect="none" class="st0" d="M379.6,216.3l-0.4,0.4l-0.4-0.2l0.4-0.4L379.6,216.3"/>
	<path vector-effect="none" class="st0" d="M359.9,237.1l-0.4,0.2l-0.4-0.2l0.4-0.2L359.9,237.1"/>
	<path vector-effect="none" class="st0" d="M346.8,243.7l-0.4,0.2l-0.2-0.2l0.4-0.2L346.8,243.7"/>
</g>
</svg>
