<?xml version="1.0" encoding="utf-8"?>
<!-- Generator: Adobe Illustrator 27.0.0, SVG Export Plug-In . SVG Version: 6.00 Build 0)  -->
<svg version="1.1" id="Layer_1" xmlns="http://www.w3.org/2000/svg" xmlns:xlink="http://www.w3.org/1999/xlink" x="0px" y="0px"
	 viewBox="0 0 500 500" style="enable-background:new 0 0 500 500;" xml:space="preserve">
<style type="text/css">
	.st0{fill:#E74646;stroke:#FFFFFF;stroke-width:4.6041;stroke-linecap:square;stroke-linejoin:bevel;stroke-miterlimit:3.998;}
</style>
<g transform="matrix(0.999751,0,0,0.999751,18.6633,21.7738)">
	<path vector-effect="none" class="st0" d="M413.9,442.1l-1.5,1.1l-0.3,0.3l-0.4,0.3l-0.3,0.3l-0.3,0.3l-0.3,0.3l-0.3,0.4l-0.3,0.3
		l-0.2,0.5l-0.3,0.3l-0.5-0.2l-0.4-0.2l-0.4-0.3l-0.4-0.2l-0.5-0.2l-0.4-0.2l-0.5-0.2l-0.4-0.2l-0.5-0.2l-0.4-0.2l-0.5-0.2h-0.4
		h-0.5l-0.5,0.2l-0.3,0.3l-0.3,0.4l-0.2,0.4l-0.2,0.5l-1.4,1.7l-0.5,0.1l-0.3,0.3l-0.4,0.3h-0.4l-0.3-0.3l-0.4-0.3l-0.3-0.3
		l-0.3-0.3l-0.3-0.3l-0.4-0.3l-0.5-0.2l-0.4-0.2l-0.5-0.3l-0.3-0.2l-0.4-0.3l-0.3-0.3l-0.4-0.3l-0.5-0.2l-0.5-0.1l-0.4-0.1l-0.5-0.2
		h-0.5h-0.5l-0.5-0.2l-0.4-0.2l-0.5-0.2l-0.4-0.1l-0.5,0.1l-0.3-0.3v-0.5v-0.5l-0.3-0.4l-0.5,0.1l-0.4,0.2l-0.5,0.2l-0.5,0.2
		l-0.5,0.1l-0.5-0.2l-0.4-0.1l-0.5-0.1l-0.5,0.1l-0.5-0.2l-0.4-0.2l-0.2-0.4l-0.2-0.5l-0.2-0.3l-0.2-0.4l-0.3-0.4l-0.2-0.4l-0.3-0.3
		l-0.2-0.5l-0.2-0.5l-0.2-0.4l-0.2-0.4l-0.4-0.2l-0.4-0.2l-0.2-0.5l-0.2-0.4l-0.2-0.4l-0.3-0.4l-0.3-0.3l-0.3-0.3l-0.2-0.4l-0.2-0.4
		l-0.3-0.3l-0.2-0.4l-0.2-0.5l-0.2-0.4l-0.2-0.5l-0.2-0.4l-0.2-0.5l-0.2-0.5l-0.1-0.5l-0.2-0.4l-0.4-0.3l-0.3-0.3l-0.3-0.3l-0.3-0.4
		l-0.1-0.5v-0.5v-0.5l0.1-0.4l0.1-0.5l-0.1-0.5v-0.5l-0.1-0.5l-0.2-0.5l-0.2-0.3l-0.1-0.5l-0.4-0.2l-0.4,0.2l-0.2,0.5l-0.2,0.4
		l-0.2,0.5v0.5v0.5v0.7l-0.2,0.4l-0.2,0.5l-0.2,0.4l-0.4,0.2l-0.4,0.3l-0.2,0.4l0.1,0.5l-0.2,0.5l-0.2,0.3l-0.5,0.2l-0.4,0.2
		l-0.4,0.3l-0.4,0.2l-0.3,0.3l-0.2,0.5l-0.2,0.4v0.5v0.5l-0.1,0.5l-0.3,0.2h-0.5l-0.2,0.4l0.1,0.5v0.5l-0.2,0.4l-0.4,0.2l-0.5,0.2
		l-0.5-0.1l-0.5-0.2l-0.4-0.2l-0.4-0.3l-0.2-0.4l-0.2-0.5l-0.2-0.4l-0.2-0.4l-0.1-0.5v-0.4l0.1-0.5v-0.5l-0.2-0.5l-0.3-0.3l-0.5-0.2
		l-0.2-0.2v-0.5l-0.2-0.5l-0.1-0.7l-0.3-0.3l-0.5-0.2l-0.4-0.1l-0.5,0.1l-0.3,0.3l-0.4,0.3l-0.4,0.2l-0.3,0.4l-0.4,0.2l-0.5,0.2
		l-0.5,0.1l-0.5,0.2l-0.5,0.1l-0.7,0.2l-0.1,0.5l-0.2,0.4l-0.3,0.4l-0.2,0.4l-0.2,0.4l-0.3,0.3l0.1,0.5l0.3,0.4v0.4l-0.1,0.5v0.5
		l0.3,0.4l-0.1,0.4l-0.4,0.2l-0.4,0.2l-0.4,0.2l-0.2,0.4l-0.4,0.2h-0.5l-0.4,0.1l-0.4,0.3l-0.3,0.3l-0.5,0.1l-0.4-0.1l-0.5-0.1
		l-0.5-0.1l-0.5,0.2l-0.4,0.2l-0.4,0.2l-0.4,0.2l-0.4,0.2l-0.4,0.2l-0.4,0.1h-0.5l-0.5-0.2l-0.4-0.2l-0.5,0.1l-0.4,0.3l-0.2,0.4
		l-0.2,0.5l-0.2,0.4l-0.2,0.4l-0.5,0.2l-0.3,0.3l-0.2,0.4l-0.2,0.5l-0.2,0.4l-0.3,0.4l-0.3,0.3l-0.5,0.2L339,443l-0.4-0.2l-0.4,0.2
		l-0.2,0.4l-0.2,0.3l-0.5,0.2l-0.4-0.2h-0.5l-0.4,0.2l-0.3,0.3l-0.3,0.4l-0.2,0.4l-0.2,0.5v0.5l0.1,0.5l0.2,0.4l0.2,0.5l0.2,0.5
		l0.3,0.3l0.2,0.5v0.5l-0.1,0.4v0.5l0.2,0.5v0.5l0.2,0.4l0.3,0.4l0.2,0.3l0.2,0.5l0.1,0.5v0.5v0.5l0.1,0.5l-0.1,0.4l-0.2,0.4
		l-0.3,0.3l-0.4,0.3l-0.5,0.2l-0.5,0.1l-0.4,0.2l-0.4,0.4l-0.3,0.3l-0.4,0.3l-0.2,0.2l-0.7,0.2l-0.4,0.2l-0.4,0.2l-0.4,0.2l-0.3,0.3
		l-0.3,0.3l-0.5,0.1h-0.5h-0.5l-0.5-0.1l-0.4-0.2l-0.5-0.2l-0.4-0.2l-0.5,0.2l-0.2,0.4l-0.3,0.4H326l-0.4-0.1l-0.5-0.2l-0.4-0.2
		l-0.4-0.2l-0.2-0.4l-0.2-0.4l-0.2-0.5l-0.2-0.4l-0.2-0.4l-0.2-0.4l-0.2-0.4l-0.2-0.4l-0.2-0.4l-0.1-0.5l-0.2-0.5l-0.2-0.4l-0.3-0.3
		l-0.5-0.2l-0.2-0.4l-0.1-0.5l-0.2-0.5l-0.3-0.3l-0.4-0.2H319l-0.5,0.2h-0.5l-0.4-0.3v-0.5l0.3-0.3l0.2-0.5l0.1-0.5l-0.1-0.4
		l-0.2-0.4l-0.3-0.3l-0.5-0.2l-0.4-0.3l-0.4-0.2l-0.3-0.3l-0.2-0.4l-0.2-0.5l-0.1-0.5l-0.2-0.5l-0.2-0.3l-0.5-0.2l-0.5-0.2l-0.4-0.3
		l-0.4-0.2l-0.3-0.3l-0.2-0.4l-0.3-0.4l-0.2-0.4l-0.2-0.5l-0.2-0.4l-0.2-0.5l-0.3-0.3l-0.4-0.2l-0.4-0.2l-0.2-0.7l-0.2-0.5l-0.2-0.4
		l-0.2-0.4l-0.2-0.4l-0.2-0.5l-0.2-0.4l-0.2-0.4l-0.2-0.4l-0.2-0.4l-0.3-0.3l-0.2-0.4l-0.3-0.3l-0.3-0.3l-0.3-0.4l-0.3-0.3l-0.4-0.2
		l-0.5-0.2l-0.4-0.2l-0.3-0.3l-0.4-0.3l-0.2-0.3l-0.2-0.5l-0.2-0.4v-0.5l-0.3-0.6l-0.1-0.5l-0.2-0.5l-0.2-0.5v-0.5l-0.1-0.5v-0.5
		v-0.5v-0.5v-0.5l-0.1-0.4v-0.5l-0.1-0.5l-0.1-0.5l-0.1-0.5l-0.2-0.5l-0.1-0.5l-0.2-0.5l-0.2-0.4l-0.2-0.5l-0.2-0.5l-0.2-0.3
		l-0.2-0.5l-0.2-0.4l-0.2-0.3l-0.3-0.4l-0.3-0.3l-0.2-0.4l-0.3-0.3l-0.4-0.2l-0.5-0.2l-0.4-0.3l-0.2-0.3l-0.3-0.3l-0.4-0.3l-0.4,0.2
		l-0.3,0.4l-0.3,0.3l-0.2,0.3l-0.4,0.3l-0.3,0.3l-0.3,0.4l-0.1,0.4l-0.3,0.5l-0.3,0.3l-0.3,0.2l-0.3,0.4l-0.4,0.2l-0.3,0.3l-0.2,0.5
		l-0.1,0.5v0.4l-0.1,0.5l-0.1,0.5l-0.2,0.4l-0.1,0.5v0.5v0.4l-0.1,0.5l-0.2,0.4l-0.5-0.2l-0.4-0.1l-0.3,0.2l-0.3,0.3l-0.7-0.1
		l-0.4-0.3l-0.5-0.2l-0.5-0.1l-0.3,0.3l-0.2,0.4l0.1,0.5l0.2,0.4l0.2,0.4l0.4,0.3l0.3,0.3l0.3,0.3l0.2,0.5v0.4l-0.2,0.5l-0.1,0.5
		l-0.2,0.4l0.3,0.3l0.4,0.2l0.4,0.2l0.4,0.3l0.2,0.4l-0.2,0.4l-0.1,0.4l0.2,0.5v0.5l-0.5,0.2l-0.5-0.1l-0.4,0.2l0.2,0.5l0.2,0.3
		l0.3,0.4l0.4,0.2l0.5,0.2l0.4,0.2l0.2,0.5l-0.2,0.4l-0.2,0.4l-0.3,0.3l-0.4,0.2l-0.4,0.2l-0.5-0.1l-0.4-0.2l-0.2,0.3l-0.2,0.5
		l-0.1,0.4l-0.3,0.2l-0.5,0.2l-0.3,0.3l-0.3,0.3l-0.3,0.4l-0.4,0.3l-0.4,0.2l-0.3,0.3l-0.4,0.2l-0.5-0.1l-0.4,0.2l-0.4,0.4l-0.2-0.2
		l-0.2-0.4l-0.3-0.3l-0.4-0.2l-0.5,0.1l-0.4,0.2l-0.3,0.4l-0.3,0.3l-0.4,0.1l-0.5-0.2l-0.5-0.2l-0.4-0.2l-0.4-0.3l-0.2-0.4l-0.2-0.5
		l-0.2-0.5l-0.1-0.5l-0.1-0.5l-0.2-0.5l-0.2-0.4l-0.1-0.5l-0.1-0.5l-0.2-0.5l-0.3-0.3l-0.4,0.2v0.5v0.5l-0.2,0.4l-0.4,0.2l-0.4-0.2
		l-0.4-0.2l-0.3-0.3l-0.5-0.1l-0.4,0.2l-0.4-0.2l-0.5-0.2l-0.2-0.4l-0.2-0.4l-0.2-0.4l-0.1-0.5l0.2-0.4l0.5-0.2l0.2-0.3l-0.1-0.5
		l-0.1-0.5l-0.2-0.5l-0.3-0.3l-0.5-0.1l-0.4-0.2l-0.4-0.3l-0.3-0.3l-0.3-0.3l-0.5-0.2l-0.3-0.3l-0.3-0.3l-0.3-0.4l-0.4-0.2l-0.5-0.2
		l-0.2-0.4l-0.2-0.3l-0.4-0.3l-0.5-0.3l-0.1-0.5l0.3-0.4l0.2-0.5l-0.2-0.5l-0.2-0.4l-0.3-0.3l-0.5-0.2l-0.4-0.2l-0.2-0.4l0.1-0.5
		v-0.5l-0.4-0.2l-0.3-0.3V422l0.2-0.5l0.4-0.2l0.4-0.2h0.5l0.5,0.1h0.5l0.2-0.4l0.2-0.4l0.1-0.5v-0.5l-0.2-0.5l-0.3-0.3l-0.4-0.3
		l-0.4-0.2l-0.4-0.3l-0.5-0.2h-0.4l-0.5-0.1l-0.5-0.1l-0.4-0.2l-0.4-0.2l-0.5-0.2l-0.4-0.2h-0.5l-0.5,0.1l-0.4,0.2l-0.3,0.3
		l-0.5,0.1h-0.4h-0.5l-0.5-0.1l-0.4-0.2l-0.5-0.1l-0.5,0.1l-0.4,0.2l0.1,0.5v0.4l-0.2,0.5l-0.2,0.3l-0.5-0.2l-0.4-0.3l-0.4-0.1
		l-0.4-0.2l-0.1-0.5l-0.5-0.2l-0.4-0.1h-0.5l-0.5,0.2v0.5l0.1,0.4l-0.2,0.5l-0.2,0.4l-0.4,0.2l-0.5-0.1l-0.4-0.1l-0.5,0.1l-0.1,0.5
		l0.2,0.5v0.5l-0.2,0.4l-0.4,0.2l-0.5,0.2l-0.4,0.2l-0.4-0.6l-0.2-0.4l-0.2-0.5l-0.2-0.4l-0.1-0.5v-0.5v-0.5l-0.1-0.5l-0.2-0.5
		l-0.3-0.3l-0.2-0.4l-0.2-0.5l0.1-0.5l0.1-0.4l0.2-0.5l-0.2-0.4l-0.2-0.2l-0.3-0.3l-0.2-0.4l-0.4-0.2l-0.4-0.3l-0.2-0.4l-0.2-0.4
		l-0.2-0.4l-0.2-0.5l-0.2-0.5l-0.1-0.5l-0.1-0.5v-0.4l0.1-0.5v-0.5v-0.5v-0.5l0.2-0.4l0.2-0.5l0.2-0.4l0.3-0.4l0.3-0.3l0.3-0.3
		l0.4-0.2l0.2-0.4l0.1-0.5l-0.2-0.5l-0.2-0.5l-0.2-0.4l-0.2-0.4l-0.3-0.3l-0.4-0.3l-0.3-0.3l-0.2-0.3l-0.3-0.4l-0.4-0.2l-0.2-0.4
		l-0.3-0.3l-0.4-0.3l-0.3-0.4l-0.2-0.3l-0.3-0.4l-0.3-0.3l-0.2-0.4l-0.2-0.4l-0.2-0.4l-0.1-0.5l-0.1-0.5l-0.2-0.5l-0.1-0.5l-0.2-0.4
		l-0.4-0.2l-0.5,0.2l-0.5,0.2l-0.5,0.1h-0.4l-0.5,0.1l-0.3,0.2l-0.5,0.2H236l-0.4-0.2l-0.5-0.1l-0.4-0.1l-0.5-0.1l-0.4-0.2l-0.5-0.2
		l-0.4-0.2h-0.5l-0.4-0.2l-0.5-0.2h-0.5l-0.4,0.2H230l-0.5-0.1l-0.5-0.1l-0.4-0.2l-0.5-0.2l-0.4-0.2l-0.5-0.1l-0.4-0.2l-0.4-0.2
		l-0.5-0.1h-0.5l-0.6-0.2l-0.2,0.6l-0.4,0.2l-0.4,0.2l-0.4-0.3l-0.3,0.2l-0.3,0.4h-0.4l-0.4-0.2l-0.5-0.2l-0.4,0.2l-0.4,0.2
		l-0.4,0.2l-0.2,0.3l-0.2,0.5l-0.2,0.4l-0.2,0.4l-0.2,0.4l-0.2,0.4l-0.5,0.2h-0.5h-0.5l-0.3,0.3l-0.4,0.2l-0.3,0.3l-0.2,0.4
		l-0.3,0.4l-0.3,0.3l-0.4,0.2l-0.5,0.1l-0.5,0.1l-0.5,0.2l-0.4,0.2l-0.4,0.2l-0.4,0.3l-0.2,0.2l-0.5,0.1h-0.5l-0.4-0.2H210l-0.5,0.2
		l-0.4,0.1l-0.5-0.1l-0.4-0.2h-0.5h-0.5h-0.5h-0.5l-0.4,0.2l-0.2-0.4v-0.3l-0.4-0.1h-0.4l-0.6-0.5l-0.5-0.2l-0.5,0.1l-0.5,0.1h-0.4
		l-0.5-0.2l-0.3-0.4l-0.4-0.2l-0.4-0.2l-0.5-0.1l-0.4-0.2l-0.4-0.2l-0.5-0.2l-0.4-0.2l-0.4-0.2l-0.4-0.3l-0.2-0.4l-0.2-0.3l-0.3-0.3
		l-0.4-0.2l-0.5-0.1h-0.5l-0.3-0.3l-0.2-0.4l-0.2-0.4l-0.3-0.4l-0.4-0.2l-0.2-0.4l-0.2-0.4l-0.1-0.5v-0.5l0.1-0.5l0.1-0.4l-0.2-0.5
		l-0.2-0.5l-0.1-0.5v-0.5l-0.2-0.5l-0.2-0.4l-0.2-0.4v-0.5l0.1-0.4v-0.5l-0.3-0.4l-0.2-0.6l-0.5,0.1l-0.5,0.2l-0.5-0.1l-0.5,0.1
		h-0.4l-0.5,0.1l-0.4,0.2l-0.3,0.4l-0.3,0.3l-0.3,0.3l-0.4,0.3l-0.3,0.3l-0.4,0.2l-0.3,0.2l-0.4,0.3l-0.4,0.2h-0.5l-0.4-0.2
		l-0.4-0.3l-0.5,0.1l-0.1,0.5l0.4,0.3l0.4,0.3l-0.1,0.4l-0.2,0.4l-0.4,0.3l-0.3,0.2l-0.3,0.4l-0.2,0.4l-0.2,0.4l-0.3,0.3l-0.4,0.3
		l-0.4,0.2l-0.5,0.1l-0.5-0.2l-0.4-0.2l-0.4-0.2l-0.5-0.1l-0.5,0.1l-0.3,0.3l0.1,0.5l0.2,0.4l-0.2,0.3l-0.4-0.1l-0.5-0.2l-0.4-0.2
		h-0.5l-0.3,0.2l-0.5,0.2h-0.4l-0.5,0.2l-0.5,0.2l-0.4,0.2h-0.5l-0.4,0.2l-0.4,0.3l-0.3,0.3l-0.5,0.2l-0.5-0.1l-0.2-0.4l-0.3-0.3
		l-0.2-0.5l-0.3-0.3l-0.4-0.3l-0.2-0.4l-0.3-0.3l-0.2-0.5v-0.4v-0.5l-0.2-0.5l-0.2-0.3l-0.4-0.2l-0.5,0.2l-0.4,0.2h-0.5l-0.4-0.1
		l-0.5-0.2l-0.4-0.2l-0.4-0.2l-0.4-0.2l-0.5-0.1l-0.4,0.2l-0.2,0.4v0.5l-0.2,0.4l-0.2,0.4l-0.2,0.5v0.5l0.2,0.4l0.2,0.4l0.1,0.5
		l-0.3,0.3l-0.4,0.2l-0.5-0.1l-0.4-0.2l-0.5,0.1l-0.2,0.4l-0.2,0.4l-0.4,0.2h-0.4h-0.5l-0.4-0.2l-0.3-0.2l-0.4,0.2l-0.4,0.2
		l-0.4,0.2l-0.5,0.1l-0.5,0.1l-0.5,0.1l-0.4,0.5l-0.4,0.2l-0.5,0.1h-0.4l-0.5-0.2l-0.4-0.1l-0.5,0.2l-0.3,0.3l-0.3,0.4l-0.3,0.2
		l-0.5,0.1l-0.5-0.2l-0.4-0.2l-0.4-0.3l-0.2-0.4l-0.3-0.3l-0.4-0.1l-0.5,0.1l-0.4,0.2l-0.4,0.2l-0.4,0.2l-0.4,0.2l-0.5,0.1l-0.4-0.2
		l-0.4-0.3l-0.3-0.2l-0.1-0.6l-0.2-0.4l-0.2-0.4l-0.2-0.5v-0.5l0.1-0.5l-0.1-0.4l-0.2-0.4l-0.4-0.3h-0.5l-0.4,0.2l-0.3,0.3l-0.4,0.2
		h-0.5l-0.5-0.2l-0.3-0.3l-0.2-0.4v-0.5l-0.1-0.5l-0.2-0.4l-0.4-0.2l-0.4-0.1l-0.4-0.5l-0.3-0.4l-0.4-0.2l-0.4,0.2l-0.4,0.3
		l-0.4,0.2l-0.4,0.2l-0.4-0.2l-0.3-0.3l-0.2-0.4l-0.1-0.5l-0.2-0.5l-0.4-0.3l-0.4-0.1l-0.2-0.4v-0.5l-0.2-0.3l-0.4-0.2l-0.4-0.3H133
		h-0.5l-0.5-0.1l-0.2-0.4V384l0.3-0.3l0.2-0.4l-0.4-0.2h-0.4H131l-0.4-0.2l-0.1-0.5v-0.5l0.2-0.4l0.3-0.3l0.3-0.3l0.3-0.3V380
		l-0.4-0.2l-0.5-0.2l-0.1-0.5l0.2-0.5l0.2-0.3l0.3-0.4l0.2-0.4v-0.5l-0.3-0.6l-0.4-0.3l-0.4-0.2H130l-0.5-0.1l-0.4-0.2l-0.3-0.2
		l-0.4-0.3l-0.3-0.3l-0.2-0.3l-0.2-0.4l-0.2-0.4l0.2-0.5l0.4-0.2l0.4-0.2l0.2-0.3l0.2-0.4l0.1-0.4l0.1-0.5l0.1-0.5l-0.2-0.5l0.2-0.4
		l0.2-0.4l-0.1-0.5l-0.3-0.3l-0.3-0.3l-0.4-0.2l-0.2-0.4l-0.1-0.5l-0.1-0.5l-0.2-0.5l-0.1-0.5l-0.2-0.5l-0.1-0.5l-0.2-0.5l-0.1-0.5
		l-0.1-0.5h-0.4l-0.4-0.2l-0.4-0.3l-0.2-0.5v-0.4v-0.5l-0.2-0.5l-0.2-0.4l-0.3-0.4l-0.2-0.4l-0.2-0.4l-0.4-0.2l-0.4-0.2l-0.4-0.2
		l-0.2-0.4l-0.2-0.5l-0.2-0.4l-0.2-0.4l-0.3-0.3l-0.5-0.2l-0.5,0.2l-0.4,0.1l-0.5,0.3l-0.3,0.3l-0.3,0.3l-0.2,0.4l-0.4,0.3l-0.3,0.3
		l-0.4,0.2l-0.4,0.2l-0.4,0.2l-0.4,0.2l-0.4,0.2l-0.5,0.2l-0.5,0.1l-0.5,0.2l-0.5,0.1H114l-0.5,0.1l-0.4,0.1l-0.5,0.2l-0.3,0.2
		l-0.2,0.5l-0.3,0.3l-0.5,0.2h-0.5l-0.4-0.1l-0.4-0.2l-0.3-0.3l-0.4-0.2h-0.5l-0.4,0.2l-0.3,0.3l-0.3,0.4l-0.4,0.2l-0.4,0.2h-0.5
		h-0.5h-0.5l-0.4,0.1l-0.2,0.5l-0.3,0.3l-0.4-0.2l-0.3-0.3l-0.4-0.3l-0.4-0.2l-0.5,0.1l-0.5,0.1l-0.5,0.1l-0.4-0.2l-0.4-0.2
		l-0.5-0.2h-0.4l-0.4,0.2l-0.4,0.3l-0.3,0.3l-0.3,0.3l-0.3,0.2l-0.2-0.2l-0.3-0.4l-0.2-0.4l-0.3-0.4l-0.3-0.4l-0.3-0.4l-0.2-0.4
		l-0.3-0.3L95,359l-0.3-0.3l-0.4-0.2l-0.3-0.3l-0.3-0.3l-0.2-0.3L93,357l-0.4-0.2l-0.2-0.4L92,356l-0.3-0.4l-0.4-0.2l-0.4-0.2
		l-0.3-0.4l-0.3-0.3l-0.2-0.4v-0.5v-0.5l-0.1-0.5l-0.1-0.5l-0.2-0.4l-0.2-0.4l-0.2-0.4l-0.1-0.5l0.2-0.4l0.2-0.4l-0.1-0.5l-0.1-0.5
		l-0.1-0.5l-0.1-0.5l0.2-0.4l0.5-0.1l0.4-0.2l0.4-0.2V346l-0.3-0.3l-0.3-0.3l0.1-0.5l0.2-0.4h0.4l0.4,0.2l0.4,0.3l0.4,0.1l0.4-0.2
		l0.4-0.2l0.5-0.2h0.4h0.5l0.5,0.1l0.4,0.2l0.5,0.2l0.4,0.2l0.4-0.1l0.4-0.2l0.3-0.3l0.3-0.3l0.2-0.4l0.1-0.5l-0.1-0.5l-0.2-0.4
		l0.1-0.5l0.2-0.3l0.4-0.2l0.4-0.2l0.5-0.2l0.3-0.2l0.5-0.2l0.5-0.2l0.4-0.2l0.5-0.2l0.4-0.2l0.5-0.1l0.5-0.2l0.4-0.1l0.5-0.2
		l0.5-0.1l0.5-0.1l0.5-0.1l0.5-0.1l0.4-0.2l0.5-0.1l0.5-0.1l0.5-0.1l0.4-0.2l0.3-0.3l0.2-0.5l0.2-0.4l0.1-0.5l0.1-0.4l0.1-0.5
		l-0.1-0.5l-0.2-0.5l-0.1-0.5v-0.5v-0.4l0.1-0.5l0.1-0.5l-0.1-0.4l-0.2-0.4h-0.5l-0.5,0.2v-0.5l0.5-0.2l0.1-0.5l-0.3-0.2l-0.4-0.3
		l-0.2-0.4V329l-0.2-0.4l-0.3-0.3l-0.5-0.1l-0.3,0.3l-0.1,0.5l0.1,0.5l0.1,0.5l0.2,0.5l-0.1,0.4l0.1,0.5l-0.2,0.4l-0.5,0.1l-0.4,0.1
		l-0.5-0.2l-0.5,0.1l-0.4-0.1l-0.4-0.2l-0.2-0.4v-0.5v-0.5v-0.5v-0.4v-0.5l0.2-0.5l0.2-0.4l0.1-0.5v-0.4l0.1-0.5l0.1-0.7H103
		l-0.5-0.1l-0.5-0.1h-0.6h-0.4h-0.6h-0.4l-0.3-0.2h-0.6l-0.3-0.3l-0.2-0.2l-0.3-0.2l-0.5,0.1l-0.2,0.4l-0.1,0.6l0.2,0.5l0.1,0.6
		l0.5,0.5l0.5,0.4l0.2,0.8l0.3,0.6v0.4l0.2,0.6l-0.1,0.3l0.1,0.4l-0.2,0.4l-0.2,0.4l-0.2,0.4l-0.4,0.3h-0.4l-0.4-0.1l-0.4-0.3
		l-0.3-0.3h-0.5l-0.5,0.1l-0.5-0.1l-0.4,0.2l-0.5,0.2l-0.3,0.2l-0.2,0.5v0.4l0.1,0.5v0.5l-0.2,0.4l-0.2,0.5l-0.2,0.4l-0.2,0.4
		l-0.1,0.5l0.1,0.5l-0.1,0.4l-0.2,0.5l-0.2,0.3l-0.4,0.2l-0.5,0.1l-0.4,0.1l-0.4,0.2l-0.3,0.3l-0.4,0.2l-0.4,0.2l-0.4,0.2L89,340
		l-0.4,0.2h-0.5l-0.3-0.3l-0.2-0.5l-0.2-0.5l-0.2-0.4l-0.2-0.5l-0.2-0.3l-0.4-0.3L86,337l-0.5-0.1l-0.5-0.2l-0.3-0.2l-0.3-0.3
		l-0.4-0.3l-0.3-0.3l-0.1-0.5l-0.2-0.5l-0.1-0.5l-0.1-0.5L83,333l-0.2-0.3l-0.1-0.5l0.1-0.5l0.1-0.4l0.1-0.5l-0.1-0.5v-0.5l-0.2-0.4
		l-0.2-0.4l-0.5,0.1l-0.4,0.2l-0.4,0.2l-0.3,0.3h-0.5h-0.5l-0.4,0.2l-0.3-0.3l-0.2-0.4l-0.4-0.2l-0.2-0.4v-0.5l0.1-0.4l0.1-0.5
		l0.1-0.4l0.2-0.4L79,326l0.4-0.3l0.3-0.3l0.2-0.4l-0.1-0.4l-0.2-0.5l-0.3-0.3l-0.4-0.2l-0.4-0.2l-0.5-0.1l-0.4-0.2l-0.4-0.2
		l-0.5,0.1l-0.5-0.1h-0.4l-0.5-0.1h-0.5l-0.5,0.1h-0.4l-0.5-0.2l-0.4-0.1l-0.5-0.2l-0.4-0.2l-0.4-0.2l-0.3-0.3l-0.2-0.4l-0.2-0.3
		l-0.2-0.5l-0.4-0.2l-0.4-0.3l-0.2-0.4l-0.2-0.3l-0.4-0.3l-0.3-0.3l-0.4-0.3l-0.2-0.4l-0.2-0.3l-0.2-0.4l-0.4-0.3l-0.4-0.2l-0.4-0.2
		l-0.3-0.4l-0.2-0.3l-0.3-0.4l-0.2-0.4l-0.2-0.3l-0.3-0.3l-0.3-0.3l-0.3-0.3l-0.4-0.3l-0.5-0.2l0.2-0.5l0.2-0.5l0.2-0.4l0.3-0.4
		l0.3-0.2l0.3-0.4l0.2-0.4l0.3-0.4l0.3-0.4l0.2-0.4l0.2-0.4l0.1-0.4l0.2-0.5l0.2-0.4l0.1-0.5l-0.1-0.5l-0.1-0.5v-0.4l0.2-0.5
		l0.1-0.4l0.1-0.5l0.2-0.4l0.2-0.4l0.2-0.4l0.2-0.5l0.2-0.4l0.2-0.4l0.4-0.2l0.3-0.3L69,300l0.4-0.2l0.4-0.2l0.3-0.2l0.4-0.2
		l0.4-0.2l0.4-0.2l0.3-0.3l0.3-0.3l0.3-0.3l0.3-0.4l0.2-0.3l0.3-0.4l0.2-0.5l0.3-0.3l0.2-0.3l0.2-0.4l0.4-0.3l0.3-0.2l0.3-0.3
		l0.4-0.3l0.3-0.2l0.4-0.3l0.4-0.2l0.3-0.3l0.4-0.2l0.3-0.3l0.4-0.2l0.3-0.3L79,291l0.3-0.3l0.3-0.3L80,290l0.4-0.2l0.4-0.2l0.4-0.2
		l0.3-0.2l0.3-0.3l0.3-0.3l0.4-0.2l0.4-0.2l0.4-0.2l0.3-0.3l0.3-0.3l0.3-0.3l0.3-0.3l0.4-0.2l0.2-0.4l0.2-0.4l0.2-0.4l0.2-0.4
		l0.2-0.5l0.2-0.4l0.1-0.4l0.2-0.5l0.1-0.4l0.1-0.5l0.1-0.4l0.2-0.5l0.1-0.4v-0.5l0.2-0.4l0.1-0.5l0.2-0.4l0.2-0.4l0.1-0.5l0.1-0.4
		l0.4-0.4l0.4-0.2l0.4-0.2l0.4-0.2l0.3-0.2l0.4-0.2l0.4-0.2l0.4-0.2l0.4-0.3l0.3-0.2l0.5-0.2l0.5-0.2l0.4-0.2l0.5-0.2l0.5-0.1
		l0.5-0.2l0.2-0.3l0.3-0.3l0.4-0.3l0.3-0.2l0.3-0.3l0.4-0.2l0.3-0.3l0.3-0.3l0.2-0.4l0.2-0.4l0.2-0.4l0.2-0.4l0.2-0.5l0.3-0.4
		l0.2-0.4l0.2-0.4l0.2-0.4l0.2-0.4l0.2-0.4l0.2-0.4l0.2-0.4l0.2-0.5l0.2-0.4l0.1-0.4l0.2-0.5l0.2-0.4l0.2-0.4l0.2-0.4l0.2-0.4
		l0.3-0.4l0.2-0.4l0.2-0.3l0.3-0.4l0.3-0.4l0.3-0.3l0.3-0.3l0.3-0.3l0.3-0.4l0.2-0.4l0.2-0.3l0.2-0.4l0.2-0.4l0.3-0.4l0.2-0.4
		l0.2-0.4l0.2-0.4l0.2-0.4l0.2-0.5l0.2-0.4l0.1-0.4l0.2-0.5l0.2-0.4l0.2-0.4l-0.1-0.5l0.1-0.4l0.2-0.4l0.2-0.4l0.2-0.4l0.2-0.4
		l0.3-0.4l0.3-0.3l0.3-0.3l0.3-0.4l0.3-0.2l0.3-0.4l0.3-0.3l0.3-0.3l0.3-0.4l0.2-0.4l0.2-0.4l0.2-0.4l0.3-0.3l0.2-0.4l0.3-0.4
		l0.3-0.3l0.3-0.3l0.3-0.3l0.3-0.3l0.4,0.2l0.5,0.2l0.4,0.1l0.4,0.2l0.4,0.2l0.2,0.4l0.2,0.4l0.1,0.5l0.1,0.5l0.2,0.4l0.2,0.4
		l0.2,0.5v0.5l0.1,0.5l0.1,0.5l0.2,0.4l0.3,0.2l-0.1,0.5l-0.1,0.5l0.1,0.4l0.2,0.5l0.2,0.5l0.2,0.3l0.4,0.3l0.3,0.3l0.2,0.4l0.2,0.4
		l0.1,0.4l0.4,0.3l0.4,0.1l0.4,0.3l0.2,0.3l0.2,0.4l0.2,0.4l0.2,0.4l0.2,0.4l0.2,0.5l0.1,0.4l0.1,0.5l0.1,0.5l0.2,0.4l0.5,0.2
		l0.4,0.2l0.3,0.3l0.2,0.4l0.1,0.5l0.1,0.5l-0.2,0.4l-0.4,0.2l-0.3,0.3l-0.2,0.5l-0.1,0.4l-0.1,0.5v0.5l0.7,0.3l0.4-0.2l0.4-0.2
		l0.3-0.4l0.2-0.4l0.2-0.5l0.3-0.2l0.3-0.3l0.1-0.5l0.2-0.4l0.2-0.4l0.2-0.4l0.3-0.4l0.2-0.3l0.1-0.5v-0.4l0.2-0.5l0.2-0.4v-0.5
		l-0.2-0.5l-0.2-0.4l-0.2-0.4l-0.3-0.3l-0.2-0.3l-0.2-0.5l-0.2-0.5l-0.1-0.4v-0.5l0.1-0.5l-0.2-0.4L127,252l-0.3-0.3l-0.3-0.3
		l-0.2-0.4l-0.1-0.5l-0.2-0.5l-0.3-0.3l-0.2-0.4l-0.2-0.4l-0.2-0.5l-0.1-0.4l-0.1-0.5v-0.5v-0.5l0.1-0.4l0.1-0.5l0.1-0.4l0.2-0.5
		l0.2-0.4l0.1-0.4l-0.1-0.5l-0.1-0.4l-0.3-0.4l-0.4-0.2l-0.3-0.3l-0.4-0.3l-0.2-0.3l-0.1-0.5l0.1-0.5l0.2-0.4l0.1-0.5l0.1-0.4
		l0.3-0.3h0.4l0.5-0.2l0.2-0.3l0.2-0.5l-0.1-0.5l0.1-0.4l0.1-0.5l0.1-0.4l0.2-0.4l0.1-0.5l-0.1-0.5l-0.2-0.5l0.1-0.4v-0.5l0.1-0.5
		l-0.1-0.5l-0.2-0.3l-0.2-0.5l-0.2-0.4l-0.1-0.4l0.1-0.5l0.2-0.4l0.2-0.4l0.3-0.4l0.1-0.4l-0.1-0.4l-0.3-0.4l-0.1-0.5l0.1-0.5
		l0.2-0.4l0.2-0.4l0.3-0.3l0.4-0.3l0.2-0.4l0.2-0.5l0.1-0.4l-0.2-0.5l-0.1-0.5l-0.1-0.5v-0.5l0.1-0.4l0.5-0.2l0.4-0.2v-0.3v-0.5
		l-0.2-0.4l-0.1-0.5v-0.5l0.2-0.4l0.1-0.5l-0.1-0.5l0.1-0.4v-0.5l0.2-0.4l0.2-0.4l0.2-0.5l0.2-0.4l0.2-0.4l0.2-0.4l0.2-0.5l0.2-0.3
		l-0.2-0.5l-0.2-0.4l-0.5-0.2l-0.2-0.3l-0.1-0.5l0.2-0.4l0.3-0.3l0.2-0.4l0.2-0.5l0.1-0.4l0.1-0.5l-0.1-0.5l0.2-0.3l0.5-0.1l0.3-0.4
		l0.5-0.1h0.4l0.5,0.2l0.3,0.3l0.5,0.1l0.5-0.2l0.4-0.2l0.4-0.2l0.3-0.2h0.5l0.3,0.2l0.2,0.5l0.1,0.4l0.4,0.2l0.5,0.2l0.4,0.1h0.5
		h0.4l0.5-0.1l0.4-0.2l0.3-0.3l0.2-0.4l0.2-0.4l0.2-0.4l-0.1-0.5l-0.1-0.5v-0.4l0.2-0.5l0.2-0.4l0.2-0.4v-0.5l-0.1-0.5l-0.1-0.5
		l-0.2-0.4l-0.1-0.5l-0.1-0.5v-0.5v-0.4l0.1-0.5l0.2-0.4l0.3-0.4l0.2-0.5l0.2-0.4v-0.5l-0.1-0.5l-0.2-0.5l0.2-0.4l0.2-0.4v-0.5
		l-0.2-0.5l-0.2-0.3l-0.2-0.4l-0.2-0.4l-0.1-0.5l-0.1-0.5l-0.2-0.5l-0.2-0.4l-0.2-0.4l-0.2-0.4l-0.2-0.4l-0.1-0.5l0.2-0.4l-0.2-0.4
		l-0.2-0.4l-0.2-0.4l0.2-0.4l0.2-0.4v-0.5l-0.2-0.5l-0.2-0.4l-0.2-0.5l0.1-0.4l-0.2-0.5l-0.3-0.3l-0.4-0.2l-0.2-0.3l-0.2-0.5
		l-0.1-0.5l0.1-0.5v-0.5l-0.2-0.4l-0.1-0.5l0.1-0.5l0.1-0.4l0.1-0.5l-0.2-0.5l-0.1-0.5l-0.1-0.5l-0.2-0.4l-0.2-0.4l-0.3-0.4v-0.5
		v-0.4l0.1-0.5l-0.2-0.5l-0.2-0.3l-0.4-0.3h-0.4l-0.5-0.4l-0.2-0.3l0.3-0.3l0.5,0.1l0.4-0.2l0.2-0.4l0.1-0.5l-0.1-0.5l-0.2-0.4
		l-0.2-0.4l-0.2-0.4l-0.3-0.4l-0.4-0.2l-0.3-0.3l0.1-0.5v-0.4l-0.2-0.4l-0.4-0.2l-0.2-0.4l0.1-0.5l0.5-0.1l0.4-0.2l0.2-0.4v-0.4
		l0.1-0.5l0.2-0.4l0.2-0.4l0.4-0.2l0.3-0.2l0.1-0.4l-0.3-0.4l-0.4-0.2l-0.4-0.2l-0.2-0.4l0.2-0.4l0.5-0.2l0.4-0.1l0.2-0.3l-0.4-0.2
		l-0.4-0.2l-0.1-0.4l-0.1-0.5l-0.5-0.4l-0.2-0.5l0.3-0.3v-0.5l0.2-0.4l0.4-0.2l0.4,0.2l0.3,0.3l0.2-0.3l0.2-0.5l0.4-0.2l0.4-0.1
		l0.1-0.4l-0.4-0.2l-0.5-0.2l0.1-0.5l0.4-0.2l0.3-0.2l0.2-0.5l-0.1-0.4l0.1-0.5l0.5-0.2l0.4-0.2l0.5-0.2l0.2-0.3v-0.5l0.1-0.4
		l0.5-0.1v-0.5l-0.2-0.4l-0.3-0.3l0.1-0.4l0.2-0.4v-0.5l-0.2-0.5l0.2-0.4l0.2-0.3l0.4-0.2l0.3-0.3v-0.4v-0.5l0.3-0.6l-0.2-0.4
		l0.2-0.3l0.2-0.4l-0.2-0.4l-0.5-0.1v-0.4l0.1-0.5l-0.2-0.5l-0.3-0.3l0.1-0.5l0.4-0.2l0.4,0.1l0.4,0.1l0.2-0.4l-0.2-0.4l0.1-0.4
		l0.3-0.3l0.4-0.1l0.5,0.1l0.4-0.1l0.2-0.4l0.2-0.5v-0.4l0.3-0.4l0.3-0.2l0.4-0.2l0.4-0.3l0.2-0.4l-0.1-0.4l-0.1-0.5l0.2-0.5
		l0.2-0.4h0.4l0.4,0.2l0.4-0.1l0.2-0.4v-0.5l0.4-0.2l0.5-0.1l0.4-0.1l0.3-0.3l0.2-0.4l0.2-0.5v-0.4l-0.1-0.5l-0.2-0.4l-0.2-0.5
		l-0.2-0.4l-0.2-0.3l-0.2-0.4l-0.2-0.4l-0.2-0.5l-0.2-0.4l-0.2-0.4L146,128l-0.2-0.5l-0.1-0.5l0.2-0.4l0.3-0.3v-0.4l-0.2-0.5
		l-0.2-0.3l-0.2-0.3l-0.2-0.5l-0.1-0.5l0.2-0.4l0.4-0.2l0.2-0.3l0.2-0.5l-0.2-0.4l-0.1-0.4l0.3-0.3l0.4-0.2l0.3-0.3l-0.1-0.5
		l-0.3-0.3l-0.2-0.3l0.3-0.3l0.3-0.2l0.1-0.5l-0.3-0.3l-0.4-0.2l0.2-0.4h0.4l0.5,0.1l0.4-0.2l-0.2-0.4l-0.2-0.4l-0.1-0.5l0.2-0.4
		l0.2-0.4l0.3-0.3l0.3-0.3l0.1-0.3l-0.1-0.5l0.2-0.4l0.1-0.4l0.2-0.4l0.2-0.5v-0.4v-0.5l-0.1-0.5v-0.5l-0.2-0.4l-0.4-0.2l-0.3-0.3
		l-0.2-0.4l0.2-0.4l0.1-0.5l-0.2-0.3l-0.4-0.2l-0.5-0.1v-0.5l-0.1-0.5l-0.2-0.4l-0.1-0.5l-0.1-0.5l-0.2-0.5l-0.5,0.2l-0.3,0.2
		l-0.4,0.2l-0.4-0.2l-0.3-0.3l-0.2-0.4l-0.2-0.4l-0.4-0.2l-0.4-0.2l-0.2-0.4l-0.2-0.4l-0.2-0.3l-0.2-0.4l-0.3-0.3l-0.2-0.4l-0.3-0.4
		l-0.3-0.2l-0.4-0.2l-0.5-0.2l-0.4-0.2l-0.4-0.2l-0.4-0.2l-0.5-0.2l-0.3-0.3l-0.3-0.3l-0.3-0.3l-0.3-0.3l-0.2-0.4l-0.2-0.4l-0.3-0.3
		l-0.2-0.4l-0.3-0.3l-0.3-0.2l-0.3-0.3l-0.5-0.3l-0.4-0.2l-0.4-0.2l-0.2-0.4l-0.3-0.3l-0.3-0.3l-0.2-0.3l-0.3-0.3l-0.2-0.2l-0.3-0.3
		l-0.4-0.2l-0.3-0.3l-0.4-0.3l-0.2-0.3l-0.2-0.4l-0.3-0.3l-0.5-0.2l-0.4-0.2l-0.3-0.2l-0.3-0.3l-0.2-0.4l-0.2-0.4l-0.4-0.3l-0.5-0.1
		l-0.4-0.2l-0.4-0.2l-0.2-0.3l-0.3-0.4l-0.3-0.3l-0.3-0.2l-0.4-0.3l-0.4-0.2l-0.4-0.2l-0.4-0.2l-0.4-0.2l-0.2-0.3l-0.3-0.3l-0.2-0.4
		l-0.3-0.3l-0.2-0.4l-0.4,0.1l-0.2,0.3l-0.3,0.3h-0.5l-0.3-0.3l-0.3-0.3l-0.4-0.2h-0.5l-0.4,0.2l-0.5,0.1l-0.2,0.2l-0.2,0.4
		l-0.4-0.1l-0.4-0.2l-0.5-0.1l-0.3,0.3l-0.4,0.2l-0.4-0.2l-0.2-0.4l-0.2-0.4l-0.5-0.2l-0.4,0.2l-0.2,0.4l-0.2,0.4l-0.1,0.4l-0.2,0.4
		v0.5l-0.1,0.5v0.4l0.2,0.5l0.2,0.3l0.2,0.5l0.2,0.4l0.1,0.5l-0.1,0.5l-0.1,0.4l-0.2,0.4l-0.2,0.4l-0.4-0.1l-0.5-0.1l-0.4,0.2
		l-0.3,0.3v0.5l-0.2,0.3l-0.4,0.2l-0.4,0.2l-0.4,0.2l-0.3,0.4v0.4v0.5l0.3,0.3l0.3,0.3l0.2,0.4v0.5l-0.2,0.4l-0.2,0.4l-0.3,0.3
		l-0.3,0.3l-0.2,0.4l0.1,0.4l0.2,0.4l-0.2,0.4l-0.2,0.4l-0.5,0.1l-0.4,0.1h-0.5l-0.4-0.2l-0.5-0.2l-0.4,0.1l-0.4,0.3l-0.2,0.3
		l-0.1,0.5l-0.1,0.4l-0.2,0.4l-0.2,0.4l-0.4,0.3l-0.3,0.2l-0.5,0.2l-0.4-0.1l-0.5,0.1l-0.4,0.2l-0.3,0.3l-0.5-0.2l-0.4-0.2l-0.3-0.3
		l-0.3-0.3l-0.4-0.3l-0.3-0.2l-0.4-0.2l-0.5,0.1l-0.5-0.1l-0.4-0.2l-0.4-0.1l-0.4,0.2l-0.2,0.5l-0.2,0.4l-0.3,0.2l-0.4,0.2l-0.3,0.3
		l-0.2,0.4l-0.1,0.4l-0.1,0.5l-0.1,0.4v0.5l0.1,0.4l0.2,0.4l0.2,0.4v0.5l-0.3,0.4l-0.3,0.2h-0.5h-0.5l-0.4,0.2l-0.3-0.2l-0.2-0.3
		h-0.5l-0.5,0.1l-0.4-0.2l-0.3-0.2l-0.4-0.2l-0.2-0.4l-0.2-0.4l-0.4-0.2l-0.4-0.2l-0.4-0.2l-0.5-0.1l-0.4,0.2l-0.3,0.2l-0.4,0.2
		l-0.4-0.2l-0.5,0.2l-0.3,0.2l-0.4-0.1h-0.5l-0.4,0.2l-0.2,0.4l-0.2,0.4l-0.4,0.3l-0.4,0.2l-0.4,0.1l-0.5-0.1l-0.4,0.1l-0.1,0.3
		l-0.4,0.2l-0.4,0.2l-0.4,0.2l-0.2,0.4l-0.4,0.2l-0.4-0.1l-0.4-0.3l-0.3-0.2l-0.4-0.2l-0.4-0.3l-0.3-0.3l-0.4-0.3l-0.2-0.3l-0.3-0.3
		h-0.5l-0.4,0.2l-0.5,0.1h-0.5l-0.4-0.2l-0.4-0.2h-0.4h-0.5h-0.5l-0.3,0.2l-0.3,0.4l-0.1,0.4l-0.2,0.4l-0.1,0.5l-0.1,0.4l-0.2,0.4
		l-0.3,0.2l-0.4,0.2l-0.2,0.4l-0.2,0.3l-0.4,0.2l-0.4,0.2l-0.4,0.2l-0.3,0.3l-0.2,0.3l-0.3,0.4l-0.4,0.2l-0.5-0.1l-0.4-0.1h-0.5
		l-0.3,0.3l-0.2,0.4l-0.2,0.3l-0.4,0.2l-0.5-0.1l-0.4-0.2l-0.5,0.1l-0.3,0.2l-0.3,0.3l-0.4,0.1l-0.5-0.1l-0.4,0.1l-0.2,0.4l-0.2,0.3
		l-0.4,0.2l-0.5,0.2h-0.5l-0.4-0.2l-0.3-0.2l-0.4-0.2l-0.5-0.1h-0.4h-0.5l-0.4-0.2l-0.4-0.3l-0.4-0.1l-0.5-0.1h-0.4l-0.5-0.1
		l-0.4-0.1l-0.5-0.2l-0.4-0.1l-0.5,0.1l-0.5,0.1l-0.4,0.2l-0.4,0.2l-0.5-0.2l-0.2-0.3l-0.4-0.3l-0.2-0.3l-0.3-0.4l-0.2-0.3l-0.2-0.4
		l-0.1-0.5v-0.5l-0.2-0.4l-0.2-0.3l-0.4-0.3l-0.4-0.2l-0.4-0.2l-0.3-0.3v-0.5l-0.2-0.3l-0.3-0.3l-0.5-0.2l-0.2-0.4l-0.2-0.4
		l-0.2-0.3l0.2-0.4l0.2-0.4l0.1-0.5l-0.3-0.3l-0.3-0.3v-0.5l0.2-0.4v-0.5l-0.2-0.4l-0.3-0.3l-0.3-0.3l-0.3-0.3L44,99.1v-0.5l0.1-0.4
		l-0.2-0.5l-0.2-0.3l-0.2-0.4l-0.2-0.3L43,96.1l-0.2-0.4l-0.4-0.2l-0.3-0.3l-0.2-0.4l-0.2-0.3L41.4,94l-0.2-0.4L41,93.1l-0.2-0.4
		l-0.2-0.4L40.3,92L40,91.6l-0.1-0.5l0.1-0.4l0.1-0.5v-0.4v-0.5l-0.2-0.4l-0.2-0.4l-0.2-0.4l-0.2-0.4L39,87.3L38.6,87l-0.2-0.4
		l-0.2-0.4l-0.2-0.4l-0.2-0.5l-0.3-0.3l-0.2-0.3l-0.2-0.5v-0.4l0.2-0.4l0.2-0.4l0.1-0.5L37.5,82l-0.2-0.4l-0.1-0.4l-0.1-0.5
		l-0.2-0.4l-0.3-0.3l-0.4-0.2h-0.5l-0.3-0.2l-0.2-0.4L34.8,79l-0.2-0.4l-0.2-0.4l-0.1-0.4l-0.1-0.5v-0.5L34,76.3l-0.4-0.2l-0.3-0.2
		v-0.4l0.1-0.5l0.1-0.4v-0.5l-0.2-0.4l-0.2-0.5v-0.4l0.2-0.4l0.4-0.2l0.4-0.1l0.5,0.1l0.4-0.2l0.4-0.3l0.2-0.3L36,71l0.2-0.4
		l0.2-0.4l0.1-0.5l0.1-0.4l0.2-0.4v-0.5v-0.5v-0.4v-0.5l0.2-0.4l-0.2-0.3l-0.2-0.3l-0.2-0.3l-0.5,0.1l-0.4,0.1l-0.4,0.2l-0.3,0.3
		l-0.4,0.1L33.9,66l-0.2-0.3l-0.4-0.2l-0.4-0.2l-0.5,0.1l-0.4,0.2l-0.4,0.2L31,65.9L30.5,66l-0.4-0.2l-0.4-0.2l-0.4-0.1h-0.5h-0.4
		l-0.5-0.1l-0.4-0.1L27,65.1l-0.1-0.4v-0.5l-0.2-0.5l-0.2-0.4l-0.1-0.5l-0.2-0.3L26,62.1l-0.2-0.5l-0.2-0.4l-0.2-0.4L25,60.9
		l-0.3,0.3l-0.2,0.4l-0.3-0.2l-0.2-0.4l-0.3-0.3l-0.4-0.1l-0.5-0.1l-0.3-0.3l-0.2-0.4l-0.2-0.4l-0.3-0.3l-0.3-0.2L21,58.4l-0.2-0.5
		l-0.2-0.3l-0.4-0.3l-0.5,0.1l-0.4,0.1l-0.5,0.2l-0.4,0.2l-0.4,0.1l-0.5-0.1L17,57.7l-0.3-0.3l-0.2-0.4l-0.2-0.4l-0.2-0.3L15.5,56
		l-0.4,0.2l-0.2,0.3V57l0.2,0.4l-0.1,0.5l-0.3,0.3l-0.1,0.4l0.1,0.5l-0.3,0.3l-0.4,0.3l0.1,0.4l0.1,0.5l-0.2,0.3l-0.4,0.2L13,61.5
		L12.9,62v0.5l-0.2,0.4l-0.1,0.4l-0.2,0.4l-0.2,0.4l-0.3,0.3l-0.2,0.4l-0.2,0.4l-0.2,0.4l-0.1,0.5v0.4l-0.1,0.5l-0.2,0.4l-0.2,0.4
		l-0.3,0.2L10,68.4l-0.5,0.2H9.1H8.6l-0.4,0.1l-0.5,0.1l-0.4-0.2l-0.4-0.2l-0.4-0.2l-0.5-0.2l-0.4-0.2l-0.4-0.1l-0.5-0.1l-0.4-0.1
		l-0.6-0.2V67l-0.2-0.4l-0.1-0.5l-0.2-0.4l-0.2-0.3L2.5,65l-0.4-0.3l-0.3-0.3L1.4,64l-0.2-0.4v-0.4l0.3-0.3l-0.1-0.4l-0.3-0.3
		l-0.4-0.2l-0.5-0.1l-0.4,0.1L-0.6,62L-1,61.8l-0.4-0.2l-0.4-0.2l-0.4-0.1l-0.5,0.2l-0.4,0.2l-0.4-0.2l-0.3-0.3l-0.2-0.3l-0.4-0.3
		h-0.5l-0.4,0.2l-0.4-0.1l-0.3-0.3l-0.4-0.2l-0.4-0.3l-0.3-0.2l-0.2-0.4L-8,58.7l-0.5,0.1l-0.4-0.2l-0.3-0.3l-0.2-0.3l-0.4-0.3
		l-0.2-0.4l-0.2-0.3l-0.4-0.3l-0.4-0.1l-0.4-0.1l-0.5,0.1l-0.4,0.1l-0.4,0.2l-0.5,0.1l-0.4-0.2l-0.2-0.3l-0.1-0.5l0.2-0.4l0.2-0.4
		l0.3-0.3l0.3-0.4l0.4-0.2l0.3-0.2l0.3-0.3l0.2-0.4l0.2-0.4l0.2-0.4l0.2-0.4l0.2-0.3l0.4-0.2h0.5l0.4-0.2l0.3-0.3l0.3-0.3l0.3-0.3
		l0.2-0.4l0.2-0.4l0.2-0.4l0.2-0.4l0.2-0.4l0.2-0.4l0.2-0.4l0.2-0.4l0.2-0.4l0.1-0.2l0.3-0.3l0.4-0.2l0.2-0.4l0.2-0.4l0.2-0.4
		l0.4-0.3l0.3-0.2l0.3-0.2l0.3-0.4l0.2-0.4l0.2-0.4l0.2-0.4l0.2-0.4l-0.2-0.4l-0.2-0.4v-0.5l0.1-0.4l0.3-0.3l0.3-0.3l0.3-0.3
		l0.2-0.4l0.2-0.4l0.2-0.4v-0.5v-0.4l0.1-0.5l0.1-0.4l0.2-0.4l0.2-0.4l0.2-0.4l0.2-0.4l0.3-0.3l0.4-0.2l0.4-0.2l0.3-0.3l0.2-0.4
		l0.1-0.5l0.1-0.4v-0.5l0.2-0.4l0.1-0.4l-0.2-0.4l-0.3-0.3l-0.5-0.1l-0.3-0.3v-0.4V28l-0.2-0.4l-0.2-0.3l-0.2-0.4l-0.2-0.4l-0.2-0.3
		l-0.5-0.2l-0.4,0.2L-3,26.2L-3.3,26l-0.2-0.4L-4,25.3l-0.4-0.2l-0.3-0.2v-0.5l0.2-0.4l0.1-0.4l0.1-0.5l-0.1-0.5l-0.2-0.4l-0.2-0.3
		l-0.3-0.3l-0.4-0.3l-0.4-0.1l-0.5,0.1L-7,21l-0.2-0.4l-0.3-0.3L-8,20l-0.3-0.3l-0.4-0.2l-0.4-0.2l-0.4-0.2l-0.4-0.2l-0.3-0.3
		l-0.7-0.7l0.4-0.2l0.4-0.2l0.2-0.1l0.9-0.2l0.3-0.2l0.3-0.1l0.2-0.1l0.5-0.4l0.4-0.3l0.2-0.2l0.5-0.2l0.3-0.4l0.6-0.7l0.8-0.1
		l0.6-0.1l0.2-0.1l0.2-0.1l0.4-0.2l0.5-0.3l0.3-0.1l0.4-0.2l0.2-0.2l0.2-0.2l0.3-0.2l0.2-0.2l0.2-0.2l0.2-0.2l0.7-0.2l1.2-0.2
		l0.5-0.2l0.4-0.2l0.2-0.2L2.9,11L3.3,11l0.7,0.2h0.3l0.2,0.2h0.2l0.2,0.1l0.3,0.1h0.3h0.2h0.4l0.4-0.2L7.2,11l0.1-0.2l0.2-0.3
		l0.1-0.2l0.2-0.3l0.1-0.3l0.1-0.3L8,8.6l0.4-0.1l0.4-0.2h0.4l0.2,0.1h0.3l0.7-0.1l0.3-0.1L11,8.1l0.4-0.3l0.5-0.7l0.2-0.3l0.2-0.4
		l0.2-0.2L13,6h0.6l0.5,0.4l0.4,0.4l0.2,0.2L15,7.4l0.3,0.2l0.2,0.2l0.5,0.3l0.7-0.1l0.3-0.1L17.5,8l0.4-0.2l0.3-0.2l1.1-0.2
		l0.4-0.2L20,7.1L20.5,7L21,6.8l0.7-0.2l0.5-0.1l0.4-0.1l0.7-0.1l0.5-0.1l0.4-0.1l0.3-0.1l0.3-0.1l0.7-0.2H26h0.5L27,5.8l0.3-0.1
		h0.3l0.4-0.1h0.3l0.4-0.2l0.3-0.1l0.7-0.2l0.4-0.3l0.6-0.7L31.3,4l0.4-0.3l0.5-0.2l0.2-0.1l0.5-0.2l0.6-0.2l0.2-0.1l0.3-0.2
		l0.2-0.1l1.2-0.2L36,2.3l0.7-0.2L37,2l0.3-0.2l0.6-0.5V1.1l0.3-0.7l0.2-0.2l0.2-0.2l0.2-0.2l0.2-0.2l0.3-0.4l0.2-0.2l0.4-0.2
		l0.6-0.2L41-1.6h0.3h0.2h0.3l0.3-0.1h0.7L43-1.4l0.5,0.4H44L44.6-1h0.3l0.5-0.1l0.5,0.2l0.2,0.1l0.2,0.5L46.7,0l0.4,0.2h0.2
		l0.2-0.5l-0.3-0.5L47-1l-0.2-0.7l0.3-0.5l0.2-0.2l0.4-0.2H48l0.2,0.2l0.2,0.2l0.4,1.1v0.3l-0.1,0.3V0l0.5-0.1l0.2-0.3l0.2-0.2V-1
		v-0.3l0.1-0.3V-2L50-2.4l0.1-0.2l0.5-0.2H51l0.7,0.3l0.5,0.5l0.2,0.5l0.2,0.2l0.3,0.3l0.4,0.2l0.4,0.2L54-0.4l0.2-0.2l0.2-0.2
		l0.7-0.2l0.3,0.1l0.2,0.1h0.6h0.2h0.3l0.4-0.1h0.4l0.7-0.1l0.5,0.2h0.3L60-0.4l0.4,0.2l0.5,0.4L61,0.4l0.4,0.3L61.7,1L62,1.1
		l0.2,0.1l0.6,0.3L63,1.7l0.7,0.4l0.2,0.2l0.3,0.2l0.4-0.2l0.4-0.3l0.3,0.2l0.2,0.2l0.1,0.2l0.1,0.2l0.4,0.7l0.4,0.4l0.4,0.3
		l0.3,0.1L68,4.3l0.5-0.5l0.2-0.4l0.4-0.4l0.2-0.2l0.2-0.1l0.9-0.4l0.3,0.2l0.5,0.2l0.4,0.2l0.2,0.2l0.6,0.4l0.3,0.2l0.3,0.2
		l0.5,0.4l0.2,0.3L74,5.1l0.2,0.2l0.2,0.2l0.2,0.2l0.2,0.2l0.2,0.2l0.4,0.4L75.5,7l0.4,0.3l0.2,0.2l0.2,0.2l0.2,0.2l1,0.5l0.2,0.2
		l0.3,0.1l0.3,0.1l0.3,0.2l0.6,0.2l0.5,0.2l0.6,0.1L81,9.2l0.4-0.1L81.9,9l0.4-0.2L83,8.4l0.8-0.2l0.3,0.1h0.3H85l0.6,0.2l0.3,0.1
		l0.3,0.2L86.7,9l0.2,0.2l0.2,0.6v0.6l0.5,0.3h0.2h0.5l1.7-0.2l0.5,0.1l0.5,0.4l0.2,0.2l0.2,0.4l0.2,0.4l0.2,0.2l0.5,0.2H93l0.4-0.4
		v-0.3L93.3,11l-0.2-0.2l-0.3-0.4l-0.2-0.2l-0.2-0.4l-0.2-0.2l-0.1-0.4l0.2-0.3l0.3-0.6L93,7.9l0.3-0.3l0.2-0.2L94,7.1l0.5-0.2
		l0.2-0.1l0.5-0.2l0.2-0.2l0.7-0.2L96.5,6L97,5.8l0.3-0.1l0.9-0.2l0.2-0.1h0.3h0.3h0.2h0.3l0.5,0.2h0.4l0.5,0.1h0.3l0.2,0.2l0.2,0.1
		l0.7,0.2l0.2,0.1l0.2,0.1l0.5,0.2l0.3,0.2l0.3,0.1l0.3,0.2l0.3,0.1l0.2,0.1l0.7,0.1l0.3,0.1l0.3,0.1l0.6,0.2l0.3,0.2l0.3,0.1
		l0.5,0.2l0.4,0.2l0.3,0.2l0.2,0.2h0.3l0.3,0.1l0.6,0.2l0.2,0.2l0.2,0.4l0.2,0.4l0.2,0.4l0.2,0.2l0.4,0.1l0.2-0.2l0.2-0.2l0.2-0.2
		l0.2-0.4l0.2-0.4l0.2-0.3l0.7-0.2l0.6,0.1l0.4,0.3l0.2,0.2l0.1,0.2l0.1,0.3l0.3,0.5l0.3,0.2l0.2,0.2l0.3,0.2l0.6,0.4l0.2,0.1
		l0.3,0.1l0.2,0.2l0.2,0.2l0.2,0.3l0.2,0.2l0.2,0.2l0.2,0.2l0.1,0.2l0.2,0.6l-0.1,0.3l-0.1,0.2l-0.2,0.4l-0.2,0.2l-0.2,0.2l-0.5,0.4
		l-0.2,0.2l-0.2,0.2l-0.2,0.3V17l0.1,0.6v0.3l0.1,0.3l0.4,0.3l0.2,0.2l0.8,0.1l0.4-0.7l0.4-0.3l0.4-0.2l0.7-0.8l0.2-0.2l0.2-0.2
		l0.3-0.1l1.1-0.3h0.3l0.2,0.3l0.2,0.8l0.1,0.2l0.2,0.7l0.2,0.2l0.7,0.5l1.2,0.8l0.2,0.2l0.5,0.4l0.2,0.1l0.2,0.2l0.2,0.5l0.2,0.2
		l0.2,0.2l0.2,0.2l0.2,0.2l0.2,0.2h0.4l0.3-0.2l0.2-0.2l0.1-0.4l0.2-0.2l0.2-0.2l0.3-0.2l0.6-0.2l0.4-0.1l0.5-0.1l0.3,0.1l0.3,0.2
		l0.3,0.3l0.2,0.4v0.2l-0.1,0.5l-0.2,0.2l-0.4,0.2l-0.3,0.3l-0.2,0.4l0.1,0.5l0.1,0.5l0.2,0.4l0.2,0.2l0.2,0.3l0.1,0.2l0.2,0.5
		l-0.2,0.5l-0.2,0.2h-0.5l-0.2,0.1h-0.2l-0.6,0.1L130,27l-0.2,0.3h-0.3l-0.1,0.5l0.1,0.6l0.1,0.2l0.2,0.5l0.3,0.4l0.2,0.3l0.3,0.2
		l0.5,0.4l0.3,0.1h0.5l0.3-0.3l0.1-0.3l0.3-0.5l0.2-0.1h0.3l0.3,0.1l0.4,0.2l0.4,0.2l0.4,0.2l0.2,0.2l0.3,0.1l0.3,0.2l0.3,0.2
		l0.2,0.2l0.2,0.2l0.5,0.3l0.2,0.2l0.2,0.2l0.2,0.2l0.3,0.5l-0.1,0.2l-0.1,0.3v0.3l-0.1,0.3l-0.1,0.3l0.2,0.5l0.2,0.7l0.5,0.2
		l0.2-0.1l0.3-0.2l0.3-0.6l0.5-0.1l0.4,0.3l0.2,0.2l0.2,0.3l0.2,0.2l0.2,0.2l0.2,0.2l0.5,0.4l0.2,0.2l0.2,0.2l0.2,0.2l0.2,0.2
		l0.2,0.2l0.3,0.4l0.3,0.4l0.2,1l0.2,0.9v0.3l-0.1,0.3l-0.1,0.8l0.2,0.4l0.4,0.2h0.3h0.2h0.5l0.6-0.1l0.6,0.1l0.3,0.2l0.1,0.5
		l-0.3,0.2l-0.7,0.2l-0.2,0.2l-0.2,0.3l-0.2,0.2l-0.2,0.3l-0.2,0.2l-0.2,0.2l-0.2,0.4l-0.2,0.4l-0.1,0.9l0.1,0.5l0.2,0.4l0.5,0.2
		l0.2,0.1l0.4,0.2h0.5h0.3h0.2l0.3,0.1h0.6h0.2l0.7,0.2l0.4-0.1h0.2h0.5l0.3,0.1l0.3,0.1l0.4,0.2h0.3l0.4,0.2l0.2,0.1l0.6,0.2
		l0.2,0.2l0.1,0.8l0.1,0.2l-0.1,0.2l-0.1,0.6l0.1,0.3l-0.1,0.5l-0.2,0.2l-0.3,0.6v0.3l0.1,0.7v0.2l-0.2,0.3l-0.3,0.1l-0.9,0.2
		l-0.2,0.3l-0.1,0.5v0.3l0.1,0.2l1.1,0.3l0.3,0.9l0.1,0.6l0.2,1l0.1,0.2l0.5,0.6l0.3,0.2l0.2,0.2l0.5,0.3l0.2,0.2l0.2,0.2l0.6,0.4
		l0.5,0.4l0.2,0.2l0.2,0.2l0.2,0.2l0.1,0.2l0.2,0.3l0.2,0.2l0.2,0.3l0.2,0.2l0.3,0.4l0.5,0.4l0.3,0.4l-0.1,0.3l0.2,0.4l0.2,0.2
		l0.4,0.2l0.2,0.2l0.3,0.2l0.7,0.2l0.1,0.2l0.3,0.5l0.3,0.2l0.9-0.1l0.4-0.1l0.2,0.2l0.2,0.2l0.2,0.5l0.2,0.5l-0.2,0.4l0.2,0.8
		l0.2,0.2l0.1,0.4l0.2,0.4l0.2,0.2l0.2,0.3l0.2,0.9l-0.1,0.3l-0.2,0.2l-0.2,0.2l-0.3,0.2l-0.4,0.3l-0.1,0.3l0.2,0.2l0.5,0.4l0.3,0.1
		l0.6,0.2l0.3,0.1l0.6,0.2l0.3,0.2l0.3,0.2l0.3,0.1l0.3,0.1l0.3,0.1l0.3,0.1l0.2,0.1l0.5,0.2l0.1,0.2l0.2,0.7v0.3l-0.2,0.6l-0.1,0.4
		l-0.2,0.3l0.1,0.2l-0.1,0.3l-0.2,0.5l-0.2,0.6l-0.1,0.3l0.1,0.7l0.3,0.2l0.3,0.2l0.3,0.1l0.5,0.2l0.3,0.1h0.2h0.3l0.5-0.1l0.2-0.1
		l0.2-0.2l0.2-0.1l0.3,0.1l0.3,0.1l0.4,0.5l0.2,0.2l0.1,0.2l0.2,0.2l-0.1,0.4v0.5v0.2l-0.2,0.3l-0.4,0.6l-0.3,0.2l-0.3,0.1l-0.4,0.2
		l-0.2,0.1l-0.6,0.3l-0.3,0.3V88v0.3l-0.1,0.2l0.2,0.6l0.2,0.2l0.1,0.2l0.2,0.2l0.2,0.4l0.3,0.4l0.2,0.2l0.2,0.2l0.5,0.2l0.3,0.2
		l0.3,0.1l0.5-0.1l0.3-0.1l0.2-0.5v-0.2v-0.4l-0.1-0.4l-0.3-0.2l-0.3-0.2l-0.1-0.2l-0.3-0.2l-0.2-0.2v-0.6l0.5-0.5l0.2-0.2l0.4-0.3
		l0.2-0.2l0.2-0.2l0.3-0.2l0.5,0.1l0.3,0.2l0.2,0.2l0.2,0.4V88v0.5v0.3l-0.1,0.2v0.5l-0.2,0.6l-0.1,0.3l-0.1,0.2l-0.2,0.3l-0.2,0.3
		l-0.2,0.4v0.2l-0.1,0.4v0.3l-0.1,0.5v0.2l0.1,0.6v0.4l0.2,0.8l0.1,0.3l0.2,0.3l0.1,0.4l0.2,0.5l0.2,0.2l0.1,0.2l0.2,0.3l0.5,1.7
		l0.2,0.3l0.2,0.2l0.2,0.2l0.2,0.3l0.3,0.2l0.3,0.2l0.3,0.2l0.2,0.2l0.6,0.5l0.6,0.5l0.2,0.2l0.2,0.2l0.5,0.5l0.3,0.3l0.3,0.2
		l0.3,0.1l0.4,0.1l0.3,0.2l0.2,0.1l0.4,0.2l0.2,0.1l0.4,0.2l0.7,0.4l0.2,0.2l0.2,0.2l0.2,0.2l0.3,0.3l0.2,0.2l0.2,0.2l0.2,0.2
		l0.2,0.5l0.2,0.2l0.4,0.4l0.2,0.3l0.2,0.2l0.3,0.4l0.2,0.2l0.2,0.2l0.2,0.2l0.4,0.6l0.2,0.2l0.2,0.2l0.2,0.2l0.4,0.3l0.9,0.7h0.2
		l0.3,0.2l0.2,0.2l0.4,0.2l0.2,0.2l0.2,0.2l0.1,0.4v0.3v0.3v0.3l-0.1,0.6l0.1,0.5l0.2,0.6l0.2,0.4l0.2,0.4l0.2,0.2l0.2,0.2l0.3,0.3
		l0.3,0.2l0.5,0.4l0.2,0.2l0.2,0.2l0.2,0.3l0.1,0.3l0.2,0.2l0.2,0.2l0.2,0.4l0.2,0.2l0.3,0.7v0.3l-0.1,0.6l-0.1,0.2l-0.1,0.3
		l-0.4,0.8l-0.2,0.2l-0.2,0.2l-0.2,0.3v0.2v0.3l-0.1,0.3l-0.2,0.3l-0.1,0.2l0.1,1l0.6,0.5h0.3h0.3h0.3l0.2-0.1l0.3,0.1l0.6,0.2
		l0.2,0.2l0.3,1.2l-0.1,0.3v0.3v0.2l-0.1,0.5l-0.1,0.3v0.2l-0.1,0.3v0.5l0.1,0.7l0.4,0.7l0.2,0.5l0.1,0.2l0.4,0.4l0.2,0.2l0.2,0.2
		l0.4,0.3l0.2,0.1h0.5l0.2,0.1l0.3,0.1h0.7h0.2h0.3h0.4h0.4l0.8,0.2h0.2l0.3,0.1h0.3h0.3h0.3h0.3l0.5,0.1l0.5,0.1l0.5,0.2l0.3,0.4
		l0.2,0.7v0.2v0.5v0.5l0.1,0.3v0.3l-0.1,0.5v0.5l-0.1,0.2l-0.1,0.3l-0.1,0.3l-0.1,0.2l-0.2,0.5l-0.1,0.3l-0.3,0.6l-0.2,0.6l-0.3,0.6
		l-0.2,0.2l-0.2,0.4v0.3v0.2v0.3v0.4v0.6v0.3l0.1,0.7v1l-0.3,0.4l0.1,0.2l0.2,0.2l0.6,0.6l0.2,0.2l0.2,0.2l0.2,0.2l0.2,0.2l0.2,0.3
		l0.2,0.3l0.2,0.3l0.3,1.2v0.4l0.1,0.6v0.3l-0.1,0.2v0.3l0.1,0.5l0.2,0.9l0.2,0.6l0.2,0.2l0.2,0.2l0.2,0.3l0.3,0.2l0.5,0.4l0.3,0.1
		l0.3,0.1l0.5-0.1l0.9-0.2h0.2h0.3l0.6,0.2l0.5,0.2l0.2,0.2l0.6,1.9l-0.1,0.4l0.2,0.6l0.2,0.2l0.1,0.3l0.2,0.2l0.3,0.4l0.2,0.3
		l0.2,0.2l0.2,0.2l0.3,0.2l0.6,0.2l0.2,0.1l0.3,0.1l0.6,0.2l0.7,0.4l0.2,0.2l0.8,0.6l0.2,0.2l0.4,0.4h0.3h0.2l0.3-0.1l0.2-0.2
		l0.4-0.2l0.3-0.1l0.2,0.1l0.3,0.1l0.7,0.2l0.6-0.7v-0.6v-0.2l0.1-0.3l0.2-0.2l0.4-0.2h0.3l0.2,0.2l0.7,0.2h0.2l1.1,0.6l0.3,0.2
		l0.2,0.2l0.2,0.7l0.2,0.3l0.7,0.4h0.3h0.4l0.6-0.1l0.4-0.1l0.2-0.2l1.2-0.4h0.5l0.2-0.1h0.2l0.5-0.1l0.2-0.2l0.5-0.3l0.2-0.2
		l0.4-0.5l0.3-0.2l0.2-0.1l0.8-0.2l0.5,0.2l0.2,0.2l0.3,0.4l0.6-0.1l0.4-0.3l0.3-0.2v-0.4l-0.2-1l0.1-0.2l0.2-0.3l0.3-0.2l0.2-0.1
		l0.3-0.1l0.5-0.2h0.2l0.5-0.1h0.2l0.4-0.2l0.2-0.2l0.4-0.2l0.2-0.1l0.4-0.2l0.3-0.2l0.2-0.1l0.2-0.2l0.2-0.1l0.6-0.2l0.3,0.1
		l0.2,0.1h0.4l0.3,0.2l0.3,0.1l0.3,0.1l0.5,0.2l0.7,0.4h0.2h0.3h0.3l0.6-0.1l0.4-0.2l0.3-0.2l0.2-0.2v-0.6l0.2-0.3l0.2-0.3l0.4-0.1
		l0.3,0.1l0.5,0.2l0.6,0.3l0.2,0.7l-0.1,0.5l-0.2,0.3l-0.1,0.2l-0.1,0.3l-0.2,0.2l-0.1,0.3l-0.2,0.6l-0.2,0.5l-0.1,0.2l-0.1,0.2
		l0.1,0.5l0.5,0.4h0.2h0.4l0.7-0.2l0.2-0.1l0.4-0.2l0.5-0.2l0.5-0.2l0.2-0.2l0.7-0.2h0.2h0.3h0.2h0.3l0.5,0.2l0.5,0.2l0.2,0.1
		l0.4,0.1h0.5l0.5-0.1h0.3l0.5,0.1l0.9,0.5l0.2,0.2l0.2,0.2l0.1,0.2l0.2,0.2l0.2,0.2l0.2,0.2l0.2,0.3l0.2,0.2l0.2,0.5l0.2,0.2
		l0.2,0.2l0.2,0.2l0.2,0.1l0.4,0.1h0.3h0.4l0.6-0.2h0.3l0.3-0.2l0.3-0.3l0.2-0.3l0.2-0.3l0.1-0.2l0.1-0.3l0.2-0.7l0.2-0.2l0.4-0.1
		l0.2-0.1h0.4h0.2l0.2,0.2l0.7,0.2l0.3,0.2l0.4,0.3l0.2,0.2l0.3-0.1h0.3l0.3,0.3l0.3,0.1h0.5h0.3l0.2-0.2l0.2-0.2l0.3-0.3l-0.2-0.6
		l-0.2-0.6l-0.4-1.3l0.1-0.5l0.1-0.3l0.2-0.4l0.2-0.2l0.3-0.2l0.9-0.2l0.8,0.1l0.6,0.1l0.3,0.1l0.3,0.2l0.3,0.1l0.5,0.3l0.2,0.2
		l0.2,0.2l0.3,0.4l0.1,0.2l0.2,0.2l0.2,0.5l0.2,0.3l0.2,0.4l0.2,0.2l0.2,0.3l0.1,0.3l0.2,0.7l0.3,1.1l1,0.7l0.2,0.1l0.5-0.1l0.2-0.2
		l0.2-0.2l0.2-0.4l0.1-0.3l0.1-0.3l0.3-0.2l0.4-0.1l0.3-0.2h0.3l0.6,0.1l0.2,0.1l0.8,0.5l0.3,0.2l0.4,0.3l0.4,0.3l0.2,0.2l0.2,0.3
		l0.2,0.7v0.2l0.2,0.8l0.2,0.2l0.2,0.3l0.4,0.4l0.3,0.1l0.6-0.1h0.4l0.6-0.2h0.5l0.4,0.7v0.3v0.4v0.2l0.1,0.5l0.2,0.2l0.3,0.4
		l0.2,0.2l0.2,0.2l0.8-0.1h0.3l0.5,0.1l0.3,0.2l0.2,1l0.1,0.3l0.1,0.7l0.1,0.5l0.4,0.3l0.4,0.1h0.2l0.6,0.1l0.5,0.1h0.3l0.2,0.1h0.6
		l0.5,0.2l0.4,0.3l0.4,0.3l0.2,0.3l0.2,0.2l0.2,0.2l0.5,0.3l0.3,0.2l0.2,0.1l0.4,0.1l0.3,0.1l0.3,0.1l0.3,0.1l0.4,0.2l0.4,0.2
		l0.4,0.2l0.6,0.4l1,0.6l0.3,0.1l0.6,0.2l0.2,0.3l0.2,0.5l0.7,0.5l0.3,0.1h0.3l0.4-0.1l0.3-0.1l0.2-0.2l0.3-0.2l0.2-0.2l0.4-0.3
		l0.2-0.2l0.3-0.2l0.2-0.2l0.2-0.2l0.2-0.2l0.2-0.2l0.3-0.2l0.2-0.2l0.4-0.2l0.4-0.2l0.4-0.2l0.3-0.2l0.5-0.2l0.2,0.1l0.5,0.2
		l0.2,0.2l0.3,0.4l0.3,0.2l0.7,0.5l0.3,0.1l0.4-0.1l0.3-0.1l0.2-0.1l0.2-0.1l0.3-0.2l0.2-0.3l0.3-0.3l0.2-0.3l0.2-0.3l0.2-0.2
		l0.5-0.4l0.2-0.2l0.5-0.2h0.3l0.7,0.2l0.5,0.2l0.2,0.3v0.3v0.3l-0.1,0.3l-0.1,0.6l-0.1,0.4l-0.1,0.3l-0.1,0.3l-0.3,0.6l-0.1,0.2
		v0.3l-0.1,0.2l-0.2,0.5l-0.1,0.2l-0.1,0.5l-0.1,0.3l-0.1,0.2l-0.1,0.3v0.3l0.1,0.5v0.3l0.1,0.7v0.3l-0.1,0.3v0.2l-0.1,0.3l0.1,0.3
		v0.2l-0.1,0.2l-0.1,0.4l-0.2,0.6l-0.2,0.2l-0.1,0.4l0.1,0.7l-0.2,0.3v1.2l0.2,0.2l0.2,0.2h0.3h0.3h0.2l0.3-0.1l0.2-0.2l0.2-0.2
		l0.5,0.1l0.2,0.3l0.4,0.5l0.3,1.1l0.1,0.4l0.2,0.2l0.2,0.5l0.3,0.9l0.2,0.4l0.2,0.2l0.3,0.3l0.3,0.1l0.4-0.1l0.5-0.2l0.2-0.2
		l0.4-0.2l0.2-0.2l0.2-0.2l0.2-0.3l0.4-0.4l0.6-0.2l0.7,0.4l0.2,0.2l0.2,0.3l0.3,0.9v0.3l-0.1,0.2l-0.1,0.3v0.3v0.4l-0.1,0.6
		l0.1,0.5l0.2,0.7l0.1,0.2l0.2,0.2l0.2,0.4l0.2,0.3l0.2,0.2l0.5,0.7l0.3,0.2l0.2,0.2l0.7,0.1l0.3,0.2l0.3,0.2l0.2,0.3l0.2,0.2
		l0.3,0.5l0.2,0.3l0.2,0.3l0.2,0.2l0.2,0.5l-0.1,0.3l-0.1,0.4l-0.1,0.3l-0.1,0.2l-0.2,0.5l-0.4,0.5l-0.2,0.4l-0.1,0.3l-0.1,0.4v0.3
		l0.2,1l0.2,0.6l-0.1,0.4l-0.2,0.3l-0.2,0.3l-0.3,0.6l-0.4,0.6l-0.2,0.2l-0.2,0.5l-0.2,0.3l-0.2,0.2l-0.2,0.2v0.3v0.3v0.4l0.1,0.6
		l0.2,0.4l0.2,0.4l0.1,0.4l0.1,0.2l0.2,0.5l0.2,0.2l0.4,0.2l0.2,0.1l0.5,0.2h0.3l0.3,0.1l0.3,0.2l0.3,0.2l0.2,0.2l0.1,0.2l0.9,0.6
		l0.3,0.2l0.2,0.2l0.7,0.5l0.5,0.2l0.3,0.2l0.6,0.3l0.5,0.2l0.3,0.2l0.3,0.2l0.2,0.2l0.4,0.2l0.8,0.6l0.2,0.2l0.2,0.2l0.2,0.2
		l0.2,0.5l0.2,0.2l0.2,0.2l0.2,0.3l0.4,0.4l0.2,0.3l0.2,0.2l0.2,0.2l0.2,0.3l0.2,0.2l0.2,0.2l0.2,0.3l0.2,0.3l0.2,0.4l0.2,0.4
		l0.1,0.3l0.3,1l0.2,0.3l0.2,0.3l0.2,0.2l0.2,0.2l0.2,0.3l0.3,0.3l0.2,0.3l0.2,0.2l0.3,0.2l0.4,0.1h0.3l0.5,0.2h0.6l1-0.2l0.4-0.2
		l1.1-0.2l0.4-0.2l0.4-0.2l0.7-0.3l0.2-0.2l0.2-0.2l0.2-0.3l0.2-0.2l0.3-0.4l0.2-0.2l0.2-0.2l0.2-0.2l0.5-0.5l0.5-0.3l0.4-0.2
		l0.2-0.1l0.6-0.1l0.3-0.1l0.5,0.1l0.8-0.1l1-0.2l0.3-0.2l0.4-0.4l0.2-0.2l0.3-0.2l0.4-0.2l0.3-0.2l0.3-0.2h0.4l0.2,0.1h0.4l0.9-0.2
		l0.4-0.2h0.3l0.8,0.4l0.2,0.2l0.2,0.4l0.2,0.3l0.2,0.2l0.2,0.2l0.2,0.4l0.2,0.3l0.2,0.2l0.7,0.8l0.6-0.3l0.6-0.2l0.3-0.2l0.2-0.2
		l0.2-0.3l0.3-0.7l0.1-0.3v-0.3l0.2-0.3l0.2-0.4l0.4-0.4l0.6-0.1l0.4,0.1l0.3,0.1l0.4,0.1l0.3,0.1l0.4,0.1l0.2,0.1l0.4,0.1l0.2,0.1
		l0.3,0.1l0.2,0.2l0.6,0.1l0.6-0.3l0.5-0.3l0.2-0.1l0.3-0.2l0.7-0.2h0.4h0.2l0.3,0.1l0.2-0.1l0.5,0.1l0.3-0.1h0.2l0.4-0.1l0.2-0.1
		l0.2-0.3l0.2-0.6V226l0.4-1.5l0.4-0.1h0.3l0.8-0.1h0.3h0.3l1-0.3l0.3-0.2l0.9-0.2l0.3-0.1l0.2-0.1l0.4-0.2l0.2-0.2l0.5-0.3l0.9-0.2
		l0.5-0.1h0.3l0.7-0.2l0.3-0.2l0.5-0.3l0.2-0.5v-0.5l0.2-0.5l0.1-0.3l0.2-0.2l0.2-0.2l0.2-0.2l0.5-0.3l0.9-0.2h0.3h0.4l0.2,0.1
		l0.3,0.2h0.3l0.2,0.1l0.3,0.1l0.3,0.1h0.3h0.3h0.3l0.3,0.1h0.3l0.3,0.1h0.3l0.5-0.1l0.6-0.2l0.4-0.1l0.5-0.2l0.5-0.3l0.2-0.2
		l0.2-0.3v-0.2l0.1-0.3v-0.6l-0.2-0.4l-0.2-0.4l-0.2-0.6l-0.2-0.7l-0.1-0.3v-0.7l0.1-0.2l0.3-0.7l0.3-0.3l0.2-0.3l0.2-0.3l0.2-0.6
		l0.1-0.3l0.1-0.4v-0.2v-0.6l-0.2-0.7l-0.2-0.2l-0.2-0.3l-0.2-0.2l-0.2-0.2l-0.3-0.4l-0.1-0.6v-0.3l0.2-0.4l0.2-0.2l0.4-0.2l0.7-0.2
		h0.3h0.3l0.2,0.1l0.5,0.2l0.4,0.1l0.4,0.1l0.3,0.1h0.3l0.5-0.2l0.2-0.2l0.2-0.2l0.3-0.7l0.2-0.3l0.1-0.2l0.2-0.3l0.1-0.3l0.1-0.4
		l0.1-0.2l0.1-0.4l-0.2-0.7V201l0.2-0.3l0.3-0.2l0.3-0.2l0.5-0.4l0.2-0.2l0.4-0.3l0.2-0.2l0.2-0.3l0.4-0.6l0.2-0.2v-0.4l-0.2-0.7
		v-0.2l0.1-0.3l0.1-0.5l0.2-0.6l0.9-0.3l0.2-0.1l0.2-0.2l0.5-0.2l0.3-0.1l0.2-0.2l0.2-0.2l0.2-0.2l0.5-0.4l0.5-0.5l0.2-0.2l0.2-0.2
		l0.2-0.2l0.5-0.2l0.6,0.2h0.3h0.3h0.3h0.4l0.2,0.2h0.4h0.4l0.3-0.1l0.4-0.1l0.2-0.2l0.6-0.4l0.2-0.2l0.2-0.2l0.4-0.2l0.4-0.3
		l0.5-0.2l0.4,0.2l0.6,0.2l0.4,0.2l0.3-0.2l0.2-0.2l0.2-0.2l0.2-0.2l0.4-0.2h0.3h0.2l0.2,0.1l0.6-0.3l0.2-0.2l0.2-0.3l0.2-0.4
		l0.1-0.3v-0.5v-0.2v-0.3V187l-0.1-0.3v-0.4V186v-0.2l0.2-0.4l0.6-0.2h0.5l0.3,0.2h0.5l0.6-0.1l0.4-0.2l0.2-0.2l0.6-0.7l0.2-0.4
		l0.1-0.3V183v-0.5v-0.4l0.2-0.6v-0.6l0.2-0.3l0.4-0.3l0.2-0.1l0.4-0.1h0.4h0.5l0.5,0.1l0.5-0.1l0.2-0.2l0.2-0.3l0.2-0.3l-0.1-0.4
		v-0.2l0.1-0.3v-0.4l0.2-0.2l0.3-0.2l0.7-0.2h0.3l0.4,0.1l0.3,0.1l0.3-0.1h0.5l0.3-0.1l0.2-0.2l0.4-0.4l0.1-1.1l0.3-1.7l0.1-0.2
		l0.3-0.4l0.7-0.2l0.3-0.1h0.3h0.6h0.4l0.4-0.6l0.3-0.5l0.7-1.6l0.4-0.6l1-0.4l0.7-0.3l0.7,0.1l0.5-0.1l0.6-0.2h0.3l0.4,0.1l0.7-0.2
		l0.2-0.2l0.2-0.1l0.5-0.4l0.2-0.4l0.2-0.3l0.2-0.2l0.4-0.4l0.2-0.2l0.4-0.4l0.2-0.2l0.3-0.2l0.5-0.2l0.5-0.2h0.3l0.3-0.1l0.5-0.2
		h0.4l0.3-0.1h0.3l0.4-0.1h0.3l0.4-0.1l0.4-0.2l0.5-0.3l0.3-0.2h0.3l0.2,0.1l0.4-0.1l0.6-0.3l0.3-0.2l0.4,0.1h0.4l0.4,0.2l0.5,0.2
		l0.7,0.3l0.3,0.1l0.5,0.3h0.3l0.6-0.2l0.4-0.2l0.2-0.2l0.5-0.9l0.1-0.3l0.1-0.2l0.1-0.4l-0.1-0.2v-0.3v-0.3l0.1-0.3l0.1-0.5
		l0.2-0.3l0.2-0.5l0.2-0.2l0.2-0.3l0.3-0.2l0.2-0.2l0.5-0.2h0.2l0.6-0.1h0.3l0.6,0.2h0.5l0.3-0.2l0.2-0.2l0.2-0.2l0.1-0.3l-0.1-0.7
		l-0.1-0.3v-0.5l0.3-0.1l0.3,0.2l0.2,0.2l0.2,0.2l0.3,0.2l0.2,0.2l0.2,0.2l0.2,0.2l0.3,0.7l0.1,0.4v0.7l-0.2,0.3l-0.2,0.5l-0.2,0.4
		l-0.5,0.7l-0.2,0.2l-0.2,0.2l-0.2,0.3l-0.5,0.4l-0.3,0.2l-0.3,0.3l-0.2,0.2l-0.2,0.2l-0.2,0.2l-0.3,0.3l-0.4,0.3l-0.3,0.2l-0.4,0.3
		l-0.2,0.2l-0.2,0.2l-0.4,0.4l-0.2,0.3l-0.2,0.2l-0.2,0.2l-0.2,0.2l-0.2,0.3l-0.3,0.5l-0.1,0.3l-0.1,0.2l-0.2,0.3l-0.1,0.2l-0.2,0.2
		l-0.2,0.3l-0.2,0.2l-0.4,0.5l-0.2,0.2l-0.2,0.2l-0.4,0.6l-0.2,0.5l-0.2,0.3l-0.1,0.2v0.3v0.6l0.1,0.3l0.1,0.4l0.2,0.3l0.2,0.4
		l0.2,0.7l0.1,0.5v0.6v0.7l-0.1,0.3l-0.1,0.6l-0.1,0.3l-0.1,0.4l-0.1,0.4l-0.1,0.3l-0.1,0.4l-0.1,0.2l-0.2,0.5l-0.2,0.3l-0.1,0.3
		l-0.1,0.4l-0.1,0.2l-0.1,0.3l-0.2,0.4l-0.1,0.4l-0.3,0.6l0.3,1.3l0.2,0.3l1.3-0.2l-0.3,0.6v0.3l0.1,0.3l0.2,0.2l0.2,0.2l0.4,0.1
		l0.2,0.2l0.5,0.2l0.5,1.1l-0.1,0.5l0.1,0.4l0.2,0.1h0.3l0.5-0.1h0.3l0.2,0.1l0.3,0.1l0.2,0.1l0.2,0.3l0.1,0.2l0.2,0.3l0.2,0.6
		l0.1,0.3l0.2,0.6l0.1,0.3l0.7,0.4l0.2,0.1l0.4-0.1h0.4h0.3l0.2,0.1l0.2,0.3l0.2,0.3l0.2,0.2l0.2,0.2l0.5,0.3l0.7,0.3l0.4,0.4l0.3,1
		l0.2,0.3v0.3v0.2l-0.1,0.3v0.3v0.4v0.6l-0.1,0.6l0.1,0.3v0.4l-0.1,0.2l-0.1,0.4l-0.3,0.4l-0.2,0.2l-0.2,0.2l-0.2,0.3l-0.2,0.3
		l0.1,0.4l0.3,0.8l0.2,0.8v0.3v0.3l-0.1,0.3v0.2l-0.1,0.4v0.4l-0.1,0.4l-0.3,0.7l-0.2,0.2l-0.2,0.2l-0.2,0.2l-0.2,0.2l-0.6,0.8
		l-0.1,0.2v0.4l0.2,0.6l-0.1,0.5l-0.2,0.3l-0.2,0.2l-0.2,0.2l-0.5,0.6l-0.2,0.2l-0.1,0.3l-0.1,0.4l-0.2,0.3l-0.2,0.2l-0.2,0.2
		l-0.9,0.3l-0.8,0.3l-0.7,0.2l-0.2,0.2l-0.5,0.3h-0.3l-0.2,0.1h-0.4l-0.2,0.1h-0.3l-0.4,0.5l-0.2,0.3l-0.2,0.3v0.4l-0.2,0.5
		l-0.4,0.2l-0.4,0.3l-0.2,0.2v0.5l0.1,0.3v0.4l-0.1,0.3l-0.2,0.5l-0.2,0.2l-0.2,0.2l-0.2,0.2l-0.2,0.2l-0.3,0.2l-0.4,0.7l-0.1,0.3
		l-0.1,0.4v0.2v0.7l0.1,0.5l0.1,0.3v0.5v0.5l0.2,0.6l0.2,0.2l0.2,0.2l0.3,0.2l0.2,0.2l0.4,0.4l0.5,0.3l0.3,0.2l0.5,0.4l0.2,0.2
		l0.2,0.3l0.4,1l0.2,0.5l0.2,0.3l0.3,0.9v0.3l0.1,0.4l-0.1,0.3v0.3l-0.1,0.3v0.3l-0.1,0.2l-0.1,0.3l-0.6,1.2l-0.2,0.2l-0.2,0.2
		l-0.2,0.2l-0.3,0.3l-0.2,0.2l-0.2,0.4l-0.4,0.6l-0.1,0.2l-0.2,0.3v0.3v0.3l-0.2,0.5l-0.3,0.7l-0.1,0.4l0.2,0.5l0.2,0.3l0.2,0.2
		l0.2,0.2l0.2,0.7v0.3v0.3l-0.1,0.5l-0.1,0.3v0.3l-0.1,0.3l-0.1,0.3v0.3l0.1,0.3l0.5,1.1l0.1,0.3v0.3l-0.1,0.5v0.2v0.4l0.1,0.4
		l0.2,0.2l0.2,0.3l0.2,0.2l0.2,0.2l0.2,0.6l0.5,1v0.2l-0.1,0.3v0.5l-0.1,0.3l0.1,0.4l0.1,0.3v0.2l0.3,0.7l0.2,0.3l0.3,1v0.4v0.3v0.2
		l-0.1,0.2v0.4l-0.2,0.2l0.2,0.5l-0.2,0.3l-0.3,0.5l-0.2,0.3l-0.2,0.3l-0.2,0.2l-0.3,0.3l-0.3,0.5l-0.1,0.3l-0.2,0.4v0.3l-0.1,0.4
		l0.1,0.7l0.1,0.5v0.3l-0.2,0.4l-0.2,0.6l-0.1,0.6l-0.2,0.3l0.2,0.3l-0.2,0.6l-0.1,0.4l-0.1,0.3l0.1,0.3l0.1,0.7l0.3,0.2l0.5,0.1
		h0.3l0.3,0.1l0.4,0.1l0.7,0.2l0.2,0.7l0.2,0.2l0.5,0.3l0.4,0.2l0.2,0.2l0.1,0.5l-0.1,0.3l-0.1,0.2l-0.2,0.2l-0.4,0.6l-0.1,0.3
		l-0.2,0.2l-0.2,0.2l-0.2,0.3v0.4l0.3,0.1l0.7-0.2l0.3-0.1l0.4,0.2l0.2,0.5v0.5l-0.1,0.3l0.2,0.6l0.2,0.3l0.1,0.2l0.2,0.7l-0.2,0.7
		l-0.2,0.2l-0.7,0.2h-0.2l-0.6,0.1l-0.2,0.5l0.2,0.2l0.5,0.2l0.2,0.3l-0.2,0.7v0.3l-0.2,0.3l-0.1,0.2L467,281l-0.4-0.1l-0.2-0.4
		l-0.2-0.2l-0.4-0.1l-0.2,0.6l-0.1,0.3v0.4v0.2l-0.1,0.6l-0.1,0.5l-0.1,0.3l-0.2,0.2l-0.3,0.2l-0.7,0.2l-0.6,0.2l-0.2,0.2l-0.3,0.4
		l-0.2,0.3v0.4l0.1,0.5l0.1,0.2l0.6,0.4l0.5,0.2l0.4,0.2l0.2,0.2l0.3,0.3l0.2,0.2l0.2,0.3l0.2,0.3l0.2,0.2l0.2,0.4l0.2,0.3v0.3
		l-0.1,0.3l-0.2,0.3l-0.1,0.3l-0.1,0.2l-0.2,0.3l-0.2,0.2l-0.2,0.2l-0.2,0.2l-0.2,0.6l0.2,0.7l0.1,0.7v0.3l-0.1,0.3l-0.2,0.5
		l-0.2,0.2l-0.3,0.2l-0.9,0.3l-0.2,0.2l-0.2,0.3v0.4l0.2,0.2l0.4,0.2l0.1,0.2v0.7l-0.1,0.4l-0.2,0.5l-0.2,0.2l-0.3,0.2h-0.2h-0.3
		l-0.3-0.1l-0.5-0.2l-0.2,0.1l-0.5,0.1l-0.2,0.2l-0.1,0.4l0.3,0.2l0.6,0.2l-0.3,0.5l-0.7,0.2v0.6l0.1,0.2l-0.2,0.3l-0.2,0.2
		l-0.2,0.2l0.3,1.1l-0.1,0.3l0.2,0.2h0.2h0.3l0.4,0.1l0.3,0.6l-0.8,0.5l-0.2,0.3l0.2,0.6l0.2,0.2l0.4,0.2l0.2,0.3l-0.5,0.5l-0.2,0.2
		l-0.2,0.2l-0.2,0.4l0.1,0.3l0.3,0.2l0.4,0.2l0.7,0.4l0.2,0.2l0.2,0.2l0.2,0.2l0.2,0.5l-0.1,0.4l-0.1,0.2l-0.2,0.2l-0.3,0.2
		l-0.3,0.1v0.5l0.4,0.1l0.3,0.2l0.4,0.4l-0.4,0.3l-0.4-0.1h-0.2l-0.7,0.1l0.2,0.7l-0.4,0.3l0.2,1l0.2,0.2v0.5h-0.2h-0.6l-0.2,0.2
		l-0.4,0.5l-0.3,0.2l-0.2,0.3l-0.1,0.3l-0.6,0.2l-0.1,0.4l-0.2,0.2l-0.2,0.2L458,319l-0.5,0.2l-0.2,0.4l-0.2,0.2l-0.2,0.2l-0.3,0.6
		l-0.4-0.1l-0.4,0.5l-0.3,0.1l-0.3,0.1l0.1,0.5l-0.2,0.9l0.1,0.3l-0.1,0.6l-0.1,0.4l0.1,0.6l-0.2,0.3l-0.2,0.1l0.1,0.5l-0.2,0.2
		l-0.2,0.5l-0.2,0.7l0.7,1.7l-0.3,0.2l-0.1,0.4v0.3l0.3,0.6l0.2,0.2v0.2l-0.2,0.5l0.1,0.3l-0.1,0.3l-0.2,0.2v0.3l0.3,0.2l0.1,0.3
		l-0.1,0.3v0.3l-0.1,0.3l0.1,0.3l0.2,0.2l0.1,0.3l-0.2,0.3l0.2,0.4l0.3,0.6l0.4,0.2l0.2,0.2l0.2,0.2l0.2,0.3l0.2,0.2l0.2,0.4
		l0.2,0.4l0.2,0.2v0.5l0.2,0.7l0.2,0.2v0.4l0.1,0.6l0.3,0.2L458,341l-0.3,0.2l-0.2,0.3l-0.2,0.4l0.1,0.6l-0.2,0.2l-0.6,0.2l-0.2,0.2
		l-0.1,0.5l-0.3,0.2l0.1,0.5l-0.3,0.2v0.3l0.2,0.5l-0.2,0.2l-0.4,0.3l-0.3,0.2l-0.4,0.2l-0.3,0.2v0.4l-0.2,0.2l0.1,0.3l-0.4,0.4
		l-0.3,0.1l-0.7-0.2h-0.2l-0.7-0.3l-0.7,0.2l-0.3-0.2l-0.4-0.2h-0.4h-0.8l-0.3-0.1h-0.5h-0.5l-0.3-0.1l-0.3-0.1h-0.3h-0.3l-0.5-0.1
		h-0.7h-0.3h-0.3h-0.3h-0.3h-0.2h-0.7h-0.3h-0.5l-0.5-0.1h-0.6h-0.2l-0.3,0.1l-0.5-0.1l-0.3,0.1l-0.4-0.1h-0.3H438l-0.6-0.1h-0.3
		l-0.3-0.1h-0.5h-0.5h-0.5h-0.3l-0.6-0.1h-0.5h-0.5H433h-0.3h-0.5h-0.6h-0.5l-0.8-0.1h-0.6h-0.5h-0.6h-0.5h-0.3l-0.5-0.1h-0.2
		l-0.3,0.1h-0.2h-0.3h-0.2h-0.3h-0.3h-0.5h-0.3h-0.2h-0.6h-0.5h-0.3h-0.3h-0.3h-0.3h-0.2h-0.2H421h-0.2h-0.6h-0.3h-0.3h-0.6h-0.2
		h-0.4h-0.3l-0.6-0.1l-0.2,0.1l-0.4-0.1l-0.4,0.1l-0.5-0.1l-0.7-0.3l-0.3-0.2l-0.6-0.1l-0.6,0.1l-0.4-0.2l-0.1-0.6l-0.3-0.2
		l-0.4-0.4l-0.3-0.4l-0.3-0.3l-0.3-0.2h-0.3l-0.5,0.1l-0.2,0.3l-0.2,0.3l-0.2,0.2l-0.2,0.4l-0.2,0.2l-0.3,0.3l0.2,0.7l-0.3,0.7
		l-0.1,0.4l-0.1,0.3l0.1,0.6v0.4l0.1,0.7l0.1,0.6l-0.1,0.3l-0.2,0.2l-0.2,0.2h-0.2h-0.3l-0.3,0.1l-0.6-0.2l-0.6,0.1l-0.3,0.3
		l-0.2,0.2h-0.3h-0.3l-0.2,0.4v0.3l-0.1,0.3v0.3l-0.1,0.3v0.5L405,354l0.2,0.5l0.6,0.5l0.2,0.1l0.4,0.2l0.2,0.1l0.2,0.2l0.1,0.3
		l-0.2,0.4l-0.2,0.5l-0.2,0.2l-0.2,0.4l-0.5,0.9l-0.5,0.8l-0.2,0.2l-0.2,0.2l-0.3,0.6l-0.3,0.6l-0.2,0.3l-0.2,0.2l-0.2,0.3l-0.2,0.2
		l-0.2,0.3l-0.2,0.2l-0.2,0.3l-0.2,0.3l-0.2,0.2l-0.2,0.4l-0.3,0.3l0.1,0.4l0.4,0.2l0.1,0.3l-0.2,0.4l-0.2,0.2l-0.6,0.2l-0.3,0.1
		l-0.5-0.2h-0.4h-0.3l-0.6-0.2l-0.2-0.1l-0.3,0.1l-0.2,0.2l-0.3,0.2l-0.5-0.2l-0.4-0.1l-0.2,0.2l-0.3,0.4L396,367l-0.4,0.6l-0.1,0.3
		v0.4l-0.1,0.3l-0.1,0.2v0.2l-0.2,0.5l-0.2,0.2l-0.4-0.1l-0.2-0.2l-0.5,0.5l-0.2,0.2l-0.2,0.2l-0.4,0.2l-0.2-0.1l-0.9-0.5l-0.4,0.1
		H391l-0.3-0.1l-0.4-0.2l-0.5,0.3l-0.2,0.2l-0.3,0.1l-0.2,0.2l-0.3,0.3l-0.1,0.6l0.1,0.4l0.2,0.2l0.2,0.3l-0.2,0.4l-0.2,0.3
		l-0.2,0.2l-0.2,0.2l-0.2,0.2l-1.1,0.4l-0.2,0.2l-0.2,0.2l-0.5,0.2l-0.2,0.2l-0.2,0.2l-0.2,0.2L385,376l0.1,1.1l1.9,0.4l0.4,0.3
		l0.2,0.7l0.2,0.2l0.3,0.1l0.7-0.2l0.3,0.2l0.1,0.2l0.7,0.6l0.2,0.1l0.3,0.2l0.2,0.7v0.2l0.1,0.6l0.2,0.2l0.2,0.2l0.2,0.2l0.4,0.5
		l0.1,0.2l0.1,0.2l0.2,0.3l0.2,0.3l0.2,0.4l0.2,0.2l0.1,0.2l0.2,0.2l0.2,0.3l0.2,0.2l0.2,0.2l0.1,0.2l0.3,0.6l0.1,0.2l0.2,0.5
		l0.2,0.6l0.2,0.4l0.8,1.8l1,1.9l0.1,0.2l0.2,0.4l0.1,0.2l0.2,0.2l0.2,0.3l0.2,0.5l0.2,0.3l0.1,0.3l0.2,0.5l0.2,0.2l0.2,0.2l0.2,0.3
		l0.2,0.7l0.2,0.6l0.2,0.4l0.2,0.2l0.3,0.6l0.2,0.3l0.2,0.4l0.2,0.2l0.2,0.2l0.7,1.9l1.4,2.1l0.2,0.3l0.2,0.5l0.2,0.5l0.2,0.3
		l0.2,0.4l0.1,0.2l0.2,0.3l0.2,0.3l0.2,0.3l0.2,0.3l0.2,0.2l0.2,0.3l0.2,0.5l0.2,0.5l0.1,0.2l0.2,0.4l0.2,0.5l0.2,0.2l0.2,0.3
		l0.2,0.3l0.2,0.6l0.2,0.2l0.2,0.3l0.2,0.3l0.3,0.7l0.2,0.2l0.1,0.2l0.1,0.3l-0.3,0.2l-0.2,0.2l-0.2,0.2l-0.2,0.2l-0.3,0.2l-0.2,0.3
		l0.1,0.5l0.2,1.1l-0.1,0.4l-0.1,0.3l0.1,0.3l0.1,0.5l0.2,0.2l0.2,0.2l0.2,0.2l0.2,0.2l0.2,0.3l0.2,0.4l0.2,0.4l-0.2,0.6l-0.3,0.7
		l-0.2,0.6v0.3l-0.1,0.3l-0.1,0.4v0.7l-0.2,0.5l-0.2,0.4l-0.1,0.2l-0.1,0.3l0.3,0.4l0.2,0.2l0.2,0.6v0.3v0.2l0.2,0.3l0.2,0.4
		l-0.2,0.5l0.4,0.3l0.7-0.2l0.2,0.4l-0.2,0.3l-0.2,0.4l-0.1,0.2l0.2,0.2l0.3,0.2v0.2l-0.2,0.2v0.6l0.5,0.3l0.3,1.1l0.2,0.6l0.2,0.3
		l-0.2,0.7v0.3l-0.1,0.3v0.3l-0.1,0.3l0.1,0.3l0.2,0.2l0.5,0.1v0.3l-0.2,0.2l-0.1,0.3l-0.3,0.2l-0.2,0.2l0.2,0.4l-0.1,0.3l-0.2,0.3
		l0.3,0.5l0.2,0.2l0.2,0.5l0.8,0.5l0.5,0.3l0.4,0.1l0.3,0.2L413.9,442.1L413.9,442.1"/>
</g>
</svg>
