<?xml version="1.0" encoding="utf-8"?>
<!-- Generator: Adobe Illustrator 27.0.0, SVG Export Plug-In . SVG Version: 6.00 Build 0)  -->
<svg version="1.1" id="Layer_1" xmlns="http://www.w3.org/2000/svg" xmlns:xlink="http://www.w3.org/1999/xlink" x="0px" y="0px"
	 viewBox="0 0 500 500" style="enable-background:new 0 0 500 500;" xml:space="preserve">
<style type="text/css">
	.st0{fill:#E74646;stroke:#FFFFFF;stroke-width:4.6041;stroke-linecap:square;stroke-linejoin:bevel;stroke-miterlimit:3.998;}
</style>
<g transform="matrix(0.999751,0,0,0.999751,18.6633,21.7738)">
	<path vector-effect="none" class="st0" d="M377.7,8.3l0.3,0.8l0.2,0.9l0.2,1.1V12V13l-0.3,0.8l-0.2,0.9l-0.2,0.9l-0.2,0.8l-0.3,0.9
		l-0.2,0.8l-0.2,0.9l-0.2,0.9v0.9l-0.3,0.8l-0.3,0.9l-0.5,0.8l-0.8,0.5l-1.1,0.5L373,25l-0.6,0.6l-0.6,0.6l-0.8,0.6l-0.8,0.3
		l-0.8,0.6l-0.6,0.6l-0.3,0.8l-0.2,0.9l0.2,0.9l0.2,0.9v0.9l0.2,0.9v0.9l-0.2,0.9l-0.5,0.8l-0.5,0.8l-0.5,0.8V39v0.9v0.9v0.9
		l0.2,0.9l0.3,0.9l0.3,0.9l0.8,0.2l0.8,0.6h0.8l0.8-0.5l0.6-0.6l0.8-0.5l0.6-0.6l0.3-0.9l0.5-0.8l0.5-0.8l0.5-0.8l0.6-0.6l0.8-0.6
		l0.6-0.5l0.5-0.6v-0.8l0.2-0.6v-0.6l0.2-0.8v-0.5l0.9-0.9l1.2-0.6l1.1-0.2l1.6,0.5l0.8,0.5h0.8l0.9-0.2l0.6-0.8l0.8-0.3l0.8-0.5
		l0.9-0.2l0.9-0.2h0.9h0.9l0.8-0.5l0.8-0.3l0.6-0.6l1.1-0.6l0.5-0.8l0.5-0.6l0.6-0.8l0.8-0.5l0.6-0.5l0.8-0.5l0.9-0.3l0.8-0.5
		l0.8-0.5L401,24l0.8-0.5l0.6-0.6l0.6-0.6l0.8-0.3l0.9-0.2h0.9l0.8,0.6l0.8-0.2l0.6-0.5l0.6-0.8l0.8-0.5l0.9-0.2h0.9l0.8-0.3
		l0.8-0.5l0.8-0.5l1.2-0.5l0.8-0.5l0.9-0.3l0.8-0.2l0.9-0.3l0.6-0.6l0.6-0.8l0.6-0.8l0.5-0.8l0.5-0.6l0.8-0.6l0.8-0.3l0.9-0.2
		l0.9-0.3l0.6-0.6l0.9-0.6l-1.1,4.7l-0.9,4.8l-2.3,1.4l-1.6,0.9l-2.8,0.9l-2.3,1.4l-0.8,0.5l-0.8,0.3l-0.8,0.5l-0.8,0.5l-0.8,0.6
		l-0.6,0.6l-0.5,0.8l-0.6,0.8l-0.5,0.8l-0.5,0.8l-0.5,0.8l-0.2,0.8V34V35l-0.3,0.9v0.8l-0.8,0.5l-0.9,0.2l-0.9,0.2l-0.9,0.2
		l-0.9,0.2l-0.8,0.3l-0.8,0.5l-0.6,0.6l-0.8,0.6l-0.5,0.8l-0.3,0.8l-0.6,0.8l-0.6,0.6l-0.8,0.5l-0.3,0.8l-0.3,0.8l-0.6,0.8l-0.6,0.5
		l-0.6,0.8l-0.5,0.8l-0.5,0.8l-0.5,0.6l-0.5,0.8h-0.9h-0.9l-0.9,0.2H389l-1.1,0.2H387l-0.9,0.2l-0.9,0.3l-0.8,0.5l-0.8,0.5l-0.9,0.5
		l-0.8,0.5l-0.9,0.3L380,53l-0.9,0.3l-0.9,0.2l-0.9,0.3l-0.8,0.5l-0.9,0.5l-0.9,0.3l-0.8,0.3h-0.9l-1.1-0.2l-0.9-0.2h-0.9v0.6v0.9
		l0.2,0.9l0.8,0.5h0.9l0.8,0.2l0.9,0.3l0.5,0.8l0.5,0.8l-0.2,0.9l-0.2,0.8l-0.3,0.9l-0.3,0.8l-0.5,0.8l-0.3,0.9l-0.2,0.8l-0.2,0.9
		l-0.5,0.8l-0.6,0.6l-0.5,0.8l-0.2,0.9l-0.3,0.8l-0.2,0.9l-0.3,0.8l-0.6,0.6l-0.8,0.5l-0.3,0.5l-0.8,0.3l-0.6,0.8l-0.6,0.6l-0.6,0.8
		l-0.8,0.6l-0.6,0.6l-0.8,0.5l-0.8,0.5l-0.8,0.5l-0.8,0.5l-0.8,0.5l-0.9,0.2l-0.9-0.2l-0.8-0.3h-0.9l-0.8,0.3l-0.5,0.5l-0.8,0.5
		l-0.6,0.6L353,82l-0.8,0.5l-0.8,0.5l-0.8,0.5l-0.8,0.5l-0.8,0.3l-0.6,0.6l-0.6,0.6l-0.5,0.8l-0.5,0.8l-0.5,0.8l-0.3,0.9l-0.5,0.6
		l-0.2,0.9l-0.5,0.8l-0.3,0.9l-0.3,0.8l-0.5,0.8l-0.3,0.8l-0.5,0.8l-0.5,0.8l-0.3,0.8l-0.5,0.8l-0.5,0.8l-0.6,0.8l-0.8,0.6l-0.6,0.6
		l-0.8,0.6l-0.6,0.6l-0.6,0.6l-0.8,0.6l-0.8,0.5l-0.6,0.6l-0.8,0.3l-0.8,0.6l-0.6,0.6l-0.5,0.8l-0.2,0.9v0.9v0.9v0.9l0.2,1.1v0.9
		l-0.2,0.9l-0.2,0.8l-0.3,0.9l-0.5,0.8l-0.5,0.8l-0.5,0.8l-0.3,0.8l-0.2,0.9v0.9l0.3,0.8l0.3,0.9l0.5,0.8h0.5l0.8-0.6l0.8-0.3
		l0.9-0.3l0.9,0.2l0.8,0.2l0.8,0.5l0.5,0.8l0.3,0.8l0.9,0.5l0.8-0.5l0.6-0.6l0.8-0.5l0.9-0.3l0.8-0.2h1.1l0.8,0.2l0.9,0.3l0.8,0.3
		h0.9l0.9-0.3l0.8-0.2l0.8-0.5l0.8-0.5l0.8-0.6l0.8-0.3l0.8-0.5l0.9-0.2l0.8,0.2l0.8,0.6l0.8,0.6l0.2,0.9l0.3,0.8l0.5,0.8l0.9,0.2
		l0.9-0.2l0.9-0.2h0.9l0.8,0.3l0.8,0.5l0.5,0.8l-0.3,0.8l-0.6,0.6l-0.6,0.6l-0.3,0.9l0.5,0.8h0.9l0.9-0.3l0.8-0.2l0.8,0.3l0.5,0.8
		l-0.2,0.9l-0.5,0.8l-0.5,0.8l-0.2,0.9l0.2,0.8l0.6,0.8l1.2,0.5l0.6-0.6l0.6-0.8l0.8-0.5l0.8-0.2l0.9,0.2l0.9,0.3l0.8,0.3l0.8,0.5
		l0.8,0.5l0.8,0.5l0.8,0.5l0.8,0.5l0.6,0.6l0.8,0.6l0.6,0.6l0.8,0.6l0.8,0.5l0.6,0.8l0.6,0.6l0.5,0.8l0.2,0.9v0.9l-0.2,0.9l-0.2,0.8
		v1.1l0.3,0.8l0.3,0.8l0.2,0.9l0.2,0.9v0.9l0.5,0.8l0.5,0.8l0.3,0.9l0.5,0.9l0.8,0.3l0.8,0.3l0.8,0.5l0.8,0.5l0.9,0.3l0.6,0.6
		l0.8,0.5l0.8,0.3l0.9,0.2l0.9,0.2l0.9-0.2l0.9-0.3l0.8-0.5h0.9h0.9l0.9,0.2l0.9-0.2l0.8-0.3l0.9-0.2l0.9,0.2l0.9,0.2l0.8,0.3
		l0.9,0.2l0.8,0.2l0.9,0.3l0.8,0.2l0.9,0.3h0.9l1.4,0.2l1.1,1.2l0.9,0.2h0.9l0.8-0.3l0.9-0.3l0.8-0.3l0.9-0.3l0.8-0.2l0.9-0.2
		l0.9-0.2l0.8-0.3l0.9-0.3l0.8-0.3l0.9-0.2l0.8-0.2l0.9-0.3l0.6-0.5v-1.1l0.5-0.8l0.6-0.6l0.8-0.2l0.5-0.8l0.6,0.6l0.3,0.8l0.2,0.9
		l0.2,0.9l0.5,0.8l0.6,0.6l0.8,0.3l0.9,0.2l0.9,0.2l0.9-0.2h0.9l0.8,0.2l0.8,0.6l0.6,0.6l0.9,0.5h0.9l0.8-0.3l0.8-0.6l0.6-0.6
		l0.8-0.5l0.8,0.2v0.9l-0.2,0.9v0.9v0.9l0.2,0.9l0.2,0.9l-0.6,0.5l-0.6,0.6l-0.5,0.8l-0.3,0.9l-0.3,0.8v0.9l0.2,0.9l0.3,0.9l0.5,0.6
		l0.5,1.1l0.8,0.2l0.6,0.6l0.6,0.8l0.3,0.8l0.3,0.8l0.5,0.8l0.9,0.3h0.8h0.9l0.9-0.2l0.9,0.3l0.5,0.8l0.5,0.8l0.5,0.8l0.8,0.6
		l0.8,0.3l0.8,0.3l0.8,0.3l0.9,0.3l0.8,0.3l0.8,0.5l0.8,0.5l0.6,1.1l-0.3,0.9l-0.6,0.5l-0.5,0.9l0.6,0.5l0.9,0.2l0.9-0.2l0.9-0.3
		h0.9l0.9,0.2h0.9h0.8l0.9-0.5l0.6-0.9l0.6-0.8l0.8-0.5l0.8-0.3h0.9l1.1-0.2l0.8,0.2l0.9,0.2l0.9,0.2l0.8,0.3l0.8,0.5l0.8,0.6
		l-0.5,1.2l-0.8,0.6l-0.6,0.6l-0.6,0.6l-0.5,0.8l-0.2,0.9l0.3,0.9l0.6,0.5l0.8,0.5l0.8,0.6l0.3,0.9l-0.2,0.9l-0.5,0.8l-0.6,0.6
		l-0.6,0.8l-0.5,0.8l-0.5,0.8l-0.2,0.8l-0.3,0.9l0.2,0.9l0.6,0.6l0.9,0.2l0.8,0.3l0.5,0.8l0.2,0.8l0.5,0.8l0.8,0.5l0.6,0.8l0.3,0.6
		v0.6l0.5,0.9l0.3,0.8l0.5,0.8l0.3,0.6l0.3,0.8l0.9,1.1l0.6,0.5l0.8,0.5l0.6,0.8l0.2,0.9l-0.2,1.1l-0.3,0.8l0.2,0.9l0.3,0.8v0.9
		l0.2,0.9l-0.2,0.9l-0.6,0.5l-0.9,0.2l-0.8-0.3l-0.8-0.6l-0.6-0.6l-0.8-0.3l-0.9,0.2l-0.8,0.5l-0.5,0.8l-0.2,0.9l-0.9,0.2l-0.9,0.2
		l-0.8,0.6l-0.6,0.6l-0.8,0.2l-0.8,0.5l-0.8,0.5l-0.8,0.3l-0.9,0.3l-0.8,0.3l-0.6,0.6l-0.5,0.8l-0.2,0.9v0.9l0.3,0.8l-0.5,0.6
		l-0.8,0.5l-0.6,0.3l-0.9-0.2l-0.6,0.8l-0.8,0.3l-0.9,0.2l-0.8,0.3l-0.9,0.3l-0.8,0.5l-0.8,0.5l-0.6,0.5l-0.6,0.8l-0.3,0.6l-0.9,0.3
		l-0.8,0.5l-0.6,0.5l-0.6,0.6l-0.8,0.5l-0.9,0.2H447l-0.9,0.2l-0.8,0.3l-0.8,0.5l-0.8,0.6l-0.8,0.3l-0.8,0.5l-0.8,0.3l-0.6-0.5
		l-0.5-0.9l-0.3-0.8l-0.6-0.6l-0.8-0.6l-0.8-0.3l-0.9-0.5l-0.6-0.6l-0.5-0.8l-0.5-0.6l-0.8-0.6l-0.8-0.3l-0.2-0.9l-0.2-0.8l-0.3-0.9
		l-0.3-0.8l-0.3-0.9l-0.2-0.8l-0.3-0.9l-0.5-0.8l-0.8-0.5l-0.8-0.5l-0.6-0.6l-0.8-0.5l-0.3-0.9l-0.5-0.6l-0.8-0.3l-0.5-0.8v-0.9
		l0.5-0.9l0.3-0.8l0.3-0.8l0.3-0.9l0.2-0.9v-0.9v-0.9l0.2-0.9l-0.8-0.2l-0.9-0.2l-0.9-0.2l-0.8-0.2H424l-0.8-0.5l-0.9-0.3l-0.8-0.5
		l-0.8,0.2l-0.9,0.2l-0.6-0.8l-0.6-0.6l-0.8,0.2l-0.3,0.8l-0.6,0.8l-0.6,0.6l-0.5-0.8l-0.3-0.9l-0.3-0.8l-0.6-0.5l-0.9-0.5l-0.8-0.5
		l-0.2-0.9l-0.2-0.8l-0.8-0.5l-0.8,0.3l-1.4-0.2l-0.3,0.9h-0.9l-0.8-0.5l-0.8-0.3l-0.9-0.2l-0.8-0.2l-0.9,0.2l-0.9,0.3l-0.8,0.3
		l-0.8,0.5l-0.8,0.5h-0.9l-0.3,0.9l-0.3,0.8l-0.8,0.5h-0.9l-0.8,0.5l-0.6,0.6v0.9v1.1l0.5,0.6l-0.8,0.2l-0.2,0.9l-0.2,0.9l-0.2,0.9
		l-0.2,0.8l-0.3,0.9l-0.3,0.8l-0.2,0.9l-0.3,0.8l-0.3,0.8l-0.3,0.9l-0.2,0.9l-0.2,0.8l-0.2,0.9l0.6,0.6h0.9h0.9h1.1l0.9-0.2h0.9h0.8
		l0.3,0.9l0.2,0.9v0.9l-0.2,0.9v0.9l-0.2,0.8l-0.2,0.9l-0.2,0.9l-0.3,0.8l-0.3,0.8l-0.6,0.8l-0.8-0.5l-0.8-0.5l-0.9,0.2l-0.8,0.3
		v0.9l0.3,0.8l0.5,0.9l0.5,0.6l0.6,0.8l0.5,0.8v0.5l0.6,0.6l0.5,0.8l0.2,0.9v0.9l-0.2,0.9l-0.2,0.8v0.9l0.3,0.9l0.5,0.6l0.5,0.8
		l0.3,0.9v0.9l0.5,0.8l0.2,0.8l0.5,1.4l-0.9,0.3h-0.9l-0.9-0.2l-0.9,0.2l-0.9,0.2l-0.9,0.2l-0.8,0.3l-0.8,0.3l-0.8,0.5l-0.8,0.5
		l-0.8,0.5l-0.9,0.3H389l-0.8-0.2l-0.9-0.2h-0.9l-0.9,0.2l-0.9,0.3l-0.6,0.6l-0.5,0.8l-0.3,0.9l-0.3,0.8l-0.2,0.9l-0.3,0.9l-0.9-0.2
		l-0.6-0.6l-0.8-0.5h-0.9l-0.5,0.8l-0.5,0.8L378,261l0.2,0.9l0.2,0.9l0.2,0.9l-0.5,0.8l-0.8,0.3l-0.8,0.5l-0.6,0.8l-0.2,0.9l0.3,0.8
		l0.5,0.8l0.5,0.8l0.5,0.8l0.3,0.9l0.2,0.8l0.5,0.8l0.3,0.9l0.3,0.8l0.3,0.8l0.5,0.8l0.2,0.9l-0.5,0.8l-0.3,0.8l-0.3,0.8l-0.2,0.9
		l-0.3,0.9v0.9v0.9v0.9l-0.2,0.8l-0.2,0.9l-0.3,0.8l-0.5,0.8l-0.8,0.6l-0.6,0.6l-0.3,0.8l-0.2,0.9l-0.2,0.9v0.9v0.9l-0.2,0.9
		l-0.3,0.8l-0.5,0.8h-0.9l-0.8-0.3l-1.1,0.2l-0.9,0.2l-0.8,0.3l-0.8,0.5l-0.8,0.3l-0.9,0.3l-0.8,0.3l-0.8,0.5l-0.5,0.8l-0.6,0.8
		l-0.6,0.6l-0.8,0.5l-0.8,0.2h-0.9l-0.9-0.2l-0.9,0.2h-0.9h-0.9l-0.8-0.3l-0.9-0.3l-0.8,0.2l-1.1,0.2l-0.8-0.5l-0.6-0.5l-0.8-0.5
		l-0.8-0.6l-0.8-0.6l-0.3-0.8l0.2-0.9v-1.2l-0.9-0.3l-0.8-0.3l-0.9-0.2l-0.8,0.3l-0.5,0.8l-0.5,0.8l-0.3,0.8l-0.3,0.9l-0.3,0.8
		l-0.3,0.8l-0.3,0.9v1.1l0.3,0.8l0.5,0.8l0.3,0.8l0.5,0.8l0.3,0.9l0.2,0.8l-0.3,0.8l-0.6,0.8l-0.6,0.6l-0.6,0.8l-0.5,0.8l-0.3,0.8
		l0.5,0.8l0.9,0.3l0.8,0.5l0.3,0.8l0.5,0.8l0.5,0.6l0.9,0.3h0.9l0.9-0.2l0.8-0.2h1.1l0.9,0.2l0.8,0.2l0.9,0.2l0.6,0.6l0.3,0.8v0.9
		l0.9,0.3l0.9-0.2h0.9l0.9,0.3l0.6,0.8l0.8,0.5h0.8l0.9-0.3l0.9-0.2l0.8,0.3l0.8,0.8l0.5,0.6l0.3,0.9l0.8,0.5l0.8,0.2l0.9,0.2
		l0.6,0.5l0.5,0.8v0.9l-0.2,0.9l-0.2,0.9l0.3,0.8l0.8,0.6v0.8l-0.9,0.2l-0.6,0.5v0.9l0.2,0.9l0.3,0.8v0.9v0.9l-0.2,0.8l-0.2,0.9v0.9
		v0.9l-0.2,0.9l0.2,0.9v0.9l0.5,0.8l0.2,0.9l-0.2,0.9v0.9l-0.2,0.8l-0.3,0.9v0.6l0.5,0.3l0.8,0.5h0.9h0.9l0.9-0.3l0.8,0.3l0.6,0.6
		h0.9l0.9-0.2l0.8-0.3l1.2,0.6l0.6,0.8l0.8,0.3l0.9,0.2l0.9-0.2l0.9-0.2l0.8-0.3l0.8-0.5l0.8-0.3l0.9-0.3h0.9l0.9,0.2l0.8,0.5
		l0.8,0.5l0.5,0.6l0.5,0.8l0.8,0.6l0.8,0.3l0.8,0.6l0.8,0.6l0.6,0.6l0.6,0.6l0.5,0.8l0.2,0.9l0.3,0.9l0.2,0.8v0.9l0.3,0.9l0.3,0.8
		l0.6,0.8l0.8,0.3l0.8,0.5l0.6,0.8l0.6,0.6l0.5,0.8l0.8-0.2l0.9-0.3l0.6-0.6h0.9l0.5-0.2l0.8,0.5l0.9,0.2h0.9l0.8-0.5l0.6-0.6
		l0.5-0.8l0.2-0.9l0.2-0.9l0.6-0.6l0.8-0.5v-0.8l-0.2-0.9l0.8-0.5l0.9,0.3l0.6,0.6h0.9l0.9-0.3l0.8-0.3l0.5-0.8l0.8-0.5h0.8l0.5,0.8
		l0.6,0.5l0.8-0.3l0.6-0.6l0.6-0.6l0.8-0.6l0.8-0.5l0.6,0.6l0.9,0.3l0.8,0.3l0.8,0.5l0.3,0.8l-0.3,0.8l-0.2,0.9l0.2,0.8l0.5,0.8
		l0.5,0.9l0.3,0.8l0.3,0.8l0.3,0.8l0.3,0.9l0.2,0.9l0.3,0.8l0.2,0.9l0.2,0.9l0.2,0.8l0.2,0.9l0.2,0.9v0.9l-0.3,0.9l-0.5,0.8
		l-0.2,0.8l0.3,0.8l0.8,0.5l0.5,0.8l0.2,0.9l0.2,0.9v0.9v0.9l-0.2,0.9l0.2,0.9l0.2,0.9l0.3,0.8l0.6,0.8l0.5,0.8l0.3,0.8l0.3,0.9
		l-0.2,0.9v0.9l-0.2,0.8l-0.2,0.9l-0.2,0.9v0.9l-0.2,0.9l0.3,0.8l0.5,0.8l0.3,0.9v0.8l-0.3,0.8l-0.2,0.9v0.9v0.9l0.2,0.9l0.3,0.9
		v0.8l-0.3,0.8l-0.3,0.9l-0.5,0.8l-0.2,0.8l0.2,0.9l0.3,0.9l0.3,0.8l0.2,0.9v0.9l-0.3,0.8l-0.5,0.8l-0.5,0.8l-0.5,0.8v0.9l0.5,0.8
		l0.8,0.3l0.6,0.8v0.9l0.3,0.8l0.5,0.8l-0.5,1.1l-0.8,0.6l-0.6,0.6l-0.3,0.8l-0.8,0.6l-0.8,0.3l-0.8,0.5H426l-0.9,0.2h-0.9l-0.8-0.3
		l-0.9-0.2h-0.9l-0.8-0.2l-0.9-0.3l-0.8-0.3l-0.9-0.3h-0.9l-0.6,0.5l-0.5,0.8l-0.8,0.6h-0.9h-0.9l-0.8-0.3l-0.8-0.3l-0.8-0.3
		l-0.8-0.6l-0.9-0.3l-0.8-0.3l-0.8-0.2l-0.9-0.3l-0.9-0.2h-0.9H404l-0.9,0.2l-0.6-0.3l0.5,1.2l0.6,0.6l0.8,0.6l0.8,0.6l0.8,0.5
		l0.6,0.6l0.8,0.6l0.2,0.9L407,425l-0.6,0.5l-0.8,0.6l-0.8,0.5l-0.8,0.3l-0.8,0.3l-0.9,0.2l-0.9,0.3l-0.6,0.6l-0.6,0.6l-0.6,0.8
		l-0.6,0.6l-0.6,0.6l-0.8,0.6l-0.6,0.6l-0.3,0.9l-0.2,0.8l-0.2,0.9v0.9l0.3,0.9l-0.3,0.8l-0.6,0.8l-0.6,0.5l-0.8,0.6l-0.6,0.5
		l-0.6,0.8l-0.2,0.8l-0.3,0.9l-0.3,0.8l-0.2,0.9l-0.2,0.9l-0.6,0.6l-0.6,0.8L390,447l-0.6,0.6l-0.6,0.8l-0.5,0.8l-0.2,0.9v0.9
		l0.3,0.8l0.3,0.8l0.2,0.9v0.9l-0.2,0.9l-0.2,0.9l-0.2,0.9l-0.8,0.3l-0.9,0.3l-0.8,0.2l-0.8,0.6l-0.8,0.5l-0.8,0.3h-0.9l-0.8-0.5
		l-0.9-0.2l-0.8,0.2l-0.8-0.2l-0.2-1.1l-0.2-0.8l-0.8-0.6l-0.8-0.3l-0.8-0.3l-0.8-0.6l-0.3-0.8l-0.2-0.9v-0.9v-0.9v-0.9l0.2-0.9
		v-0.9v-0.9v-0.9v-0.9l0.2-0.9v-0.9l-0.5-0.8l-0.8-0.5l-0.9-0.2l-0.8-0.5l-0.2-0.8l-0.2-0.9l-0.2-0.9v-0.9l0.2-0.9l-0.2-0.8
		l-0.8,0.3l-0.8,0.5l-0.6,0.6l-0.6,0.8l-0.3,0.8l-0.6,0.8l-0.6,0.8l-0.5,0.8l-0.8,0.6l-0.5,0.8l-0.2,0.8l0.2,0.9l0.2,0.9l0.2,0.9
		l-0.6,0.6l-0.6,0.6l-0.8,0.3h-0.9l-0.9-0.2l-0.8-0.3l-0.8-0.6l-0.8-0.6h-0.8l-0.9,0.3v0.9v0.9l0.2,0.9l-0.3,0.9l-0.3,0.8l-0.6,0.5
		l-0.8-0.5l-0.5-0.8l-0.3-0.8l-0.6-0.6l-0.9,0.2l-0.6,0.6l-0.8,0.5l-0.8,0.5l-0.8,0.5l-0.8,0.5l-0.8,0.3H349l-0.9-0.3l-0.8-0.3
		l-0.9-0.2l-0.6,0.8l-0.5,0.8l-0.9,0.2l-0.8,0.2l-0.3-0.8l-0.6-0.8l-0.8-0.2l-0.8-0.2l-0.5-0.8l-0.3-0.8l-0.2-0.9l-0.5-0.8L339,448
		l-0.8-0.5l-0.9,0.3l-0.9,0.2h-0.8l-0.8-0.6l-0.5-0.6l-0.6-0.8l-1.2-0.5l-0.8,0.5l-0.8-0.3l-0.8-0.5l-0.6-0.8l-0.6-0.6l-0.8-0.6
		h-0.8l-0.9,0.5l-0.8,0.2l-0.8,0.5l-0.9,0.3l-0.6,0.6l-0.6,0.6l-0.3-0.5l-0.3-0.8l-0.5-0.8v-0.9v-0.9l0.2-0.9V440v-0.9l0.2-0.9
		l-0.2-0.9l0.2-0.8l0.3-0.9l0.3-0.8l0.6-0.8l0.3-0.8l0.3-0.9l-0.2-0.9v-0.9l-0.2-0.9l-0.2-0.8l-0.2-0.9l-0.2-0.9l-0.3-0.8l-0.5-0.8
		l-0.9,0.3l-0.8,0.5l-0.2,0.8l-0.2,0.9l-0.5,0.6l-0.8-0.3l-0.3-0.9l-0.2-0.8l-0.5-0.8l-0.8,0.2l-0.3,0.9l-0.2,0.8l-0.6,0.6l-0.9,0.2
		h-0.9l-0.8-0.2l-0.9-0.2h-0.9h-0.9l-0.9,0.2h-0.9l-0.9-0.2l-0.8-0.2l-0.9-0.2l-0.8-0.3l-0.9-0.3l-0.8-0.2h-0.9h-0.9l-0.9-0.2
		l-0.8-0.3l-0.9-0.3l-0.8-0.5l-0.5-0.8l-0.3-0.8l-0.3-0.8l-0.3-0.9l-0.5-0.6l-0.6-0.8l-0.8-0.2l-0.9-0.3l-0.8-0.3l-0.8-0.5l-0.8-0.5
		l-0.3-0.6l-0.9,0.3l-0.9,0.2l-0.8,0.5l-0.8,0.3l-0.8,0.3l-0.5,0.8l-0.6,1.1l-0.9-0.3l-0.8,0.3l-0.5,0.8l-0.2,0.8l-0.3,0.9l-0.8,0.5
		l-0.8,0.5H281l-0.8,0.2l-0.9,0.5l-0.8,0.5l-0.8,0.3l-1.2,1.2l-0.8,0.5l-1.2,1.4l-1.4,1.6h-0.6l-0.6-0.5l0.2-1.7v-1.6l0.3-1.2v-1.2
		l0.3-1.4l-0.2-0.8l0.2-0.9l0.2-0.9l0.2-0.9l0.2-0.8v-0.9l-0.6-0.8l-0.6-0.6l-0.8-0.3l-0.9,0.2l-0.9,0.2l-0.6,0.6l-0.5,0.8l-0.3,0.9
		l-0.6,0.5l-0.8,0.5l-0.9-0.3l-0.8-0.5l-0.8-0.5l-0.5-0.8v-0.9l-0.2-0.9v-0.9v-0.9v-0.9l-0.3-0.9l-0.5-0.6l-0.8-0.5l-0.2-0.9
		l-0.5-0.8l-0.3-0.9l-0.5-0.6l-0.6-0.8l-0.8-0.6l-0.8-0.5l-0.6-0.6l-0.6-0.6l-0.6-0.8l0.5-0.9l0.8-0.6l0.2-0.9l-0.2-1.1l-0.6-1.4
		l-1.1-0.6l-1.2-1.1l-0.8-0.6v-0.9l-0.3-0.8l-0.2-0.9l0.5-0.6h0.9l0.8,0.5l0.8-0.5l0.3-0.9l0.2-0.8l0.2-0.9l-0.2-0.9l0.5-0.8
		l0.3-0.8l0.5-0.8l0.3-0.9l-0.2-0.8l-0.8-0.6l-0.9-0.2l-0.8-0.5l-0.5-0.8v-0.9l-0.2-0.9l-0.3-0.8l0.3-0.9l0.2-0.9v-0.9l0.6-0.6
		l0.8-0.5l0.6-0.6l0.2-0.9l-0.5-0.8l-0.8-0.5l-0.5-0.8l0.2-0.9l0.3-0.8l0.5-0.8l0.6-0.8l-0.5-0.6l-0.9,0.2l-0.6-0.2v-0.9l-0.2-0.8
		l-0.5-0.8l-0.6-0.8l-0.6-0.6l-0.8-0.6l-1.1,0.5h-0.9h-0.9l-0.8-0.3h-0.9l-0.8,0.5l-0.5,0.8l-0.5,0.8l-0.3,0.8l-0.3,0.9l-0.2,0.9
		l-0.3,0.8l-0.3,0.8l-0.5,0.8l-0.8,0.5l-0.9,0.3l-0.8,0.3l-0.8,0.3l-0.9,0.3l-0.8,0.3l-0.8,0.2l-0.9,0.2l-0.9,0.2l-0.8,0.3l-0.8,0.6
		l-0.8,0.5l-0.8,0.5l-0.6,0.6l-0.8,0.6l-0.8,0.5l-0.6,0.6l-0.8,0.3l-0.8,0.5l-0.9,0.3l-0.6-0.5l-0.6-0.8l-0.6-0.6l-0.8-0.3l-0.9-0.3
		l-0.8-0.2l-0.8-0.6l-0.8-0.3l-0.8-0.5l-0.5-0.8l0.3-0.8l0.8-0.3l-0.2-0.9l-0.9-0.3l-0.8-0.2l-0.8-0.5l-0.8-0.6l-0.6-0.6l-0.8-0.5
		l-0.8-0.5l-0.6-0.6l-0.5-0.6l-0.6-0.6l-0.8-0.6l-0.6-0.6l-0.8-0.6l-0.8-0.5l-0.8-0.3l-0.9-0.2l-0.8,0.5l-0.5,0.8l-0.6,0.8l-0.5,0.8
		l0.2,0.9l-0.3,0.8l-0.8,0.3l-0.9,0.2h-0.9l-0.6-0.5l-0.5-0.8l-0.8-0.5l-0.8-0.3l-0.9-0.2l-0.9-0.2l-0.8-0.3l-0.6-0.6l-0.6-0.8
		l-0.8-0.5l-0.8,0.5l-0.8,0.5l-0.6,0.6l-0.5,0.8l-0.2,0.9v0.9l-0.3,0.8l-0.8,0.5h-0.8l-0.8-0.3l-0.8-0.6l-0.6-0.5l-0.9-0.3h-0.9
		l-0.9,0.3l-0.8,0.2l-0.8,0.3l-0.9-0.2l-0.3-0.9l-0.8-0.3l-0.8,0.3l-0.8,0.5l-0.8,0.6l-0.8,0.5l-0.8,0.5l-0.6,0.5l-0.8,0.5l-0.8,0.5
		l-0.8,0.6l-0.8,0.5l-0.8,0.3l-0.8-0.3l-0.6-0.8l-0.9-0.2l-0.8,0.2l-0.9,0.5h-0.8l-0.8-0.6l-0.6-0.6l-0.8-0.5l-0.8-0.3l-0.9-0.2
		l-0.9-0.3h-0.8h-0.9l-0.9-0.3l-0.8-0.3l-0.8-0.5l-0.8-0.3h-0.9l-0.9-0.2l-0.8,0.2l-0.5,0.5h-0.8l-1.4-0.2l-0.9,0.5l-0.8,0.3
		l-0.8,0.3l-0.8,0.5l-0.5,0.8l-0.5,0.8l-0.6,0.6l-0.9,0.2l-0.8-0.3l-0.8-0.3l-0.9-0.2l-0.9-0.2h-0.9l-0.8,0.2l-0.9,0.3l-0.8,0.3
		l-0.8,0.6l-0.3,0.8l-0.6,0.8l-0.8,0.5H140l-0.9-0.3l-0.8-0.5l-0.6-0.6l-0.8-0.6l-0.6-0.6l-0.8-0.6l-0.5-0.8l-0.3-0.8l-0.8-1.1
		l-0.8,0.2l-0.9-0.3l-0.8,0.2l-0.9,0.3l-0.9,0.2l-0.8,0.2l-0.9-0.2l-0.8-0.5l-0.6-0.6l-0.8-0.6l-0.6-0.5l-0.8-0.6l-0.8-0.5l-0.8-0.5
		l-0.6-0.8l-0.6-0.6l-0.3-0.9l-0.3-0.8l-0.5-0.8l-0.6-0.5h-0.9l-0.8,0.3l-0.6,0.8l-0.8,0.3l-0.9-0.2l-0.8-0.3l-0.8-0.5l-0.8-0.5
		l-0.6-0.6l-0.6-0.8l-0.5-0.8l-0.6-0.6l-0.9-0.2h-0.9l-0.9,0.2h-0.9l-0.9-0.2l-0.9-0.2l-0.8-0.5l-0.3-0.8l-0.6-0.8l-0.8-0.3L102,358
		l-0.9-0.2l-0.6-0.5l-0.6-0.8l-0.9-0.3l-0.6-0.5l-0.6-0.8l-0.8-0.2l-0.9-0.2l-0.6-0.8l-0.5-0.8l-0.6-0.6l-0.8-0.6l-0.8-0.5l-0.8-0.5
		l-0.8-0.5l-0.8-0.3l-0.9-0.2h-0.8l-0.6,0.8l-0.8,0.5l-0.3-0.8v-0.9l-0.9-0.5l-0.8,0.2l-0.6,0.6l-0.8,0.6l-0.6,0.8l-0.5,0.6
		l-0.8,0.6l-0.6-0.2l-0.5-0.8l-0.6-0.6l-0.8-0.5l-0.8-0.8l-0.5-0.8l-0.3-0.8l0.6-1.1l-1.2-0.6l-0.5-0.8l-0.8-1.1l-0.8-0.3l-0.8-0.5
		l-0.8-0.5l-0.8-0.5l-0.8-0.5l-0.8-0.6l-0.8-0.5l-0.6-0.8l-0.3-0.8l0.3-0.6h0.9l0.8-0.5l0.8-0.5l0.5-0.8l0.2-0.8l-0.6-0.6l-0.8,0.5
		l-0.8,0.5l-0.9,0.3l-0.9-0.2l-0.8-0.3l-0.5-0.8l-0.2-0.8l-0.3-0.9l-0.5-0.6l-0.3-0.9L66,332l-0.3-0.8l-0.5-0.8l-0.9-0.3l-0.8-0.2
		l-0.9-0.2l-0.9-0.2l-0.8-0.3l-0.8-0.5l-0.8-0.5l-0.2-0.9l-0.3-0.8l-0.2-0.9l-0.2-0.9l-0.8-0.5l-0.8,0.3l-0.6,0.6h-0.9l-0.2-0.8
		l-0.2-0.9l0.2-0.9v-0.9l0.2-0.8l0.2-0.9V319l1.1-0.5l0.3-0.8l-0.3-0.9v-0.9l-0.2-0.9l-0.5-0.8l-0.6-0.6l-0.8-0.5l-0.2-0.8l0.5-0.8
		l-0.6-0.6h-0.9l-0.9-0.2l-0.9-0.2l-0.8-0.2h-0.9l-0.9,0.3h-0.9l-0.6-0.5l0.5-0.8l0.9-0.2l0.8-0.2l0.9-0.3l0.8-0.5l0.2-0.9l-0.3-0.8
		l-0.8-0.6l-0.5-0.8l-0.5-0.8l-0.6-0.6l-0.6-0.8l-0.6-0.6l-0.6-0.8l-0.8-0.6l-0.6-0.6l-0.6-0.8l-0.6-0.6l-0.6-0.6l-0.8-0.5l-0.9-0.2
		l-0.5,0.8l-0.5,0.8l-0.8,0.5l-0.9,0.2l-0.6-0.5l0.5-0.8l0.6-0.8l0.5-0.8l0.5-0.8l-0.3-0.8l-0.6-0.6l-0.9-0.3l-0.9-0.2l-0.8-0.3
		l-0.5-0.8l-0.5-0.8l-0.6-0.8l-0.5-0.6l-0.5-0.8l0.2-0.6v-0.9L35,288l0.3-0.8l0.3-0.8l0.8-0.6l0.6-0.5l-0.3-0.9v-0.8l-0.2-1.1
		l0.2-0.8l0.6-0.8l0.5-0.6l0.2-0.9l-0.2-0.9l-0.3-0.8l-0.3-0.9l-0.3-0.8l-0.5-0.8l-0.3-0.8v-0.9l0.5-0.8l0.6-0.8l0.5-0.6l0.3-0.9
		l0.2-0.8v-1.1l-0.2-0.8l-0.2-0.9l-0.2-0.9l-0.6-0.6l-0.8-0.6l-0.5-0.8l0.3-0.8l0.6-0.8l-0.2-0.8l-0.2-0.8l-0.6-0.8l-0.5-0.8
		l-0.6-0.6l-0.8-0.5l-0.8-0.5l-0.8-0.6l-0.6-0.6l-0.6-0.8l-0.8-0.3h-1.1l-0.8-0.2l-0.8-0.3l-0.8-0.6l-0.6-0.6l-0.6-0.8l-0.8-0.5
		l-0.8-0.6l-0.8-0.5l-0.6-0.6l-0.3-0.9l0.2-0.9l0.2-0.9l-0.2-0.9l-0.2-0.8l-0.5-0.8l-0.5-0.9l-0.5-0.6l-0.5-1.2l-0.6-0.8l-0.5-0.8
		l-0.6-0.6l-0.5-0.8l-0.8-0.5l-0.9-0.2h-0.9l-0.8-0.3l-0.8-0.6l-0.2-0.8l-0.5-0.8l-0.6-0.6l-0.8-0.6l-0.8-0.5l-0.8-0.3l-0.9-0.2H8.6
		l-0.9,0.2H6.7L6,234l-0.5-0.6l-0.3-0.9L4.6,232l-0.5-0.9l-0.2-0.8l0.5-0.8l0.8-0.5l0.8-0.3l0.9-0.5l0.5-0.6l0.3-0.8l0.3-0.9
		l0.8-0.3l0.9,0.2l0.8-0.2l0.2-0.9l-0.5-0.8l-0.8-0.5L8.6,223L8.3,222v-0.9l0.3-0.8L8,219.9l-0.3-0.8l-0.6-0.6L6.3,218l-0.9-0.2
		L4.4,218l-0.6-0.6v-0.8l0.2-0.9v-0.9v-0.9v-0.9v-0.9l0.2-0.9l0.6-0.8l0.6-0.6l0.6-0.6l0.6-0.8l0.5-0.6l0.5-0.8L8,206l-0.3-1.1
		l-0.9-0.5H6L5,204.1l-0.6-0.6l-0.8-0.6l-0.8-0.2l-0.9,0.2l-0.5-0.8l-0.3-0.8L1,200.4l-0.8-0.5l-0.8-0.2l-0.9-0.3l-0.9-0.2l-0.8-0.3
		l-0.8-0.3l-0.8-0.6l-0.8-0.3l-0.8-0.3l-0.8-0.5l-0.6-0.6l-0.5-0.8l-0.3-0.9l0.2-0.9l0.5-0.6l0.8-0.3l0.9-0.3l0.6-0.5l0.6-0.8
		l0.5-0.8l0.8-0.3l0.6-0.6l0.5-0.8l0.2-0.9l-0.6-0.6l-0.8-0.6l-0.5-0.6v-0.9V184l0.2-0.9l0.2-0.9l-0.3-0.8h-0.9l-0.8,0.5l-0.8,0.3
		h-0.8l-0.9-0.3l-0.5-0.6l-0.8-0.6l-0.6-0.6l-0.5-0.8l-0.3-0.8v-0.9v-0.9l-0.3-0.9l-0.3-0.8l-0.6-0.6l-0.5-0.8l-0.3-0.8l-0.3-0.9
		l0.2-0.9l0.5-0.8l0.8-0.5l0.8-0.5l0.6-0.6l0.3-0.8L-11,167l-0.9-0.2h-0.8l-0.3-0.9l0.2-0.8l0.3-0.8l1.2-0.2h0.9h0.9l0.9-0.2
		l0.9-0.2l0.9-0.2l0.8-0.2l0.9-0.2H-4l0.9,0.2l0.9,0.5l0.6,0.5l0.8,0.3l0.9,0.3h0.9h0.9l0.9,0.2l0.9-0.2l0.9-0.2l0.9-0.2l0.9,0.2
		l0.8,0.2l0.9,0.2l0.9-0.2l0.8-0.3l0.8-0.3l0.9-0.3l0.8-0.5l0.8-0.5l0.5-0.8l0.6-0.6l0.6-0.8l0.6-0.6l0.8-0.5l0.8-0.6l0.8-0.2
		l0.9-0.2l0.9-0.2l0.8-0.2l0.9-0.2l0.9-0.2h0.9h0.9h0.9h0.9h0.9l0.8-0.3l0.6-0.6l0.3-0.8l0.2-0.9v-0.9l0.2-0.9l0.2-0.9l0.6-0.6
		l0.9-0.3l0.8,0.3l0.8,0.5l-0.2,1.4l0.3,0.9l0.9-0.2l0.6-0.5l0.8-0.6l0.6-0.8l0.6-0.6l0.8-0.5l1.2-0.5l0.8-0.5l0.9-0.3h0.8l0.9-0.5
		l0.8-0.3l0.8-0.5l0.8-0.3h0.9l0.8-0.3l0.3-0.6l0.6-0.8l0.5-0.8l0.6-0.6l0.6-0.6l0.8-0.5l0.9-0.2h0.9l0.9,0.2h0.9h1.1l0.8-0.3
		l0.9-0.3l0.8-0.2l0.9-0.3h0.9l0.8-0.3l0.8-0.3l0.8-0.5l0.9-0.3l0.8-0.2l0.9,0.2l0.6,0.6l0.6,0.8l0.6-0.3l0.8-0.2l0.9-0.2l0.8-0.3
		l0.8-0.3l0.9-0.3h0.9l0.8,0.3l0.9,0.3h0.9l0.9-0.2l0.8-0.3l0.8-0.6l0.6-0.5l0.9-0.2l0.8,0.3l0.8,0.6l0.6-0.5l0.8-0.5l0.8-0.5
		l0.5-0.8l0.2-0.8l0.3-0.9l0.5-0.8l0.6-0.6l0.6-0.6l0.5-0.8l0.5-0.8l0.3-0.8l1.1-0.6l0.8-0.5l0.6-0.6l0.8-0.5l0.6-0.8l-0.2-0.9
		l-0.2-0.8l-0.3-0.9v-0.9l0.5-0.5l0.8-0.5l0.8-0.5l0.9-0.3l0.8-0.3l0.8-0.3l0.9-0.2l0.8-0.3l0.8-0.5l0.8-0.6l0.8-0.5l0.5-0.8
		l0.5-0.8l0.5-0.8l0.6-0.6l0.8-0.5l0.8-0.3h0.9l0.9-0.3l0.9-0.2l0.8-0.2h0.9l0.8,0.3l0.8-0.3l0.8-0.5l0.9-0.2h0.9l0.8,0.5l0.5,0.6
		l0.8,0.5l0.8-0.5l0.9,0.2l0.8,0.2l0.8,0.6l0.8,0.5l0.8,0.5l0.8,0.5l0.5,0.8l0.8-0.2l0.6-0.8l0.3-0.8l-0.2-0.9l-0.2-0.9l-0.3-0.8
		v-1.1l0.2-0.8l0.2-0.9l0.2-0.9l0.2-0.9l0.2-0.9l-0.2-0.8l-0.5-0.8l-0.5-0.8l-0.5-0.8v-0.9l0.6-0.8l0.6-0.6l0.5-0.8l0.2-0.9
		l-0.2-0.9l-0.3-0.8l-0.3-0.8l-0.3-0.9l0.3-0.9l1.2,0.3l0.9,0.2l0.8,0.2h0.9l0.9,0.2l0.9,0.2l0.9,0.2l0.8,0.2l0.9,0.2l0.8,0.3
		l0.9,0.3l0.5,0.6l0.2,0.9l0.6,0.5h0.9l0.9-0.2l0.8-0.3l0.9-0.3l0.8-0.3l0.8-0.3l0.9-0.3l0.6,0.6l-0.5,0.8l-0.5,0.6l-0.3,0.8
		l0.8,0.5l0.9-0.2l0.8-0.2l0.9-0.2l0.9-0.2l0.9-0.2l0.8-0.2l0.9-0.5l0.6-0.5l0.8-0.5h0.9l0.8,0.3l0.6,0.6l0.8,0.5l0.9,0.2l0.9-0.2
		l0.9-0.2h0.9l0.9-0.2l0.8,0.3l0.9,0.2l0.9-0.2h0.9l0.8,0.5h0.8l0.9-0.3l0.8-0.3l0.9-0.2l0.8-0.3l0.6-0.6l-0.5-0.8l-0.3-0.9l0.6-0.5
		l0.8-0.5l0.9-0.2l0.8,0.3l0.5,0.8l0.3,0.8l0.3,0.9l0.5,0.6l0.8,0.5l0.8,0.5l0.8,0.5l0.9,0.3h0.9l0.8,0.2l0.9,0.2l0.9-0.2l0.5-0.8
		l0.6-0.6l0.6-0.8l0.6-0.6l0.8-0.6l0.8-0.5l0.8-0.2h0.9h1.1l0.8,0.2h0.9l0.9-0.2h0.9l0.9-0.3l0.8-0.3l0.8-0.5l0.5-0.8l0.5-0.8
		l0.3-0.8l0.8-0.6l0.8-0.3l0.9-0.3l0.8-0.5l0.6-0.5l0.3-0.9l-0.3-0.8l-0.2-0.9l-0.2-0.8l0.3-0.9l0.6-0.6l0.9-0.2l0.9-0.2l0.9-0.2
		l0.9,0.2l0.8,0.2l0.8,0.5l0.8,0.5l0.8,0.3l0.9,0.3l0.8,0.3l0.9,0.2l0.3-0.6l0.5-0.8l0.8-0.5h0.9h0.9l0.9-0.2h0.9v-0.9l-0.2-0.9
		l-0.3-0.8l-0.2-0.9v-0.9l0.2-0.9l0.3-0.9l0.5-0.8l0.5-0.6l0.8-0.5l0.9-0.3l0.9-0.2l0.9,0.6l0.8,0.5l0.8,0.5l0.8,0.2h0.9l0.8-0.3
		v-0.9l-0.3-0.9l0.2-0.9l0.3-0.8l0.6-0.6h0.9l0.8,0.2l0.9-0.2l0.9-0.3l0.5-0.6l0.6-0.5l0.9,0.2l0.3-0.8l0.6-0.8l0.8-0.3l0.9-0.5h0.8
		l0.9-0.2h1.1l0.8-0.2l0.9-0.2l0.8-0.5l0.5-0.8l0.5-0.8l0.5-0.8l0.3-0.8l0.2-0.9l0.3-0.8l0.5-0.8l0.3-0.9l0.2-0.8l0.3-0.9l0.3-0.8
		l0.3-0.8l0.2-0.9l0.5-0.8l0.8-0.5l0.8,0.5l0.5,0.6l0.9,0.3l0.8,0.2l0.9-0.2l0.8-0.3L238,64l-0.3-0.8l-0.3-0.8l-0.5-0.8l-0.3-0.9
		l-0.2-0.8l-0.3-0.9l-0.3-0.8l-0.2-0.9l-0.3-0.8l-0.3-0.8l-0.3-0.9l0.2-0.9l0.2-0.9l0.2-0.9l-0.3-0.8l-0.3-0.8l-0.5-0.8l-0.6-0.6
		l-0.3-0.9v-0.9l0.5-0.2l0.9-0.3l0.8-0.3l0.9-0.2h0.8h0.9l0.9-0.2l0.5-0.8l-0.6-0.6l-0.5-0.8v-0.9l0.2-0.8l0.2-0.9v-1.1l-0.2-0.9
		l0.2-0.9l0.2-0.8l0.2-0.9l-0.2-0.9l-0.2-0.9l-0.2-0.9l-0.5-0.8l0.2-0.8v-0.9l0.8-0.5l0.9,0.2h0.8l1.4-0.5l-0.2-0.8l-0.6-0.8v-0.9
		l0.5-0.6l-0.3-0.9h-0.9h-0.9l-0.5-0.6l0.5-0.9l0.8-0.5l0.8-0.5l0.2-0.8l-0.8-0.5l-0.6-0.8l-0.2-0.8l-0.6-0.8l-0.5-0.6l0.3-0.8
		l0.6-0.3l-0.5-0.6l-0.6-0.6l0.5-0.8l0.9,0.3l0.6,0.6l0.9,0.2l0.8-0.5l0.5-0.8l-0.3-0.8l-0.6-0.8l-0.6-0.6l-0.9-0.3l-0.8,0.2
		l-0.8-0.5l0.5-0.6l0.9-0.3l0.8-0.3l0.2-0.8l-0.8-0.5v-0.9h0.8l0.9,0.2l0.3-0.8l-0.8-0.6l-0.9-0.2V7.8l0.8-0.6l0.6-0.6l-0.2-0.9
		l0.2-0.8l0.3-0.8l0.2-0.9L242,2.2l-0.2-0.8l0.6-0.5l0.6-0.5l0.5-0.8l0.8-0.8v-0.6l-0.8-0.5l-0.2-0.9V-4V-5l0.2-0.9h0.9l0.8,0.2
		l0.9,0.3l0.8,0.3l0.8,0.6l0.8,0.5l0.8,0.3l0.8-0.5l0.5-0.6l0.9,0.2l0.8,0.6l0.8,0.5l0.6,0.5l0.9,0.3h0.9h0.9l0.9,0.3l0.6,0.6
		l0.9,0.2l0.8,0.3l1.4-4.4l0.6-0.3l0.9,0.3l0.8,0.3l0.8,0.5l0.5,0.8h0.9l0.6,0.6l-0.2,0.9l0.3,0.9l0.3,0.8l0.3,0.8l0.2,0.9l0.3,0.8
		l0.8,0.6l0.8,0.3l0.9,0.2h0.9l0.9,0.2h0.9l0.9-0.2h0.9l0.9-0.2l0.8,0.3l0.8,0.6l0.8,0.5l0.9,0.2l0.8-0.3l0.6-0.6l0.8-0.2l0.8,0.8
		l0.8,0.3l0.6-0.6l0.8,0.5l0.5,0.6l0.8,0.5l0.9,0.3l0.8,0.3h0.9l0.9-0.3l0.8-0.3h0.9l0.6,0.5l0.8,0.6l0.6,0.6h0.9l0.9-0.2l0.8,0.3
		l0.6,0.8l0.8,0.5l0.8,0.2l0.9,0.2l0.8,0.3l0.8,0.5l0.8,0.5l0.8,0.6l0.8,0.5l0.8,0.2h0.9h0.9l0.6,0.5l0.2,0.9l0.5,0.8l0.6,0.8
		l0.8,0.5l0.6,0.6l0.6,0.6l0.9,0.3h0.9h0.9l0.8-0.3l0.9-0.3l0.8-0.3l0.8-0.3l0.8-0.3l0.9-0.3l0.9-0.2l0.8-0.3h0.9l0.9-0.2l0.9-0.3
		h0.8l1.7,1.2h0.9h0.9h1.1h0.9h0.9h0.9h0.8h0.9l0.9-0.3h0.9l0.5,0.8l0.2,0.8l0.5,0.8l0.3,0.9v0.8l-0.3,0.9l-0.3,0.8v0.9l0.3,0.8
		l0.8,0.5l0.9,0.3l0.8-1.1l0.8-0.3l0.9-0.5h0.9l0.9-0.2L341,20l0.5-0.8l0.5-0.8l-0.2-0.8l0.8-0.6l0.8-0.5l0.6-0.8l0.5-0.8l0.2-0.8
		l0.3-0.9l0.2-0.8l0.2-0.9l0.2-0.9l0.3-0.8l0.9-0.3h0.9l0.8-0.3l0.6-0.5l0.2-0.9l0.3-0.8l0.6-0.8l0.9,0.2l0.9,0.5l0.6,0.5l0.9,0.2
		l0.8-0.3l0.8-0.5l0.9-0.3l0.9,0.2l0.8,0.3l0.9,0.2h0.9l0.3,0.8l0.2,0.9l0.3,0.8l0.6,0.8l0.5,0.8l0.3,0.8l0.6,0.6l0.9,0.3l0.5,0.6
		l0.3,0.9l0.3,0.8l0.3,0.9l0.3,0.8l0.8,0.2l0.9-0.2l0.8-0.3l0.8-0.5l0.8-0.6l0.6-0.6l0.6-0.8l0.5-0.8l0.6-0.6l0.6-0.5L373,12h0.9
		l0.9-0.2l0.6-0.8l0.3-0.8l0.5-0.8l0.6-0.8L377.7,8.3L377.7,8.3"/>
</g>
</svg>
