<?xml version="1.0" encoding="utf-8"?>
<!-- Generator: Adobe Illustrator 27.0.0, SVG Export Plug-In . SVG Version: 6.00 Build 0)  -->
<svg version="1.1" id="Layer_1" xmlns="http://www.w3.org/2000/svg" xmlns:xlink="http://www.w3.org/1999/xlink" x="0px" y="0px"
	 viewBox="0 0 500 500" style="enable-background:new 0 0 500 500;" xml:space="preserve">
<style type="text/css">
	.st0{fill:#E74646;stroke:#FFFFFF;stroke-width:4.6041;stroke-linecap:square;stroke-linejoin:bevel;stroke-miterlimit:3.998;}
</style>
<g transform="matrix(0.999751,0,0,0.999751,18.6633,21.7738)">
	<path vector-effect="none" class="st0" d="M151.9,68.5l0.4,0.6l0.4,0.5l0.5,0.6l0.4,0.6l0.4,0.6l0.6,0.2l0.7,0.1l0.7,0.2l0.5,0.5
		l0.2,0.6l-0.4,0.6l-0.4,0.6l-0.5,0.6l-0.4,0.6l0.5,0.4l0.7-0.1l0.6-0.4l0.4-0.6l0.4-0.6l0.7,0.1l0.6,0.4l0.5,0.5l0.5,0.5l0.5,0.6
		l0.5,0.5l0.6,0.5l0.5,0.6l0.5,0.5l0.5,0.6l0.5,0.5l0.4,0.6l0.4,0.6l0.6,0.5l0.2,0.6l-0.1,0.7l-0.6,0.4l-0.7,0.2l-0.6,0.1l-0.7,0.1
		l-0.4,0.6l0.5,0.4h0.7l0.7-0.2h0.7l0.6,0.1l0.7,0.1l0.7,0.1h0.7l0.5,0.5l-0.4,0.6l0.1,0.6l0.6,0.4l0.5,0.5l0.4,0.6l0.1,0.7v0.7
		l0.2,0.7l-0.2,0.6l-0.8,0.4v0.7l-0.1,0.7l-0.1,0.6v0.7l-0.1,0.7l0.1,0.7l0.1,0.6h0.7l0.5-0.5l0.6-0.2l0.6,0.4l0.1,0.7l0.1,0.7
		l0.2,0.6l0.1,0.7l0.6,0.4l0.6,0.4l0.6,0.2l0.7,0.1l0.7,0.1l0.6,0.1l0.7,0.2l0.4,0.6l0.2,0.6l0.4,0.6l0.2,0.7l0.4,0.5l0.2,0.7
		l0.1,0.6l0.4,0.6l0.6,0.2l0.7,0.1l0.7-0.2l0.6-0.4l0.6-0.4l0.5,0.5l-0.1,0.6l-0.4,0.6l-0.6,0.4l-0.6,0.4h-0.7l-0.2,0.5l0.2,0.6
		l0.5,0.6l0.6,0.4l0.6,0.5l0.6,0.4l0.6,0.4l0.6,0.4l0.6,0.4l0.6,0.2l0.6,0.8l0.4,0.6l1,0.5l-0.5,0.8l0.2,0.6l0.4,0.6l0.6,0.6
		l0.6,0.4l0.5,0.5l0.4,0.6l0.5,0.1l0.6-0.5l0.4-0.5l0.5-0.6l0.6-0.5l0.5-0.5l0.6-0.1l0.7,0.4v0.7l0.2,0.6l0.6-0.4l0.5-0.6h0.6
		l0.7,0.1l0.6,0.2l0.6,0.4l0.6,0.4l0.6,0.4l0.6,0.5l0.5,0.5l0.4,0.6l0.5,0.6l0.7,0.1l0.6,0.1l0.5,0.6l0.5,0.4l0.7,0.2l0.5,0.6
		l0.5,0.4l0.7,0.1l0.7-0.1l0.6,0.2l0.5,0.6l0.2,0.6l0.6,0.4l0.7,0.1l0.7,0.1h0.7l0.7-0.1h0.7l0.7,0.1l0.5,0.5l0.4,0.6l0.5,0.6
		l0.5,0.5l0.6,0.4l0.6,0.4l0.6,0.2l0.7,0.1l0.6-0.2l0.5-0.6l0.6-0.2h0.7l0.5,0.4l0.4,0.6l0.2,0.6l0.2,0.7l0.5,0.5l0.5,0.6l0.6,0.4
		l0.6,0.4l0.6,0.5l0.5,0.4l0.6,0.5l0.5,0.5l0.6,0.4l0.7,0.1l0.6-0.1l0.7-0.1l0.7-0.2l0.6-0.1l0.7,0.2l0.6-0.1l0.6,0.8l0.2,0.6
		l0.4,0.6l0.6,0.5l0.5,0.5l0.6,0.5l0.5,0.5l0.6,0.4l0.7,0.2h0.6l0.6-0.4l0.5-0.6l0.2-0.6l0.6-0.5l0.6-0.2l0.7-0.2l0.6-0.1h0.7
		l0.7,0.1l0.7,0.1l0.6,0.2l0.6,0.2l0.7-0.1l0.5-0.5l0.4-0.6l0.4-0.6l0.6-0.4l0.6-0.2l0.6-0.2l0.7-0.4l1.1,0.1h0.6l0.4-0.4l0.6-0.1
		l0.7,0.1h0.7l0.6,0.2l0.6,0.4l0.6,0.2l0.7,0.2h0.7h0.6l0.7,0.2l0.7,0.1l0.6,0.2l0.6,0.4l0.5,0.5l0.6,0.5h0.6l0.7-0.4l0.6-0.1
		l0.7,0.1l0.5,0.6l0.6,0.2l0.6-0.2l0.6-0.4l0.6-0.5l0.6-0.4l0.6-0.4l0.5-0.4l0.6-0.4l0.6-0.4l0.6-0.5l0.6-0.4l0.6-0.2l0.6,0.2
		l0.2,0.7l0.7,0.1l0.6-0.2l0.6-0.1l0.7-0.2h0.7l0.7,0.2l0.5,0.4l0.6,0.5l0.6,0.2h0.6l0.6-0.4l0.2-0.6v-0.7l0.1-0.7l0.4-0.6l0.5-0.5
		l0.6-0.4l0.6-0.4l0.6,0.4l0.5,0.6l0.5,0.5l0.6,0.2l0.7,0.1l0.7,0.1l0.6,0.2l0.6,0.4l0.4,0.6l0.5,0.4h0.7l0.7-0.1l0.6-0.2l0.2-0.6
		l-0.1-0.7l0.4-0.6l0.5-0.6l0.4-0.6l0.6-0.4l0.7,0.1l0.6,0.2l0.6,0.4l0.6,0.5l0.5,0.5l0.6,0.5l0.5,0.5l0.4,0.5l0.5,0.5l0.6,0.4
		l0.6,0.4l0.5,0.5l0.6,0.5l0.6,0.4l0.6,0.1l0.7,0.2l0.1,0.7l-0.6,0.2l-0.2,0.6l0.4,0.6l0.6,0.4l0.6,0.2l0.6,0.5l0.6,0.1l0.7,0.2
		l0.6,0.2l0.5,0.5l0.5,0.6l0.5,0.4l0.7-0.2l0.6-0.4l0.6-0.2l0.5-0.5l0.6-0.4l0.6-0.5l0.5-0.5l0.6-0.4l0.6-0.4l0.6-0.5l0.6-0.2
		l0.7-0.1l0.7-0.1l0.6-0.1l0.6-0.2l0.7-0.2l0.6-0.2l0.6-0.2l0.7-0.2l0.6-0.4l0.4-0.6l0.2-0.6l0.2-0.6l0.1-0.7l0.2-0.7l0.2-0.6
		l0.4-0.6l0.4-0.6l0.6-0.4h0.7l0.6,0.2h0.7h0.7l0.8-0.4l0.6,0.5l0.5,0.5l0.5,0.6l0.4,0.6l0.1,0.6v0.7l0.5,0.1l0.7-0.1l0.4,0.5
		l-0.5,0.6l-0.4,0.6l-0.2,0.6l-0.1,0.7l0.4,0.6l0.6,0.4l0.4,0.6l-0.1,0.7l-0.5,0.5l-0.6,0.4l-0.5,0.5v0.7l-0.1,0.7l-0.2,0.7l0.2,0.6
		l0.1,0.7v0.7l0.4,0.6l0.6,0.4l0.7,0.1l0.6,0.5l0.1,0.6l-0.2,0.7l-0.4,0.6l-0.2,0.6l-0.4,0.6l0.1,0.7l-0.1,0.7l-0.1,0.6l-0.2,0.7
		l-0.6,0.4l-0.6-0.4h-0.7l-0.4,0.5l0.1,0.7l0.2,0.6v0.7l0.6,0.5l1,0.8l0.8,0.5l0.5,1.1l0.1,0.8l-0.1,0.7l-0.6,0.5l-0.4,0.7l0.5,0.6
		l0.5,0.5l0.5,0.5l0.6,0.4l0.6,0.5l0.5,0.6l0.4,0.5l0.2,0.7l0.4,0.6l0.1,0.7l0.6,0.4l0.4,0.5l0.2,0.7v0.7v0.7v0.7l0.1,0.7v0.7
		l0.4,0.6l0.6,0.4l0.6,0.4l0.7,0.2l0.6-0.4l0.5-0.4l0.2-0.7l0.4-0.6l0.5-0.5l0.7-0.1l0.7-0.1l0.6,0.2l0.5,0.5l0.5,0.6v0.7l-0.1,0.6
		l-0.1,0.7l-0.1,0.7l-0.1,0.7l0.1,0.6l-0.2,1.1v1l-0.2,1v1.2l-0.1,1.3l0.5,0.4h0.5l1.1-1.2l1-1.1l0.6-0.4l1-1l0.6-0.2l0.6-0.4
		l0.7-0.4l0.6-0.1h0.7l0.6-0.4l0.6-0.4l0.2-0.7l0.1-0.6l0.4-0.6l0.6-0.2l0.7,0.2l0.5-0.8l0.4-0.6l0.6-0.2l0.6-0.2l0.6-0.4l0.7-0.1
		l0.7-0.2l0.2,0.5l0.6,0.4l0.6,0.4l0.6,0.2l0.7,0.2l0.6,0.1l0.5,0.6l0.4,0.5l0.2,0.7l0.2,0.6l0.2,0.6l0.4,0.6l0.6,0.4l0.7,0.2
		l0.6,0.2l0.7,0.1h0.7h0.7l0.6,0.1l0.7,0.2l0.6,0.2l0.7,0.1l0.6,0.1l0.7,0.1h0.7l0.7-0.1h0.7h0.7l0.7,0.1l0.6,0.1h0.7l0.7-0.1
		l0.5-0.5l0.1-0.6l0.2-0.7l0.6-0.1l0.4,0.6l0.1,0.6l0.2,0.7l0.6,0.2l0.4-0.5l0.1-0.7l0.1-0.6l0.6-0.4l0.7-0.2l0.4,0.6l0.2,0.6
		l0.1,0.7l0.1,0.7l0.1,0.6l0.1,0.7v0.7l0.1,0.7l-0.2,0.7l-0.2,0.6l-0.5,0.6l-0.2,0.6l-0.2,0.7l-0.1,0.6l0.1,0.7l-0.1,0.7v0.7v0.7
		l-0.1,0.7v0.7v0.7l0.4,0.6l0.2,0.6l0.2,0.4l0.5-0.5l0.5-0.5l0.7-0.2l0.6-0.4l0.6-0.1l0.7-0.4h0.6l0.6,0.5l0.5,0.5l0.5,0.6l0.6,0.4
		l0.6,0.2l0.6-0.4l1,0.4l0.5,0.6l0.4,0.5l0.6,0.5h0.6l0.7-0.1l0.7-0.2l0.6,0.4l0.5,0.5l0.4,0.6l0.1,0.7l0.2,0.6l0.4,0.6l0.6,0.1
		l0.6,0.1l0.5,0.6l0.2,0.6l0.6-0.1l0.7-0.1l0.4-0.6l0.5-0.6l0.7,0.1l0.6,0.2l0.7,0.2h0.7l0.6-0.2l0.6-0.4l0.6-0.4l0.6-0.4l0.6-0.4
		l0.5-0.5l0.7-0.1l0.5,0.5l0.2,0.6l0.4,0.6l0.6,0.4l0.5-0.4l0.2-0.6l0.2-0.7l-0.1-0.7v-0.7v-0.7l0.7-0.2h0.6l0.6,0.5l0.6,0.5
		l0.6,0.2l0.7,0.1h0.7l0.6-0.2l0.5-0.5l0.5-0.5l-0.1-0.7l-0.1-0.7l-0.1-0.7l0.1-0.6l0.4-0.6l0.6-0.5l0.4-0.6l0.5-0.6l0.5-0.6
		l0.2-0.6l0.5-0.6l0.5-0.5l0.6-0.4l0.6-0.2l0.1,0.6l-0.1,0.7v0.7l0.1,0.7l0.1,0.7l0.1,0.6l0.6,0.4l0.7,0.1l0.6,0.4l0.4,0.6v0.7
		l-0.1,0.7v0.7v0.7v0.7v0.7l-0.1,0.7v0.7v0.7v0.7l0.1,0.7l0.2,0.6l0.6,0.5l0.6,0.2l0.6,0.2l0.6,0.5l0.1,0.6l0.1,0.8l0.6,0.1l0.6-0.1
		l0.7,0.1l0.6,0.4h0.7l0.6-0.2l0.6-0.4l0.6-0.5l0.6-0.1l0.7-0.2l0.6-0.2l0.1,0.7v0.7l-0.2,0.6l0.1,0.8l0.1,0.6l0.4,0.6l0.6,0.5
		l0.6-0.1l0.7-0.1l0.6-0.2l0.6-0.4l0.6-0.2l0.6,0.4l0.4,0.6v0.8l-0.2,0.6l0.2,0.7l0.5,0.5l0.2,0.6l0.2,0.7l0.2,0.6l0.4,0.7l0.7-0.1
		l0.7,0.1l0.6,0.2l0.6,0.4l0.6,0.5l0.4,0.6l0.2,0.6v0.7l-0.1,0.7l0.1,0.7l0.1,0.7l0.2,0.6l0.4,0.6l0.4,0.6l0.5,0.5l0.6,0.5l0.6,0.2
		l0.6,0.4h0.6l0.4-0.6l0.2-0.6l0.5-0.5l0.5-0.5l0.5-0.6l0.2-0.6l0.2-0.7l0.4-0.6l0.5-0.4l0.7,0.1l0.6,0.2l0.6,0.2l0.7,0.1l0.6,0.2
		l0.6,0.5l0.4,0.6l0.5,0.6l0.4,0.5l0.5,0.6l0.4,0.6l0.4,0.5l0.5,0.5l0.5,0.5l0.4,0.6h0.6l0.6-0.4l0.7-0.1h0.7l0.7-0.2l0.6-0.4
		l0.5-0.5l0.5-0.5l0.7-0.1l0.7,0.2l0.6,0.4l0.4,0.5l0.5,0.8v0.8l0.1,0.6l0.6,0.5l0.6,0.2l0.6,0.2l0.6,0.4l0.4,0.6l-0.1,0.7l0.1,0.7
		l0.1,0.7l0.6,0.2l0.7-0.2l0.6-0.2h0.7l0.6,0.4l0.1,0.7l0.1,0.6l0.6,0.5l0.6,0.2l0.7-0.1l0.7-0.1l0.6,0.1l0.7,0.2l0.1,0.7l0.1,0.7
		l0.2,0.6l0.5,0.5l-0.2,0.7l-0.4,0.5l-0.5,0.6l-0.7,0.2h-0.7l-0.6,0.1l-0.7,0.1l-0.7,0.1l-0.6,0.4l-0.6,0.4l-0.6,0.4l-0.4,0.6
		l-0.5,0.6l-0.4,0.5l-0.5,0.6l-0.6,0.2l-0.6,0.2l-0.7,0.2l-0.6,0.4l-0.6,0.4l-0.6,0.4l-0.5,0.5l-0.6,0.5l-0.4,0.6l-0.2,0.6v0.7
		l0.2,0.6l0.2,0.6l0.2,0.7l0.4,0.5l0.4,0.6l0.1,0.7l-0.5,0.4l-0.6,0.4l-0.5,0.6l-0.4,0.4l-0.7,0.2l-0.6,0.1l-0.7-0.2l-0.7-0.1
		l-0.6,0.4l-0.4,0.6l-0.2,0.6l-0.1,0.7l-0.1,0.6v0.7l-0.1,0.7l0.1,0.7l-0.1,0.7l0.2,0.7v0.4l0.6,0.4l0.6,0.4l0.6,0.5l0.4,0.6
		l0.4,0.6l0.1,0.7l0.1,0.7l0.1,0.6l0.4,0.6h0.6l0.7-0.4h0.7l0.7,0.1l0.6,0.4l0.5,0.6l0.2,0.6l0.2,0.6v0.7l0.4,0.6l0.5,0.6l0.4,0.5
		l0.6,0.5l0.4,0.6v0.7l-0.1,0.7v0.6l-0.2,0.7l-0.2,0.6l-0.2,0.7l0.1,0.6l0.6,0.5l0.5,0.5l0.6,0.5l0.6,0.4l0.2,0.2l-0.5,0.5l-0.6,0.4
		l-0.6,0.2l-0.6,0.6l-0.2,0.6l-0.1,0.6l-0.1,0.7l0.1,0.7l0.2,0.6l0.5,0.6l0.2,0.6v0.7v0.6l0.1,0.7l0.2,0.7l0.7-0.1l0.6-0.2h0.7
		l0.7-0.1l0.7,0.1l0.6,0.4l0.5,0.6l0.4,0.6l0.2,0.6l0.1,0.7l0.2,0.6l0.7,0.4l0.6,0.4l0.5,0.5l0.6,0.5l0.6,0.4l0.6,0.4l0.5,0.5
		l0.5,0.6l0.1,0.7l-0.1,0.6l-0.1,0.7l-0.1,0.7v0.7l0.1,0.7l0.4,0.6l0.5,0.5l0.5,0.5l0.6,0.5v0.7l-0.1,0.7l-0.1,0.6v0.7v0.7l0.1,0.7
		l0.1,0.7l0.4,0.6l0.4,0.6v0.7l-0.2,0.6l-0.2,0.6v0.7v0.7l-0.1,0.7v0.7l0.2,0.7l0.4,0.6l0.2,0.6l0.2,0.6l0.4,0.6l0.5,0.5l0.5,0.6
		l0.5,0.6l0.2,0.6l0.2,0.6l0.1,0.7v0.7v0.6l0.2,0.6v0.7v1l-0.6,0.4l-0.6,0.5l-0.4,0.5l-0.5,0.6l-0.5,0.5l-0.5,0.6l-0.5,0.5l-0.5,0.5
		l-0.5,0.6l-0.5,0.5l-0.4,0.6l-0.6,0.4l-0.7,0.2l-0.8,0.4l-0.4-0.4l-0.6,0.2l-0.7,0.2l-0.6,0.1l-0.7,0.2l-0.6,0.2l-0.7,0.1l-0.7,0.1
		l-0.6,0.1l-0.6-0.1h-0.7l-0.7-0.1L463,318l-0.7-0.1l-0.6-0.2l-0.6-0.4l-0.6-0.4l-0.6-0.4l-0.5-0.6l-0.6-0.4l-0.6-0.5l-0.6-0.4
		l-0.6-0.4l-0.6-0.4l-0.6-0.2l-0.6-0.4l-0.6-0.4l-0.5-0.5l-0.6-0.4l-0.4-0.6l-0.5-0.5l-0.5-0.5l-0.6-0.4l-0.6-0.4l-0.6-0.2l-0.7-0.1
		l-0.7,0.2l-0.6,0.2l-0.6,0.1l-0.7,0.1l-0.7,0.2l-0.6,0.1l-0.7,0.1l-0.7,0.2l-0.7-0.1l-0.7,0.1H442h-0.7h-0.7l-0.7-0.1l-0.5,0.1
		l-0.4,0.6l-0.5,0.6l-0.5,0.5l-0.5,0.4l-0.5,0.6l-0.1,0.7l-0.1,0.6l-0.1,0.7l-0.1,0.7v0.7v0.7l-0.2,0.6l-0.5,0.5l-0.4,0.6l-0.5,0.6
		l-0.5,0.5l-0.5,0.5l-0.5,0.5l-0.6,0.5l-0.5,0.5l-0.5,0.6l-0.5,0.5l-0.5,0.5l-0.6,0.4l-0.6,0.4l-0.6,0.4l-0.6,0.4l-0.7,0.1l-0.6,0.1
		l-0.6,0.4l-0.5,0.5l-0.6,0.5l-0.6,0.2l-0.6-0.4v-0.7l-0.1-0.6l-0.4-0.6h-0.7l-0.7,0.2l-0.6,0.1h-0.7l-0.7,0.1l-0.7,0.1H419h-0.7
		h-0.7l-0.6-0.2l-0.5-0.6l-0.2-0.6l-0.4-0.6l-0.7-0.2l-0.7-0.1l-0.4,0.5l0.1,0.7l0.2,0.6l0.4,0.6l0.6,0.4l0.5,0.4l0.2,0.7l0.1,0.6
		v0.7v0.7l0.4,0.6l0.7,0.1l0.7-0.1l0.2,0.7v0.6l-0.4,0.7l-0.2,0.6l-0.2,0.6v0.7l-0.1,0.7v0.7v1l-1.3-0.4l-0.6-0.2h-0.7l-0.6-0.2
		l-0.7-0.1l-0.6-0.4v-0.6l0.6-0.6l0.4-0.5l-0.2-0.6l-0.7,0.1l-0.6,0.4l-0.6,0.4l-0.7-0.1l-0.7,0.1l-0.6-0.1l-0.6-0.5l-0.6-0.4
		l-0.6-0.2l-0.7-0.2l-0.7-0.1l-0.5,0.5l-0.7,0.7l-1.6,1.8l-1.1,1.3l-1.8,1.4l-0.6,1.8l0.1,1.6l-0.2,1.8l-1.6,0.8l-2.4,0.7l-2.3,0.5
		H391l-2.1-0.6l-1.3-0.7l-2.1-0.2l-1.6,1.1l-0.8,0.6l-2.4,1.4l-2.7,1.1l-1.6,1l-1.3,1.7h-0.8l-0.7-0.1l-0.6,0.1l-0.6,0.4l-0.6-0.2
		l-0.6-0.5l-0.6-0.2h-0.7h-0.7l-0.6,0.4l-0.6,0.4l-0.6,0.4l-0.6,0.2l-0.7-0.1l-0.5-0.5l-0.5-0.6l-0.5-0.5l-0.4-0.4l-0.6-0.2h-0.7
		h-0.7l-0.7,0.1l-0.6,0.5l-0.2,0.6l-0.1,0.7l0.1,0.7v0.7l-0.1,0.7l-0.1,0.6l-0.1,0.7l-0.2,0.6l-0.2,0.7l0.5,0.5l0.4,0.6l-0.1,0.7
		l-0.5,0.5l-0.6,0.2h-0.7h-0.7l-0.7,0.1l-0.5,0.5l-0.5,0.5l-0.5,0.5l-0.6,0.2l-0.7-0.1l-0.6-0.1l-0.7-0.1h-0.7l-0.7,0.1h-0.7h-0.6
		l-0.6-0.5l-0.7,0.1l-0.8,0.1l-0.1,0.8v0.6l-0.1,0.7l-0.2,0.7l-0.4,0.5l-0.5,0.6l-0.4,0.6l-0.5,0.6l-0.5,0.4l-0.6,0.5l-0.5,0.5
		l-0.6,0.5l-0.4,0.6l-0.5,0.5l-0.5,0.6l-0.4,0.6l-0.2,0.6l-0.2,0.6v0.7l-0.2,0.7v0.7l-0.2,0.7l-0.7-0.1l-0.7,0.1l-0.6,0.4l-0.6,0.1
		l-0.7,0.1l-0.7-0.1l-0.1-0.7l-0.1-0.6l-0.1-0.7l-0.7-0.1l-0.6,0.4l-0.6-0.2l-0.5-0.5L334,370l-0.1-0.7l-0.4-0.6l-0.6-0.2l-0.7,0.1
		l-0.7,0.1l-0.6,0.2l-0.6,0.5l-0.5,0.5l-0.6,0.5l-0.5,0.5l-0.7,0.6l-0.4-0.6l-0.1-0.7l-0.1-0.7v-0.7l-0.1-0.7h-0.6l-0.5,0.6
		l-0.2,0.6l-0.5,0.5l-0.6,0.2l-0.4-0.8l0.1-0.7l0.1-0.7l-0.2-0.6l-0.5-0.6l-0.6-0.4l-0.5-0.5v-0.7l0.2-0.6l0.4-0.6l0.4-0.6l0.4-0.6
		l0.4-0.6l0.4-0.6l0.4-0.6l0.1-0.6l-0.5-0.5l-0.6-0.4h-0.7h-0.7l-0.7-0.1l-0.4-0.6l-0.4-0.5l-0.7-0.1l-0.6-0.2l-0.5-0.5l-0.4-0.6
		l0.4-0.4l0.4-0.6v-0.7l0.1-0.7l0.2-0.6l0.4-0.6l0.4-0.6l0.5-0.5l0.6-0.5l0.5-0.4l0.4-0.6l-0.1-0.7l-0.2-0.6l0.2-0.7l0.5-0.4
		l0.7-0.1l0.7-0.1l0.6-0.2l0.6-0.2l0.7-0.1l0.2-0.4l0.2-0.7l0.2-0.6l0.4-0.6l0.2-0.6l0.2-0.7v-0.6l-0.4-0.6l0.1-0.7v-0.7l0.1-0.7
		l0.2-0.6l0.6-0.5l0.5-0.5l0.1-0.7v-0.7l0.4-0.5l0.6-0.4l0.7-0.2l0.6-0.1l0.7-0.2l0.6-0.1l0.6-0.5v-0.7l-0.1-0.6l-0.2-0.7l-0.5,0.5
		l-0.2,0.6l-0.6,0.4l-0.6,0.4l-0.7,0.1l-0.6,0.2l-0.7,0.1l-0.6-0.2l-0.6-0.4l-0.6-0.4l-0.6-0.2l-0.2-0.7l-0.4-0.5l-0.4-0.6l-0.6-0.5
		l-0.5-0.5l-0.6-0.5l-0.5-0.4l-0.6-0.4l-0.5-0.6l-0.2-0.6l-0.2-0.6l-0.2-0.7l-0.6-0.2h-0.7h-0.7l-0.7-0.1h-0.7H318l-0.7-0.1h-0.7
		h-0.6l-0.5-0.6l0.1-0.7V325l-0.1-0.6l0.1-0.7l-0.2-0.7l-0.4-0.6l-0.4-0.5l-0.2-0.7l0.1-0.7l0.4-0.6l0.2-0.6l0.1-0.7l0.2-0.6
		l0.1-0.7l0.4-0.5l0.4-0.7v-0.7l-0.1-0.5h-0.6l-0.7,0.2l-0.6,0.2l-0.5,0.5l-0.5,0.6l-0.5,0.6l-0.5,0.5l-0.5,0.5l-0.5,0.5l-0.6,0.5
		l-0.5,0.4l-0.6,0.5l-0.5,0.5l-0.6,0.4l-0.6,0.5l-0.5,0.4L307,322l-0.5,0.5l-0.5,0.6l-0.6,0.5l-0.5,0.5l-0.5,0.6l-0.5,0.5l-0.5,0.6
		l-0.6,0.5l-0.5,0.5l-0.4,0.5l-0.5,0.6l-0.2,0.6l-0.4,0.6l-0.5,0.6l-0.5,0.2l-0.2,0.6l-0.5,0.6l-0.4,0.5l-0.5,0.6l-0.2,0.6l-0.1,0.7
		l-0.5,0.5l-0.6,0.5l-0.5,0.6l-0.5,0.5l-0.6,0.5l-0.4,0.6l-0.5,0.6l-0.4,0.5l-0.5,0.6l-0.5,0.6l-0.4,0.5l-0.4,0.6l-0.5,0.6l-0.4,0.6
		l-0.4,0.6l-0.4,0.6l-0.2,0.6l-0.4,0.5l-0.5,0.6l-0.6,0.4l-0.6-0.4l-0.5-0.6l-0.5-0.5l-0.5-0.5l-0.7,0.1l-0.6,0.4l-0.2,0.6l0.1,0.7
		l0.1,0.7l-0.5,0.1l-0.6-0.2l-0.4-0.6l-0.4-0.6l0.1-0.7v-0.7l-0.1-0.7l-0.2-0.6l-0.5-0.6l-0.5-0.5l-0.7-0.1l-0.6,0.2l-0.6,0.4
		l-0.6,0.2l-0.6,0.5l-0.5,0.4l-0.6,0.4l-0.7,0.2l-0.6,0.2l-0.6-0.2l-0.2-0.7l-0.2-0.6l-0.1-0.7v-0.7v-0.7v-0.7l-0.1-1l-0.4-0.6
		l-0.2-0.6l-0.1-0.7l-0.2-0.7l-0.1-0.6v-0.7l-0.2-0.6v-0.8l-0.2-0.6l0.4-0.4l0.6-0.5l0.6-0.4l0.6-0.4l0.6-0.4l0.6-0.2l0.6-0.4
		l0.6-0.4l0.5-0.5l0.5-0.6l0.4-0.5l0.5-0.6l0.4-0.6l0.2-0.6l0.2-0.7l0.1-0.6l0.1-0.7v-0.7l-0.2-0.6l-0.6-0.4l-0.5,0.4l-0.5,0.5
		l-0.6,0.6l-0.5,0.5l-0.5,0.5l-0.4,0.6l-0.4,0.5l-0.4,0.6l-0.4,0.6l-0.5,0.6l-0.6,0.2l-0.7-0.1l-0.2-0.6l0.1-0.6v-0.7v-0.7l-0.1-0.7
		l-0.2-0.6l-0.2-0.7l-0.2-0.6l-0.1-0.7l-0.4-0.6l-0.5-0.5l-0.6-0.2l-0.7,0.2l-0.5,0.5l-0.5,0.5l-0.5,0.6l-0.5,0.5l-0.5,0.6l-0.5,0.5
		l-0.6,0.5l-0.6,0.4l-0.5,0.4l-0.7,0.2l0.2,0.7l-0.2,0.7l-0.2,0.6l-0.2,0.6l-0.4,0.6l-0.4,0.6l-0.5,0.6l-0.4,0.5l-0.4,0.6l-0.5,0.6
		l-0.6,0.4h-0.7l-0.7,0.1l-0.4,0.6l-0.4,0.6l-0.2,0.6l-0.4,0.6l-0.5,0.5l-0.6,0.4l-0.7-0.1l-0.6-0.4l-0.6-0.4h-0.7h-0.7l-0.6,0.1
		l-0.7,0.1l-0.6-0.5l-0.5-0.5l-0.6-0.2l-0.6,0.4l-0.6,0.4l-0.5,0.5l-0.6,0.4h-0.7l-0.6-0.2l-0.7-0.1l-0.4-0.6l-0.4-0.6l-0.6-0.4
		h-0.7l-0.7,0.1l-0.7,0.1l-0.7,0.1l-0.4,0.6l-0.4,0.6l-0.4,0.6l-0.2,0.6l-0.4,0.6l-0.4,0.6l-0.4,0.6l-0.6,0.4l-0.6,0.4l-0.4,0.5
		l-0.6,0.7h-0.6l-0.7-0.1l-0.7,0.2l-0.4,0.6l-0.2,0.7l-0.7,0.1l-0.5,0.5l-0.2,0.6l-0.5,0.5l-1-0.1v-0.6l0.1-0.7l0.2-0.6l0.5-0.6
		l0.4-0.6l0.2-0.6l0.4-0.6l0.1-0.7l-0.2-0.6l-0.1-0.7l-0.5-0.5l-0.6-0.4l-0.7-0.1l-0.6-0.1l-0.7-0.1L232,333l-0.4-0.6l0.1-0.7
		l0.1-0.7l0.1-0.6l-0.1-0.7h-0.7l-0.6,0.4l-0.4,0.6l-0.4,0.6l-0.6,0.4l-0.6-0.1l-0.4-0.5l0.1-0.7v-0.7l-0.7-0.1l-0.7,0.1l-0.6,0.4
		l-0.6,0.1H225l-0.5-0.5l-0.7-0.2l-0.6-0.4l-0.6-0.4l-0.6,0.2l-0.7-0.1l-0.6-0.4l-0.2-0.7v-0.7l0.4-0.6l0.1-0.6l0.2-0.7l0.1-0.6
		v-0.7l0.1-0.7l-0.1-0.7l-0.2-0.7l-0.6-0.2l-0.5,0.4l-0.4,0.6l-0.4,0.7l-0.8-0.5l-0.6-0.5l-0.7-0.8l-0.5,0.1l-0.6-0.4l-0.5-0.5
		l-0.6-0.4l-0.6-0.4l-0.6-0.5l-0.2-0.6l0.2-0.7l0.5-0.5l0.1-0.6l-0.7-0.1l-0.7-0.1l-0.6,0.2l-0.6-0.4l-0.6-0.5l-0.5-0.5l-0.5-0.5
		l-0.7-0.1l-0.7-0.1l-0.7-0.1l-0.6-0.2l-0.6-0.2l-0.6-0.2l-0.7-0.2l-0.6-0.4l-0.2-0.6l-0.6-0.5l-0.5-0.5l-0.7-0.1l-0.6,0.1l-0.6,0.2
		l-0.7-0.4l-0.5-0.5l-0.4-0.5l-0.6,0.4l-0.5,0.5l-0.4,0.6l-0.4,0.6l-0.6,0.4h-0.7l-0.7-0.2l-0.6-0.1l-0.6-0.4l-0.6-0.4h-0.7
		l-0.6,0.5l-0.6,0.2h-0.7l-0.7,0.1h-0.7l-0.7,0.1h-0.7l-0.6-0.2l-0.7-0.2l-0.5-0.5v-0.6l-0.1-0.7l-0.5-0.6h-0.6l-0.7,0.4l-0.6,0.2
		l-0.6,0.4l-0.6,0.1l-0.7,0.1l-0.6-0.4l-0.6-0.4l-0.6-0.4l-0.6,0.2l-0.6,0.4l-0.7,0.1l-0.7-0.1l-0.4-0.5v-0.7l-0.2-0.7l-0.5-0.5
		l-0.6-0.1l-1,0.1l-0.5-0.6l-0.5-0.4l-0.7-0.2l-0.6-0.4l-0.5-0.5l-0.5-0.6l-0.2-0.5l-0.5-0.4l-0.4-0.6l-0.5-0.6l-0.6-0.4l-0.4-0.6
		l-0.5-0.6h-0.7l-0.6-0.1l-0.7-0.1l-0.7-0.1h-0.7h-0.7l-0.6,0.1l-0.7,0.1l-0.7-0.1l-0.7-0.1l-0.7-0.1l-0.6-0.1l-0.7-0.1l-0.7-0.1
		l-0.7-0.1l-0.6-0.1l-0.7-0.1h-0.7h-0.7h-0.8l-0.7,0.1h-0.6l-0.7,0.1h-0.7h-0.8l-0.6,0.1L150,301l-0.7-0.1l-0.6-0.4l-0.4-0.6
		l-0.2-0.7l0.1-0.6v-0.7l-0.2-0.6l-0.4-0.6l-0.7-0.2l-0.6,0.1l-0.7-0.1l-0.6-0.2l-0.7-0.1h-0.7h-0.7l-0.6,0.1l-0.6,0.5l-0.6,0.2
		l-0.7,0.1l-0.7-0.2l-0.6-0.2l-0.7-0.1h-0.6l-0.5,0.5l0.2,0.7l0.1,0.7l0.2,0.6l0.2,0.6l0.1,0.7l-0.4,0.5l-0.6,0.6l-0.6,0.2l-0.6,0.2
		l-0.6,0.4l-0.7,0.1l-0.5-0.4l-0.5-0.6l-0.4-0.6l-0.5-0.5l-0.6-0.4l-0.6-0.2l-0.6-0.2l-0.7,0.2l-0.6,0.2l-0.6,0.4l-0.6,0.2l-0.7,0.1
		h-0.7l-0.7,0.1l-0.6,0.2l-0.7,0.1h-0.7l-0.7,0.2l-0.6,0.2l-0.6,0.2l-0.5,0.5l-0.5,0.5l0.5,0.6l0.6,0.2l0.7,0.1l0.7,0.1l0.6,0.2
		l0.5,0.5l-0.5,0.6v0.7l-0.2,0.6l-0.2,0.6l-0.5,0.6l-0.4,0.6l-0.4,0.5l-0.4,0.6l-0.4,0.6v0.7v0.7l0.4,0.6l0.6,0.4l0.6,0.5l0.2,0.6
		v0.7l0.1,0.7l0.4,0.5l0.6,0.5l0.6,0.4l0.6,0.2h0.8l0.6,0.1l0.6,0.2l0.5,0.6l0.4,0.6l0.4,0.6l0.2,0.6l0.4,0.6l0.2,0.6v0.7l-0.1,0.7
		l-0.2,0.7l-0.7,0.1l-0.5,0.4l-0.6,0.5l-0.5,0.5l-0.6,0.4l-0.6,0.4l-0.6,0.5l-0.6,0.4l-0.6,0.4l-0.6,0.2l-0.6,0.4l-0.6,0.2l-0.6,0.1
		l-0.7,0.2l-0.7-0.1l-0.6-0.2l-0.7-0.1l-0.6,0.2l-0.4,0.6l-0.1,0.7l0.2,0.6l-0.1,0.6l-0.7,0.2l-0.5,0.6l-0.5,0.5l-0.6,0.5l-0.6,0.2
		l-0.6,0.2h-0.7h-0.7l-0.7-0.1l-0.4-0.6l-0.1-0.6l-0.2-0.7l-0.4-0.6l-1-0.4l-0.6,0.2l-0.7,0.2h-0.6l-0.5-0.4l-0.1-0.7l-0.4-0.6
		l-0.4-0.6l-0.5-0.5l-0.2-0.7l-0.4-0.6l-0.6-0.2l-0.6-0.4l-0.7-0.2l-0.5-0.4l-0.6-0.4l-0.6-0.4l-0.6-0.2h-0.7l-0.7,0.1l-0.7-0.1
		l-0.5-0.4l-0.5-0.6l-0.5-0.5l-0.6-0.4l-0.6-0.2l-0.6-0.4l-0.6-0.4h-0.7l-0.6,0.2l-0.7-0.1l-0.7,0.1l-0.7,0.1l-0.6,0.2l-0.7,0.1
		l-0.6,0.2l-0.7,0.1l-0.2,0.7h-0.7l-0.6-0.5l-0.5-0.4l-0.7-0.1h-0.7l-0.7,0.2l-0.6,0.2l-0.6,0.2l-0.7,0.2l-0.6-0.1l-0.7-0.2
		l-0.6-0.2l-0.7-0.1l-0.6,0.1l-0.7,0.1l-0.7,0.1l-0.6,0.2l-0.7,0.1l-0.8,0.2l-0.5,0.5l-0.7,0.2l-0.4,0.5l-0.2,0.7l-0.1,0.6l-0.1,0.7
		l-0.1,0.7l0.1,0.7l-0.1,0.6l-0.4,0.6l-0.6,0.2H73l-0.7,0.1l-0.6,0.1l-0.6,0.2l-0.1,0.7l0.2,0.6l0.2,0.6l0.2,0.7l0.1,0.6v0.7
		l0.1,0.5l-0.6,0.2h-0.7l-0.7-0.1l-0.7,0.1l-0.6,0.1l-0.7-0.1l-0.2-0.7l-0.4-0.5l-0.7-0.1l-0.6-0.2l-0.7-0.2l-0.4-0.5l-0.7-0.1
		l-0.6,0.2l-0.6,0.2l-0.5,0.5l-0.2,0.7l-0.6,0.2l-0.6,0.1l-0.7-0.2l-0.6-0.2l-0.6-0.1l-0.6,0.5l-0.5,0.6v0.7l-0.1,0.7l-0.2,0.6
		l-0.4,0.5l-0.6,0.5l-0.6,0.4l-0.4,1v0.7l0.4,0.6v0.7l-0.5,0.4l-0.6-0.4l-0.7-0.2l-0.6,0.1v0.7l0.2,0.6l-0.4,0.5l-0.7,0.2l-0.6,0.1
		l-0.6,0.5l-0.2,0.6v0.7l0.1,0.7l-0.2,0.6l-0.6,0.5l-0.6,0.4l-0.4,0.5l-0.1,0.7v0.7l-0.1,0.7l-0.1,0.6l-0.6,0.5l-0.6,0.1l-0.5,0.4
		v0.7l-0.2,0.7l-0.1,0.6l0.1,0.7l0.4,0.6l0.1,0.7l0.2,0.6l0.1,0.7l-0.4,0.6l-0.5,0.5l-0.5,0.6l-0.5,0.5l-0.4,0.6l-0.6,0.4l-0.5,0.5
		l-0.7,0.1h-0.7l-0.6,0.2l-0.6,0.4l-0.1,0.7l0.2,0.6l0.1,0.7l0.2,0.6l0.1,0.7v0.7l-0.4,0.6l-0.2,0.6l0.2,0.7l0.1,0.6v0.7l-0.4,0.6
		l-0.5,0.5l-0.7-0.1h-1l-0.4-0.7l-0.4-0.5l-0.5-0.6l-0.5-0.6l-0.5-0.5l-0.5-0.6l-0.5-0.4l-0.7-0.2l-0.6-0.2l-0.7-0.1l-0.7-0.1
		l-0.6-0.2l-0.5-0.6l-0.2-0.6v-0.7l0.2-0.6l0.2-0.7l0.2-0.6l0.1-0.7l0.1-0.6l0.1-0.7l-0.1-0.7l-0.2-0.6l-0.4-0.6l-0.2-0.6v-0.7
		l-0.1-0.7l-0.2-0.6l-0.1-0.7v-0.7l-0.1-0.7l-0.1-0.7l-0.1-0.6l-0.4-0.6l-0.5-0.5l-0.6-0.5L30,348l-0.6-0.5L29,348l-0.5,0.6
		l-0.4,0.6l-0.5,0.5l-0.5,0.6l-0.5,0.5l-0.5,0.4l-0.7,0.2l-0.6,0.4l-0.6,0.4l-0.5,0.4l-0.7,0.4l-0.6,0.2l-0.6,0.2l-0.7,0.1l-0.6,0.1
		l-0.8,0.2V353l0.4-0.6l0.2-0.6l0.5-0.6l0.4-0.6l0.1-0.7l0.1-0.6l0.1-0.7l0.1-0.7l0.1-0.7l-0.2-0.6l-0.4-0.6l-0.5-0.5l-0.6-0.4
		l-0.6-0.1l-0.7-0.2l-0.6-0.4l-0.5-0.6l-0.2-0.6v-0.7l0.1-0.6l0.4-0.6l0.4-0.6l0.2-0.6l0.1-0.7l0.1-0.7l-0.1-0.7l0.1-0.7l0.4-0.6
		l0.6-0.4l0.5-0.5v-0.7l-0.2-0.6l-0.6-0.4h-0.6l-0.5-0.5v-0.7l0.2-0.6l-0.1-0.7l-0.5-0.5l-0.6-0.2l-0.6-0.4l-0.5-0.5h-0.6l-0.5,0.5
		l-0.5,0.5l-0.7,0.2l-0.6,0.1l-0.6-0.2v-0.7l0.1-0.7l0.1-0.6v-0.7l-0.6-0.5l-0.6-0.1l-0.5,0.2l-0.2,0.7l-0.2,0.6l-0.5,0.2l-0.5-0.6
		l-0.5-0.6l-0.5-0.4l-0.6-0.5l-0.6-0.2L6.9,327l-0.6-0.4L5.9,326l-0.1-0.7v-0.7v-0.7l-0.1-0.7l-0.1-0.7l0.1-0.7l0.1-0.6v-0.7v-0.7
		l-0.2-0.7l-0.1-0.6l-0.1-0.7l-0.4-0.6l-0.4-0.6l-0.1-0.6L4.2,315L4,314.4l-0.2-0.6H3.1l-0.6-0.4l-0.6-0.4L1.2,313l-0.5,0.5
		l-0.5,0.5l-0.4,0.6l-0.4,0.6l-0.4,0.6l-0.2,0.6l-0.5,0.5l-0.6,0.2l-0.6,0.4l-0.5,0.6l-0.2,0.6l-0.5,0.6l-0.2,0.6l-0.1,0.7l0.2,0.6
		l0.4,0.6l-0.1,0.7l-0.2,0.6l-0.6,0.4l-0.7-0.1l-0.6,0.2l0.4,0.6l0.6,0.5l-0.6,0.4l-0.6-0.2l-0.7-0.2l-0.6-0.4l-0.5-0.4l-0.6-0.5
		l-0.5-0.5l-0.4-0.6l0.2-0.6v-0.7l-0.4-0.6l-0.6-0.5l-0.5-0.6l-0.1-0.6l0.2-0.6l0.1-0.7l-0.2-0.7l-0.2-0.5l-0.5-0.5l-0.6,0.1
		l-0.5,0.5l-0.6,0.5l-0.2-0.7l-0.1-0.7l0.2-0.6l0.2-0.6l0.4-0.6l0.6-0.4l0.7-0.1l0.5-0.6l0.5-0.4l0.7-0.1l0.6,0.2l0.6,0.4l0.6,0.5
		l0.6,0.2l0.7-0.2l0.6-0.1l0.7,0.2l0.6-0.2l0.5-0.6l0.1-0.6v-0.7v-0.8l-0.1-0.6l-0.2-0.7l-0.2-0.6l0.2-0.6l0.2-0.7l0.2-0.6l0.4-0.6
		l0.6-0.5l-0.1-0.6l-0.2-0.6v-0.7l-0.1-0.8l0.1-0.6l0.1-0.7l0.1-0.7l-0.4-0.6h-0.7l-0.6-0.2l-0.4-0.5l0.2-0.7l0.6-0.2l0.6-0.4
		l0.4-0.6l0.5-0.6l0.2-0.6l0.4-0.6l0.1-0.6l0.4-0.7l0.2-0.6l0.1-0.7l-0.1-0.6l-0.1-0.7v-0.7l0.2-0.7l0.1-0.6l0.2-0.7l0.2-0.6
		l0.2-0.6v-0.7l-0.1-0.7l-0.1-0.6l-0.4-0.6l-0.5-0.6l-0.6-0.4l-0.5-0.6l-0.5-0.6l-0.4-0.5l-0.6-0.5l-0.5-0.6l-0.4-0.6l-0.2-0.6
		l-0.2-0.6l-0.5-0.5l-0.6-0.5l-0.6-0.4l-0.6-0.4l-0.6-0.4l-0.6-0.1l-0.7-0.2l-0.6-0.4l-0.4-0.5l-0.1-0.7l0.1-0.7l0.5-0.5l0.4-0.6
		v-0.7l-0.1-0.7v-0.7l0.1-0.7l0.1-0.6V269l0.2-0.7l0.7-0.1l0.6-0.2l0.7-0.1l0.7-0.2l0.6-0.1h0.7l0.7,0.1h0.7h0.7h0.7l0.6,0.1
		l0.7,0.1l0.7,0.1l0.6-0.2l0.4-0.6l0.5-0.4l0.7-0.2l0.6-0.2l0.6-0.4l0.4-0.6l0.2-0.6V264v-0.7l0.1-0.7l0.4-0.6l0.5-0.6h0.6h0.7
		l0.7,0.1l0.6,0.2l0.4,0.6l0.2,0.7l0.4,0.5l0.5,0.6l0.2,0.6l0.2,0.7l0.2,0.6l0.5,0.5l0.6,0.4l0.6,0.5l0.6-0.4l0.6-0.2H13l0.6,0.2
		l0.6,0.5l0.5,0.5l0.7-0.1l0.6-0.4l0.5-0.4l0.6-0.5l0.5-0.5l0.5-0.6l0.5-0.5l0.5-0.6l0.5-0.5l0.6-0.5l0.5-0.5l0.5-0.6l0.5-0.4
		l0.6-0.5l0.6-0.4l0.5-0.5l0.6-0.5l0.5-0.5l0.4-0.6l0.4-0.6l0.6-0.4l0.7,0.1l0.6,0.1l0.7,0.2l0.5-0.4l0.6-0.4l0.6-0.4l0.6-0.1
		l0.6-0.2l0.7-0.1h0.7l0.7,0.1l0.6,0.1l0.7,0.2l0.2,1.1l-0.2,0.6l-0.5,0.5l-0.4,0.6l-0.2,0.7l0.2,0.6l0.1,0.7l-0.4,0.6l-0.1,0.6
		l-0.2,0.7l0.4,0.5l0.7,0.2l0.6,0.1l0.7,0.2h0.7l0.8-0.2l0.5-0.1l0.7-0.1l0.6-0.4l0.6-0.4l0.6-0.5l0.5-0.4l0.6-0.4l0.6-0.5l0.6-0.2
		l0.5-0.6l-0.4-0.6l0.7-0.2l0.6-0.1v-0.6l0.5-0.2l0.6,0.1l0.5-0.4l0.4-0.6l0.5-0.5l0.5,0.2l0.6,0.5l0.6,0.4l0.2,0.7l-0.1,0.6
		l-0.1,0.7l0.6,0.4l0.5,0.4l0.2,0.7l0.2,0.6v0.7l-0.2,0.6l-0.4,0.6l0.1,0.7l0.1,0.6l0.1,0.7l0.4,0.5l0.6-0.5l0.5-0.5l0.4-0.6
		l0.4-0.5l0.4-0.6l0.5-0.6l0.4-0.6l0.5-0.5l0.4-0.6l0.4-0.6l0.4-0.6l0.5-0.5l0.5-0.6l0.4-0.5l0.6-0.5l0.6-0.4l0.5-0.5l0.5-0.6
		l0.5-0.5l0.5-0.6l0.5-0.5l0.5-0.5l0.5-0.6l0.5-0.5l0.6-0.2l0.6,0.4l0.6,0.6l0.4,0.6l0.5,0.5l0.4-0.4l0.1-0.7l0.1-0.7v-0.7l0.4-0.6
		l0.6-0.4l0.7,0.1h0.7l0.6-0.4l0.6-0.4l0.6-0.5l0.4-0.5l0.1-0.7l0.1-0.7l0.4-0.6l0.4-0.6l0.6-0.4l0.5-0.4l0.5-0.6l0.4-0.6l0.4-0.5
		l0.5-0.6l0.5-0.6l0.5-0.5l0.6-0.4l0.6-0.2l0.6-0.2l0.7-0.4l0.6-0.2l0.5-0.5l0.5-0.5l0.6-0.5l0.5-0.5l0.6-0.4l0.6-0.2l0.7-0.1
		l0.7-0.1l0.6-0.4l0.6-0.2l0.6-0.2l0.7-0.1l0.7-0.1l0.7,0.1l0.7-0.1l0.6,0.2l0.6,0.4l0.6,0.4l0.7,0.1l0.6-0.1l0.7-0.1l0.5-0.5
		l0.4-0.6l0.5-0.2l0.1,0.7l0.5,0.5v0.7l0.2,0.6v0.7l0.1,0.7l0.2,0.6l0.4,0.6l0.6,0.5l0.5,0.5l0.6,0.4h0.7l0.6-0.2l0.6-0.4l0.5-0.4
		l0.5-0.6l0.5-0.7l0.2-0.7l0.5-0.6l0.2-0.6l0.1-0.7l0.1-0.6l0.1-0.7l0.2-0.6l0.2-0.7l0.4-0.6l0.4-0.5l0.2-0.7l0.2-0.6l0.4-0.6
		l0.2-0.6v-0.7l-0.1-0.7l-0.5-0.5l-0.5-0.6l-0.5-0.6l-0.1-0.6l-0.2-0.7l-0.5-0.5l-0.5-0.5l-0.5-0.6l0.1-0.7l0.1-0.6l0.1-0.7l0.2-0.7
		l0.1-0.6l0.2-0.6l0.5-0.6l0.7-0.1l0.7-0.1l0.6-0.2l0.5-0.5l0.4-0.6l0.4-0.6l0.2-0.7l-0.1-0.7l-0.2-0.6l-0.2-0.6v-0.7l-0.2-0.6
		l-0.1-0.7l-0.1-0.7l-0.1-0.7l-0.1-0.6l-0.2-0.7l-0.1-0.6l-0.4-0.6l0.2-0.7l0.2-0.6l0.6-0.4l-0.4-0.6l-0.2-0.7l-0.1-0.7l-0.1-0.6
		l-0.1-0.7l-0.1-0.6L100,207l-0.4-0.6l-0.2-0.6l0.1-0.7l0.2-0.6l-0.2-0.7l-0.4-0.5l-0.7-0.1l-0.6-0.2l-0.6-0.2l-0.7-0.2l-0.7-0.1
		l-0.7-0.1l-0.5-0.4l-0.6-0.4l-0.6-0.5l-0.5-0.5l-0.5-0.6l-0.6-0.5l-0.5-0.5l-0.5,0.1l-0.6-0.5l-0.5-0.6l-0.7-0.2l-0.6-0.2l-0.8-0.2
		l0.1-0.7l0.6-0.6l0.6-0.2l0.6-0.4l0.4-0.6l-0.6-0.1l-0.7-0.1h-0.7h-0.7l-0.7-0.1l-0.6-0.2l-0.6-0.2h-0.7l-0.6-0.2l-0.6-0.2
		l-0.6-0.5l-0.5-0.5l-0.5-0.4l-0.7-0.2l-0.7-0.1l-0.6-0.1h-0.7h-0.7l-0.7,0.1l-0.6,0.1l-0.7,0.2l-0.6,0.2l-0.6-0.1l-0.6-0.5
		l-0.2-0.6l0.1-0.7l0.2-0.7l0.2-0.6l0.5-0.5l0.4-0.6l-0.1-0.7l-0.5-0.5l-0.2-0.6l0.1-0.7l0.1-0.7l-0.2-0.7v-0.7v-0.7l-0.4-0.6
		l-0.2-0.6l-0.5-0.6l-0.6-0.4l-0.5-0.4l-0.6-0.4l-0.7-0.2l-0.6-0.1l-0.7-0.1l-0.7-0.1l-0.7-0.1l-0.6-0.2l-0.6-0.2l-0.7-0.2l-0.6-0.2
		l-0.1-0.6l-0.2-0.6l-0.1-0.7v-0.7l0.1-0.7l0.4-0.5l0.6-0.2l0.6-0.2l0.7-0.2l0.6-0.4l0.6-0.4l-0.4-0.6l-0.6-0.5l-0.4-0.6v-0.7
		l-0.1-0.6l-0.2-0.7l-0.5-0.5l-0.4-0.5l-0.4-0.6l-0.5-0.6l-0.4-0.6v-0.6v-1v-0.6l-0.1-0.6l-0.2-0.6l0.1-0.6l-0.1-0.5l-0.1-0.7
		l-0.1-1.1l0.1-1.3l0.4-0.7l0.2-0.7l0.1-0.6l0.1-0.7l0.1-0.7l0.2-0.6l0.6-0.5l0.4-0.6v-0.7l0.4-0.6l-0.1-0.7l-0.5-0.6l-0.4-0.6
		l-0.2-0.6l-0.2-0.6l-0.1-0.7l0.1-0.7l0.1-0.7l0.1-0.7l0.1-0.7l-0.1-0.6l-0.2-0.7l-0.6-0.4l-0.7-0.2l-0.6-0.2l-0.7-0.1l-0.5-0.8
		l-0.1-0.6l-0.4-0.7l-0.1-0.6l-0.2-0.6l-0.5-0.6l-0.5-0.5l-0.7-0.2l-0.4-0.5V137l0.2-0.6l0.2-0.6l0.5-0.6v-0.7v-0.7V133l-0.2-0.7
		l-0.1-0.6V131l0.1-0.7v-0.7l0.1-0.7l0.2-0.6l0.4-0.6l0.6-0.5l0.5-0.5l0.6-0.5l0.4-0.6l0.2-0.6l0.1-1.1l0.4-0.5l0.5-0.5l0.4-0.4
		l0.6-0.4l0.6-0.5l0.6-0.4l0.6-0.2l0.6-0.2l0.6-0.5l0.2-0.6l-0.1-0.7l-0.2-0.6l-0.4-0.6l-0.4-0.6l0.1-0.7l0.5-0.5l0.6-0.2h0.7
		l0.7-0.1l0.7-0.1h0.7l0.7-0.1l0.6-0.1l0.6-0.4l0.8,0.5l0.6,0.4l0.6,0.4l0.6,0.2l0.6,0.2l0.6,0.2l0.7,0.1l0.7,0.1h0.7h0.7l0.7,0.1
		l0.7-0.1l0.6-0.4l0.6-0.1l0.7-0.2h0.7l0.7-0.1l0.7-0.1l0.6,0.2l0.6,0.4l0.5,0.6l0.6,0.1l0.7-0.2l0.6,0.1l0.5,0.5l0.1,0.7l0.5,0.5
		l0.6,0.2l0.8,0.1l0.6,0.1l0.7-0.1l0.7-0.1l0.6-0.4l0.4-0.6l0.2-0.6l0.2-0.6l0.5-0.6l0.5-0.6l-0.1-0.6l0.2-0.7l0.6-0.1l0.7,0.1
		l0.6,0.4l0.6,0.4l0.6,0.2l0.6,0.2l0.7,0.4l0.6-0.1l0.6-0.5l0.6-0.5l0.6-0.1l0.2-0.5l0.2-0.6l0.1-0.7l-0.6-0.5l-0.6-0.4l-0.5-0.5
		l-0.4-0.6l-0.2-0.6l-0.4-0.6l-0.4-0.6l0.2-0.7l0.2-0.6l0.2-0.6l0.2-0.7V106v-0.6l-0.2-0.7l-0.6-0.5l-0.5-0.6l-0.4-0.5l-0.2-0.7
		v-0.7v-0.7l0.4-0.6L100,100l-0.6-0.4l-0.6-0.2L98.2,99l-0.6-0.5L97,98.3l-0.6-0.4l-0.6-0.4l-0.6-0.4l-0.6-0.4L94,96.5l-0.6-0.2
		L92.8,96l-0.7-0.2l-0.6-0.2l-0.6-0.2l-0.6,0.2l-0.7,0.2l-0.6-0.1l-0.7-0.1h-0.7l-0.7-0.1l-0.5-0.5l-0.6-0.4l-0.6-0.2l-0.7-0.1h-0.7
		h-0.7l-0.7,0.1l-0.6,0.1l-0.7,0.4l-0.5,0.4l-0.6,0.5L79,95.5L78.4,95l-0.2-0.6L77.7,94l-0.2-0.7v-0.6l0.1-0.7l0.2-0.6l0.1-0.7
		l0.2-0.7l0.1-0.6l0.2-0.7l0.2-0.6v-0.7l0.1-0.7l0.1-0.7V85l0.1-0.7v-0.7v-0.7v-0.7l-0.4-0.6l-0.5-0.4l-0.7-0.4L77,80.6l-0.5-0.5
		l-0.6-0.4l-0.6-0.2l-0.7-0.4L74,78.9l-0.6-0.2l-0.7-0.1L72,78.3L71.3,78l-0.6-0.1L70,78l-0.7,0.1l-0.7,0.1l-0.6,0.4l-0.6-0.2
		l-0.5-0.5l-0.6,0.4L65.8,78l-0.5-0.5l-0.6,0.1l-0.6-0.5l-0.6-0.4l-0.7-0.1l-0.6-0.2l-0.6-0.1l-0.7-0.2L60.1,76l-0.7-0.1l-0.6-0.1
		L58,75.6l-0.6-0.4l0.4-0.4l0.5-0.5l0.6-0.5l0.4-0.6l0.6-0.5l0.2-0.6l0.4-0.6l0.6-0.4l0.5-0.6l0.1-0.6l0.4-0.7l0.6-0.2l0.6-0.2
		l0.7-0.1l0.7,0.1l0.7,0.1l0.6,0.4l0.6,0.2l0.6,0.1l0.5-0.5l0.4-0.6l0.1-0.7l-0.1-0.7l0.1-0.7l0.7,0.1l0.7,0.1l0.5,0.5l0.4,0.6
		l0.5,0.5h0.6l0.6-0.4l0.7-0.1l0.6,0.4l0.2,0.6l0.5,0.6l0.6,0.2l0.7,0.2l0.7,0.1H77l0.7-0.1l0.6-0.1l0.7-0.1l0.7-0.1l0.6-0.1
		l0.7-0.1l0.7-0.2l0.6-0.1l0.7-0.1h0.7l0.7,0.2l0.6,0.2l0.6,0.2l0.7,0.2l0.6,0.2l0.6,0.2l0.6,0.5l0.6,0.2l0.6,0.4l0.6,0.4l0.6,0.2
		l0.7-0.1l0.7-0.2l0.6,0.1l0.6,0.4l0.4,0.6h0.7l0.7-0.1l0.6-0.4l0.6-0.2h0.7h0.7l0.7,0.1h0.7h0.7l0.7,0.1l0.7,0.1l0.6,0.1l0.6,0.4
		l0.6,0.4l0.6,0.5l0.5,0.6l0.4,0.5l0.5,0.6l0.7,0.1l0.7-0.1l0.7-0.1l0.7,0.1l0.7-0.1l0.7-0.1l0.6-0.1l0.7-0.1l0.7-0.1l0.6-0.2
		l0.7-0.1l0.6-0.2l0.7-0.1h0.7l0.7,0.1h0.7l0.7-0.1h0.7l0.6,0.1h0.7l0.6-0.2l0.6-0.4l0.5-0.6l0.5-0.5l0.1-0.6l0.7-0.2l0.6-0.4
		l0.5-0.5l0.5-0.6l0.4-0.6v-0.7l0.4-0.5l0.7,0.1l0.7,0.2l0.6,0.2l0.6,0.2l0.5,0.5v0.7l0.1,0.6l0.2,0.7l0.1,0.6l0.2,0.7l0.1,0.7
		l-0.2,0.6l-0.1,0.7v0.7l0.5,0.5l0.7,0.1l0.6-0.2l0.6-0.4l0.6-0.5l0.6,0.1l0.6,0.4l0.4,0.7l0.2,0.6l0.2,0.6l0.4,0.5l0.2,0.4l0.5,0.6
		l0.6,0.4l0.6-0.1l0.5-0.6l0.1-0.6l0.2-0.7l0.5-0.6l0.5-0.4l0.6-0.4l0.6-0.2l0.7-0.1h0.7l0.7,0.1l0.7-0.2l0.5-0.5l0.1-0.7v-0.7
		l0.1-0.7l0.2-0.6L143,72l0.6-0.2l0.7-0.1l0.7,0.2l0.6,0.1l0.7,0.1l0.7-0.1l0.7-0.2l0.5-0.5l0.5-0.5l0.5-0.5l0.4-0.6l0.4-0.6
		l0.5-0.5l0.7-0.1L151.9,68.5L151.9,68.5"/>
</g>
</svg>
