<?xml version="1.0" encoding="utf-8"?>
<!-- Generator: Adobe Illustrator 27.0.0, SVG Export Plug-In . SVG Version: 6.00 Build 0)  -->
<svg version="1.1" id="Layer_1" xmlns="http://www.w3.org/2000/svg" xmlns:xlink="http://www.w3.org/1999/xlink" x="0px" y="0px"
	 viewBox="0 0 500 500" style="enable-background:new 0 0 500 500;" xml:space="preserve">
<style type="text/css">
	.st0{fill:#E74646;stroke:#FFFFFF;stroke-width:4.6041;stroke-linecap:square;stroke-linejoin:bevel;stroke-miterlimit:3.998;}
</style>
<g transform="matrix(0.999751,0,0,0.999751,18.6633,21.7738)">
	<path vector-effect="none" class="st0" d="M415.5,79.7l0.3,0.7l0.3,0.7l0.4,0.7l0.1,0.9l0.1,0.9l0.1,0.9v0.9v0.9v0.9l0.4,0.7
		l0.7,0.1l0.9,0.1l0.7-0.6l0.4-0.4l0.3,0.9l0.1,0.9l0.1,0.9l0.3,0.9l0.6,0.6l0.7,0.4l0.9,0.1l0.7,0.3l0.3,0.7l-0.1,0.9l-0.1,0.7
		l-0.1,0.9l0.4,0.7l0.6,0.6l0.9,0.3l0.7,0.4l0.7,0.1h0.9l0.9,0.1L430,98l0.7,0.1l0.6,0.6l0.3,0.7l0.1,0.9l-0.3,0.7l-0.3,0.9l0.7,0.6
		l0.1,0.9v0.9l-0.1,0.9v0.9l-0.3,0.7l-0.1,0.7l-0.3,0.9l-0.4,0.7l-0.1,0.7l-0.3,0.9v0.7v1l0.1,0.7l0.3,0.9l0.3,0.7v0.9l-0.1,0.9
		l-0.1,0.9l-0.1,0.7l-0.4,0.7l-0.4,0.7l-0.6,0.7l-0.6,0.4l-0.7,0.7l0.4,0.7l0.7,0.6l0.7,0.3l0.7,0.4l0.7,0.6l0.6,0.6l0.7,0.4
		l0.7,0.4l0.7,0.4l0.7,0.4l0.7,0.6l0.7,0.1l0.9,0.1l0.7,0.4l0.3,0.7l0.1,0.9l-0.4,0.6l-0.6,0.7l-0.7,0.6l-0.4,0.6l-0.1,0.9l0.7,0.6
		l0.7,0.3l0.7,0.3l0.1,0.9l0.7,0.4l0.7,0.3l0.9,0.3l0.4,0.6l0.3,1.2l-0.4,0.7l-0.3,0.7l-0.1,0.9l-0.1,0.9l-0.3,0.7l-0.6,0.7
		l-0.4,0.7l-0.4,0.6l-0.6,0.7l-0.7,0.6l-0.6,0.6l-0.4,0.7l-0.4,0.7l-0.1,0.9l-0.3,0.7L435,150l-0.6,0.6h-0.9l-0.7,0.3l-0.6,0.6
		l-0.6,0.7l-0.4,0.7l-0.6,0.6l-0.4,0.7l-0.4,0.7l-0.7,0.6l-0.7,0.4l-0.7,0.1h-0.9l-0.9,0.1l-0.9,0.3h-0.7l-0.7-0.3l-0.7-0.3
		l-0.4,0.6l0.1,0.9v1v0.9l0.7,0.3l0.3,0.7l0.1,0.9l0.3,0.7l0.4,0.7l0.6,0.6l0.4,0.7l0.1,0.9l0.3,1l-0.7,0.4l-0.9,0.3l-0.6,0.4
		l-0.6,0.6l-0.7,0.4l-0.9-0.1l-0.9-0.1l-0.7,0.3l-0.7,0.3l-0.6,0.6l-0.7,0.6l-0.6,0.6l-0.4,0.7l-0.4,0.7l-0.6,1l-0.9,0.4l-0.9,0.3
		H413l-0.7-0.4l-0.4-0.7l-0.3-0.7l-0.7-0.1l-0.6,0.6l0.3,0.9l-0.4,0.7l-0.6,0.6l-0.6,0.4l-0.7,0.4l-0.9,0.4l-0.7,0.1l-0.9,0.1
		l-0.7,0.3l-0.6,0.6l-0.7,0.6l-0.7,0.1l-0.9,0.3l-0.3,0.7l0.1,0.7l-0.4,0.7l-0.3,0.7l-0.4,0.7l-0.1,0.9l-0.1,0.9l0.3,0.9l0.6,0.6
		l0.7,0.4l0.6,0.6l0.3,0.7l0.1,0.9l-0.1,0.7l-0.1,0.9l-0.1,0.7l-0.4,0.9l-0.3,0.7l-0.6,0.6l-0.6,0.7l-0.6,0.6l-0.6,0.7l-0.6,0.6
		l-0.3,0.7v0.9v0.9L398,198l-0.7,0.4l-0.6,0.4l-0.7,0.6l-0.4,0.7l-0.4,0.7l-0.4,0.7l-0.4,0.7l-0.4,0.7l-0.6,0.6l-0.6,0.4l-0.6,0.6
		l-0.4,0.7l-0.1,0.9l0.1,0.9l-0.1,0.9l-0.4,0.7l-0.3,0.7l-0.1,0.9l-0.3,0.7l-0.3,0.9l-0.1,0.7l-0.3,0.9v0.7l0.6,0.6l0.7,0.1l0.9,0.1
		l0.6,0.6l0.3,0.9l-0.3,0.7l-0.4,0.7l-0.3,0.7l-0.4,0.7l-0.3,0.7l-0.1,0.9l0.1,0.9l0.1,0.9l-0.4,1l0.4,0.7l0.3,0.7v0.9l-0.1,0.9
		l0.3,0.7l0.3,0.7l0.3,0.9l0.3,0.7l0.4,0.7l0.7,0.4l0.7-0.1l0.6-0.6h0.7l0.4,0.7l0.6,0.6l0.7,0.3l0.9,0.3h0.7l0.6-0.6l0.6-0.6
		l0.7-0.6h0.9l0.7,0.1l0.9-0.1l0.7-0.3l0.6-0.6l0.9-0.1h0.9h0.9l0.7-0.1l0.9-0.3l0.7-0.4l0.4-0.6l0.6-0.6l0.9-0.3l0.7-0.1l0.4,0.7
		l0.1,0.9v0.9v0.9l-0.1,0.9l-0.1,0.9l-0.3,0.7l-0.1,0.7l0.1,0.9l0.6,0.7v0.7l-0.1,0.9l-0.4,0.7l-0.3,0.7l-0.4,0.7l-0.3,0.7l-0.4,0.7
		l-0.4,0.7l-0.3,0.7l-0.4,0.7l-0.3,0.7l-0.3,0.7l-0.4,0.7l-0.3,0.9l-0.4,0.7l-0.3,0.6l-0.6,0.7l-0.6,0.9l0.4,0.6v0.9l-0.4,0.6
		l-0.6,0.7l-0.1,0.9l0.1,0.7l0.9-0.3l0.7-0.3l0.7,0.3l0.3,0.9l0.3,0.7l0.3,0.7l0.4,0.7l0.3,0.7l0.3,0.7l0.6,0.7l0.6,0.6l0.9,0.3
		l0.7,0.3l0.6,0.7l0.4,0.6l0.3,0.9l0.4,0.6l0.7,0.6l0.7,0.4l0.7,0.4l0.7,0.1l0.1,0.9l-0.3,0.9l-0.6,0.6l-0.3,0.7l-0.3,0.9l0.1,0.9
		l-0.3,0.7l-0.3,0.7l-0.1,0.9l-0.3,0.7l-0.6,0.7l-0.6,0.6L414,275l-0.3,0.7l-0.3,0.7l-0.7,0.6l-0.4,0.7v0.9v0.9v0.9l0.4,0.6l0.6,0.4
		l-0.1,0.9l-0.1,0.9l-0.1,0.7v0.9l0.1,0.9l0.4,0.7l0.3,0.7l0.1,0.9l0.1,0.7l0.1,0.9v0.9v0.9v1l1-0.1l0.6,0.6l0.6,0.7l0.6,0.6
		l0.6,0.7l0.7,0.4l0.7,0.3l0.9,0.1h0.7l0.9-0.3l0.7-0.3l0.9,0.1h0.9h0.7h1l0.7,0.1l0.6,0.7l0.6,0.6l0.7,0.4l0.6,0.3l0.7,0.1h0.9h0.7
		l0.9-0.1l0.9-0.1l0.9-0.1l0.9,0.1l-0.3,0.7l-0.3,0.9l-0.3,0.7l-0.3,0.7l-0.3,0.7l-0.1,0.9l-0.3,0.7l-0.3,0.7l-0.1,0.9l-0.3,0.7
		l-0.1,0.9l0.1,0.9l0.6,0.6l0.7,0.3l0.3,0.7l-0.4,0.7l-0.4,0.7l-0.4,0.7l-0.4,0.7v0.9l-0.6,0.9l-0.6,0.6l-0.6,0.7l-0.4,0.7l-0.6,0.6
		l-0.3,0.9v0.7l-0.3,0.9l-0.3,0.7l0.1,0.9l0.4,0.6l0.3,0.9l-0.1,0.7l-0.4,0.7l-0.3,0.7v0.9l-0.1,0.9l-0.1,0.7l-0.6,0.7l-0.7,0.3
		L426,328l-0.7,0.3l-0.6,0.7l-0.3,0.7l-0.1,0.9l-0.1,0.7l-0.3,0.9l-0.3,0.7l-0.4,0.7l-0.4,0.6l-0.4,0.7l-0.4,0.6l0.3,0.4l0.6,0.7
		l0.6,0.6l0.9-0.1l0.7-0.6l0.6-0.6l0.6-0.6l0.6-1l0.4-0.9h0.9l0.7-0.1l0.9-0.3h0.9l0.6,0.6l0.3,0.7l0.7,0.6l0.7-0.3l0.9-0.3l0.6-0.4
		l0.4-0.7l0.6-0.6l0.7-0.6l0.7-0.3l0.7-0.1l0.9-0.3l0.7-0.3l0.7-0.1l0.9-0.1l0.9-0.1l0.7,0.1l0.9,0.3l0.7,0.4l0.6,0.6l0.3,0.7
		l-0.1,0.9l-0.4,0.7l-0.1,0.7l0.1,0.9l-0.1,0.9l-0.7,0.4l-0.7,0.4l-0.7,0.3l-0.7,0.3l-0.7,0.3l-0.7,0.3l-0.9,0.3l-0.7,0.1l-0.9,0.3
		l-0.7,0.3l-0.7,0.3v0.7l0.6,0.6l-0.3,0.7l-0.7,0.6l-0.7,0.3l-0.9,0.1l-0.7-0.4l-0.7-0.3l-0.9-0.1l-0.9,0.3l-0.4,0.6l-0.1,0.9
		l-0.3,0.7l-0.4,0.7l-0.3,0.7l-0.3,0.7l-0.1,0.9l-0.1,0.9v0.9l0.4,0.7l0.4,0.7l0.4,0.7v0.9l0.1,0.7l0.4,0.7l0.3,0.7l0.1,0.9l0.1,0.7
		v0.9l-0.6,0.4l-0.6,0.7l-0.6,0.6l-0.3,0.9l-0.3,0.7l-0.3,0.4l-0.9,0.3l-0.7,0.4l-0.7,0.6l-0.6,0.6l-0.6,0.7l-0.3,0.7v0.9l-0.3,0.7
		l-0.1,0.9l-0.1,0.9l-0.3,0.7L423,370l-0.6,0.7l-0.4,0.6l-0.6,0.7l-0.6,0.6l-0.7,0.6l-0.1,0.7v0.9l0.3,0.9l0.1,0.7l0.3,0.9l0.3,0.7
		l0.4,0.7l0.3,0.7l0.3,0.7l0.3,0.7l0.4,0.7l0.4,0.7l0.6,0.7l0.6,0.4l0.7,0.4l0.7,0.6l0.3,0.7l0.1,0.9l0.1,0.7v0.9v0.9v0.9l-0.4,0.7
		l-0.6,0.6l-0.6,0.6l-0.4,0.7l-0.1,0.9l-0.1,0.9l0.1,0.7l0.1,0.9l0.3,0.7l0.6,1.5l-0.7,0.1l-0.7,0.4l-0.6,0.7l-0.7,0.4l-0.7,0.3
		l-0.9,0.1h-0.9H419l-0.6,0.6v0.9l0.3,0.7l-0.3,0.7L418,404l-0.6,0.7l-0.4,0.7l-0.4,0.6l-0.7,0.6l-0.6,0.6l-0.4,0.7l-0.3,0.7
		l-0.4,0.7l-0.6,0.6l-0.7,0.4l-0.7,0.3l-0.9-0.1l-0.7-0.3l-0.6-0.6l-0.3-0.7l-0.1-0.9l-0.6-0.6l-0.4-0.7l-0.9,0.1l-0.7,0.4l-0.7,0.6
		l-0.7,0.1h-0.9h-0.9l-0.7,0.3l-0.7,0.6l-0.7,0.3l-0.7,0.3l-0.7,0.4l-0.7,0.3l-0.9,0.1l-0.9,0.1l-0.7,0.3l-0.7,0.3l-0.7,0.3h-0.6
		V411l0.1-0.9l-0.1-0.7l-0.6-0.7l-0.4-0.6l-0.9-0.4h-0.7h-0.9l-0.9,0.3l-0.7,0.3l-0.3-0.9l-0.3-0.7l-0.6-0.6h-0.9l-0.7,0.1l-0.9,0.1
		l-0.6,0.4L384,407l-0.9-0.1l-0.6-0.4l-0.4-0.7l-0.3-0.7l-0.7-0.6l-0.7-0.1l-0.9,0.1l-0.9,0.1l-0.7-0.3l-0.6-0.6l-0.1-0.9l-0.1-0.7
		l-0.1-0.9l-0.7-0.6l-0.7-0.4l-0.7-0.1l-0.9-0.3l-0.7,0.1l-0.9-0.1l0.1-0.7l0.1-0.9l-0.3-0.7l-0.4-0.7l-0.4-0.6l-0.6-0.7l-0.9,0.1
		l-0.7,0.1l-0.9,0.1h-0.9l-0.6-0.6l-0.4-0.7l-0.9,0.3l-0.6,0.6l-0.6,0.6l-0.7,0.4l-0.7,0.4l-0.7,0.3h-0.9l-0.7-0.1l-0.7,0.3
		l-0.7,0.6l-0.6,0.7l-0.4,0.6l-0.4,0.7l-0.3,0.7v0.9v0.9l0.3,0.9l-0.4,0.4H356l-0.7-0.3l-0.7,0.3l-0.3,0.9l0.1,0.7l-0.4,0.7
		l-0.7,0.4l-0.7,0.3l-0.7,0.3l-0.7,0.6l-0.7,0.3l-0.6,0.6l-0.7,0.4l-0.6,0.6l-0.9-0.1l-0.7-0.1h-0.9l-0.7,0.3l-0.6,0.6l-0.7,0.3
		l-0.9-0.1l-0.6,0.4l-0.6,0.6l-0.6,0.4l0.1,0.9l-0.7,0.4l-0.7,0.1l-0.9-0.1l-0.6-0.4l-0.6-0.7l-0.3-0.6l-0.7,0.3l-0.7-0.1l-0.3,0.7
		l0.3,0.9l0.1,0.7v0.9l0.3,0.9v0.7l-0.4,0.7l-0.1,0.9l0.7,0.4l0.7,0.3h0.9l0.9-0.1h0.9h0.9l0.7-0.1l0.9-0.1h0.9l0.7-0.3h0.9h0.9
		l0.6,0.6l0.6,0.7l0.6,0.6l0.6,0.6l0.6,0.6l0.6,0.7l0.1,0.7l-0.4,0.7l-0.7,0.6l-0.7,0.3l-0.7,0.3l-0.7,0.4l-0.7,0.3l-0.6,0.6v0.7
		l0.4,0.7l0.3,0.7l0.1,0.9l0.1,0.7l0.3,0.9l0.9,0.3l0.9,0.6l0.4,0.7l0.4,0.6l-0.1,0.9L348,434l-0.1,0.9l-0.4,0.7h-0.9h-0.9l-0.1,0.7
		l0.4,0.7l0.4,0.7l-0.1,0.9v0.9l0.7,0.4l0.7,0.1l0.6,0.6l0.1,0.9v0.9v1.2l-0.3,0.7l-0.3,0.7l-0.3,0.9l-0.3,0.7l-0.1,0.7h-0.9h-0.7
		l-0.9-0.1l-0.7-0.1l-0.9-0.3l-0.9-0.1h-0.7h-0.9l-0.9,0.1l-0.7,0.3l-0.7,0.6l-0.7,0.4l-0.7,0.4l-0.7,0.3l-0.6,0.4l-0.7,0.4
		l-0.9,0.1l-0.7,0.1l-0.9,0.1l-0.9,0.1l-0.7-0.3l-0.7-0.1l0.1-1v-0.9l-0.1-0.9v-0.9l-0.3-0.7l-0.4-0.7l-0.6-0.6l-0.9-0.1l-0.7-0.3
		l-0.3-0.7l0.1-0.9v-0.9l-0.3-0.7L326,440l-0.9-0.3h-0.9l-0.6-0.4v-0.9l0.1-0.9l0.3-0.7l0.3-0.7v-0.9l-0.3-0.9l-0.3-0.6l-0.6-0.6
		l-0.3-0.7l-0.7-0.4l-0.7-0.4l-0.7-0.4l-0.3-0.7l-0.3-0.7l-0.3-0.7l-1.3-0.1l-0.7-0.1h-0.9l-0.9,0.1l-0.9,0.1l-0.7,0.1l-0.7,0.3
		l-0.9,0.1l-0.9,0.1h-0.9l-0.7-0.1l-0.9-0.1l-0.6-0.6l-0.7-0.4l-0.7-0.3l-0.9-0.1l-0.9-0.1l-0.9,0.1l-0.7,0.3l-0.7-0.6l-0.3-0.7
		l-0.1-0.9l-0.3-0.7l-0.9,0.3l-0.6,0.6l-0.3,0.7l-0.4,0.7l-0.7,0.3l-0.7,0.1l-0.7-0.6l-0.6-0.6l-0.6-0.6l-0.6-0.7l-0.3-0.7l-0.6-0.6
		l-0.7,0.1l-0.7,0.4L293,425l-0.7,0.1l-0.9,0.3l-0.6,0.6l-0.3,0.7l-0.9,0.1l-0.7-0.3l-0.9-0.1l-0.7,0.1l-0.9,0.1l-0.6-0.4l-0.7-0.6
		l-0.6-0.6l-0.6-0.6l-0.6-0.6h-0.9l-0.4,0.7l-0.3,0.7l-0.1,0.9l-0.4,0.7l-0.4,0.7l-0.1,0.7v0.9v0.9l-0.3,0.7l-0.3,0.7l-0.4,0.9
		l-0.1,0.7l-0.1,0.9l-0.3,0.7l-0.4,0.7l-0.4,0.7l-0.3,0.4v0.9l0.1,0.9l-0.1,0.7l-0.4,0.7l-0.4,0.7l-0.3,0.7l-0.4,0.7l-0.6,0.6
		l-0.4,0.7l0.3,0.9l0.7,0.6l0.6,0.4l0.7,0.6l0.6,0.6l0.7,0.4l0.7,0.3l0.9,0.6l-0.3,0.7l-0.3,0.7l-0.1,0.9l-0.1,0.7v0.9l-0.3,0.9
		l-0.1,0.9l0.1,0.9l-0.1,0.7l-0.1,0.9l-0.3,0.7l-0.7-0.3l-0.9-0.3l-0.7-0.1h-0.9l-0.9,0.1l-0.7,0.3l-0.6,0.6l-0.6,0.7l-0.3,0.7
		l-0.4,0.7l-0.4,0.7l-0.6,0.6l-0.6,0.6l-0.6,0.7L269,463l-0.4,0.7l-0.7,0.7l-1-0.4l-0.4-0.6l-0.9-0.3l-0.7-0.4l-0.7-0.1l-0.7-0.3
		h-0.9l-0.9,0.1l-0.7,0.3L260,463l-0.9-0.1l-0.7-0.3l-0.7-0.1l-0.9,0.3L256,463l-0.6-0.4l-0.6-0.7l-0.7-0.1h-0.9l-0.9-0.1l-0.9-0.1
		l-0.7,0.1l-0.9-0.1L249,461l-0.7-0.4l-0.7-0.1l-0.7,0.3l-0.9,0.1L245,461l-0.7,0.3h-0.9h-0.9l-0.7,0.3h-0.9l-0.7,0.3l-0.7,0.4
		l-0.6,0.7l-0.3,0.7l-0.4,0.7l-0.1,0.7l-0.1,0.9v0.9l-0.3,0.9l-0.3,0.7l-0.4,0.6l-0.9,0.3h-0.7l-0.9-0.1l-0.9-0.1l-0.6,0.6l-0.7,0.4
		l-0.4,0.7l-0.1,0.7l-0.1,0.9l-0.4,0.7l-0.7,0.1l-0.9-0.1h-0.7l-0.7,0.7l-0.4,0.1l-0.6-0.9l-0.6-0.6l-0.7-0.4l-0.7-0.4l-0.7,0.1H223
		l-0.4-0.4l-0.6-0.4l-0.7-0.4l-0.4-0.7l0.1-0.7l0.1-0.9l0.3-0.7l0.4-0.7l0.4-0.7l0.3-0.7l0.3-0.7l0.1-0.9l0.3-0.7l0.3-0.7l0.1-0.9
		l0.1-0.7l0.1-0.9l-0.1-0.9l-0.3-0.7l-0.3-0.7l-0.4-0.7l-0.6-0.6l-0.3-0.7v-1l0.3-0.7v-0.7l-0.4-0.7l-0.3-0.7l0.3-0.7l0.3-0.7
		l0.6-0.7l0.6-0.6l-0.3-0.9l-0.7-0.4l-0.7-0.3l-0.7-0.3l-0.7-0.4l-0.4-0.6l0.1-0.9l0.3-0.7l0.6-0.7l0.6-0.6l0.6-0.6l0.4-0.7l0.1-0.9
		v-0.7l-0.7-0.4l-0.7-0.3l-0.7-0.4l-0.7-0.4l-0.4-0.7l-0.1-0.7v-0.9l0.3-0.9l0.3-0.7l0.4-0.7l0.3-0.7l-0.6-0.4l-0.7-0.1l-0.9-0.1
		l-0.6-0.6l-0.4-0.7l-0.4-0.6l-0.9-0.1l-0.7,0.4l-0.6,0.6l-0.3,0.7l-0.6,0.6l-0.7,0.3l-0.7-0.3l-0.7-0.4l-0.9-0.1l-0.7-0.4l-0.6-0.6
		l-0.6-0.7l-0.6-0.6l-0.7-0.4l-0.7,0.1l-0.6,0.6l-0.4,0.7l-0.7,0.3l-0.7,0.6l-0.3,0.7l-0.4,0.7l-0.7,0.6l-0.6,0.4l-0.7,0.4l-0.3,0.7
		l-0.6,0.6l-0.7,0.4l-0.7,0.3l-0.7,0.6l-0.7,0.4l-0.6,0.6l-0.7,0.3H195h-0.9l-0.7,0.4l-0.4,1l0.1,0.9l0.1,0.9v0.9l-0.1,0.7l-0.3,0.7
		l-0.3,0.9v0.9l0.1,0.9l-0.1,0.7l-0.7,0.1l-0.9-0.1H190h-0.9l-0.7,0.4l-0.7,0.3h-0.7l-0.7-0.6l-0.7,0.3l-0.7,0.1l-0.7-0.3l-0.3-0.9
		v-0.9l-0.3-0.7l-0.3-0.7l-0.4-0.7l-0.3-0.7l-0.3-0.7l-0.3-0.9l-0.4-0.7l-0.1-0.7v-0.9v-0.9l0.1-0.9l0.1-0.7l0.3-0.9l0.3-0.7
		l0.4-0.7l0.3-0.7l0.3-0.7l0.1-0.9l0.1-0.7l0.1-0.9l0.4-0.7l0.4-0.7l0.6-0.6l0.7-0.4l0.7-0.4l0.7-0.4l0.6-0.4l0.9-0.3l0.7-0.3
		l0.7-0.3l0.7-0.4l0.6-0.7l0.3-0.7l0.6-0.6l0.3-0.7l0.3-0.9l0.1-0.7l0.3-0.9l-0.1-0.7l-0.1-0.9l-0.4-0.7l0.3-0.3l0.6-0.7l0.7-0.4
		l0.6-0.6l0.7-0.6l0.4-0.6l0.4-0.7l0.4-0.7l0.4-0.7l0.7-0.6l0.6-0.6l0.6-0.4l0.7-0.6l0.7-0.3l0.9-0.1l0.7-0.1l0.9-0.3l0.6-0.4
		l0.4-0.6l0.4-0.9l0.1-0.7l0.4-0.7l0.6-0.6l0.6-0.7l0.7-0.6l0.6-0.4l0.6-0.6l0.1-0.9v-0.9l0.3-0.6l-0.3-1.8l0.3-1.8l0.6-1.8l0.1-1.9
		v-2.7l-0.1-1.8l-0.3-1.3l-0.4-1.5v-2.2l0.1-1.6l0.3-2.1l0.3-0.7l0.1-0.9l0.7-0.4l0.7-0.4l0.7-0.4l0.7-0.1h0.9h0.9l0.7-0.1l0.9-0.1
		l0.7-0.4l0.4-0.7l0.4-0.7l-0.6-0.6l-0.6-0.4L216,372l0.1-0.9l0.7-0.4l0.7-0.6l0.4-0.7l0.4-0.7l0.3-0.7l0.4-0.7l0.4-0.6l0.7-0.3
		l0.9-0.3l0.7-0.3l0.7-0.4l0.7-0.4l0.6-0.4l-0.4-0.7l-0.9-0.1l-0.7,0.3l-0.9-0.1v-0.9l-0.6-0.6l-0.7,0.1l-0.9,0.3l-0.7,0.1l-0.7-0.4
		l-0.7,0.6l-0.9-0.1l-0.6-0.7l-0.6-0.6l-0.7-0.4l-0.7-0.1l-0.9,0.1l-0.7,0.3l-0.9,0.1l-0.7,0.4l-0.7,0.4l-0.4,0.7l-0.3,0.7l-0.3,0.7
		l-0.3,0.7l-0.7,0.4l-0.7-0.3l-0.7-0.6l-0.7-0.3l-0.6-0.7L204,363l-0.3-0.7l-0.6-0.6l-0.6-0.6v-0.9l-0.3-0.7l-0.4-0.7l-0.1-0.9
		l-0.1-0.7l-0.1-0.9l-0.1-0.9l-0.1-0.7l-0.1-0.9v-0.9l0.3-0.9l0.3-0.7l0.4-0.7l0.4-0.7l0.4-0.6l0.7-0.6l0.7-0.3l0.4-0.6l0.1-0.9
		l-0.1-0.7v-0.9l0.1-0.7l0.4-0.7l0.4-0.7l0.3-0.9l0.3-1h-0.6l-0.6-0.6l-0.1-0.7l0.1-0.9l0.4-0.7l0.6-0.6v-0.9l-0.1-0.9v-0.7l0.1-0.9
		l0.4-0.7l0.3-0.7v-0.9v-0.9l-0.4-0.7l-0.9-0.3l-0.9-0.1H204h-0.9l-0.9-0.1l-0.7-0.1l-0.9-0.3l-0.3-0.9l-0.3-0.7l-0.6-0.4l-0.9-0.3
		l-0.7-0.4l-0.7-0.1h-0.9l-0.9-0.1l-0.7,0.1l-0.9,0.1h-0.9l-0.7-0.3l-0.7-0.4l-0.7-0.4l-0.9,0.1l-0.7,0.3h-0.9l-0.7-0.3l-0.7-0.4
		l-0.7-0.3H185l-0.7-0.3v-0.9l0.1-0.9l0.1-0.7v-0.9l-0.7-0.1L183,320l-0.7-0.3h-0.9l-0.9,0.1l-0.6,0.4v0.9l0.1,0.9l0.1,0.7v1
		l-0.6,0.4l-0.6,0.6v0.9v0.9l0.1,0.9l-0.1,0.7l-0.3,0.7l-0.3,0.6l-0.7-0.4l-0.7-0.3l-0.9-0.1h-0.7l-0.9,0.1l-0.9,0.1l-0.6,0.4
		l-0.7,0.6l-0.7,0.3l-0.7,0.3l-0.9,0.3h-0.7l-0.9-0.3h-0.9l-0.7,0.4l-0.6-0.1l-0.7-0.6h-0.9l-0.6-0.4l0.1-0.9l0.3-0.7v-0.9l0.3-0.7
		l-0.1-0.9l-0.7-0.4l-0.7,0.3l-0.6,0.6l-0.7,0.6l-0.7,0.1l-0.7-0.4l-0.4-0.7h-0.9l-0.6-0.7l-0.9-0.1l-0.6,0.4l-0.9,0.3l-0.7-0.3
		l-0.3-0.7l-0.4-0.7h-0.7l-0.7,0.6l-0.6,0.6l-0.4,0.7l-0.3,1l-0.4,0.7l-0.3,0.7l-0.3,0.9l-0.6,0.4l-0.7,0.4l-0.9,0.3l-0.1,0.7
		l0.3,0.9l-0.1,0.9l-0.4,0.7l-0.4,0.6l-0.4,0.7l-0.6,0.7l-0.6,0.6l-0.4,0.7l-0.4,0.6l-0.7,0.6l-0.7-0.3l-0.7-0.4l-0.7,0.4l-0.6,0.4
		l-0.7,0.6l-0.4,0.6l-0.6,0.7l-0.6,0.6l-0.7,0.6l-0.6,0.6l-0.6,0.6l-0.6,0.6l-0.7,0.6l-0.3,0.7l-0.4,0.7l-0.3,0.7l-0.1,0.7l-0.7,0.4
		l-0.6,0.6v0.9v0.7l-0.1,0.9l-0.1,0.9l-0.4,0.7l-0.1,0.7l-0.3,0.7l-0.9,0.1l-0.7,0.3l-0.7,0.4l-0.7,0.3l-0.7,0.4l-0.9,0.1l-0.4,0.3
		l-0.6-0.3h-0.9l-0.9-0.1l-0.4-0.6l-0.3-0.7v-0.9l0.9-0.1v-0.6l-0.3-0.7l-0.4-0.7l-0.7-0.4l-0.7-0.4l-0.6-0.6v-0.9l-0.3-0.7
		l-1.3-0.1l-0.7,0.6l-0.4,0.6l-0.4,0.7l-0.3,0.9l-0.4,0.6l-0.4,0.7l-0.9,0.3l-0.6-0.4l-0.6-0.7l-0.7-0.4l-0.7,0.3l-0.7,0.4l-0.7-0.3
		l-0.3-0.7l-0.7-0.3l-0.7-0.4l-0.3-0.7l0.1-0.9l0.1-0.9l0.1-0.9l0.1-0.9v-0.9l0.3-0.7l0.3-0.7l0.6-0.6l0.1-0.9l-0.1-0.7l-0.1-0.9
		l-0.1-0.9l-0.9,0.1l-0.7,0.3l-0.7-0.4h-0.7l-0.7,0.4l-0.9,0.1l-0.6-0.4l-0.1-0.9l-0.4-0.6l-0.7-0.4l-0.6-0.4l-0.6-0.6l-0.4-0.7
		l-0.4-0.4l-0.4,0.1l-0.6,0.6l-0.4,0.6l-0.6,0.7l-0.6,0.6l-0.6,0.6l-0.6,0.6l-0.6,0.7l-0.4,0.7l-0.3,0.7v0.9l0.1,0.9l-0.3,0.9
		l-0.4,0.6l-0.4,0.7l-0.1,0.9l-0.1,0.9l-0.1,0.7l-0.4,0.7l-0.4,0.6l-0.9,0.4l-0.7,0.3h-0.7l-0.9-0.1l-0.7-0.3h-0.9l-0.6,0.4
		l-0.6,0.7l-0.4,0.6l-0.3,0.7l-0.4,0.7l-0.3,0.9l-0.4,0.7l0.4,0.7l0.7,0.3l0.6,0.6l0.1,0.9v0.9l0.1,0.7l0.4,0.6l0.3,0.9v0.9
		l-0.1,0.9l-0.3,0.7l-0.3,0.7l-0.3,0.7l-0.7,0.6l-0.7,0.1l-0.9,0.1H86l-0.7,0.1l-1.5,0.3h-0.9l-0.9-0.1l-0.9,0.3l-1.3,0.3l-1.2-0.6
		l-0.1-0.9v-0.9l0.3-0.9l0.7-1.2l0.3-0.3l0.7-0.1l0.4,0.1h0.9l0.1-0.4l-0.3-0.9l-0.4-1.3l-0.9-0.9l-1.3-0.1l-0.9-0.3l-0.9-0.1
		l-0.4-0.6l-0.1-0.9l-0.7-1l-0.9-0.3l-0.9-0.3h-0.9l-1.2,0.7l-0.7,0.4l-0.7,0.6l-0.4,0.7l-0.9,0.1h-0.9l-0.9-0.1l-0.7-0.3l-0.9-0.3
		l-0.9-0.4l-0.6-0.4l-0.7-0.7l-0.7-0.4l-0.3-0.9l0.3-0.9l0.3-0.9l0.1-0.7l0.3-0.9l0.1-0.7l-0.1-0.9l-0.3-0.7l-0.3-0.9l0.1-0.7
		l0.9-0.3H65l0.6-0.6l0.7-0.6l0.3-0.7l0.1-0.9l-0.1-0.7l-0.6-0.7l-0.7-0.4l-0.6-0.6l-0.7-0.4l-0.6-0.6l-0.4-0.7l-0.3-0.7l-0.4-0.7
		l0.4-0.6l0.4-0.7l-0.1-0.9l-0.6-0.4l-0.7-0.4l-0.3-1.2l-0.1-0.9l0.1-0.9l0.3-0.7l0.7-0.6l-0.1-0.7l0.4-0.7l0.6-0.6l0.6-0.6
		l-0.4-0.7l-0.7-0.4l-0.9,0.1l-0.6,0.4l0.1,0.9l-0.6,0.6h-0.9H59l-0.9,0.1l-0.7,0.3l-0.7,0.3l-0.9,0.1h-0.9l-0.7,0.3l-0.3,0.7
		l-0.7,0.6l-0.7-0.1l-0.1-0.7l-0.7-0.6l-0.7-0.3l-0.7-0.3l-0.7-0.4l-0.7-0.6l-0.3-0.7l-0.3-0.7l-0.4-0.7l-0.3-0.7l-0.3-0.9l0.4-0.6
		l0.9-0.1l0.6-0.4l0.3-0.9l0.4-0.7l0.3-0.7l0.4-0.6l0.3-0.9l0.1-0.9l-0.3-0.7l0.1-0.9l0.3-0.6l0.4-0.1l0.7-0.4L53,313l0.7-0.3
		l0.7-0.3l0.7-0.4l0.7-0.4l-0.1-0.7l-0.6-0.6l-0.1-0.9l0.4-0.7l0.6-0.6l0.4-0.7l-0.1-0.9l0.3-0.7l0.6-0.6l0.6-0.6l0.3-0.7l-0.3-0.9
		l-0.4-0.7l-0.6-0.4l-0.7-0.3l-0.3-0.9l0.3-0.7l-0.1-0.9l0.1-0.9l-0.1-0.9l-0.3-0.7l-0.4-0.7l-0.4-0.7l0.3-0.9l-0.4-0.6h-0.9
		l-0.7,0.4l-0.9,0.3l-0.7-0.1l-0.7-0.6l-0.4-0.7l-0.4-0.7l-0.4-0.7l-0.3-0.7l-0.1-0.9l0.9-0.3l0.7,0.1l0.9,0.3l0.7,0.3l0.7,0.3
		l0.9-0.3h0.7l0.9-0.1l0.9-0.3v-0.7l0.1-0.9l0.6-0.4l0.7,0.3l0.7,0.4l0.7-0.3l0.1-0.7v-0.9l0.6-0.4h0.7l0.6-0.6l0.6-0.6l0.9-0.3h0.9
		h0.7l0.9,0.3l0.6,0.6l0.3,0.7l0.7-0.1L67,285l0.1-0.9l0.1-0.7v-1v-0.9l-0.6-0.6l-0.7-0.3l-0.3-0.7l0.1-0.9l0.6-0.6l0.3-0.7l0.1-0.9
		v-0.9V275l-0.4-0.7l-0.7-0.1l-0.6-0.6l-0.6-0.6l-0.7-0.3l-0.6,0.6l-0.6,0.6l-0.7,0.3l-0.7-0.3l-0.4-0.7l0.3-0.7l0.7-0.6l0.7-0.4
		l0.7-0.4l0.7-0.3l0.7-0.1l0.7-0.4l0.9-0.3l0.7-0.1l0.7,0.3l0.9,0.1l0.6-0.6l-0.1-0.9l0.6-0.6l0.3-0.7v-0.9l-0.3-0.7l-0.9-0.1
		l-0.9-0.3l-0.1-0.7v-0.9v-0.9l-0.1-0.9v-0.9l-0.1-0.9V259l-0.1-0.7l-0.3-0.9l-0.7-0.4l-0.7-0.4h-0.7l-0.7,0.4l-0.9-0.1l-0.4-0.7
		l-0.3-0.7l0.3-0.9l0.1-0.9l0.3-0.7l0.6-0.6l-0.3-0.7l-0.7,0.1l-0.7,0.3l-0.9,0.1l-0.9-0.1l-0.4-0.7l-0.4-0.7l-0.4-0.7l-0.1-0.6
		h-0.9l-0.9,0.1l-0.7,0.1l-0.9,0.3l-0.7,0.3l-0.7,0.1l-0.9,0.3l-0.9,0.1l-0.7,0.1l-0.9,0.1l-0.7,0.4l-0.7,0.1h-0.9l-0.9-0.1
		l-0.3-0.9l-0.3-0.7l-0.9,0.3l-0.6,0.4l-0.6,0.7l-0.4,0.7l-0.6,0.6l-0.4,0.7l-0.4,0.7l-0.6,0.6l-0.7,0.3l-0.7,0.3l-0.1,0.9l-0.9,0.3
		l-0.9-0.1l-0.7,0.1H37l-0.9,0.1l-0.9-0.1l-0.7-0.1l-0.1-0.7l0.6-0.6l0.7-0.7l0.4-0.6l0.3-0.7l-0.3-0.7l-0.9,0.4l-0.7,0.3h-0.9
		l-0.7,0.1l-0.9,0.3l-0.7,0.4l-0.7,0.3l-0.7,0.1l-0.9,0.1l-0.7,0.3l-0.9,0.3l-0.6,0.6l-0.7,0.4l-0.7,0.6l-0.6,0.6l-0.7,0.4l-0.7,0.4
		l-0.6,0.6l-0.1,0.9v0.7l-0.6,0.6l-0.4,0.6h-0.9l-0.7,0.1l-0.9-0.1h-0.7l-0.9,0.4l-0.6,0.4l-0.9,0.1l-0.4-0.6l0.4-0.7l-0.3-0.9
		l-0.7-0.6l-0.3-0.7l-0.1-0.7l-0.9-0.1l-0.6-0.6l-0.6-0.6l-0.6-0.6l-0.9-0.1l-0.6,0.3l-0.6-0.7l0.3-0.7l0.4-0.7l0.9-0.1l0.9,0.1
		l0.9-0.1l0.7-0.3l0.7-0.4l0.6-0.6l0.6-0.1h0.7l0.7-0.3l0.6-0.6l0.3-0.7l0.3-0.7l0.4-0.7l0.6-0.7l0.4-0.6l0.1-0.9l-0.3-0.7l-0.4-0.7
		l-0.3-0.9l0.3-0.7l0.6-0.7l0.6-0.6l0.6-0.4l0.7-0.4l0.7-0.4l0.7-0.4l0.7-0.4l0.7-0.3l0.7-0.3l0.7-0.4l0.7-0.4l0.7-0.4l0.7-0.6
		l0.4-0.6l0.1-0.9l0.4-0.6l0.3-0.9l0.4-0.7l0.1-0.7l0.4-0.7l0.7-0.1l0.9,0.1l0.7-0.4l0.7-0.4l0.4-0.7l0.6-0.6l0.6-0.7l0.4-0.6
		l0.1-0.9l0.1-0.9l0.4-0.7l0.6-0.6v-0.9v-0.9l0.7-0.7l0.6-0.1l0.7,0.3l0.3,0.7l-0.3,0.9l0.4,0.6l0.7-0.6l0.4-0.6l0.6-0.7l0.6-0.6
		l0.9-0.3l0.7,0.3l0.7,0.6l0.7-0.1l0.9,0.3l0.1,0.9l0.3,0.7l0.9-0.1l0.7-0.4h0.7l0.7,0.3l0.7,0.4l0.9,0.3l1.2,0.1l0.9-0.7l0.4-0.7
		l0.4-0.7l0.7-1.2l0.3-0.7l0.1-0.9l0.4-0.7l0.6-0.7l0.6-0.7l0.1-0.9l0.1-0.9v-0.9l0.4-0.7v-0.9l0.9-0.1l0.6-0.4h0.9H61l0.7-0.4
		l0.6-0.6l0.7-0.4l0.3-1.3l0.1-0.7l0.1-0.9l0.1-0.9l0.1-0.7v-0.9v-0.9l-0.1-0.9L63,205l-0.1-0.9v-0.9l-0.1-0.9l-0.3-0.7l-0.6-0.6
		l-0.7-0.4l-0.3-0.9l0.4-0.7v-0.7l-0.3-0.7h-0.7l-0.9,0.1h-0.9l-0.9-0.1l-0.7-0.3l-0.7-0.3l-0.7-0.4l-0.4-0.7l-0.4-0.7l-0.6-0.6
		l-0.7-0.6l-0.6-0.4l-0.6-0.6v-0.9l0.4-0.7l0.4-0.7l0.1-0.7l0.1-0.9l-0.1-0.9l-0.3-0.7l-0.3-0.6l-0.3-0.9v-0.9l-0.1-0.7l0.1-0.9
		l-0.1-0.9l-0.3-0.7l-0.7-0.4l-0.4-0.7v-0.9v-0.9l-0.1-0.7l0.1-0.9l0.4-0.7l0.4-0.7l0.3-0.7l-0.7-0.3v-0.9v-0.9l-0.1-0.9v-0.9v-0.9
		l-0.1-0.9l0.1-0.9l0.3-0.7l0.3-0.9l0.1-0.7l0.3-0.9l0.3-0.7l0.6-0.6l0.3-0.9l0.1-0.7l0.4-0.7l0.3-0.7l0.1-0.9v-0.9l0.4-0.7
		l-0.1-0.6v-0.9l0.1-0.9l0.3-0.7l0.4-0.7l0.7-0.6l0.6-0.6l0.3-0.7l0.3-0.9l-0.1-0.7l-0.1-0.9l-0.7-0.1l-0.7,0.4l-0.6-0.1l-0.3-0.7
		l-0.3-0.9l-0.7-0.3l-0.9,0.3l-0.6,0.4l-0.7,0.3l-0.7-0.4l-0.6-0.6l-0.4-0.7l-0.4-0.7l-0.3-0.7l-0.1-0.9v-0.9l-0.1-0.9v-0.9
		l-0.1-0.7l-0.7-0.6l-0.4-0.7l-0.1-0.9v-0.9l-0.1-0.7v-1v-0.9l0.1-0.9V134l0.1-0.9l0.1-0.9l-0.1-0.9l0.7-1l0.4-0.7v-0.9v-0.9
		l0.3-0.7l0.3-0.7l0.6-0.7L50,125l0.6-0.6l0.9-0.1l0.1-0.6l0.4-0.6l0.6-0.3l-0.1-0.9l-0.4-0.7l-0.1-0.7l-0.4-0.7l-0.9-0.1l-0.9,0.1
		h-0.9l-0.7,0.1l-0.9,0.1h-0.9l-0.9-0.1l-0.9,0.1l-0.7,0.3l-0.7,0.3l-0.9-0.3l-0.4-1.2l0.6-0.6l0.7-0.4l0.7-0.6l0.6-0.6l0.9-0.1
		l0.9-0.1l0.7-0.1l0.9-0.3h0.9l0.6-0.4l-0.1-0.9l-0.3-0.7l-0.3-0.7l0.3-0.9l0.7-0.4l0.7-0.3l0.7-0.4l0.4-0.7l0.1-0.7l-0.1-0.9
		l-0.3-0.9l-0.1-0.7h-0.9l-0.9,0.3l-0.7-0.3l-0.7-0.6l-0.6-0.7l-0.3-0.7v-0.7v-0.9v-0.9l0.1-0.9l-0.1-0.9V100l-0.3-0.9v-0.9v-0.9
		l-0.1-1.2l0.3-0.6l0.3-0.7v-0.9l0.1-0.9l0.3-0.7l0.3-0.7l0.3-0.9l0.1-0.7l0.3-0.9l0.4-0.7l0.6-0.4l0.7-0.6l0.1-1.3l0.1-0.9l0.6-0.7
		l0.4-0.6l0.7-0.6l0.3-0.7l0.1-0.9l0.1-0.9l-0.3-0.7l-0.6-0.6l-0.9-0.3l-0.7-0.3l-0.7-0.3l-0.9-0.1l-0.7-0.3l-0.7-0.6L46.6,77
		l-0.4-0.7L46,75.4l0.3-0.7h1.2l0.9,0.1l0.6-0.6l0.4-0.7v-0.9l-0.1-0.7L49,71l0.3-0.7l0.4-0.7v-0.9l-0.1-0.9L49.3,67l-0.1-0.9
		l-0.3-0.7l0.1-0.9l0.7-0.4l0.7-0.3h0.9l0.9-0.1l0.6-0.6l0.7-0.4l0.4-0.7l0.6-0.6l0.6-0.7l0.6-0.6l0.4-0.7l-0.1-0.9l-0.3-0.7
		l-0.1-0.9l-0.4-0.7L55,55l0.1-0.7l0.3-0.9v-0.9l0.6-0.4l0.7-0.1l0.7-0.6l0.1-0.7l0.1-0.9v-0.9l0.1-0.9l0.4-0.6l0.7-0.4l0.7-0.6
		l0.3-0.7l-0.1-0.9v-0.9l0.3-0.7l0.7-0.6l0.7-0.1l0.9-0.3l0.4-0.6l-0.3-0.7v-0.9l0.7-0.1l0.9,0.3l0.7,0.4l0.6-0.4V39l-0.4-0.7v-0.9
		l0.4-1.2l0.7-0.4l0.7-0.6l0.4-0.6l0.3-0.7l0.1-0.9V32l0.6-0.7l0.7-0.6l0.7,0.1l0.7,0.3l0.9,0.3l0.7-0.1l0.7-0.3l0.3-0.9l0.6-0.6
		l0.7-0.3l0.7-0.3l0.9,0.1l0.4,0.6L78,30l0.7,0.3l0.9,0.1l0.4,0.6l0.3,0.9l0.9,0.1l0.7-0.1l0.9-0.1l0.9,0.1h0.9l0.7-0.3L85.2,31
		v-0.9l-0.1-0.7l-0.3-0.9l-0.3-0.7L84.2,27l0.1-0.9l0.7-0.3l0.7-0.1l0.9-0.1h0.9l0.7-0.3l0.4-0.7l0.1-0.7l-0.1-0.9l0.1-0.9l0.1-0.9
		l0.1-0.7l0.3-0.9l0.4-0.6l0.9-0.3l0.6-0.6l1-0.3l0.9-0.1l0.7-0.3l0.9-0.1l0.9-0.1l0.7-0.1l0.9,0.1l0.7,0.3l0.9,0.3l0.7,0.1l0.9-0.3
		l0.7-0.3l0.7-0.3l0.9-0.3h0.9l0.9,0.1l0.6,0.4l0.7,0.6h0.9l0.3-0.9l0.9-0.1l0.7-0.3l0.9-0.1l0.7-0.3l0.9-0.1l0.9-0.1l0.9,0.1
		l0.7-0.3h0.9l0.7,0.4l0.7,0.4l0.7,0.3l0.7,0.4l0.6,0.6l0.6,0.7l0.6,0.4l0.9,0.1l0.9-0.1h0.9l0.7,0.3l0.7,0.4l0.7,0.4l0.6,0.4
		l0.9,0.3l0.7,0.4l0.7,0.3l0.4,0.7l0.3,0.9l0.6,0.6l0.4,0.7l0.4,0.7l0.1,0.9l0.6,0.4h0.7l0.9-0.3l0.7-0.3l1.2,0.4l0.4,0.7l0.3,0.9
		l0.1,0.7l0.4,0.7l0.9,0.1h0.9h0.9l0.7-0.3l0.7-0.3l0.7-0.6l0.6-0.6l0.6-0.7l0.9-0.3l0.1-0.7l-0.3-0.7l0.1-0.9l0.4-0.7l0.7-0.3
		l0.9,0.1l0.7,0.3l0.9,0.1l0.9-0.3l0.7-0.1l0.7-0.3l0.7-0.4l0.7-0.3l0.7-0.4l0.7-0.4l0.7-0.6l0.7-0.4l0.7-0.4l0.6-0.6l0.7-0.6
		l0.6-0.4l0.9-0.1l0.3-0.9l0.1-0.9v-0.9l-0.3-0.7l-0.4-0.7l-0.3-0.7l-0.4-0.7l-0.4-0.7l-0.6-0.7l-0.7-0.3l-0.7-0.1h-1l-0.7-0.3
		l-0.7-0.4l-0.7-0.6L149.1,9L149,8.1V7.2l-0.3-0.7L148,5.9l-0.7-0.4l-0.4-0.7V3.8V2.9l0.4-0.7l0.4-0.7l0.4-0.6l0.4-0.7l0.6-0.7
		l0.3-0.7l0.3-0.7V-3l0.6-0.7l-0.6-0.6L149-4.7l-0.9-0.1l-0.9-0.1l-0.7-0.3L145.9-6l0.6-0.6l0.6-0.6l0.7-0.3l0.7-0.3l0.9-0.3h0.9
		l0.9-0.1l0.7-0.3l0.9-0.1h0.9l0.9-0.1l0.7-0.3l0.7-0.4l0.7-0.3l0.9-0.3l0.7,0.3l0.7,0.3l0.7,0.4l0.6,0.6l0.4,0.7l0.6,0.7l0.6,0.4
		l0.9-0.1l0.7-0.4l0.7-0.3l0.7-0.3l0.7-0.7l0.4-0.6l-0.1-0.9l-0.3-0.7l-0.3-0.7l-0.1-0.9l-0.3-0.9l0.6-0.6h0.7l0.9,0.1l0.7,0.3
		l0.9,0.3l0.9-0.1l0.7-0.3l0.7-0.6l0.7-0.1h0.9h0.9l0.9,0.1l0.7,0.3l0.9,0.1l0.7-0.1l0.9,0.3l0.4,0.7l0.3,0.7v0.9l-0.1,0.7l0.3,0.9
		l0.4,0.7l0.7,0.4l0.9,0.1l0.9,0.1l0.7-0.1h1h0.9l0.9-0.1h0.7l0.9-0.1h1h0.9h0.9l0.9,0.1l0.7,0.1l0.9,0.1l0.9,0.1l0.9,0.1l0.7,0.1
		l0.9,0.1l0.9,0.1l0.9,0.1l0.9-0.1l0.7-0.1h0.9h0.9l0.9,0.1l0.9,0.1l0.7,0.1h0.9l0.6,0.7l0.4,0.7l0.7,0.4l0.6,0.7l0.4,0.7l0.6,0.4
		l0.3,0.6l0.6,0.7l0.6,0.6l0.7,0.4l0.9,0.3l0.6,0.4l0.6,0.7l1.2-0.1l0.7,0.1l0.6,0.6l0.3,0.9V3l0.4,0.6l0.9,0.1l0.9-0.1l0.7-0.4
		l0.7-0.3l0.7,0.4l0.7,0.4l0.7,0.4l0.9-0.1l0.7-0.1l0.7-0.4l0.7-0.3l0.9-0.4h0.7l0.6,0.7l0.1,0.9v0.7l0.6,0.6l0.9,0.3l0.7,0.3h0.9
		l0.9-0.1h0.9l0.9-0.1h0.9l0.7-0.3l0.7-0.6h0.9l0.7,0.4l0.7,0.4l0.7,0.1l0.9,0.3h0.9l0.7-0.4l0.4-0.7l0.4-0.7l0.6-0.6l0.7-0.4
		l0.4,0.6l0.6,0.6l0.9,0.4l0.7-0.3l0.7-0.1l0.9,0.1l0.6,0.6L248,6l0.3,0.7l0.7,0.4l0.9,0.3l0.7,0.3l0.7,0.3l0.7,0.3l0.9,0.1l0.9,0.1
		l0.9,0.1l0.6,0.6L256,10l0.7,0.6l0.7,0.4l0.7-0.3l0.9,0.1L260,11l-0.1,0.7l-0.6,0.6l-0.3,0.9l0.3,0.7l0.7,0.6l0.7,0.4l0.7,0.4
		l0.6,0.6l0.7,0.4l0.6-0.1l0.9,1L265,18l1,0.6l0.4-0.9l0.4-0.7l0.6-0.4l0.7,0.3l0.3,0.9l0.1,0.9l-0.1,0.9v0.9l-0.1,0.7l-0.3,0.9
		l-0.1,0.7l-0.4,0.7v0.9l0.3,0.9l0.7,0.4l0.9,0.1l0.7-0.3l0.7,0.4l0.7,0.4l0.9,0.3l0.6,0.6h0.9l0.7-0.1l0.7-0.4l0.9-0.1l0.9,0.1v0.9
		l-0.1,0.9l0.4,0.6l0.7,0.1l0.7-0.4l0.4-0.7l0.4-0.7l0.7-0.4h0.9l0.1,0.9l-0.1,0.7l-0.1,0.9l-0.1,0.9l0.4,0.7l0.7,0.4l0.9,0.1
		l0.7,0.1l0.9,0.1l0.7,0.4l0.6,0.6l0.1,0.9l0.3,0.7l-0.1,0.9l-0.4,0.7l-0.3,0.7l-0.4,0.7l-0.6,0.7l-0.3,0.7l-0.1,0.9v0.7l1.2,0.1
		l0.6-0.6l0.3-0.7L287,39l0.9-0.1l0.3-0.9l0.4-0.7l0.9-0.3l0.9,0.1h0.7l0.7-0.9l0.4-0.6l0.7-0.4l0.7-0.4l0.4-0.7l0.4-0.7l0.4-0.7
		l0.3-0.7l0.4-0.7l0.4-0.7l0.4-0.7l0.9-0.1l0.9-0.1l0.9-0.1h0.9l0.7,0.4l0.4,0.7L302,31l0.9,0.1l0.7,0.3h0.9l0.7-0.4l0.6-0.6
		l0.7-0.4l0.7-0.4l0.7,0.3l0.6,0.6l0.7,0.6l0.9-0.1l0.7-0.1h0.9h0.9l0.7,0.4l0.7,0.4l0.9,0.1l0.7-0.4l0.6-0.6l0.4-0.7l0.3-0.7
		l0.4-0.7l0.4-0.7l0.9-0.1h0.9l0.7-0.4l0.6-0.7l0.4-0.7l0.4-0.6l0.6-0.7l0.4-0.7l0.4-0.7l0.3-0.7l0.3-0.7l0.3-0.9l-0.3-0.9l0.9-0.3
		l0.6-0.4l0.7-0.4l0.7-0.6l0.6-0.6l0.6-0.7l0.6-0.6l0.6-0.7l0.6-0.6l0.6-0.6l0.9-0.3l0.7,0.3l0.6,0.6l0.4,0.7l0.1,0.9l0.3,0.7
		l0.3,0.9l0.3,0.7l0.1,0.9v0.9v0.9l-0.1,0.7l0.3,0.7l0.9,0.1l0.7-0.3l0.6-0.7l0.4-0.7l0.4-0.7l0.4-0.6l0.4-0.7l0.6-0.6l0.6-0.6
		l0.7-0.7l0.6-0.6l0.6-0.4l0.7,0.4l0.3,0.7v0.9l-0.1,0.9l-0.1,0.7l-0.3,0.9l-0.3,0.7l-0.4,0.7l-0.6,0.7l-0.4,0.6l-0.6,0.7l-0.6,0.6
		l-0.7,0.4l-0.7,0.4l-0.7,0.3l-0.7,0.4l-0.7,0.4l-0.7,0.4l-0.7,0.6l-0.4,0.4l0.3,0.7v1l0.3,0.7v0.9l0.1,0.7l0.3,0.9l0.1,0.9l0.3,0.7
		l0.4,0.7l0.1,1.2v0.9v0.9v0.9l0.1,0.9l0.3,0.7l0.3,0.9l0.7,0.3l0.7-0.3l0.9-0.3l0.7-0.4l0.6-0.4l0.7-0.6l0.7-0.3l0.7-0.4l0.7-0.3
		l0.9,0.1l0.6,0.6l0.6,0.7l0.3,0.7l0.1,0.9v0.9l-0.1,0.9l0.4,0.7l0.4,0.7l0.7,0.3l0.6-0.1l-0.1-0.9l-0.1-0.9l0.3-0.7l0.7-0.4
		l0.9-0.1l0.6,0.6l0.6,0.6l0.6,0.7l0.7,0.4l0.7-0.4l0.6-0.7l0.4-0.6l0.3-0.7l0.4-0.7l0.4-0.7l0.4-0.7l0.6-0.7l0.4-0.7l0.4-0.6
		l0.6-0.7l0.6-0.7l0.4-0.6l0.6-0.7l0.4-0.7l0.7-0.6l0.6-0.6l0.6-0.7l0.7-0.6l0.6-0.6l0.1-0.9l0.3-0.7l0.6-0.7l0.4-0.6l0.6-0.7
		l0.3-0.7l0.6-0.3l0.6-0.7l0.4-0.7l0.3-0.7l0.6-0.7l0.4-0.6l0.6-0.6l0.7-0.6l0.6-0.7l0.6-0.6l0.6-0.7l0.6-0.6l0.7-0.6l0.6-0.7
		l0.6-0.6l0.6-0.7l0.6-0.4l0.7-0.6l0.7-0.4l0.6-0.6l0.7-0.6l0.6-0.4l0.7-0.6l0.6-0.6l0.6-0.6l0.6-0.6l0.6-0.7l0.6-0.7l0.6-0.6
		l0.7-0.3l0.9-0.3h0.7l0.1,0.6v0.9l-0.4,0.9l-0.4,0.6l-0.1,0.9l-0.3,0.7l-0.1,0.9l-0.3,0.7l-0.4,0.7l-0.1,0.9l0.3,0.9l0.4,0.6
		l0.4,0.7l0.3,0.9l-0.1,0.9l0.1,0.7v0.9L384,23l0.6,0.7h0.7h0.9l0.9,0.1h0.9h0.9l0.9,0.1h0.9h0.9l0.7,0.3l0.3,0.9l0.3,0.7l0.3,0.7
		l0.6,0.7l0.7,0.4l0.6,0.4l0.7,0.6l0.6,0.6l0.7,0.6l0.4,0.7l0.4,0.6l0.3,0.9l0.7,0.3l0.7,0.4l0.7,0.4l0.7,0.3l0.9-0.1l0.7-0.3
		l0.9-0.1l0.7-0.4l0.7-0.4l0.3-0.7l0.6-0.6l0.3,0.9l0.1,0.7v0.9l-0.7,0.6l-0.7,0.1l-0.9,0.3l-0.7,0.1l-0.9,0.3l-0.7,0.4l-0.4,0.6
		v0.9l-0.1,0.9l-0.6,0.6l-0.7,0.6l-0.3,0.7l-0.1,0.9v0.9l-0.1,0.9l0.4,0.7v0.7l-0.3,0.9l-0.3,0.7l-0.4,0.7l-0.3,0.7l-0.3,0.9
		l-0.3,0.4l-0.9,0.1l-0.7,0.3l-0.7,0.3l-0.9,0.1l-0.9,0.1l-0.6,0.4l-0.3,0.9l0.3,0.7l0.1,0.9l-0.4,0.7l-0.6,0.4l-0.7,0.6l-0.6,0.6
		l-0.4,0.7l-0.4,0.7l-0.3,0.7l-0.1,0.9v0.9l-0.4,0.7l-0.4,0.4l0.4,0.7l0.6,0.6l0.7,0.3l0.9,0.1l0.4,0.6l0.4,0.7l0.9,0.1h0.9h0.9
		l0.7,0.4l0.6,0.6l-0.1,0.7l-0.4,0.7l-0.4,0.7l-0.4,0.7l-0.4,0.7l-0.4,0.7l-0.4,0.7l-0.3,0.7V71l0.6,0.6l0.7,0.4l0.6,0.7l0.3,0.7
		l-0.1,0.9l-0.1,0.9l0.4,1l0.7-0.3l0.6-0.6l0.3-0.7l0.6-0.7h0.7l0.1,0.9v0.9l0.1,0.9l0.1,0.9l0.4,0.7l0.9-0.7l0.6-0.6l0.7-0.6
		l0.6-0.6l0.7-0.6l0.7-0.3l0.9-0.1l0.9-0.1l0.7,0.3l0.4,0.7l0.1,0.9l0.3,0.7l0.6,0.6l0.7,0.3l0.7-0.4l0.9,0.1l0.1,0.9l0.1,0.7
		l0.1,0.9l0.9,0.1l0.9-0.1l0.7-0.1l0.7-0.4l0.9-0.1L415.5,79.7L415.5,79.7"/>
</g>
</svg>
