<?xml version="1.0" encoding="utf-8"?>
<!-- Generator: Adobe Illustrator 27.0.0, SVG Export Plug-In . SVG Version: 6.00 Build 0)  -->
<svg version="1.1" id="Layer_1" xmlns="http://www.w3.org/2000/svg" xmlns:xlink="http://www.w3.org/1999/xlink" x="0px" y="0px"
	 viewBox="0 0 500 500" style="enable-background:new 0 0 500 500;" xml:space="preserve">
<style type="text/css">
	.st0{fill:#E74646;stroke:#FFFFFF;stroke-width:4.6041;stroke-linecap:square;stroke-linejoin:bevel;stroke-miterlimit:3.998;}
</style>
<g transform="matrix(0.999751,0,0,0.999751,18.6633,21.7738)">
	<path vector-effect="none" class="st0" d="M449.4,193.2l-0.1,0.3l-0.2,0.2l-0.2,0.1l-0.2,0.2l0,0.2l0,0.2v0.2v0.2l-0.1,0.2
		l-0.1,0.2l0,0.2v0.2v0.2v0.2v0.2l0,0.2l0,0.2l-0.1,0.2l-0.2,0.1l-0.2,0l-0.2,0l-0.2,0.1l-0.2,0.1l-0.2,0.1l-0.2,0.1l-0.2,0.1
		l-0.2,0H446h-0.2l-0.2,0.1l-0.2,0.1l-0.2,0.1l-0.2,0.1l-0.2,0.1l-0.2,0.1l-0.2,0l-0.2,0l-0.2,0l-0.2,0.1l-0.2,0.1l0,0.2l0.1,0.2
		l0.1,0.2l0.1,0.2l0.1,0.2l0,0.2l0.1,0.2l0.1,0.2l0.1,0.2l0.1,0.2l0,0.2l0.1,0.2l0,0.2l0,0.2l0,0.2l0,0.2l0.1,0.2l0,0.2l0.1,0.2
		l0.2,0.2l0,0.2v0.2v0.2l0,0.2l0,0.2v0.2l0,0.2l0,0.2l0.1,0.2l0,0.2l-0.1,0.2l-0.1,0.2l-0.1,0.2l-0.2,0.2l-0.2,0.2l-0.2,0.2
		l-0.2,0.2l-0.1,0.2l-0.1,0.2l-0.2,0.1l-0.2,0.1l-0.2,0.1l-0.2-0.1l-0.2-0.2l-0.2-0.1l-0.2,0l-0.2-0.1l-0.2-0.1l-0.2,0l-0.2-0.1
		l-0.2-0.1l-0.2-0.1l-0.2-0.1l-0.2,0l-0.2-0.1l-0.2-0.1l-0.1-0.2l-0.2-0.1l-0.2-0.2l-0.1-0.2l-0.1-0.2l-0.1-0.2l-0.1-0.2l-0.1-0.2
		l-0.2-0.2l-0.2-0.2l-0.2-0.2l-0.2-0.2l-0.2-0.2L438,204l-0.2-0.1l-0.2-0.1l-0.2,0l-0.2,0l-0.2,0.1l-0.1,0.2v0.2l0,0.2l0,0.2
		l-0.1,0.2l-0.1,0.2l-0.2,0.2l-0.2,0.2l-0.2,0.2l-0.2,0.2l-0.2,0.2l-0.2,0.2l-0.2,0.2l-0.2,0.2l-0.2,0h-0.2l-0.2,0l-0.2-0.1
		l-0.2-0.2l-0.2-0.2l-0.2-0.1l-0.2-0.1l-0.2-0.1l-0.2-0.1l-0.2-0.1l-0.2-0.1l-0.2-0.1l-0.2-0.1l-0.2-0.1l-0.1-0.2l-0.1-0.2l0-0.2
		l-0.1-0.2l-0.2-0.2l-0.2-0.1l-0.2-0.1l-0.2-0.1l-0.2-0.1l-0.2-0.2l-0.2-0.1l-0.2-0.1l-0.2,0l-0.2-0.1l-0.2-0.1l-0.2-0.1l-0.2-0.1
		h-0.2l-0.1-0.2l-0.2-0.1l-0.2,0.1l-0.2,0.1l-0.2-0.1l-0.2,0.2l-0.1-0.2l-0.2-0.2l-0.2-0.1l-0.2,0l-0.2,0.1l-0.2,0.1l-0.2,0.2
		l-0.2,0.2l-0.1,0.2l0.1,0.2l0.2,0.2l0.2,0.2l0.2,0.2l0.2,0.2l0.1,0.2l0.1,0.2l0,0.2l-0.1,0.2l0,0.2l0,0.2l0.1,0.2l0.1,0.2L427,206
		l-0.2,0.2l-0.1,0.2l-0.1,0.2l-0.2,0.2v0.2l0.1,0.2v0.2l-0.1,0.2l-0.1,0.2v0.2l-0.1,0.2l-0.1,0.2l-0.1,0.2l-0.2,0.1l-0.2,0.2
		l-0.2,0.1h-0.2H425h-0.2l-0.2,0.2l0.1,0.2l0.3,0.2l0.2,0.2l0.1,0.2l0.2,0.2l0.2,0.1l0.2,0.1l0.2,0.1l0.2,0.1l0.2,0.1l0.2,0.2
		l0.2,0.1l0.2-0.1l0.2,0l0.2-0.1l0.2-0.1l0.2-0.1l0.2-0.2l0.2-0.2l0.2-0.1l0.2,0l0.2-0.1h0.2h0.2h0.2l0.2,0.1l0.2,0.1l0.2,0.2
		l0.1,0.2l0.2,0.2l0.2,0.2l0.2,0.2l0.1,0.2l0.1,0.2l0,0.2l0,0.2l-0.1,0.2l0,0.2l-0.1,0.2l-0.1,0.2l0,0.2l0.1,0.2l0.1,0.2l0.1,0.2
		l0.1,0.2l0.1,0.2l0.2,0.2l0.1,0.2l0.2,0.2l0.1,0.2l0.2,0.1l0.1,0.2l0.2,0.2l0.2,0.1l0.2,0l0.2-0.2l0.2-0.1l0.2,0.2l0.2,0.1l0.2,0
		l0.2,0.1l0.2,0.1l0.2,0l0.2,0.1l0.2,0.2l0.1,0.2l0.1,0.2v0.2l-0.1,0.2l-0.1,0.2l-0.1,0.2l-0.1,0.2l0,0.2v0.2v0.2l0,0.2l0,0.2
		l0.1,0.2l0.1,0.2l0.1,0.2l0.2,0l0.2,0.1l0.2,0l0.2,0.1l0.2,0l0.2,0.1l0.2,0.1l0.2,0.2l0,0.2l0,0.2l0,0.2l-0.1,0.2l-0.1,0.2
		l-0.1,0.2l-0.1,0.2l-0.1,0.2l-0.2,0.1l-0.2,0.1l-0.2,0.1l-0.2,0.1l-0.2,0.2l-0.1,0.2l-0.1,0.2l-0.1,0.2v0.2l0,0.2v0.2v0.2l0,0.2
		l0,0.2l0,0.2l0,0.3v0.2l0,0.2l-0.1,0.2l-0.1,0.2l0,0.2l0,0.2v0.2v0.2v0.2l0,0.2l0,0.2l0,0.2l0,0.2l0,0.2l0.1,0.2l0,0.2l-0.1,0.2
		l-0.2,0.1h-0.2l-0.2,0l0,0.2l0.2,0v0.2l-0.2,0.1l0,0.2l0.1,0.2l0.2,0.2l0.2,0.1l0.2,0.1l0.2,0.2l0.1,0.2l0.1,0.2l0.1,0.2l0,0.2
		l0.1,0.2l0.1,0.2l0.2,0.1l0.2,0l0.2,0h0.2l0.2,0l0.1,0.2l-0.2,0.2l-0.2,0.1l-0.2,0.1l-0.2,0l-0.2,0l-0.2,0l-0.2,0.1l-0.1,0.2
		l0.2,0.2l0.2,0l0.2,0l0.2,0l0.1,0.2l-0.1,0.2l-0.2,0.2l0,0.2l0,0.2l0,0.2l0,0.2l0,0.2l0.2,0.2l0.2,0.2l0,0.2l-0.1,0.2v0.2l0.1,0.2
		l0.2,0.2l0.1,0.2v0.2v0.2l0.2,0.1l0.2-0.1l0.2,0l0.2,0.1l0.2,0.1l0.2,0.2l0.2,0.2l0.2,0.2l0.1,0.2l0.2,0.3l0.1,0.2l0,0.2l0,0.3
		l0,0.2l0.2,0.2l0.2,0.1l0.2-0.1l0.2-0.1l0.2-0.1l0.2,0.1l0.1,0.2l0.1,0.2l0,0.2v0.2l0,0.2l0,0.2l0,0.2l0,0.2l0,0.2v0.2l0,0.2l0,0.2
		v0.2v0.2v0.2v0.2l0,0.2v0.2v0.2l0,0.2l-0.1,0.2l0.3,0.2l0.2,0.2l0.2,0.1l0.2,0.1l0.2,0.1l0.2,0.1l0.2,0h0.2h0.2l0.2,0l0.2,0l0.2,0
		l0.2,0l0.2,0l0.2-0.1l0.2-0.1l0.2-0.2l0.2-0.2l0.2-0.1l0.2-0.1l0.2-0.1l0.2-0.1l0.2-0.2l0.2-0.2l0.2-0.2l0.2-0.2l0.2-0.2l0.2-0.2
		l0.2-0.1l0.2-0.1l0.2-0.1l0.2-0.1l0.2-0.2l0.2-0.2l0.1-0.2l0.1-0.2l0.1-0.2l0.2,0l0.2-0.1l0.2-0.2l0.1-0.2l0-0.2l0.1-0.2l0.2-0.1
		l0.2-0.1l0.2-0.1l0.2-0.1l0.2-0.1l0.2-0.1l0.2-0.1l0.2-0.1l0.2-0.1l0.2-0.2l0.2-0.1l0.2-0.2l0.2-0.2l0.2-0.2l0.2-0.2l0.2-0.1
		l0.2-0.2l0.2-0.2l0.2-0.2l0.1-0.2l0.1-0.2l0.2-0.2l0.2-0.2l0.2-0.2l0.2-0.2h0.2l0.2,0l0.2,0l0.2-0.1l0.2-0.2l0.2-0.2l0.2,0h0.2
		l0.1,0.2l0.1,0.2l0.1,0.2l0,0.2v0.2v0.2v0.2l0,0.2l0,0.2v0.2l-0.1,0.2v0.2l0,0.2l0,0.2l0.1,0.2l0.1,0.2l0.2,0.1l0.2,0l0.2,0.1
		l0.2,0.2l0.2,0.2h0.2l0.2,0.2l0.1,0.2l0.2,0.2l0.1,0.2l0.2,0.2l0.2,0.2l0.1,0.2l0.2,0.2l0.2,0.2l0.1,0.2l0.2,0.2l0.1,0.2l0.1,0.2
		l0.1,0.2l0.1,0.2l0.1,0.2l0.2,0.2l0.2,0.1l0.2,0.1l0.2,0l0.2,0.1l0.2,0l0.2,0.2l0,0.2l0,0.2v0.2l0,0.2l0,0.2v0.2l0,0.2l-0.1,0.2
		l-0.1,0.2l-0.1,0.3l0,0.2l0.1,0.2l0.1,0.2l0.2,0.2l0.1,0.2l0.1,0.2l0.1,0.2l0.2,0.1l0.2,0.1l0.2,0.2l0.1,0.2l0.1,0.2l0.1,0.2
		l0.2,0.2l0.2,0.2l0.2,0.1l0.1,0.2l0.1,0.2l0.1,0.2l0.2,0.2l0.1,0.2l0.1,0.2l0.2,0.2l0.2,0.2l0.2,0.2l0,0.2l0,0.2l0,0.2l0.1,0.2
		l0.1,0.2l0,0.2l0.1,0.2l0.1,0.2l0,0.2v0.2l-0.1,0.2l-0.1,0.2l0,0.2l0.2,0.1l0.2,0.2l0.2,0.2l0.2,0.2l0.2,0.2l0.1,0.2l0.1,0.2v0.2
		l0,0.2l0,0.2l0.1,0.2l0.1,0.2l0.1,0.2l0,0.2l-0.1,0.2l-0.1,0.2l0,0.2l0,0.2l-0.1,0.2l-0.2,0.1l-0.2,0.1l-0.2,0l-0.2-0.1l-0.2-0.1
		l-0.2,0.2l0.1,0.2l0.2,0.2l0.1,0.2l0.1,0.2l0,0.2l-0.2,0.1l-0.2-0.1l-0.2,0l-0.2-0.1l-0.2,0l-0.2,0.1l-0.2,0l-0.2,0.1l-0.1,0.2
		l0.1,0.2l0.1,0.2l0,0.2l0,0.2l-0.1,0.2l0,0.2l0.2,0.2l0.2,0.1l0.2,0.1h0.2h0.2l0.2,0.1l0.2,0.1l0.2,0.2l0.1,0.2l0.1,0.2l0.2,0.2
		l0.2,0l0.2-0.1l0-0.2l0-0.2l0.1-0.2l0.2-0.2l0.2,0.2l0.2,0.2l0.2,0.2l0.2,0.2l0.1,0.2l0.2,0.1l0.2,0.1l0.2,0.1l0.2,0.2l0.2,0.2
		l0.2,0.1l0.2,0.1l0.2,0.1l0.2,0h0.2l0.2,0h0.2l0.2-0.1l0.2-0.1l0.2,0l0.1,0.2l0,0.2l0.1,0.2v0.2v0.2l0,0.2l-0.1,0.2l-0.1,0.2
		l-0.1,0.2l0,0.2l0.1,0.2l0.2,0.2l0.1,0.2l0.1,0.2l0,0.2l-0.1,0.2v0.2l0,0.2l0.1,0.2v0.2l0,0.2l-0.2,0.2l-0.1,0.2l-0.1,0.2l-0.1,0.2
		l-0.1,0.2v0.2l0,0.2l0.1,0.2l0,0.2l0,0.2l0,0.2l-0.1,0.2l0,0.2l0,0.2l0.1,0.2l-0.1,0.2l-0.2,0.2v0.2l0,0.2l0,0.2l-0.1,0.2h-0.2
		l-0.2-0.1l-0.2-0.1h-0.2l-0.1-0.2l-0.2-0.2l-0.2-0.1h-0.2h-0.2l-0.2,0h-0.2l-0.2,0.1l-0.2,0.1l-0.2,0.1l-0.2,0.1l-0.2,0.2l-0.2,0.1
		l-0.2,0.1l-0.2,0.1l-0.2,0.1l-0.2,0.1l-0.2,0.1l-0.2,0l-0.2,0l-0.2,0l-0.2,0l-0.2,0.1l-0.2,0.2L463,274l-0.1,0.2l0,0.2l-0.1,0.2
		l-0.2,0.2l-0.2,0.2l-0.1,0.2l-0.1,0.2v0.2l0,0.2l0,0.2l0,0.2v0.2l-0.1,0.2v0.2l0.2,0.2l0.2,0h0.2l0.2,0.1l0.2,0.2l0,0.2L463,278
		l-0.2,0.1l-0.2,0.1l-0.2,0.1l-0.2,0.1l-0.2,0.1l-0.2,0l-0.2,0l-0.2,0.2l-0.2,0.3l-0.2,0.2l-0.2,0.2l-0.2,0.2l-0.2,0.1l-0.2,0.1
		l-0.2,0h-0.2h-0.2l-0.2,0.1l-0.2,0.1l-0.2,0.1l-0.2,0.1l-0.2,0l-0.2,0l-0.2,0l-0.2,0.1l-0.1,0.2l-0.1,0.2l-0.1,0.2l-0.1,0.2
		l-0.1,0.2l-0.2,0.1l-0.2,0.2l-0.2,0l-0.2,0.1l-0.2-0.1l-0.2-0.1l-0.2-0.1l-0.2-0.2l-0.2-0.2l-0.1-0.2l-0.2-0.1l-0.2,0l-0.2,0
		l-0.2,0l-0.2-0.2l-0.2,0l-0.2,0.1l-0.2,0.1l-0.2,0.1l-0.2,0l-0.2,0.1h-0.2h-0.2l-0.2-0.1l-0.2-0.1l-0.2-0.2l-0.2-0.2l-0.1-0.2
		l-0.1-0.2l-0.2-0.2l-0.2,0h-0.2h-0.2l-0.2,0h-0.2l-0.2,0l-0.2,0h-0.2l-0.2,0l-0.2-0.1h-0.2l-0.2,0.1l-0.2,0.1l-0.2,0.1l-0.2,0.1
		l-0.2,0.1l-0.2,0.2l0,0.2l0.1,0.2l0.2,0.2l0.1,0.2l0,0.2l0.1,0.2l0.2,0l0.2,0l0.2,0.1h0.2l0.2-0.1h0.2l0.2,0.1l0.1,0.2v0.2
		l-0.1,0.2l-0.1,0.2l-0.2,0.2l-0.2,0.2l-0.2,0.1l-0.1,0.2l0,0.2l0.1,0.2l-0.1,0.2l-0.2,0H448l-0.2,0.1l-0.2,0.1l-0.2,0.1l-0.2,0
		l-0.2,0l-0.2,0l-0.2,0l-0.2-0.1l-0.2-0.2l-0.2-0.1l-0.2-0.1l-0.2-0.1l-0.2-0.1l-0.2-0.1l-0.1,0.2l0,0.3l-0.1,0.2l-0.2,0.1l-0.2,0
		l-0.3,0l-0.2,0l-0.2-0.1l-0.2-0.1l-0.2-0.1l-0.2-0.1l-0.2-0.1h-0.2l-0.2,0l-0.2,0.1l-0.2,0.1l-0.2,0.1l-0.2,0.1l-0.2,0.1l-0.2,0.1
		l-0.2,0.1l-0.2,0.1l-0.2,0.1l-0.2,0.2l0,0.2v0.2l0,0.2l-0.1,0.2l-0.1,0.2l0,0.2v0.2l0,0.2l0,0.2v0.2l0,0.2v0.2v0.2l-0.1,0.2
		l-0.2,0.2l-0.2,0.2l-0.2,0.2l-0.2,0.1l-0.2,0h-0.2l-0.2,0.2l-0.2,0.2l-0.2,0.2l-0.2,0.2l-0.1,0.2l-0.2,0.2l-0.2,0.2l-0.2,0.2
		l-0.2,0.2l-0.2,0.2l-0.2,0.2l-0.1,0.2l-0.2,0.2l-0.1,0.2l-0.2,0.1l-0.2,0.1h-0.2l-0.2-0.1l-0.2-0.2l-0.1-0.2l0-0.2l-0.1-0.2
		l-0.1-0.2l-0.2-0.2l-0.2-0.1l-0.2-0.1l-0.2,0l-0.2,0l-0.2,0.1l-0.2,0l-0.2,0.1l-0.1,0.2l-0.2,0.2l-0.2,0l-0.2,0l-0.2-0.1h-0.2
		l-0.2,0.1l-0.1,0.2l0,0.2l-0.2,0.2h-0.2l-0.2,0l-0.2,0.1l-0.1,0.2l-0.1,0.2l-0.2,0.1l-0.2,0l-0.2,0.1l-0.2,0.1l-0.2,0.1l-0.2,0.2
		l-0.2,0.2l-0.1,0.2l-0.1,0.2l-0.1,0.2l0,0.2l0,0.2l0,0.2l-0.2,0.2l-0.2,0.1l-0.2,0.1l-0.2,0.1l-0.3,0.1l-0.2,0.2l-0.1,0.2l-0.1,0.2
		l-0.1,0.2l-0.1,0.2l-0.1,0.2l-0.2,0.2l-0.2,0.2l-0.2,0.1l-0.2,0.2l-0.2,0.2l-0.2,0.2l-0.2,0.1l-0.2,0.2l-0.2,0.2l-0.2,0.1l-0.2,0.1
		l-0.2,0.1l-0.2,0.2h-0.3h-0.2h-0.2h-0.3h-0.2h-0.2h-0.2h-0.2h-0.2h-0.3h-0.2L422,298l-0.2,0.1l-0.2,0.1l-0.2,0.1l-0.1,0.2l-0.2,0.2
		l-0.2,0.1l-0.2,0.1l-0.2,0.1h-0.2l-0.2,0h-0.2l-0.2,0.2l-0.1,0.2l-0.2,0.2l-0.2,0.2l-0.2,0.2l-0.2,0.2l-0.2,0.2l-0.2,0.2l-0.2,0.2
		l-0.2,0.2l-0.2,0.1l-0.2,0.1l-0.2,0l-0.2,0l-0.2,0l-0.2,0.1l-0.1,0.2l-0.1,0.2l-0.2,0.1l-0.2,0.1l-0.2,0.2l-0.2,0.1l-0.2,0.2
		l-0.2,0.1l-0.1,0.2v0.2l0.1,0.2l0,0.2l0,0.2l0,0.2v0.2l0,0.2l0,0.2l0,0.2l-0.1,0.2l-0.2,0.1l-0.2,0.2l-0.1,0.2l0,0.2l0,0.2
		l-0.2,0.1l-0.2,0l-0.2,0l-0.2,0l-0.2,0l-0.2,0.1l-0.1,0.2v0.2l-0.1,0.2l-0.2,0.1l-0.2,0l-0.2,0.2l-0.2,0.2l-0.1,0.2l-0.1,0.2
		l-0.1,0.2l-0.1,0.2l0,0.2l-0.1,0.2l-0.2,0.2l-0.1,0.2l-0.1,0.2l-0.2,0.2l-0.2,0.1l-0.2,0.1l-0.1,0.2l0,0.2l0,0.2l-0.1,0.2l-0.1,0.2
		l-0.1,0.2L410,311l-0.1,0.2l-0.1,0.2l-0.1,0.2l0,0.2l0,0.2l0,0.2l0,0.2l-0.1,0.2l-0.1,0.2l-0.2,0.2l-0.2,0.1l-0.2,0.1l-0.2,0
		l-0.2-0.1l-0.2-0.1l-0.3-0.3l0-0.2v-0.2l0-0.2l0-0.2v-0.2v-0.2v-0.2l0-0.2l-0.1-0.2l-0.1-0.2l-0.1-0.2l-0.1-0.2l-0.1-0.2l-0.2-0.2
		l-0.2-0.1l-0.2-0.1l-0.2-0.2l-0.2-0.1l-0.2-0.2l-0.2-0.2l-0.1-0.2l-0.1-0.2l-0.2-0.2l-0.2-0.2l0-0.2v-0.2v-0.2l-0.1-0.2l-0.1-0.2
		l-0.2-0.2l-0.1-0.2l-0.2-0.2l0-0.2v-0.2l-0.2-0.2l-0.2-0.1l-0.2-0.2l-0.1-0.2l-0.1-0.2l-0.1-0.2l-0.1-0.2l-0.2-0.2l-0.2-0.2
		l-0.1-0.2l-0.2-0.2l-0.2-0.2l-0.1-0.2l-0.1-0.2l-0.1-0.2v-0.2l0-0.2l0-0.2l0.1-0.2l0-0.2l0-0.2v-0.2l0-0.2l-0.2-0.2h-0.2l-0.2,0
		l-0.2,0l-0.2,0.1h-0.2l-0.2,0h-0.2l-0.2-0.1H401l-0.2,0h-0.2l-0.2,0L400,301l-0.2-0.1l-0.2-0.1l-0.2-0.1l-0.2-0.1l-0.2-0.1
		l-0.2-0.1l-0.2-0.1l-0.2-0.1l-0.2-0.2l-0.2-0.2l-0.2-0.2l-0.1-0.2l-0.1-0.2l-0.1-0.2l-0.1-0.2l-0.1-0.2l-0.1-0.2l-0.1-0.2l-0.1-0.2
		l-0.1-0.2l-0.2-0.2l-0.2-0.2l-0.2-0.2l-0.2,0.1l0,0.2l0,0.2l-0.1,0.2l-0.1,0.2l-0.1,0.2l-0.2,0.2l-0.2,0.2l-0.2,0.2l-0.2,0.1
		l-0.2,0.2l-0.2,0.2l-0.2,0.1l-0.2,0.1l-0.2,0.1l-0.2,0.1l-0.2,0.1l-0.2,0.2l-0.2,0.2l-0.2,0.1l-0.2,0.1l-0.2,0.1l-0.2,0.2l0,0.2
		l-0.1,0.2l0,0.2l-0.2,0.2L392,302l0,0.2l0.1,0.2l0.2,0.2l0.2,0.2l0.1,0.2l0.2,0.2l0,0.2l0.2,0.2l0.1,0.2l0.1,0.2l0.1,0.2l0.2,0.2
		l0.2,0l0.2,0.1l0.2,0.1l0.2,0.2l0.1,0.2l0.1,0.2l0.1,0.2l0.1,0.2l0.1,0.2v0.2l0,0.2l-0.1,0.2l-0.1,0.2l-0.1,0.2l-0.1,0.2l-0.1,0.2
		l-0.1,0.2l-0.1,0.2l0,0.2l-0.1,0.2v0.2l0,0.2l0.1,0.2l0,0.2l0.1,0.2l0,0.2l0,0.3l0,0.2v0.2v0.3l0,0.2l-0.1,0.1l0.1,0.2l0,0.2
		l-0.1,0.2l-0.1,0.2l-0.1,0.2l-0.1,0.2l0,0.2l0,0.2l0.1,0.2l0.1,0.2l0.1,0.2l0.1,0.2l0,0.2v0.2v0.2l0,0.2l0,0.2v0.2v0.2l0,0.2l0,0.2
		l0.1,0.2l0.1,0.2l0.2,0.2l0.2,0.2l0.2,0.1l0.2,0h0.2h0.2l0.2,0.1l0.2,0.1l0.1,0.2v0.2l-0.1,0.2l-0.2,0.2l-0.2,0.1l-0.2,0.2
		l-0.1,0.2l0.1,0.2l0.2,0.2l0.2,0.1l0.1,0.2l0.1,0.2l0,0.2v0.2l0,0.2v0.2l-0.1,0.2l-0.1,0.2v0.2l0.1,0.1l-0.1,0.2l-0.2,0.2l-0.2,0.1
		l-0.2,0.1l-0.2,0l-0.2,0.2l0,0.2l0.2,0.2l0.2,0.2l0,0.2l-0.1,0.2l0,0.2l-0.1,0.2l0,0.2l-0.1,0.2l-0.2,0.1l-0.3,0l-0.2,0l-0.2,0.1
		l-0.2,0.2l-0.2,0l-0.2,0.2l-0.1,0.2l-0.1,0.2l-0.2,0l-0.2,0l-0.2,0h-0.2l-0.2,0h-0.2l-0.2,0l-0.2,0.1h-0.2l-0.2,0h-0.2h-0.2l-0.2,0
		l-0.2,0h-0.2l-0.2-0.1l-0.2-0.1l-0.2,0l-0.2,0l-0.2,0l-0.2,0.1l-0.2,0.1l-0.2,0l-0.2,0l-0.2,0l-0.2,0l-0.2-0.1l-0.1-0.2l-0.1-0.2
		l0-0.2l-0.1-0.2l-0.1-0.2l-0.2-0.2l-0.2,0l-0.2,0l-0.2,0.1l-0.2,0.1l-0.2,0.1l-0.1,0.2l-0.1,0.2l-0.1,0.2l-0.2,0.1l-0.2,0l-0.2,0
		l-0.2,0l-0.2-0.1l-0.2-0.1l-0.2-0.1l-0.2,0l-0.2-0.1l-0.2,0l-0.2,0.1h-0.2H382l-0.2,0h-0.2l-0.2,0l-0.2,0.1l-0.2,0h-0.2h-0.2
		l-0.2,0.1l-0.2,0.1l-0.2,0.1l-0.2,0.1l-0.2,0l-0.2,0l-0.2,0.1l-0.2,0.2l-0.2,0.2l0,0.1l-0.2,0.1l-0.2,0.1l-0.2-0.2l-0.2-0.1l0-0.2
		l0-0.2l0-0.2l-0.1-0.2l0-0.2l0-0.2l0-0.2v-0.3v-0.2l-0.1-0.2l-0.1-0.2l-0.1-0.2l-0.2-0.2l-0.2-0.1l-0.2-0.1l-0.2-0.1l-0.2,0
		l-0.2-0.2l0-0.2l0.1-0.2l0.2-0.2l0.2-0.2l0.1-0.2l0.1-0.2v-0.2l0-0.2l0-0.2l0-0.2v-0.2l-0.3-0.1l-0.2-0.1l-0.2-0.1l-0.2-0.1l-0.2,0
		l-0.2,0l-0.2,0l-0.2-0.1l-0.2-0.1l0-0.2v-0.2l0-0.2v-0.2L374,318l-0.2-0.2l-0.2-0.2l-0.2-0.1l-0.2,0l-0.1-0.2l-0.1-0.2l-0.1-0.2
		l0-0.2l-0.1-0.2l-0.1-0.2l-0.1-0.2l0-0.2l0-0.2l0-0.2V315l0-0.2l0.1-0.2l0.1-0.2l0.2-0.1l0.2-0.1l0.2-0.1h0.2h0.2l0.2,0.1l0.2,0.1
		l0,0.2l0,0.2l0.2,0.2l0.2,0l0.2,0.1l0.2-0.2l0.1-0.2l0-0.2l0.1-0.2l0.1-0.2l0.1-0.2l0.1-0.2l0.1-0.2l0.1-0.2l0-0.2l0-0.2l-0.1-0.2
		l-0.1-0.2l-0.2-0.2l-0.1-0.2l-0.2-0.2l-0.2-0.1l-0.2-0.1l-0.2-0.1l0-0.2l0-0.2l0.2-0.2l0.1-0.2l0.1-0.2l0.1-0.2v-0.2l0-0.2l0-0.2
		l-0.2-0.1h-0.2h-0.2l-0.2,0l-0.2-0.1l-0.2-0.1l0.1-0.2l0.2-0.1l0.2-0.1l0.2-0.1l0.1-0.2l0-0.2l-0.1-0.2l-0.2-0.2l-0.2-0.1l-0.2-0.2
		l-0.1-0.2h-0.3l-0.2,0.1l-0.1,0.2l0,0.2v0.2l0,0.2l-0.1,0.2l-0.2,0.2l-0.2,0.1l-0.2,0.1l-0.2,0.1H372h-0.2l-0.2-0.1l-0.2-0.2l0-0.2
		l0.2-0.2h0.2l0.2-0.1l0.1-0.2v-0.2l-0.2-0.1l-0.2-0.1l-0.2-0.1l-0.2-0.1l-0.2-0.1l-0.2-0.2l-0.1-0.2v-0.2l0.1-0.2l0-0.2l0-0.2
		l0-0.2l-0.1-0.2l-0.2-0.2l-0.2-0.1l-0.2-0.1l-0.2-0.1l-0.2-0.1l-0.2-0.1l-0.2-0.1l-0.2-0.1l-0.2-0.2l-0.2-0.1l-0.2-0.2v-0.2
		l0.1-0.2l0.2-0.1l0.2-0.1l0.2-0.1l0.2-0.1l0.2-0.2l0.2-0.2v-0.2l-0.1-0.2l-0.2-0.2l-0.2-0.2l-0.2-0.2l-0.1-0.2l-0.1-0.2v-0.2
		l0.1-0.2v-0.2v-0.2l-0.1-0.2l-0.1-0.2l-0.1-0.2l-0.1-0.2l-0.2-0.1l-0.1-0.2l-0.2-0.2l-0.2-0.1l-0.2-0.1l-0.2-0.2l-0.2-0.2l-0.2-0.2
		l-0.2-0.2l-0.2-0.2l-0.2-0.2l-0.2-0.2l-0.2-0.1l-0.2-0.2l-0.2-0.2l-0.1-0.2l-0.2-0.2l-0.1-0.2l-0.1-0.2l-0.1-0.2l-0.1-0.2l-0.1-0.2
		l-0.2-0.2l-0.1-0.2l-0.1-0.2l0-0.2l-0.1-0.2l-0.2,0.1l-0.2,0.1l-0.2,0.1l-0.2,0.1l-0.2,0l-0.2-0.1l-0.2,0l-0.2-0.1l-0.2,0l-0.2,0.1
		l-0.2,0.1l-0.2,0.2l-0.2,0.2l-0.2,0.2l-0.2,0.2l-0.2,0.1l-0.2,0.1h-0.2l-0.2-0.1l-0.2-0.1l-0.2-0.2l-0.2-0.1l-0.2,0l-0.2,0.1
		l-0.1,0.2l-0.2,0.2l-0.2,0.2l-0.1,0.2l-0.2,0.2l-0.2,0.2l-0.1,0.2l-0.2,0.2L358,297l-0.2,0.2l-0.1,0.2l-0.1,0.2l0,0.2v0.2l0,0.2
		l0,0.2l-0.1,0.2l-0.2,0l-0.2,0.1l-0.2,0l-0.2,0l-0.2,0.1l-0.2,0l-0.2,0l-0.2-0.1l-0.2-0.1l-0.2-0.1h-0.2l-0.2,0.1l-0.2,0.1l-0.2,0
		l-0.2,0l-0.2,0l-0.2,0l-0.2,0l-0.2-0.1h-0.2l-0.2,0l-0.2,0l-0.2-0.1l-0.2-0.1l-0.2,0l-0.2,0.2l-0.1,0.2l-0.2,0.1l-0.2,0.1l-0.2,0.1
		l-0.2,0l-0.2,0.1l-0.1,0.2l0,0.2l-0.2,0.2l-0.2,0.1l-0.2,0.1l-0.2,0.1l-0.2,0.1l-0.2,0.1l-0.2,0.2l-0.1,0.2l-0.1,0.2v0.2l0,0.2
		l0,0.2v0.2v0.2l0,0.2v0.2l0,0.2l0,0.2l0,0.2l0.1,0.2l0.1,0.2l0,0.2l0.1,0.2l0.1,0.2l0.1,0.2l0,0.2v0.2v0.2v0.2l-0.1,0.2l-0.2,0.1
		l-0.2,0.1l-0.2,0h-0.2l-0.2,0h-0.3l-0.2,0l-0.2,0H347l-0.1,0.2v0.2l0.1,0.2l0.2,0.2l0.2,0.2l0.2,0l0.2,0.1l0.2,0.1l0.2,0.2l0.2,0.2
		l0.2,0.1l0.2,0.2l0.1,0.2l0.1,0.2v0.2l0,0.2v0.2l0,0.2v0.2l0,0.2v0.2l0,0.2l-0.1,0.2l-0.1,0.2l-0.1,0.2l-0.1,0.2l-0.1,0.2l-0.1,0.2
		L348,312l-0.1,0.2l-0.1,0.2l-0.1,0.2l-0.1,0.2l-0.1,0.2l-0.1,0.2l-0.1,0.2l-0.2-0.1l-0.2-0.1l-0.2-0.1l-0.2-0.1l-0.2-0.1l-0.2-0.1
		l-0.2-0.1l-0.2-0.1l-0.2-0.1l-0.2-0.1h-0.2l-0.2,0.2l-0.2,0.2h-0.2H344l-0.2,0l-0.2,0.1l-0.2,0.1l-0.2,0h-0.2l-0.2,0l-0.2-0.1
		l-0.2-0.2l-0.1-0.2l0-0.2l-0.2-0.2l-0.2-0.1h-0.2l-0.2,0.1l-0.2,0.2l-0.2,0.2l-0.1,0.2l-0.1,0.2l-0.2,0.1l-0.2,0.1l-0.2,0h-0.3
		l-0.2-0.1l0.1-0.2l0.1-0.2l0.1-0.2l0.1-0.2V312l0-0.2l-0.2-0.1l-0.2-0.2l-0.2-0.1h-0.2h-0.2l-0.2,0l-0.2,0.1l-0.2,0.1l-0.1,0.2
		L338,312v0.2l-0.1,0.2l-0.2,0.2l-0.2,0.1l-0.2,0.1l-0.2,0.1l-0.2,0.2l-0.2,0.1l-0.2,0.2l-0.1,0.2l-0.1,0.2l0,0.2l0,0.2v0.2l0,0.2
		l-0.1,0.2l-0.1,0.2h-0.2l-0.2-0.2l-0.2,0.1l-0.1,0.2h-0.2l-0.2-0.2l-0.2,0l-0.2,0.2l-0.1,0.2l0,0.2l0.1,0.2l0.1,0.2l0,0.2l-0.1,0.2
		l-0.1,0.2l-0.2,0.2l-0.2,0.2l-0.2,0.1l-0.3,0.1h-0.2h-0.2l-0.2,0h-0.3l-0.2-0.2l-0.1-0.2l0-0.2l0-0.2v-0.2l0-0.2l-0.1-0.2l-0.2-0.2
		l-0.2-0.2l-0.2-0.2l-0.1-0.2l-0.1-0.2l-0.1-0.2l-0.1-0.2l-0.1-0.2l-0.1-0.2l-0.1-0.2l-0.1-0.2l-0.1-0.2l0-0.2l-0.2,0l-0.2,0.1
		l-0.2,0.1l-0.2,0l-0.2,0.1h-0.2l-0.2,0l-0.1,0.2l-0.2,0.2l-0.2,0.2l-0.2,0.2l-0.2,0.2l-0.1,0.2l-0.2,0.2l-0.2,0l-0.2,0l-0.2,0.1
		l-0.2,0.2l-0.2,0.2l-0.2,0.1l-0.2,0.2l-0.2,0.2l-0.2,0.1l-0.2,0.2l-0.1,0.2l-0.1,0.2l-0.2,0.2l-0.2,0.1l-0.2,0.1l-0.2,0.1l-0.2,0.1
		l-0.2,0.1l-0.2,0.1l-0.2,0.2l-0.2,0.2l-0.2,0.2l-0.2,0.2l-0.2,0.1l-0.2,0.1l-0.2,0.2l-0.2,0.2l-0.2,0.1l-0.2,0.1l-0.2,0.1l-0.2,0.1
		l-0.2,0.1l-0.2,0.1l-0.2,0.2l-0.2,0.1l-0.2,0.1l-0.2,0.1l-0.2,0l-0.2,0.1l-0.2,0.1l-0.2,0.1l-0.2,0.2l0,0.2v0.2l0.1,0.2l0.2,0.2
		l0.2,0.2l0.1,0.2l0,0.2l-0.2,0.2l-0.2,0.1l-0.2,0.1l-0.2,0h-0.2l-0.2,0.1l-0.2,0.1l-0.2,0.2v0.2l-0.1,0.2l-0.1,0.1l-0.2,0l-0.2-0.1
		l-0.2-0.1l-0.2-0.1h-0.2l-0.2,0l-0.2-0.1l-0.2-0.2l-0.2-0.2l-0.2-0.2l-0.2,0l-0.2,0l-0.2,0.1l-0.2,0.1l-0.1,0.2l-0.2,0.2l-0.2,0
		l-0.2,0l-0.2,0l-0.2,0h-0.2l-0.2,0l-0.2,0.1l-0.2,0l-0.2,0l-0.2,0h-0.3l-0.2,0.1l-0.2,0.1l-0.2,0.1l-0.3,0.2l0-0.2l0.1-0.2l0.1-0.2
		l0.1-0.2l0-0.2v-0.2l0-0.2l0-0.2V321v-0.2l0-0.2l0-0.2l0-0.2v-0.2v-0.2v-0.2l0-0.2l0-0.2l-0.1-0.2l-0.1-0.2l0-0.2l0.1-0.2l0.2-0.1
		l0.2-0.2l0.1-0.2l0.2,0l0.2-0.1l0.1-0.2l0-0.2l0-0.2l-0.1-0.2l0-0.2l0-0.2l0-0.2l-0.1-0.2l-0.2-0.2l-0.1-0.2v-0.2v-0.2v-0.2v-0.2
		v-0.2l-0.1-0.2l-0.1-0.2l-0.1-0.2l-0.2-0.1l0-0.2l-0.2-0.1l-0.2,0h-0.2H311h-0.2l-0.2-0.1l-0.2-0.2l0-0.2l0.1-0.2l0.2-0.2l0.2-0.2
		l0.2-0.2l0.1-0.2l0.1-0.2l0.2-0.2l0.1-0.2l0.1-0.2v-0.2l0-0.2l-0.1-0.2l-0.2-0.2l-0.2-0.1l-0.2-0.2l-0.1-0.2l0-0.2l-0.1-0.1l-0.2,0
		l-0.2,0.2l-0.2,0.2l-0.1,0.2l-0.1,0.2v0.2l0,0.2l0,0.2l-0.2,0.2l-0.2,0.1h-0.2l-0.2,0l-0.2,0l-0.2-0.1l-0.2,0l-0.2,0l-0.2,0
		l-0.2,0.1l-0.2,0.1l-0.2,0l-0.2-0.2l-0.2-0.1l-0.2-0.1l-0.2-0.1l-0.2,0h-0.2l-0.2,0l-0.2,0.1l-0.2,0.1l-0.2,0.2l-0.2,0.2l-0.1,0.2
		v0.2v0.2l-0.1,0.2l-0.1,0.2l-0.1,0.2l0,0.2v0.2l0,0.2l0,0.2v0.2l0,0.2l0,0.2l-0.2,0.2l-0.2,0.2l-0.2,0.1l-0.2,0.2l-0.2,0.1
		l-0.2,0.1l-0.2,0.1l-0.2,0.1l-0.2,0.1l-0.2,0.1l-0.2,0.1l-0.2,0.1l-0.2,0.2l-0.1,0.2l-0.1,0.2l-0.1,0.2l-0.2,0.2l-0.2,0.2l-0.1,0.2
		l-0.2,0.2l-0.1,0.2l-0.1,0.2l-0.2,0.2l-0.2,0.2l-0.2,0.2L300,318l-0.1,0.2l0,0.2l0,0.2l-0.1,0.2l0,0.3l0,0.2v0.2v0.2v0.2v0.2
		l0.1,0.2l0,0.2v0.2v0.2l0.1,0.2l0.1,0.2l0.1,0.2l0.1,0.2v0.2l0,0.2v0.2v0.2l0.1,0.2l0,0.2l0,0.2l-0.1,0.2l-0.1,0.2l0,0.2l0.2,0.2
		l0.1,0.2l0.1,0.2l0.1,0.3l-0.2,0.2l-0.2,0.1l-0.2,0l-0.4,0l-0.2-0.2l-0.2-0.1l-0.2,0l-0.2,0l-0.2,0l-0.2,0l-0.2,0h-0.2h-0.2l-0.2,0
		h-0.2h-0.2h-0.2l-0.2,0.1l-0.2,0.1l-0.2,0.1l-0.2,0.1l-0.1,0.2l-0.2,0.2l-0.1,0.2l-0.2,0.1l-0.2,0l-0.2,0.1l-0.2,0.2l-0.1,0.2
		l-0.1,0.2l-0.2,0.2l-0.2,0.2l-0.1,0.2l0,0.2l0,0.2l0.2,0.2l0.2,0.1l0.2,0.1l0.2,0.1l0.1,0.2l0,0.2l0,0.2l0,0.2l-0.1,0.2l0,0.2
		l0,0.2l-0.1,0.2l-0.2,0.2l0.1,0.3l0.1,0.2l0.2,0.2l0.2,0.2l0.2,0.2l0.2,0.2l0,0.2l0.1,0.2l0.2-0.1l0.2-0.2l0.2,0l0.1,0.2v0.2v0.3
		v0.2l-0.1,0.2l0,0.2l0,0.2l-0.2,0.2l-0.2,0.2l-0.2,0.1h-0.2h-0.2l-0.2,0.1l-0.2,0.2l-0.1,0.2l-0.1,0.2l0,0.2l-0.1,0.2l-0.1,0.2
		l-0.2,0.2l-0.2,0.1h-0.2l-0.2,0l-0.2,0.1v0.2l0.2,0.1l0.2,0.1l0.2,0.1l0.2,0.2l0.1,0.2l0.1,0.2l0.1,0.2l0.2,0.2l0.2,0.1l0.2,0.1
		l0.2,0.1l0.2,0.1l0.2,0.2l0.2,0.2l0.2,0.2l0.2,0.2l0,0.2l0,0.2l0,0.2l0.1,0.2l0.1,0.2l0,0.2l0.1,0.2l0.2,0l0.2,0.1l0.2,0.2l0.1,0.2
		l0.1,0.2l0.1,0.2l0.1,0.2l0,0.2v0.2l-0.1,0.2l-0.1,0.2l-0.1,0.2l0.1,0.2l0.1,0.2l0.2,0.2l0.2,0.2l0.1,0.2l0.2,0.2l0.2,0.2l0.2,0.2
		l0.1,0.1l0.2,0.2l0.2,0.2l-0.2,0.3l-0.2,0h-0.2l-0.2,0.1l-0.2,0.2l-0.2,0.1l-0.1,0.2l0,0.2v0.3l0,0.2l0,0.2v0.2l0,0.2l-0.2,0.2
		l-0.2,0.2l-0.2,0.1l-0.2,0.2l0,0.2l0,0.2l0.1,0.2l0.2,0.2l0.2,0.1l0.2,0.2l0.2,0.2l0.2,0.2l0,0.2v0.2l-0.1,0.2l-0.1,0.2l-0.2,0.1
		l-0.2,0.1l-0.2,0.1l-0.2,0.1l-0.2,0l-0.2,0l-0.2,0l-0.2,0.1l-0.2,0.2l-0.1,0.2l-0.2,0.2l-0.2,0.2l-0.2,0.2l-0.2,0.1l-0.2,0.2
		l-0.2,0.2l-0.2,0.1h-0.2l-0.2-0.1l-0.2-0.2l-0.2-0.2l-0.2-0.2l-0.1-0.2l-0.1-0.2l-0.2-0.2l-0.3-0.2l-0.1,0.2v0.2l0,0.2l-0.1,0.2
		l-0.2,0.2l-0.2,0.1l-0.2,0.1l-0.2,0.1l-0.2,0.2l-0.2,0.1l-0.2,0.2l-0.2,0.1l-0.2,0.1l-0.2,0.1l-0.2,0.1l-0.2,0.2l-0.1,0.2l-0.1,0.2
		l-0.1,0.2l-0.2,0.2l-0.2,0.1l-0.2,0.1l-0.2,0.2l-0.1,0.2l-0.2,0.2l-0.2,0.2l-0.2,0.2l-0.2,0.1l-0.2,0.1l-0.2,0l-0.2,0l-0.2,0.1
		l-0.3,0.1l-0.2-0.1l-0.2,0l-0.2,0l-0.2,0l-0.2,0.1h-0.2l-0.2,0l-0.2,0l-0.2,0l-0.2,0h-0.2h-0.2l-0.2,0l-0.2-0.1l-0.2-0.1l-0.1-0.2
		l-0.1-0.2l-0.2-0.2l-0.2-0.2l-0.1-0.2l-0.1-0.2l-0.1-0.2l-0.2-0.2l-0.2-0.1l-0.2,0l-0.2,0.1l-0.2,0.1l-0.2,0.1l-0.2,0.1l-0.2,0
		l-0.2,0.1l-0.2,0l-0.2,0.1l-0.2,0.1l-0.2,0.1l-0.2,0.1h-0.2l-0.2,0h-0.2l-0.2,0l-0.2,0.1l-0.2,0.1h-0.2h-0.2h-0.2l-0.2,0.1
		l-0.2,0.1l-0.2,0.1l-0.2,0l-0.2,0.1l-0.2,0.1l-0.2,0.1l-0.2,0.2l-0.1,0.2l0,0.2l-0.1,0.2l0,0.2l0,0.2l-0.1,0.2l-0.1,0.2l0.1,0.1
		l-0.1,0.2v0.2l0,0.2l0,0.2l-0.1,0.2l-0.1,0.2l-0.2,0.2l-0.2,0.1l-0.2,0.1l-0.2,0.1l-0.2,0.2l-0.1,0.2l-0.2,0.2l-0.2,0.1l-0.2,0.1
		h-0.2l-0.3-0.1l-0.2-0.2l-0.2-0.2l-0.2,0l-0.2-0.1l-0.1-0.2l-0.2-0.1l-0.2-0.1l-0.2-0.2l-0.2-0.2l-0.2-0.1l-0.2-0.2l-0.2-0.1
		l-0.2-0.1l-0.2-0.1l-0.1-0.2l-0.2-0.1h-0.2l-0.2,0l-0.2-0.1l-0.2-0.2l-0.2-0.1l-0.2-0.1l-0.2,0l-0.2-0.1l-0.2-0.1l-0.2-0.1l-0.2,0
		l-0.2,0l-0.2,0.1l-0.2,0.1l-0.2,0.1l-0.2,0.1l-0.2,0.1l-0.2,0.1l-0.2,0.1l-0.2,0.1l-0.2,0.1l-0.2,0.1l0,0.2l-0.1,0.2l-0.1,0.2
		l-0.1,0.2l-0.1,0.2l-0.1,0.2l-0.2,0.2l-0.2,0.2l-0.2,0.2l-0.2,0.2l-0.2,0.2l-0.1,0.2v0.2l0,0.2l-0.2,0.2l-0.2,0.2l-0.1,0.2
		l-0.1,0.2l0,0.2l0,0.2l-0.1,0.2l0,0.2l-0.1,0.2l-0.1,0.2l-0.1,0.2l-0.1,0.2l-0.2,0.2l-0.2,0.2l-0.1,0.2l-0.1,0.2l0,0.2l-0.1,0.2
		l-0.1,0.2l-0.2,0.2l-0.1,0.2l-0.2,0.2l-0.1,0.2l-0.2,0.2l-0.2,0.2l-0.1,0.2l-0.1,0.2l-0.1,0.2l-0.1,0.2l-0.1,0.2l-0.1,0.2l-0.1,0.2
		l-0.1,0.2l-0.1,0.2l-0.1,0.2l-0.1,0.2l-0.2,0.2l-0.1,0.2l-0.2,0.1l-0.2,0.2l-0.1,0.2l-0.1,0.2l0,0.2l0,0.2l0,0.2l-0.1,0.2v0.2v0.2
		v0.2l0,0.2l0,0.2l0,0.2l0,0.2l-0.1,0.2l0,0.2l-0.1,0.2l-0.1,0.2L258,373v0.2l0,0.2l0,0.2l-0.2,0h-0.2l-0.2,0l-0.2,0.1l-0.2,0.1
		h-0.2h-0.2l-0.2-0.1l-0.2-0.1l-0.2-0.1h-0.2l-0.2,0l-0.2,0.2l-0.2,0.1l-0.2,0.1h-0.2h-0.2h-0.2l-0.2-0.2l-0.2-0.2l-0.2-0.2
		l-0.2-0.1l-0.2-0.1l-0.2-0.1l-0.2-0.1l-0.2,0l-0.2,0l-0.2,0l-0.2,0.1h-0.2l-0.2-0.1l-0.2-0.1l-0.2,0l-0.2-0.1l-0.2,0l-0.2,0h-0.2
		l-0.2,0l-0.2,0.1l-0.2,0.1l-0.2,0l-0.2,0.1l-0.2,0l0,0.2v0.2v0.2v0.3v0.2v0.2l0,0.2l0,0.2l0,0.2l0,0.2v0.2l-0.1,0.2l-0.1,0.2
		l-0.1,0.2l-0.2,0.2l-0.2,0.2l-0.2,0.2l-0.1,0.2l-0.1,0.2l-0.1,0.2l0,0.2l0,0.2l0,0.2l-0.1,0.2l-0.2,0.1l-0.2,0h-0.2l-0.2,0l-0.2,0
		h-0.2l-0.2,0l-0.2-0.1l-0.2,0l-0.2-0.1l-0.2,0l-0.2,0l-0.2,0l-0.2,0.1l-0.2,0.1l-0.2,0.2l-0.2,0.2l-0.2,0.2l-0.2,0.2l-0.2,0.2
		l-0.2,0.2l-0.2-0.2l-0.2-0.2l-0.2-0.1l-0.2-0.1l-0.2-0.2l-0.1-0.2v-0.2l0.1-0.2l0.1-0.2l0.2-0.2l0.1-0.2l0.2-0.2l0.1-0.2l0.1-0.2
		l0.1-0.2l0.2-0.2l0.1-0.2l0.2-0.2l0.2-0.2l0.1-0.2l0.1-0.2l0-0.3l-0.1-0.2l-0.1-0.2l-0.2-0.2l-0.2-0.1l-0.2,0.2l-0.1,0.2l-0.2,0.2
		l-0.2,0.1l-0.2,0.1l-0.2,0l-0.2,0l-0.2,0l-0.2,0l-0.2,0l-0.2,0.2l-0.2,0.1l-0.2,0.2l-0.2,0.2l-0.2,0.2l-0.2,0.2l-0.2,0.1l-0.2,0
		l-0.2,0l-0.2,0.1l-0.2,0.1l-0.2,0.1l-0.2,0.1l-0.2,0.2l-0.2,0.2l-0.1,0.2l-0.1,0.2l-0.1,0.2L237,378l-0.2,0.2l-0.1,0.2l-0.2,0.2
		l-0.1,0.2l-0.2,0.2l-0.2,0.2l-0.2,0.2l-0.1,0.2l-0.1,0.2l-0.1,0.2l-0.1,0.2l-0.1,0.2l-0.1,0.2l-0.1,0.2l0,0.2l0,0.2v0.2l0,0.2
		l-0.1,0.2l-0.2,0.2l-0.2,0.2l-0.2,0.2l-0.2,0.1l-0.2-0.1l-0.2-0.2l-0.2,0.1l-0.2,0.2l-0.2,0.2l-0.2,0.2l-0.2,0.1l-0.1-0.2l0-0.2
		l-0.1-0.2l-0.1-0.2l-0.1-0.2l-0.1-0.2l-0.2-0.2l-0.2-0.2l0-0.2l0-0.2l-0.1-0.2l-0.1-0.2l-0.1-0.2l-0.2-0.2l-0.2-0.2l-0.2-0.1
		l-0.2,0l-0.1,0.2l-0.2,0.1l-0.2,0l-0.2-0.1l-0.2,0l-0.2,0.1l-0.2,0.1l-0.2,0l-0.2,0.1l-0.2,0.1l0.1,0.2l0.2,0.2l-0.1,0.2l-0.2,0.2
		l-0.2,0.1l-0.2,0.1l-0.2-0.2l-0.2-0.2l-0.1-0.2l-0.2-0.2l-0.2-0.2l-0.2-0.2l-0.2-0.1l-0.2-0.1l-0.2-0.1l-0.2-0.2l-0.1-0.2l-0.1-0.2
		l-0.1-0.2l-0.2-0.2l-0.1-0.2l-0.1-0.2l-0.1-0.2l-0.1-0.2h-0.2h-0.2l-0.2,0l-0.2-0.1l-0.2-0.1l-0.2-0.2l-0.2-0.1l-0.2,0l-0.2,0.2
		l-0.1,0.2l-0.2,0.2l-0.1,0.2l-0.1,0.2l0,0.2l0.1,0.2l0.1,0.2l0.2,0.2l0.2,0.2l0.2,0.2l0.2,0.2l0.2,0.2l0.1,0.2l0.2,0.2l0.1,0.2
		l0.1,0.2l0.1,0.2l0.1,0.2l0.1,0.2v0.2l-0.1,0.2l-0.2,0.2l-0.2,0.1l-0.2,0l-0.2,0.1l-0.2,0.1l-0.2,0l-0.2,0.1l-0.2,0l-0.2,0.1
		l-0.2,0.1l-0.2,0.1l-0.2,0.2l-0.2,0.1l-0.2,0.2l-0.2,0.1l-0.2,0.1h-0.2l-0.2,0l-0.2-0.2l-0.2-0.1l-0.2-0.2l-0.2-0.1l-0.2-0.1
		l-0.2-0.1l-0.2-0.1l-0.2-0.1l-0.2-0.1l-0.2,0.1l0,0.2l0.1,0.2l0.2,0.2l0.1,0.2l0.1,0.2l0.1,0.2l0.2,0.2l0.1,0.2v0.2l-0.2,0.2
		l-0.2,0.2l-0.2,0.2l-0.1,0.2l-0.1,0.2l-0.1,0.2l-0.1,0.2l-0.1,0.2l-0.1,0.2l-0.2,0.2l-0.2,0.1l-0.2,0.2l-0.2,0.1l-0.2,0.1l-0.2,0.1
		l-0.2,0l-0.2,0.1l-0.2,0l-0.2,0.1l-0.2,0.1l-0.2,0h-0.2l-0.2,0h-0.2l-0.2,0.1l-0.1,0.2l-0.1,0.2l-0.1,0.2l0,0.2l-0.1,0.2l-0.1,0.2
		l0,0.2l0,0.2v0.2l0,0.2l-0.1,0.2v0.2l-0.1,0.1v0.3l-0.2,0.2l-0.2,0.2l-0.2,0.2l-0.2,0.2l-0.2,0.2l-0.2,0.2l-0.2,0.2l-0.2,0.2
		l-0.2,0.2l-0.1,0.2l-0.1,0.2l0,0.2l-0.1,0.2l-0.1,0.2l-0.2,0.2l-0.2,0l-0.2-0.1l-0.2-0.1l-0.2-0.1l-0.2,0l-0.2,0l-0.2,0l-0.2,0.1
		l-0.2,0.1l-0.2,0.1l-0.2,0.1l-0.2,0.2l-0.1,0.2l-0.1,0.2l0,0.2l-0.1,0.2l-0.1,0.2l-0.1,0.2l-0.1,0.2l-0.1,0.2l-0.1,0.2l-0.2,0.2
		l-0.2,0.1l-0.2,0l-0.2,0l-0.2,0l-0.2,0.1l-0.1,0.2l0,0.2l0,0.2l0.1,0.2l0.1,0.2l0.1,0.2l0.1,0.2l0,0.2l0,0.2l-0.1,0.2l-0.2,0h-0.2
		l-0.2-0.1l-0.2,0l-0.2,0l-0.2,0.1l-0.2,0.2l-0.2,0.2L206,399l-0.2,0.2l-0.2,0.2l-0.2,0.2l-0.2,0l-0.2,0l-0.2,0l-0.2,0.1l-0.2,0.1
		l-0.1,0.2l0,0.2l0,0.2l0,0.2l0,0.2v0.2l0,0.2l-0.1,0.2l-0.2,0.2l-0.2,0.1l-0.2,0.2l-0.2,0.1l-0.2,0l-0.2,0.1l-0.2,0.1l-0.2,0.1
		l-0.1,0.2l0,0.2l-0.1,0.3l-0.1,0.2l-0.1,0.2l-0.1,0.2l-0.1,0.2l-0.1,0.2l-0.2,0.2l-0.2,0.1l-0.2,0.1l-0.2,0.2l-0.1,0.2v0.2v0.2v0.2
		l-0.1,0.2l0,0.2l0,0.2l-0.1,0.2l0,0.2l0,0.2l-0.1,0.2l-0.1,0.2l-0.1,0.2l-0.1,0.2l-0.1,0.2l-0.1,0.2l-0.1,0.2l0.1,0.2l0.1,0.2
		l0.1,0.2l0.1,0.2l0.2,0.2l0.2,0.2l0.2,0.2l0.2,0.2l0.1,0.2l0.2,0.2l0.2,0.1l0.2,0.2l0.2,0.2l0.1,0.2l0,0.2l0,0.2l0,0.2v0.2l0.1,0.3
		l-0.2,0.2l-0.2,0.2l-0.2,0.1l-0.1,0.2l-0.2,0.1v0.2l-0.1,0.2l-0.1,0.2l-0.1,0.2l-0.2,0.2l-0.2,0.2l-0.2,0.2l-0.2,0.2l-0.2,0.2
		l-0.2,0.2l-0.2-0.1l-0.2-0.2l-0.1-0.2l-0.1-0.2l-0.1-0.2l-0.2-0.1l-0.2-0.2l-0.2-0.2l-0.1-0.2l0-0.2l-0.1-0.2l-0.2-0.1l-0.1-0.2
		L198,413l-0.2-0.1l-0.2-0.1h-0.2l-0.2,0l0,0.2l0.1,0.2l0.2,0.1l0.1,0.2l0.1,0.2l-0.2,0.2l-0.2,0.2l-0.2,0.1l-0.2,0.2l-0.1,0.2
		l0,0.2l0.1,0.2v0.2l-0.1,0.2l0.1,0.2l0,0.2l0,0.2l0,0.2l-0.1,0.2v0.2v0.2v0.2l0.1,0.2l0,0.2l0.1,0.2l0,0.2l0,0.2l-0.1,0.2l-0.1,0.2
		l-0.1,0.2l0,0.2l0,0.2l0,0.2l0,0.2l0.1,0.2l0.1,0.2l-0.1,0.2l-0.2,0.2l-0.2,0h-0.2l-0.2-0.1l-0.2,0l-0.2,0l-0.2,0.1l-0.1,0.2
		l-0.1,0.2l-0.2,0.2l-0.2,0.1l-0.2,0h-0.2l-0.2,0l-0.2,0l-0.2,0l-0.2,0.1l-0.2,0.1h-0.2l-0.2-0.1l0.1-0.2l0.1-0.2v-0.2l-0.2-0.1
		l-0.2-0.1l-0.2-0.1l-0.2-0.1l-0.2-0.1l-0.2,0.1l-0.2,0l-0.2,0.1l-0.2,0.1l-0.2,0.1l-0.2,0.1l-0.2,0.1l-0.2,0h-0.2l-0.2,0h-0.2
		l-0.2,0l-0.2,0h-0.2l-0.2,0.1l-0.2,0.2l-0.2,0.2l-0.2,0.2l-0.2,0.1l-0.3,0.2l-0.1-0.2l-0.2-0.2l-0.1-0.2l-0.2-0.2l-0.2-0.1
		l-0.2-0.1l-0.2,0l-0.2,0.1l-0.2,0.2l-0.2,0.1l-0.2,0.1l-0.2,0.1l-0.2,0.1l-0.2,0.2l-0.2,0.2l-0.2,0.1l-0.2,0.1l-0.2-0.1l-0.2-0.2
		l-0.1-0.2l-0.2-0.2l-0.2,0l-0.2-0.1l-0.2-0.1l-0.2-0.1l-0.2,0l-0.2-0.1l-0.2-0.2l0-0.2v-0.2l0-0.3v-0.2l-0.1-0.2l-0.1-0.2l-0.2-0.1
		l-0.2-0.2l-0.1-0.2l0-0.2l-0.1-0.2l0-0.2l-0.1-0.2l-0.2-0.2l-0.2-0.1l-0.2-0.1l-0.2,0l-0.2-0.1l-0.2-0.1l-0.2-0.1l-0.2-0.1
		l-0.2-0.1l-0.2-0.1l-0.2-0.1l-0.2-0.1L178,417l-0.2-0.1l-0.2,0l-0.2,0l-0.2,0l-0.2,0l-0.2,0l-0.2-0.1l-0.2-0.1l-0.2-0.1l-0.2-0.2
		l-0.2-0.2l-0.1-0.2l-0.1-0.2l-0.2-0.2l-0.2,0l-0.2,0.1l-0.2,0.2l-0.2-0.2l-0.2-0.1H174l-0.2,0l-0.2,0l-0.2-0.1l-0.2-0.1l-0.2-0.1
		l-0.2-0.1h-0.2h-0.2l-0.2-0.1l-0.2-0.2l-0.1-0.2l-0.1-0.2l-0.2-0.1l-0.2,0l-0.2,0l-0.7,0l-0.5-0.4l-0.2-0.4l-0.2-0.4v-0.7l-0.3-0.8
		l-0.5-0.6l-0.4-0.4l-0.5-0.5l-0.7-0.6l-1.3-0.9l-1.3-0.9l-0.7,0.2l-0.7,0.3l-0.7,0.4l-0.5,0.2l-0.6,0.2l-0.5,0l-0.8,0l-0.6-0.1
		l-0.5-0.5l-0.5-0.3l-0.2,0l-0.2,0l-0.2-0.1l-0.2-0.1l-0.2-0.2l-0.2-0.2l-0.2-0.2l-0.2-0.1l-0.2-0.2l-0.2-0.2l-0.2-0.2l-0.2-0.1
		l-0.2-0.2l-0.2-0.1l-0.2-0.1l-0.2-0.1l-0.2-0.1l-0.2-0.1l-0.2-0.1l-0.2-0.1l-0.2-0.1l-0.2-0.2l-0.2-0.2l-0.1-0.2l-0.2-0.2l-0.2-0.2
		l-0.1-0.2l-0.2-0.2l-0.2-0.2l-0.2-0.2l-0.1-0.2l-0.2-0.2l0-0.2l0.2-0.2l0.1-0.2l0.1-0.2l0.2-0.2l0.1-0.2l0.1-0.2l0.1-0.2l0.2-0.2
		l0.1-0.2l0.1-0.2l0.2-0.2l0.1-0.2l0.1-0.2l0.1-0.2l0.2-0.2l0.1-0.2l0.1-0.2l0.1-0.2l0.1-0.2l0.1-0.2l0.1-0.2l0.1-0.2l0.1-0.2
		l0.1-0.2l0.1-0.2l0.1-0.2l0.1-0.2l0.1-0.2l0.1-0.2l0.1-0.2l0.1-0.2l0.2-0.2l0.1-0.2l0.1-0.2l0.1-0.2l0.1-0.2l0.1-0.2l0.1-0.2
		l0.1-0.2l0.1-0.2l0.1-0.2l0.1-0.2l0.2-0.2l0.1-0.2l0.1-0.2l0.1-0.2l0.2-0.2l0.1-0.2l0.1-0.2l0.1-0.2l0.2-0.2l0.1-0.2l0.1-0.2
		l0.1-0.2l0.1-0.2l0.1-0.2l0.2-0.2l0.1-0.2l0.1-0.2l0.2-0.2l0.2-0.2l0.2-0.2l0.2-0.2l0.2-0.2l0.2-0.2l0.2-0.2l0.2-0.2l0.2-0.2
		l0.2-0.2l0.2-0.2l0.2-0.1l0.2-0.2l0.2-0.2l0.2-0.2l0.2-0.2l0.1-0.2l0.1-0.2l0-0.2v-0.2l0-0.2l0.1-0.2l0-0.2l0-0.2l-0.1-0.2
		l-0.2-0.2l-0.2-0.2l-0.1-0.2l-0.2-0.2l-0.2-0.2l-0.2-0.2l-0.2-0.1l-0.2-0.1l-0.2,0l-0.2,0l-0.2-0.1l-0.4,0l0-0.3l0-0.2l0.1-0.2
		l0.1-0.2V384l-0.1-0.2l-0.1-0.2l0-0.2l-0.1-0.2l0-0.2l-0.1-0.2l-0.1-0.2l-0.1-0.2l-0.1-0.2l-0.1-0.2l0-0.2l0-0.2l0.1-0.3l0.1-0.2
		l0.1-0.2l0.1-0.2v-0.2l0-0.2l-0.1-0.2l0-0.2l0-0.2l0-0.2l0-0.2l-0.1-0.4l-0.2,0h-0.3l-0.2-0.1l-0.2-0.2l-0.2-0.1l-0.2,0l-0.2,0.1
		h-0.2l-0.2-0.1l-0.2,0h-0.2l-0.3,0.1l-0.2,0h-0.2l-0.2,0l-0.2,0l-0.2,0.1l-0.2,0.1l-0.2,0.1l-0.2,0.1l-0.2,0.1l-0.2,0.2l-0.2,0.2
		l-0.2,0.2l-0.2,0.2l-0.2,0.2l-0.2,0.1l-0.2,0.1l-0.2,0h-0.2l-0.2,0l-0.2,0l-0.2,0l-0.2,0l-0.2,0l-0.2,0h-0.2h-0.2l-0.2,0l-0.2,0
		l-0.2,0l-0.2,0h-0.2h-0.2l-0.2,0.2v0.2l0.1,0.2l0.1,0.2v0.2l0,0.2l0,0.2l0,0.2l0.1,0.2l0,0.2l0.1,0.2l0.1,0.2l-0.2,0.1l-0.2,0.2
		l-0.2,0.2l-0.2,0.1l-0.2,0.1l-0.2,0l-0.2-0.1l-0.2,0l-0.2-0.1l-0.2-0.1l-0.2-0.1l-0.2,0h-0.2l-0.2,0.1l-0.2,0.2l-0.2,0.2l-0.1,0.2
		l-0.1,0.2L146,384l-0.1,0.2l-0.2,0.2l-0.1,0.2l-0.1,0.2l-0.1,0.2v0.2l-0.1,0.2l-0.1,0.2l0,0.2l0,0.2l0,0.2l0,0.2l-0.1,0.2L145,387
		l-0.2,0.2l-0.2,0.2l-0.2,0.1l-0.2,0.1l-0.1,0.2l-0.2,0.2l-0.2,0.2l-0.1,0.2l0,0.2l-0.1,0.2l0,0.2l0,0.2l-0.1,0.2l-0.1,0.2l-0.2,0.2
		l-0.1,0.2l-0.2,0.2l-0.2,0.2l-0.2,0.2l-0.2,0.2l-0.2,0.2l-0.1,0.2l-0.2,0.2l-0.1,0.2l-0.1,0.2l-0.1,0.2l0,0.2l0,0.2v0.2l0,0.2
		l-0.1,0.2l0,0.2l-0.1,0.2L141,394l-0.2,0.2l-0.1,0.2l-0.1,0.2l-0.1,0.2l-0.1,0.2l-0.1,0.2l0,0.2v0.2l0.1,0.2l0.1,0.2l-0.1,0.2
		l-0.1,0.2l-0.1,0.2l0,0.2l0,0.2v0.2l0.1,0.2l0.1,0.2l-0.1,0.2l-0.2,0.2l-0.2,0.2l-0.1,0.2v0.2l0,0.2l-0.1,0.2l0,0.2l0.1,0.2v0.3
		l-0.2,0.2l-0.1,0.2l0,0.2l0,0.2v0.2v0.2v0.2v0.2v0.2l0,0.2l0.1,0.2l0.1,0.2l0.1,0.2l0,0.2l0,0.2l0.1,0.2l0,0.2v0.1l-0.1,0.2l0,0.2
		l-0.1,0.2l-0.1,0.2l-0.2,0.2l-0.2,0.2l-0.2,0.1l-0.2,0.1l-0.2,0.1l-0.2,0.1l-0.1,0.2l-0.1,0.2l0,0.2v0.2l0,0.2l-0.1,0.2l0,0.2v0.2
		l0,0.2v0.2l0,0.2l0,0.2l0.1,0.2l0,0.2l0.1,0.2l0.1,0.2l0.2,0.2l0.2,0.2l0.1,0.2l0.1,0.2l0.1,0.2v0.2l-0.1,0.2l-0.1,0.2l-0.1,0.2
		l-0.1,0.2l-0.1,0.2l-0.1,0.2l-0.2,0.2l0,0.2l0,0.2l-0.1,0.2l-0.1,0.2l0,0.2v0.2l-0.1,0.2l0,0.2v0.2l-0.1,0.2l0,0.2l-0.1,0.2
		l-0.2,0.2l-0.1,0.2l0,0.2l-0.1,0.2l-0.2,0.2l-0.2,0.1l-0.2,0h-0.2l-0.2,0l-0.2,0.1l-0.2,0.1l-0.2,0.1h-0.2l-0.2,0l-0.2-0.1h-0.2
		l-0.2,0.2l0,0.2l0,0.2l0,0.2l-0.1,0.2l-0.1,0.2l-0.1,0.2l-0.1,0.2H134h-0.2h-0.2l-0.2,0l-0.2,0l-0.2,0l-0.2,0h-0.2l-0.2,0l-0.2-0.1
		l-0.2-0.1l-0.2,0h-0.2l-0.2-0.1h-0.2l-0.2,0l-0.2,0l-0.2,0l-0.2,0l-0.2,0h-0.2H129l-0.2,0l-0.2,0l-0.2,0l-0.2,0l-0.2,0.1l-0.2,0.1
		l-0.2,0.1l-0.2,0.1l-0.2,0.1l-0.2,0l-0.2,0.1l-0.2,0l-0.2,0.1l-0.2,0.1l-0.2,0l-0.2,0.1l-0.2,0.1l-0.2,0l-0.2,0.1l-0.2,0.1
		l-0.2,0.1l-0.2,0.2l-0.2,0.2l-0.2,0.2l-0.2,0.2l-0.2,0.2l-0.2,0.2l-0.2,0.2l-0.2,0.2l-0.2,0.1l-0.2,0.2l-0.2,0.2l-0.2,0.1l-0.2,0
		l-0.2,0.1l-0.2,0l-0.2,0h-0.2l-0.2,0h-0.2h-0.2H120l-0.2,0h-0.2h-0.2H119l-0.2,0l-0.2,0l-0.2,0.1l-0.2,0l-0.2,0l-0.2,0l-0.2,0.1
		l-0.2,0.1l-0.2,0.1l-0.2,0.1l-0.2,0.1h-0.2l-0.2-0.1l-0.2-0.1l-0.2-0.2l-0.2-0.1l-0.2,0l-0.2-0.1l-0.2-0.1l-0.2-0.1l-0.2-0.1
		l-0.2-0.1h-0.3h-0.2h-0.2l-0.2,0l-0.2,0l-0.2,0h-0.2l-0.2,0.1H112h-0.2h-0.2h-0.2H111l-0.2,0.1l-0.2,0.1l-0.1,0.2l-0.1,0.2l0,0.2
		l-0.2,0.1l-0.2,0.1l-0.2,0l-0.2,0l-0.2,0.1l-0.2,0l-0.2,0h-0.2l-0.2,0.1l-0.2,0.1v0.2v0.3l-1.1-0.4l-3-0.4l-0.9-0.9l-1.2-1.2
		l-1.4-1.1l-1.4-1.6l-0.5-0.5l-0.3-0.7l-0.6-1.1l-1.1-1.2l-1.8-0.8l-1.8-0.9l-2.2-0.7l-0.2-1.5l0-0.5l-0.1-1.3l0-2.4l0.1-0.4
		l0.1-0.3l1.1-0.5l2.7-0.4l-0.2-1.2l-0.2-0.9l-0.2-0.9l0-1l-0.4-0.9l-0.5-0.7l-0.3-0.4l-0.3-0.5l0.7-0.3l1.3-0.7l0.8-0.5l2.5-1.4
		l2-1l2.3-1.1l2-3.3l1.4-2.5l1.7-0.8l1-0.5l0.8-2.3l0.5-1.2l-1.2-2.1l-1.5-2.4l-0.4-0.9l1.1-2.2l0.4-1l-2.3-0.6l-1.8-0.5l-1.9,0.2
		l-2.7,0.6l-2.1,0.3l-1.8,0.8l-1.6,0.7l-0.8,0.8l-1.4,1.4l-3.4,1.4l-1.3,0.9l-0.9,0.2l-1-0.2l-2.9-1l-1.8-0.7l-1.6-0.7l-1-0.6
		l-0.7-0.8l-0.6-0.4l-0.6,0.2l-3,0.9l-2.1,0.4l-2,0.5h-1.4l-1.7,0.1l-1,0h-0.8l-0.3,0.2l1.6,2.1l0.8,1.1l0.2,0.3l0.5,0.9l0.6,0.7
		l1,1.1v0.2l-2.1,0.9l-1.6,1.3l-0.8,0.8v0.6l0,0.6l-0.2,0.3l-0.8-0.1l-0.5,0.2l-0.4,0.2l-0.3,0l-0.7-0.5l-0.5-0.1l-0.5-0.1l-0.7,0.2
		l-0.5,0.3l-0.3,0.2l-0.3-0.2l-0.2-0.5l-0.7-0.6l-1.4-0.9l-0.7-0.6l-0.6-0.3l-0.8-0.1l-0.7-1.4l-0.2-0.5l-0.7-0.5l-0.7-0.9l-0.6-1.4
		l-0.2-0.4l0.3-0.4l0.5-0.2l0.3-0.2l0.2-0.5l-0.4-0.4l-0.9,0.4l-0.9,0.5l-1.2,0.4l-0.9,0.1l-1.1-0.2l-0.2-0.4l0-0.5l-0.2-0.6
		l-0.4-0.5l-0.4,0l-0.2,0.2l-0.5,0.3h-0.2l-0.3-0.4l-0.3-0.7l0.4-0.9l0.6-0.6l0-0.9l-0.2-1.6l0.1-1.4l0.3-1.6l0.2-0.6l0-0.5
		l-0.5-0.4l-1.4-0.3l-2.3-0.3l-1.5-0.4l-0.9-0.3l-0.1-0.4V366l-0.5-0.6l-1.7-0.3l-0.7-0.2l-0.3-0.8l0-1l0-1.1l-0.2-1l-0.2-0.3
		l-0.2-0.3l-2.2-1.4l-0.6-0.3l-1.2-0.5l-1-0.7l-1.5-1.2l-1.8-1.3l-1.5-0.9l-1.4-0.2l-1.8-0.2l-0.9-0.2l-0.9-0.3l0.2-0.3l0.3-0.4
		l1-1.3l0.8-1.2l1.7-1.3l1.8-0.8l1.8-0.9l1.3-0.7l0.8-0.6l0.7-1.1l0.5-0.8l0.8-1.3l1-1.4l1-1.2l1.5-1.3l0.9-0.8l0.7-0.9L37,336
		l-0.2-1.5l-0.3-1.3l-0.7-1.8l-0.7-1.2l-2.6-0.9l-4.5-1.2l-1.3-0.3l-1.5,1.2l-0.9,0.6l-2.5-0.5l-4.1-0.8l-2.4,0.9l-2,0.7l-1.4,0.3
		l-1.1,0.7l-2,2l-1.5,1.3l-2.1,0.8L2,334.4l-2-0.4l-1.1-0.4l1.6-3.5l1.1-2.3l0.5-1.3l-0.1-1.4l-0.4-0.6L0.7,324l-1.2-0.7l-0.6-0.7
		l-1.8-2.3l-0.7-1.1l-0.7,0.2l-1.6-3l-1.4-2.5l-1.7-2.9l-1.1-1.9l1.5-1.5l2.4-1.9l1.5-1.2l-0.9-3.4l-0.9-3.2l-1.7-5.9l-1-3.2l-1-3.6
		l-1.4-5.2l-1.3-4.7l-0.2-0.7l0.2,0l0.1,0h0.2l0.3,0.1h0.4l0.2,0.1l0.1,0l0.2,0l0.2,0.1l0.2,0.1l0.1,0.1l0.2,0.1l0.2,0.1l0.3,0.1
		l0.2,0.1l0.2,0.1l0.2,0.1l0.2,0l0.2,0.1l0.1,0l0.1,0l0.1,0l0.2,0l0.3,0.1l0.1,0l0.2,0.1l0.2,0.1l0.3,0.1l0.2,0.1l0.2,0.1l0.2,0.1
		l0.2,0l0.1,0l0.2,0.1l0.1,0.1l0.2,0l0.2,0.1l0.2,0l0.3,0.2l0.2,0.1L-5,277l0.2,0l0.2,0l0.2,0.1l0.2,0.1l0.2,0l0.2,0.1l0.2,0.1
		l0.2,0l0.2,0.1l0.2,0.1l0.2,0l0.2,0l0.2,0.1l0.1,0l0.3,0.1l0.1,0l0.2,0.1l0.2,0l0.2,0.1l0.1,0l0.2,0l0.2,0.2l0.2,0l0.2,0.1l0.2,0.1
		l0.2,0.1l0.3,0.1l0.2,0.1l0.2,0l0.2,0.1l0.1,0l0.2,0l0.2,0.1l0.2,0.1l0.2,0l0.2,0.1l0.1,0l0.2,0.1l0.2,0l0.2-0.1l0.2,0.1l0.1,0.1
		l0.2,0l0.2,0.2l0.1,0l0.1,0.1l0.2,0.1l0.2,0.1l0.2,0.1l0.3,0l0.2,0.1l0.2,0l0.2,0.1l0.2,0.1l0.2,0.1l0.4,0.1l0.3,0l0.6,0l0.2,0.1
		l0.2,0l0.2,0l0.1,0l0.2,0l0.2,0l0.4,0.1l0.2,0.1l0.2,0l0.2,0.1l0.1,0l0.2,0l0.2,0l1.1,0.2l1.1,0.2l0.2,0l0.2,0l0.2,0l0.2,0.1
		l1.1,0.2l0.2,0l0.2,0l0.1,0l0.2,0l0.2,0l0.2,0.1l0.2,0l0.2,0l0.2,0.1l0.2,0l0.2,0l0.8,0.1l0.2,0.1l0.3,0l0.7,0.1l0.2,0l0.1,0
		l0.2,0.1l0.2,0.1l0.2,0.1l0.2,0l0.2,0l0.2,0.1l0.3,0.1l0.1,0l0.1,0l0.2,0l0.2,0.1l0.2,0l0.4,0.1l0.5,0.1l0.2,0l0.4,0.1l0.2,0l0.2,0
		l0.3,0.1l0.3,0.1l0.2,0l0.2,0l0.2,0.1l0.3,0.1l0.1,0.1l0.2,0.1l0.1,0l0.5,0.1l0.8,0.1l0.2,0.1l0.1,0l0.2,0l0.7,0.1l0.3,0.1l0.1,0
		l0.2,0l0.2,0l0.1,0l0.6,0.1l0.2,0.1l0.1,0l0.2,0l0.3,0l0.3,0.1l0.5,0.1l0.2-0.1l0.3-0.1h0.3l0.1,0l0.3,0l0.2,0l0.2-0.1l0.2,0l0.2,0
		h0.2h0.2h0.2h0.1h0.2h0.2l0.3,0l0.1,0h0.2h0.1l0.2,0h0.2h0.2l0.2,0h0.2l0.2,0l0.1,0H35l0.2,0h0.2l0.2,0h0.2l0.3-0.1l0.2,0h0.1h0.2
		h0.2l0.1,0l0.3,0h0.1h0.2l0.2,0h0.2H38h0.2h0.3l0.3,0l0.2,0l0.2,0.1l0.2,0l0.2,0l0.2,0l0.2,0.1l0.3,0.1l0.3,0l0.5,0.1l0.3,0
		l1.2,0.2h0.2l0.2,0l0.2,0h0.2h0.2l0.2,0l0.2,0l0.1-0.1l0.2-0.2l0.1-0.1l0.1-0.1l0.2-0.2h0.2l1.1,0.1l0.4,0l0.7,0.1l1.3,0.2h0.1h0.2
		l0.5,0.1l0.6,0.1h0.2l0.2,0.1l0.5,0l0.3,0l0.5,0.1l0.2,0l0.5,0.1l0.3,0.1l0.1,0l0.2,0l0.2,0l0.2,0.1l0.2,0l0.2,0l0.1,0l0.1,0l0.2,0
		l0.2,0l0.2,0.1l0.7,0.1l0.2,0l0.1,0.1l0.1,0.1l0.2,0.1l0.2,0l0.1,0.1l0.2,0l0.1,0.1l0.2,0l0.2,0.1l0.2,0l0.1,0l0.2,0.1l0.2,0
		l0.1,0.1h0.1l0.2,0.1l0.2,0l0.2,0.1l0.1,0l0.2,0.2l0.2,0.1l0.1,0.1l0.1,0l0.2,0.1l0.2,0.1l0.2,0.1l0.1,0l0.2,0.1l0.1,0.1l0.3,0.1
		l0.1,0l0.2,0.1l0.1,0l0.2,0l0.2,0l0.1,0l0.2,0.1l0.2,0l0.2,0l0.2,0.1l0.2,0.1l0.1,0l0.2,0.1l0.1,0l0.2,0.1l0.2,0.1l0.2,0.1l0.2,0.1
		l0.1,0l0.2,0.1l0.1,0l0.2,0l0.1,0.1l0.2,0l0.2,0.1l0.2,0.1l0.3,0.1l0.2,0.1l0.1,0l0.2,0l0.3,0.1l0.1,0l0.1,0.1l0.2,0l0.2,0.1l0.2,0
		l0.1,0l0.3,0.1l0.2,0.1l0.1,0l0.2,0l0.2,0.1l0.3,0.1l0.2,0l0.1,0h0.2l0.2,0.1l0.2,0l0.2,0l0.2,0l0.1,0.1l0.2,0l0.3,0l0.2,0l0.2,0.1
		l0.2,0l0.1,0.1l0.4,0.1l0.1,0.1l0.2,0.1l0.1,0.1l0.2,0.2l0.2,0.2l0.2,0.2l0.1,0.1l0,0.2l0.1,0.2l0,0.1l0,0.2l0.1,0.2l0,0.1l0.1,0.2
		l0.1,0.2l0.1,0.1l0.1,0.1l0.2,0.3l0.1,0.1l0.1,0.2l0.3,0.4l0.1,0.1l0.1,0.1L74,297l0.1,0.3l0.2,1.8l2,1.7l0.2,0l0.1,0l0.2,0.1
		l0.1,0l0.2,0l0.2,0.1l0.1,0l0.2,0l0.2,0.1l0.2,0.1l0.2,0.1l0.2,0.1l0.2,0l0.1,0l0.2,0l0.1,0l0.2,0.1l0.2,0.1l0.2,0.1l0.2,0l0.1,0.1
		l0.2,0.1l0.2,0l0.1,0.1l0.1,0l0.1,0.1l0.2,0.1l0.2,0.1l0.1,0.1l0.2,0l0.1,0.1l0.3,0.1l0.2,0l0.1,0l0.2,0.1l0.2,0l0.3,0.1l0.2,0
		l0.2,0h0.2h0.1l0.2,0l0.1,0l0.2,0l0.2-0.1h0.2l0.6,0l0.3,0l0.3,0.1l0.5,0l0.2,0l0.3,0l0.3,0l0.2,0l0.4,0.1l0.2,0l0.2,0.1l0.2,0.1
		l1,0.9l0.2,0.2l0.1,0.1l0.1,0.1l0.1,0.1l0.2,0.1l0.3,0.2l0.1,0l0.1,0.1l0.2,0.1l0.4,0.4l0.6,0.5l0.1,0.1l0.2,0.1l0.2,0.1l0.1,0.1
		l0.2,0.1l0.3,0.6l1.8,0.5l0.3,0.4l0.1,0.1l0.1,0.1l0.1,0.1l0.2,0.1l0.1,0l0.1,0.1l0.2,0.1l0.2,0.1l0.1,0.1l0.3,0.1l0.2,0.1l0.3,0.1
		l0.2,0.1l0.1,0l0.2,0.1l0.1,0.1l0.2,0.1l0.1,0.1l0.2,0.1l0.2,0.1l0.1,0.1l0.1,0.1l0.1,0.1l0.1,0.1l0.2,0.1l0.1,0.1L99,311l0.2,0.1
		l0.2,0.1l0.2,0.1l0.2,0l0.2,0.1l0.2,0l0.1,0.1l0.1,0l0.2,0l0.2,0l0.2,0.1l0.2,0l0.2,0.1l0.1,0l0.2,0.1l0.1,0l0.1,0l0.2,0l0.1,0.1
		l0.2,0l0.1,0.1h0.2l0.2,0.1l0.3,0.1l0.2,0.1l0.2,0.1l0.2,0.1l0.1,0l0.2,0l0.2,0l0.2,0.1l0.2,0l0.2,0l0.1,0.1l0.3,0.1l0.2,0l0.3,0.1
		l0.1,0l0.1,0l0.2,0.1l0.2,0l0.3,0.1l0.2,0l0.2,0l0.3,0.1l0.2,0l0.2,0l0.2,0l0.9,0.1h0.2l0.6,0l0.2,0h0.2l0.2,0h0.3l9.7-0.4l0.2,0
		l0,0.4v0.2v0.2v0.1v0.2l0,0.2l0,0.5l0,0.7l0,0.2l0,0.3l-0.1,0.9v0.3l0,0.6l0,0.3l0.3,0.1l0.3,0.1l0.1,0.1l0.2,0l0.2,0l0.2,0l0.2,0
		l0.4,0.1l0.2,0l0.3,0.1h0.3h0.2l0.5,0h0.3h0.2h0.2h0.2h0.2h0.1h0.2h0.4l0.7,0h0.2l0.2,0h0.3l0.3,0l0.3,0.1l0.2,0.3l0.2,0.2l0.2,0.1
		l0.2,0.2l0.9,0.9l0.1-0.1l0.1-0.1l0.2-0.1l0.3-0.2l0.2-0.2l0.3-0.2l0.2-0.2l0.5-0.4l0.2-0.2l0.1-0.1l0.2-0.2l0.1-0.1l0.1-0.1
		l0.1-0.2l0.1-0.1l0.1-0.1l0.5-0.4l0.3-0.3l0.1-0.1l0.2-0.1l0.1-0.1l0.5,0h0.3l0.1,0l0.2,0l0.2,0l0.2-0.1l0.1,0l0.1-0.1l0.2-0.1
		l0.1-0.1l0.2-0.1l0.2-0.1l0.2-0.1l0.2-0.1l0.2-0.1l0.1-0.1l0.1-0.1l0.2-0.1l0.2-0.1l0.2-0.1l0.1-0.1l0.2-0.1l0.2-0.1l0.2-0.2
		l0.2-0.2l0.1,0l0.1-0.1l0.2-0.1l0.1-0.1l0.1-0.1l0.1,0l0.1-0.1l0.1,0l0.1-0.1l0.2-0.1l0.1-0.1l0.1,0l0.2-0.1l0.1-0.1l0.2-0.1l0.1,0
		l0.1-0.1l0.1-0.1l0.2-0.1l0.2,0l0.2-0.1l0.2-0.1l0.1,0l0.2-0.1l0.2,0l0.2-0.1l0.1,0l0.2-0.1l0.2-0.1l0.2-0.1l0.2,0l0.2-0.1l0.2,0
		l0.1-0.1l0.1-0.1l0.2-0.1l0.2-0.1l0.2,0l0.1,0l0.2,0l0.2-0.1l0.3-0.1l0.2,0l0.1,0l0.2,0l0.2,0l0.2,0l0.2,0l0.2-0.1l0.1-0.2
		l10.8-4.1l0-0.2l0.2,0l0.2-0.1l0.2-0.1l0.2-0.1l0.1,0l0.2-0.1l0.2-0.1l0.1,0l0.2-0.1l0.1,0l0.2-0.1l0.2-0.1l0.2-0.1l0.1,0l0.1,0
		l0.1-0.1l0.3-0.1l0.2-0.1l0.2,0l0.1,0l0.3-0.1l0.2,0l0.2,0l0.2-0.1l0.2,0l0.2-0.1h0.1l0.2-0.1l0.2,0l0.2,0l0.2-0.1l0.2-0.1l0.1,0
		h0.2l0.1,0l0.2,0l0.3-0.1l0.1,0l0.2,0l0.2,0h0.3l0.4,0l0.2,0h0.2l0.2,0h0.2l0.2,0h0.3h0.2h0.2l0.2,0h0.3l0.2,0h0.2l0.1,0l0.2,0h0.1
		l0.2,0l0.1,0l0.2,0h0.2l0.2,0l0.1,0l0.1,0h0.2l0.2-0.1l0.2,0h0.2l0.1,0l0.2,0l0.1,0l0.2,0l0.2-0.1l0.2,0h0.2l0.2,0h0.1l0.2-0.1h0.2
		l0.1,0l0.2,0l0.2,0l0.2-0.1l0.2-0.2l0.1-0.2l0.1-0.2l0.1-0.1l0-0.2l0.1,0l0-0.2l0.2-0.1l0.2-0.1l0.2,0l0.1-0.1l0.2,0l0.2,0l0.2-0.1
		l0.1,0l0.2,0l0.2-0.1l0.2,0l0.1-0.1l0.2,0l0.1,0l0.1-0.1l0.1,0h0.2l0.2,0h0.2l0.4,0.1l0.1,0l0.1,0.1l0.1,0.1l0.3,0.4l0.1,0.1
		l0.2,0.2l0.2,0.2l0.2,0l0.2,0l0.1,0h0.2l1.2,0.1l0.2,0l0.3,0l0.4,0h0.2l0.4,0h0.2l0.2,0l0.2,0l1,0.1h0.4l0.3,0l0.2,0l0.2,0h0.3h0.3
		h0.2h0.2l0.2,0l0.2,0l0.2-0.1l0.2-0.1l0.1,0l0.2-0.1l0.2,0l0.1,0h0.3h0.3l0.3,0h0.2l0.2,0h0.2l0.2,0h0.3l0.3-0.1h0.2h0.2l0.3,0
		l0.3,0l0.2,0l0.3,0l0.2,0l0.1,0l0.1,0.1l0.2,0.2l0.2,0.1l0.1,0l0.1,0h0.2h0.5h0.2l0.4,0h0.2l0.3,0l0.2,0h0.2h0.3l0.3,0l0.2,0h0.2
		l0.2,0l0.9,0l0.2,0h0.2l0.2,0l0.3,0.1l0.2,0l0.2,0.1l0.2,0.1l0.2,0.2l0.1,0l0.1,0l0.2,0h0.2l0.2,0l0.2,0h0.2l0.5,0.1l0.2,0h0.3h0.4
		h0.2l0.6,0l0.1,0l0.2,0.1l0.1,0.1l0.1,0.1l0.2,0.2l0.2,0l0.1,0l0.2-0.1l0.2-0.1l0.2-0.1l0.2-0.2l0.1,0l0.3-0.2l0.2-0.1l0.1-0.1h0.2
		l0.1-0.1l0.2,0l0.1,0l0.2-0.1l0.2,0l0.3-0.1h0.2l0.4,0l0.2,0h0.2l0.9,0.1l0.2,0l0.3,0l0.9,0.1l0.3,0l0.3,0.1l0.2,0h0.2l0.2,0l0.2,0
		h0.6l0.3,0h0.3l0.2-0.1h0.3h0.2h0.1h0.2l0.2,0l0.2,0h0.3l0.2,0l0.2-0.1l0.3,0l0.3-0.1l0.1-0.1l0.2-0.1l0.1-0.1l0.2,0l0.2,0l0.2-0.1
		l0.1,0l0.1-0.1l0.2-0.2l0.2-0.2l0.2-0.1l0.2-0.2l0.1-0.1l0.2-0.2l0.2-0.1l0.1-0.1l0.2-0.2l0.2-0.1l0.2-0.1l0.1-0.1l0.2-0.1l0.2-0.1
		l0.2-0.2l0.2-0.1l0.2-0.1l0.2-0.1l0.2-0.1l0.1-0.1l0.2-0.1l0.1,0l0.2-0.1l0.2-0.1l0.1,0l0.1,0l0.2,0l0.1-0.1l0.2,0l0.2-0.1l0.2-0.1
		l0.2-0.1l0.2-0.1l0.2-0.1l0.2-0.1l0.3-0.1l0.2-0.1l0.3-0.1l0.1,0h0.2l0.5-0.1l0.4,0h0.2h0.2h0.4h0.2h0.4l0.1,0h0.2l0.2,0l0.2,0
		l0.2,0l0.1-0.1l0.2-0.2l0.1-0.2l0.2-0.2l0.1-0.1h0.1l0.1,0l0.1-0.1l0.1-0.1l0.2-0.1l0.1,0l0.2-0.1l0.3-0.2l0.2-0.1l0.2-0.1l0.2,0
		l0.2-0.1l0.2-0.1l0.1,0l0.2-0.1h0.1l0.2,0l0.1-0.1l0.1-0.1l0.1-0.1l0.1,0l0.2-0.1l0.2-0.1h0.2l1.9-1.7l0.1-0.1l0.1-0.2l0.1-0.1
		l0.2-0.2l0.2-0.2l0.2-0.2l0.2-0.1l0.3-0.3l0.1-0.1l0.1-0.1l0.1-0.1l0.3-0.3l0.2-0.2l0.2-0.1l0.2-0.1l0.1-0.1l0.1-0.1l0.1-0.1
		l0.2-0.1l0.1-0.1l0.2-0.2l0.1-0.2l0.1-0.2l0-0.1l0.1-0.1l0.1-0.2l0.1-0.2l0.1-0.2l0.1-0.1l0.1-0.2l0.1-0.2l0.1-0.1l0.1-0.3l0-0.1
		l0-0.2l0-0.2l0-0.2l0.1-0.2l0-0.1l0.1-0.2l0.1-0.2l0.2-0.2l0.1-0.1l0.2-0.1l0.1-0.1l0.2,0l0.1-0.1l0.1-0.1l0.1-0.1l0.1-0.2l0.1-0.2
		l0.1-0.1l0.1-0.1l0.1-0.1l0.1-0.1l0.1-0.1l0.2-0.2l0.1-0.2l0.1-0.2l0.1-0.1l0.1-0.1l0.1-0.2l0.1-0.2l0.1-0.1l0.1-0.2l0.2-0.2
		l0.1-0.2l0.1-0.1l0.1-0.1l0.1-0.2l0.1-0.1l0.1-0.1l0.1-0.1l0.1-0.1l0.1-0.2l0.1-0.1l0.1-0.1l0.1-0.1l0.1-0.1l0.1-0.2l0-0.1l0.1-0.1
		l0.1-0.2l0.1-0.2l0.1-0.2l0.2-0.1l0.1-0.1l0.2-0.1l0.1-0.1l0.1-0.1l0.1-0.1l0.2-0.1l0.1,0l0.1-0.1l0.2-0.1l0.3-0.2l0.1-0.1l0.2-0.1
		l0.2-0.1l0.1,0l0.2-0.1l0.1-0.1l0.2,0l0.1-0.1l0.3-0.1l0.1,0l0.2-0.1l0.2-0.1l0.2-0.1l0.2,0l0.1-0.1l0.1,0l0.2-0.1l0.2-0.1l0.1,0
		l0.2-0.1l0.1,0l0.2,0l0.1-0.1l0.2-0.1l0.2-0.1l0.1,0l0.3,0l0.2-0.1l0.1,0l0.2-0.1l0.2-0.2l0.2-0.1l0.1-0.1l0.4-0.4l0.2-0.2l0.1-0.1
		l0.1-0.1l0.1,0l0.2-0.1l0.2,0h0.3l0.2,0l0.4,0l0.4,0l0.3,0l0.2,0h0.1l0.2,0l0.1,0l0.2-0.1l0.1-0.1l0.2-0.1l0.1-0.1l0.2-0.3l0.1-0.1
		l0.2-0.2l0.1-0.1l0.1-0.1l0.1-0.2l0.2-0.2l0.1-0.1l0.1-0.1l0.2-0.2l0.1-0.2l0.1-0.1l0.1-0.1l0.1-0.2l0.2-0.2l0.1-0.2l0.2-0.3
		l0.1-0.1l0.1-0.1l0.1-0.1l0.1-0.2l0.1-0.1l0.1-0.1l0.2-0.2l0.2-0.1l0.2-0.1l0.3,0l0.2,0l0.3,0h0.4l0.2,0l0.2,0l0.1-0.1l0.2,0
		l0.2-0.1l0.1-0.1l0.3-0.3l0.1-0.1l0.1-0.1l0.1-0.1l0-0.1l0.1-0.1l0-0.3l0-0.2l0-0.1l0-1l0-0.2l-0.1-0.2l0-0.2l-0.1-0.1l-0.1-0.2
		l-0.1-0.1l-0.1-0.2l0-0.1l-0.1-0.2l-0.1-0.1l0-0.1l-0.1-0.2l-0.1-0.2l0-0.1l-0.1-0.2l-0.1-0.2l-0.1-0.1l-0.2-0.3l-0.1-0.2l-0.1-0.1
		l-0.1-0.1l-0.2-0.2l-0.2-0.2l-0.1-0.1l-0.1-0.2l-0.1-0.1l-0.4-0.4l-0.4-0.4l-0.3-0.3l-0.1-0.2l-0.1,0l-0.2-0.1l-0.2-0.1l-0.2-0.1
		l-0.2-0.1l-0.2,0l-0.1-0.1l-0.2-0.1l-1.1-1.1l-0.1-0.2l-0.1-0.1l-0.1-0.1l-0.1-0.1l-0.1-0.1l0-0.2l0-0.1l-0.1-0.2l-0.1-0.2
		l-0.1-0.1l-0.2-0.2l-0.1-0.2l-0.1-0.1l-0.1-0.2l-0.1-0.1l0-0.1l-0.1-0.2l-0.1-0.1l-0.1-0.2l-0.1-0.2l-0.1-0.3l0-0.2l0-1.1l0-0.2
		l-0.1-0.2l-0.2-0.2l-0.2-0.2l-0.1-0.1l-0.1-0.1l-0.2,0l-0.1-0.1l-0.2,0l-0.1-0.1l-0.2,0l-0.1-0.1l-0.2-0.2l-0.1-0.1l-0.1-0.1l0-0.3
		v-0.2l0-0.1l0-0.2l0-0.2l0-0.2l0-0.1l0-0.2l0.1-0.2l0.1-0.2v-0.2l0.1-0.2l0-0.2l0-0.1l0-0.1l0-0.2l0.1-0.2l0.1-0.2l0.1-0.2l0-0.2
		l0.2-0.2l0.1-0.2l0.2-0.1l0.2-0.2l0.1-0.1l0-0.1l0-0.2v-0.2l0.1-0.2l0.1-0.2l0.2-0.2l0.1-0.1l0.1-0.1l0.1-0.3l-0.1-0.2l-0.1-0.2
		l0-0.7l0-0.2l0.1-0.3l0-0.1l0-0.2l0-0.2l0-0.1l0-0.2l0-0.2l0-0.1v-0.2l0-0.2l0-0.1l0-0.2l0-0.1l0-0.2l0-0.2l0.1-0.2l0.1-0.2l0-0.1
		l0.1-0.2l0.1-0.2l0-0.1l0.1-0.1l0-0.1l0.1-0.2l0.2-0.3l0.1-0.2l0.1-0.2l0-0.1l0.1-0.1l0.1-0.2l0.1-0.1l0.1-0.1l0-0.2l0.1-0.1l0-0.2
		l0.1-0.2l0-0.1l0.1-0.3l0.1-0.2l0.1-0.2l0.1-0.1l0-0.2l0.1-0.2l0.1-0.2l0.1-0.2l0.1-0.2l0.1-0.1l0.1-0.2l0.1-0.2l0.1-0.1l0.1-0.2
		l0.1-0.1l0.1-0.2l0.2-0.2l0.3-0.3l0.1-0.1l0.2-0.1l0.1-0.1l0.2-0.1l0.2-0.1l0.1-0.1l0.1-0.1l0.1,0l0.1-0.1l0.1-0.1l0.1,0l0.2-0.1
		l0.1-0.1l0.2-0.1l0.2-0.2l0.2-0.1l0.2-0.2l0.1-0.1l0.2-0.2l0.2-0.1l0.2-0.1l0.1,0l0.2-0.1l0.4-0.1l0.4,0h0.3h0.1l0.2,0h0.2l0.2,0.1
		l0.1,0.1l0.2,0.2l0.2,0.1l0.2,0h0.3h0.5h0.2l0.3,0h0.2h0.5l1.1,0h0.2h0.4h0.2l0.2,0l0.2,0l0.2,0l0.1,0l0.2,0l0.1-0.1l0.3-0.1h0.2
		l0.4,0.4l0.1,0.1l0.1,0.1l0.2,0.2l0.1,0.1l0.1,0.2l0.2,0.2l0.2,0.2l0.2,0.1l0.2,0.2l0.1,0.2l0.1,0.3l0,0.1l0.1,0.2l0.1,0.2l0.2,0.2
		l0.1,0.1l0.2,0.2l0.3,0.3l0.2,0.2l0.1,0.1l0.1,0.1l0.1,0.1l0.1,0.1l0.2,0.2l0.1,0.1l0.3,0.1l0.2,0.1l0.1,0.1l0.1,0l0.2,0.1l0.2,0.1
		l0.1,0l0.1,0.1l0.2,0l0.1,0l0.2,0.1h0.1l0.3,0.1l0.2,0l0.1,0l0.2,0l0.1,0l0.2,0.1l0.2,0.1l0.1,0h0.4l0.1,0h0.7h0.5l0.2,0l0.1,0
		l0.2,0.1l0.2,0h0.2l0.3,0l0.1,0l0.1,0.1l0.3,0.1l0.1,0l0.2,0.1l0.2,0l0.2,0.1l0.2,0l0.2,0l0.4,0l0.4,0l0.2,0l0.2,0h0.4h1.2h0.4
		l0.2,0l0.2,0l0.2,0h0.3h0.2l0.7,0h0.3l0.4,0l0.3,0.1l0.3,0l0.3,0h0.6l0.1,0.1l0.1,0.1l0.2,0.2l0.4,0.1l0.2,0l0.2,0h0.5l0.2,0h0.2
		l0.2,0l0.2-0.1l0.2-0.1l0.1-0.1l0.2-0.1l0.2-0.1l0.1-0.1l0.2-0.2l0.2-0.2l0.2-0.2l0.1-0.1l0.1-0.2l0.1-0.1l0.2-0.2l0.4-0.4l0.1-0.1
		l0.2-0.1l0.1-0.2l0.1-0.1l0.2-0.1l0.1,0l0.1,0l0.2-0.1l0.2-0.1l0.2-0.1l0.1-0.1l0.2-0.1l0.1-0.1l0.1-0.1l0-0.2l0.1-0.2l0.1-0.1
		l0.2-0.2l0.2-0.1h0.2l0.1,0l0.2-0.1l0.2-0.1l0.4-0.1l0.2,0l0.9-0.3l0.1,0l0.1,0l0.2,0l0.2-0.1l0.1-0.1l0.1-0.1l0.2-0.2l0.2-0.2
		l0.5-0.5l0-0.1l0.1-0.1l0.1-0.2l0.1-0.1l0.1-0.2l0.1-0.2l0.1-0.2l0.1-0.2l0.1-0.1l0.3-0.3l0.1-0.1l0.2-0.2l0.2-0.1l0.2-0.1l0.1-0.1
		l0.1-0.1l0.1-0.1l0.1-0.1l0.2-0.1l0.1-0.1l0.1-0.1l0.1-0.1l0.2-0.1l0.1-0.1l0.1-0.1l0.1-0.1l0.2-0.1l0.2-0.2l0.1-0.1l0.2-0.2
		l0.2-0.2l0.2-0.2l0.1-0.2l0.5-0.6l0.2-0.2l0.1-0.1l0.1-0.1l0.1-0.1l0.1-0.1l0.1-0.1l0.1-0.2l0.1-0.1l0.1-0.2l0.1-0.1l0.1-0.2
		l0.1-0.1l0.1-0.2l0.1-0.1l0.1-0.2l0.1-0.1l0.1-0.2l0.1-0.1l0.1-0.2l0.1-0.2l0-0.1l0-0.2v-0.2v-0.2l0-0.2v-0.4l0-0.2l0-0.2l0-0.2
		l0.1-0.1l0.1-0.1l0.3-0.1l0.1-0.1l0.1,0l0.3-0.1l0.2-0.1l0.1-0.1l0.1-0.1l0.1-0.1l0.1,0l0.1-0.1l0.2-0.1l0.1-0.1l0.2-0.1l0.1-0.1
		l0.2-0.1l0.1-0.1l0.1,0h0.7l0.2,0l0.2,0l0.1,0l0.2,0.1h0.2l0.1,0l0.2,0.1l0.3,0.1l0.1,0l0.2,0l0.2,0.1l0.2,0.1l0.2,0.1l0.1,0.1
		l0.2,0l0.2,0.1l0.2,0.1l0.1,0.1l0.1,0l0.2,0.1l0.5,0l0.3,0l0.2,0l0.2,0l0.2,0l0.3,0l0.3,0l0.1,0l0.3,0l0.2,0l0.2-0.1l0.1,0l0.5-0.1
		h0.2l0.3,0h0.2l0.2,0h0.2h0.7h0.5h0.2l0.2,0l0.3,0l0.2,0l0.2,0l0.3,0l0.2,0l0.2-0.1l0.1,0l0.2,0l0.2-0.1l0.2-0.1l0.3-0.1l0.2-0.1
		l0.2-0.1l0.2-0.1l0.2-0.1l0.2-0.1l0.2-0.1l0.2,0l0.1-0.1l0.2-0.1l0.1,0l0.2-0.1l0.2,0l0.1-0.1l0.1-0.1l0.2-0.1l0.1,0l0.2,0l0.2,0
		l0.2,0l0.2,0h0.3l0.1,0l0.2-0.1l0.1-0.1l0.2-0.1l0.1-0.1l0.2-0.2l0.1-0.2l0.2-0.2l0.2-0.2l0.2-0.3l0.1-0.1l0.2-0.2l0.2-0.3l0.1-0.2
		l0.1-0.2l0.1-0.2l0.1-0.2l0.1-0.2l0.1-0.1l0.1-0.1l0.2-0.2l0.1-0.1l0.1-0.2l0.2-0.2l0.1-0.2l0.1-0.1l0.2-0.2l0.1-0.1l0.2-0.2
		l0.2-0.1l0.1-0.1l0.1-0.1l0.2,0l0.2-0.1l0.1-0.1l0.1,0l0.2-0.2l0.1-0.1l0.2-0.1l0.1-0.2l0-0.1l0-0.2l0.2-0.2l0.3,0l0.2,0l0.2,0
		l0.2,0.1l0.3,0l0.3-0.1l0.1,0l0.3,0h0.3l0.2-0.2l0.2-0.2l0.2-0.2l0-0.2l0.1-0.1l0-0.2l0-0.2l0.1-0.1l0-0.2l0-0.2l0.2-0.2l0.1-0.1
		l0.1-0.1l0.2-0.2l0.2-0.1l0.1-0.1l0-0.2l0-0.2l0-0.2l0-0.3l0-0.3l0-0.2l0-0.2l-0.1-0.2l0-0.1l-0.1-0.2l-0.2-0.2l-0.1-0.1v-0.5
		l0.1-0.2v-0.1l0-0.2l0-0.2v-0.1l0-0.2l0-0.2V214l0-0.2l0-0.1l0.1-0.2l0-0.2l0.1-0.1l0.1-0.2l0.1-0.2l0.1-0.1l-0.1-0.1l-0.1-0.2
		l0.1-0.3l0.1-0.2l0.1-0.2l0.1-0.2l0-0.1l0.1-0.2l0.2-0.2l0.1-0.2l0.1-0.2l0.2-0.3l0.1-0.2l0.1-0.1l0-0.2l0.1-0.1l0-0.1l0.1-0.1
		l0.1-0.2l0.2-0.2l0.1-0.1l0.2-0.1l0.2-0.1l0.2-0.2l0.1-0.2l0.1-0.1l0.2-0.2l0-0.1l0.1-0.1l0.1-0.1l0-0.1l0.1-0.1l0.1-0.1l0.1-0.2
		l0.1-0.2l0.1-0.1l0.1-0.2l0.3-0.3l0.3-0.4l0-0.1l0.1-0.2l0-0.2l0-0.2l0-0.1l0-0.1l0-0.2l0.1-0.1l0.1-0.1l0.1-0.1l0.2-0.2l0.2-0.1
		l0.2-0.1l0.2-0.1l0.2,0l0.1-0.1l0.1,0l0.2,0h0.1l0.6-0.1l0.2,0l0.1,0l0.2-0.1l0.1-0.2l0.1-0.2l0.2-0.2l0.2-0.1l0.1-0.1l0.1-0.2
		l0-0.2l0.1-0.1l0.1-0.1l0.3,0l0.2,0l0.2,0l0.3,0h0.4h0.2h0.6l0.2,0h0.2l0.1,0l0.2,0h0.2l0.2,0h0.2l0.2,0l0.2,0h0.2h0.2l0.2,0h0.2
		l0.2,0l0.2,0l0.1,0l0.2,0l0.1-0.1l0.1,0l0.2,0h0.2h0.2l0.5,0l0.1,0l0.2,0l0.2,0l0.1,0l0.3,0l0.3,0h0.2h0.3l0.2,0h0.1l0.3,0l0.2,0
		l0.2,0l0.1-0.1l0.2-0.3l0-0.3v-0.1l-0.1-0.2l-0.1-0.2l-0.1-0.1l0-0.1v-0.2l0-0.1l0-0.2v-0.2l0.1-0.2v-0.2l0.1-0.1l0-0.2l0-0.1
		l0-0.2l0.1-0.2l0.1-0.1l0.1-0.2l0.1-0.2l0.1-0.2l0.1-0.2l0-0.1l0-0.2l0-0.4l0-0.1l-0.2-0.2l-0.2-0.2l0-0.2l0.1-0.1l0.2,0h0.1
		l0.3-0.1l0.2-0.1l0.2-0.2l0.1-0.1h0.3h0.2l0.2,0l0.2-0.1l0.3,0.1l0.3,0.1h0.1l0.1-0.2l0.2-0.1l0.3,0.1l0.1,0.1l0.1,0.1l0.2,0.2
		l0,0.1l0,0.2l0.1,0.1l0,0.2l0.1,0.3l0.6,0.4l0.2,0h0.2l0.1,0h0.2l0.2,0l0.1-0.1l0.1-0.1l0.2-0.1l0.2-0.2l0.4,0.1l0.3,0l0.1-0.1
		l0.3-0.1l0.2,0l0.1-0.1l0.1-0.1l0.1-0.1l0-0.2l-0.1-0.1l0-0.3l0.1-0.1l0.2-0.1l0.2-0.2l0.1-0.2l0-0.1l0-0.2l0.2-0.2l0.2-0.1l0.1,0
		h0.4l0.1,0l0.2,0l0.1-0.1l0-0.2l0.1-0.1l0.3-0.1h0.6l0.2-0.1l0.2-0.3l0.2-0.1l0.1-0.1l0.1-0.1l0.2-0.2l0.1-0.1l0.1-0.1l0.2-0.2
		l0.2,0l0.5-0.1l0.2,0l0.1-0.1l0.2-0.1l0.2-0.3l0.1-0.1l0.2-0.2l0.2-0.1l0.3,0l0.2-0.1l0.1-0.1l0.2-0.2l0.2-0.2l0.2,0h0.1l0.2,0
		l0.2,0h0.2h0.2h0.3h0.2h0.1l0.3,0.1l0.3,0.2l0.2,0.1l0.4,0.1h0.2l0.3,0h0.3h0.3h0.2h0.2l0.2,0l0.3-0.1l0.2-0.1l0.2-0.1l0.1-0.2
		l0.2-0.1l0.1-0.1l0.2-0.1h0.2l0.1,0.1l0.1,0.2l0.1,0.1l0.2,0.1l0.3,0l0.4,0l0.2,0.1l0.1,0h0.1h0.3h0.2l0.2,0l0.2,0l0.1-0.2v-0.3
		l-0.1-0.1l0-0.3l0.1-0.2l0.1-0.2l0.1-0.2l0.2-0.2l0-0.1l0.2-0.2l0.1-0.1l0.1,0h0.2l0.3-0.1l0.2,0h0.2l0.1,0.1l0.1,0.2l0,0.3l0,0.2
		l0.1,0.1l0.2,0.1l0.2,0l0.1,0l0.2-0.1l0.1-0.1l0.3-0.2h0.3l0.2,0.2l0.2,0.2l0.1,0.1l0.1,0.2l0.1,0.1l0.1,0.2l0.2,0.2l0.1,0.1
		l0.3,0.2l0.1,0.1l0.2,0.1l0.2,0.2l0.3-0.1l0.1,0l0.2-0.1l0.2-0.1l0.2,0h0.2l0.2,0.2l0.2,0.1l0.2,0l0.2-0.1l0.1,0h0.1l0.3,0.1
		l0.2,0.1l0.1,0.1l0.2,0.2l0.2,0.2l0.2,0.1l0.2,0l0.2-0.1l0.1-0.1h0.2h0.2l0.2,0.2l0.2,0l0.1-0.1l0.1-0.1l0.2-0.2l0.3-0.4l0.2-0.1
		h0.2h0.1l0.2,0.1l0.2,0l0.2,0l0.2-0.1l0.2,0l0.1,0l0.3-0.1h0.3l0.1,0.1l0.2,0.1l0.2,0.1h0.2l0.4,0l0.2-0.1l0.1,0h0.3l0.1,0l0.1,0.1
		l0.1,0.2l0.1,0.1l0.2,0.2h0.1l0.1-0.1l0.2-0.2l0.1-0.1l0.2-0.1l0.1-0.1l0.2,0l0.1,0l0.1-0.1l0.1-0.1l0.1-0.2l0.1-0.2l0-0.1l0.1-0.2
		v-0.2l0-0.1v-0.2l0.1-0.2l0.1-0.1h0.3h0.1l0.2,0h0.2h0.2l0.5-0.1v-0.2l0-0.3l0.1-0.1l0.2-0.2l0-0.2l-0.1-0.3l-0.1-0.3l-0.1-0.2
		l-0.1-0.2l-0.1-0.2l0-0.2v-0.3l0.1-0.2l0.1-0.1l0.1-0.3l0-0.3l-0.1-0.2l0-0.2l-0.1-0.1l0-0.2l0-0.2l-0.1-0.2h-0.2l-0.2-0.2
		l-0.1-0.2v-0.2l0-0.2l0-0.2l0-0.2l-0.2-0.1l-0.3-0.1l-0.2,0l-0.2-0.1l-0.1-0.1l-0.2-0.1l-0.1-0.1l0.1-0.4l0.2-0.3l-0.1-0.2l-0.1,0
		l-0.2,0l-0.1,0l-0.2,0l-0.1-0.2l-0.1-0.2l-0.1-0.2l-0.1-0.2l-0.1-0.2l-0.2-0.2v-0.3v-0.1l0.1-0.2l0-0.3l0-0.1l0-0.2l-0.1-0.2
		l-0.2-0.3l-0.1-0.2l-0.1-0.1l-0.1-0.2l0-0.1l-0.1-0.1l0-0.2l-0.1-0.2l-0.1-0.2l-0.2-0.2l-0.2-0.2l-0.1-0.1l-0.1-0.1l-0.2-0.2
		l-0.1-0.2l-0.2-0.2l-0.2-0.2l-0.1-0.1l-0.3-0.2l-0.2-0.2l-0.2-0.1l-0.2-0.2l-0.2,0l-0.1,0l-0.3,0l-0.3,0l-0.3-0.3l-0.1-0.2l0-0.2
		l0-0.2l-0.1-0.1l-0.1-0.1l-0.2,0l-0.2,0l-0.2-0.2l0-0.2l-0.1-0.1l-0.1-0.2l-0.2,0.1l-0.2-0.1l-0.1,0l-0.2-0.1l-0.3-0.3l-0.1-0.1
		l-0.1-0.2V174l-0.1-0.2l-0.2,0l-0.2-0.1l-0.2-0.2l-0.2-0.1l-0.2-0.2l-0.1-0.1l-0.2-0.1l-0.1,0h-0.3l-0.2-0.1l0-0.2v-0.2l0.1-0.2
		l0.1-0.1l0.2-0.2l0-0.2l-0.1-0.3l-0.1,0l-0.2-0.1l-0.2,0l-0.2,0l-0.2-0.1l-0.1,0h-0.2h-0.2h-0.1l-0.1,0h-0.2l-0.2-0.1l-0.2,0h-0.2
		l-0.1-0.1l-0.2,0l-0.2,0l-0.2-0.1l-0.2-0.1l-0.2-0.1l-0.2-0.1l-0.1-0.2v-0.2l-0.1-0.1l0-0.2l0-0.2l0-0.2l0-0.3l-0.1-0.3l0-0.3
		l0-0.2l0-0.2l0-0.1l0-0.2l-0.1-0.1l-0.1-0.2l-0.1-0.1l-0.1-0.1l-0.2-0.1l-0.3-0.1l-0.1,0l-0.2,0l-0.2,0l-0.2,0l-0.4-0.1l-0.1,0
		l-0.2-0.1l-0.2,0l-0.2-0.1l-0.2,0l-0.2-0.1l-0.2,0l-0.2-0.1l-0.2-0.1l-0.2,0l-0.2,0l-0.2,0l-0.1-0.1l-0.2,0l-0.2-0.1l-0.2,0l-0.2,0
		l-0.2,0l-0.1,0l-0.2,0l-0.3,0l-0.1,0h-0.2l-0.2-0.1l-0.2,0l-0.2-0.2l-0.1-0.1l-0.1-0.1l-0.1-0.2l-0.2-0.2l-0.2-0.2l-0.1-0.1
		l-0.1-0.1L369,164l-0.1-0.1l-0.2-0.2l-0.2-0.2l-0.2-0.2l-0.2-0.2l-0.1-0.1l-0.1-0.2l-0.1-0.1l-0.1-0.1l-0.1-0.1l-0.1-0.1l-0.1-0.1
		l-0.1-0.1l-0.1-0.2l-0.1-0.1l-0.2-0.2l-0.1-0.2l-0.1-0.1l-0.2-0.2l-0.1-0.1l0-0.1l-0.1-0.2l-0.1-0.2l-0.2-0.1l-0.4-0.2l-1.2,0
		l-1.4-0.2l-1.3,0.2l-1.2-0.2l-1.4-0.5L358,160l-1.3,0.7l-1.6,0.2l-1.2-0.2l-0.5-0.4l0,0.2l0,0.1l-0.2,0.5l-0.4,0.4l-0.1,0.2
		l-0.1,0.2l-0.2,0.2l-0.2,0.3l-0.1,0.2l-0.1,0.1l-0.1,0.2l-0.1,0.1l-0.1,0.2l-0.1,0.1l-0.1,0.2l0,0.1l-0.1,0.2l-0.1,0.1L351,164
		l-0.1,0.1l-0.1,0.2l-0.1,0.2l-0.1,0.2l-0.2,0.2l-0.1,0.2l-0.1,0.1l-0.1,0.2l-0.1,0.2l-0.1,0.2l-0.1,0.1l-0.2,0.2l-0.1,0.2l-0.2,0.2
		l-0.2,0.2l-0.1,0.1l-0.1,0.2l0,0.2l-0.1,0.1l-0.2,0.1l-0.1,0.1l-0.2,0.2l-0.1,0.2l-0.1,0.1l-0.1,0.2l-0.1,0.2l0,0.1l-0.1,0.2l0,0.1
		l-0.1,0.2l-0.1,0.1l0,0.1l-0.1,0.2l0,0.1l-0.1,0.2l0,0.1l-0.1,0.2l-0.1,0.2l-0.1,0.2l-0.1,0l-0.2-0.1l-0.2-0.1l-0.2-0.1l-0.2-0.1
		l-0.4-0.3l-0.3-0.2l-0.2-0.2l-0.1-0.2l-0.3-0.2l-0.2-0.1l-0.2-0.1l-0.5-0.5l-0.2-0.1l-0.5-0.5l-0.2-0.1l-0.1-0.1l-0.3-0.3l-0.1-0.1
		l-0.3-0.2l-0.2-0.1l-0.2-0.2l-0.1-0.1l-0.2-0.1l-0.2-0.1l-0.1-0.1l-0.2-0.1l-0.2-0.1l-0.2-0.1l-0.2-0.1l-0.2,0l-0.1,0l-0.2,0
		l-0.2,0l-0.1-0.1l-0.2,0l-0.2-0.1l-0.2,0l-0.1-0.1l-0.3,0l-0.3-0.1l-0.3-0.1l-0.2,0l-0.1,0l-0.2,0l-0.2,0l-0.2,0h-0.3l-0.5,0
		l-0.2,0l-0.2,0l-0.2,0l-0.1,0l-0.2,0l-0.2,0l-0.2,0l-0.1,0l-0.3,0.1l-0.2,0.1l-0.1,0l-0.1,0l-0.2,0.1l-0.2,0.1l-0.2,0.1l-0.1,0
		l-0.2,0.1l-0.1,0l-0.2,0.1l-0.2,0.1l-0.1,0.1l-0.2,0.1l-0.2,0l-0.1,0.1l-0.1,0l-0.3,0.1l-0.1,0.1l-0.2,0.1l-0.1,0l-0.1,0l-0.2,0
		l-0.1,0l-0.3,0.1h-0.2h-0.2l-0.2-0.1l-0.2,0l-0.1-0.1l-0.2-0.1l-0.2-0.1l-0.2,0l-0.2,0l-0.2,0h-0.2l-0.1,0l-0.2,0l-0.2,0l-0.3,0
		l-0.1,0.1l-0.1,0.1l-0.1,0.1l-0.1,0.1l-0.2,0.2l-0.2,0.1l-0.1,0.1l-0.1,0.1l-0.1,0.1l-0.1,0.1l-0.2,0.2l-0.2,0l-0.1,0.1l-0.1,0.1
		l-0.6,0.7l-0.2,0.2l-1.3,2l-0.1,0.1l-0.2,0.2l-0.1,0.1l-0.1,0.1l-0.1,0.1l-0.1,0.1l-0.2,0.1l-0.3-0.3l-0.5-0.5l-0.3-0.3l-0.1-0.1
		l-0.5-0.4l-0.4-0.3l-0.2-0.2l-0.1-0.1l-0.1-0.1l-0.4-0.3l-0.1-0.1l-1.1-0.9l-0.2-0.2l-0.1-0.1l-0.2-0.1l-0.1-0.1l-0.1-0.1l-0.2-0.2
		l-0.1-0.1l-0.2-0.1l-0.1-0.1l-0.2-0.2l-0.2-0.2l-0.2-0.1l-0.2-0.2l0-0.2l0-0.2v-0.1l0-0.2l0-0.3l0-0.2v-0.3l-0.1-0.2V164l0.1-0.7
		l0-0.2l0-0.1l-0.1-0.3l0-0.1l0-0.2l-0.1-0.2v-0.3l0-0.2l-0.2-0.1l0-0.3l0-0.1l0-0.2l-0.2-0.2l0-0.2l0.1-0.1l0.1-0.1l0.2-0.1
		l0.1-0.1l0.2-0.1l0.1-0.1l0.2-0.1l0.2-0.1l0.2-0.1l0.1-0.1l0.2-0.1l0.2-0.1l0.1-0.1l0.2-0.1l0.2-0.1l0.1-0.1l0.1-0.1l0.2-0.1
		l0.1-0.1l0.1-0.1l0.1-0.1l0.2-0.1l0.2-0.1l0.1-0.1l0.1-0.1l0.1-0.1l0.2,0l0.1-0.1l0.1-0.1l0.2-0.2l0.1-0.1l0.2-0.3l-0.1-0.7l0-0.4
		l0-0.2l0-0.2l0-0.2l0-0.2v-0.2l0-0.1l0-0.2l0-0.3l0-0.2l0-0.2l0-0.3l0-0.3l-0.1-1l0-0.9l0-0.2l0-0.2l0-0.3l0.1-0.2l0.1-0.2l0.1-0.2
		l0-0.1l0.1-0.2l0.1-0.2l0.1-0.2l0.1-0.2l0.1-0.2l0-0.1l0.1-0.2l0.1-0.2l0.1-0.2l0.1-0.2l0.1-0.1l0.1-0.2l0.1-0.2l0.1-0.2l0.1-0.2
		l0.1-0.1l0-0.1l0.1-0.1l0.1-0.2l0.1-0.2l0.1-0.1l0.1-0.1l0-0.1l0.1-0.2l0.1-0.1l0.1-0.2l0.1-0.1l0.1-0.1l0.1-0.2l0.2-0.2l0.4-0.8
		l0.1-0.1l0.2-0.3l0.1-0.2l0-0.1l0.1-0.2l0.1-0.2l0.1-0.2l0-0.1l0.1-0.2l0-0.1l-0.1-0.2l-0.1-0.2l-0.1-0.2l-0.1-0.1l-0.1-0.1v-0.6
		l0-0.1v-0.2l0.1-0.2l0-0.2l0.1-0.1l0.1-0.2l0.1-0.2l0.1-0.2l0.1-0.2l0.1-0.1l0.1-0.2l0.1-0.2l0-0.1l0.1-0.2l0.1-0.2l0.1-0.1l0-0.2
		v-0.1l0-0.2l0.1-0.2l0.1-0.3l0-0.2l0.1-0.2l0-0.1l0-0.2l0-0.2l0-0.2l0.1-0.1l0-0.2l0.1-0.2l0-0.2l0.1-0.1v-0.1l0.1-0.2l0-0.2
		l0.1-0.2l0.1-0.2l0-0.2l0.1-0.2l0-0.1l0-0.2l0.1-0.1l4.5-12.1l0.1-0.2l0-0.1l0-0.2l0.1-0.1l0.1-0.2l0-0.2l0.1-0.2l0-0.1l0.1-0.1
		l0-0.1l0-0.2l0.1-0.2v-0.2l0-0.1l0-0.2l0.1-0.2l0-0.1l0-0.2l0.1-0.2l0-0.2l0.1-0.2l0.1-0.2l0.1-0.2l0.1-0.2l0-0.1l0.1-0.3l0-0.2
		l0.1-0.2l0.1-0.3l0.1-0.2l0.1-0.2l0.1-0.1l0.3,0l0.1,0l0.1,0.1l0.2,0.1l0.1,0.1l0.1,0l0.1,0.1l0.2,0.1l0.2,0.1l0.3,0.3l0.4,0.2
		l0.1,0.1l0.2,0.1l0.2,0.1l0.2,0l0.2,0.1l0.1,0.1l0.2,0.1l0.1,0l0.1,0l0.3,0.2l0.5,0.5l0.2,0.1l0.1,0.1l0.2,0l0.2,0.1l0.2,0.1
		l0.2,0.2l0.2,0.1l0.2,0l0.2,0.1l0.1,0l0.1,0.1l0.2,0.1l0.2,0.1l0.2,0.1l0.3,0l0.2,0l0.2,0l0.1,0l0.2,0l0.2,0.1l0.2,0.1l0.2,0.1
		l0.3,0.1l0.2,0.1l0.2,0.2l0.7-0.2h0.4l0.4-0.1l0.8,0l0.5,0h0.3l0.1,0l0.2,0l0.1,0.1l0.2,0l0.1,0.1l0.1,0.1l0.2,0.1l0.1,0.1l0.2,0.1
		l0.2,0l0.2,0.2l0.2,0l0.1,0.1l0.2,0.1l0.2,0l0.2,0l0.1,0.1l0.2,0l0.2,0.1l0.1,0l0.1,0l0.2,0l0.2,0.1l0.1,0.1l0.2,0.1l0.2,0l0.2,0.1
		l0.1,0.1l0.2,0h0.2l0.2,0h0.2l0.2,0h0.2h0.2l0.1-0.3l0.1-0.2l0.2-0.2l0.1-0.1l0-0.4l0.1-0.1l0.2,0l0.1-0.3l0-0.2l0.2-0.2l0.1,0.1
		l0.1,0l0.1-0.1l0.2-0.1l0.2,0l0.2-0.1l0-0.2l0-0.1l0.1-0.1l0.2-0.1l0.1-0.1h0.2l0.1,0.1l0.3,0.1l0.3,0l0.2,0.1l0.2-0.1l0.1-0.1
		v-0.2v-0.2v-0.2l0.2-0.2l0.2,0l0.2-0.1l0.1-0.2l0-0.2v-0.2h0.2h0.3l0.1,0.1l0.1-0.2l0.2-0.4l0.1-0.1l0.1-0.2l0.1-0.1l0-0.1l0.1-0.2
		l0.2-0.1l0.1-0.2l0.1-0.2l0.1-0.1l0-0.2l0.1-0.2l0.2,0l0.2-0.1l0.1-0.1l0.1-0.2l0.2-0.1l0.2-0.1l0.2-0.2h0.2l0.2-0.1l0.1,0l0.1-0.1
		l0.3-0.6l0.1-0.1l-0.1-0.1v-0.1l0.1-0.1h0.2l0.1-0.1l0.1-0.2l0.2-0.1l0.3,0.2l0.2-0.1l0-0.2l0.1-0.1v-0.2v-0.1v-0.5l0-0.2l0-0.2
		l0.2-0.2l0.1-0.1l0.2-0.1l0.3-0.1l0.1-0.1l0.1-0.2l0-0.2l0.1-0.2l0.1,0l0.2-0.1l0.2,0l0.2,0l0.1-0.2l0.3,0l0.2,0l0.2-0.1l0.1-0.2
		l0.2-0.1h0.2h0.2h0.3h0.1l0.2-0.1l0.2-0.1l0.1,0l0.1,0l0.2,0l0.1-0.1l0.2-0.1l0.1-0.1l0.1-0.1l0.2-0.2l0.1,0l0.2,0l0.2-0.1l0.1-0.2
		l0.2-0.1l0.1,0.1l0,0.2l0.1,0.1l0.2,0l0.2-0.1l0.1-0.1l0.1-0.2v-0.3v-0.2l0.1-0.2l0.1-0.1l0.1,0l0.2,0l0.2,0h0.3l0.1,0.1l0.1,0.2
		l0.2,0.1v0.1l0.2,0.2l0.2,0.1h0.2l0.2-0.1l0.1,0l0.1-0.1l0.3,0l0.2-0.2l0.2-0.2v-0.2l0-0.2l0.1-0.1l0.1-0.1l0.2-0.2l0.1-0.1l0-0.2
		l0.1-0.1l0-0.2l-0.2-0.1v-0.2l0.2-0.2v-0.2l0.2-0.2l0.2,0.1h0.3l0.1-0.2l0.1,0l0.2-0.1l0-0.2l0.1-0.1l0.1-0.1l0.1-0.3v-0.2l0-0.2
		l0.2-0.1v-0.4l-0.2-0.2l0.1-0.2h0.1h0.2h0.3V105l-0.1-0.1v-0.2l0-0.1l0.1-0.2l0.1-0.2l-0.1-0.2h-0.2h-0.2l-0.1-0.2v-0.2v-0.2l0-0.1
		l0.1-0.1l0.1-0.2l0-0.1l-0.2-0.2v-0.2l-0.1-0.4l0.1-0.1l0.2-0.1l0-0.3l0.2-0.2l0.2-0.1l0.1-0.2l-0.1-0.1l-0.2,0l0-0.2l0-0.2l0-0.2
		l-0.3-0.2l-0.2,0l-0.2,0.1l-0.2,0l-0.2,0.1l-0.1,0.1l-0.1-0.1l-0.1-0.1l-0.2,0.1l0,0.1l-0.1,0.2l-0.2,0.1l-0.1-0.2l-0.4-0.1
		l-0.1,0.2l-0.1,0.1l-0.1-0.2l-0.1,0h-0.2h-0.2l0-0.1l0.1-0.1l-0.1-0.2l-0.2-0.2l-0.2,0.1l-0.1,0v-0.2l0.1-0.1l0-0.2l0.1-0.2
		l0.2-0.2l0.3,0h0.2l0.2,0l0.1-0.2l0.1-0.1v-0.2l0.1-0.1l0.1-0.2l0.1-0.5l0.2,0l0.1-0.1l-0.1-0.2l-0.1-0.4l-0.2-0.1l-0.1-0.1v-0.1
		l0.1-0.1l0.2-0.2l0-0.3V96l0.1-0.3l0.1-0.1v-0.2l-0.1-0.1v-0.2l0.2-0.2l0.1-0.1v-0.2l-0.1-0.2l0-0.3l0.1-0.1L371,94l0.1,0l0.2-0.1
		l0.1-0.1l0-0.2l0.2-0.1l0.2-0.2l0.1-0.2l0.1-0.2l0.1-0.2l0-0.1v-0.4l0.2-0.1l0.1-0.1l0.2-0.1l0.2,0l0.1-0.2l0-0.3l0.2-0.2l0.2-0.2
		l0-0.2v-0.1l0.1-0.1l0-0.2l0.1-0.2l0-0.2l0-0.4l0.1-0.2l0.1-0.1l0-0.2l-0.1-0.1l0-0.1l0-0.2l0-0.1l-0.1-0.3l0-0.2l0.3-0.1l0-0.2
		l-0.1-0.2l0.2-0.1l0.1-0.2l0-0.2l0.1-0.1v-0.1l-0.1-0.1l-0.1,0l-0.2-0.2l0-0.2l0-0.1l0.1-0.1l0-0.1l0.1-0.2l0.1-0.2l0.1,0l0.2-0.2
		l0-0.2l0-0.3l0-0.3l0-0.2l0.1-0.1l0.2-0.1l0.1,0L375,84v-0.2l0.1-0.2h0.2l0.2,0l0.2-0.2l0.1-0.1l0.1-0.1l0-0.3l0.2-0.2l0.2-0.1
		l0.2-0.2l-0.1-0.2l-0.1-0.2v-0.1l0.3,0l0.1-0.2l0.1-0.2l0.1-0.2l-0.1-0.3l-0.1-0.2v-0.2l0-0.1l0.1-0.1l0-0.2l0-0.1l0-0.2l0-0.3
		l-0.1-0.1l0.2-0.1l0.1-0.1l0-0.2l-0.2-0.1l0-0.2l-0.1-0.2v-0.4l0.1-0.1l0.2,0l0.1,0l0.2,0.2l0.1-0.2l-0.2-0.4l-0.1-0.1v-0.1
		l0.1-0.2l0.2-0.2l-0.1-0.2l-0.1-0.1l0.1-0.2l0.2-0.2l0.1-0.1l0.3-0.1l0.1-0.2v-0.5v-0.2l0-0.2l0-0.2l0.1-0.1l0.2-0.2l0.1,0l0.1-0.1
		l0.1-0.1l-0.1-0.2l-0.2-0.2v-0.1l0.1-0.2l0.2-0.1l0.2-0.1l0.1-0.1l0.1-0.2V73l0-0.2l0-0.2l0-0.5v-0.2l0-0.4l0-0.4l0-0.2l0.1-0.1
		l0.1-0.1l0.3-0.2l0.1-0.2l0.2-0.2l0.1-0.2l0-0.1v-0.2l-0.1-0.4l0-0.4l0-0.1v-0.2l0.1-0.3l0-0.2v-0.2l0-0.2l0-0.1l0-0.2l0.1-0.1
		l0.1-0.1l0.1-0.2l0-0.2l0-0.2l0-0.3h0.3l0.4,0l0.2,0l0.1-0.1l0.1-0.1l0.1-0.1l0.2-0.2l0.1-0.1l0.1-0.1l0.2-0.2l0.1-0.1l0.1-0.1
		l0.2-0.2l0.1-0.1l0.1-0.1l0-0.1l0.1-0.2l0.1-0.2l0.2-0.2l0.1-0.2l0-0.1l0.1-0.2l0.2-0.3l0.3-0.2l0.1-0.1l0.1-0.1l0.1-0.1l0.1-0.1
		l0.1-0.2l0-0.2l0.2-0.2l0.1-0.1l0.3-0.2l0.2-0.1l0.1-0.1l0.1-0.1l0-0.2l0-0.2l0-0.1l0.2-0.1h0.2l0.1,0h0.1l0.2-0.1l0.2-0.1l0.1-0.1
		l0-0.4l0.1-0.1h0.2l0.2,0l0.2-0.1l0.6-0.2l0.1-0.1l0.1-0.1l0-0.1l0-0.4l0.1-0.1l0.1-0.2l0.2-0.2l0.1-0.1l0.1-0.2l0.1-0.3l0.1-0.2
		l-0.1-0.2l0.1-0.2l-0.2-0.1l-0.2-0.1l-0.1-0.1l-0.1-0.1l-0.1-0.1l-0.1-0.4v-0.2v-0.2l0.2-0.2l0.1-0.1l0.1-0.1l0.2-0.1l0.1-0.3
		l0-0.1l0.1-0.2l0.1-0.1l0.1-0.2v-0.3l-0.1-0.3l0-0.2v-0.1l0.1-0.1l0.1-0.1v-0.2l-0.1-0.1l-0.1-0.1l-0.2-0.2l-0.1-0.1l-0.1-0.1
		l-0.1-0.2l-0.1-0.1l0-0.1l-0.1-0.4l0.1-0.3l0-0.2v-0.4l-0.2-0.1H388l-0.4-0.2l-0.1-0.1l0-0.2l-0.4-0.4l-0.2,0l-0.2-0.1l-0.2-0.2
		l-0.1-0.1l-0.2-0.2l0-0.2l-0.1-0.2l0-0.1l-0.1-0.2l0.1-0.2l0.2-0.1l0-0.1v-0.2v-0.2l0.1-0.2l0-0.2l0.1-0.1l0-0.2l0.2-0.2l0-0.1
		l0-0.2l0-0.2l-0.1-0.2l0-0.1l-0.1-0.4v-0.1l0-0.1l0.1-0.3l0-0.2l0-0.1l-0.1-0.2l-0.1-0.2l0.1-0.1l0.2-0.2l0.1,0l0.1-0.1l0.1-0.1
		l-0.1-0.3l-0.2-0.1l-0.2,0.2h-0.1l-0.2-0.2l-0.2-0.2l-0.2-0.2l-0.1,0h-0.2l-0.1-0.1l-0.2-0.2l-0.2-0.2l-0.2,0h-0.2h-0.1h-0.2
		l-0.3-0.2l-0.1-0.1l-0.1-0.1l-0.2-0.1h-0.3l-0.2-0.1l-0.3-0.2l-0.1-0.1l-0.2,0l-0.2,0l-0.1,0l-0.1,0.1l-0.1,0.1L382,42l-0.1,0.2
		l-0.1,0.1l-0.1,0l-0.2,0l-0.2,0l-0.2,0l-0.2,0l-0.3,0.1l-0.1,0.1l-0.1,0l-0.1,0.1l-0.1,0.1l-0.2,0.1l-0.2,0.2l-0.2,0.1l-0.4,0.5
		l-0.1,0.1l-0.1,0.1l-0.2,0l-0.1-0.1l-0.4-0.1H378l-0.7,0l-0.2,0.1l-0.1-0.1l-0.2-0.2l0-0.4l0-0.2l0-0.1l-0.1-0.1l-0.1-0.4l0-0.2
		v-0.2l0.1-0.2v-0.2v-0.2l-0.1-0.8l0-0.1l0-0.2l-0.1-0.1l-0.1-0.1l0-0.2l0-0.2l0-0.1l-0.1-0.5L376,39l0.1,0l0.3-0.1l0.1,0l0.2-0.1
		l0.1-0.1l0-0.2l0.2-0.3l0.1-0.1l0.1-0.1l0.2-0.1l0.3,0l0.4-0.4l0.1-0.2l0.1-0.1l0.1-0.1l0.1-0.1l0.2-0.2l0.3-0.2l0.1-0.2l0-0.1
		v-0.1l0-0.2l0.2-0.2l0.1-0.2l0.2,0h0.1l0.1-0.1l0.1-0.1l0-0.5l0.1-0.2l0.2-0.3l0.1-0.1l0.1-0.1l0.1-0.1l0.1-0.1l0.2-0.2l0-0.2
		l0-0.2l0.1-0.2l0.1-0.2l0.1-0.2l0.2-0.2l0.1-0.1l0.2-0.2l0.1-0.1L382,32l0.2-0.2l0.1-0.2l0.1-0.2l0.1-0.2l0.1-0.2l0.1-0.1l0.1-0.2
		l0.1-0.1l0.1-0.1l0.1-0.1l0.3-0.3l0.2-0.2l0-0.1l0.1-0.2l0.1-0.1l0-0.2l0.1-0.2l0.1-0.2l0.1-0.1l0.2-0.1l0.1-0.2l0-0.1l-0.1-0.4
		l0.1-0.2l0.1-0.1l0.1-0.2l0.1,0l0.2-0.2l0.2-0.2l0.2-0.3l0.2-0.1l0.1-0.1l0.2-0.1l0.1-0.1l0.1-0.1l0-0.2l-0.2-0.1l0-0.2l0.1-0.2
		l0.2-0.1l0.2-0.1l0.2-0.1l0.1-0.2l0.2-0.2l0.1-0.1l0.2-0.1l0.2,0h0.2l0.2,0h0.2l0.5,0h0.2l0.1,0l0.2,0l0.2,0.1l0.1,0l0.1-0.1
		l0.2-0.2l0.2-0.3l0.2,0h0.2l0.2,0.1l0.1,0.1l0.2,0.2l0.2,0.1l0.1,0h0.2l0.3-0.1l0.2-0.1l0.2,0l0.2-0.1l0.2-0.2l0.1,0l0.2,0l0.3-0.2
		l0.1-0.1l0.2-0.3l0.1-0.1l0.2-0.1l0.2-0.1l0.2,0h0.1l0.5,0l0.2-0.1l0.1,0l0.2,0l0.1-0.1l0.2-0.2l0.1-0.1l0.2-0.2l0.3,0.4l0.2,0.2
		l0.2,0.1l0.2,0.1l0.2,0.1l0.2,0.1l0.2,0.2l0.2,0.1l0.2,0.2l0.1,0.2l0.2,0.1l0.2,0l0.2,0l0.2,0.2l0.2,0.2l0.1,0.2l0.1,0.2l0,0.2
		l0,0.2l0,0.2l-0.1,0.2v0.2l0.2,0.1L399,26l0.2,0.1l0.1,0.2l0.2,0.1l0.2,0l0.2-0.1l0.2,0.1l0.1,0.2l0.1,0.2l0.1,0.2l0.1,0.2l0.1,0.2
		v0.2v0.2l0.2,0.2l0.2,0l0.2,0.2l0.1,0.2l0,0.2l-0.1,0.2V29l0,0.2l0,0.2l-0.1,0.2l-0.2,0.2l-0.2,0.1l-0.2,0.1l-0.2,0.2l-0.1,0.2
		l-0.1,0.2l-0.1,0.2L400,31l0,0.2l0,0.2v0.2v0.2l-0.1,0.2l-0.1,0.2l-0.1,0.2l-0.2,0.2l-0.2,0.2l-0.2,0.2l0,0.2v0.2l0.1,0.2l0.1,0.2
		l-0.1,0.2l-0.1,0.2l-0.1,0.2l-0.1,0.2l-0.2,0.2l-0.2,0.1l-0.2,0.1l-0.2,0.2l-0.1,0.2l-0.1,0.2l-0.1,0.2l-0.2,0.1l-0.2,0.2l0,0.1
		l-0.1,0.2l-0.1,0.2l-0.1,0.2l-0.1,0.2l-0.1,0.2l-0.1,0.2l-0.1,0.2l-0.1,0.2l-0.1,0.2l-0.2,0.2l-0.2,0.2l-0.2,0.2l-0.2,0.1h-0.2
		l-0.2,0.1l-0.1,0.2l-0.1,0.2l-0.1,0.2l-0.1,0.2l-0.1,0.2l-0.2,0.2l-0.2,0.1l-0.2,0.1l-0.2,0.2l-0.2,0.2l-0.1,0.2L394,41l0,0.2
		l0.1,0.2l0.2,0.1l0.2,0l0.2-0.1l0.2,0l0.2,0l0.2,0l0.2,0l0.2,0.2l0.1,0.2l0.1,0.2l0.2,0.2l0.1,0.2l0.2,0.2l0.2,0.1l0.2,0l0.2,0.1
		l0.1,0.2l0.2,0.1l0.2,0.2l0.2,0.1l0.2,0.2l0.2,0l0.2-0.1h0.2l0.2,0.2l0.1,0.2l0.2,0.2l0.2,0.1l0.2-0.1l0.2-0.1l0.2,0l0.2,0.1
		l0.2,0.1l0.2,0.1l0.2,0l0.2,0l0.2,0l0.2,0.1l0.2,0.2l0,0.2l-0.2,0.2V45l0.1,0.2l0.2,0.2l0.2,0.2l0.2,0.2l0.2,0.2l0.1,0.2l0.1,0.2
		l0,0.2l0.1,0.2v0.2l0.3,0.1l0.2,0l0.2,0l0.2,0l0.2,0.1l0.2,0.1l0.2,0.1l0.2,0.1l0.2,0.1l0.2,0l0.2,0h0.2h0.2l0.2-0.1l0.2-0.1
		l0.2-0.1l0.1-0.2l0.1-0.2l0-0.2v-0.2l0-0.2l0.1-0.2l0.1-0.2l0.1-0.2l0.2-0.2l0.1-0.2l0.1-0.2l0-0.2l0.1-0.2v-0.2l0.1-0.2l0.2-0.1
		l0.2-0.1l0.1-0.2l0-0.2l0-0.2l0.2-0.2l0.2-0.2l0-0.2l0-0.2l0.2-0.2l0-0.2l-0.1-0.2v-0.2l0.1-0.2l0.2-0.1l0.2,0.1l0.1,0.2l0.1,0.2
		l0.1,0.2l0.2,0.2l0.2,0l0.2,0l0.2,0l0.2-0.1l0.2-0.1l0.2,0l0.2,0l0.2,0.2l0.1,0.2l0.1,0.2l0.1,0.2l0.2,0.1l0.2,0.2l0.1,0.2l0.1,0.2
		l0.2,0.2l0.2,0l0.2,0l0.2,0.2l0.1,0.2l0.2,0.1l0.1-0.2l0.2-0.2l0.2,0l0.1,0.2l0.1,0.2l0.1,0.2l0.2,0.2l0.1,0.2l0,0.2l0.1,0.2
		l0.1,0.2v0.2l0,0.2l0.2,0.1l0.2,0l0.2,0h0.2h0.2l0.2,0l0.2,0.1l0.2,0.1l0.2,0l0.2-0.1l0.2-0.1l0.2-0.1l0.2,0l0.2,0.1l0.2,0.1
		l0.1,0.2l0.2,0.2l0.2,0l0.2-0.2l0.2-0.1l0.2,0l0.2,0l0.1,0.2l0.1,0.2l0.1,0.2l-0.1,0.2v0.2v0.2v0.2v0.2l-0.1,0.2l0,0.2l0,0.2
		l-0.1,0.2l-0.1,0.2l-0.1,0.2l-0.1,0.2l-0.2,0.2l-0.2,0.1l-0.2,0l-0.2,0l-0.2,0.1l-0.1,0.2v0.2l0.1,0.2l0.1,0.2v0.2l0,0.2l0,0.2v0.2
		l0.2,0.1l0.2,0.1l0.1,0.2v0.2l0,0.2l0,0.2l0.1,0.2l0.1,0.2l0.2,0l0.1,0.2l0.2,0.1h0.2l0.2,0.1l0.2,0.2l0.1,0.2l0,0.2l0,0.2l0.1,0.2
		l0.1,0.2l0,0.2l-0.1,0.2l-0.1,0.2v0.2l0.1,0.2l0.1,0.2l0.2,0.2l0.1,0.2l0.1,0.2l0.1,0.2l0.1,0.2l0.2,0.2l0.1,0.2l0.1,0.2l0.1,0.2
		l0.1,0.2l0.1,0.2V58v0.2l0,0.2l0,0.2l0,0.2L421,59l0.2,0.2l0.1,0.2l0.1,0.2l0.1,0.2l0.1,0.2l0.1,0.2l0.1,0.2l0.1,0.2l0.2,0.2
		l0.2,0.1l0.1,0.2l0.1,0.2l0.1,0.2l0.1,0.2l0.1,0.2l0.1,0.2l0,0.2v0.2l0.2,0.2l0.2,0.2l0.2,0.2l0.2,0.2l0.1,0.2v0.2l-0.1,0.2v0.2
		l0.2,0.2l0.2,0.2l0,0.2l-0.1,0.2l-0.1,0.2l0.1,0.2l0.1,0.2l0.1,0.2l0.2,0.1l0.2,0.2l0.1,0.2v0.2l0.2,0.2l0.2,0.1l0.2,0.1l0.2,0.2
		l0.1,0.2l0.1,0.2v0.2l0,0.2l0.1,0.2l0.1,0.2l0.2,0.2l0.1,0.2l0.2,0.2l0.1,0.2l0.2,0.1l0.2-0.1l0.2-0.1l0.2,0l0.2,0l0.2,0l0.2,0.1
		l0.2,0l0.2,0h0.2l0.2,0l0.2,0l0.2,0.2l0.2,0.1h0.2h0.2l0.2,0l0.2,0.1l0.2,0.1l0.2,0.1h0.2l0.2-0.1l0.2-0.1l0.1-0.2l0.1-0.2l0.2,0
		l0.2,0l0.2,0l0.2-0.2l0.2-0.1l0.2,0l0.2,0.1l0.2,0l0.2-0.1l0.1-0.2l0.1-0.2l0.2-0.2h0.2l0.2,0l0.2,0l0.2-0.1L435,68l0.1-0.2
		l0.2-0.2l0.2-0.1l0.2-0.1l0.2-0.1l0.1-0.2l0.1-0.2l0.2-0.1l0.2-0.1l0.1-0.2l0-0.2l0-0.2l0.1-0.2l0-0.2l0.2-0.2l0.2-0.1h0.2h0.2h0.2
		l0.2,0.1l0.2,0.1h0.2l0.2,0l0.2-0.1h0.2l0.2,0.2l0.1,0.2l0.2,0.2l0.2,0.2l0.2,0.2l0.2,0.1l0.2,0.1l0.2,0.2l0.2,0l0.2-0.1l0.1-0.2
		l0.2-0.1l0.2-0.1l0.2-0.1l0-0.2l0.2,0l0.2,0l0.2,0l0.2-0.1l0.2-0.2l0.1-0.2l0.1-0.2l0.2-0.1h0.2l0.2,0l0.2-0.1l0.2-0.1l0.2,0.1
		l0.2-0.1l0.2-0.1l0.2-0.1l0.2,0l0.2,0.1l0.2,0.1l0.2,0.1l0.1,0.2l0.1,0.2l0.2,0.1l0.2,0.1l0.2,0.1l0.2,0h0.2l0.1,0.2l0.2,0.1
		l0.2-0.1h0.2h0.2l0.2-0.1l0.2-0.2v-0.2l-0.1-0.2l-0.1-0.2l0-0.2v-0.2l0-0.2l0-0.2l0-0.2l0.1-0.2l0.2-0.2l0.2-0.1l0.2-0.1l0.1-0.2
		l0.1-0.2l0.2-0.1l0.2,0l0.2,0.1l0.2,0l0.2,0l0.2,0.1l0.2,0.1l0.2,0.2l0.2,0.2l0.2,0.2l0.2,0.1l0.2,0.1l0.2-0.2l0.2-0.1l0.2,0l0.2,0
		l0.2-0.1l0.2-0.1l0.2-0.2l0.1-0.2l0.1-0.2l0-0.2l0-0.2l0.1-0.2l0.2-0.2l0.2,0L454,62l0.2,0.1h0.2l0.2,0l0.2,0l0.1-0.2l0.1-0.2
		l-0.1-0.2l0-0.2l0.1-0.2l0.2-0.2l0.2-0.2l0.1-0.2l0.1-0.2V60l-0.1-0.2l-0.2-0.2l-0.2-0.2v-0.2V59l0.2-0.2l0.2-0.1l0.2-0.1l0.2-0.1
		l0.1-0.2V58l0.2-0.2l0.2-0.1l0.2,0l0.2,0l0.1-0.2l0.1-0.2l0-0.2l0-0.2l0-0.2l-0.1-0.2l-0.1-0.2l-0.1-0.2l-0.1-0.2v-0.2l0-0.2v-0.2
		L457,55l0-0.2l0.1-0.2l0.1-0.2l0.2-0.1l0.2,0.1l0.1,0.2l0.1,0.2l0.2,0.1l0.2-0.1l0.2-0.2l0.2,0l0.2,0.1l0.2,0l0.1-0.2l0.1-0.1
		l0.2,0l0.2-0.1h0.2l0.2,0.1l0.2,0.2l0.2,0.2h0.2l0.2-0.2l0.1-0.2l0.2,0l0.1,0.2l0.2,0.2l0.1,0.2l0.2,0.2l0.1,0.2l0.2,0.1l0.2,0.1
		l0.2,0.1l0.2,0.1L463,56l0.2,0.1l0.2,0.2l0.2,0.2l0.1,0.2l0.2,0.1l0.2,0.1l0.2,0l0.2,0.2l0.1,0.2l0.1,0.2l0.2,0.2l0.2,0.1l0.2,0.1
		l0.2,0.1l0.2,0.2l0.1,0.2l0.1,0.2l0.2,0.2l0.2,0.2l0.2,0.1l0.2,0.2l0.1,0.1l0.2,0.2l0.1,0.2l0.2,0.2l0.2,0.2l0.1,0.2l0.2,0.1
		l0.2,0.1l0.2,0.2l0.2,0.2l0.2,0.1l0.2,0.2l0.1,0.2l0.2,0.2l0.1,0.2l0.1,0.2l0.2,0.2l0.2,0.2l0.2,0.2l0.2,0.2l0.2,0.1l0.2,0.1
		l0.2,0.1l0.2,0.1l0.2,0.1l0.2,0.1l0.2,0.1l0.2,0.2l0.1,0.2l0.2,0.2l0.1,0.2l0.1,0.2l0.1,0.2l0.1,0.2l0.2,0.1l0.2,0.1l0.1,0.2
		l0.1,0.2l0.2,0.2l0.2,0.1l0.2-0.1l0.2-0.1l0.2-0.1l0.1,0.2l0,0.2l0,0.2L474,66l0,0.2v0.2l0.2,0l0.2,0.1l0.1,0.2l0,0.2l-0.1,0.2
		l0.1,0.2l0.2,0.2l0.2,0.1l0.1,0.2v0.2l0,0.2v0.2v0.2l-0.1,0.2l-0.1,0.2l0,0.2l-0.1,0.2l0,0.2l0,0.2l-0.2,0.2l-0.2,0.2l-0.1,0.2
		l-0.1,0.2l0,0.2l0.1,0.2l0.1,0.2l-0.2,0.1l-0.2,0h-0.2l-0.1,0.2l0.2,0.1l0.2,0.2l0,0.2l-0.2,0.1l-0.2,0.2l0.1,0.2l0.2,0.2l0,0.2
		l-0.2,0.2l-0.2,0.1l-0.2,0.2l0,0.2l0.1,0.2l-0.1,0.2l-0.1,0.2l-0.2,0.1l-0.1,0.2l0,0.2l0.1,0.2l0.1,0.2l0.1,0.2l0.1,0.2V76
		l-0.2,0.2l-0.1,0.2l0,0.2l0.1,0.2l0.1,0.2l0.1,0.2l0.1,0.2l0.1,0.2l0.1,0.2l0.1,0.2l0.1,0.2l0.1,0.2l0.1,0.2l0.1,0.2l0,0.2v0.2
		l-0.1,0.2l-0.1,0.2l-0.2,0.2l-0.2,0l-0.2,0l-0.2,0.1v0.2l-0.1,0.2l-0.2,0l-0.2-0.1h-0.2l-0.1,0.2l-0.1,0.2l0,0.2l0,0.2l-0.1,0.2
		l-0.2,0.2l-0.2,0.1l-0.2,0.1l-0.2,0.2v0.2l-0.1,0.2l-0.1,0.2l-0.2,0l-0.2,0l-0.2,0l-0.2,0.2l0,0.2l0.1,0.2l-0.1,0.2l-0.2,0l-0.2,0
		l-0.2,0.1l0,0.2l0.2,0.2l0.1,0.2l0,0.2v0.2l0.2,0l0.1,0.2l-0.1,0.2l-0.1,0.2l0.1,0.2l-0.2,0.3v0.2v0.2l-0.2,0.2l-0.2,0.1l-0.1,0.2
		l-0.1,0.2l0.1,0.2v0.2l-0.1,0.2l0,0.2l0.2,0.2l0.1,0.2v0.2l-0.2,0l0,0.2v0.2l-0.1,0.2l-0.2,0.1l-0.2,0.1l-0.2,0.1l0,0.2l0,0.2
		l-0.1,0.2l-0.2,0.1l-0.2,0.1l0,0.2l0.2,0.1l0.2,0.1l0,0.2l-0.2,0l-0.2,0.1l-0.1,0.2l-0.1,0.2l-0.2-0.2l-0.2-0.1l-0.2,0.1l-0.1,0.2
		v0.2l-0.2,0.2l0.1,0.2l0.2,0.2l0,0.2l0,0.2l0.2,0.1l0.2,0.1l-0.1,0.2l-0.2,0l-0.2,0.1l-0.1,0.2l0.1,0.2l0.2,0.1l0.2,0.1l0.2,0.2
		l0,0.2l-0.2,0.1l-0.2,0.1l-0.1,0.2l-0.1,0.2l0,0.2v0.2l-0.1,0.2l-0.2,0.1l-0.2,0l0,0.2l0.1,0.2l0.2,0.1l0.1,0.2V97l0,0.2l0.2,0.2
		l0.2,0.1l0.2,0.2l0.1,0.2l0.1,0.2l0.1,0.2l0,0.2l0,0.2L468,99l-0.2,0.1l-0.2,0l-0.2,0.2l0.1,0.2l0.2,0.2h0.2l0.2,0.2l0.1,0.2
		l0.1,0.2l0,0.2v0.2v0.2l0.2,0.2l0.1,0.2l0.1,0.2l0,0.2l0,0.2l0.1,0.2l0,0.2l0,0.2l0,0.2l0,0.2l0.1,0.2v0.2l0,0.2l0,0.2l0.1,0.2
		l0.1,0.2l0.2,0.1l0.2,0.2l0.1,0.2l0,0.2l0.1,0.2l0.1,0.2l0.1,0.2v0.2l-0.1,0.2l-0.1,0.2l0.1,0.2l0.1,0.2l0.1,0.2l-0.1,0.2l0,0.2
		l0.1,0.2l0.1,0.2l0.1,0.2l0.1,0.2l0.1,0.2l0,0.2l0,0.2l0.1,0.2l0.1,0.2l0.1,0.2l0.1,0.2v0.2l-0.1,0.2l-0.1,0.2l0.1,0.2l0,0.2v0.2
		l-0.1,0.2l-0.1,0.2l-0.2,0.2l-0.1,0.2l0,0.2v0.2v0.2l0,0.2l0,0.2l0.1,0.2l0,0.2l0,0.2v0.2l-0.1,0.2l-0.1,0.2l-0.1,0.2v0.2l0,0.2
		l0,0.2l-0.1,0.2l-0.1,0.2l-0.1,0.2l-0.2,0.2l-0.2,0.1l-0.2,0H469h-0.2l-0.2,0l-0.2-0.1l-0.2-0.1l0-0.2l-0.1-0.2l-0.2-0.1h-0.2
		l-0.2,0.1l-0.2,0.1l-0.2,0.1l-0.2,0.1l-0.2,0l-0.2-0.2l-0.2-0.1h-0.2l-0.2,0l-0.2,0.2l-0.2,0l-0.1,0.2l0,0.2l0,0.2l0,0.2l-0.1,0.2
		l-0.1,0.2l-0.2,0.2l-0.1,0.2l0,0.2l0.1,0.2l0.2,0.1l0.1,0.2l0.1,0.2l-0.1,0.2l-0.1,0.2l-0.1,0.2l-0.1,0.2l-0.1,0.2l-0.1,0.2
		l-0.1,0.2l-0.1,0.2v0.2l0,0.2l0,0.2l0,0.2l-0.1,0.2v0.2l0,0.2l0.1,0.2v0.2v0.2l-0.2,0.1l-0.2,0.1l0,0.2v0.2l0,0.2l0,0.2l0.1,0.2
		l0,0.2l-0.1,0.2l-0.1,0.2l-0.2,0.2l-0.2,0.2l-0.1,0.2l-0.1,0.2l0,0.2l0,0.2l0.2,0.2l0,0.2l0,0.2l-0.2,0.2l-0.1,0.2l-0.1,0.2l0,0.2
		l0,0.2l0.1,0.2l0.1,0.2l0.1,0.2l0,0.2l0,0.2v0.2l0,0.2l0.1,0.2l0,0.2l0,0.2l-0.1,0.2l0,0.2l0,0.2l0,0.2l0,0.2l-0.1,0.2l-0.1,0.2
		l-0.2,0.1h-0.2l-0.2,0.2l0,0.2l0,0.2l-0.1,0.2l0,0.2l0,0.2l0.1,0.2l0.2,0.2l0.2,0.2l0.2,0.1l0.2,0.2l0,0.2l0,0.2l0,0.2l-0.1,0.2
		L463,135l0,0.2l0,0.2l0,0.2v0.2v0.2l0,0.2l0,0.2l0.1,0.2l0.1,0.2l0.1,0.2l0.2,0.2l0.1,0.2l0,0.2l0.1,0.2l0.2,0.2l0.2,0.2l0.1,0.2
		l0.1,0.2l0,0.2v0.2l0,0.2l0.1,0.2l0.1,0.2l0.1,0.2l0.2,0.2l0.1,0.2l0.1,0.2l0.1,0.2v0.2l-0.1,0.2l-0.1,0.2v0.2l0,0.2l-0.1,0.2
		l-0.2,0.2l-0.1,0.2l-0.1,0.2l-0.1,0.2l0,0.2l-0.2,0.2l-0.2,0.1l-0.1,0.2l-0.1,0.2l-0.2,0.2l-0.2,0.1l-0.2,0.1l-0.3-0.2v-0.2l0-0.2
		l0-0.2l0.1-0.2l0.2-0.2l0.2-0.1l0.1-0.2l0-0.2l0-0.2l-0.1-0.2l-0.2-0.2l-0.2-0.1l-0.2-0.1l-0.1-0.2l0-0.2l0-0.2l0-0.2l-0.1-0.2
		l-0.1-0.2l-0.1-0.2l-0.1-0.2l-0.1-0.2l-0.1-0.2l-0.2-0.2l-0.2,0l-0.2-0.2l0-0.2l-0.1-0.2l-0.1-0.2l-0.2-0.2l-0.2-0.2l-0.1-0.2
		l-0.1-0.2l-0.1-0.2l0-0.2l0-0.2l0-0.2L460,137l-0.1-0.2l0-0.2l0-0.2V136l-0.1-0.2l-0.1-0.2l-0.1-0.2l0-0.2l0-0.2l-0.1-0.2l-0.1-0.2
		l-0.2-0.1l-0.2-0.1l-0.2,0l-0.2-0.1l-0.2-0.1l-0.2,0.2l-0.2,0.2l-0.2,0.2l-0.2,0.2l-0.2,0.2l-0.1,0.2l-0.2,0.2l-0.1,0.2l-0.1,0.2
		l-0.1,0.2l-0.2,0.2l-0.2,0.2l-0.2,0.2l-0.2,0.2l-0.2,0.1l-0.2,0.2l-0.2,0.2l-0.2,0.2l-0.2,0.2l-0.1,0.2l-0.1,0.2l-0.1,0.2l-0.1,0.2
		l0,0.2l0,0.2l-0.1,0.2l-0.1,0.2l-0.1,0.2l0,0.2l-0.1,0.2l-0.1,0.2l-0.1,0.2l-0.1,0.2l-0.1,0.2l-0.1,0.2l-0.2,0.2l-0.1,0.2l-0.1,0.2
		l-0.1,0.2l-0.1,0.2l-0.2,0.2l-0.2,0.2l-0.2,0.2l-0.2,0.2l-0.2,0.2l-0.2,0.2l-0.1,0.2l-0.1,0.2l-0.2,0.2l-0.1,0.2l-0.1,0.2l-0.1,0.2
		l-0.1,0.2l-0.1,0.2l0,0.2L451,145l-0.1,0.2l-0.1,0.2l-0.1,0.2l-0.1,0.2l-0.1,0.2l-0.1,0.2l-0.1,0.2l-0.1,0.2l-0.2,0.2l-0.1,0.2
		l-0.1,0.2l-0.1,0.2l-0.1,0.2l-0.1,0.2l-0.2,0.2l-0.2,0.2l-0.2,0.1l-0.2,0.2l-0.2,0.1l-0.2,0.2l-0.2,0.2l-0.1,0.2l-0.2,0.1l-0.2,0
		l-0.2,0.1l-0.2,0.1l-0.2,0.1l-0.2,0.1l-0.2,0.1l-0.2,0.2L446,150l-0.2,0.1l-0.2,0.1l-0.2,0.1l-0.2,0.1l-0.2,0.1l-0.2,0.1l-0.2,0.2
		l0,0.2l0,0.2l-0.1,0.2l-0.1,0.2l0,0.2l-0.1,0.2v0.2l0,0.2l-0.1,0.2l0,0.2l0,0.2l0,0.2l-0.1,0.2l0,0.2l-0.1,0.2l-0.1,0.2l-0.1,0.2
		l-0.1,0.2l-0.1,0.2l-0.1,0.2l-0.2,0.1l-0.2,0.2l-0.2,0.2l-0.2,0.2l-0.2,0.2l-0.2,0.1l-0.2,0.1l-0.2,0.1l-0.2,0.2l-0.2,0.2l-0.2,0.1
		l-0.2,0.1l-0.2,0.1l-0.2,0.1l-0.2,0.2l-0.2,0.2l-0.2,0.2l-0.2,0.2l-0.2,0.2l-0.2,0.1l-0.2,0.2l-0.2,0.1l-0.2,0.2l-0.2,0.1l-0.2,0.2
		l-0.2,0.1l-0.2,0.2l-0.2,0.2l-0.2,0.1l-0.2,0.2l-0.1,0.2l-0.1,0.2l-0.2,0.2l-0.1,0.2l-0.2,0.2l-0.1,0.2l-0.2,0.2l-0.2,0.2l-0.2,0.2
		l-0.2,0.2l-0.2,0.1l-0.2,0.1l-0.2,0.1l-0.2,0.1l-0.2,0.1l-0.2,0.1l-0.2,0.1l-0.2,0.2l-0.2,0.1l-0.1,0.2l-0.1,0.2l-0.1,0.2l-0.1,0.2
		l-0.1,0.2l-0.1,0.2l0,0.2l0,0.2l-0.1,0.2v0.2l0,0.2l0,0.2l0,0.2l-0.1,0.2l-0.1,0.2l0,0.2l-0.1,0.2l-0.1,0.2l-0.2,0.2l-0.2,0.2
		l-0.1,0.2l-0.2,0.2l-0.2,0.1l-0.2,0.2l-0.1,0.2l-0.1,0.2l-0.1,0.2l0.2,0.1l0.2,0.2l0.2,0.2l0.2,0.2l0.2,0.2l0.1,0.2l0.1,0.2
		l0.2,0.2l0.1,0.2l0.2,0.2l0.2,0.1l0.2,0.1l0.2,0.2l0.1,0.2l0.1,0.2l0.1,0.2l0.2,0.2l0.2,0.2l0.2,0.2l0.1,0.2l0.1,0.2l0.2,0.2
		l0.2,0.1l0.1,0.2l0.1,0.2l0.1,0.2l0.2,0.2l0.2,0.1l0.2,0.1l0.2,0.1l0.2,0l0.2,0.1h0.2l0.2,0h0.2l0.2,0h0.2l0.2,0l0.2,0l0.2,0.1
		l0.2,0.1l0.2,0l0.2,0.1l0.2,0.1l0.2,0.2l0.1,0.2l0,0.2l-0.1,0.2l-0.2,0.2l-0.2,0.2l-0.2,0.2l-0.1,0.2l0,0.2l0,0.2l0,0.2v0.2
		l0.1,0.2l0.2,0.1l0.1,0.2l0.2,0.2l0.2-0.1h0.2h0.2l0.2-0.2l0.2-0.1l0.2-0.1l0.2,0l0.1,0.2l0.1,0.2v0.2l0,0.2l0,0.2l0,0.2l0,0.2
		l0,0.2l0.1,0.2l0.1,0.2l0,0.2l0,0.2l0.1,0.2l0,0.2l0.2,0.2l0.2,0.2l0.2,0.2l0.2,0.1l0.2,0.1l0.2,0l0.2,0.1l0.2,0.2l0.1,0.2l0.1,0.2
		l0.1,0.2l0.1,0.2l0.1,0.2l0.2,0.2h0.2l0.2-0.1l0.2-0.1l0.2-0.1l0.2-0.1l0.2-0.1l0.2-0.2l0.2-0.1l0.2,0l0.2,0l0.2-0.1l0.1-0.2
		l0.1-0.2l0-0.2l0-0.2l0-0.2l0.1-0.2l0.1-0.2l0.1-0.2l0.1-0.2v-0.2l0-0.2v-0.2l0.1-0.2l0.2-0.1l0.2-0.1l0.2-0.1l0.2,0l0.2,0h0.2
		l0.2,0.2l0.2,0.2l0.2,0h0.2l0.2-0.2l0.1-0.2l0.1-0.2l0.1-0.2l0-0.2l0-0.2l-0.1-0.3v-0.2l-0.2-0.3L450,176l-0.2-0.2l-0.2-0.2l0-0.3
		l-0.1-0.2l0-0.3l0.1-0.2l0.2,0l0.2,0.1l0.1,0.1l0.2,0.2h0.3l0.2,0.1h0.2h0.3h0.2h0.3l0.2,0l0.2,0h0.2l0,0.3l0,0.2v0.2l0,0.2
		l-0.1,0.2l-0.1,0.2v0.2v0.2v0.2v0.2v0.2l0.1,0.2l0.2,0.1l0.2,0l0.2,0l0.2,0.1l0.2,0l0.2,0l0.1-0.2l0-0.2l0-0.2l-0.1-0.2l0-0.2
		l0-0.2l0-0.2l0.2-0.2l0.2,0l0.2,0.2l0.1,0.2v0.2l0.1,0.2l0.2,0.2l0.2,0.1l0,0.2l-0.2,0.1v0.2l0.2-0.1h0.2l0.1,0.2l0,0.2l0,0.2
		l0,0.2v0.2v0.2l0,0.2l0.1,0.2l0,0.2l0,0.2l0,0.2l0,0.2l-0.1,0.2l-0.1,0.2l-0.2,0.2l-0.2,0.1l-0.2,0l-0.2,0l-0.2,0l-0.2,0.1l-0.2,0
		l-0.2,0l-0.2,0l-0.2,0l-0.2,0.1l-0.2,0l-0.2,0.1l-0.2,0l-0.2,0.1l-0.2,0.1l-0.2,0.1l-0.2,0.1l-0.2,0.1l-0.2,0.1l-0.2,0.1l-0.2,0.1
		l-0.2,0.1l-0.1,0.2l0,0.2l0.1,0.2l0,0.2l0,0.2l-0.1,0.2l-0.2,0.2l-0.2,0.2l-0.2,0.1l-0.2,0l-0.2-0.1l-0.2-0.1l-0.2-0.1l-0.2,0h-0.2
		h-0.2l-0.2,0.1l-0.2,0.1l-0.2,0.1l-0.2,0l-0.2-0.2l-0.2-0.1h-0.2l-0.1,0.2l0,0.2l0.2,0.2l0.2,0.2v0.2l-0.2,0.1l-0.2,0.1l-0.2,0
		l-0.1,0.2l0,0.2l0,0.2l0,0.2l0,0.2l-0.1,0.2l-0.1,0.2l0,0.2l0.1,0.2l0.1,0.2l0.1,0.2l0,0.2l0,0.2v0.2v0.2l0.1,0.2l0.2,0.2l0.2,0.2
		l0.2,0.1l0.2,0.1l0.2,0.2l0.2,0.2l0.1,0.2l0.2,0.1l0.2,0.2l0.1,0.2l0.2,0.2l0.2,0.2l0.2,0.1l0.2,0.2l0.1,0.2l0.2,0.2l0.1,0.2
		l0.2,0.2l0.2,0.2l0.2,0.2l0.1,0.2l0.2,0.2L449.4,193.2L449.4,193.2"/>
</g>
</svg>
