<?xml version="1.0" encoding="utf-8"?>
<!-- Generator: Adobe Illustrator 27.0.0, SVG Export Plug-In . SVG Version: 6.00 Build 0)  -->
<svg version="1.1" id="Layer_1" xmlns="http://www.w3.org/2000/svg" xmlns:xlink="http://www.w3.org/1999/xlink" x="0px" y="0px"
	 viewBox="0 0 500 500" style="enable-background:new 0 0 500 500;" xml:space="preserve">
<style type="text/css">
	.st0{fill:#E74646;stroke:#FFFFFF;stroke-width:4.6041;stroke-linecap:square;stroke-linejoin:bevel;stroke-miterlimit:3.998;}
</style>
<g transform="matrix(0.999751,0,0,0.999751,18.6633,21.7738)">
	<path vector-effect="none" class="st0" d="M391.8,35l0.4,0.7l0.3,0.7l-0.1,0.9l-0.3,0.7l-0.3,0.9l-0.3,0.7l-0.3,0.7l-0.3,0.9
		l-0.1,0.7l0.3,0.9v0.7l-0.6,0.7l-0.7,0.3l-0.9,0.1l-0.9-0.1h-0.9l-0.7-0.3l-0.9-0.1l-0.9,0.1l-0.7,0.3l-0.7,0.4l-0.1,0.6l0.4,0.6
		l0.3,0.7l0.4,0.9l0.1,0.9l-0.3,0.7l-0.3,0.9l-0.4,0.6l-0.7,0.4l-0.7,0.4l-0.4,0.7v0.9V54l0.1,0.9l0.1,0.9v0.9v0.9l0.1,0.9l0.4,0.7
		l0.7,0.4l0.9,0.3l-0.1,0.7l-0.7,0.4l-0.1,0.7l0.1,0.9l0.6,0.6l0.7,0.6l0.3,0.7v0.9v0.9l0.3,0.7l0.3,0.7l0.7,0.7l0.4,0.6l0.3,0.9
		v0.7l1,0.1h0.9l0.9,0.1l0.7,0.3l0.9-0.1l0.7-0.4l0.9,0.1l0.7,0.4l0.6,0.6l0.6,0.6l0.7,0.4l0.7,0.6l0.4,0.7l0.3,0.7l-0.7,0.6
		l-0.6,0.6l-0.4,0.7l0.3,0.7l0.9-0.1l0.6-0.4l0.9-0.3l0.7-0.4h0.3l0.6-0.1l0.9-0.6l0.6,0.9l0.6,0.7l0.4,0.6l0.3,0.9l0.3,0.7l0.3,0.9
		l0.4,0.7l0.1,0.7l-0.1,0.9l0.7,1l0.7,0.4l0.7,0.3l0.9,0.1l0.9,0.1l0.7,0.3l0.6,0.7l0.6,0.6l0.6,0.6l0.9,1v0.9l0.1,0.9l0.4,0.7v0.9
		l0.3,0.7l0.1,0.9l0.1,0.9l0.4,0.7l0.3,0.7l0.9,0.4l0.7,0.3l0.4,0.7v0.7l-0.3,0.9l-0.1,0.7l0.1,0.9l0.4,0.7l0.3,0.7l0.1,0.9
		l-0.1,0.9l-0.3,0.7l-0.3,0.9l-0.3,0.7l-0.1,0.9l0.3,0.9l0.3,0.7l0.4,0.7l0.3,0.7v0.9l0.6,0.6l0.1,0.9l-0.1,0.9l0.1,0.9l0.7,0.3
		l0.7,0.1l0.9,0.3l0.6,0.6v0.9l-0.3,0.7l-0.3,0.7l-0.3,0.9l-0.3,0.7l-0.1,0.9v0.9l0.1,0.9l0.4,0.7l0.4,0.6l0.4,0.7l0.6,0.6l0.6,0.7
		l0.3,0.7l0.3,0.7l0.3,0.9l-0.4,0.7l-0.3,0.7l-0.7,0.6l-0.6,0.4l-0.7,0.6l-0.6,0.6l-0.4,0.4h-0.9l-0.7,0.3l-0.9,0.4l-0.7,0.3
		l-0.6,0.6l-0.7,0.4l-0.7,0.4l-0.6,0.4l-0.7,0.4l-0.7,0.6l-0.4,0.7l-0.1,0.9l0.1,0.9v0.9l0.3,0.9l0.6,0.4h0.9l0.7,0.3l0.7,0.4v0.9
		l-0.3,0.7l-0.3,0.7l-0.1,0.9l0.3,0.9l0.3,0.7l0.1,0.9l-0.1,0.7l-0.4,0.7l-0.4,0.7l-0.7,0.4l-0.9,0.1l-0.9,0.1H408l-0.9,0.1
		l-0.9,0.1l-0.9,0.1l-0.9,0.1l-0.7,0.3l-0.3,0.4l-0.7,0.1l-0.6,0.6l-0.7,0.4l-0.7,0.4h-0.6l-0.9,0.1l-0.7,0.1h-0.9h-0.9l-0.9,0.1
		l-0.9,0.3l-0.6,0.6l-0.3,0.7l-0.3,0.9l-0.1,0.7l-0.1,0.9v0.9l-0.9,0.1L392,156l-0.3,0.4v0.9l-0.4,0.9l-0.7,0.4L390,158l-0.7-0.4
		l-0.9-0.1l-0.9-0.1l-0.7-0.1h-0.9l-0.7,0.3v0.9l-0.7,0.3l-0.6,0.7l-0.6,0.4l-0.9,0.3l-0.7-0.3l-0.7-0.3l-0.9-0.1l-0.7,0.6l-0.6,0.4
		l-0.7,0.6l-0.7,0.4l-0.7,0.3l-0.7,0.3l-0.7,0.4l-0.9,0.3l-0.7,0.3l-0.7,0.4l-0.6,0.4l-0.7,0.6l-0.7,0.4l-0.6,0.6l-0.6,0.6l-0.6,0.7
		l-0.3,0.7l-0.3,0.9l-0.1,0.7v0.9l-0.3,0.9l-0.1,0.7l-0.3,0.9l-0.6,0.6l-0.4,0.7l-0.6,0.7h-0.7l-0.7-0.4l-0.7-0.3l-0.7-0.4l-0.9-0.3
		l-0.9,0.1l-0.7-0.7l-0.7-0.4l-0.7-0.4l-0.7-0.3l-0.7-0.4l-0.7-0.4l-0.7-0.6l-0.6-0.6l-0.7-0.6l-0.4-0.7l-0.3-0.7l-0.4-0.7l-0.6-0.6
		l-0.1-0.9v-0.9l-0.4-0.7l-0.7-0.4l-0.7-0.6l-0.4-0.6l-0.6-0.7l-0.7-0.4l-0.7-0.3h-0.9l-0.4,0.7l-0.3,0.7l-0.6,0.7l-0.4,0.7
		l-0.7,0.4l-0.7,0.1l-0.9,0.1l-0.9,0.1l-0.6,0.6l-0.7,0.6l-0.3,0.7l-0.6,0.6l-0.6,0.7l-0.4,0.7l-0.7,0.3l-0.7,0.4l-0.9,0.1l-0.7,0.3
		l-0.4,0.7l-0.3,0.9l-0.4,0.6l-0.9,0.3l-0.6-0.4l-0.3-0.9l-0.4-0.6L333,170l-0.7,0.4l-0.7,0.3l-0.9,0.1h-0.4l-0.3,0.7l0.4,0.7
		l0.6,0.7l0.6,0.6l0.1,0.9v0.9v0.9l0.1,0.9l0.1,0.9v0.9l-0.1,0.7l-0.6,0.7l-0.7-0.1l-0.7,0.3v0.9v0.9l-0.4,0.7l-0.6,0.6l-0.7,0.6
		l-0.6,0.4l-0.9,0.1l-0.9-0.1l-0.7,0.3l-0.4,0.7l0.1,0.9l-0.3,0.9l-0.7,0.3h-0.9l-0.9,0.1h-0.9h-0.9l-0.9-0.1h-0.9L318,188l-0.3,0.7
		v0.9l0.1,0.9v0.9l-0.4,0.6h-0.9l-0.6-0.4l-0.4-0.9l-0.4-0.6l-0.6-0.7l-0.7-0.3l-0.9,0.1l-0.6,0.4l-0.7,0.6l-0.6,0.6l-0.4,0.7
		l-0.1,0.9v0.9l0.1,0.7l0.9,0.3l0.6-0.4l0.9,0.3v0.7l-0.1,0.9l0.1,0.9l-0.6,0.6l-0.6,0.7l0.6,1l0.6,0.6h0.9l0.7-0.3l0.7-0.3l0.7-0.6
		l0.7,0.1l0.1,0.7l0.3,0.9l0.3,0.7l0.3,0.7l0.1,0.9l0.1,0.9l0.1,0.9l0.3,0.7l0.1,0.9l0.3,0.9l0.3,0.7l0.4,0.7l0.4,0.6l0.4,0.7
		l0.4,0.7v0.9l-0.4,0.7l-0.6,0.6l-0.3,0.7l-0.1,0.9l-0.3,0.9l-0.1,0.7l-0.1,0.9v0.9l0.3,0.7l0.6,0.6l0.6,0.6l0.7,0.4l0.7,0.4
		l0.4,0.7l0.6,0.7h0.7l0.7,0.6l-0.4,0.9l-0.3,0.7l-0.3,0.7l-0.3,0.9l-0.3,0.7l-0.4,0.7l-0.4,0.7l-0.4,0.7l-0.4,0.7l-0.6,0.6
		l-0.6,0.6l-0.6,0.6l-0.6,0.6l-0.6,0.6l-0.7,0.6l-0.6,0.7l-0.4,0.7L316,234l-0.3,0.7v0.9v0.9l0.3,0.9l0.1,0.9l-0.3,1l-0.7,0.1
		l-0.7,0.4l-0.7,0.3l-0.7,0.4l-0.7,0.4l-0.6,0.4l-0.7,0.6l-0.7,0.3l-0.7,0.6l-0.4,0.6l-0.3,0.9l-0.1,0.7l-0.3,0.7l-0.7,0.6h-0.7
		l-0.6-0.6l-0.7-0.4l-0.7,0.1l-0.7,0.4l-0.7,0.3l-0.9,0.3l-0.9,0.1l-0.7,0.1l-0.6,0.6l-0.6,0.7l-0.7-0.1l-0.7-0.4l-0.7-0.1h-0.9
		l-0.7,0.4l-0.7,0.4l-0.7,0.6l-0.3,0.7l-0.6,0.6l-0.7,0.3l-0.7-0.3l-0.7-0.3l-0.9-0.3l-0.9,0.4l-0.7,0.3l-0.7,0.3l-0.7,0.4l-0.7,0.4
		l-0.4,0.7l-0.3,0.7l-0.4,0.7l-0.4,0.7l-0.4,0.7l-0.6,0.7l-0.7,0.4l-0.4,0.7l-0.4,0.7l-0.4,0.7l-0.3,0.9l-0.3,0.7l-0.4,0.7l-0.6,0.6
		l-0.7,0.6l-0.6,0.6l-0.7,0.7l-0.4,0.7l-0.3,0.9l-0.1,0.7l-0.1,0.9l0.1,0.9l0.1,0.9l0.3,0.7v0.9l-0.1,0.9L278,271l-0.4,0.7l-0.3,0.9
		l-0.4,0.7l-0.4,0.7l-0.3,0.7l-0.4,0.7l0.1,0.9l0.4,0.7l0.6,0.6l0.6,0.6l0.6,0.7l0.6,0.6l0.7,0.4l0.6,0.7l0.1,1.2l-0.3,0.7l-0.1,0.9
		v0.9l-0.1,0.7l-0.1,0.9l-0.1,0.9l-0.3,0.9l0.4,0.6l0.4,0.7l0.4,0.7l0.4,0.7l0.6,0.6l0.4,0.7l0.3,0.7l0.4,0.7l0.3,0.7l0.6,0.7
		l0.7,0.4l0.7,0.3l0.9-0.3h0.7l0.3,0.9l-0.4,0.7l-0.6,0.6l-0.4,0.7l-0.4,0.7l-0.3,0.7l-0.3,0.9l-0.1,0.7l0.3,0.9l0.3,0.9l-0.3,0.7
		l-0.6,0.6l-0.7,0.3l-0.9,0.1l-0.7-0.6l-0.6-0.6l-0.7-0.3l-0.7-0.3l-0.9-0.1h-0.9l-0.7,0.1l-0.6,0.6l-0.4,0.7l-0.3,0.7l-0.4,0.7
		l-0.6,0.7l-0.4,0.7l-0.4,0.7l-0.6,0.4l-0.7,0.4l-0.6,0.7l-0.4,0.7l-0.3,0.7l-0.4,0.7l-0.6,0.6l-0.4,0.7l-0.3,0.7l-0.3,0.9l-0.3,0.7
		l-0.4,0.7l-0.1,0.9v0.7v1v0.7v0.9v0.9v0.9l0.6,0.6l0.9,0.1l0.6,0.6l0.7,0.3l0.7-0.4l0.7-0.4l0.7-0.1l0.9,0.1l0.3,0.7l0.4,0.7
		l0.7,0.6l0.6,0.6l0.1,0.7l-0.1,0.9l-0.4,0.7l-0.4,0.7l-0.4,0.7l-0.6,0.6l-0.7,0.3l-0.7,0.4l-0.4,0.7l-0.7,0.6l-0.6,0.6l-0.6,0.7
		l-0.6,0.6l-0.7,1.2l-0.6,0.6l-0.6,0.7l-0.6,0.6l-0.4,0.7l-0.4,0.6l-0.9,0.1l-0.4,0.7v0.7l-0.3,0.9l-0.4,0.7h-0.7l-0.4-0.1l-0.9,0.7
		l-0.6,0.7l-0.6,0.6l-0.6,0.7l-0.6,0.6l-0.6,0.6l-0.7,0.4l-0.9,0.1l-0.7,0.3l-0.9,0.1l-0.7,0.3l-0.9,0.3l-0.7,0.1l-0.7,0.3l-0.9,0.1
		l-0.7,0.4l-0.6,0.6l-0.7,0.6l-0.6,0.6l-0.7,0.4l-0.7,0.4l-0.4,0.7l-0.3,0.7v0.9l0.4,0.9l0.4,0.6l0.6,0.7l0.6,0.6l0.3,0.7l0.6,0.7
		l0.4,0.6l0.4,0.7l0.1,0.9v0.9l-0.7,0.3l-0.7-0.3l-0.6-0.6l-0.7-0.4l-0.6,0.6l-0.6,0.6l-0.6,0.7l-0.1,0.7l-0.1,0.9l-0.1,0.9v0.7
		l-0.4,0.7l-0.9,0.4l-0.7,0.1l-0.9,0.3l-0.4,0.6l-0.3,0.7v0.9v0.9v0.7l-0.3,0.9l-0.6,0.6l-0.4,0.7l-0.3,0.7l-0.1,0.9l0.3,0.7
		l0.3,0.7l0.4,0.7l0.3,0.7l0.1,0.9l0.1,0.9l-0.4,0.7l-0.7,0.1l-0.9-0.1l-0.9-0.3l-0.7,0.1l-0.3,0.7l-0.9,1l0.3,0.6l0.3,1.3l-0.3,1.2
		l0.3,0.9l0.4,0.9l0.3,0.7l-0.7,0.3l-0.6,0.6l0.3,0.7l0.6,0.6l0.7,0.4l0.4,0.6v0.9l-0.6,0.7l-0.6,0.3l-0.7,0.3l-0.1,0.9l-0.1,0.9
		l0.1,0.9l-0.1,0.9v0.9v0.7l0.1,0.9l0.3,0.7l0.3,0.7l0.4,0.7l0.1,0.9l0.1,0.7l-0.4,0.7l-0.7,0.3l-0.7,0.3l-0.6,0.6l-0.4,0.7L236,402
		l-0.6,0.6l-0.3,0.7l-0.1,0.9l-0.6,0.6l-0.7,0.4l-0.6,0.6l-0.7,0.4l-0.7,0.3l-0.7,0.3h-0.9l-0.7,0.1l-0.4,0.7v0.9l0.3,1.2l0.3,0.9
		v0.9v0.9l0.7,0.3l0.9,0.3l0.3,0.7l-0.1,0.7l-0.3,0.7v0.9l0.3,0.9l0.4,0.6l0.7,0.4l0.7,0.6l0.6,0.6l0.4,0.7l0.6,0.6l0.4,0.7
		l-0.3,0.7l-0.7,0.4l-0.7,0.3h-0.9l-0.7,0.3l-0.6,0.6l-0.3,0.7l0.3,0.9l0.4,0.6l0.7,0.6l0.4,0.6l0.4,0.7l-0.1,0.7l-0.6,0.3l-0.7-0.3
		l-0.9-0.1l-0.6,0.6l0.1,0.7l0.6,0.6l0.4,0.7l0.3,1l-0.1,0.7l0.1,0.9l0.6,0.6l0.4,0.7l0.3,0.7v0.9l-0.7,0.3l-0.7,0.3l-0.7-0.4
		l-0.4-0.7l-0.4-0.7l-0.7-0.3l-0.7-0.1l-0.9,0.1l-0.7,0.3l-0.6,0.6l-0.4,0.7l-0.1,0.9l-0.1,0.7l-0.6,0.6l-0.6,0.6v0.9v0.9l-0.3,0.7
		l-0.4,0.7l-0.4,0.7l-0.3,0.7v0.9l0.4,0.7l0.4,0.7l-0.4,0.7l-0.6,0.7l-0.3,0.7l0.1,0.9l0.6,0.7l0.3,0.6l0.6,0.7l0.9,0.3h0.7l0.9,0.3
		l0.4,0.7v0.9l-0.4,0.4h-0.9l-0.7-0.6l-0.9,0.1l-0.6,0.7l-0.1,0.7l0.4,0.7l0.4,0.7l0.1,0.7v0.9l0.7,0.6l0.7,0.4l0.6,0.6l0.6,0.6
		l0.7,0.6l0.7,0.6l0.4,0.6l0.6,0.7l0.1,0.7l-0.4,0.7l-0.7,0.4l-0.9-0.1l-0.7,0.3l-0.7,0.4l-0.9,0.1l-0.7-0.1l-0.9,0.3l-0.7,0.3
		l-0.9,0.1l-0.4,0.7v0.4l-0.7-0.1l-0.9-0.3l-0.7-0.3l-0.6-0.6l-0.7-0.6l-0.4-0.7l-0.3-0.7l-0.3-0.9l-0.3-0.7l-0.7-0.6l-0.6-0.4
		l-0.9-0.3l-0.7-0.3l-0.7-0.3l-0.7-0.3l-0.9-0.3h-0.9l-0.9,0.1l-0.7,0.1l-0.9-0.3l-0.6-0.4l-0.6-0.6l-0.6-0.9v-0.9l-0.1-0.7
		l-0.3-0.7l-0.4-0.7l-0.4-0.7l-0.6-0.6l-0.6-0.7l-0.7-0.4l-0.7-0.4l-0.7-0.4l-0.6-0.6l-0.6-0.6l-0.4-0.7l-0.4-0.7l-0.6-0.4l-0.9-0.4
		H198l-0.9-0.3l-0.7-0.3l-0.7-0.3l-0.7-0.3l-0.9,0.1l-0.9,0.1l-0.7,0.1h-0.9l-0.3,0.9v0.9l0.3,0.7l-0.4,0.7l-0.7-0.3l-0.7-0.4
		l-0.7-0.3l-0.9,0.1l-0.9,0.1h-0.9l-0.7-0.1l-0.7-0.4h-0.9l-0.4,0.7l-0.1,0.9l-0.6,0.6l-0.7,0.3l-0.9,0.3l-0.7,0.3l-0.7,0.1
		l-0.9,0.4l-0.4,0.6l-1.2,0.4l-0.7,0.3l-0.6,0.6l-0.4,0.7l-0.7,0.3l-0.9,0.1h-0.9l-0.4,0.6l-0.7,0.4l-0.7-0.1l-0.6-0.6l-0.7-0.4
		h-0.9l-0.7-0.4l-0.4-0.7l-0.9-0.3h-0.7l-0.7,0.4l-0.6,0.7l-0.3,0.7l-0.6,0.6h-0.9l-0.9-0.1l-0.7,0.3l-0.7,0.3l-0.7,0.4l-0.7,0.4
		l-0.7,0.3l-0.7,0.4h-0.7l-0.7-0.4l-0.9-0.1l-0.6,0.6l-0.1,0.9v0.7l-0.3,0.9l-0.1,0.7l-0.1,0.9l-0.3,0.7l-0.3,0.7l-0.4,0.7l-0.4,0.7
		l-0.6,0.4h-0.9l-0.4-0.7l-0.3-0.7l-0.9-0.3l-0.7,0.1l-0.9,0.1l-0.4-0.7l-0.6-0.7h-0.9H146h-0.7h-0.9l-0.9-0.3l-0.7-0.3l-0.7,0.4
		l-0.3,0.9l0.1,0.9l0.1,0.7l0.1,0.9L142,466l-0.6,0.6l-0.4,0.7l-0.4,0.7l-0.4,0.6l-0.7-0.4l-0.7-0.4l-0.4-0.7l-0.1-0.9l-0.6-0.6
		l-0.6-0.7l-0.7-0.1h-0.9l-0.9,0.3l-0.6,0.6l-0.7,0.3l-0.7,0.4l-0.6,0.6l-0.6,0.6l-0.7,0.4l-0.9,0.1H129l-0.9,0.3l-0.7,0.3l-0.6-0.6
		l-0.7-0.1l-0.7,0.1l-0.7,0.3l-0.7,0.6l-0.7,0.4l-0.7,0.4l-0.6,0.6l-0.6,0.6l-0.6,0.6l-0.7,0.4l-0.7,0.4l-0.7,0.3H118l-0.7-0.6
		l-0.7-0.4l-0.1-0.9v-0.9l-0.7-0.4l-0.3-0.7l0.1-0.9V467l-0.3-0.9l-0.9-0.1h-0.9l-0.7-0.4l-0.7-0.4l-0.9,0.1l-0.7,0.3l-0.7,0.1
		l-0.9,0.3l-0.4,0.6l-0.6,0.9L106,466l-2.9-2l-3.5-1.6l-2.6-1.3l-0.3-1.2l0.6-0.6l0.1-0.9v-0.9l0.4-0.7l0.6-0.6l0.7-0.1l0.9-0.1h0.9
		h0.9l0.9-0.1l0.7-0.4l0.6-0.4l0.7-0.4l0.7-0.4l0.6-0.6l0.4-0.7l0.7-0.6l0.7-0.3l0.7-0.4l0.7-0.3l0.6-0.6l0.6-0.7l0.4-0.7l0.1-0.7
		v-0.9l0.1-0.9L111,446l0.3-0.9l0.3-0.7l0.4-0.7l0.4-0.7l0.4-0.6l0.4-0.7l0.6-0.7l0.6-0.6l0.3-0.7l0.1-0.9l-0.1-0.9l-0.1-0.9
		l-0.1-0.7v-0.9l0.1-0.9l0.3-0.7l0.4-0.7l1-0.6l0.6-0.6l0.6-0.6l0.4-0.7l0.7-0.6l0.7-0.4l0.6-0.6l0.7-0.4h0.7l0.9-0.3l0.7-0.3
		l0.6-0.6l0.3-0.9l0.4-0.6l0.9,0.1l0.4-0.6v-0.9V424l0.6-0.6l0.4-0.7l0.3-0.7l0.3-0.7l0.9-0.3l0.7,0.1l0.7,0.6l0.7,0.3h0.7l0.9-0.3
		h0.7h0.9l0.7-0.3l0.7-0.4l0.6-0.7l0.3-0.7l0.4-0.7l0.6-0.4l0.9-0.3l0.7,0.1h0.9l0.7-0.3l0.6-0.6l0.6-0.7v-0.6l-0.3-0.7l-0.4-0.7
		l-0.6-0.7l-0.7-0.4l-0.9-0.1l-0.7-0.3l-0.6-0.6l0.4-0.7l0.4-0.7l0.1-0.9l-0.1-0.9l0.6-0.4l0.9-0.3l0.7-0.3l0.6-0.6l0.3-0.7l0.1-0.9
		l0.1-0.9l-0.3-0.7l-0.6-0.6l-0.7-0.3l-0.6-0.6l0.4-0.7l-0.1-0.9l-0.6-0.6l-0.7-0.3H137l-0.9,0.1h-0.9l-0.6-0.6l-0.9-0.1h-0.7
		l-0.9-0.3l-0.3-0.7l-0.6-0.6l-0.7-0.6l-0.3-0.7l-0.6-0.6l-0.4-0.7l-0.3-0.7l-0.6-0.4h-0.9l-0.3-0.9l-0.3-0.7l-0.7,0.1l-0.7-0.4
		l-0.9-0.1l-0.7,0.4v0.9l-0.7,0.1l-0.9-0.1l-0.3,0.9l-0.6,0.6l-0.7,0.3l-0.9,0.1h-0.9l-0.7-0.3l-0.7,0.1l-0.7,0.6l-0.6,0.6l-0.3,0.7
		v0.9l-0.3,0.7l-0.6,0.6l-0.7,0.4l-0.6,0.6l-0.6,0.7l-0.7,0.4l-0.7-0.3l-0.7-0.3l-0.7-0.3h-0.9h-0.9l-0.7-0.3l-0.9,0.1l-0.4,0.6
		l0.1,0.9v0.7l-0.4,0.7l-0.7,0.3l-0.9,0.3l-0.7,0.3l-0.7,0.3h-0.9l-0.9,0.1l-0.7,0.3l-0.6-0.7l-0.7-0.3L99,404l-0.7-0.4l-0.7-0.1
		l-0.9-0.1l-0.7-0.3l-0.9-0.1l-0.7-0.1l-0.9-0.3h-0.7l-0.9,0.1l-0.7,0.4l-0.6,0.4l-0.7,0.6l-0.6,0.6l-0.6,0.7l-0.6,0.4l-0.7,0.6
		l-0.7,0.4l-0.6,0.4l-0.7,0.4l-0.9-0.3l-0.6-0.6l-0.3-0.7v-0.9l0.3-0.7l0.3-0.9l0.3-0.7l0.3-0.7l0.1-0.9l0.1-0.7l-0.3-0.9l-0.9-0.1
		l-0.7,0.3l-0.7,0.1l-0.4-0.7l-0.1-0.9l0.1-0.6l-0.3-0.4l-0.9-0.3l-0.6-0.1l-0.6-0.4l-0.6-0.9l-0.3-1.2l0.3-0.9l0.1-0.9l-0.1-0.9
		v-0.7l-0.1-0.9l-0.3-0.9l-0.6-1.4l-0.3-0.7l-0.1-0.9l-0.1-0.7l0.1-0.9l0.1-0.9l0.4-0.7l0.6-0.6l0.6-0.6l0.4-0.7v-0.9v-0.9v-0.9
		l-0.1-0.7l-0.1-0.9l-0.3-0.7l-0.7-0.6l-0.7-0.4l-0.6-0.4l-0.6-0.7l-0.4-0.7l-0.4-0.7l-0.3-0.7l-0.3-0.7l-0.3-0.7l-0.4-0.7l-0.3-0.7
		l-0.3-0.9l-0.1-0.7l-0.3-0.9V366l0.1-0.7l0.7-0.6l0.6-0.6l0.6-0.7l0.4-0.6l0.6-0.7l0.3-0.7l0.3-0.7l0.1-0.9l0.1-0.9l0.3-0.7v-0.9
		l0.3-0.7l0.6-0.7l0.6-0.6l0.7-0.6l0.7-0.4l0.9-0.3l0.3-0.4l0.3-0.7l0.3-0.9l0.6-0.6l0.6-0.7l0.6-0.4v-0.9l-0.1-0.7l-0.1-0.9
		l-0.3-0.7l-0.4-0.7l-0.1-0.7v-0.9l-0.4-0.7l-0.4-0.7l-0.4-0.7v-0.9l0.1-0.9l0.1-0.9l0.3-0.7l0.3-0.7l0.4-0.7l0.3-0.7l0.1-0.9
		l0.4-0.6l0.9-0.3l0.9,0.1l0.7,0.3l0.7,0.4l0.9-0.1l0.7-0.3l0.7-0.6l0.3-0.7L89,334v-0.7l0.7-0.3l0.7-0.3l0.9-0.3l0.7-0.1l0.9-0.3
		l0.7-0.3l0.7-0.3l0.7-0.3l0.7-0.3l0.7-0.4l0.7-0.4l0.1-0.9l-0.1-0.9l0.1-0.7l0.4-0.7L98,326l-0.3-0.7l-0.6-0.6l-0.7-0.4l-0.9-0.3
		l-0.7-0.1l-0.9,0.1l-0.9,0.1l-0.7,0.1l-0.7,0.3l-0.9,0.3L90,325l-0.7,0.3l-0.7,0.6l-0.6,0.6l-0.4,0.7l-0.6,0.4l-0.9,0.3l-0.7,0.3
		l-0.7-0.6l-0.3-0.7l-0.6-0.6H83l-0.9,0.3l-0.7,0.1h-0.9l-0.4,0.9l-0.6,1l-0.6,0.6l-0.6,0.6l-0.7,0.6l-0.9,0.1l-0.6-0.6l-0.6-0.7
		l-0.3-0.4l0.4-0.6l0.4-0.7l0.4-0.6l0.4-0.7l0.3-0.7l0.3-0.9l0.1-0.7l0.1-0.9l0.3-0.7l0.6-0.7l0.7-0.3l0.9-0.3l0.7-0.3l0.6-0.7
		l0.1-0.7l0.1-0.9v-0.9l0.3-0.7l0.4-0.7l0.1-0.7l-0.3-0.9l-0.4-0.6L82,313l0.3-0.7l0.3-0.9v-0.7l0.3-0.9l0.6-0.6l0.4-0.7l0.6-0.7
		l0.6-0.6l0.6-0.9v-0.9l0.4-0.7l0.4-0.7l0.4-0.7l0.4-0.7l-0.3-0.7l-0.7-0.3l-0.6-0.6l-0.1-0.9l0.1-0.9l0.3-0.7l0.1-0.9l0.3-0.7
		l0.3-0.7l0.1-0.9l0.3-0.7l0.3-0.7l0.3-0.7l0.3-0.9l0.3-0.7l-0.9-0.1l-0.9,0.1l-0.9,0.1l-0.9,0.1h-0.7h-0.9l-0.7-0.1l-0.6-0.3
		l-0.7-0.4l-0.6-0.6l-0.6-0.7l-0.7-0.1h-1h-0.7h-0.9l-0.9-0.1l-0.7,0.3l-0.9,0.3h-0.7l-0.9-0.1l-0.7-0.3l-0.7-0.4l-0.6-0.7l-0.6-0.6
		l-0.6-0.7l-0.6-0.6l-1,0.1v-1V285v-0.9l-0.1-0.9l-0.1-0.7l-0.1-0.9l-0.3-0.7l-0.4-0.7l-0.1-0.9v-0.9l0.1-0.7l0.1-0.9l0.1-0.9
		l-0.6-0.4l-0.4-0.6v-0.9v-0.9v-0.9l0.4-0.7l0.7-0.6l0.3-0.7l0.3-0.7l0.3-0.9l0.6-0.6l0.6-0.7l0.3-0.7l0.1-0.9l0.3-0.7l0.3-0.7
		l-0.1-0.9l0.3-0.9l0.3-0.7l0.6-0.6l0.3-0.9l-0.1-0.9l-0.7-0.1l-0.7-0.4l-0.7-0.4l-0.7-0.6l-0.4-0.6l-0.3-0.9l-0.4-0.6l-0.6-0.7
		l-0.7-0.3l-0.9-0.3l-0.6-0.6l-0.6-0.7l-0.3-0.7l-0.3-0.7l-0.4-0.7l-0.3-0.7l-0.3-0.7l-0.3-0.9l-0.7-0.3l-0.7,0.3l-0.9,0.3l-0.1-0.7
		l0.1-0.9l0.6-0.7l0.4-0.6v-0.9l-0.4-0.6l0.6-0.9l0.6-0.7l0.3-0.6l0.4-0.7l0.3-0.9l0.4-0.7l0.3-0.7l0.3-0.7l0.4-0.7l0.3-0.7l0.4-0.7
		l0.4-0.7l0.3-0.7l0.4-0.7l0.3-0.7l0.4-0.7l0.1-0.9v-0.7l-0.6-0.7l-0.1-0.9l0.1-0.7l0.3-0.7l0.1-0.9l0.1-0.9v-0.9v-0.9l-0.1-0.9
		l-0.4-0.7l-0.7,0.1l-0.9,0.3l-0.6,0.6l-0.4,0.6l-0.7,0.4l-0.9,0.3l-0.7,0.1h-0.9h-0.9l-0.9,0.1l-0.6,0.6l-0.7,0.3l-0.9,0.1
		l-0.7-0.1h-0.9l-0.7,0.6l-0.6,0.6l-0.6,0.6h-0.7l-0.9-0.3l-0.7-0.3l-0.6-0.6l-0.4-0.7h-0.7l-0.6,0.6l-0.7,0.1l-0.7-0.4l-0.4-0.7
		l-0.3-0.7l-0.3-0.9l-0.3-0.7l-0.3-0.7l0.1-0.9v-0.9l-0.3-0.7l-0.4-0.7l0.4-1l-0.1-0.9l-0.1-0.9l0.1-0.9l0.3-0.7l0.4-0.7l0.3-0.7
		l0.4-0.7l0.3-0.7l-0.3-0.9l-0.6-0.6l-0.9-0.1l-0.7-0.1L44,211v-0.7l0.3-0.9l0.1-0.7l0.3-0.9l0.3-0.7l0.1-0.9l0.3-0.7l0.4-0.7
		l0.1-0.9l-0.1-0.9l0.1-0.9l0.4-0.7l0.6-0.6l0.6-0.4l0.6-0.6l0.4-0.7l0.4-0.7l0.4-0.7l0.4-0.7l0.4-0.7l0.7-0.6l0.6-0.4l0.7-0.4
		l0.4-0.7v-0.9v-0.9l0.3-0.7l0.6-0.6l0.6-0.7l0.6-0.6l0.6-0.7l0.6-0.6l0.3-0.7l0.4-0.9l0.1-0.7l0.1-0.9l0.1-0.7l-0.1-0.9l-0.3-0.7
		l-0.6-0.6l-0.7-0.4l-0.6-0.6l-0.3-0.9l0.1-0.9l0.1-0.9l0.4-0.7l0.3-0.7l0.4-0.7l-0.1-0.7l0.3-0.7l0.9-0.3l0.7-0.1l0.7-0.6l0.6-0.6
		l0.7-0.3l0.9-0.1l0.7-0.1l0.9-0.4l0.7-0.4l0.6-0.4l0.6-0.6l0.4-0.7l-0.3-0.9l0.6-0.6l0.7,0.1l0.3,0.7l0.4,0.7l0.7,0.4h0.7l0.9-0.3
		l0.9-0.4l0.6-1l0.4-0.7l0.4-0.7l0.6-0.6l0.7-0.6l0.6-0.6l0.7-0.3l0.7-0.3l0.9,0.1l0.9,0.1l0.7-0.4l0.6-0.6l0.6-0.4l0.9-0.3l0.7-0.4
		l-0.3-1l-0.1-0.9l-0.4-0.7l-0.6-0.6l-0.4-0.7l-0.3-0.7l-0.1-0.9l-0.3-0.7l-0.7-0.3v-0.9v-1l-0.1-0.9l0.4-0.6l0.7,0.3l0.7,0.3h0.7
		l0.9-0.3l0.9-0.1H81l0.7-0.1l0.7-0.4l0.7-0.6l0.4-0.7l0.4-0.7l0.6-0.6l0.4-0.7l0.6-0.7l0.6-0.6l0.7-0.3h0.9l0.6-0.6l0.3-0.7
		l0.3-0.7l0.1-0.9l0.4-0.7l0.4-0.7l0.6-0.6l0.7-0.6l0.6-0.7l0.4-0.6l0.4-0.7l0.6-0.7l0.3-0.7l0.1-0.9l0.1-0.9l0.3-0.7l0.4-0.7
		l-0.3-1.2l-0.4-0.6l-0.9-0.3l-0.7-0.3l-0.7-0.4l-0.1-0.9l-0.7-0.3l-0.7-0.3l-0.7-0.6l0.1-0.9l0.4-0.6l0.7-0.6l0.6-0.7l0.4-0.6
		l-0.1-0.9l-0.3-0.7l-0.7-0.4l-0.9-0.1l-0.7-0.1l-0.7-0.6l-0.7-0.4l-0.7-0.4l-0.7-0.4l-0.7-0.4l-0.6-0.6l-0.7-0.6l-0.7-0.4l-0.7-0.3
		l-0.7-0.6l-0.4-0.7L82,120l0.6-0.4l0.6-0.7l0.4-0.7l0.4-0.7l0.1-0.7l0.1-0.9l0.1-0.9v-0.9l-0.3-0.7l-0.3-0.9l-0.1-0.7v-1v-0.7
		l0.3-0.9l0.1-0.7l0.4-0.7l0.3-0.9l0.1-0.7l0.3-0.7v-0.9l0.1-0.9v-0.9l-0.1-0.9l-0.7-0.6l0.3-0.9l0.3-0.7L85,99l-0.3-0.7l-0.6-0.6
		l-0.7-0.1l-0.9-0.1l-0.9-0.1h-0.9l-0.7-0.1l-0.7-0.4l-0.9-0.3l-0.6-0.6l-0.4-0.7l0.1-0.9l0.1-0.7l0.1-0.9L77.7,92l-0.7-0.3
		l-0.9-0.1l-0.7-0.4l-0.6-0.6l-0.3-0.9l-0.1-0.9l-0.1-0.9l-0.3-0.9l-0.4,0.4l-0.7,0.6l-0.9-0.1l-0.7-0.1l-0.4-0.7v-0.9v-0.9v-0.9
		l-0.1-0.9l-0.1-0.9l-0.1-0.9l-0.4-0.7l-0.3-0.7l-0.3-0.7l0.3-0.9V78l0.3-0.9v-0.9l0.3-0.7l0.3-0.7l0.4-0.7l0.6-0.7l0.6-0.6l0.4-0.7
		l0.7-0.6l0.6-0.6l0.7-0.6l0.6-0.4l0.6-0.7l0.4-0.7l0.6-0.7l0.4-0.6l0.3-0.9l0.1-0.9v-0.7l0.1-1l1-0.1l0.9-0.1l0.7,0.6H81h0.9
		l0.9-0.1h0.9l0.9,0.1l0.7,0.1l0.9,0.1l0.7-0.3l0.6-0.6l0.6-0.6l0.6-0.6l0.9-0.1h0.9H91l0.7-0.3l0.6-0.6l0.1-0.9l-0.4-0.7l-0.6-0.6
		l0.3-0.9l0.3-0.7l0.1-0.9l0.1-0.7l0.1-0.9v-0.9l-0.1-0.9l0.1-0.9l0.3-0.7l0.7-0.6l0.9-0.1h0.9h0.9l0.7,0.3l0.4,0.4l0.6,0.6l0.6,0.7
		l0.6,0.6l0.9,0.1l0.7-0.3l0.7-0.4l0.7-0.4l0.7-0.4h0.9h0.9l0.7,0.3l0.7,0.6l0.7,0.3l0.7-0.4l0.7-0.1l0.9,0.1h1l1.6-2l1.9-1.2
		l3.2-1.3l2.9-1.7l1-0.7l1.9-1.3l2.4,0.3l1.6,0.9l2.4,0.7h3l2.7-0.6l2.9-0.9l1.9-1l0.3-2.2l-0.1-1.9l0.7-2.2l2.2-1.7l1.3-1.6
		l1.9-2.2l0.9-0.9l0.6-0.6l0.9,0.1l0.9,0.3l0.7,0.3l0.7,0.4l0.7,0.6l0.7,0.1l0.9-0.1l0.9,0.1l0.7-0.4l0.7-0.4l0.9-0.1l0.3,0.7
		l-0.4,0.6l-0.7,0.7v0.7l0.7,0.4l0.9,0.1l0.7,0.3h0.9l0.7,0.3l1.6,0.4v-1.2v-0.9l0.1-0.9v-0.9l0.3-0.7l0.3-0.7l0.4-0.9v-0.7
		l-0.3-0.9l-0.9,0.1l-0.9-0.1l-0.4-0.7v-0.9v-0.9l-0.1-0.7l-0.3-0.9l-0.6-0.4l-0.7-0.4l-0.4-0.7l-0.3-0.7l-0.1-0.9l0.4-0.6l0.9,0.1
		l0.9,0.3l0.4,0.7l0.3,0.7l0.6,0.7l0.7,0.3h0.9h0.9h0.9l0.9-0.1l0.9-0.1h0.9l0.7-0.1l0.9-0.3h0.9l0.4,0.7l0.1,0.7v0.9l0.7,0.4
		l0.7-0.3l0.7-0.6l0.6-0.6l0.7-0.4l0.7-0.1l0.9-0.1l0.7-0.4l0.7-0.4l0.7-0.4l0.7-0.4l0.6-0.6l0.6-0.6l0.6-0.7l0.6-0.6l0.7-0.6
		l0.6-0.6l0.6-0.6l0.6-0.6l0.6-0.7l0.4-0.7l0.6-0.6l0.3-0.7v-0.9v-0.9l0.1-0.9l0.1-0.9l0.1-0.7l0.1-0.9l0.6-0.7l0.6-0.4l0.6-0.6
		l0.6-0.7l0.4-0.7L187,6l0.9,0.1h0.9h0.9h0.9l0.9-0.1l0.9,0.1l0.9-0.3l0.9-0.1l0.7-0.1l0.9-0.3l0.9-0.1l0.7-0.1l0.7-0.3l0.9-0.3
		l0.9,0.1l0.7,0.3l0.7,0.4l0.7,0.4l0.6,0.6l0.6,0.6l0.4,0.7l0.7,0.4l0.6,0.6l0.7,0.4l0.7,0.4l0.7,0.3l0.7,0.4l0.7,0.4l0.7,0.4
		l0.7,0.6l0.7,0.4l0.6,0.7l0.7,0.4l0.7,0.4l0.7,0.4l0.7,0.3l0.9,0.1l0.7,0.1l0.9,0.1h0.9l0.7,0.1l0.7-0.1l0.9-0.1l0.9-0.1l0.7-0.3
		l0.9-0.3l0.7-0.1l0.9-0.3l0.7-0.3l0.4,0.4l1-0.4l0.9-0.3l0.7-0.4l0.4-0.7l0.6-0.6l0.6-0.7l0.6-0.6l0.6-0.6l0.6-0.7l0.6-0.6l0.6-0.7
		l0.4-0.6l0.7-0.6l0.7-0.4l1,0.3l0.9-0.3l0.9-0.1l0.9-0.1l0.7-0.1l0.9-0.1l0.7,0.3l0.9,0.3l0.6,0.6l0.4,0.7l0.6,0.7l0.3,0.7l0.4,0.7
		l0.6,0.1l0.7-0.3l0.7-0.6l0.6-0.7l0.6-0.6l0.7-0.4l0.6-0.6l0.7-0.4l0.6-0.6l0.9-0.3l0.6-0.4l0.6-0.7l0.7-0.4l0.7-0.4l0.9-0.1h0.7
		l0.3-0.4l0.6-0.6l0.6-0.6l0.7-0.6l0.6-0.6l0.7-0.6l0.6-0.4l0.7-0.4l0.7-0.4l0.9-0.3l0.7-0.3h0.9h0.9l0.9,0.1h0.7l0.9-0.3l0.6-0.7
		l0.4-0.7l0.1-0.7l0.1-0.9l0.3-0.7l0.3-0.7l0.1-0.9l-0.1-0.9l-0.1-0.9l-0.1-0.9l-0.1-0.9l0.3-0.9l0.3-0.7l0.3-0.7l0.4-0.7l0.3-0.7
		l0.4-0.4l0.4-0.7l0.7-0.6l0.7-0.3l0.7-0.4h0.9h0.9l0.7,0.3L274-17l0.7,0.4l0.7,0.3l0.7,0.3l0.9,0.1h0.7l0.7-0.3l0.7-0.4l0.7,0.4
		l0.7,0.4l0.7,0.4l0.3,0.7l0.4,0.7l0.6,0.6l0.9,0.1l0.9-0.1l0.7,0.3l0.1,0.9l0.6,0.6l0.6,1.2l0.3,0.7l0.7-0.1l0.7-0.4l0.9-0.3h0.9
		l0.7,0.4l0.6,0.6l0.4,0.7l0.3,0.9V-7l-0.1,0.7l-0.3,0.7l-0.3,0.9L290.8-4l-0.3,0.7l-0.1,0.9l-0.3,0.7L289.7-1l-0.4,0.7l-0.7,0.6
		l-0.7,0.4l-0.6,0.6L286.8,2l-0.4,0.7l-0.4,0.7l-0.3,0.7L285,4.9l-0.7,0.4l-0.7,0.3l-0.9-0.1l-0.9-0.1l-0.7,0.3l-0.7,0.7L280,7.1
		l-0.3,0.7l-0.4,0.7l-0.4,0.7l-0.6,0.6l-0.6,0.7l-0.6,0.6l-0.6,0.7l-0.4,0.6l-0.7,0.7l-0.6,0.6l-0.6,0.6l-0.1,0.9l0.4,0.6h0.9
		l0.9-0.1l0.3,0.6l-0.6,0.7l-0.6,0.6l-0.6,0.6l-0.3,0.7v0.9l0.4,0.7l0.7,0.3l0.7,0.6l0.4,0.6l0.3,0.9v0.6l0.6,0.3l0.6,0.6l0.3,0.7
		l0.3,0.9l0.7,0.4l0.7,0.1l0.6-0.7l0.3-0.7l0.4-0.9l0.7-0.3h0.9l0.6,0.6l0.3,0.7l0.4,0.7l0.7,0.4l0.9,0.3h0.7l0.9-0.3l0.6-0.4
		l0.4-0.7l0.3-0.9l0.6-0.6l0.6-0.7l0.7-0.6l0.6-0.6L292,21l0.7-0.6l0.6-0.6l0.7-0.6l0.7-0.4l0.7-0.3l0.7-0.3L297,18l0.7-0.3l0.6-0.6
		l0.4-0.7l0.4-0.7l0.7-0.6l0.7-0.3l0.9,0.1l0.7,0.3l0.7-0.3l0.7-0.4l0.7-0.3l0.9-0.4l0.7-0.1h0.9l0.6-0.6l0.6-0.7l0.6-0.7l0.1-0.7
		l-0.3-0.7l-0.3-0.9V8.5l0.3-0.7l0.6-0.6l0.6-0.7V5.6l-0.3-0.7l-0.7-0.4l-0.7-0.3l-0.9-0.3l-0.7-0.3l-0.7-0.4l-0.3-0.7l0.3-0.7
		l0.6-0.6l0.6-0.7l0.6-0.6l0.7-0.4l0.7-0.4l0.1-0.9l0.1-0.9l-0.1-0.9l0.3-0.7l0.4-0.7l0.7-0.3l0.9-0.3l0.7-0.4l0.7-0.3l0.7-0.3
		L314-7l0.6-0.7l0.6,0.4l0.7,0.6l0.7,0.3l0.7,0.4l0.3,0.7l0.4,0.7l0.3,0.9l0.3,0.7l0.4,0.7v0.9l-0.3,0.7l-0.1,0.9l0.1,0.7l0.7,0.4
		l0.9,0.1h0.9l0.3-0.7l0.6-0.3l0.9-0.3l0.3-0.9l0.7-0.4l0.7,0.3l0.7,0.6l0.3,0.7l0.4,0.7l0.6,0.6l0.7,0.1l0.7-0.6l0.1-0.9v-0.9
		l0.4-0.6l0.9-0.3l0.9-0.1l0.9-0.1l0.4,0.7l-0.4,0.7L331,0.6l0.1,1L331,2.3l-0.3,1.3l0.6,0.7l0.7,0.4l0.6,0.7l0.6,0.6l0.3,0.7
		l0.4,0.7l0.3,0.9l0.1,0.7l0.1,0.9v1v0.9l0.6,0.4l0.7,0.6l0.6,0.6l0.6,0.7l0.7,0.4h0.9h0.9l0.7,0.3l0.4,0.7l-0.1,0.7l-0.4,0.7v0.9
		l0.6,0.6l0.3,0.9l0.4,0.6l0.9,0.4l0.7,0.1l0.9,0.3l0.7,0.3l0.7,0.3l0.9-0.3l0.7-0.3l0.7-0.6l0.7-0.4l0.6-0.6l0.6-0.4l0.7-0.6
		l0.4,0.6l0.4,0.6l0.7,0.6l0.6,0.6l0.4,0.7l0.4,0.7l0.1,0.9l0.7,0.9l0.9-0.1l0.9-0.1l0.7-0.1l0.9-0.3h0.9l0.9-0.3l0.6-0.4l0.7-0.4
		l0.7-0.4l0.9-0.1l0.7,0.1l0.7,0.4l0.9,0.3h0.7l0.9,0.3l0.7,0.6l0.7,0.4l0.9-0.1l0.7-0.1h0.9h0.9l0.9-0.3l0.6-0.6l0.7-0.4l0.7-0.3
		l0.9-0.1l0.9,0.1l0.7,0.3l0.4-0.7l0.7-0.4l0.9-0.1l0.7,0.1l0.7,0.4l0.7,0.6l0.6,0.6l0.7,0.6l0.7,0.4l0.7,0.4l0.9,0.1l0.7,0.3
		l0.9,0.1l0.7,0.3l0.6,0.6l0.4,0.7l0.4,0.7v0.9l-0.6,0.6l-0.4,0.7l0.3,0.9l0.4,0.7l0.1,0.7l-0.4,0.7l-0.3,0.7l0.7,0.6l0.7,0.3
		l0.9,0.3l0.7,0.1l0.7,0.3l0.9,0.4L391.8,35L391.8,35"/>
</g>
</svg>
