<?xml version="1.0" encoding="utf-8"?>
<!-- Generator: Adobe Illustrator 27.0.0, SVG Export Plug-In . SVG Version: 6.00 Build 0)  -->
<svg version="1.1" id="Layer_1" xmlns="http://www.w3.org/2000/svg" xmlns:xlink="http://www.w3.org/1999/xlink" x="0px" y="0px"
	 viewBox="0 0 500 500" style="enable-background:new 0 0 500 500;" xml:space="preserve">
<style type="text/css">
	.st0{fill:#E74646;stroke:#FFFFFF;stroke-width:4.6041;stroke-linecap:square;stroke-linejoin:bevel;stroke-miterlimit:3.998;}
</style>
<g transform="matrix(0.999751,0,0,0.999751,18.6633,21.7738)">
	<path vector-effect="none" class="st0" d="M225.8,19.4l-0.8,1.1l-0.3,0.8l-0.5,0.3L223,22l-1,0.3l-0.3,1l-0.7,0.2h-1l0.2,0.8
		l-0.5,1.1l-0.2,2.5l-0.7,1.6l-0.2,2v2l0.3,2.9l0.3,1l0.2,0.7l-0.3,0.8l0.2,0.8l-0.7,0.7l-0.5,0.7v1.5v1.8l-1,0.8l1,0.3l0.7,0.7
		l0.2,1l0.5,0.5l0.8,0.3l0.8,1.3l0.2,0.8l0.2,0.8l0.3,1.5l-0.3,1l-1,1.1l0.2,1.3l1-1.3l0.7-1.3l0.5-0.5h0.7l0.5,0.2l0.7,0.3l0.5,0.7
		l1.5,0.3l0.3,0.5h0.7l1,0.3h1l1.5-0.5l0.3-0.8l0.2-1.3h0.7L233,52l0.8,0.2l0.8,1.3l1,0.5l3.3-0.7l0.8-0.2h0.8l0.5,0.5l1.6,1.8l-1,2
		l0.2,1l-0.8,1l0.8,0.8l3.3,2.1l0.7,0.3l0.7,0.7l1.8,1.6l0.5,0.3l1,0.8l1,0.3l0.5,0.2l0.7,0.3l0.5,0.5l0.5,0.2l0.7,0.3l0.7,0.2
		l0.7,0.3l0.7,0.3l0.5,0.5l1,0.5l0.3,0.5l0.2,0.8l1.6,3.4l-1.5,0.7l-0.8,1l-1,0.3l-1.1,0.3l-0.8,0.3l-1.3-0.2l-0.8,0.2l-2.3-0.3
		h-0.5l-0.2,0.7l1.3,0.3l0.5,0.2l1.1,0.2h0.7l1.1,0.2l1,1h0.5l1.3,0.7l0.8,0.8l0.3-1.1l-0.2-0.7l0.3-1.3v-0.7l0.8-1l1.1-0.5l1-0.8
		l1.1-0.7l0.3-1.1l0.8,0.2l0.3-0.7l1,0.5l1.1-0.2l1.5,0.2l0.5,0.7l1.5,0.7l1,0.2l0.7,0.3l0.5,0.5l0.5,1.3l1.3,0.3l1.1,0.2l0.7,0.2
		l0.8,0.2l0.5,0.3l1,0.3l0.8-0.3h1h1.5h0.7h1h0.8L283,78l0.7-0.3l0.5,0.3l1.1,0.3l0.5,0.8l1.6,0.7l1.1,0.2l1.1,0.2l1.8,0.8l1.6,0.8
		l2,0.8l1.8,0.7l1,0.3h0.8l0.8,0.5l1.5,0.5h0.8l1.3,1l0.8,0.2l0.8,0.5l0.8,0.3h1.1l0.7,0.3l1,0.7l2.6,0.8l1.6,0.3l1.1,0.7l0.8,1.1
		l-0.3,1.5v0.7l0.3,0.5l-0.2,0.8l0.2,1.6l0.3,0.8l1.6,2.1l0.2,1l1,1.5l1.1,1.3l0.3,0.8l0.2,0.5l-0.3,0.7l-0.3,0.7l0.2,2.6v1
		l-0.2,0.7l1.1-0.5l0.8,0.3l0.7,0.5l0.7,1.1l0.5,1.5l0.2,1l0.5,0.5l0.3,0.5l0.2,0.8l0.8,1l0.7,1.1l0.8,1.5l0.5,1v1.1l1,1l0.3,0.3
		l0.5,1.1l1,1.1v1.3l0.7,0.8l0.5,0.5v0.7l0.8,0.8l0.5,0.8l0.7,0.7l0.3,1.1l0.2,0.5l0.8,0.8l0.5,1l1,1.1l0.3,0.8l0.2,0.8l-0.7,1.1
		l-1.8,0.8h-0.8l-1,0.5l-0.5,1.3l-0.5,1.3l-0.2,1.1l-0.5,1L329,144l-0.2,0.8l0.5,0.3l1,1.1l0.3,0.8l-0.7,0.3l-0.3,0.8l0.7,0.7
		l6.1-3.3l0.7-0.2l1.3,0.5h0.8l0.7,0.2l0.3,0.5l-0.3,1.3l-0.7,0.7l0.3,0.7l1.1,1l0.7,1.1l0.5,0.3l-0.3,0.5l-0.8-0.2h-1l-0.7,0.2
		l0.8,0.8v0.8l0.3,1.5l1,0.5l0.7,0.3l0.8,0.5l0.7,1l0.2,0.5l0.2,1l0.2,0.7l1,1l-0.3,0.7h-0.8l0.3,0.7l1.3,0.3l0.7,0.5l0.2,1.5h0.7
		v0.7l0.7,0.5l0.2,0.5l-0.8,1.1l0.2,1.6l1,0.2h0.8l0.3,1.3l0.2,0.7l-1,1l-0.5,0.8l-1.8,1.1l-0.7,0.3l0.3,1.1l0.5,0.7l0.2,0.7
		l0.7,0.3l0.8-0.2l0.5-0.5l0.8-0.3l0.3,1.1l0.5,1l1.5,1.1l0.8,1l0.8,0.2l0.5,0.7l-0.3,0.8l-0.2,1l0.2,0.8l0.7,1.1l0.5,0.7l0.5-0.2
		l0.5,1.1l0.3,0.5v1l0.7,0.3v1l0.7,0.7l0.5-0.5l0.2-0.8l0.7-0.5l1,0.3l0.5,0.3l0.5,0.7l0.2,0.8l0.5,0.8l0.7,0.7v0.7l-0.7,0.5l-0.3,1
		l0.7,0.5l0.2,0.5l0.7,1v0.8l-1.1,0.8l-1,1.1l0.2,0.5l1,1l0.8,0.7l0.7,0.3l0.2,0.5l0.7,0.3l0.7-0.2l0.7,0.5v0.8l-0.3,0.5l-0.8,0.2
		v0.8l1.1-0.5l0.7,0.2l1.6-0.5l-1.5,1.1l0.2,1.1l0.7,0.3l0.7,1.1l0.5,0.7l0.5,1.1l0.7,0.8l-1,1.5l0.5,0.8l1-0.3l0.7,0.5l-0.8,0.8
		l0.5,0.5l-0.3,0.8l0.5,0.3l0.3-0.5l1-0.7l0.3,0.7l-0.2,0.7l0.3,0.7l0.5-0.3l1-0.3l-0.8-0.3l0.5-1.1l0.5-0.3l0.5,0.7l0.7-0.2
		l0.7,0.5l0.7-0.2l0.2,0.7l0.8,1.5l-0.3,0.7l0.7,1.3l-0.3,1h-0.7l-0.3,1l1.3,0.5l-0.3,0.7l0.8,0.5l0.2,1.8l-0.7,0.3l0.2,1.3l0.7-0.3
		l0.8,0.3v0.8l0.5,0.5l0.5,0.5l0.3,0.7l-0.5,0.2l0.3,1l0.3,0.8l-0.3,0.8v0.8l-0.2,0.8l-0.3,0.5l-0.8,0.3l0.3,2l-0.2,0.7l-1.1-0.7
		l-0.5,0.7l-1-0.3l-1.5-0.8l0.5,1.1l0.3,1.1l1,1l-0.2,0.7l-0.7-0.3l-1,0.2l0.5,1l0.7-0.2l1.6,0.7l0.3,0.5l0.3,1l1.3-0.3l-0.3,0.8
		l0.7,0.3l0.5-0.5l1.3,0.7l0.3,0.7v0.8l-0.2,1.6l-0.8,0.5l0.2,1.1l0.2,0.8l-0.5,0.3l-0.8-0.5l-0.3,0.7l-0.3,0.5l0.7,1.1l1,0.2
		l0.7,0.3l-0.2,1l-0.8,0.5l-0.8-0.2l-0.8,1l0.8-0.2l0.7,0.5l-0.3,0.5l-0.5,0.2l-0.3,0.5l0.7,0.8l1.1-0.5l1.8,0.7l1.5,1.3l1.3,0.8
		l0.7,0.2l1.3,0.8l0.7,0.7l0.7,1.3l0.7,0.2l0.5,0.5l0.7-0.3l1-0.5l0.7-0.2l1,0.3l1.1,0.5l0.8-0.3l0.7,0.3h1.1l0.8,0.7l0.8,0.2l0.2,1
		l-0.8,0.8l0.7,0.3v0.5l1-0.2l0.2-0.7l1.1,0.2l0.5-0.5h0.8l1.6,0.5l1.3,0.5l0.7,0.7l0.5,0.8l0.8-0.2l0.5,0.5h1.6l0.7,0.2l1,0.8
		l0.5-0.2h1.3l1.3,0.8l2.8,1.5l0.7,0.2l0.8,0.2l0.5,0.2l0.5,0.3l0.3,1.5h1l0.7,0.5l0.7,0.8v0.8l0.2,0.7l0.3,0.5l0.2,0.7l-0.2,1
		l-0.3,0.5v1.5l0.2,0.8l0.2,0.8v2.1l0.5,1.6l0.7,0.2l1.3,0.2l0.5,0.5l0.5,0.3l-0.2,0.8l-0.8,0.2l-0.8,0.7l-0.7,0.3l-0.7,0.2
		l-0.7,0.2L421,287l-0.5,0.5l-0.2,0.7v1v1.5l1.3-0.2l0.7,0.7l0.7,0.3l0.2,0.5l0.2,2l1,0.8l0.5-0.2l0.7-0.2h0.7h0.8l0.7,1.1l0.5,2.1
		l0.5,1.5l1.1,0.7l1.5,0.3l1-0.2l1.1-0.3l0.7-0.3l0.7,0.3l0.2-1.1l0.5-0.2h1h1.1l1.3,0.3l1,0.2l2,1l2.5,0.3l1,0.5l0.8,0.5l1,1h0.7
		h0.7l0.7,0.2l1.1,0.3l2.1,1.1l1.3,0.5l2.1,0.3l1.1,0.7l1,0.8l2,2.6l0.3,0.7l0.5,0.2l0.7,1l0.7,0.5l0.3,0.7l1,0.8l0.3,1l0.7,0.3
		l0.8,0.2l0.5,0.5l0.7,0.3l0.2,0.5v0.7l1.1,1.6l0.3,1.3l0.2,0.7l1,1.5l0.2,1l0.8,1.6l1.1,2.1l0.5,0.7l0.8,0.8l0.8,1.5l0.3,0.7
		l0.2,3.1l0.3,1.1l0.2,0.7l0.3,1.3v0.8l-0.3,0.7l-0.8,1l-0.8,0.7L472,339l-1,0.3l-1,0.2l-1-0.2l-0.7-0.3l-0.7-0.2l-0.8-0.3h-0.8
		l-0.8-0.2l-1-0.3l-0.8-0.3h-0.8l-0.8-0.3l-0.7-0.2l-0.7-0.3l-0.7-0.2h-0.7h-0.8l-0.7-0.2h-1.3h-1.1l-0.8-0.2h-1.1l-0.5-0.2h-0.7
		l-0.7-0.2l-1.3-0.5l-0.8-0.7l-0.8-0.5l-0.5-0.3l-0.7-0.2l-0.7-0.2l-0.5-0.3l-0.5-0.2l-0.7-0.3l-1.1-0.5l-0.5-0.3l-0.7-0.3l-0.7-0.3
		l-0.7-0.3l-0.7-0.2l-1-0.8l-1-0.5l-0.8-1l-1.1-1l-0.5-0.3l-1.8-0.5l-2-0.7l-1.8-0.2l-0.7-0.2l-1.3-0.5l-0.8,0.2l-1.6-0.3l-1.3-0.3
		l-0.8-0.5l-0.8-0.7l-0.8-0.3l-1-0.2l-1.5-0.2l-0.7,0.2l-1,0.5l-1,0.5l-1.8,1.8l-0.7,0.2l-2.6,0.2l-0.7,0.5l-1,0.5l-1.1,0.2h-1.5
		l-1.5-0.2h-0.7l-1.6,0.2l-1.1,0.5l-0.7,0.5l-0.5,0.7l-0.7,0.3h-1.8l-1.1,1.5l-0.5,0.3l-0.7,0.3l-0.5,0.3l-0.5,0.3l-0.7,0.5
		l-0.8,0.2l-0.8-0.2l-0.5-0.5l-2,0.2l-0.5-0.5l-0.3-0.7l-0.2-1.3l-0.5-0.7l-0.3-0.7l-0.3-1.5l0.8-0.7V326l-2.3-1.6l-0.3-0.8
		l-0.7-1.3l-0.5-0.5l-0.8-0.7l-0.5-0.5l-0.3-0.3l-1.1-1l-0.2-0.8l-0.3-0.3l-0.8-0.8l-1.1-1l0.7-0.3l-1-1.5l-0.3-0.7l-1-0.5l-1.8-0.5
		h-0.5h-1.1l-0.8-0.2H374l-0.7-0.2h-0.7l-2-0.7l-2.6-1l-3.4-1.1l-1-0.2l-0.5-0.5l-3.6,0.5l-1-0.2l-0.5-0.3l-0.8-0.7h-2.5h-1.6
		l-0.7,0.2l-0.8,0.8l-1.6,0.7l-2,1.3l-1.1,0.8l-0.5,0.5l-1.8,0.8l-1.1,0.7l-1,1.1l-1.3,0.7l-0.8,0.5l-1.5,1.8l-1.1,0.7l-1.6,1.5
		l-2.1,2l-1,1.5l3.8,1.3l3.1-1.6l0.8-0.2l1.8-0.3l1.3-0.5h1.3l1.3-0.5l1.5-0.7l0.3-0.8l-0.2-1.5v-1.5L348,317l0.3-0.8l0.5-0.3l2,0.2
		l2.8,0.2l1.5,0.3l0.8,0.7l1,0.3l1.8-0.2h1.1l3.1-0.7l2.5-0.3l2-0.5l5.7,1l0.5,0.5l0.3,0.7l0.5,0.5l0.3,1.1l0.2,0.7l0.3,0.7l0.5,0.5
		l0.3,0.5l0.8,1l0.3,0.5l0.3,0.7l0.3,0.5l0.3,0.7l0.5,0.5l0.2,0.8l0.3,0.8l0.2,0.7l0.7,1.3l0.2,0.5l0.3,0.8l0.3,0.8l-0.3,0.7
		l-0.7,0.3h-1.1l-0.8-0.3l-0.7-0.3l-0.7-0.2l-0.5-0.3l-0.7-0.2l-0.8-0.2h-0.7l-1,0.2l-0.3,0.5l0.7,0.3l0.7,0.3h0.7l1.1,0.8l0.7-0.2
		l1.1,0.2l0.5,0.2l0.7,0.8l0.2,0.5l0.5,0.8l0.5,0.3l0.7,0.3l0.7,0.3l0.7,0.2l0.5,0.3l0.7,0.2l0.7,0.2l0.7,0.2l0.7,0.2l1.3,0.2
		l0.7,0.2h1.3h1.3l1.3-0.3l2.3-0.5l0.7,0.2l1-0.2l1.3,0.2l0.7,0.2l0.5,0.2l1,0.2l0.8,0.5l0.7,0.2l0.7,0.3l0.7,0.2l0.5,0.3l1.3,0.3
		l0.7,0.3l0.5,0.3l0.5,0.2l0.7,0.3l0.5,0.3l0.5,0.2l0.5,0.3l0.5,0.3l0.7,0.3l1,0.5l0.7,0.3l0.8,0.3l0.5,0.3l1.3,1l0.7,0.3l1,0.7
		l1,0.5l0.5,0.3l0.8,0.5l0.5,0.5l0.5,0.5l1.1,0.7l0.5,0.3l0.3,0.3l0.2,0.8l0.3,0.3l1.1,1l0.5,0.5l0.3,0.7l0.5,0.7l0.3,0.7l0.3,0.5
		l0.3,0.5l0.5,0.5l0.3,0.5l0.5,0.7l0.5,0.7l2.3,1.8l0.2,1l-2.3,2.9h-0.8l-0.7,0.7l-1,0.3l-0.8,0.2l-0.8,0.2l-0.8-0.5l-1-0.2
		l-0.7,0.7l-0.7,0.5h-1l-0.7,0.5l-0.5,0.8l-0.2,0.8l-0.5,1l-0.7,0.5l-1,0.2l-1,0.2v1l0.8,0.5v0.8l-0.3,0.8l0.2,1l-0.3,0.8l-0.7,0.7
		l-0.8,0.5l-1,0.5l-1.3,0.2l0.2,1.3v1l0.8,0.5h1l0.8,0.5l0.2,1l-0.2,1l0.2,0.8l0.8,0.3l0.8,0.5l0.5,0.7l0.3,1.5l-1,0.3l-1,0.2
		l-1,0.2l-0.8,0.3l-1-0.2l-0.8-0.5h-1l-0.7,0.7l-0.5,0.8l-0.3,0.8l-0.3,1v1v1v1l0.2,1l0.3,1l0.5,0.8l0.3,0.8l0.5,0.8l0.3,1l-0.2,0.8
		l-0.8,0.5l-1-0.3l-0.8,0.3l0.2,1l0.2,1h-0.8l-1-0.3l-0.8,0.2l-0.8,0.5l-0.8,0.5l-1,0.3h-0.8h-1h-1l-1-0.3h-1l-1,0.2l-1,0.3
		l-0.8,0.3l-0.8,0.7l-0.7,0.5l-0.7,0.7v1.3l0.7,0.7l0.8,0.2l1,0.5l0.5,0.8l0.2,1l-0.2,1l0.3,0.8l0.5,0.8l0.3,1l0.2,0.8l0.3,0.8
		l-1,0.3l-0.8,0.5l-0.7,0.5l-0.8,0.8l-0.7,0.5l-0.8,0.5l-1-0.2l-0.8-0.2l-1-0.5l-0.8-0.3h-1l-0.8,0.5l-0.7,0.8l-0.8,0.5l-0.7,0.7
		l-0.7,0.8l-0.3,0.7l-1,0.2h-1l-1,0.2l-1,0.2l-0.8,0.3l-0.7,0.8l0.3,0.8l0.5,0.8l0.5,0.8l0.3,1l0.2,1l-0.2,1l-0.3,0.8l-0.8,0.7
		l-0.7,0.5l-0.7,0.8l-0.5,0.8l-0.8,0.5l-0.8,0.2l-0.7-0.3l-0.3-1l-0.8-0.2l-0.5,0.8l-0.2,1l-0.7,0.5l-1,0.3h-1l-0.8,0.3l-0.3,0.8
		l-0.2,1l-0.2,0.8l-0.8,0.7l-0.7,0.7l-0.7,0.8l-1,1l-0.5,0.8l-0.3,0.8l-0.8,0.7l-1.5-0.3l-0.5-0.8l-0.5-0.7l-0.7-0.8l-0.8-0.3
		l-0.7-0.7v-1l-0.7-0.7l-1-0.3l-0.2-1l0.2-0.8l0.3-1v-1l-0.5-0.8l-0.3-0.8l-0.3-1l-0.3-0.8l-0.3-0.8l-0.8-0.7l-0.7,0.7l-0.3,0.8v1
		l-0.2,1l-0.7,0.7l-0.7,0.5l-1,0.2l-1,0.2l-1-0.2l-0.7-0.7l-0.5-0.8l0.3-1l0.5-0.8l0.5-0.8l0.3-0.8l0.3-1v-1l0.3-0.7l-1.8,0.7
		l-0.8,0.5l-0.8,0.3l-1,0.3l-0.8,0.2l-1,0.3l-0.8,0.3l-1,0.2l-1,0.2l-1,0.3l-1,0.2h-1h-1h-0.8l-1-0.2l-1-0.2l-1-0.2l-0.8-0.3l-1-0.2
		l-0.8-0.2l-0.8-0.3l-0.8-0.7l-0.8-0.5l-0.7-0.7l-0.8-0.7l-0.5-0.8l-0.5-0.8l-0.8-0.7l-0.7-0.7l-0.8-0.3l-1-0.3l-1-0.2l-0.8-0.3
		l-1-0.2h-1l-0.8-0.5l-1-0.3l-0.8-0.7l-0.5-0.7l-0.7-0.8l-0.7-0.7l-0.3-1l-0.3-0.8l-0.7-0.8l-0.3-0.8l-0.3-0.8l-0.2-1l-0.3-0.8
		l-0.3-1l-0.7-0.8l-0.7-0.7l-0.5-0.8l-0.2-0.5h-1h-1l-0.8,0.3l-1,0.3l-1,0.2l-0.8,0.2l-1-0.2l-1-0.2l-0.8-0.2h-1l-0.8,0.5l-0.8,0.5
		l-0.8-0.3l-0.7-0.8h-1l-1,0.3l-0.7,0.5l-0.8,0.7h-1h-1l-1,0.2l-0.7,0.8l-0.8,0.2h-1l-1,0.2l-0.8,0.5l-0.8,0.3l-0.8,0.5l-0.5,0.8
		l-0.7,0.5l-1,0.3l-1,0.2h-0.8l-1-0.2l-0.8-0.5l-0.8-0.5l-0.8-0.5l-1-0.5l-1,0.2h-1l-1,0.2l-1,0.2l-0.8-0.3l-1-0.3l-0.8-0.2l-1-0.5
		l-0.7-0.7h-1h-1l-1,0.2h-1l-0.5-0.7l0.7-0.8l-0.5-0.7l-0.8,0.3l-1.5,0.3l-0.7-0.7v-1v-1l0.3-1l0.3-0.8l0.3-0.8l0.3-1l-0.2-0.8
		l-0.8-0.7l-0.7-0.7l-0.2-1l-0.7-0.7l-0.7,0.8l-0.3,0.8l-0.2,1l-0.3,0.8l-0.8,0.5l-0.8,0.5h-0.8h-1l-0.8,0.3l-1,0.2l-0.2-1l-1-0.2
		l-0.5,0.7l-0.5,0.8l-1-0.2l-0.8-0.5l-0.8-0.3l-1-0.2l-0.8-0.2v-1.1l-0.3-0.8l-0.7-0.8l-0.8,0.3l-1,0.3l-0.8,0.5l-0.7,0.7l-0.5,0.8
		l-0.5,0.8l-0.7,0.7l-0.8,0.8l-0.7,0.7l-0.8,0.5l-0.7,0.5l-0.8,0.7h-0.8l-1-0.2l-1,0.2l-0.8,0.3l-0.8-0.7L231,403l-1,0.2l-0.8,0.5
		l-0.8,0.3h-1l-1-0.2l-1-0.2l-0.8-0.2h-1l-1,0.3l-0.8,0.3l-0.8,0.5h-1l-0.8-0.2l-1-0.2h-1l-1,0.2l-1,0.2l-1,0.2l-0.8,0.3l-1,0.2
		l-1,0.2l-0.7-0.7l-0.3-1l-0.2-1l-0.2-1l-0.3-0.8h-1l-1,0.2l-1-0.2l-1-0.2l-0.8-0.5l-0.8-0.3l-0.7-0.7l0.7-1l0.5-0.8l0.7-0.8
		l0.3-0.8l0.3-0.8l0.3-0.8l0.8-0.7l0.8-0.3l1-0.2l1-0.3l0.8-0.5l0.8-0.5l0.7-0.5l0.8-0.7l0.7-0.7l0.8-0.5l0.7-0.8l0.7-0.8l0.3-0.8
		l0.5-0.8l0.3-0.8l0.2-1l0.2-1v-1l0.2-0.8l-0.2-0.8l0.2-1v-1v-1l-0.2-1l-0.5-0.8l-0.7-0.7l-0.5-0.8v-1.1l0.2-0.8l-0.2-1l-0.3-1
		l-0.2-0.8l0.2-1v-1l-0.3-1l-0.7-0.5h-1l-1-0.2l-0.8-0.7l-0.8,0.7l-0.7,0.5h-1l-0.8-0.5l-0.5-0.8l-0.3-0.8l-0.2-1l0.5-0.8l0.3-0.8
		l-0.3-0.8l-0.8-0.5l-1,0.2l-1,0.3l-0.7,0.7l-0.3,0.8v1l-0.2,1l-0.7,0.7l-0.8,0.5l-1-0.2l-0.8-0.2l-1-0.2l-1,0.2l-1,0.2l-1.3-0.2
		l-0.2-0.7L196,364l-0.3-1v-1l0.2-1l0.7-0.7l1-0.2l0.8-0.5l0.5-0.8l-0.7-0.8l0.2-0.8l0.2-1l-0.5-0.8h-1h-1l-1-0.2l-0.8-0.3l-0.7-0.8
		l-0.8-0.3l-1,0.2l-0.8,0.3l-0.8,0.8l-0.7,0.5l-0.7,0.7l-0.8,0.5l-0.8,0.3H186l-0.8-0.2l-0.5-1l0.3-0.8l0.3-0.8v-1l-1-0.2h-1h-1
		l-1-0.2l-0.2-1.3l0.3-0.8l0.8-0.7l0.5-0.8l0.3-1l-0.3-1l-0.3-0.8l-1-0.3l-0.8-0.5l-0.5-0.8l-0.8-0.7l-0.5-0.8l-0.8-0.7l-0.8-0.5
		l-1,0.2l-0.8,0.3h-1l-0.7-0.5l-0.3-1l-0.7-0.8l-0.8-0.5l-0.8-0.5l-0.7-0.5l-0.5-1l-0.3-0.8v-1l0.3-0.8l0.3-0.8l0.5-1l0.7-0.7
		l0.7-0.7l0.7-0.8l0.3-1v-1l-0.2-0.8l-0.5-1l-0.5-0.7l-0.2-0.7l-0.2-1l0.3-0.8l0.7-0.8l0.7-0.5l0.7-0.8v-0.8l-0.5-0.8l-0.7-0.8
		l-0.7-0.7l-0.5-0.8l-0.3-0.8l-0.2-1l0.2-1l0.5-0.8l-0.3-0.8l-0.7-0.7l0.3-0.7l0.5-0.8l0.5-0.8l0.8-0.7l0.7,0.2l0.8,0.5l0.8,0.5
		l0.8,0.2l1,0.3l1,0.2l0.8,0.2l1-0.3l1,0.2l0.8,0.3l0.8,0.5l1,0.3h1l1,0.2l0.8-0.5l0.7-0.8l0.7-0.7l0.7-0.5l0.8-0.7l0.8-0.5l0.8-0.5
		l0.8-0.3l0.3-0.7l0.8-0.7l0.8-0.7l0.7-0.5l0.8-0.5l0.5-0.8l-0.8-1l-0.2-1l-0.2-1l0.7-0.7l0.8-0.3l0.8-0.5l0.8-0.5l0.5-0.8v-1
		l-0.5-0.8l-0.5-0.8l-0.5-0.8l-0.5-0.8l-0.2-0.8l0.8-0.7l0.2-1l-0.5-0.7l-1-0.2l-0.2-1l0.2-1l-0.2-1l-0.2-1l-0.2-1l-0.2-1v-1
		l-0.3-0.8l-0.8-0.7l-1-0.2h-1l-0.8,0.2l-1,0.2h-1l-1-0.2l-1-0.2l-0.5-1.1l0.2-1l0.5-0.8l0.8-0.7l0.2-0.8l-0.7-0.8l-0.8-0.7
		l-0.7-0.7l-0.7-0.8l-0.8-0.5l-0.8-0.7v-1l0.3-0.8l0.5-0.8l0.8-0.7h1h1l0.8,0.2l1,0.3h1l1,0.2l1-0.2l1,0.2l1-0.3l0.7-0.5l0.3-1
		l0.2-0.8l0.8,0.2l0.8,0.5l0.8,0.7l0.8,0.3l1-0.5l0.7-0.5l1-0.2l0.5,0.8l0.7,0.8l0.8-0.3l0.7-0.8l0.7-0.5h1v1l0.2,1l1,0.2h1l1,0.2h1
		l0.7-0.7l0.2-1l0.8-0.5l1,0.3v1v1v1l0.8,0.3l0.8,0.5h1l1,0.2l0.8,0.5l0.7,0.7l0.7,0.8l0.5,0.8l0.8,0.3l1,0.2h1l0.7-0.7l0.8-0.5
		l1-0.3l0.8,0.3l0.7,0.8l0.3,0.8l0.5,0.8l0.8,0.3l1.1,0.3l0.8,0.3l0.8,0.2l1-0.2l0.7-0.7l0.8-0.7l0.7-0.7l0.7-0.8l0.5-0.8l0.2-1
		l0.3-0.8l0.5-0.8v-1l-0.7-0.7v-1l0.3-0.8l0.5-0.8l0.8-0.5l1-0.2l1,0.2l0.8-0.3l0.7-0.8v-0.8l-0.2-1l-0.2-0.8l-0.3-1l-0.5-0.8
		l-0.3-0.8l-0.7-0.8l-0.5-0.8l-0.3-0.8v-1.1l0.3-0.8l0.3-0.8l0.2-1l-0.2-1l-0.2-1l-0.3-1v-1l-0.3-0.8l-0.2-1l-0.5-0.8l-0.2-1
		l-0.3-0.8l-0.3-1v-1v-1l-0.8-0.3l-1-0.2l-0.8,0.3l-1,0.2l-1,0.3l-0.8,0.3l-0.8,0.3l-0.8-0.7l-0.5-0.8l-0.7-0.7l-0.7-0.7l-0.8-0.7
		l-0.7-0.8l-0.3-0.8l-0.7-0.8l-0.7-0.7l-0.7-0.8l-0.3-0.8l-1-0.3l-0.8-0.2v-1l0.2-1l-0.2-1l-0.3-0.8l-0.8-0.5l-1,0.2l-1,0.3
		l-0.8,0.3l-1,0.3l-0.8,0.3l-1,0.2l-1,0.2l-1,0.2h-1l-0.7-0.5l-0.3-0.8l-0.8-0.5l-1,0.2l-1,0.2h-0.8l-0.7,0.7v1v1l-0.2,1l-0.5,0.7
		l-1,0.2l-0.7,0.5l-0.2,1v1l-0.2,0.8l-0.3,0.8l0.2,1l0.2,0.8l-0.8,0.5l-1,0.3l-1,0.2l-0.8-0.2l-1,0.2l-0.8,0.7l-0.5,0.7l0.2,1l0.3,1
		l0.2,1l-0.3,0.8l-0.2,0.8v1.1l0.3,0.8l0.3,0.8l0.7,0.8l0.3,0.8l-0.3,1l-0.7,0.7l-0.7,0.7l-0.8,0.7l-1,0.8l-0.7-0.7l-0.7-0.8
		l-0.8-0.3l-1-0.2l-1,0.3l-0.8-0.5l-0.8-0.2l-1,0.2l-0.8,0.3l-0.8,0.5l-0.7,0.7l-0.8,0.7h-1l-1,0.2h-1h-1h-1h-1l-1,0.2l-1,0.2h-1
		l-1-0.2L174,260l-1-0.3h-1l-0.8,0.5l-0.7,0.8l-0.2,0.5l-1,0.2l-0.7-0.5l0.3-0.8l-0.5-0.7l-1,0.3l-0.7,0.3l-0.3-0.8l-0.2-1v-1
		l-0.7-0.8l-0.8-0.5l-1-0.2l-0.8-0.3h-1l-0.8-0.5v-0.8l0.8-0.5l1-0.2l0.8-0.3l0.8-0.5l0.8-0.7l0.3-0.8l-1-0.3l-1,0.2l-0.8-0.3
		l-0.8-0.5l-0.8-0.5l-1-0.3l-0.8-0.2l-1-0.2l-0.7-0.7l-0.8-0.7l-0.8,0.2l-1,0.3l-0.8-0.3v-1v-1l-0.2-1l-0.3-0.8l-0.3-1v-1v-1
		l0.3-0.8l0.7-0.7l0.8-0.5l0.8-0.7l0.8-0.3l0.8-2.6l-1.8-2l-2.8-3.3l-0.8-3.8l-0.7-5.1l-0.5-3.8l0.8-3.1l-1-0.2l-0.8-0.2l-1-0.3
		l-0.8-0.2l-1-0.3l-1,0.3l-0.7,0.7l-0.3,0.8l-0.2,1l-0.2,1l-0.5,0.7l-0.8,0.5l-0.8,0.5l-1,0.2h-1l-1,0.2l-1,0.2l-0.8,1l-1.1,0.3
		l-0.8,0.3l-1,0.3l-1-0.2l-0.8-0.3l-0.8-0.7l-0.8-0.5l-0.8-0.5l-0.7-0.7l-0.5-0.8l-0.3-1l-0.2-1v-1v-1l-0.7-0.7l-1-0.2l-0.8-0.3
		l-1-0.3l-0.2-1l0.5-0.8l0.2-1v-1l0.7-0.7l0.7-0.7l0.2-1l0.3-0.8l0.5-0.8l0.2-1v-1l-0.7-0.7l-0.3-0.8l0.3-1l0.8-0.3l1,0.2l1.1,0.2
		l0.8-0.3l0.2-0.8l0.3-1l0.3-0.8v-1l-0.2-1v-1l-0.2-1v-1l0.2-1l0.2-1l0.2-0.8l0.2-1l0.3-1l0.2-0.8l1-0.3l0.8,0.5l1,0.3l0.8-0.5
		l0.5-0.8l0.2-0.8l-0.2-1v-1l0.2-1l0.2-1l0.2-1l0.2-0.8v-1l-0.2-1.1l0.2-1v-0.8v-1l0.2-1l0.3-1l0.3-0.8l0.7-0.7l0.7-0.8l0.7-0.7
		l0.5-0.8l0.2-1l0.2-1l-0.2-1l-0.2-0.8l-0.5-0.8v-1l0.2-1l0.7-0.7l0.7-0.7l-0.7-0.7l-1.3,0.5h-1l-1-0.3l-0.8-0.3l-0.7-0.7l-0.8-0.5
		l-1-0.2h-1l-0.8,0.3l-1,0.3l-0.8,0.5l-0.8,0.3l-1,0.3l-0.8,0.2l-0.8-0.2l-0.7-0.5l-1-0.2l-0.8-0.3l-1,0.2l-0.8,0.5l-0.2,1v1
		l-0.8,0.5h-1l-1-0.2l-0.8,0.2l-0.8,0.7l-0.5,0.8l-1-0.3l-1-0.3l-0.8-0.2l-1-0.2l-0.8-0.3h-1l-1,0.2l-1,0.2l-0.8,0.3l-0.8,0.5
		l-0.8,0.5l-0.8,0.3l-1,0.3h-1l-0.8-0.5l-0.8-0.7l-0.3-0.8l0.8-0.8l0.8-0.7l0.3-0.8l0.3-1l0.3-0.8v-1v-1l-0.2-1l-0.2-1v-1v-1v-1
		l0.2-1v-1l-0.2-1l-0.3-0.8l-1-0.2l-1,0.3l-0.8,0.2l-0.8-0.5l-0.7-0.7l-0.3-1l-0.3-0.8l-0.8-0.7l-0.8-0.3l-0.7-0.8l0.2-1l-0.3-0.8
		l-0.3-1v-0.8l0.3-1l-0.2-1l-0.2-1l-0.7-0.2l-0.5-0.8l-0.7-0.7l-0.8-0.7l-1-0.3l-0.8-0.2l-0.5,0.8v1l0.2,1l-0.3,0.7l-0.3,0.8
		l-0.8,0.3l-0.8,0.5l-1,0.2l-0.3-0.8l-0.3-1l-1-0.2l-0.5-0.8l-0.3-0.8l0.2-1l-0.3-0.8l-0.5-0.8l-0.8-0.7l-0.7-0.7l-0.8,0.3l-0.8,0.5
		l-0.8,0.7l-0.8,0.3l-0.8,0.3l-1,0.3l-0.8,0.3l-0.8,0.5l-1,0.3l-0.8,0.2l-1-0.2l-0.3-1l-0.5-0.8l-0.3-0.8l-0.5-1l-0.7-0.7l-0.7-0.7
		l-1-0.3l-0.8-0.5l-0.8-0.2l-1,0.3l-0.7,0.8l-0.3,0.8l-0.8,0.7l-1-0.2l-0.8-0.3l-0.8-0.3l-1,0.2l-0.8,0.5l-0.8,0.3h-1h-1l-1-0.2h-1
		l-1-0.2l-0.8-0.2l-1-0.3l-0.8-0.7l-0.3-0.8l-0.5-0.8l-1-0.3l-0.3-1l-0.8-0.7l-0.8-0.3l-0.8-0.5l-0.8-0.7l-0.8-0.5l-0.7-0.7l-1-0.5
		l-0.8-0.3l-0.8-0.5l-0.7-0.7l-0.5-0.8v-1l0.2-0.8l0.3-1l0.7-0.8l0.3-0.8v-0.8l-0.8-0.7l-0.8-0.5l-0.8-0.3l-0.8-0.5l-0.8-0.5
		l-0.8-0.5l-0.8-0.7l-0.5-0.8v-0.8l-0.2-1l-0.5-0.8l-0.3-0.8l-0.2-1l0.3-0.8l0.2-1l-0.3-0.8l-0.2-1l-0.3-1l-0.2-0.8l-0.7-0.8
		l-0.8-0.5l-0.8-0.2l-1-0.2h-1.1l-0.8,0.3l-1,0.2l-0.8,0.3l-0.8,0.5l-1,0.3h-1l-0.8-0.3l-1-0.3l-0.5-0.8l-1-0.5l-0.8-0.7l-0.7-0.7
		l-0.7-0.8l-0.7-0.7l-0.5-0.8L21.7,97L21,96.4l-1-0.3l-0.8-0.2h-1l-1,0.2l-1-0.2l-1-0.2l-1-0.2h-1h-1h-1h-0.8h-1l-1,0.2l-1,0.2
		l-0.8-0.2l-1-0.2l-0.7-0.7l0.7-0.7l0.8-0.5l0.8-0.3L7,92.6l-0.8-0.5l-0.8-0.5L5,90.8L4.3,90l-0.8-0.3l-1-0.3l-1-0.2l-0.8-0.3
		l-0.7-0.7l-0.7-0.7l-0.5-0.8l-0.3-0.8l-0.5-0.8l-0.2-1l-0.7-0.8l-0.8-0.2l-1-0.3l-0.7-0.5l-0.3-1L-6,80.5L-6.8,80l-1,0.2l-0.8,0.2
		l-1.1,0.2h-1l-0.3-1.5v-1l0.2-0.8l0.2-1l0.2-1l-0.3-0.8l-0.8-0.7l-0.2-1l0.2-1l0.3-0.8l0.8-0.5l0.8-0.3l0.8-0.7v-1l-0.2-1v-1
		l-0.2-1v-1v-1l0.2-1v-1v-1l0.5-0.8l0.5-0.8l0.5-0.8l0.7-0.8l0.3-0.8l0.7-0.8h0.7l1-0.2l1-0.2l1-0.2l0.8-0.3l1-0.3l1-0.2l0.8-0.3
		l1-0.2L3,53.6l1-0.3l0.8-0.5l0.8-0.3L6.5,52l0.8-0.3l0.8-0.5l1-0.2h1l0.8,0.2h1l0.8-0.2l1-0.3h1l1,0.2l0.8,0.5l0.7,0.7h1l1,0.2
		l1-0.2l0.8-0.7l0.2-0.8l0.3-0.8l1,0.2l0.8,0.3l1,0.2l0.8,0.2l1,0.3l0.8,0.3l1,0.3l0.7,0.5l1,0.3h0.8l0.8,0.5l0.8,0.5h1l1,0.2
		l0.8,0.3l0.8,0.5l0.8,0.5l0.7,0.8l0.7,0.7l0.3,1l0.2,0.8l0.2,1l0.2,1l0.3,1l0.3,0.8l0.8,0.5l0.8,0.7l0.8,0.5l0.8,0.7l0.7,0.7
		l0.7,0.8l0.3,0.8l0.3,0.8l0.5,1l0.5,0.8l0.7,0.7l0.7,0.5l0.3,1L46.4,72l-0.3,0.8l-0.3,0.8l-0.3,1l-0.2,1l0.3,0.8l0.7,0.7l0.8,0.5
		l1,0.2l1,0.2l1,0.2l0.5,0.7l0.5,0.8l0.7,0.8l0.5,0.8l0.3,0.8l0.5,0.8l0.7,0.7l0.3,0.8v1.1l0.2,0.8v1l-0.2,1v1l0.7,0.7l0.7,0.7
		l0.5,0.8l0.5,0.8l0.5,0.8l0.7,0.7l0.8,0.5l0.8,0.5l1,0.3l0.8,0.2l1,0.3l1-0.2l1-0.3l0.2-0.8l-0.3-1v-1l0.5-0.8l0.3-0.8l-0.2-1
		L64,88.7l0.2-1l0.7-0.7l0.8-0.5l0.7-0.7v-1l0.2-1l0.3-0.8l0.7-0.7l0.8-0.5l1-0.3h1h1l1.3-0.3l0.5,1.3l0.8,0.5l0.2,0.8l0.2,1l0.3,1
		l0.3,0.8l0.8,0.7l0.7,0.8l0.7,0.7l0.7,0.7l0.8,0.7l0.8,0.5l0.8,0.5l1,0.2l1,0.2h1l0.8,0.3l1,0.2l0.8,0.2h1.1l0.8-0.2l1-0.2l1-0.3
		l0.8-0.2l0.2-0.5L91,90l0.8-0.5l0.8-0.5l0.8-0.3l0.8-0.5l0.8-0.3l0.8-0.7l0.5-0.8l0.3-1l0.2-0.8l0.8-0.5l1-0.2l1-0.2h1l1,0.2
		l0.8,0.5l0.7,0.7l1,0.3l0.8,0.2h1l0.3-1v-1l-0.2-0.8l-0.5-1l-0.3-0.8l-0.2-1v-0.8l0.2-1l-0.2-1.1v-1l0.2-0.8l0.2-1l0.5-0.8l0.8-0.5
		l1,0.2l1-0.2l1-0.2h1h1.1h1l0.8-0.2l1-0.3l-0.2-0.8l-0.3-0.8l0.3-0.8l0.8-0.3l1-0.2h1.1l1-0.2h1l0.8,0.3l1,0.3l0.7,0.7l0.7,0.7
		l0.8-0.2l1-0.3l1-0.2l0.8-0.2h1l1,0.2l1,0.2l1,0.5v1l0.2,1l0.7,0.7l0.7,0.8v1l-0.3,0.8l-0.3,0.8l-0.5,0.8l-0.2,1l0.7,0.5l1,0.2
		l0.8,0.5l1,0.2l1,0.2l0.8,0.2l1,0.3l0.5,0.8l0.2,1v1l-0.5,0.8l-0.7,0.7l-1,0.3l-0.8,0.5l-0.3,0.8v1l0.8,0.5l0.8,0.7l0.8,0.5
		l0.8,0.3l0.7,0.8l0.3,0.8v1.1v1l-0.3,0.8l-0.2,1V96l0.7,0.3l1,0.2l0.8-0.2l0.8-0.8l0.7-0.7l0.8-0.5l0.8-0.3l1,0.2h1l0.8-0.7
		l0.5-0.7l0.8-0.7l1-0.3l1,0.2h1h1l1-0.2l1-0.2h1l1-0.2l0.8-0.5l0.8-0.3l0.2-1l-0.2-1.1l0.2-1l0.2-0.8l0.5-0.8l0.5-0.8l0.7-0.8
		l0.2-1l0.2-1l-0.2-0.8l-0.5-1l-0.3-0.8l-0.2-1l-0.2-1l-0.2-1l-0.2-1v-1l0.2-1l0.3-0.8l0.7-0.7l0.5-0.8l0.5-0.8v-1v-1l-0.2-1l0.2-1
		l0.5-0.7l0.8-0.7h1l1-0.2l0.7-0.7l0.3-0.8l0.3-1l0.2-0.8l0.7-0.3l1,0.2l1,0.3l0.8,0.3h1h1l1,0.2l0.8,0.3l0.8,0.5l1,0.3l0.8-0.3
		l1-0.3h1l0.8,0.5l0.8,0.7l1-0.2l0.8-0.3l0.7-0.7l0.8-0.5l1-0.2l0.8-0.3l0.8-0.7l0.5-0.8l0.3-0.8l-0.3-1l-0.7-0.8l-1-0.2h-1
		l-0.8-0.5l0.2-1v-1l0.3-0.8l0.3-0.8l0.8-0.8l0.8-0.3l0.8-0.2l0.3-1.1v-1l-0.5-0.8l-0.3-0.8v-1l0.7-0.5l1,0.2l0.8-0.3l0.5-0.8l0.2-1
		l0.2-0.8l0.3-1l0.2-0.8l0.2-1l0.5-0.8l0.5-0.8l0.5-0.8l0.5-0.8l0.7-0.8l0.3-0.8l-0.2-1v-1l-0.3-1l-0.2-1l-0.3-1l0.7-1v-1v-1
		l0.5-0.7l1-0.5l0.8-0.2l1-0.3l0.5-0.8l0.5-0.8l1,0.2l0.7,0.7l0.8,0.3l1.1,0.2l0.8-0.3l1-0.2l1-0.2l1-0.3l1-0.2l0.8-0.2l1-0.2l1-0.2
		h1.1l0.8-0.2l1-0.2l0.8-0.5l1-0.2l1-0.3l0.7-0.7l0.3-0.8l0.2-1l-0.3-1l0.3-0.8l1-0.3l0.8-0.2l1-0.3l0.7-0.7l0.7-0.7l0.8,0.5l1,0.3
		h0.8l0.8-0.3l0.8-0.7l0.8-0.5h0.8l1,0.3h1l0.8,0.5l0.7,0.8L225.8,19.4L225.8,19.4"/>
	<path vector-effect="none" class="st0" d="M408.8,330.8l-0.5,0.8l-0.5,0.8l-0.8,0.3l-0.8,0.5l-0.8-0.5h-1h-0.8l-0.3-0.5l-0.5-0.3
		l-0.3-0.5l0.3-0.3h0.8l1-0.5l0.8-0.3l0.5-0.5l0.3-0.8l0.7-0.5l0.7,1l0.5,0.5l0.3,0.3L408.8,330.8L408.8,330.8"/>
	<path vector-effect="none" class="st0" d="M345,320.8l-0.8,0.3h-0.8l-0.5-0.5l0.5-0.8l0.5-0.8l0.3-0.3l1-0.5l0.3-0.8l0.8,0.2
		l0.5,0.3v0.8v0.8l-0.5,0.5l-0.5,0.3L345,320.8L345,320.8"/>
	<path vector-effect="none" class="st0" d="M243.8,52.5L243,53h-0.7l-1-0.2l-0.8-0.5l-0.8-0.5l-0.8-0.7l0.2-0.8h1l1,0.2l0.8,0.3
		l0.8,0.5l0.8,0.5L243.8,52.5"/>
	<path vector-effect="none" class="st0" d="M443.6,334.5l-0.3,0.8l-1-0.3l-0.8-0.5l-0.8-0.7l-0.2-0.8l1-0.3l0.8,0.5l0.8,0.5
		L443.6,334.5L443.6,334.5"/>
	<path vector-effect="none" class="st0" d="M362.7,311.3l0.3,0.7l-0.3,0.8l-1,0.3h-0.8l-0.8-0.5l-0.3-0.3l0.3-0.8h0.8l1,0.5
		L362.7,311.3L362.7,311.3"/>
	<path vector-effect="none" class="st0" d="M358,311.8l-0.3,0.5h-1l-0.8-0.5l-0.3-0.8l0.3-0.5l0.5,0.5h0.8l0.5,0.5L358,311.8
		L358,311.8"/>
	<path vector-effect="none" class="st0" d="M276.1,24.1l-0.7,0.5h-0.8v-1l0.3-0.8l1,0.3L276.1,24.1L276.1,24.1"/>
	<path vector-effect="none" class="st0" d="M225.6,43.1h-1v-0.7l0.5-0.8l0.8-0.3l0.2,0.8L225.6,43.1L225.6,43.1"/>
	<path vector-effect="none" class="st0" d="M384.7,335.2l-0.8,0.3l-0.3-0.8l0.7-0.7l0.2,0.7L384.7,335.2"/>
	<path vector-effect="none" class="st0" d="M269.4,25.6l-0.3,0.8l-0.8-0.5l0.5-1L269.4,25.6"/>
	<path vector-effect="none" class="st0" d="M354.1,312.6l-0.5,0.8l-0.5-0.5l0.2-1.3L354.1,312.6"/>
	<path vector-effect="none" class="st0" d="M359.9,314.9l-0.5,0.3l-0.8-0.5l0.8-0.3L359.9,314.9"/>
	<path vector-effect="none" class="st0" d="M274.9,10.4v1.1l-0.8-0.3v-0.8L274.9,10.4"/>
</g>
</svg>
