<?xml version="1.0" encoding="utf-8"?>
<!-- Generator: Adobe Illustrator 27.0.0, SVG Export Plug-In . SVG Version: 6.00 Build 0)  -->
<svg version="1.1" id="Layer_1" xmlns="http://www.w3.org/2000/svg" xmlns:xlink="http://www.w3.org/1999/xlink" x="0px" y="0px"
	 viewBox="0 0 500 500" style="enable-background:new 0 0 500 500;" xml:space="preserve">
<style type="text/css">
	.st0{fill:#E74646;stroke:#FFFFFF;stroke-width:4.6041;stroke-linecap:square;stroke-linejoin:bevel;stroke-miterlimit:3.998;}
</style>
<g transform="matrix(0.999751,0,0,0.999751,18.6633,21.7738)">
	<path vector-effect="none" class="st0" d="M475.4,177.1l1.1,2.2v0.6v0.6l0.2,0.8l0.2,0.4l0.4,0.3l0.3,1l-0.4,0.8l-0.3,0.3l-0.6,1.1
		v0.8v0.6l0.1,0.6l0.2,0.8l0.3,1.4l0.1,0.9v0.4l0.1,0.6v0.3v0.4v0.3l-0.1,0.6l-0.1,0.4l-0.4,0.9l-0.3,0.3l-0.3,0.3l-0.4,0.9
		l-0.1,0.4v0.4l0.4,0.7l0.3,0.3l0.6,0.3l0.2,0.9v0.4l0.2,0.4l0.2,0.4l0.1,1.1l-0.3,0.8l-0.3,0.7l-0.2,0.6l-0.3,0.3l-0.2,0.6
		l-0.2,0.4v0.4l0.2,0.7l0.3,0.3l-0.2,0.3l-0.3,0.2l-0.4,0.1l-0.7,0.1l-0.7,0.3l-0.2,0.8l0.1,0.3l0.2,0.3l-0.6,1.1l0.3,1.1l0.3,0.3
		l0.3,0.3l0.2,0.2l0.3,1.1l0.2,0.8l0.7,0.3l0.6-0.2l0.4,0.2l0.1,0.9v0.4l0.1,0.4L477,216l-0.3,0.4l-0.3,0.3L476,217l-0.9,0.3
		l-0.4-0.1l-0.8,0.1l-0.4,0.3l-0.3,0.1l-0.7-0.3l-0.4,0.2l-0.3,0.3l-0.2,0.6l0.1,0.6l0.6,0.8l0.2,0.2l0.3,0.3l0.4,0.3l0.1,0.4
		l-0.2,0.4l-0.2,0.3l-0.4,0.2l-0.8,0.1h-0.3h-0.8l-0.6,0.1h-0.4l-0.6-0.1l-0.3-0.2h-0.4l-0.9,0.4l-0.6,0.4l-0.2,0.3l-0.3,0.3
		l-0.6,0.1l-0.4-0.1h-0.6l-1-0.4l-0.7-0.1l-0.9,0.3l-0.4,0.1l-0.7,0.6l-0.2,0.4l-0.2,0.8v0.4v0.7l-0.2,0.3h-0.7l-0.3-0.1l-0.8,0.3
		l-0.3,0.6l-1.1-0.6l-0.8-0.2l-1,0.4l-0.4,0.2l-0.6,0.6l-0.7,0.6l-0.6,0.6l-0.2,0.3l-0.3,0.3l-0.2,0.2l-0.2,0.3l-0.3,0.2h-0.4
		l-0.7,0.2l-0.4,0.3l-0.4,0.8l-0.4,0.6l-0.2,0.3l-0.3,0.3l-0.3,0.2l-0.4,0.2l-0.2,0.3l-0.3,0.2l-0.4,0.2l-0.3,0.3l-0.2,0.3l-0.3,0.3
		l-0.2,0.3l-0.2,0.4l-0.1,0.4l-0.1,0.4l-0.6,0.8l-0.4,0.3v0.8l0.8,0.3h0.4l0.6-0.1l0.4,0.1l0.4,0.2l0.6,0.3l0.3,0.1l0.6-0.1l0.9-0.4
		l0.7-0.3l0.4-0.2l0.4-0.1l0.8-0.1h0.4l0.6,0.2l0.3,0.2l0.4,0.3l0.6,0.4l0.2,0.3l0.3,0.3l0.4,0.6l0.2,0.3l0.3,0.6l0.4,0.6l0.3,0.2
		l0.6,0.4l0.4,0.7l0.3,0.8l0.2,1l-0.1,0.7l-0.1,0.7l-0.1,0.3l-0.3,0.3l-0.8,0.2l-1,0.3l-0.1,0.4v0.4v0.7l0.3,1l0.3,0.6l0.9,0.4
		l0.6,0.3l0.4,1.4l0.4,1l0.4,0.2l0.4,0.2l0.4,0.2l0.4,0.2l0.6,0.1l0.1,0.3l-0.4,0.2h-0.6l-0.4-0.1l-0.4-0.1h-0.4l-0.9,0.1l-0.6-0.3
		l-0.4-0.9V254v-0.4l-0.3-1.1l-0.3-0.2l-0.4-0.3l-0.3-0.6l-0.3-0.4l-0.4-1.4l-0.3-0.4l-0.3-0.3l-0.3-0.4l-0.4-1.1l-0.6-0.8v-0.4
		l-0.1-0.6l-0.2-0.6l-0.2-0.4l-0.7-0.2l-0.7,0.2l-0.2,0.3l-0.2,0.4l-0.1,0.6l0.3,0.9l0.3,0.4l0.4,0.7l0.1,0.6l-0.2,0.4l-0.3,0.3
		l-0.3,0.3h-0.4l-0.9-0.1l-0.3-0.1l-0.6-0.3l-0.3-0.3l-0.2-0.6l0.2-0.8l0.2-0.6l0.1-0.3l-0.2-0.6l-0.3-0.3l-0.4,0.2l-0.3,0.2
		l-0.3,0.4l-0.3,0.4h-0.4l-0.4-0.4l-0.4-0.4l-0.3-0.4l-0.2-0.2l-0.9-0.6l-0.3-0.1l-0.9-0.3l-0.6-0.2l-0.3-0.2l-0.2-0.3l-0.4-0.6
		l-0.3-0.8l-0.4-0.6l-0.4-0.3l-0.6-0.1h-0.3l-0.4-0.1l-0.4-0.1l-0.8-0.6l-0.3-0.6l-0.2-0.4l-0.4-1.4l-0.1-0.6l-0.2-0.3l-0.2-0.4
		l-0.4-1.2v-0.4l0.1-0.4v-0.8l-0.1-0.8l-0.1-0.4l0.1-0.8v-0.4l-0.1-0.6v-0.4l0.1-0.4l0.1-0.4v-0.4v-0.3l-0.1-0.7l-0.7-0.2l-0.9,0.3
		l-0.6,0.2l-0.6,0.1l-0.4-0.1l-0.4-0.1l-0.7,0.1l-1.1,0.3l-0.3,0.2l-0.7,0.2h-0.8l-0.4-0.1l-0.4-0.2V228l0.7-0.6l-0.4-0.6l-0.1-0.8
		l0.2-0.3l0.3-0.6l0.3-0.4l0.1-0.6l-0.4-0.1h-0.4l-0.7-0.2l-0.7,0.3l-0.3,0.4L425,225l-0.2,0.3l-1.4,0.3l-0.3,0.2l-0.4,0.2h-0.9
		l-0.7-0.3l-0.3,0.2l-0.7,0.3l-0.7,0.2l-0.4-0.2l-0.2-0.4l-0.2-0.3l-0.2-0.4l-0.6-0.6l-0.6,0.1l-0.6,0.3l-1.8,1.7v0.4l0.8,0.1
		l0.3,0.2l-0.2,0.3l-0.7,0.3l-0.3,0.2l-0.3,0.4l-0.1,0.6l0.2,0.9l0.1,0.4l0.3,0.6l-0.6,0.2l-0.4,0.6l-0.1,0.3l0.2,0.7l0.1,0.8
		l0.2,1.1v0.6l-0.1,0.4l-0.3,0.3l-0.3,0.2l-0.3,0.2l-0.3,0.8l0.1,0.4l0.4,1.4l0.3,1l-0.2,0.4l-0.3,0.2l0.1,0.8l-0.2,0.4v0.3
		l-0.1,0.4v0.4l0.1,0.4v0.6v0.3v0.4l-0.1,0.4v0.4v0.6l0.2,0.4l0.7,0.3l0.3,0.2l0.6,0.2v0.6l-0.6,0.6l-0.1,0.4l0.3,0.3l0.3,0.3
		l-0.1,0.4l-0.3,0.1l-0.1,0.6l0.3,0.6l0.2,0.9l0.4,0.1v0.4l-0.3,0.7l-0.3,0.3l-0.4,0.4l-0.1,0.6l0.1,0.3v0.7l0.1,0.4l0.1,0.7
		l0.3,1.4l0.2,1.4v1.3l0.2,0.3l0.3,0.7l0.2,0.8l-0.1,0.3l-0.3,0.7l-0.1,0.3l-0.2,0.8l-0.2,0.3l-0.3,0.2L414,266h-0.8l-0.8,0.1
		l-0.3,0.1l-0.6,0.2l-0.4-0.2l-0.3-0.3l-0.4-0.4l-0.7-0.6l-0.6,0.1l-0.8,0.7l0.1,0.4l0.4,0.3l0.4,0.1l0.2,0.4l-0.2,0.3l-0.1,0.4
		l-0.1,0.3l-0.4,0.3l-0.3,0.3l-0.2,0.4l-0.1,0.6l0.4,0.3l0.3,0.4l-0.6,0.2l-0.3,0.4l0.2,0.7l-0.2,0.3l-0.4,0.1l-0.4-0.2l-0.3-0.3
		l-0.3-0.3l-0.3-0.2l-0.2-0.3l-1.1-0.8l-0.3-0.2l-0.4-0.3l-0.2-0.3h-0.4l-1.1-0.4l-0.2-0.3l-0.8-0.3l-0.3,0.3l-0.6,0.2l-0.7-0.4
		h-0.4h-0.4l-0.3,0.4v0.6l-0.2,0.4l-0.9-0.1l-0.1-0.4v-0.7l-0.9-0.2l-0.3,0.4l-0.1,0.4l-0.3,0.6l0.2,1l-0.4,0.2l-0.3,0.3v0.6v0.4
		l0.4,0.2l0.2,0.4l-0.9,0.3l-0.7,0.1h-0.6l-0.1,0.4l-0.8,0.7h-0.4l-0.2,0.4l-0.3,0.6l0.1,0.6l0.3,0.3l0.4,0.3l0.6,0.2l0.2,0.6
		l-0.2,0.4l-0.3,0.2l-0.4,0.1h-0.6l-0.2,0.3v0.6l0.4,0.1l-0.2,0.8l-0.2,0.3l-0.3,0.2v0.6l0.4,0.2v0.4l-0.3,0.3l-0.4,0.6v0.6v0.3
		l0.4,0.3h0.3l0.3,0.4v0.8l0.7,0.1l0.2,0.6l-0.4,0.2l-0.3,0.3l-0.3,0.7l-0.2,0.3l-0.4,0.2l-0.3,0.4v0.4l-0.1,0.8l-0.3,0.1l-0.7,0.8
		l-0.3,0.4l-0.4,0.3l-1.1,0.4l-0.6-0.3l-0.4,0.1v0.4l-0.1,0.3l-0.3,0.3l-0.3,0.1l-0.3,0.3l-0.2,0.3l-0.3,0.3v0.7l0.2,0.4l-0.3,0.8
		l-0.3,0.4l-0.4,0.2l-0.6,0.3l-0.6-0.2h-0.4l-0.4,0.7l-0.6,0.7l0.1,0.9l0.4,1.4v0.4v0.4l-0.1,0.3l-0.4,0.2l-0.4,0.3l-0.2,0.3
		l-0.3,0.3l-0.6,0.1l-0.3-0.1l-0.4-0.2l-0.7,0.1h-0.4l-0.7,0.1l-0.9-0.1l-0.4-0.1l-0.4-0.1h-0.6l-0.4,0.1l-0.8,0.3l-0.3,0.1
		l-0.6,0.2l-0.3-0.2l-0.3-0.3l-0.4-0.2l-0.3-0.1l-0.7,0.3l-0.6,0.8l-0.1,0.3l-0.2,0.4l-0.4,0.3l-0.6,0.4l-0.8,0.4l-0.4-0.1l-0.6-0.2
		l-0.2-0.4l-0.3-0.2l-0.9,0.1l-0.3,0.2l-0.7,0.3l-0.3,0.3l-0.2,0.4v0.6l-0.1,0.3l-0.2,0.4l-0.6,0.3l-5.1,0.3l-2.1,0.6l-1,0.3
		l-0.6,0.1h-0.4h-0.4h-0.6l-0.4,0.1h-0.6h-0.6l-0.7,0.1l-0.8,0.1l-0.9,0.2l-0.4,0.1l-3.1,0.9l-0.6,0.1l-0.7,0.2l-0.7,0.1l-0.9,0.1
		h-0.8h-0.4l-0.7,0.1l-0.7,0.2l-0.6,0.4l-0.7,0.4l-0.2,0.2l-0.6,0.3l1,1.7l1.1,1.5l0.3,0.1l0.8,0.6l0.2,0.3l0.2,0.6l0.1,0.4l0.1,0.4
		l0.3,0.7l0.3,1.4l0.2,1.8v0.3l-0.1,0.8v0.4v0.8l0.4,1.3l0.2,0.7l0.3,0.3l0.6,0.1l0.4,0.1l0.9,0.7l0.1,0.3l0.2,0.4l0.2,0.7l0.2,0.7
		l0.1,0.4l0.3,0.8l0.2,0.3l0.7,0.4l0.4,0.1h0.4l0.4,0.3l1.5,1l0.6,0.2h0.3h0.6l0.3,0.1l0.6,0.4l0.7,0.4l0.2,0.4l0.1,0.4l0.2,0.8
		l0.4,0.2l0.4-0.1l0.3,0.4l-0.1,0.7l0.3,0.1l0.4,0.1l0.3,0.6v0.8l0.3,0.6l-0.3,0.4l-0.4,0.4v0.4l0.2,0.6l0.2,0.3l0.1,0.8l-0.3,0.2
		l-0.3,0.4l-0.1,0.4l-0.1,0.6l-0.3,0.3l-0.3,0.4l-0.3,0.2l-0.2,0.3l0.2,1.7l-0.2,0.6v0.3l0.1,0.3l0.2,1.1l-0.1,0.3l-0.6,0.4v0.4v0.9
		l-0.3,0.4l-0.4,0.4l-0.7-0.1l-0.3,0.4l-0.2,0.3l-0.1,0.3l-0.1,0.3l-0.4,0.4l-0.4,0.2l-0.3,0.2l-0.2,0.2l-0.3,0.3l-0.3,0.6l-0.2,0.2
		h-0.7l-0.1-0.6l0.4-0.7l-0.3-0.7l-0.8,0.3l-0.6,0.6h-0.7l-0.4-0.2l-0.4,0.1l-0.4-0.7l-0.1-0.4l-0.3-0.2l-0.6,0.1l-0.6-0.7l-0.3-0.3
		l-0.1-0.6l-0.4,0.3l-0.2,1.3l-0.3,0.1l-0.3-0.3l-0.2-0.3l-0.9-0.2l-0.6-0.7l-0.3-0.1l-0.3-0.1l-0.3,0.1v0.9l-0.3,0.6l-0.4,0.1
		l-0.3,0.2h-0.6l-0.7-0.6l-0.4,0.1l-0.2,0.7l0.2,0.6l0.2,1l-0.4,0.1l-0.6-0.4l-0.4-0.2l-0.4,0.4l-0.2,0.4H335l-0.6-0.4l-0.7,0.1
		l-0.3,0.6l-0.4-0.3l-0.2-0.3l-0.4,0.1l-1.4,0.2l-0.8,0.6l-0.3,0.2h-1l-0.6,0.2l-0.3,0.3h-0.4l-0.4-0.2l-0.4,0.1l0.2,0.4l-0.3,0.7
		H326l-0.4-0.2l-0.4-0.1l-0.7-0.6l-0.9,0.2h-0.9h-0.4l-0.6-0.2l-0.4-0.3l-0.3-0.3l-0.3-0.2l-0.2-0.2l-0.4-1.3l-0.4,0.1l-0.3,0.4
		h-0.4l-0.3-0.4l-0.4,0.1l-0.3,0.2l-0.2,0.2h-0.4l-0.2-0.3l-0.6,0.1l-0.2,0.3v0.6l-0.6,0.4h-0.7l-0.4,0.2l-0.8,0.3L313,356l-0.2-0.3
		l-0.3-0.2l-0.4-0.1l-0.6,0.2l-0.4,0.1l-0.2,0.6l-0.1,0.4l-0.3,0.4l-0.6-0.1l-0.8-0.6h-0.4h-0.8l-0.6,0.1l-1,0.2l-0.4,0.1l-0.4-0.4
		l-0.1-0.6l0.4-0.4l0.4-0.2l0.1-0.9h-0.7l-0.3,0.3l-0.6,0.7l-0.6-0.3l-0.3-0.9l-0.4,0.1l-0.7,0.1l-0.4-1l-0.6,0.3l-0.4,0.3l-0.9-0.6
		l-0.7,0.2l-0.1,0.4l-0.4,0.4l-0.4-0.1l-0.2-0.6h-0.9l-0.7-0.4l0.4-0.6l0.1-0.7l0.4-0.3l0.2-0.3l0.2-0.3l0.1-0.3l0.2-0.3l0.8-0.2
		l0.3-0.2l-0.1-0.4h-1l-0.3,0.2l-1-0.2l-0.1-0.7l-0.4-0.3h-0.4l-0.4-0.1l-0.2-0.3l0.2-0.4l-0.3-0.6h-0.4h-0.6l-0.3-0.2l-0.8-0.6
		l-0.4-0.2h-0.4l-0.6-0.2v-0.7l0.1-0.6l0.8-0.3l0.7-0.2l0.1-0.3l-0.2-0.6l-0.3-0.1l-0.4,0.1l-0.4-1.1l-0.3-0.4l-0.1-0.7l-0.6-0.3
		l-0.6,0.3l-0.3,0.2l-0.6-0.1l-0.4-0.2v-0.4l-0.2-0.6l-1,0.1l-0.6-0.3l-0.9,0.2l-0.3,0.2h-0.6l-0.3-0.3l-0.1-0.4l0.4-1l-0.1-0.4
		l-0.7-0.4l-0.3,0.1l-0.4,0.2l-0.3,0.4l-0.3,0.2l-0.4,0.4l-0.4,0.3l-0.2,0.4l-0.1,0.4l-0.1,0.4l-0.1,0.3l-0.2,0.7v0.8v0.6l-0.1,0.6
		l-0.6,0.7H281l-0.6-0.6l-0.1-0.3l-0.4-0.2h-0.3l-0.3,0.4l-0.1,0.4l0.2,1l0.2,0.7l-0.1,0.4l-0.3,0.3l-1.1-0.6l-0.1-0.3l-0.3-0.3
		l-1.9-1.3l-0.4-0.2l-1,0.1l-0.1,0.3l-0.2,0.4l0.2,0.3l0.4,0.1l0.4,0.2l0.4,0.1l0.4,0.4v0.7l-0.2,0.4l-0.4,0.6l-0.2,0.2l-0.3,0.2
		l-0.1,1.4l-0.3,0.3l-0.4,0.1l-0.4,0.1l-0.1,0.3l-0.6,0.4l-0.4-0.1l-0.4-0.1l-0.4-0.1l-0.3,0.1l-0.2,0.4l0.2,0.8l-0.2,0.4l-0.1,0.3
		l-0.2,0.4l0.2,0.7l-0.4,0.6l-0.7,0.3l-0.3,0.2l0.1,0.4l0.4,0.4l0.3,0.7l0.4,0.3l0.4,0.6v0.8l-0.2,0.3l-0.2,0.4l-0.3,0.2l-0.4,0.6
		l0.2,0.7l0.1,0.8l-0.3,0.9l0.3,0.9l-0.2,0.3l-0.2,0.6l-0.1,0.3l-0.2,0.4l-0.2,0.4l-0.3,0.7l-0.2,0.4l0.3,0.4l0.1,0.4l0.1,0.6
		l0.1,1.2l0.1,0.4l0.3,0.3l0.6,0.7l0.4,0.4l-0.1,0.3l-0.2,0.3l-0.3,0.3h-0.4l-0.9,0.4V371l0.3-0.4V370l-0.8,0.1l-0.3,0.6l-0.2,0.3
		l-0.3,0.3l-0.7,0.4l-0.8,0.4l-0.2,0.3l-0.1,0.6l-0.2,0.4l-0.3,0.8l-0.2,0.4l-0.1,0.4l-0.1,0.4l-0.2,0.3l-0.4,0.2l-0.6,0.3l0.1,0.7
		l-0.4,0.9l-0.7,0.1l-0.2,0.4v0.8l0.3,0.8l-0.2,0.9l-0.4,0.3l-0.3,0.4l-0.2,0.3v0.4v0.3l-0.1,0.3l-0.2,0.4l-0.2,0.3l-0.3,0.3
		l-0.2,0.2l-0.2,0.4l-0.1,0.6v0.3l-0.2,0.4l-0.6,0.7l-0.3,0.7l-0.1,0.3l-0.4,0.3l-0.3,0.2l-0.2,0.3l-0.3,0.6l-0.6,0.6l-0.3,0.3h-0.6
		l-0.3,0.2l-0.2,0.7l-0.3,0.9l-0.3,0.2l-0.2,0.3l-0.8,0.2l-0.7,0.4l-0.1,0.4l0.2,0.3l0.1,0.3l0.2,0.8l0.1,0.7l-0.1,0.4l-0.2,0.6
		h-0.7l-0.1,0.7l0.2,0.7l0.1,0.7l-0.3,0.3H252h-0.6l-0.2,0.3l0.1,0.8l0.4,0.2l0.2,0.4l-0.7,0.8l-0.4,0.4l-0.2,0.3l0.1,0.7l-0.3,0.3
		l-0.2,0.2l-0.9,0.1l-0.6,0.1l-0.6,0.4L248,405l0.3,0.4l0.6-0.1l0.4-0.2l0.9,0.2l0.1,0.6l-0.3,0.3l-0.4,0.1l-0.4,0.1l-0.3,0.6h-0.3
		H248l-0.7-0.2l-0.4,0.6l-0.7,0.7l-0.4,0.1l-0.7-0.1l-0.3-0.1l-0.6-0.3v-0.4l-0.3-0.6h-0.7l-0.6,0.4l-0.3,0.2v0.4l-0.4,0.4l-0.3,0.2
		l-0.4,0.2l-0.3,0.4l-0.3,0.4l-0.4,0.2l-0.9,0.1l-0.4-0.4l-0.2-0.3l-0.4-0.3h-0.7l-0.2,0.4l0.1,0.8l-0.3,0.3l-0.9,0.3l-1.1-0.7h-0.6
		l-0.7-0.3l-0.2-0.6l-0.4-0.6l-0.7-0.3h-0.6h-0.7l-0.7,0.2l-0.4,0.3l-0.6,0.3l-0.6,0.4l-0.6,0.3l-0.6,0.3l-0.6-0.1l-0.1-0.6l0.2-0.7
		l0.2-0.6l0.3-0.2l0.4-0.6l0.3-0.6l0.3-0.6l0.7-0.2l0.3-0.4l0.1-0.7l0.1-0.7l0.2-0.6l0.6-0.2l0.6-0.1l-0.1-0.7v-0.7l-0.1-0.7
		l0.1-0.7l0.4-0.6l0.4-0.4l0.3-0.7l0.3-0.6l0.1-0.7l0.1-0.7v-0.6V396l-0.1-0.7l-0.7-0.2l-0.4-0.4l0.2-0.6l0.6-0.3l0.6-0.4l0.2-0.7
		l0.2-0.6l0.2-0.7l0.4-0.4l0.4-0.4l0.3-0.6l-0.4-0.6l-0.6-0.2l-0.7,0.1l-0.6,0.1l-0.6-0.4l-0.4-0.4V388l0.1-0.7l0.1-0.7V386
		l-0.1-0.7l-0.7-0.2h-0.7l-0.6-0.1h-0.7l-0.6-0.2l-0.2-0.6l-0.6-0.4h-0.7l-0.3,0.6h-0.7l-0.3-0.6l-0.1-0.7l-0.1-0.7l-0.6-0.8
		l-0.1-0.7l0.1-0.7l-0.3-0.6l-0.4-0.4l-0.6-0.4l-0.4-0.4l-0.7-0.1l-0.7-0.1l-0.6-0.3l-0.2-0.7l-0.3-0.6l-0.4-0.4h-0.7l-0.2-0.7
		l-0.3-0.4l-0.7-0.2l-0.1-0.6l0.1-0.7l-0.1-0.7l-0.2-0.7l-0.2-0.6l-0.4-0.4l-0.6-0.3l-0.2-0.6l-0.3-0.6l-0.6-0.3l-0.1-0.7l0.4-0.4
		l-0.3-0.6l-0.6-0.1l-0.7-0.2l-0.4-0.4l-0.2-0.7l-0.4-0.4l-0.3-0.9l-0.4-0.4l-0.2-0.7l-0.3-0.6l-0.1-0.6l0.2-0.7l0.1-0.6l-0.2-0.7
		l-0.2-0.6l-0.2-0.7l-0.3-0.4l-0.7,0.1l-0.7-0.1l-0.6-0.2l-0.7-0.3l-0.6-0.1l-0.8,0.1l-0.6,0.2l-0.6,0.3l-0.6,0.3l-0.4,0.1v-0.7
		l-0.1-0.7l-0.1-0.8v-0.7v-0.6l-0.1-0.7l-0.2-0.7l-0.4-0.4l-0.1-0.7l-0.3-0.6l-0.6-0.4l-0.6-0.4l-0.3-0.6l-0.2-0.6l-0.3-0.6
		l-0.2-0.7l0.1-0.7v-0.6v-0.7l-0.1-0.8V347v-0.6v-0.8l0.1-0.6l0.1-0.7l0.1-0.7l0.2-0.6l0.2-0.6l0.7-0.3l0.2-1l0.1-0.8l0.1-0.7v-0.7
		l-0.3-1l-0.1-0.6l0.2-0.7l0.2-0.7l0.4-0.6l0.3-0.2l0.1-1l-0.2-0.6l0.2-0.3l0.2-0.6l0.4-0.7l0.4-0.8l0.4-1l0.6-0.8l0.7-0.6l0.6-0.8
		l-0.2-0.6l-0.6-0.3l-0.4-0.1l-0.8-0.2l-0.4-0.1l-0.6-0.2l-0.7,0.1h-0.3h-0.7l-0.7-0.3l-0.4-0.4l-0.7-0.1l-0.6,0.2l-0.3,0.4
		l-0.1,0.7l-0.3,0.6l-0.8,0.4l-0.6-0.3l-0.1-0.7l-0.1-0.7l-0.2-0.7l-0.2-0.6l-0.6-0.3l-0.7-0.2l0.1-0.7l0.2-0.6l-0.4-0.4l-0.4-0.6
		l0.1-0.7l-0.4-0.2l-0.3-0.6l0.3-0.7l0.1-0.6l-0.1-0.7l-0.3-0.6l-0.4-0.4l-0.4-0.4l-0.7,0.1l-0.6,0.2l-0.6,0.3l-0.6,0.3l-0.6,0.2
		l-0.7-0.1l-0.6-0.2l-0.6-0.3l-0.1-0.7v-0.7l-0.3-0.6l-0.4-0.4l0.2-0.6l0.4-0.4l0.1-0.7l0.1-0.6v-0.7l-0.1-0.7l-0.2-0.7l-0.2-0.7
		l-0.3-0.4l-0.7-0.2l-0.4-0.3l-0.2-0.6l-0.7,0.1l-0.3-0.6l-0.2-0.6l-0.6-0.3l-0.9-0.3l-0.3-0.9l-0.6-0.3l-0.7-0.3l-0.3-0.4l0.2-0.7
		l-0.1-0.6l-0.3-0.6l-0.2-0.7v-0.7l0.3-0.6l0.1-0.7l-0.3-0.6l-0.2-0.6l0.1-0.7l-0.1-0.7l-0.1-0.7l-0.6-0.3l-0.7,0.2l-0.6,0.2
		l-0.4,0.4h-0.6l-0.7-0.2l-0.6-0.4l-0.1-0.6l0.1-0.7l-0.3-0.6l-0.6-0.3l-0.6-0.2l-0.6-0.4l-0.1-0.6l0.1-0.7l-0.3-0.6l-0.4-0.6
		l-0.1-0.6l0.3-0.6l0.3-0.7l-0.3-0.6l-0.4-0.4l0.3-0.6v-0.7l-0.3-0.6l-0.3-0.6l-0.3-0.6l-0.6-0.4l-0.7-0.1l-0.6-0.2l-0.7-0.1
		l-0.6,0.3l-0.2,0.6l-0.2,0.6l-0.3,0.6l-0.6,0.4l-0.6-0.3l-0.4-0.4l-0.2-0.7l-0.1-0.7l-0.1-0.7l-0.3-0.6l-0.3-0.6l-0.2-0.6v-0.7
		v-0.7v-0.7l-0.1-0.7l-0.1-0.7v-0.7l-0.2-0.7l-0.1-0.7l-0.3-0.6l-0.1-0.7l0.1-0.7l0.2-0.6l0.2-0.7l0.2-0.6v-0.7l-0.1-0.7v-0.7
		l-0.3-0.6l-0.3-0.6l-0.3-0.6V272l0.1-0.6l0.2-0.7l0.1-0.7l-0.2-0.6l-0.1-0.7l0.1-0.7l0.1-0.7l-0.2-0.6l-0.3-0.6l-0.6,0.3l-0.7,0.2
		l-0.6,0.2l-0.6,0.2l-0.7,0.1l-0.6,0.3l-0.6,0.3l-0.6,0.4l-0.3,0.6l-0.3,0.6l-0.2,0.6l-0.3,0.6l-0.3,0.7l-0.4,0.4l-0.7,0.2h-0.7
		l-0.6,0.3l-0.3,0.6l0.1,0.7l0.1,0.7l-0.2,0.6l-0.3,0.6l-0.3,0.7l-0.2,0.6v0.7l0.1,0.7l0.3,0.6l-0.1,0.6l-0.6,0.3l-0.7,0.2l-0.3,0.6
		l-0.1,0.6l-0.2,0.7l-0.1,0.7l-0.3,0.6l-0.4,0.6l-0.3,0.6l-0.3,0.6l-0.3,0.6l-0.3,0.7l-0.3,0.6l-0.3,0.6l-0.6,0.4l-0.6,0.2l-0.6,0.2
		l-0.7,0.3l-0.4,0.4l-0.3,0.6l-0.4,0.8l-0.3-0.4l-0.1-0.7l-0.1-0.7l-0.6-0.4l-0.6-0.2l-0.7,0.1l-0.7,0.1h-0.7l-0.7-0.1l-0.6-0.3
		l-0.6-0.4v-0.8l0.3-0.6l0.6-0.3l0.6-0.3l0.4-0.4l0.4-0.4l0.3-0.6l0.2-0.7l0.1-0.6l-0.4-0.7l-0.7-0.3l-0.6-0.1H145l-0.7-0.1h-0.7
		h-0.6l-0.6-0.3l-0.3-0.6l0.1-0.7l0.2-0.7l0.3-0.6l0.3-0.6l0.4-0.6l0.3-0.6l0.4-0.6l0.4-0.4l0.2-0.6l0.3-0.7l-0.1-0.6l-0.6-0.4
		l-0.6-0.2l-0.6-0.3l-0.6-0.4l-0.6-0.3l-0.7-0.4l-0.6-0.3l-0.6-0.2l-0.6-0.3l-0.7-0.3l-0.6-0.4l-0.6-0.3l-0.4-0.4l-0.3-0.6l-0.3-0.6
		v-0.7l-0.1-0.7l-0.3-0.7l-0.2-0.6l-0.7-0.3l-0.6-0.1l-0.7-0.2l-0.3-0.6l-0.6-0.3l-0.6-0.3l-0.7,0.1l-0.4,0.4l-0.4,0.4l-0.3,0.6
		l-0.7,0.3h-0.6l-0.7-0.2l-0.4-0.4l-0.4-0.4l-0.3-0.6l-0.3-0.7l-0.2-0.6l-0.4-0.4l-0.6-0.2l-0.7,0.1l-0.4,0.3l-0.6,0.3l-0.7,0.3
		h-0.7l-0.6-0.3l-0.6-0.2l-0.4-0.4l-0.3-0.7l-0.6-0.3l-0.6-0.4l-0.6-0.3l-0.6-0.4l-0.4-0.4l-0.4-0.4l-0.6-0.3l-0.7-0.1H117l-0.4-0.4
		l-0.2-0.6l-0.6-0.4l-0.6-0.4l-0.6-0.2l-0.4-0.4v-0.7l0.1-0.7l-0.1-0.7v-0.7l-0.3-0.6l-0.6-0.3l-0.6-0.3l-0.6-0.3l-0.6-0.4l-0.7-0.2
		h-0.7l-0.4,0.4l-0.2,0.6l-0.4,0.6l-0.4,0.4l-0.4,0.6l-0.2,0.6l-0.1,0.7v0.6l-0.2,0.7l-0.2,0.6l-0.3,0.7l-0.1,0.6l0.2,0.7l-0.2,0.6
		l-0.4,0.9l-0.7-0.1l-0.6,0.2l-0.7,0.2h-0.7l-0.7,0.1h-0.7l-0.7-0.1l-0.6-0.2l-0.6-0.3l-0.6-0.3l-0.6-0.4l-0.6-0.4l-0.6-0.3
		l-0.6-0.3l-0.7-0.3l-0.3-0.4l-0.4-0.6l-0.4-0.4l-0.4-0.4l-0.4-0.4l-0.4,0.4l-0.2,0.7l-0.1,0.6l-0.1,0.7l-0.6,0.3l-0.6-0.1l-0.4-0.4
		l-0.3-0.6l-0.3-0.6l-0.4-0.4l-0.6-0.3l-0.7-0.2h-0.7h-0.7l-0.6-0.2l-0.6-0.3l-0.6-0.4l-0.1-0.7l0.3-0.6l0.1-0.7l-0.1-0.7l-0.2-0.6
		l-0.3-0.4l0.3-0.7l0.4-0.3l0.7-0.1l0.7-0.2l0.6,0.1l0.7,0.2l0.6,0.1l0.7,0.2l0.6-0.2l0.1-0.7l-0.2-0.6l-0.3-0.6l-0.4-0.4l-0.3-0.6
		l0.4-0.4l0.6,0.2l0.7,0.3l0.6,0.1l0.7-0.2l0.6-0.3l0.2-0.6l0.1-0.7l0.1-0.6l0.2-0.7l0.2-0.6l-0.1-0.7l-0.2-0.6l-0.2-0.7l-0.2-0.7
		l0.1-0.6l0.1-0.7V239l-0.3-0.6l-0.3-0.6l-0.4-0.4l-0.6-0.4l-0.4-0.4l-0.6-0.4l-0.6-0.3l-0.1-0.6l0.3-0.6l0.2-0.7v-0.7l-0.1-0.6
		l-0.2-0.7l-0.2-0.7l-0.1-0.7l-0.2-0.6l-0.2-0.7l-0.1-0.7l-0.1-0.7l-0.1-0.7l-0.4-0.4l-0.4-0.4l-0.4-0.6l-0.3-0.4l-0.3-0.6l-0.4-0.6
		l-0.2-0.6l-0.3-0.6l-0.3-0.6l-0.6-0.3l-0.6-0.4l-0.4-0.4l-0.3-0.6l-0.3-0.6l-0.3-0.4l-0.4-0.4l-0.7-0.2l-0.7-0.2l-0.3-0.4l-0.3-0.6
		l-0.3-0.6l-0.4-0.4l-0.3-0.6l-0.2-0.7l0.1-0.7l0.2-0.9l0.3-0.6l0.2-0.6l0.1-0.7v-0.7l-0.1-0.7l0.1-0.7v-0.6l0.1-0.7l0.1-0.7
		l-0.4-0.4l-0.6-0.1l-0.7-0.2l-0.7-0.1l-0.6-0.2l-0.6-0.3l-0.4-0.6l-0.2-0.6l-0.3-0.6l-0.2-0.6l-0.3-0.6l-0.2-0.6l-0.4-0.6l-0.3-0.6
		l-0.4-0.4l-0.4-0.4l-0.3-0.6l-0.4-0.4l-0.4-0.6l-0.3-0.4l-0.4-0.6l-0.3-0.4l-0.6-0.4H72l-0.4-0.4l-0.4-0.4l-0.7-0.2l-0.6-0.1
		l-0.7-0.3l-0.3-0.6l-0.3-0.6l-0.1-0.6l-0.1-0.7v-0.7l0.2-0.7V193l-0.1-0.7l-0.1-0.7V191v-0.7v-0.7l-0.1-0.7l-0.2-0.7l-0.2-0.6
		l-0.2-0.7H67l-0.6,0.1l-0.4,0.6l-0.6,0.4l-0.6,0.2l-0.6,0.1l-0.7,0.1H63l-0.4,0.6l-0.4,0.4l-0.4,0.6l-0.4,0.4l-0.3,0.6l-0.3,0.7
		l-0.4,0.4l-0.4,0.4l-0.4,0.6l-0.6,0.3l-0.4,0.4l-0.4,0.4l-0.6,0.4l-0.4,0.4l-0.6,0.3l-0.4,0.4l-0.6,0.3l-0.6,0.3l-0.4,0.3l-0.6,0.3
		l-0.6,0.3l-0.6,0.3l-0.6,0.2l-0.6,0.3l-0.6,0.3l-0.2,0.7l-0.1,0.6l-0.2,0.7l-0.4,0.4l-0.7,0.2l-0.7,0.1l-0.2,0.6l-0.3,0.6l-0.3,0.7
		l-0.4,0.4l-0.6,0.4l-0.6,0.2l-0.6,0.2l-0.7,0.2l-0.6,0.3l-0.4,0.4l-0.4,0.4l-0.4,0.6l-0.4,0.4l-0.4,0.6l-0.4,0.4l-0.6,0.2l-0.6,0.3
		L40,209l-0.4,0.3l-0.4,0.6l-0.4,0.4l-0.7,0.2l-0.6,0.3l-0.7,0.1l-0.6,0.1l-0.7,0.1l-0.7,0.1l-0.7-0.1h-0.7h-0.7l-0.6-0.1l-0.7-0.2
		l-0.6-0.3l-0.6-0.3L30,210l-0.6-0.4l-0.9-0.6l0.2-0.4l0.1-0.7v-0.6v-0.7L29,206v-0.7v-0.7v-0.6v-0.7l-0.1-0.7l-0.1-0.7v-0.7
		l-0.1-0.7l-0.1-0.7l-0.1-0.7l-0.1-0.7l-0.1-0.7v-0.7l-0.1-0.7l-0.2-0.6l-0.3-0.6l-0.6-0.3l-0.6,0.2l-0.6,0.3l-0.7,0.2l-0.6-0.3
		l-0.4-0.4l-0.1-0.7L24,194l-0.1-0.6l-0.2-0.7l-0.4-0.8l-0.2-0.6l-0.4-0.6l-0.4-0.4l-0.6-0.4l-0.6-0.2l-0.7-0.2l-0.7,0.1l-0.6,0.2
		l-0.7-0.2V189v-0.7l-0.2-0.6l-0.6-0.4l-0.2-0.6v-0.7l0.2-0.7l-0.1-0.6l-0.4-0.6l-0.4-0.4l-0.1-0.7l-0.1-0.7l-0.1-0.7l0.1-0.6
		l0.1-0.7l0.4-0.4l0.3-0.6l-0.2-0.6l-0.6-0.1l-0.7,0.1l-0.7-0.1l-0.4-0.4l0.2-0.7l0.6-0.3l0.7-0.1l0.7,0.1l0.6-0.1l0.7-0.2l0.6-0.3
		l0.4-0.4l-0.3-0.4l-0.7-0.1h-0.7l-0.7,0.1l-0.6-0.1l-0.7-0.2l-0.3-0.6l-0.2-0.7l-0.1-0.6l-0.2-0.7l-0.3-0.6l-0.3-0.6l-0.4-0.4
		l-0.6-0.3l-0.6-0.3l-0.4-0.6l-0.3-0.4l-0.1-0.7l0.6-0.3v-0.6l-0.7-0.1l0.1-0.7l0.7-0.1H13l0.6-0.2l0.3-0.6l-0.1-0.7l-0.2-0.7
		l-0.1-0.7l-0.1-0.7l-0.1-0.7l-0.1-0.7l-0.1-0.7v-0.7v-0.7v-0.6l0.1-0.7l0.1-0.6l0.3-0.7l0.2-0.6l0.1-0.6v-0.7l-0.1-0.8l-0.1-0.7
		l-0.1-0.7l-0.1-0.7v-0.7v-0.6l-0.1-0.7v-0.7l0.2-0.7l0.2-0.6l0.3-0.6l0.4-0.6l0.6-0.3l0.6-0.2l0.6-0.3l0.6-0.3l0.3-0.6l0.3-0.6
		l0.3-0.6l0.2-0.6l0.2-0.7l0.1-0.6l-0.1-0.7l-0.1-0.7l-0.7-0.7l-0.4-0.3l-0.7-0.3l-0.6-0.1l-0.7-0.2l-0.6-0.1l-0.7-0.2l-0.6-0.1
		l-0.2-0.6l-0.3-0.6l-0.2-0.6l-0.1-0.7l-0.1-0.7v-0.7v-0.7l0.1-0.7l0.2-0.6l0.2-0.6l0.2-0.7l0.2-0.6V133l-0.2-0.7l-0.2-0.6l-0.4-0.4
		l-0.7-0.3l-0.6-0.1l-0.6-0.2l-0.7-0.2l-0.6-0.1L8.9,130l-0.4-0.6l-0.6,0.2l-0.4,0.4l-0.6,0.1l-0.7-0.3l-0.4-0.4l-0.3-0.6l-0.6-0.3
		l-0.2-0.7l-0.6-0.4L3.8,127l-0.4-0.6L3,125.9l-0.3-0.4l-0.3-0.6l-0.2-0.6l-0.2-0.7l0.1-0.7l0.2-0.6l0.2-0.7l0.1-0.6l0.2-0.7
		l0.1-0.6l-0.1-0.7l-0.3-0.6l-0.3-0.6l-0.4-0.4l-0.4-0.6l-0.4-0.4l-0.3-0.4l-0.6-0.4l-0.6-0.3l-0.6-0.3h-0.7h-0.7h-0.7l-0.7,0.2
		l-0.6,0.1l-0.7,0.2l-0.4,0.4l-0.6,0.4l-0.4,0.3l-0.6,0.3l-0.6,0.3l-0.6,0.1l-0.7,0.3l-0.6-0.2l-0.6-0.4l-0.6-0.3l-0.6-0.2l-0.6-0.2
		l-0.7-0.3l-0.6-0.2l-0.4-0.4l-0.2-0.6l-0.4-0.4l-0.9-0.4l-0.3-0.6l0.4-0.4h0.7h0.7h0.6l0.7-0.2l0.4-0.4l0.6-0.3l0.2-0.7l0.3-0.6
		l0.3-0.6V110l0.3-0.7l0.3-0.4v-0.7l-0.3-0.6V107l0.4-0.4l0.3-0.6l0.3-0.6l0.4-0.6l0.2-0.6l-0.2-0.7l-0.3-0.6l0.1-0.6l0.1-0.7
		l0.2-0.6l0.1-0.7l-0.2-0.6l-0.3-0.6l-0.4-0.4l-0.6-0.4l-0.4-0.4l-0.4-0.4l-0.2-0.6l0.2-0.7l0.4-0.4l0.6-0.4l0.6-0.3l0.6-0.2
		l0.7-0.1l0.4,0.2l0.4,0.4l0.3,0.6l0.4-0.4l0.6,0.3l0.4-0.3l0.6-0.2l0.6,0.2l0.3,0.4h0.7l0.6,0.3l0.6,0.2l0.7,0.2l0.6,0.3l0.6,0.1
		l0.7,0.2L1,98l0.6,0.4L2,98.8l0.6,0.3l0.6,0.3l0.6,0.3l0.4,0.4l0.3,0.6l0.1,0.7l0.2,0.6l0.3,0.6l0.6,0.3l0.6,0.3l0.7,0.2l0.6,0.2
		l0.6,0.2l0.7,0.3l0.6,0.3l0.6,0.3l0.6,0.3l0.6,0.4l0.4,0.4l0.6,0.3l0.6,0.1h0.7l0.7-0.1l0.4-0.6l0.4-0.4l0.4-0.6l0.4-0.4l0.4-0.4
		l0.4-0.4l0.4-0.6l0.4-0.4l0.3-0.6l0.2-0.7l0.1-0.6l-0.1-0.7v-0.7l0.3-0.6l0.6-0.2l0.7,0.1l0.6,0.1l0.7,0.2l0.6,0.3l0.6,0.3l0.6,0.4
		l0.6,0.4l0.4,0.4l0.4,0.4l0.4,0.4l0.3,0.6l0.2,0.6l0.2,0.7l0.2,0.6l0.2,0.6l0.6,0.7l0.4,0.3l0.3,0.6l0.6,0.3l0.6,0.3l0.6,0.1
		l0.7,0.2l0.6,0.2l0.6,0.2l0.7,0.3l0.6,0.1l0.7,0.2l0.6,0.2l0.7,0.1l0.6,0.3l0.4,0.4l0.6,0.3l0.7-0.2l0.6-0.2l0.6-0.3l0.2-0.7
		l0.3-0.6l0.4-0.4L38,107l0.4-0.4l0.4-0.4l0.3-0.6l0.2-0.6l0.2-0.7l-0.1-0.7l-0.2-0.6l-0.1-0.7l-0.1-0.7v-0.7l0.1-0.7l0.1-0.6v-0.7
		v-0.7l0.1-0.7L39,97.4l-0.2-0.7l-0.1-0.6l-0.2-0.7l-0.1-0.7l-0.1-0.7l-0.1-0.7L38,92.8l-0.2-0.7l-0.1-0.6L37.4,91l-0.2-0.7L37,89.6
		L36.7,89l-0.1-0.7l-0.2-0.7l-0.2-0.6L36,86.4l-0.2-0.7l-0.1-0.7l0.4-0.3l0.6-0.2l0.7-0.1l0.7-0.1l0.6-0.1l0.6-0.3l0.7-0.2l0.6-0.2
		l0.7-0.2l0.6-0.2l0.6-0.3h0.7h0.7l0.7-0.1l0.6-0.2l0.7-0.3l0.6-0.2l0.6-0.2l0.7-0.2l0.6-0.1l0.7-0.1l0.7-0.2l0.3-0.6l0.1-0.6
		l0.1-0.7v-0.6v-0.7v-0.7v-0.7l0.1-0.6l0.3-0.7l0.2-0.6v-0.7v-0.6l0.1-0.7l0.1-0.6l0.4-0.6l0.6-0.2l0.4-0.4l0.2-0.8l0.4-0.3l0.4-0.4
		l0.4-0.4l0.6-0.4l0.6-0.2H55l0.7,0.3l0.6,0.3l0.6,0.3l0.7-0.1l0.7-0.1l0.7-0.1l0.6,0.2l0.6,0.4l0.4,0.4l0.6,0.3l0.4-0.4l0.3-0.7
		l0.6-0.1h0.7h0.7h0.7l0.6-0.3l0.6-0.2l0.4-0.6l0.4-0.4l0.6-0.3h0.7l0.6,0.3l0.4,0.4l0.6,0.3l0.6,0.1h0.7l0.7-0.2l0.4-0.4l0.3-0.7
		l0.4-0.3l0.7-0.3l0.6-0.1l0.7-0.1h0.7l0.7-0.1l0.7-0.2l0.7-0.1l0.7-0.2l0.6-0.2l0.6-0.2l0.6-0.3l0.6-0.3l0.6-0.3l0.4-0.4l0.6-0.4
		l0.3-0.6l0.4-0.4l0.4-0.4l0.7-0.4l0.6-0.1l0.7-0.2l0.7,0.2l0.4,0.4l0.2,0.6l0.2,0.6l0.2,0.7l0.3,0.6l0.6,0.3l0.6,0.2l0.6,0.3
		l0.2,0.6l0.2,0.6l0.4,0.6l0.2,0.6l0.2,0.7v0.7v0.6l0.2,0.7l0.6,0.4l0.6,0.2h0.6l0.1,0.7l0.1,0.7l0.2,0.7l0.1,0.7l0.2,0.7l0.1,0.7
		l0.2,0.7l0.1,0.7l0.1,0.7l0.3,0.6l0.6,0.3l0.4,0.4l0.4,0.4l0.1,0.7L94,79.6l-0.3,0.6l0.3,0.7l-0.1,0.7l-0.1,0.7l-0.1,0.6l-0.3,0.6
		L93,83.7L92.4,84l-0.6,0.3L91.6,85l0.3,0.6l0.3,0.6l0.3,0.4l0.4,0.4l0.6,0.4l0.4,0.3l0.6,0.3l0.7,0.1h0.7l0.6,0.3l0.6,0.4l0.4,0.8
		v0.7L97.3,91l-0.4,0.6L96.5,92l-0.2,0.7l0.1,0.7l0.7,0.2l0.6,0.3v0.6l-0.4,0.4l-0.4,0.4l-0.4,0.4l-0.3,0.6v0.7l0.1,0.7l0.6,0.3h0.7
		h0.6l0.6,0.3L98,98.8l-0.4,0.4v0.6l0.3,0.6l0.7,0.1h0.7h0.6l0.6,0.4l0.6,0.2l0.3,0.4v0.7l0.3,0.6l0.6,0.1l0.6,0.4l0.2,0.7l0.1,0.7
		l0.3,0.6l0.4,0.4l0.6,0.3l0.6-0.2l0.6-0.3l0.6-0.4l0.6-0.2l0.6,0.2l0.4,0.6l0.6,0.7l0.6,0.1l0.6,0.3l0.3,0.6l0.1,0.7v0.7l0.3,0.6
		l0.4,0.4l0.7,0.2h0.7l0.6-0.2l0.4-0.4l0.6-0.3h0.7l0.6,0.4l0.3,0.6l0.1,0.6l-0.1,0.7v0.7l0.2,0.7l0.3,0.6l0.3,0.6l0.1,0.8l0.4,0.3
		l0.6,0.4l0.6,0.2l0.7-0.1l0.6-0.2l0.6-0.3l0.6-0.3l0.6-0.2l0.7-0.1l0.6,0.1l0.4,0.4l0.3,0.6l0.6,0.4l0.6,0.2l0.7,0.2l0.7-0.1
		l0.4-0.3l0.4-0.6l0.4-0.4l0.7-0.2l0.6,0.1l0.7,0.3h0.6l0.7-0.1l0.6-0.2l0.6-0.7l0.7-0.1l0.7-0.1l0.7-0.1l0.6-0.3l0.6-0.3l0.6-0.3
		l0.4,0.3l0.6,0.3h0.7h0.6l0.6-0.3l0.3-0.6l0.3-0.6l0.7-0.1l0.6,0.3l0.7,0.1l0.6-0.2l0.4-0.4l-0.1-0.7l-0.3-0.6l-0.3-0.6v-0.7
		l0.2-0.7l0.3-0.6l0.2-0.6v-0.7l0.2-0.6l0.6-0.2l0.7,0.1l0.6,0.3l0.6,0.3l0.6,0.3l0.7,0.3l0.6,0.1h0.7l0.6-0.2l0.7-0.2l0.6,0.3
		l0.3,0.4l0.3,0.7v0.7v0.6l0.2,0.7l0.4,0.4l0.2,0.6l0.6,0.4l0.4,0.4l0.2,0.7l0.4,0.4l0.3,0.6l0.7,0.1l0.7-0.3l0.4-0.4l0.6-0.4
		l0.6-0.3h0.7l0.6-0.2l0.7-0.2l0.7-0.2h0.6l0.7-0.3l0.4-0.3h0.7l0.6,0.2l0.7,0.3l0.6,0.1l0.2-0.4l-0.3-0.6l-0.1-0.7l0.4-0.4l0.7-0.1
		l0.7,0.1l0.6,0.3l0.6,0.2l0.7,0.2l0.7-0.1l0.6-0.2l0.6-0.4l0.4-0.4l0.3-0.6l0.2-0.6l0.4-0.6l0.4-0.3l0.6-0.4l0.3-0.6l0.1-0.6
		l-0.6-0.4l-0.6-0.4l0.1-0.7l0.7-0.1l0.6,0.4l0.6,0.2h0.7l0.6-0.2l0.6-0.4l0.4-0.3l0.6-0.3l0.4-0.4l0.6-0.4l0.4-0.4l0.4-0.4l0.4-0.6
		l0.6-0.3l0.7-0.1h0.6l0.7-0.1l0.7,0.1l0.7-0.2l0.7-0.1l0.3,0.8l0.4,0.6v0.7l-0.1,0.6v0.7l0.2,0.6l0.3,0.6l0.2,0.7v0.7l0.1,0.7
		l0.2,0.7l0.2,0.7l-0.1,0.6l-0.1,0.7v0.7l0.1,0.7l0.2,0.6l0.3,0.6l0.6,0.3l0.4,0.6l0.2,0.6l0.3,0.6l0.4,0.4h0.7l0.7,0.1l0.6,0.3
		l0.4,0.4l0.3,0.4l0.3,0.6l0.6,0.4l0.6,0.3l0.6,0.2l0.7,0.3l0.6,0.2l0.6,0.2l0.7,0.1l0.6,0.3l0.6,0.3l0.4,0.6l0.7,0.2h0.6l0.7-0.1
		l0.7-0.1l0.7,0.2l0.8,0.7h0.6l0.6,0.1v0.4l0.3,0.6l0.6-0.2h0.7h0.7h0.7h0.7l0.6,0.3l0.7,0.1l0.6-0.1l0.7-0.2h0.7l0.6,0.2h0.7
		l0.7-0.1l0.3-0.2l0.6-0.4l0.6-0.3l0.6-0.2l0.7-0.2l0.7-0.1l0.7-0.1l0.6-0.2l0.4-0.4l0.4-0.6l0.3-0.6l0.4-0.4l0.6-0.3l0.4-0.4h0.7
		h0.7l0.7-0.3l0.2-0.6l0.3-0.6l0.3-0.6l0.3-0.6l0.3-0.7l0.3-0.4l0.6-0.3l0.6-0.3l0.6-0.2l0.7,0.2l0.6,0.3h0.6l0.4-0.6l0.4-0.2
		l0.6,0.4l0.6-0.3l0.6-0.3l0.2-0.8l0.8,0.2h0.7l0.7,0.1l0.6,0.3l0.6,0.2l0.7,0.1l0.6,0.2l0.7,0.2l0.6,0.2l0.7,0.1l0.7,0.1h0.7
		l0.6-0.2h0.7l0.7,0.2l0.6,0.2h0.7l0.6,0.3l0.7,0.3l0.6,0.2l0.7,0.1l0.6,0.1l0.7,0.1l0.6,0.2h0.7l0.7-0.3l0.4-0.3l0.7-0.1h0.6
		l0.7-0.1l0.7-0.2l0.7-0.2l0.6,0.2l0.3,0.6l0.1,0.7l0.3,0.7l0.1,0.7l0.1,0.7l0.2,0.6l0.3,0.6l0.3,0.6l0.4,0.4l0.4,0.6l0.3,0.4
		l0.4,0.6l0.6,0.4l0.4,0.4l0.3,0.6l0.6,0.3l0.4,0.6l0.3,0.4l0.4,0.4l0.6,0.4l0.4,0.4l0.3,0.6l0.2,0.6l0.2,0.7l0.2,0.7l-0.1,0.7
		l-0.2,0.6l-0.6,0.3L250,128l-0.4,0.4l-0.4,0.6l-0.3,0.6l-0.2,0.7l-0.2,0.6v0.7v0.7v0.7l-0.1,0.7v0.6l0.1,0.7l0.1,0.7l0.2,0.7
		l0.2,0.7l0.2,0.6l0.3,0.6l0.3,0.6l0.6,0.4l0.6,0.3l0.3,0.6l0.4,0.4l0.2,0.3l0.3,0.6l-0.2,0.7l-0.1,0.6l-0.1,0.7l0.2,0.7l0.3,0.6
		l0.4,0.4l0.2,0.7l0.1,0.7v0.7v0.7l0.1,0.7l0.2,0.6l0.2,0.7l0.3,0.6l0.6,0.8l0.6-0.3l0.7-0.2l0.6-0.3l0.3-0.6v-0.7l-0.2-0.7l0.1-0.7
		l0.7-0.1l0.6,0.1l0.7,0.1l0.6-0.3l0.3-0.6l0.2-0.7l-0.1-0.6v-0.7l0.7-0.2h0.7l0.6,0.1l0.7,0.3l0.1,0.7l0.6,0.2l0.6,0.1l0.6,0.4
		l0.7,0.2l0.3-0.4l0.2-0.7v-0.6l-0.1-0.7l0.6-0.3l0.7-0.1l0.7,0.1l0.6,0.2l0.7,0.1h0.7h0.6l0.7-0.1l0.4-0.4l0.6-0.3l0.7-0.1h0.7
		l0.6,0.2l0.7,0.2l0.6,0.3l0.6,0.3l0.7,0.1l0.7,0.1h0.6l0.7,0.2l0.6,0.4l0.6,0.2l0.6,0.4l0.4,0.4l0.2,0.7v0.7l-0.1,0.7l-0.2,0.6
		l-0.3,0.6H278l-0.7-0.1h-0.7l-0.6,0.2l-0.6,0.3l-0.3,0.7v0.7l0.4,0.4l0.6,0.3v0.7l-0.1,0.7l0.3,0.6l0.6,0.3l0.7,0.2l0.4,0.4
		l0.2,0.6l0.2,0.7l-0.2,0.7l-0.4,0.6l0.1,0.7l0.7,0.4l0.6,0.4l0.3,0.4l0.3,0.6l0.7,0.3l0.6,0.3l0.4,0.6l0.4,0.4l0.4,0.4l0.7,0.3
		l0.4,0.4l0.4,0.4l0.6,0.4l0.6,0.3l0.7,0.1l0.4,0.4l0.2,0.7l0.1,0.7l0.1,0.7l-0.3,0.4l-0.7,0.3l-0.2,0.6l0.1,0.7l0.3,0.6l0.3,0.6
		l0.3,0.6l0.7,0.2l0.6,0.2l0.6-0.2l0.7,0.1l0.4,0.4l0.6,0.3l0.6,0.2l0.6-0.2l0.3-0.6v-0.7V169l0.6-0.3l0.4,0.4l0.3,0.7l0.1,0.7
		l0.1,0.7l0.2,0.6l0.2,0.7l0.1,0.7l0.1,0.7l0.2,0.7l0.2,0.7l0.2,0.6l0.6,0.4l0.6,0.2l0.7,0.2l0.7,0.2l0.6-0.1l0.4-0.4l0.4-0.6
		l0.6-0.3l0.7-0.1l0.6,0.3l0.4,0.4l0.3,0.6l0.2,0.3l0.6-0.6l0.6-0.3l0.7,0.1l0.6-0.3l0.4-0.4l0.6-0.3l0.6-0.4l0.4-0.6l0.4-0.4
		l0.4-0.4l0.7-0.2l0.4-0.3l0.1-0.6l0.2-0.7l0.3-0.4l0.6,0.2l0.7,0.1l0.6-0.3l0.6-0.3l0.4-0.4l0.3-0.6l0.2-0.6l-0.3-0.7l-0.6-0.3
		l-0.7-0.2l-0.6-0.2l-0.4-0.6l-0.3-0.4l-0.2-0.7l0.6-0.3l0.7,0.1l0.7-0.2v-0.7l-0.2-0.7l0.1-0.6l0.3-0.6l-0.3-0.6l-0.6-0.4l-0.6-0.3
		l-0.6-0.2l-0.4-0.4l0.2-0.6l0.1-0.7l0.2-0.7v-0.6l-0.2-0.7l-0.4-0.4l-0.4-0.4l-0.6-0.4l-0.3-0.6l-0.3-0.6l-0.1-0.7l0.3-0.6l0.4-0.4
		l0.7,0.1l0.7,0.2l0.6,0.4l0.9,0.1l0.4-0.4l0.4-0.3l0.6,0.1l0.7,0.3l0.2-0.6l0.1-0.7v-0.6v-0.7l0.1-0.7l0.2-0.6l0.1-0.7l0.1-0.7
		v-0.6l0.1-0.7l0.2-0.7l0.4-0.4l0.6-0.3l0.4-0.6l0.4-0.3l0.4-0.4l0.4-0.7l0.1-0.6l0.4-0.6l0.4-0.4l0.6-0.4l0.3-0.4l0.4-0.4l0.4-0.6
		l0.6-0.3l0.6,0.4l0.4,0.4l0.3,0.4l0.6,0.4l0.7,0.2l0.6,0.3l0.4,0.4l0.3,0.6l0.4,0.4l0.4,0.6l0.3,0.4l0.3,0.6l0.3,0.7l0.3,0.4
		l0.2,0.7l0.2,0.7l0.2,0.6l0.3,0.7l0.1,0.7l0.2,0.7l0.1,0.7l0.1,0.7l0.1,0.7v0.7l0.1,0.6v0.7v0.7v0.7v0.7l0.1,0.7v0.7l0.2,0.7
		l0.2,0.7l0.1,0.7l0.4,0.8v0.7l0.3,0.6l0.2,0.7l0.3,0.4l0.6,0.4l0.4,0.4l0.6,0.3l0.7,0.3l0.6,0.3l0.4,0.4l0.4,0.6l0.4,0.4l0.4,0.4
		l0.3,0.6l0.4,0.4l0.3,0.6l0.3,0.6l0.3,0.6l0.3,0.6l0.3,0.7l0.2,0.6l0.3,0.6l0.2,0.6l0.2,0.7l0.2,1l0.6,0.3l0.6,0.3l0.4,0.4l0.3,0.7
		l0.2,0.6l0.2,0.7l0.2,0.6l0.4,0.6l0.3,0.6l0.4,0.4l0.6,0.3l0.6,0.4l0.7,0.2l0.7,0.3l0.3,0.4l0.2,0.7l0.1,0.7l0.2,0.7l0.3,0.6
		l0.4,0.4l0.6,0.3l0.6,0.4l0.7,0.3l0.4,0.4l0.3,0.6l0.1,0.6l-0.1,0.7l-0.3,0.7l-0.4,0.4v0.7l0.6,0.4h0.7l0.7-0.2h0.7l0.6,0.2
		l0.4,0.4l0.2,0.7l0.1,0.7l0.3,0.6l0.7,0.3l0.4,0.4l0.2,0.6l0.3,0.7l0.1,0.7l0.3,0.6l0.3,0.6l0.3,0.6l0.3,0.6l0.3,0.6l0.2,0.6
		l0.3,0.7l0.3,0.6l0.3,0.6l0.6,0.3l0.6,0.3l0.7,0.2l0.6,0.1h0.7l0.4-0.6l0.3-0.6l0.7-0.2l0.6,0.2l0.7,0.3l0.6,0.3l0.7,0.1h0.7h0.7
		l0.7-0.1l0.4-0.4l0.4-0.4l0.6-0.3l0.6-0.3l0.6-0.3l0.9-0.2l0.2-0.3l0.6-0.4l0.4-0.4l0.6-0.6l0.6-0.3l0.7-0.1l0.7-0.2l0.6-0.4
		l0.4-0.4l0.3-0.6l0.1-0.6l-0.1-0.7v-0.7v-0.7l-0.1-0.7l-0.3-0.7l-0.3-0.4l-0.4-0.6L371,189v-0.7l-0.2-0.7V187l0.1-0.6v-0.7
		l-0.2-0.7l-0.4-0.4L370,184l-0.2-0.7l-0.2-0.6l-0.1-0.7v-0.7l0.2-0.7l0.3-0.6l0.4-0.6l0.4-0.4l0.6-0.2h0.7l0.6,0.3l0.7-0.2l0.3-0.4
		l0.3-0.6l0.6-0.3l0.6,0.3l0.7-0.2l0.7-0.2l0.4-0.4l0.4-0.6l0.3-0.6l0.2-0.7l0.2-0.6l0.4-0.4l0.7-0.3l0.3-0.6l0.2-0.6l0.2-0.7
		l0.3-0.6l0.6-0.4l0.7-0.1l0.6,0.2l0.7,0.2h0.7l0.6-0.1l0.6-0.3l0.6-0.3l0.6-0.3l0.6-0.3l0.6-0.3l0.7-0.2l0.7,0.1l0.7,0.1l0.6,0.1
		l0.7-0.1l0.4-0.4l0.6-0.4l0.6-0.1h0.7l0.6-0.3l0.3-0.6l0.6-0.3l0.6-0.3l0.6-0.3l0.1-0.6l-0.4-0.6v-0.7l0.1-0.7v-0.6l-0.4-0.6
		l-0.1-0.7l0.4-0.4l0.3-0.6l0.3-0.6l0.4-0.6l0.3-0.6l0.1-0.7l1-0.3l0.7-0.1l0.7-0.2l0.7-0.1l0.7-0.2l0.6-0.2l0.4-0.6l0.6-0.2
		l0.6-0.4l0.4-0.4l0.7-0.1l0.6,0.1l0.7,0.3l0.4,0.4l0.1,1l0.2,0.7v0.7l0.3,0.3l0.7,0.2l0.4,0.4l0.2,0.7v0.7l-0.1,0.7v0.6l0.1,0.7
		l0.3,0.6l0.3,0.6l0.2,0.7l0.3,0.6l0.6,0.4l0.6,0.3l0.7,0.2l0.7,0.1l0.7-0.2l0.6-0.3l0.2-0.6v-0.7l-0.1-0.7l0.2-0.6h0.7l0.4-0.3
		l0.1-0.7v-0.7v-0.7l0.2-0.6l0.3-0.7l0.4-0.4l0.6-0.3l0.6-0.4l0.6-0.3l0.7-0.2l0.3-0.4l0.2-0.7l-0.1-0.7l0.2-0.6l0.6-0.4l0.6-0.2
		l0.3-0.6l0.3-0.7l0.2-0.6v-0.9v-0.7v-0.7l0.2-0.7l0.3-0.6l0.3-0.7l0.6-0.3l0.6,0.2l0.1,0.7l0.3,0.4l0.2,0.7l0.1,0.7v0.7l0.1,0.7
		l-0.1,0.7l-0.1,0.6v0.7v0.7l0.1,0.7l0.4,0.6l0.4,0.4l0.4,0.4l0.6,0.4l0.3,0.6l0.1,0.7l0.2,0.7l0.3,0.7l0.2,0.6l0.2,0.7l0.2,0.6
		l0.3,0.7l0.3,0.6l0.4,0.4l0.3,0.6l0.3,0.6l0.4,0.4l0.4,0.4l0.4,0.6l0.3,0.6l0.3,0.6l0.2,0.7l0.6,0.2l0.6,0.2l0.3,0.6l0.3,0.6
		l0.2,0.7l0.2,0.7l0.4,0.4l0.3,0.6l0.4,0.6l0.3,0.6l0.3,0.4l0.3,0.7l0.3,0.6l0.6,0.3l0.7,0.2l0.7-0.1l0.7,0.1l0.6,0.1l0.7,0.2
		l0.7-0.1l0.7-0.2l0.7-0.2l0.6-0.2l0.7-0.1l0.4,0.6v0.7v0.7l0.4,0.4l0.7-0.1l0.6,0.1l0.7,0.3l0.6,0.2l0.7,0.2h0.7h0.7l0.7,0.2
		l0.6,0.1l0.7,0.1l0.7,0.2l0.6,0.4l0.4,0.4l0.6,0.4l0.4,0.3l0.7,0.4l0.6,0.2l0.7,0.3l0.6,0.4l0.4,0.4l0.4,0.4l0.4,0.4l0.6,0.4
		l0.4,0.4h0.6l0.6-0.4l0.4-0.4l0.7-0.1l1.9-2.3l0.2-0.7l0.3-0.6l0.4-0.6l0.4-0.4l0.7-0.2h0.7h0.6l0.7,0.2l0.6,0.3l0.7,0.3l0.6,0.3
		l0.7,0.3l0.6,0.3l0.7,0.3l0.6,0.3l0.6,0.4l0.6,0.3l0.7,0.2l0.4-0.4l0.2-0.7l0.4-0.4l0.4-0.6l0.4-0.4l0.4-0.4l0.4-0.4l0.6-0.4
		l0.4-0.4L475.4,177.1L475.4,177.1"/>
</g>
</svg>
