<?xml version="1.0" encoding="utf-8"?>
<!-- Generator: Adobe Illustrator 27.0.0, SVG Export Plug-In . SVG Version: 6.00 Build 0)  -->
<svg version="1.1" id="Layer_1" xmlns="http://www.w3.org/2000/svg" xmlns:xlink="http://www.w3.org/1999/xlink" x="0px" y="0px"
	 viewBox="0 0 500 500" style="enable-background:new 0 0 500 500;" xml:space="preserve">
<style type="text/css">
	.st0{fill:#E74646;stroke:#FFFFFF;stroke-width:4.6041;stroke-linecap:square;stroke-linejoin:bevel;stroke-miterlimit:3.998;}
</style>
<g transform="matrix(0.999751,0,0,0.999751,18.6633,21.7738)">
	<path vector-effect="none" class="st0" d="M475,219l0.5,2l-0.5,0.3l-0.5,0.3l-0.5,0.6l-0.5,0.5l-0.9,1.1l-0.9,1.2l-0.2,0.5v0.8
		l0.5,0.3l0.6,0.2l0.9,0.6l0.5,0.5l0.5,0.5l0.3,0.9l-0.5,0.6l-0.6,0.2l-0.8,0.3l-0.6,0.2l-2.2,0.6l-0.5,0.2l-0.6,0.6l-1.1-0.3
		l-0.8-0.5l-0.9,0.2l-0.5,0.6l-0.2,0.6l0.2,1.1l-0.2,0.6l-0.3,0.5l-0.3,0.6l-0.2,0.5l-0.5,0.6l-1.1,0.3l-0.5,0.2l-0.6,0.3l-0.9,0.3
		l-0.6,0.3l-0.9,0.8l-0.5,0.5l0.2,1.2l0.2,0.8l-0.5,0.6l-1.5,0.6l-0.5,0.2v1.1l0.2,0.5l0.3,0.5l0.2,0.6l-0.3,0.9l-0.9,0.3l-1.4-0.3
		l-0.9-0.5h-0.9l-0.6,0.3l-0.5,0.3l-0.5,0.2l-1.1,0.3l-1.2-0.3h-0.9l-0.2,0.9l-0.3,0.8l-0.5,0.3l-0.5,0.5l-0.3,0.6l-0.5,0.5
		l-0.5,0.2l-0.6,0.3l-0.6,0.3l-0.5,0.2l-0.9,0.6l-0.5,0.3l-0.6,0.3l-0.5,0.3l-0.5,0.5l-0.3,0.5l-0.6,0.3l-0.6,0.6l-0.8,0.6l-0.3,0.3
		l-0.5,0.3l-0.5,0.5l-0.5,0.2l-0.5,0.5l-0.3,0.3l-0.6,0.5l-0.6,0.6l-0.8,0.6L434,259l-0.6,0.3l-0.5,0.2l-0.5,0.5l-0.3,0.3l-0.5,0.6
		l-0.2,0.9l0.9-0.2l0.3-0.3l0.6-0.3l0.5,0.3l0.5,1.9l-0.2,0.6l-0.2,0.9l-0.2,0.6l-0.5,0.8l-0.5,0.6l-0.5,0.2l-0.6,0.2l-0.6-0.2h-0.6
		l-1.9,0.2l-0.6,0.2l-0.8,0.2l-0.9,0.6l-0.8,0.5h-0.8l-0.6-0.2l-0.6-0.8l-1.1,0.8v0.5l-0.3,0.6l-0.8,1.1l-0.3,0.6l-0.3,0.5l-0.3,0.6
		l-0.5,0.8l-0.9,1.1l-0.3,0.3l-0.8,0.8l-0.8,0.3l-0.6,0.5l-0.5,0.3l-0.8,0.8L415,277l-0.9,0.3l-0.5,0.3l-0.6,0.5l-0.5,0.5l-0.2,0.5
		l-0.2,0.8l0.2,1.2l-0.2,0.8l-0.3,0.6l-0.8,1.1l-0.5,0.5l-0.6,0.5l-0.6,0.5l-1.2,0.3l-0.6,0.2l-0.9,0.6l-0.6,0.6l-0.8,0.9l-0.5,0.5
		l-0.3,0.5l-0.6,0.9l-0.6,0.8l-0.3,0.5l-0.2,0.6v0.5l-0.8,0.5l-0.5,0.5l-0.5,0.6l-0.6,0.6h-0.6l-0.5,0.5l-0.5,0.9l-0.8,1.2l-0.3,0.5
		l-0.5,0.8l-0.8,1.1l-0.5,0.5l-0.5,0.5l-1.5,2l-0.3,0.5l-0.6,0.9l-0.8,1.2L392,305l-0.6,0.6l-0.9,1.4l-0.6,0.9l-0.5,0.6l-0.3,0.8
		l-0.3,0.6l-0.2,0.6l-0.2,0.6v0.6v0.9l0.6,0.6l0.6,0.3l0.3,0.5l0.3,0.6l0.3,0.6l0.2,0.8l0.2,0.6l-0.3,0.8v0.6v0.5l-0.2,0.8l-0.2,0.8
		l-0.3,0.6l-0.2,0.5l-0.8,1.1l-0.8,1.2l-0.3,0.5l-0.8,0.8l-1.1,0.3l-1.4,0.5l-0.9,0.5l-1.2,1.4l-0.3,0.6l-0.3,1.5v0.9v0.6v0.9
		l-0.2,0.8l-0.6,0.9l-0.5,0.3l-0.9,0.8l-0.9,0.3l-0.6,0.6l-1.5,0.2l-0.9,0.8l-0.6,0.2l-0.5-0.5l-0.6-0.2l-0.8-0.2l-0.6,0.2l-0.6,0.6
		l-0.9,0.3l-0.6,0.2l-0.3,0.8l-0.5,0.3l-0.8-0.5l-0.6,0.2v0.9l-1.4,0.3l-0.5-0.5l-1.1,0.5l-0.2-0.6l-0.6-0.5l0.5-0.6l-0.3-0.5
		l-0.8-0.5l-1.9,0.3l-0.6,0.3l-0.6-0.5l-0.6,0.2l-0.8,0.3l-0.6,0.2l-0.9,0.3l-0.9-0.6v-0.5l-0.6-0.5h-0.6l-0.8,0.2l-0.3,0.5
		l-0.3,0.8H354l-0.6,0.5l-0.5,0.5l-0.2,0.6l-0.5,0.6l-0.6,0.3l-0.6,0.3l-0.9,0.3l-0.9,0.3l-0.8,0.6l-1.2-0.2l-0.6-0.3l-0.8-0.9
		l-0.6-0.2l-0.8-0.2l-1.1-0.5l-0.5-0.3l-1.1-0.2l-0.6-0.6l-0.9-0.3l-0.6,0.3v0.8l-0.2,0.8l-0.2,0.5l-0.2,0.8L338,342l-0.5,0.5
		l-0.8-0.2l-0.5,0.3l-0.9,0.6l-0.6-0.2l-0.2,0.9l0.8,1.4l0.6,0.6v0.5l0.2,0.9l-0.3,0.5h-0.6l-0.2-1.2V346l-0.9-0.3l-1.1-0.6h-0.8
		v0.9l-0.9,0.5l-1.2,0.2l-0.9,0.8l0.3,1.1l-0.5,1.1l0.5,0.3v0.6l-0.5,0.3l-0.9,0.2L327,352l-0.8,0.3h-0.6l-0.5-0.9l0.6-1.1l0.3-0.8
		v-0.5l-1.2-1.5l-0.2-0.6l0.3-1.1l0.2-0.6l-0.8,0.2l-0.2,0.8l-0.6,0.6l-0.9,0.5l0.5,0.9h-0.9l-0.8,0.6l-0.8-0.3l-0.5-0.3l-0.6,0.3
		h-0.9l-1.1,0.8l-0.8,0.2l-0.9-0.5l-1.4-1.1l-0.8-0.2l-0.8-0.3l0.3,0.8l0.5,0.5l1.2,0.9l0.3,1.1L315,352l-0.5,0.6l-0.5,0.2h-0.8
		h-0.8l-0.2,0.9l0.8,0.3l1.2,0.5l0.5,0.3l0.3,0.5l0.9,0.5l0.8,1.2l-1.1,0.8l-0.8,0.2l-0.6,0.2h-0.9l-0.8-0.3l-0.9,0.3v0.9l0.2,0.8
		l-0.9,0.5l-0.6-0.3h-0.5l-1.1,0.6l-1.1,0.6l-0.2,1.1l-0.3,0.3l-0.9,0.2v-0.9l-0.2-0.6l-1.1-0.8l-0.9-0.2l-0.2-0.6h-0.5l-0.5,0.6
		l-0.3,0.5l-0.5,0.6l-0.3,0.5l-0.6-0.3l-0.9,0.2h-0.6l-0.5,0.6l-1.4-0.2l-1.1-0.3l-0.5,0.5l-0.5,0.6l-0.8,0.2l0.8,0.9l1.1,0.6
		l-0.6,0.6l-0.8,0.6l-0.3,0.6v0.6l-0.8,0.2l-1.1-0.3l-0.6,0.2l-0.8,0.9l-0.8-0.2l-0.6,0.2l-0.8,0.3l-0.9,0.6l-0.6,0.3l-0.6-0.2
		l0.2,1.2l-0.6-0.3l-0.5-0.3l-0.2,0.6l-0.3,1.2l-1.1,0.2l-1.2,1.2h-0.8l-0.6,0.8l-0.3,1.2l-0.9,0.2l-1.1,0.9l-0.9,0.8L279,377
		l-0.8-0.5l-0.8,0.5l0.2,0.6l-0.2,0.8l-0.6,0.8v1.1l-0.8,0.2l-0.3-0.6l-0.9-0.2l0.3-0.9l-1.1-0.3l-0.8,1.2l-0.3,0.6l0.2,0.8L273,382
		l0.6,0.6L273,383l-0.6,0.6l-0.3,0.5l-0.5-0.3l-0.8,0.3v0.8l-0.6,0.6l-0.6,0.8l-0.6-0.2l-0.2-0.5h-0.8l-0.5,0.6l-0.2,0.6l-0.3,0.5
		l-1.4,0.6l-0.3,0.8l-0.6,0.8l-0.5,0.5l-0.8,0.3l-0.5,0.3l-1.1,1.2l-0.9,0.5l-0.9,0.2l-0.8,0.3l-0.9-0.8l-0.8,0.2l-0.9,0.2l-0.6,0.3
		l0.2,0.8l-0.3,0.9l-0.8,0.2l-0.9,0.9h-0.6l-0.3,0.5l-0.3,1.1l-1.1,0.2l-0.5,0.5l-0.8,0.6l-0.3,0.5l-0.8,0.2l0.6,1.2l-0.2,0.6
		l-1.2,0.8l-0.6,0.6h-1.5l1.5,1.2l0.2,0.6l-0.5,0.8l-0.9,1.7l-0.5,0.5l-0.5,0.5l-1.1,0.5l-0.6,0.2l-0.9,0.3l-0.8,0.2l-0.2,0.5
		l-0.5,0.5l-0.9,0.8l-0.8,0.8l-0.9,0.5l-0.2,1.1l-0.5,0.5l-0.2,1.1l0.6,0.9l0.5,0.5l-0.5,1.1v0.9l0.8,0.3h0.8h0.9l0.6,0.5l-0.5,0.8
		l-0.8,0.3l-0.9,0.3l-0.5,0.3l-0.9,0.6l-0.8,0.6l-0.6,0.6l-0.8,0.5l-0.6,0.8l-0.8,0.3l-0.3,0.8l0.3,0.8l0.3,0.8l0.6,0.8l0.3,0.8
		l-0.5,0.8h-0.9l-0.8-0.3l-0.8-0.5l-1.4,0.2l-0.6,0.8l-0.8,0.5l-0.5,0.8l-0.5,0.8l-0.2,0.9l-0.6,0.6l-0.8-0.3l-0.9-0.2l-0.8-0.5
		l-0.8-0.5l-0.8-0.6l-0.8-0.3l-0.6,0.8l0.8,1.2l0.8,0.3l0.8,0.6v0.8l-0.8-0.3l-0.8-0.3l-0.9-0.2l-0.6-0.5h-0.9l-0.9,0.2l-0.6,0.9
		l0.2,0.9l0.5,0.8l0.3,0.8h0.9l0.5,0.9l0.2,0.8l0.8,0.6l0.6,0.5l0.5,0.9l-0.3,0.8l-0.6,0.8l-0.6,0.6l-0.9,0.3h-0.8l-0.8-0.5
		l-0.6-0.8l-0.2-0.8l-0.8-0.6l-0.6-0.6l-0.5-0.8l-0.5-0.8l-0.3-0.9l-0.5-0.6l-0.5-0.8l-0.8-0.6l-0.8-0.3l-0.9-0.2l-0.9-0.2l-0.8-0.3
		l-0.8-0.5l-0.9,0.2l0.5,0.8l0.5,0.8l0.5,0.6l0.9,0.3l0.2,0.8l-0.8,0.6h-0.9l-0.6-0.6h-0.9l-0.8,0.3l-0.9-0.2l-0.6-0.3l-0.3,0.8
		l-0.8,0.9l0.8,0.5l0.5,0.8l-0.3,0.9l-0.3,0.8l-0.5,0.8l-0.8,0.3l-0.9,0.3l-1.2,0.2l-0.8,0.6l0.5,0.8l0.9,0.3l0.5,0.6l0.8-0.3
		l0.8-0.5l0.9-0.2h0.8l0.9,0.2l0.6,0.8l0.5,0.6l0.9,0.5l0.8,0.2l0.9,0.3l0.5,0.8l-0.2,0.9l-0.2,0.9l-0.3,0.8l-0.8,0.6H211l-0.9,0.3
		l-0.8,0.3l-0.8,0.6l-0.8,0.3l-0.6-0.6l-0.9,0.3l-0.9,0.2l-0.8-0.6l-0.6-0.6l-0.8-0.3l-0.8,0.5l-0.8,0.6l-0.5,0.8l-0.8,0.6l-0.6,0.8
		l-0.6,0.6l-0.6,0.6l0.2,0.9l-0.5,0.8l-0.6,0.8l-0.8-0.3H196l-0.8,0.5h-1.1l-0.8,0.2l-1.4-0.2l-0.6,0.2l-0.8-0.3l-0.8,0.5l-0.9,0.2
		l-0.8-0.3l-1.2,0.5l-0.8,0.5l-0.9-0.2l-0.5,0.8l-0.5,0.8l-0.8,0.6l-0.8,0.5l-0.8,0.3l-0.8,0.5l-0.8,0.5l-0.8,0.5l-0.5,0.8l-0.5,0.8
		l-0.3,0.9l-0.2,0.8l-0.3,0.9l-0.5,0.8l-0.6,0.6l-0.8,0.5h-0.9l-0.9,0.3h-0.9h-0.9l-0.6-0.5l-0.3-0.9v-0.9l-0.2-0.9l-0.6-0.8
		l-0.3-0.8l-0.6-0.6l-0.2-0.9l0.2-0.9l-0.3-0.9l-0.2-0.9l-0.2-0.9l-0.2-0.9l-0.3-0.8l-0.3-0.9l0.2-0.9l0.6-0.6l0.8-0.6l-0.8-0.8
		l-0.8-0.3l-0.9-0.5l-0.5-0.8V450l0.2-0.9l0.6-0.6l0.5-0.8l0.6-0.8l0.5-0.8l0.8-0.5l0.9,0.2h0.9l0.9-0.2l0.8,0.2l0.8,0.6l0.9,0.3
		l0.8-0.5l0.6-0.8l0.8-0.3l0.8-0.5l0.6-0.6l0.6-0.6l0.5-0.3l0.8-0.3l0.9-0.5l0.5-0.8l-0.2-0.9l0.2-0.9l0.2-0.8l0.5-0.8l0.6-0.8
		l0.3-0.8l0.6-0.6l0.8-0.6l0.6-0.6l1.2,0.2l0.8,0.6l0.5,0.8l0.3,0.8l0.6,0.6l0.9-0.5h0.8l0.9,0.2h0.9l0.8-0.5l0.6-0.6l0.8-0.5
		l0.8-0.5l0.6-0.6l0.8-0.6l0.8-0.5l0.8-0.5h0.9l0.6-0.5l0.8-0.6l0.9-0.8l0.9-0.5l1.1-0.3l1.1-0.5l0.9-0.3l0.8-0.2l0.6-0.2l0.6-0.8
		l0.5-0.5l0.3-0.5l0.6-0.5v-0.8v-1.4l-0.8-0.8l-0.5-0.3l-0.8-0.5l-0.8-0.5l-0.8-0.2v-0.6l-0.6-0.5l-0.2-0.9l-0.5-0.8l-1.2,0.6
		l-0.9,0.3l-1.1-0.2l-0.8-0.5l-0.8-0.5l0.2-0.8l0.9-0.2l0.6-0.6l-0.3-0.6l-0.8-0.3v-0.9l0.8-0.3l0.6-0.6l-0.3-0.8l-0.6-0.8l-0.9-0.3
		v-0.9l0.9-0.6l0.9-0.2h1.2l0.8-0.3l0.8-0.3l0.8-0.5l0.8-0.5l0.8-0.6l0.6-0.6l0.8-0.5l0.6-0.6l0.6-0.8l-0.6-0.6l-0.8-0.5l0.2-0.9
		l0.8-0.5l-0.2-0.9l-0.2-0.9l-0.5-0.8l-1.1,0.8l-0.5,0.8L206,405l-0.6,0.6l-0.9,0.5l-0.9-0.2l-0.8,0.3l-0.8,0.5l-0.8,0.5l-0.8,0.5
		l-0.6,0.6l-0.9,0.2l-0.9-0.2h-0.9l-0.8-0.3l-0.6-0.6l-0.6-0.6l-0.6-0.8l-0.6-0.6l-0.8-0.5l-0.8-0.3l-0.8-0.5l-0.5-0.8l-0.8-0.5
		l-0.9,0.5l-0.6,0.5l-0.8,0.5l-0.9,0.3l-0.6,0.6l-0.5,0.8l-1.1,0.2l-0.8,0.6l-0.8-0.3l-0.8-0.3l-0.8-0.3l-0.9-0.3l-0.8-0.3l-0.8,0.5
		l-0.6-0.6l0.2-0.9v-0.9l-0.5-0.6l-0.5-0.9l-0.3-0.9l-0.2-0.9l-0.3-0.9l-0.3-0.8l-0.2-0.8v-1.1l0.3-0.8l0.6-0.5l0.8-0.5l0.6-0.8
		l0.6-0.8l0.6-0.6l0.5-0.8l0.5-0.8v-1.1v-0.9l-0.3-0.9l-0.2-0.9l-0.3-0.9l-0.2-0.9l-0.3-0.8h0.6l0.8-0.5l0.6-0.8l0.8-0.5l0.9-0.2
		l0.5-0.8l0.6-0.6l0.3-0.9l-0.5-0.8l0.2-0.8l0.9-0.2l0.8,0.2l0.6-0.2h0.9l0.6,0.5l0.5,0.5h0.8l0.6,0.9l0.3,0.9l0.3,0.8l0.2,1.2
		l-0.2,0.6l0.5,0.9l0.3-1.1l-0.2-0.8l0.3-0.5l0.6-0.2l0.8-0.6l1.4-0.5l-0.9-0.6l-1.2,0.3l-0.5-0.2V380l-0.5-0.9l-0.8-0.6l-0.5-0.8
		l-0.3-0.6l0.8-0.6l0.3-0.8l0.3-0.8l-0.9-0.9l-0.8-1.1l-0.5,0.2l-0.5-0.8l-0.3,0.9l-0.2,0.5l-0.5-0.3l-0.2-0.8l-0.3-0.6l-1.5-1.2
		l-0.6-0.8l-0.6-0.9l0.5-0.8l0.6-0.8l-0.3-0.9l-0.3-0.8l-0.5-0.8l-0.2-0.9l0.3-0.8l0.8-0.6l0.6-0.8l0.5-0.8l0.5-0.8l0.5-0.8l0.3-0.8
		l0.9-0.9h0.9h0.9l0.8-0.2l0.9-0.5l0.6-0.5l0.8-0.5l0.8-0.6l0.5-0.8l0.2-0.9l0.6-0.6l0.8-0.3l0.6-0.6l0.3-0.9h0.9l0.6-0.8l0.6-0.5
		l0.8,0.3l0.9-0.3l0.9-0.3l0.8-0.3l0.8-0.5l0.6-0.6l0.6-0.6l0.2-0.9l0.5-0.8l0.8-0.5l0.6-0.6l0.8-0.5l1.1-0.8l0.8-0.3l0.9-0.2
		l0.8-0.5l0.6-0.6V342l-1.1-1.4l-1.1,0.3l-0.5,0.8l-0.9-0.5l-0.8-0.3l-0.8,0.2l-0.9-0.2l-0.8-0.5l0.2-0.9l0.3-0.8l0.8-0.6l-0.2-0.9
		l0.6-0.6l0.9-0.2l0.9,0.3l0.8,0.2l0.8,0.5h0.6l1.1-0.2l0.9-0.6l0.5-0.8l0.5-0.9l0.9-0.9v-0.5l-0.5-0.8l0.8-0.9l0.3-0.8l0.3-0.8
		l0.8-0.2h0.9l0.6-0.5l0.8-0.5l0.8-0.5l0.3-0.8l0.2-0.8l0.6-0.9l-0.3-0.8l-0.8-0.2l-1.1,0.3l-0.8-0.6l-0.3-0.8v-0.9v-0.9l0.6-0.8
		l0.9-0.2h0.9l0.8,0.3l0.9,0.2l0.6-0.2l0.3-0.8l0.6-0.8l0.3-0.8l0.6-0.8l0.6-0.8l0.6-0.6l0.3-0.8l0.2-0.9l0.2-0.9l-0.3-0.9l-0.6-0.6
		l-0.3-0.9l0.5-0.8l0.6-0.6l0.5-0.8l0.6-0.5l0.6-0.8l0.5-0.8l0.6-0.8l0.8-0.5l0.5-0.8l0.2-0.8l0.2-0.9l0.2-0.9l0.3-0.8v-0.9
		l-0.6-0.8V300l0.3-0.8l0.3-0.9l0.5-0.6l0.9-0.2h0.9l0.6-0.6l0.5-0.8l0.5-0.8l0.9-0.6l0.5-1.7l0.9-1.2l-0.9-1.4l-0.8-1.1l-0.5-0.3
		l-1.1-0.8l-1.5-1.2l-0.6-0.5l-1.4-0.8l-1.1-0.8l-0.6-0.2l-1.4-0.8l-1.1-0.8l-0.3-0.9l-0.3-1.1l0.5-1.4l0.6-1.5l0.2-0.9l-0.3-0.8
		l-0.3-1.1l-0.5-0.8l-0.3-0.9l-0.9,0.8l0.6,0.3l-0.5,0.6l-0.5,0.3l-0.6-0.5l-1.2-1.1l-1.1-0.6l-0.3-0.5l-0.6-0.5l-1.1-0.3l-1.1-1.1
		l-0.2-0.8l-1.1-0.2l-0.5-0.3l-0.6-1.1l-0.6-0.5l-0.9-0.9l-0.9-0.6l-0.9-0.6l-0.8-0.8l-0.8,0.3l-0.2,0.9l-0.9-1.2l0.2-0.8l0.5-0.3
		l0.9-0.6l-0.2-0.8l-0.6-0.3l-0.2-0.9l0.3-0.9l0.8-1.5l-0.3-0.3l-0.8,0.2l-0.2-1.1l-0.8,0.5l-0.2-1.2l-0.2-2.5l-0.2-0.8l-0.5-0.6
		l-0.2-0.9l0.6-1.1l-0.5-0.5l0.3-0.5l-0.6-0.2l-0.8,0.6l-0.6-0.2l-0.8-0.5l-1.1-0.9l-1.2-0.9l-0.5-0.3l-0.8-0.9v-1.2l-0.2-0.8
		l-0.2-0.8l-0.2-0.5l-0.6-0.6l-1.1-0.6l0.2,0.8l-0.2,0.6v0.6l-0.3,1.5l-0.6,1.4l-0.9,0.9l-1.7,0.5l-0.5-1.2l0.2-1.7l-0.6-1.4
		l-3.1,0.8l-0.2,0.8l0.5,0.9l-0.5,0.8v0.6l-0.6,0.9l-0.2,0.6l0.2,1.4l-0.8,0.2l-0.3-0.3l-0.3-0.6h-0.6l0.3,1.4l-0.3,0.8l0.3,0.8v0.8
		l-0.3,0.5l-0.2,0.6l0.6,0.5l0.6,0.3l0.9,0.8l-0.8,0.6l-0.5-0.2l-0.6-0.5l-0.5,0.3h-0.8l-1.1,0.6l-1.2,0.2L186,259l-0.2,0.8l0.2,0.6
		l-0.2,0.6h-0.6l-0.5,0.5l-0.5,0.2l-0.3,0.5v1.1l-2.2,0.2l0.3-0.9l0.8-0.9l-1.9-2.8l-0.3-0.5l-0.5-0.3l-0.6,0.2l-0.5,0.3h-0.6
		l-0.8,0.5l-0.2-0.6l-0.5-0.2l0.3-0.9l-0.5-0.3l-0.6,0.3l-0.6-0.6l-0.6,0.6l-0.6-0.5l-0.6,0.5l-0.6-0.3l0.2,0.8l0.2,0.6l-0.5,0.5
		l-1.2-0.3l-0.2,0.6l-0.8,0.5l-0.5,0.8h-0.8l-0.3-0.6l-0.8,0.2l-0.5-0.3l-0.6,0.2l-0.8,0.2l-0.6-0.9l0.9-1.4l-0.8,0.3l-0.6-0.2
		l-0.3-0.8l-0.8,1.5h-0.5l-0.3,0.6l-0.6-0.2l0.2-1.1l0.5-0.5l1.1-2.6l-0.8,0.3l-0.8,0.9l-0.3,0.9l-1.2-1.2v1.1l-0.3,0.8l-0.8-0.2
		v-0.6l-0.2-0.6l-0.5-0.8l0.5-1.4l-0.9,0.6l-0.2,1.2l-0.3,1.1l0.2,0.6l-0.5,1.2l0.6,0.2l0.6,0.5l0.5,0.3l-0.6,0.9l-0.6-0.2l-0.5,1.1
		l-0.8-0.6l-1.2-1.5l-2.2-0.8l-0.9-1.2l-0.9,0.8l-0.3,0.9l-0.5,0.6l0.2,0.6L152,261l-0.6,0.8l-1.7,2.3l-0.3,0.9l-0.3,0.5l-1.9,0.2
		l-1.1,0.9v0.6v0.6l0.2,0.9l0.3,0.8l0.2,1.1l-0.9,0.5h-0.6l-1.2-0.3h-1.1l-0.6,0.2l-0.6-0.5l0.6-0.6l-0.2-0.5h-0.5l-0.9,0.5
		l-0.2,0.8l-0.8,0.5l-0.8,1.1l-0.5,0.6l-0.5,0.8l0.3,0.8l0.8,0.5l0.5,0.8l-0.6,0.6l-0.9,0.3l-0.8,0.5l-0.8,0.5l-0.3,0.8l0.3,0.9
		l0.3,0.8l0.5,0.8l0.9,0.2h0.9l0.6-0.6l0.9-0.3l0.9,0.2l0.8,0.2l0.8,0.6l0.3,0.9l-0.8,0.5l-0.9,0.2l-0.9,0.3l-0.8,0.3l-0.8,0.5
		l-0.8,0.5l-0.8,0.3l-0.8,0.5l-0.8,0.5l-0.8,0.3l-0.9-0.2l-0.9,0.2l-0.8,0.3l-0.9,0.3H131l-0.6,0.3l-0.2,0.9l0.2,0.9l0.2,0.8
		l-0.2,0.9l-0.6,0.5l-0.5,0.8v0.9l-0.3,0.8l-0.8,0.8l-0.5,0.8l-0.6,0.5l-0.9,0.5l-0.2,0.9l-0.3,0.8l-1.1,0.5l-0.5,0.8l-0.6,0.8
		l-0.8,0.3l-0.8,0.3l-0.9,0.2l0.2,0.8l-0.5,0.6l-0.3,0.6v0.8v0.8v0.9l-0.3,0.8l0.5,0.8l-0.6,0.6l-0.8,0.3l-1.1-0.5l-0.8,0.3
		l-0.5,0.8l-0.6,0.6l-0.8,0.8l-0.3,0.8l0.2,0.9l0.2,0.9v0.9l-0.9,0.8l-0.9,0.2l-0.9,0.3l-0.2,0.9l-0.2,0.8l-0.5,0.8l0.6,0.8l0.9,0.3
		l0.8-0.3l0.9-0.2l0.8,0.3l-0.5,0.8l-0.6,0.8l-0.6,0.6l-0.6,0.8l-0.6,0.6l-0.8,0.5l-0.8,0.5l-0.6,0.8l-0.6,0.8l-0.2,0.8v0.9v0.9
		l0.2,0.9l-0.9,0.9l0.5,0.6l0.6,0.8v0.9l-0.5,0.8l-0.5,0.8L109,332l-0.2,0.8l-0.3,0.8l-0.6,0.8l-0.6,0.8h-0.9l-0.5-0.8l-0.9,0.8
		l-0.8,0.5l-0.8,0.3l-0.9,0.2l-0.2-0.9l-0.9-0.2h-0.9v0.8l-0.2,1.1l-0.9,0.3l-0.9,0.2l-0.8,0.3l-0.6,0.6l-0.6,0.8l-0.5,0.8l-0.6,0.8
		l-0.8,0.5l-0.8,0.3l-0.9,0.3l-0.8,0.5l-0.8,0.5l-0.6,0.5l-0.8,0.6l-0.6,0.8l-0.9,0.2l-0.9,0.2l-0.8,0.2l-0.9,0.3l-0.5,0.8l-0.6,0.5
		l-0.9,0.3l-0.8,0.3l-0.9,0.3l-0.8,0.3l-0.9,0.3l-0.8,0.5l-0.6,0.6l-0.8,0.5l-0.8,0.5l-0.2,0.8l-0.6,0.5l-0.8,0.5l-0.9,0.3l-0.6,0.6
		l-0.8,0.6l-0.5,0.8l-0.5,0.8l-0.3,0.8l-0.3,0.9l-0.2,0.8l-0.8,0.3l-1.4,0.2l-0.9,0.2l-0.9,0.2l-0.5-0.6l0.2-0.8l0.2-0.9l-0.2-0.9
		l-0.6-0.8l-0.6-0.6h-0.9h-0.9l-0.9,0.2l-0.9-0.2l-0.8-0.6l-0.3-0.8v-0.9l-0.3-0.8l-0.5-0.8l-0.8-0.5l-0.9-0.3l0.2-1.4l0.3-0.8
		l0.5-0.8l-0.2-0.9l-0.5-0.8l-0.3-0.8l-0.3-0.8l-0.5-0.8l-0.3-0.9l-0.6-0.6l-0.8-0.6l-0.8-0.3l-0.8-0.6l-0.8-0.5l-0.8-0.3l-0.8-0.5
		l-1.4-0.2l-1.2-0.3V336l0.5-0.8l-0.2-0.9l-0.2-0.9l-0.3-0.9l-0.5-0.6l-0.6-0.8l-0.6-0.8l-0.6-0.6l-0.8-0.6l-0.2-1.1V327l-0.3-0.9
		l-0.3-0.9l-0.5-0.6l-0.3-0.9l0.2-0.9l0.2-0.8V321v-0.9l-0.2-1.4l-0.3-0.8V317l-0.2-0.9l-0.6-0.6l-0.8-0.6l-0.6-0.6l-0.8-0.6
		l-0.5-0.8l-0.2-0.9l0.3-0.8l0.5-0.8l0.3-0.9l-0.2-0.8l-0.8-0.3l-0.9-0.2L40,308l-0.8,0.3l-0.9,0.3l-0.8,0.3l-0.8,0.5h-0.9h-0.9
		l-0.9,0.2l-0.9,0.2h-1.1l-0.8,0.2l-0.9,0.2l-0.9,0.2h-0.9l-0.9,0.5l-0.8,0.3h-0.9l-0.9,0.3l-0.9,0.2H23h-0.8l-0.9-0.2l-0.9-0.3
		l-0.8-0.3l-0.8-0.5l-0.6-0.6l-0.6-0.8l0.2-0.9l0.3-0.8v-0.9l-0.3-0.9l-0.8-0.2h-0.9l-0.9,0.2h-0.9l-0.9,0.5l-0.6,0.5l-0.8-0.2v-0.6
		l-0.2-0.9l-0.2-0.9v-0.9l0.5-0.8l0.5-0.8l0.5-0.8l0.2-0.9l-0.2-0.9l-0.6-0.6h-0.9l-0.8,0.3l-0.8,0.5l-0.5,0.8L8.8,300l-0.6,0.8
		l-0.9-0.2l-0.8-0.3H5.6l-0.8,0.5L4,300.2l-0.6-0.6l-0.6-0.6L2,298.5L1.2,298l-0.8-0.5l-0.8-0.5l-0.8-0.3l-0.9-0.5l-0.8-0.3
		l-0.5-0.8l-0.5-0.8l-0.5-0.8l-1.2-0.3h-0.9l-0.8-0.5l-0.6-1.1l-0.6-0.8l-0.8-0.3l-0.9-0.3l-0.8-0.5l-0.6-0.6l-0.3-0.8l-0.2-0.9
		v-0.9l0.3-0.9l0.5-0.8l0.6-0.6l0.3-0.8l0.5-0.9l0.2-0.8l0.2-0.9l-0.2-0.9v-0.9l-0.2-1.1l0.2-0.8l0.2-0.9l0.3-0.9l0.8-0.5l0.8-0.2
		l0.9-0.2l0.9,0.2h0.9l0.9-0.2l0.6-0.6l0.5-0.8l0.6-0.8l0.3-0.8l0.5-0.8l0.2-0.9l-0.8-0.5l-0.8-0.2l-0.9-0.2l-0.9-0.2l-0.8-0.3
		l-0.8-0.3l-0.8-0.6l-0.6-0.6l-0.5-0.8v-0.9l0.5-0.8l0.8-0.6l0.8-0.5l0.8-0.2l0.8-0.5h0.9l0.9,0.3l0.8,0.3h0.9l0.6-0.6l0.6-0.8
		l0.9-0.2l0.6-0.6l0.3-0.8L2,259.9L1.9,259L2,258l0.3-0.8l0.6-0.6l0.8-0.5l0.9,0.2l0.6-0.6l0.6-0.6l0.5-0.8l0.5-0.8l0.6-0.8L8,252
		l0.6-0.6v-0.9L8,249.9l-0.8-0.6v-0.9l0.8-0.5l0.9-0.2l0.8,0.2l0.8-0.5l0.5-0.8l0.2-0.9l0.5-0.8l0.3-0.8l0.5-0.8l0.3-0.9l-0.2-0.8
		l-0.3-0.9l-0.5-0.8l-0.5-0.8l0.9-0.8L13,238l0.8-0.2l1.1-0.2l0.8-0.5l0.5-0.6l0.2-0.9l0.3-0.8l0.2-0.9l0.5-0.8l-0.2-0.9l-0.6-0.6
		l-0.6-0.6l0.2-0.9l0.6-0.6l0.9-0.2l0.8-0.3l0.8-0.5l0.6-0.6l0.5-0.8l-0.3-0.5v-0.9l0.5-0.8l0.5-0.8v-0.9l-0.2-0.9v-0.9l0.2-0.9
		l-0.3-0.9l-0.3-0.9l-0.6-0.5l-0.8-0.6l-0.5-0.6l0.3-0.9l0.6-0.6l0.8-0.5l0.6-0.8l0.3-0.8v-0.9l-0.3-0.6l-0.9-0.3l-0.8-0.3h-0.9H17
		l-0.9-0.2l-0.6-0.5l-0.6-0.8l-0.6-0.6l-0.5-0.9l-0.3-0.8l-0.2-0.9l-0.2-0.9v-0.9v-0.9l-0.2-0.9l-0.2-0.9v-0.9v-0.9l-0.2-0.9
		l-0.3-0.8l-0.5-0.8l-0.5-0.8l-0.5-0.8l-0.2-0.8l0.2-0.9l0.3-0.8l0.3-0.9l0.3-0.8l0.3-0.8l0.2-0.9l-0.3-0.9l0.3-0.5l-0.2-0.9v-1.1
		V186l0.2-0.8l-0.2-1.1l-0.2-0.9l-0.3-0.8l-0.2-0.9l-0.3-0.8l-0.2-0.9v-0.9l0.3-0.9l0.2-0.8l0.5-0.8l0.5-0.8l0.5-0.8l0.5-0.8
		l0.3-0.8l0.3-0.8l0.3-0.9l0.2-0.8v-0.9l-0.3-0.9l-0.3-0.8l-0.3-0.9l-0.3-0.8l-0.3-0.8l-0.8-0.6l-0.9-0.3l-0.8-0.3l-0.9-0.2
		l-0.9-0.9l-0.5-0.6l-0.5-0.8l-0.5-0.8l-0.6-0.8l-0.2-0.8L5.9,159l-0.5-0.6l-0.6-0.8L4.2,157l-0.5-0.8l0.2-0.9l0.6-0.8l0.6-0.8
		l0.2-0.8l0.3-0.9l0.2-0.8l0.6-0.8l0.8-0.3l0.8-0.5l0.6-0.5l0.8-0.6l0.6-0.6l0.8-0.5l0.8-0.5l0.8-0.5l0.8-0.5l0.8-0.3l0.6-0.6
		l0.8-0.6l0.6-0.5l0.8-0.6l0.6-0.6l0.6-0.8l0.5-0.8l0.5-0.8l0.3-0.8l0.2-0.9l0.2-0.9l0.8-0.5l0.6,0.6l0.6,0.6l0.6,0.8l0.5,0.8
		l0.5,0.8l0.5,0.8l0.5,0.6l0.3,0.9l0.3,0.8l0.3,0.8l0.5,0.9l0.5,0.6l0.6,0.8l0.6,0.6l0.8,0.6l0.8,0.5l0.8,0.3l0.8,0.5l0.8,0.3
		l0.9,0.3l0.8,0.3l0.8,0.3l0.8,0.5l0.9,0.3l0.8,0.2h0.9l0.9,0.2h0.9l0.8,0.3h0.9l0.9-0.2H42l0.8-0.3l0.9-0.2l0.9,0.2h0.9l0.6,0.6
		l0.2,0.9v0.9l-0.2,0.9L46,156l-0.3,0.9l-0.2,0.8l-0.2,0.9v0.9l0.3,0.8l0.5,0.8l0.5,0.8l0.6,0.8l0.6,0.6l0.5,0.6l0.6,0.8l0.8,0.6
		l0.5,0.8l0.3,0.8l0.3,0.8l0.3,0.9l0.6,0.6l0.8,0.5l0.6,0.8v0.6l-0.2,0.6l0.6,0.8l0.5,0.8l0.6,0.6l0.3,0.8l0.3,0.9v0.9v0.9l0.2,0.9
		l0.6,0.6l0.6,0.8l0.5,0.8l0.3,0.8l0.6,0.6l0.8,0.6l0.8,0.5l0.8,0.6l0.8,0.3l0.8,0.5l0.6,0.8l0.3,0.8l0.5,0.8l0.5,0.8l0.5,0.8
		l0.3,0.8l0.2,0.9v0.9v0.9v0.9l-0.2,0.9l-0.2,0.9v0.8l-0.2,0.9l1.2,1.1l0.8,0.3l0.8,0.3l0.9,0.2l0.9-0.3l0.6-0.5l0.8-0.6l0.5-0.8
		l0.3-0.9l0.2-0.8l-0.2-0.9l-0.2-0.9l-0.2-0.9l0.3-0.8l0.3-0.8l0.3-0.9l0.3-0.8l0.5-0.8l0.5-0.8l0.5-0.8l0.2-0.9l0.2-0.9l0.5-0.8
		l0.8-0.5l0.6-0.5l0.8-0.6l0.5-0.8l0.5-0.8l0.6-0.8l0.3-0.8l0.2-0.9l0.3-0.8l0.3-0.9l0.3-0.8l0.5-0.8l0.6-0.8L81,173l0.9-0.2
		l0.6-0.5l0.5-0.8v-0.9l0.3-0.8l0.8-0.5l0.9,0.2l0.9-0.2l0.9,0.2l0.9-0.2l0.8-0.3l0.2-0.9l0.2-0.9l0.5-0.8l0.6-0.8l0.8-0.5l0.5-0.6
		l0.2-0.9l0.2-0.9l0.2-0.8v-0.9l0.2-0.9l-0.2-0.9l-0.2-0.8l-0.5-0.8v-0.9l0.3-0.9l0.8-0.5l0.6-0.6l0.8-0.5l0.8-0.6l0.8-0.3l0.8-0.5
		l0.5-0.8l0.5-0.8l0.8-0.5l0.8,0.2l0.9,0.2l0.9-0.2l0.8-0.3l0.8-0.5l0.6-0.6l0.6-0.6l0.8-0.6l0.6-0.6l0.6-0.6l0.8-0.6l0.6-0.6
		l0.6-0.8l0.5-0.6l0.8-0.6h0.9l0.9,0.2h0.9l0.8-0.5l0.8-0.3l0.8-0.5l0.6-0.8l0.5-0.8l0.8-0.5l0.8-0.3l0.8-0.5l0.3-0.9h0.9h1.1h0.9
		h0.9h0.9h0.9h0.9h1.1h0.9h0.9h1.2l0.6-0.6l0.6-0.5l0.8-0.5l0.8-0.5l0.6-0.6l0.8-0.6l0.8-0.5l0.6-0.6l0.6-0.6l0.6-0.8l0.6-0.5
		l0.8-0.6l0.6-0.8l0.5-0.8l0.3-0.8l0.5-0.8l0.5-0.8l0.3-0.9l0.6-0.6l1.1-0.5l0.8-0.5l0.8-0.5l0.8-0.3l0.6-0.8l0.2-0.8l-0.2-0.9
		l0.2-0.9l0.3-0.9l0.3-0.8l0.5-0.8l0.6-0.8l0.6-0.6l0.8-0.5l0.8-0.5l0.8-0.3l0.9-0.2l0.8-0.3l0.5-0.8l0.3-0.8l0.9-0.3l0.8-0.2h0.9
		l0.6-0.6l-0.2-0.9l0.5-0.6l0.8-0.5h0.9l0.9,0.3l0.8,0.2l0.9-0.2l0.6-0.6l0.5-0.6l0.8-0.3l0.9-0.2l0.9-0.3l0.9-0.2l0.8,0.2l0.9,0.3
		l0.8,0.5l0.6,0.6l0.3,0.9l0.5,0.8l0.2,0.9l0.3,0.8l0.8,0.6l0.8,0.3h0.9l0.8-0.3l0.8-0.5l0.5-0.8l0.6-0.8l0.5-0.8l0.6-0.8l0.6-0.8
		l0.6-0.6l0.6-0.8l0.6-0.8l0.6-0.6l0.5-0.8l0.6-0.8l0.6-0.8l0.6-0.8l0.6-0.6h0.9l0.8-0.2l0.8-0.5l0.6-0.6l0.8-0.6l0.6-0.6l0.5-0.6
		v-0.9v-0.9l0.2-0.9v-0.9l-0.2-0.9l-0.2-0.9v-0.9l0.2-0.8l0.3-0.9l0.3-0.8l0.2-0.9v-0.9l0.2-0.8l0.6-0.8l0.8-0.5l0.8-0.5l0.8-0.3
		l0.8-0.3l0.6-0.5l0.8-0.5l0.8-0.3l0.9-0.3l0.8-0.3l0.9-0.2h0.9l0.8,0.5l0.9,0.3l0.8,0.5l0.8,0.3l0.8,0.3l0.9-0.2l1.1-0.2l0.9-0.2
		l0.8-0.5l0.5-0.6l-0.2-1.1l0.3-0.8l0.8,0.3l0.8,0.3l0.9,0.3l0.8,0.3l0.8,0.5l0.6,0.8l0.8,0.3l0.9,0.2l0.9,0.2l0.8,0.2l0.9-0.2
		l0.9-0.3l0.8-0.3l0.8-0.5h0.9l0.9,0.2l0.5-0.6l-0.3-0.8l-0.2-0.9l0.3-0.8l0.8-0.3l0.8-0.6l0.6-0.8l0.5-0.8l0.3-0.8V79l-0.3-0.9
		l-0.8-0.3h-0.9l-0.8,0.3h-0.9l-0.9-0.3l-0.8,0.2l-0.9-0.2l-0.3-0.9l-0.2-0.9l-0.3-0.8l-0.6-0.8l-0.5-0.6l-0.2-0.9l0.6-0.6l0.8-0.5
		l0.8-0.3l0.9-0.3l0.8-0.3l0.9-0.3h0.9l0.8,0.3l0.9,0.2h0.9l0.9-0.2l0.8,0.2h0.9l0.9,0.2h0.9h0.8l0.9-0.2l0.8,0.6l0.5,0.8l0.5,0.6
		l0.6,0.8l0.8,0.6l0.8,0.3l0.8,0.5h0.9h0.9l0.9-0.3l0.8-0.2l0.9-0.3l0.8-0.3l0.9-0.5l0.8-0.2l0.8,0.6l0.9,0.2l0.8,0.2l0.9,0.2
		l0.8,0.5l0.5,0.8l0.6,0.6l0.6,0.6l0.8,0.5l0.9,0.3l0.8,0.5l0.9-0.3l0.8-0.2l0.8-0.6l0.8-0.5l0.3-0.9l0.3-0.8l0.3-0.8l0.5-0.9
		l0.5-0.6l0.9-0.3l0.9,0.2l0.8,0.2l0.9,0.2l0.8-0.3l0.9-0.5l0.8-0.3l0.8-0.5h0.9h0.9l0.9-0.2l0.8-0.3l0.8-0.5l0.6-0.6l0.6-0.8
		l0.6-0.6l0.9-1.1l0.6-0.6l0.9,0.2l0.9,0.2l0.8-0.5l0.8-0.5l0.8-0.5l0.8-0.3l0.8-0.5l0.8-0.5l0.2-0.8l-0.6-0.8l-0.9-0.3h-0.8
		l-0.9-0.2l-0.6-0.6v-0.9l0.3-0.9V59l-0.2-0.9l-0.2-0.9l0.2-0.9v-0.8l0.3-0.9l0.3-0.8l0.6-0.8l0.6-0.6l0.3-0.9l0.2-0.8l0.3-0.9
		l0.6-0.6l0.6-0.8l0.8-0.5l0.9-0.2l0.9-0.2l0.9-0.2l0.9-0.2l0.8-0.3l0.8-0.5l0.8-0.5l0.8-0.5l0.8-0.5l0.8-0.3l0.8-0.6l0.8-0.5
		l0.8-0.3l0.8-0.3l0.9-0.3h0.9l0.9-0.2h0.9h0.9l0.9,0.5l0.6,0.6l0.3,0.8h0.6l0.8,0.3l0.8,0.5h0.9l0.5-0.6l-0.2-0.9l-0.2-0.9v-0.9
		l0.6-0.6l0.5-0.9l-0.3-0.8l-0.2-0.9l0.2-0.9l0.3-0.8l0.2-0.9l0.2-0.9l0.2-0.9l-0.3-0.8l-0.2-0.9v-0.9l0.3-0.9l0.3-0.8L296,29
		l0.5-0.8l0.6-0.8l0.2-0.9v-0.9l-0.5-0.8l-0.2-0.9V23l0.3-0.8l0.2-0.9l-0.3-0.8l-0.5-0.8l-0.6-0.8l-0.3-0.8l0.2-0.9l0.3-0.9l0.5-0.8
		l0.5-0.8l0.2-0.9v-0.8v-0.9l-0.3-0.9l-0.2-0.9l-0.3-0.8l0.6-1.2l0.3-0.8l-0.3-0.9l0.2-0.8l0.5-0.9l0.3-0.8l0.3-0.9V2.5l0.2-0.9
		l0.3-0.8l0.6-0.8l0.6-0.6l0.6-0.8l0.3-0.8l0.6-0.6h0.9l0.9,0.3l0.8,0.6l0.8,0.5l0.8,0.5l0.8,0.5l0.5,0.8v0.9l0.2,0.9l-0.2,0.9V4
		l0.6,0.6l0.8,0.3l0.8,0.6l0.8,0.6l0.3,0.8l0.6,0.6h0.9l0.9,0.2l0.8,0.5l0.6,0.6l0.6,0.6l0.8,0.6l0.8,0.5l0.8,0.6l0.8,0.5l0.5,0.9
		l0.6,0.6l0.8,0.3l0.8,0.5h0.9l0.9-0.5l0.8-0.5l0.6-0.5l0.9-0.2l0.8,0.3l0.6,0.6l0.3,0.8l0.5,0.9l0.5,0.8l0.6,0.6l0.6,0.6l0.9,0.3
		h0.8l0.9-0.5l0.5-0.8l0.6-0.6l0.6-0.6l0.9-0.2l0.8,0.5l0.8,0.5l0.5,0.8l0.9,0.3l0.8,0.2l0.9,0.5l0.3,0.8l0.5,0.9l0.2,0.9v0.9
		l0.5,0.8l0.5,0.8l0.6,0.6l0.8,0.5l0.8,0.6l0.9,0.5l0.8,0.5l0.8,0.3l0.8,0.5l0.9,0.6l0.8,0.5l0.8,0.6l0.8,0.5l0.8,0.3l0.8,0.6
		l0.2,0.8l-0.5,0.9l-0.3,0.8l-0.6,0.6l-0.6,0.8l-0.5,0.8l-0.6,0.8l-0.5,0.8l-0.5,0.8l-0.3,0.9l-0.2,0.9l0.5,0.8l0.8,0.5h0.8h0.9
		l0.9,0.2h0.9l0.8,0.2l0.9,0.5l0.6,0.9l-0.2,0.8l-0.3,0.9l-0.5,0.8l-0.6,0.6l-0.6,0.6l-0.8,0.5l-0.8,0.5l-0.5,0.8v1.1l0.8,0.6
		l0.8,0.5l0.9,0.2h0.9l0.9-0.2l0.9-0.2l0.8,0.3l0.8,0.6l0.2,0.9l0.2,0.9l0.5,0.6l0.6-1.1l0.5-0.8l0.6-0.6l0.9-0.5l0.8-0.3l0.8-0.3
		l0.8-0.6l0.5-0.8l0.5-0.8l0.5-0.9L363,44l0.5-0.8l0.5-0.8l0.6-0.8l0.5-0.8l0.2-0.9l0.3-0.9l0.2-0.8l0.5-0.8l0.9-0.3l0.8-0.5
		l0.2-0.8l-0.5-0.8l-0.2-0.9v-0.9l0.3-0.8l0.5-0.9l0.5-0.8l0.3-0.8l-0.2-0.9l-0.2-0.9l0.5-0.8l0.8-0.5h0.9l0.9-0.3l0.6-0.6l0.5-0.9
		l0.5-0.8l0.3-0.8l0.5-0.8l0.5-0.8l0.8-0.6l0.8-0.5l0.8-0.5l0.9-0.2l0.8-0.3l0.8-0.3l0.9-0.3l0.8-0.5l0.5,0.8l0.3,0.8l-0.2,0.9
		l-0.2,0.9l0.2,0.9l0.3,0.8l-0.2,0.9l-0.3,0.9l-0.2,0.8v0.9l0.5,0.8l0.5,0.8l0.5,0.8v0.9l0.2,0.9v0.9l-0.3,0.8l-0.3,0.9l-0.3,0.8
		l-0.2,0.9l0.2,0.9l0.5,0.8l0.2,0.9l0.3,0.9v0.9l0.2,0.9l0.2,0.9v0.9v0.9v0.9l0.3,0.8l0.5,0.8l0.5,0.8l0.2,0.9l0.2,0.9l0.3,0.9
		l0.6,0.6l0.8,0.5l0.8-0.6l0.5-0.8l0.3-0.8l0.3-0.8l0.8-0.5l0.9,0.2l0.8,0.3l0.9,0.2l0.8,0.6l0.5,0.8l0.5,0.8l0.5,0.8v0.9l-0.5,0.8
		l0.6,0.6l0.5,0.8l-0.5,0.9l-0.5,0.8l0.2,0.8l0.6,0.8l0.5,0.8l-0.2,0.9l0.2,0.8l0.8,0.6l0.8,0.3l0.8,0.5l0.5,0.8l-0.2,0.9l0.2,0.8
		l0.8,0.6l0.9,0.3h0.8l0.6-0.6l0.8-0.3l0.9-0.3l0.8,0.5l0.2,0.9l0.2,0.9l-0.2,0.9l0.3,0.8l0.5,0.8l-0.2,0.9l-0.5,0.8v0.9l0.3,0.9
		L404,73l0.2,0.8l-0.3,0.9l0.5,0.6l0.9,0.5l0.8,0.5l0.5,1.2l1.2,0.5l0.8,0.5l0.3,0.8l0.5,0.8l0.9-0.2l0.3,0.8l0.6,0.5l0.9,0.3
		l0.5,0.6l0.3,0.9l0.3,0.9l0.2,0.9v0.9l-0.2,0.8l-0.2,0.9l-0.6,0.6l-0.3,0.8l0.6,0.6l0.5,0.8v0.9l0.2,0.9l0.8,0.5l0.8,0.3l0.9,0.2
		l0.8-0.3l0.8-0.5l0.8-0.5l0.8-0.3l0.9-0.2l0.6,0.6l0.6,0.6l0.5,0.8l0.2,0.9l-0.2,0.8l-0.5,0.9l0.5,0.8l0.6,0.3l-0.2,0.9l0.6,0.8
		l0.6,0.6l-0.3,0.8l-0.2,0.9l0.9,0.3l0.8,0.5l0.3,0.8l0.3,0.9l0.2,0.9l0.2,0.9l0.8,0.5l1.1-0.6l0.5-0.8l0.2-0.9l0.5-0.6l0.8-0.3
		l0.9,0.2l0.6,0.6l0.9,0.5h0.9h0.5l0.9-0.2l0.8,0.3l0.6,0.2l1.1,0.3l0.6,0.2l0.8,0.5l0.3,0.8l-0.8,1.1l-0.9,0.8l-0.8,1.1l-0.6,1.4
		l-0.6,1.1l-0.6,0.9l-0.3,0.8l-0.3,0.5l0.3,0.8l-0.2,1.4l-0.5,0.3l-0.6,0.8l-0.3,0.9l-0.3,0.9l0.2,0.8l0.5,1.4v0.9l-0.2,0.9
		l-0.2,1.1l-0.3,1.4l-0.9,0.5l-0.3,0.8l-0.3,0.8l-0.2,0.9l-0.2,0.9l-0.2,0.8v1.1v0.8v0.9l0.2,1.1v0.9v0.8l-0.2,0.9l0.3,0.9l0.5,0.8
		l0.3,0.8l0.5,0.8l0.8,0.6l0.8,0.6l0.5,0.8l0.2,0.9l0.6,0.6l0.3,0.9l0.2,0.9v0.8v0.9l0.2,1.1l0.2,0.9v0.9l0.6-0.2l0.8-0.5l0.8-0.5
		l0.8-0.3l1.1-0.2l0.8,0.2l0.9,0.5l0.8,0.3l0.9,0.2l0.9-0.2l0.5,0.6l0.3,0.9l0.3,0.8l0.3,0.9l-0.2,0.8l-0.3,0.9l0.2,0.8l0.5,0.8
		l0.3,0.9l0.6,0.6l0.5,1.2l0.6,0.6l0.3,0.9l0.6,0.6l0.9,0.3l0.8,0.2l0.5,0.8l-0.6,0.6l0.2,0.9l0.8,0.5l0.5,0.8l0.3,0.8l0.8,0.5
		l0.6,0.6l0.3,0.8l0.3,0.9l0.2,0.9l-0.2,0.9l0.2,0.8l0.9,0.3l0.5,0.6l0.3,0.9h0.9l0.6,0.6l0.5,0.8l0.3,0.9l0.8,0.5l0.9,0.2l0.9,0.2
		l0.6,0.6l0.8,0.6l0.6,0.6l0.5,0.8l-0.2,0.9l0.2,0.9l0.8,1.1l0.2,0.9l0.2,0.9l0.5,0.8h0.9l0.5-0.8h0.9l0.8,0.6l0.3,0.8l0.8,0.3h0.9
		l0.8,0.2h0.9l0.9,0.3l0.2,0.9v0.9l-0.2,0.9l-0.2,0.9v0.9l0.6,0.6l0.8,0.6l0.8-0.2l0.9-0.2l0.8,0.3l0.6,0.8l-0.5,0.8l-0.6,0.6
		l-0.6,0.6l-0.3,0.9l-0.3,0.8l-0.3,0.9l-0.8,0.6l-0.8,0.5l-0.3,0.8l0.6,0.6l0.9,0.3l0.2,0.9v0.9v0.8l-0.2,0.9l-0.2,0.9l-0.5,0.8
		l-0.5,0.9l-0.6,0.6l-0.6,0.8l-0.2,0.9l0.2,0.9v0.9l0.2,0.9l-0.8,0.2l-0.8,0.3l-0.3,0.8l-0.2,0.9l-0.2,0.9l-0.5,0.6l-0.9,0.3
		l-0.5,0.8l-0.5,0.8l-0.6,0.8l-0.5,0.3l-0.3,0.8l-0.3,0.9l0.2,0.8l0.8,0.2l0.8-0.5l0.8-0.5l0.8-0.6l0.8-0.5l0.6-0.5l0.9-0.3h0.9h0.8
		l0.9,0.5l0.6,0.8l0.3,0.8l0.9,0.5L475,219L475,219"/>
	<path vector-effect="none" class="st0" d="M179.3,384.4v1.1l0.3,0.9l0.3,0.8l-0.2,1.1v0.9l-0.5,0.9l0.2,0.9l-0.3,0.8l-0.8,0.5
		l-0.2,0.8l-0.5,0.2l-0.9,0.9l-0.9,0.9l-0.8-0.2l-0.5-0.9l-0.8-0.5h-0.8l-0.9,0.2h-0.9l-0.8-0.2l-0.8-0.6l-0.3-0.8l0.2-0.9l0.5-0.8
		l0.8-0.5l0.6-0.6l0.6-0.8l0.6-0.6l0.6-0.8l0.5-0.8v-0.9l0.6-0.6l0.9,0.2h0.9l0.8-0.3l0.8-0.3l0.8-0.2v-0.6h0.5L179.3,384.4
		L179.3,384.4"/>
	<path vector-effect="none" class="st0" d="M271.8,402.2l0.9,0.3h0.9l0.9-0.3l0.8-0.6l0.9,0.2l0.8,0.5l0.8,0.3l0.9,0.2l0.5,0.5
		l-0.6,0.8l-0.8,0.5l-0.9-0.2l-0.8-0.3l-0.9-0.2h-0.9h-0.9l-0.5,0.8l-0.8,0.5l-0.8-0.3l-0.3-0.8l-0.9-0.3l-0.9-0.3h-1.4l-0.9-0.2
		l-0.8-0.3l-0.6-0.6l-0.5-0.8l0.8-0.5l0.9-0.2l0.9-0.2h0.9l0.8,0.5l0.8,0.5l0.8,0.3L271.8,402.2"/>
	<path vector-effect="none" class="st0" d="M256.8,417.8l-0.5,0.3l-0.8-0.3l-0.8-0.6l-0.9-0.3l-0.2-0.8l-0.3-0.9v-0.9l0.6-0.6
		l0.8-0.5l0.6-0.5l0.5-0.8l0.8-0.6l0.8-0.3l0.9-0.3l0.5,0.6l0.5,0.9l0.8,0.5l0.8,0.2l0.9,0.2l0.5,0.6v0.9l-0.6,0.8l-0.8,0.5
		l-0.8,0.3l-0.9,0.3l-0.9,0.3l-0.8,0.3L256.8,417.8L256.8,417.8"/>
	<path vector-effect="none" class="st0" d="M287.2,407.1l-0.9,0.3l-0.9,0.2l-0.9,0.2l-0.9,0.2l-0.8,0.3l-0.8,0.5l-0.8,0.5l-0.9,0.6
		h-0.9l-0.2-0.8l0.3-0.8v-0.9h-0.9l-0.9,0.2l-0.9,0.3h-0.9l-0.5-0.8l0.6-0.6l0.8-0.3l0.9-0.3l0.9-0.2l0.9-0.2h0.9l0.8-0.5l0.8-0.2
		l0.8,0.3l0.8,0.3l0.9,0.3l0.9,0.2l0.9,0.2l0.9,0.2l0.6,0.5L287.2,407.1"/>
	<path vector-effect="none" class="st0" d="M176.5,399.2l0.5,1.2l0.5,1.4v0.9v0.6l-0.9,1.2l-0.8,0.3l-0.5,0.3l-0.9-0.2l-1.1-0.5
		l0.9-1.1l0.5-0.8v-0.6l-0.3-0.6l-0.8,0.5l-1.4,1.1l-1.1,0.2l-0.8-0.5l-0.2-0.5v-0.8l0.3-0.5l0.8-1.2v-0.8l0.5,0.2l1.1,0.3l0.5-0.5
		l0.6-0.5l0.6-0.2l0.9-0.2l0.6,0.2L176.5,399.2L176.5,399.2"/>
	<path vector-effect="none" class="st0" d="M297.4,374.2l0.5,0.8l0.6-0.5l0.6-0.6h0.8l0.8,0.5l0.6,0.8l-0.2,0.8l-0.5,0.8l-0.6,0.6
		l-0.5,0.8l-0.8,1.1h-0.9l-0.9-0.2l-0.5-0.8l-0.3-0.8l-0.8-0.5l-0.8-0.3l0.5-0.9l0.5-0.6l0.3-0.9l0.8-0.5L297.4,374.2L297.4,374.2"
		/>
	<path vector-effect="none" class="st0" d="M132.9,305l-0.8,0.3l-0.8-0.2l-0.8,0.5l-0.9,0.3l-0.8,0.2l-0.8-0.5l-0.2-0.9l0.5-0.8
		l0.6-0.6l0.6-0.6l0.6-1.1l0.9-0.2l0.3,0.9l0.6,0.5l0.5,0.8l0.6,0.6L132.9,305L132.9,305"/>
	<path vector-effect="none" class="st0" d="M318.1,419l-0.8,0.3h-0.9l-0.9-0.5l-0.5-1.1l0.6-0.5l-0.5-0.6l-0.9-0.2l-0.5-0.6l0.6-0.6
		l0.9-0.2l0.9,0.2l0.8,0.2l0.8,0.6l0.5,0.8l0.6,0.8l-0.2,0.8L318.1,419L318.1,419"/>
	<path vector-effect="none" class="st0" d="M198.8,253.6l-0.5,0.3l-0.8-0.3v-0.8V252l2-2.3l0.3-0.5l0.5-0.3l0.5-0.5l0.3,0.3
		l-0.3,0.9l-0.5,0.3l-0.5,0.5l-0.3,0.8l-0.5,0.3v0.8l-0.3,0.5V253.6L198.8,253.6"/>
	<path vector-effect="none" class="st0" d="M285,423.8l0.9,0.2h0.9l0.8,0.2v0.9l0.6,0.6l-0.3,0.8l-0.9,0.3h-0.9l-0.8-0.3l-0.9-0.2
		l-0.8-0.6l0.3-0.8l-0.6-0.8l0.2-0.8l0.8-0.2L285,423.8L285,423.8"/>
	<path vector-effect="none" class="st0" d="M302.9,401.7l-1.2,0.2l-0.6-0.6l0.3-0.8l0.6-0.6l0.6-0.6l0.9-0.2l0.9-0.2l0.6,0.5
		l-0.5,0.8l-0.8,0.5l-0.6,0.6L302.9,401.7"/>
	<path vector-effect="none" class="st0" d="M306.8,384.4l-0.5,0.8l-0.6-0.3l-0.6-0.6l-0.8-0.5l-0.6-0.6l0.3-0.8l0.9-0.3h0.9l0.8,0.3
		l0.8,0.5l-0.5,0.6L306.8,384.4L306.8,384.4"/>
	<path vector-effect="none" class="st0" d="M204,262.1l-0.5,0.5l-0.8-0.5l-0.5-0.8l-0.3-0.8v-0.8l0.3-0.8l0.5-0.5l0.3-0.3l0.9,0.3
		l0.3,0.8v0.8v0.8v0.8L204,262.1L204,262.1"/>
	<path vector-effect="none" class="st0" d="M269.5,407.4l0.2,0.9l-0.5,0.8l-1.1,0.2l-0.9-0.2h-0.9h-0.9l-0.3-0.9l0.8-0.5h0.9
		l0.9-0.2l0.8-0.3L269.5,407.4"/>
	<path vector-effect="none" class="st0" d="M348.2,348.6l-0.9,0.3l-1.1-0.5l0.6-0.8l0.8-0.5l0.9-0.3l0.9,0.2l0.6,0.6l-0.2,0.9
		l-0.8,0.2L348.2,348.6"/>
	<path vector-effect="none" class="st0" d="M295.7,422.1l-0.6,0.5l-0.8-0.3l-0.3-0.9l-0.3-0.8l-0.2-0.9h0.9l0.9-0.2l0.6,0.8v0.9
		L295.7,422.1L295.7,422.1"/>
	<path vector-effect="none" class="st0" d="M289.5,421l-0.9,0.2l-0.8-0.5l0.5-0.8l0.9-0.3l0.8-0.5l0.9,0.2l0.3,0.9l-0.8,0.5
		L289.5,421"/>
	<path vector-effect="none" class="st0" d="M195.5,252.3l-0.8,0.2l-0.5-0.5l0.5-0.8l0.3-0.8l1.2,1.1l-0.5,0.5L195.5,252.3
		L195.5,252.3"/>
	<path vector-effect="none" class="st0" d="M148.2,273.8l-1.1,0.5l-0.6-0.3l-0.2-0.8l0.6-0.5l0.5-0.2l0.9-0.2l0.2,0.6L148.2,273.8
		L148.2,273.8"/>
	<path vector-effect="none" class="st0" d="M222.1,447.7l-0.5,1.1l-0.5-0.8l-0.5-0.8l0.2-0.9l0.8-0.5l0.2,0.9L222.1,447.7"/>
	<path vector-effect="none" class="st0" d="M201.1,255.4h-0.8l-0.3-0.3l-0.2-0.8l0.5-0.5l0.5-0.3l0.3,0.3l0.5,0.5v0.8L201.1,255.4
		L201.1,255.4"/>
	<path vector-effect="none" class="st0" d="M261.4,406.5l-0.8,0.5l-0.6-0.6l-0.6-0.8l0.9-0.2l0.8,0.3L261.4,406.5L261.4,406.5"/>
	<path vector-effect="none" class="st0" d="M191.8,421l-0.9,0.2l-0.8-0.6l-0.3-0.8l0.8-0.2l0.6,0.8L191.8,421L191.8,421"/>
	<path vector-effect="none" class="st0" d="M194.8,247.7l-0.5,0.5l-0.5-0.5l0.5-0.8l-0.2-0.5l0.6-0.6l0.5,0.6v0.6L194.8,247.7
		L194.8,247.7"/>
	<path vector-effect="none" class="st0" d="M172.2,433.7l-0.6,0.6l-0.3-0.6l0.3-0.8l0.3-0.8l0.5,0.8L172.2,433.7"/>
	<path vector-effect="none" class="st0" d="M206.8,253.9l-0.5,0.3l-0.8-0.3v-0.8l0.3-0.8l0.5,0.3l0.5,0.5V253.9L206.8,253.9"/>
	<path vector-effect="none" class="st0" d="M176.4,431.5l-0.6,0.8l-0.8-0.2l0.3-0.8l0.5-0.6h0.6V431.5L176.4,431.5"/>
	<path vector-effect="none" class="st0" d="M163.6,454.8l-0.2,0.9l-0.8-0.2l-0.3-0.8l0.5-0.6L163.6,454.8"/>
	<path vector-effect="none" class="st0" d="M292.4,422.6l-0.6,0.5l-0.9-0.3l0.2-0.9l1.1-0.2L292.4,422.6"/>
	<path vector-effect="none" class="st0" d="M159.3,447.7l-0.3,0.8l-0.9-0.8v-0.9h0.8L159.3,447.7"/>
	<path vector-effect="none" class="st0" d="M261.4,409.3l-0.2,0.8h-0.9l-0.6-0.9l0.8-0.3L261.4,409.3"/>
	<path vector-effect="none" class="st0" d="M204.2,250.3l-0.3,0.9l-0.8-0.8l0.5-0.8L204.2,250.3"/>
	<path vector-effect="none" class="st0" d="M201.1,257.9l-0.5,0.8l-0.8-0.3l0.5-0.5l0.5-0.5L201.1,257.9"/>
	<path vector-effect="none" class="st0" d="M205.9,257.4l-0.5,0.8l-0.5-0.3l-0.5-0.3l0.5-0.5L205.9,257.4"/>
	<path vector-effect="none" class="st0" d="M273.2,409.3l-0.6,0.6l-0.3-0.8l0.5-0.8L273.2,409.3"/>
	<path vector-effect="none" class="st0" d="M169,260.8l-0.8,0.5l-0.5-0.3l0.8-0.5L169,260.8"/>
	<path vector-effect="none" class="st0" d="M180.6,260.8l-0.5,0.5l-0.8-0.3l0.8-0.5L180.6,260.8"/>
	<path vector-effect="none" class="st0" d="M177.5,259.6L177,260l-0.8-0.3l0.8-0.5L177.5,259.6"/>
	<path vector-effect="none" class="st0" d="M187.8,259.9l-0.5,0.8l-0.5-0.3l0.5-0.8L187.8,259.9"/>
	<path vector-effect="none" class="st0" d="M206,457.4h-0.8l0.2-0.8l0.9-0.2L206,457.4"/>
	<path vector-effect="none" class="st0" d="M199.2,420.9v0.6l-0.9-0.2l0.3-0.5L199.2,420.9"/>
	<path vector-effect="none" class="st0" d="M193.1,252.5l-0.5,0.5l-0.5-0.3l0.5-0.5L193.1,252.5"/>
</g>
</svg>
