<?xml version="1.0" encoding="utf-8"?>
<!-- Generator: Adobe Illustrator 27.0.0, SVG Export Plug-In . SVG Version: 6.00 Build 0)  -->
<svg version="1.1" id="Layer_1" xmlns="http://www.w3.org/2000/svg" xmlns:xlink="http://www.w3.org/1999/xlink" x="0px" y="0px"
	 viewBox="0 0 500 500" style="enable-background:new 0 0 500 500;" xml:space="preserve">
<style type="text/css">
	.st0{fill:#E74646;stroke:#FFFFFF;stroke-width:4.6041;stroke-linecap:square;stroke-linejoin:bevel;stroke-miterlimit:3.998;}
</style>
<g transform="matrix(0.999751,0,0,0.999751,18.6633,21.7738)">
	<path vector-effect="none" class="st0" d="M380.3,165.8l-0.4,1.2v1.2v1.2l-0.2,1.2l-0.2,1.2l-0.4,1l-0.6,1l-0.6,1l-0.8,0.8l-0.6,1
		h-1.2l-1-0.2l-1.2-0.2l-1.2,0.2l-1,0.6l-1.2,0.2h-1.2l-1.2-0.2l-1,0.2l-1,0.4l-1,0.8l-0.8,0.8l-0.4,1l-0.2,1.2l-0.2,1.2l-0.4,1
		l-0.4,1.2l-0.6,1l-0.8,0.6l-1.2,0.6l-1,0.2l-1.2-0.2l-1.2-0.2l-1-0.4l-1.2-0.2l-0.8,0.8l-0.2,1.2l-0.2,1.2v1.2l-0.2,1l-0.8,1
		l-0.8,0.8l-1,0.8l-1,0.8l-0.8,0.6l-0.8,0.8v1.2l0.6,1l1,0.6l0.6,1l0.6,1l0.4,1l-0.2,1.2l-0.6,1l-0.4,1l-0.6,1l-0.6,1l-0.8,0.8
		l-1,0.6l-1,0.4l-1,0.6l-0.8,0.8l-0.4,1l-0.6,1v1.2l-0.2,1.2l-0.2,1.2l-0.2,1.2v1.2v1.2l-0.4,1.2l-0.4,1l-0.4,1.2l-0.4,1l-0.4,1v1.2
		l-0.2,1.2l-0.2,1.2l-0.2,1.2l0.4,1.2l0.2,1l0.6,1l0.6,1l0.6,1l0.8,1l0.8,1l0.6,0.8l0.4,1.2v1.2l-0.2,1.2l-0.8,0.2l-1-0.6l-1.2,0.4
		l-0.4,1l0.2,1.2l0.8,0.8l1,0.6l0.8,0.8l0.8,1v1l-0.4,1.2l-0.4,1.2l-0.4,1.2l-0.6,1l-0.4,1.2l-0.4,1.2l-0.4,1.2l-0.4,1l-0.6,1.2
		h-0.6l-0.8-1l-1-0.2h-1.4l-0.8-0.8l-1-0.6l-1-0.8l-0.8-0.8l-0.8-0.8l-1-0.4l-1.2-0.2h-1.2l-1,0.2l-1.2,0.2l-1.2,0.2l-1,0.4
		l-1.2,0.2h-1.2l-1-0.2l-1.2-0.4l-1-0.2l-1-0.6l-1.2,0.2l-0.2,1.2l-0.6,1l-1-0.2l-1.2-0.2l-1.2-0.2h-1.2l-1.2-0.2l-1-0.6l-0.8-0.8
		l-0.6-1l-1-0.8l-0.8-0.8l-1-0.4l-1,0.2l-0.2,1.2v1.2v1.2l-0.6,1l-1,0.4l-0.8-0.6l-0.8-1h-1.2l-1-0.4l-0.8-1l-0.8-0.8l-0.8-0.8
		l-1-0.6l-1.2-0.4l-1.2,0.2l-1,0.4l-0.2,1.2v1.2l-0.2,1.2l-0.2,1.2l-0.6,1h-1l-0.4-1.2l-0.6-1l-0.8-0.6l-1-0.6h-1.2l-1,0.4l-0.4,1.2
		l-0.8,0.6l-1-0.6l-0.4-1.2l-0.4-1l-1-0.2l-1.2,0.4l-1-0.6l-0.2-1.2l-1-0.4l-0.8,0.8l-0.4,1l0.4,1.2l0.6,1l0.6,1l0.6,1l0.4,1l0.6,1
		l0.4,1.2v1.2v1.2l-0.2,1.2l-0.4,1v1.4v1.2l-0.2,1.2v1.2v1.2l-0.4,1.2l-1.2,0.4h-1.2l-1-0.6l-0.8,0.2l-0.4,1.2l-0.2,1l-0.6,0.4
		l-0.8-1l-0.8-1l-0.4-1l-0.4-1l-0.8-1h-1l-0.2,1.2l0.8,1l0.8,1l0.8,0.8l0.4,1.2l0.6,1l0.2,1v1.2l0.8,1l0.8,1l0.8,0.6l1.2-0.2l1-0.4
		l1,0.6l0.4,1.2l-0.8,0.8l-0.2,1.2l-0.2,1.2l0.4,1l0.8,1l0.6,1l1,0.6l-0.4,1.2l-0.4,1l-0.4,1l-0.6,1l-0.4,1l-0.6,1.2l-0.2,1l-0.4,1
		l-0.2,1.2l0.4,1.2l0.6,1l0.2,1l-1.2,0.2l-1-0.4l-0.8-0.8l-1-0.6l-1-0.6l-1.2-0.2h-1.2l-1,0.4l-1.2,0.4l-1,0.4l-1,0.4l-0.6,0.8
		l0.2,1.2l0.4,1l-1,0.8l-1-0.2l-0.8,1l-0.4,1l-0.2,1.2l-0.4,1l-0.4,1.2l-0.6,0.8l-1,0.6l-1,0.6l-1,0.4l-1.2,0.2l0.2,1.2l0.2,1.2
		l0.4,1l0.4,1l0.2,1.2v1.2l-0.8,1l-1,0.2l-1.2-0.2l-1-0.4l-1-0.8l-1,0.2l-1.2,0.2l-1-0.8l-0.8,0.4v1.2l0.8,1l0.8,0.6l1,0.8l1,0.4
		l1,0.8l0.6,1l0.6,1l0.8,1l1,0.4l1.2,0.4l1,0.4l1,0.6l1.2,0.2l1.2,0.4l1,0.4l0.4,1.2l0.2,1l-0.4,1.2l-0.6,1l-0.6,1v1.2l-1,0.4
		l-1.2,0.6l-0.4,1l-0.2,1.2l0.6,1l0.8,0.8l1,0.8l0.4,1l-0.4,1.2l-0.4,1l-0.2,1.2l-0.2,1.2l0.2,1.2l0.2,1l0.2,1.2l-0.2,1l-1-0.8
		l-1-0.6l-1.2,0.2l-0.4,1l0.2,1.2l0.6,0.8l0.8,1l0.2,1.2l0.6,0.8h1.2l0.8-0.8l0.4-1l0.8,0.8l0.8,1.6l0.8-0.4l1-0.8v-1.2l0.4-1.2h1.2
		l1.2,0.6l0.6,1l0.8,0.8l0.8-0.8h1l0.6,1l0.8-0.6l1-0.6l0.2,1.2l0.8,0.8l1.2-0.4l1.2-0.2l0.8,0.6l0.6,1l0.6,1l1,1l1,0.4l1.2,0.2
		l1.2,0.2l1.2,0.2l1.2,0.2l1.2,0.2l1.2,0.2l1.2,0.2l1.4,0.2l1.2,0.2l0.6,1l0.2,1l1,0.6l1,0.6l0.8,0.8l0.4,1l1,0.6l0.8,0.8l-0.6,1
		l-0.6,1l0.4,1.2l0.4,1l0.6,1l1,0.8l1,0.6l1-0.4l1.2-0.2v1l-0.6,1l0.6,1l1,0.4l0.2,1l-0.6,1l-0.4,1l-0.4,1l-0.2,1.2l-0.4,1.2v1.2
		v1.2l0.2,1.2v1.2l0.4,0.8l-0.2,1l-0.8,1l-1,0.8l-0.8,0.8l-1,0.4l-1.2,0.2l-0.8,0.8l0.6,1h1.2l1.2,0.2l1,0.4l0.2,1.2l-0.8,0.8
		l-0.8,0.8l-0.8,0.6l-1.2,0.6l-1,0.6l-1,0.4h-1.2l-1,0.6l-0.6,0.8l0.4,1.2l0.8,0.6l1,0.8l0.2,1.2l0.2,1l0.8,1l1.2,0.4l0.8,0.8
		l0.8,0.8l0.4,1.2l-0.4,1H298l-1,0.4l0.6,1l0.8,0.8l0.8,0.8L299,414l-1.2-0.2l-1,0.4l-0.2,1l-1.2-0.2l-0.4-1l-1.2-0.4l-0.6,1v1
		l0.4,1.2l-0.8,0.8l-1.2-0.2l-1-0.4l-0.8,0.8l-0.6,1l-0.4,1l-0.6,1l-1.2,0.2l-1-0.4l-1-0.6l-1-0.4l-1.2,0.2l-0.8,1l-0.2,1l0.4,1
		l-1,0.6l-1.2,0.4l-1.2-0.2l-0.8-0.8l-0.6-1l-0.2-1l-0.8-1l-1-0.6h-1.2h-1l-1.2,0.4l-1,0.2l-0.8-1l-1-0.8l-1-0.2l-1.2-0.4l-1-0.2
		l-1.2-0.4l-1-0.4l-1-0.4l-1.2-0.2h-1.2l-1.2-0.2l-1.6,0.4l-1,0.2l-1.2,0.6l-0.8,0.8l-0.8,0.8l-0.8,0.8l-0.6,1l-0.4,1.2l-0.2,1.2
		v1.2v1.2l0.2,1.2l0.2,1l0.6,1l0.6,1l0.6,1l0.2,1l0.6,1l0.2,1.2l-0.4,1.2l-0.6,1l-0.8,0.8l-0.8,0.8l-0.4,1l-0.2,1.2l-0.2,1.2l-0.4,1
		l-0.2,1.2l0.8,1l0.8,1l1,0.8l0.6,1l0.4,1l-0.6,1.2l-0.4,1l0.8,0.6l1.2,0.2l0.6,1l-0.2,1.2v1.2v1.4l-0.2,1.2l0.2,1.2v1.2l0.4,0.6
		l-0.6,1.2l-0.4,1l-0.6,1l-0.4,1l-0.4,1.2l-0.4,1l-0.8,0.8l-0.8,1l-1,0.8l-0.8,0.6l-1,0.6l-1,0.6l-1.2,0.6l-1,0.6l-0.8,0.6l-1,0.8
		l-0.8,0.8l-0.8,1l-0.6,1l-0.4,0.6l-0.8-0.2l-0.4-1v-1.2l-0.2-1.2l-0.8-0.8l-1,0.6l-1,0.2l-0.4-1l-0.2-1.2l-0.8-1h-1.2l-1-0.6
		l-0.4-1l-0.4-1.2l-0.4-1l-0.8-0.8l-0.8-0.8l-0.2-1.2l-0.2-1.2l-0.2-1.2l-0.2-1l-0.6-1.2l0.2-1v-1.2l-1.2-0.4l-1-0.2l-1.2-0.4
		l-0.8-0.8l-0.6-1l-0.6-1l-1-0.6h-1.2l-1,0.6l-0.6,1l-0.4,1l-0.6,1l-0.2,1.2l-0.2,1.2l-0.4,1l-0.8,1l-1-0.4l-0.6-1l-0.4-1l-0.2-1.2
		l-0.4-1.2l-0.2-1l-0.8-0.8l-0.6-1.2l0.6-0.8l1-0.8l-0.2-1.2l-0.2-1l-1.2-0.4l-0.8,0.2l-0.8,1l-0.8,0.6L211,449l-1.2-0.4l-1.2,0.2
		l-0.8,0.8l-1,0.2l-1.2,0.2l-1.2,0.2h-1.2l-1,0.2l-1.2,0.4l-1,0.4l-1,0.4l-1.2,0.6h-0.8l0.6-3.2l4.2-2.2l3.2-2.2l2.4-2.4l1.2-3.2
		l-0.2-0.6l-4.2-1.8l-4.2-1.2l-4.4,0.4l-1.2,1.8l-1.4,2l-1.8,0.4l-1.2-2.2l0.6-3l-0.2-1.6h-1l-1-0.6l-0.8-1L187,431l-0.8-0.8l-1-0.6
		l-0.2-1.2v-1.2l-0.2-1.2l-1-0.6l-1-0.6l-1-0.6l-0.4-1l-0.4-1.2l0.2-1.2l-0.4-1l-1-0.8l-0.4-1l0.2-1.2l0.6-1l1-0.4l1.2,0.2l0.8,0.8
		l1,0.2l1-0.8l0.2-1l-0.2-1.2l-1-0.6l-1-0.4l-1.2-0.2l-1-0.4l-1.2-0.2h-1.4l-1.2-0.2l-1.2-0.2l-1.2,0.2l-1-0.4h-1.2l-1.2,0.6l-1,0.6
		l-0.8,0.8l-0.8,0.8l-0.4,1l-0.6,1l-0.6,1l-0.8-0.4v-1.2l0.2-1.4l-0.6-0.8l-1,0.2l-1.2-0.4l-1.2-0.4l-1-0.2l-1.2-0.2l-1.2-0.4
		l-1.2-0.2l-0.4-1.6l-0.4-1l-1-0.6l-0.8-0.6l-0.2-1.2l-0.4-1.2l-0.8-0.8v-1.2l-0.2-1.2l-0.2-1.2l-1.4-0.8l-1.2,0.4l-0.4,1.2
		l-0.8,0.8h-1l-0.6-0.8l-0.4-1.2l0.2-1.2v-1.2l0.8-0.8h1.2l0.8-0.8l0.2-1.2l-0.6-1l-1.2-0.4l-1-0.4l-1.2-0.4l-1-0.4l-0.6-1l-0.6-1
		L145,390l0.4-1.2l0.6-0.8l-0.4-1l-0.6-1.2l0.4-1l0.2-1.2l0.4-1.2v-1.2v-1.2l0.2-1l1.2-0.2l0.4-0.6l0.4-1.2l0.2-1.2l0.8-0.8l0.6-1
		l0.8-1l1-0.6l1-0.4l0.8-0.8l1-0.6l0.8-1l1.2-0.2h1.2l1-0.4h1.2l1.2-0.2l1-0.2l1.2-0.4l1-0.6l0.6-0.8l0.6-1v-1.2l0.2-1.2v-1.2
		l-0.2-1.2L165,360l-0.2-1.2l-0.2-1l-0.4-0.8l-0.4-1.2l-0.6-1l-0.6-1l-0.8-1l-0.2-1v-1.2l0.2-1.2l0.6-1l0.4-1l0.2-1.2l-0.2-1.2
		l-0.6-1l-0.4-1l-0.6-1l-0.8-1l-0.6-1.2l-0.4-1.2l-0.6-1l-0.6-1.2l-0.4-1l-0.6-1.2l-0.6-1l-0.4-1.2l-0.2-1l-0.2-1.2l-0.2-1.2
		l-0.2-1.2l-0.6-1l-0.6-1l-0.2-1l-0.2-1.2l-0.2-1.2v-1.2l-0.4-1l-0.6-1l-0.8-1l-0.6-1l-0.8-1l-0.6-1h-1l-1.2,0.6l-1,0.2l-1.2-0.4
		l-1-0.6l-0.8-0.8l-0.8-0.8l-0.2-1.2l0.8-0.8l1-0.2l0.6-1l-0.2-1.2l-0.4-1l-0.4-1.2l-1-0.8l-0.8-0.8l-0.6-1l-0.2-1.2V302l-0.2-1
		l-0.2-1.2l-0.2-1.2l-1.4-2l0.4-1.6l-0.2-1l0.4-1.2l0.6-1l0.8-0.6l1.2-0.6l1-0.4l1-0.6l1-0.4l1.2-0.2h1.2l1-0.2l1-0.8l0.4-1.2
		l0.6-0.8l0.8-1l0.8-0.8l-0.4-1.2l-1-0.6l-0.8-1l-0.4-1l-0.4-1.2v-1.2l-0.2-1.2l-0.4-1l-0.4-1l-1-1l-0.8-0.6l-1.2-0.4l-0.8-0.8
		l-0.6-1l-1.2-0.6H142h-1.2l-1-0.2l-0.6-1v-1.2v-1.2v-1.2l-0.2-1.2l-0.2-1.2l-0.2-1l-0.2-1.2l0.4-1.2l-0.6-0.6l-0.4-1.2h-1.2
		l-1.2,0.2l-1-0.2l-1.2-0.6l-1-0.4l-1-0.6l-1.2-0.2l-1-0.4l-1-0.6H127h-1.2l-1-0.6l-0.8-0.8l-1-0.8l-0.8-0.8l-1-0.6l-1-0.6l-1-0.6
		l-0.8-1l-0.2-1v-1.2l-0.8-1l-1-0.6l-1-0.4l-0.4-1l0.2-1.2l-0.2-1.2l-0.8-1l-0.6-1l-0.6-1l-0.4-1l-0.8-1l-0.8-0.8l-1-0.6l-0.4-1.2
		l0.2-1.2l0.2-1.2l-0.4-1V230l-1-0.6l-1-0.4l-0.8-0.8l-1-0.4l-1.2-0.6l-0.8-0.6l-1.2-0.6l-1,0.4l-0.6,1l-1,0.6l-1,0.2l-1.2,0.6
		l-0.8,0.8l-1,0.6l-1,0.4l-1.2,0.2h-1.2l-1.2-0.2l-1.2-0.2l-1-0.6l-0.6-1l-0.2-1.2l-0.6-1l-0.8-0.8l-0.8-0.8l-0.4-1.2l0.6-1l1-0.8
		l0.6-1l0.6-1l1.2-0.2h1.2l1.2-0.2l1-0.4l0.6-1l0.8-0.8l1.2-0.4l1-0.6l0.8-0.8v-1.2l-0.6-0.8l-1.2-0.2h-1.2l-0.8-0.8v-1.2l0.6-1
		l1-0.8l0.8-0.6l1-0.8l1-0.6l0.8-1l0.8-0.8l-0.2-0.8l-1-0.4l-1.2,0.2l-1.2,0.4l-1,0.2l-1.2,0.2h-1.2l-1-0.4l-1.2-0.4l-1-0.4
		l-1.2-0.2l-1.2,0.2l-1.2,0.2l-1-0.4l-1.2-0.2l-1.2-0.4l-1-0.6l-1-0.4l-1.2-0.2l-1-0.4l-1.2-0.4l-1-0.4h-1.2h-1.2l-0.8,0.6l-0.4,1.2
		l-0.8,0.8l-1.2,0.4h-1.2l-1.2-0.2l-1-0.4l-1.2-0.2l-1.2-0.2l-1.2-0.4l-1-0.2l-1.4-0.2l-1.2,0.2l-1-0.4l-0.8-1v-1.4v-1.2l1-0.6
		l1-0.4h1.2l1.2-0.2l1-0.2l1.2-0.4l1.2-0.2l1-0.2l1-0.6l1-0.6l0.2-1.2l0.4-1l0.6-1l0.8-0.6l1.2-0.4h1.2H75h1.2h1.2h1.2l1-0.4h1.2
		l1.2-0.2l1.2-0.2l1-0.2h1.2h1.2h1.4l1,0.4l1,0.4l1,0.6l1.2,0.4l1,0.6l1.2,0.2l1,0.4l1,0.8l1,0.4l1,0.6h1.2l1-0.4l1-0.6l1-0.6l1-0.6
		l1.2-0.4l1-0.2l1.2-0.2l1-0.2l1.2-0.4l1.2-0.2l1.2,0.2h1.2h1.2h1.2l1.2,0.2h1.2h1h1.2l1.2,0.2h1.2l1.2-0.2l1.2,0.2l1.2-0.4l1-0.2
		l1-0.6l1-0.8l1-0.8l0.8-0.6l1-0.8l0.8-1l0.8-0.8l1-0.8l0.8-0.8l1-0.8l0.8-0.8l0.8-0.8l1-0.6l1-0.4l1.2-0.4l1.2-0.2l1-0.4l1-0.6
		l1.2-0.2l1-0.6l1-0.4l1.2-0.2l1-0.4l1.2-0.2l1-0.4l1-0.4l1.2-0.4l1-0.6l1-0.4l1.2-0.2l1.2-0.2l1-0.2l1.2-0.2h1.2h1.2l1.2,0.2
		l1.2,0.2l1.2,0.2l1.2,0.2l1.2,0.2h1.2l1,0.6h1.2l1,0.2l1.2,0.4l1,0.4l1.2,0.2h1.2l1.2-0.2l1.2-0.2l1-0.2l1.2-0.2h1.2h1.2h1.4
		l0.4-1.2l0.6-1l0.4-1l0.4-1.2l0.2-1.2l0.2-1.2l0.2-1l0.8-1h1.2l1.2,0.4l1.2,0.2h1l1-0.6l1.2-0.4l1-0.6l1.2-0.2h1l1.2-0.2l1-0.6
		l0.8-1l0.6-0.8l0.2-1.2l0.4-1l0.8-0.8l0.4-1.2l0.2-1l0.6-1v-1.2l-0.2-1.2l0.4-1.2v-1.2l-0.2-1.2l0.4-1l0.6-1l-0.2-1.2l0.2-1.2
		l0.8-0.8l0.4-1.2l0.4-1l0.6-1l0.4-1l0.4-1l0.4-1v-1.2l-0.6-1l-0.6-1l-0.6-1l-0.8-0.8l-0.8-1l-0.6-1l-0.4-1l-0.2-1.2l-0.4-1
		l-0.2-1.2l-0.2-1.2v-1.2l-0.2-1.2v-1.2l0.2-1.2l0.4-1l0.2-1.2V120l0.2-1.2l0.4-1.2l0.6-1l1-0.4l1-0.4l1-0.6l1-0.6l1-0.8l0.8-0.8
		l0.6-1l0.4-1l0.2-1.2l0.6-1v-0.6l-0.2-1.2l-0.4-1l-0.2-1.2l-0.2-1.2l-0.6-1l-0.4-1l-0.4-1l-0.2-1.2v-1.2v-1.2V96v-1.2v-1.2l0.2-1.2
		l0.2-1.2l0.4-1.2l0.8-0.8v-1.4l-0.4-1l0.2-1.2l0.4-1l0.2-1.2v-1.2l0.4-1.2l0.8-0.8l0.8-1l0.6-0.8l-0.4-1l-0.6-1.2v-1l-0.2-1.2
		l-0.2-1.2l0.6-1l0.4-1l0.4-1.2l-0.4-1l-0.6-1v-1.2l0.2-1.2l0.6-1l0.6-1l0.6-1l0.4-1l0.6-1l0.8-0.8l0.4-1.6l0.6-1l0.2-1.2l0.4-1
		l0.2-1.2v-1.2l0.2-1.2l0.2-1.2l0.4-1l0.6-1l0.6-1l1-0.8l0.6-1l0.8-0.8l0.8-1l0.8-0.8l0.8-0.8l1-0.8l0.6-1l0.8-0.8l0.4-1l0.4-1.2
		l0.2-1.2l0.2-1.2l0.4-1.2l0.2-1.2l0.6-0.8l0.8-1l0.8-1L233,29l1-0.6l1-0.6l1-0.8l1-0.8l0.8-0.8l0.6-1l0.2-1.2l-0.2-1.2l-0.2-1.2
		l0.2-1l0.6-1l0.4-1.2v-1.2l0.4-1l0.4-1.2l0.4-1l0.8-1l0.6-0.8l0.6-1l0.4-1l0.6-1l0.8-1l1-0.8l1-0.4h1.2l1,0.2l1,0.4l1,0.6l1.2,0.6
		l1,0.2l1.2,0.4L255,9l1-0.4l1-0.6l1-0.8l0.8-1l1-0.6l-0.4-1.2l-0.4-1l-0.2-1l-0.4-1.2l0.2-1.2l0.2-1.2l0.2-1.2v-1.2l-0.4-1l-0.4-1
		v-1.2l0.8-1h1.2h1l1.2-0.2l1.2-0.2l1-0.2l1.2-0.2h1.2h1.2l1.2,0.2l1.2,0.2l1.2,0.2l1.2,0.2l1-0.2L275-8h1.2l1.2-0.2l1-0.6l1-0.6
		l0.8-1l0.8-0.8l0.8-0.8l1-0.8l0.8-1l1-0.6l1-0.6l1-0.6l1-0.6l1-0.4l1.2-0.2l1.2-0.2h1.2l1-0.2l1.6-0.4h1.2l1,0.2L298-17h1.2
		l1.2-0.4l1-0.2l1,0.4l0.8,0.8l1,0.6h1.4l1,0.2l0.6,1.8l0.2,1l0.2,1.2l0.2,1.2l0.2,1l0.6,1l-0.2,1.2v1.2l-0.4,1.2l-0.4,1l-0.4,1
		l-0.4,1.6l-0.2,1.2l0.2,1l0.6,1l0.6,1l0.6,1.2l0.4,1l0.4,1l0.2,1.2l0.4,1l0.2,1.2l0.4,1l0.6,1v1l-0.6,1l-0.4,1l-0.2,1.2l0.2,1.6
		l1.8-0.2l1,0.4l1.2,0.2l1.2,0.2l1.2,0.4l1,0.4l0.8,0.8l0.8,1l0.8,1l0.6,1l1,0.8l0.8,0.8l0.4,1l0.2,1.2l-0.2,1.2l-0.4,1l-0.2,1.2
		v1.2l-0.2,1.2l-0.4,1l-0.6,1l-0.8,0.8l-1,0.8l-0.8,0.8l-1,0.8l-1,0.6l-1,0.8l-0.8,0.8l-1,0.8l-1,0.8l-0.8,0.8l-0.8,0.8l-1,0.8
		l-0.8,1l-0.8,0.8l-1,0.8l-0.8,0.8l-0.6,1l-0.6,1l-0.8,1l-0.6,0.8l-0.6,1l-0.6,1l-0.6,1l-0.4,1l-0.8,1l-0.6,1l-0.6,0.8l-0.6,1
		l-0.8,1l-0.6,1l-0.6,0.8l-0.6,0.8l-0.8,1l-0.6,0.8l-0.4,1.2l-0.6,1l-0.4,1l-0.4,1l-0.4,1.2l-0.4,1l-0.6,1l-0.6,1l-0.4,1l-0.8,1
		l-0.6,1l-0.4,1l-0.6,1l-0.6,1l-0.4,1l-0.6,1l-0.4,1l-0.4,1l-0.4,1.2l-0.6,1l-0.6,1l-0.4,1l-0.4,1l-0.6,1.2l-0.6,1l-0.6,1l-0.8,1
		l-0.6,1.2l-0.6,1l-0.6,1l-0.8,1l-0.6,1.2l-0.6,1l-0.8,1l-0.6,1l-0.6,1.2l-0.6,1l-0.8,1l-0.6,1l-0.6,1.2l-0.8,0.8l0.2,0.8l0.8,1
		l0.6,0.8l0.8,1l1,0.8l0.8,1l0.6,1l0.8,0.8l0.8,1l0.6,1l1,0.8l0.8,0.8l1,0.6l1,0.4l1,0.6l1,0.4l1.2,0.6l1,0.4l1,0.6l1,0.4l1,0.8
		l0.8,0.6l1,0.8l0.8,1l0.8,0.8l1,0.4l1,0.8l0.8,0.8l1,0.8l0.8,0.6l1.2,0.4l1.2,0.2l1.2-0.2l2.2,1.6l2.4,2.4l3,0.4l3.8,0.2l2.4-0.2
		l3-1l2.2-1l3.6-2l3.6-1.4l3.4-1l6.1,4.6l6.1,4.6l3.6,3l2.6,2.6l1.8,1.8l2.4,2.8l1.6,4v3.6l0.8,1.8l1.2,1.8l2.2,2l3.4,0.2l0.8,0.2
		l1,0.2l1,0.6l0.4,1l0.6,1l1,0.8l1,0.4h1.2h1.2l1.2,0.4l1,0.4l1,0.4l1,0.6l1.2,0.2l1.2-0.2h1.2l1,0.6L380.3,165.8L380.3,165.8"/>
</g>
</svg>
