<?xml version="1.0" encoding="utf-8"?>
<!-- Generator: Adobe Illustrator 27.0.0, SVG Export Plug-In . SVG Version: 6.00 Build 0)  -->
<svg version="1.1" id="Layer_1" xmlns="http://www.w3.org/2000/svg" xmlns:xlink="http://www.w3.org/1999/xlink" x="0px" y="0px"
	 viewBox="0 0 500 500" style="enable-background:new 0 0 500 500;" xml:space="preserve">
<style type="text/css">
	.st0{fill:#E74646;stroke:#FFFFFF;stroke-width:4.6041;stroke-linecap:square;stroke-linejoin:bevel;stroke-miterlimit:3.998;}
</style>
<g transform="matrix(0.999751,0,0,0.999751,18.6633,21.7738)">
	<path vector-effect="none" class="st0" d="M423.9,341.5l0.2,0.3l0.1,0.4l-0.1,0.4v0.4l-0.1,0.4v0.4l-0.1,0.4l-0.1,0.4l-0.3,0.2
		l-0.4,0.1h-0.4h-0.4l-0.4-0.1l-0.4-0.1l-0.4,0.1l-0.2,0.3l-0.3,0.4l-0.1,0.4l-0.2,0.4l-0.1,0.4l-0.2,0.4l-0.3,0.4l-0.2,0.4
		l-0.1,0.4v0.4l0.1,0.4v0.4v0.4l0.3,0.4l0.3,0.2l0.4,0.1l0.4,0.2l0.4,0.3l0.3,0.3l0.3,0.3l0.2,0.4l0.1,0.4l-0.1,0.4l-0.1,0.4
		l-0.3,0.4l-0.2,0.3l-0.3,0.4l-0.4,0.2l-0.4,0.1l-0.4,0.3l-0.2,0.4l-0.2,0.4l-0.2,0.4l-0.2,0.3l-0.1,0.4l-0.1,0.4l-0.1,0.4v0.4
		l-0.2,0.4l-0.2,0.4l-0.4,0.2l-0.4,0.1l-0.4-0.2l-0.3-0.4l-0.3-0.3l-0.3-0.4l-0.4-0.3l-0.2-0.3l-0.2-0.4l-0.3-0.4l-0.3-0.3l-0.4-0.3
		l-0.3-0.3l-0.4-0.5l-0.3-0.4l-0.3-0.3l-0.3-0.3l-0.3-0.3l-0.4-0.3l-0.3-0.3l-0.4-0.1l-0.4-0.1h-0.4l-0.4,0.1h-0.4l-0.4-0.1
		l-0.4,0.2l-0.1,0.4L409,354l-0.1,0.4l0.1,0.4l0.1,0.4l-0.1,0.4l-0.1,0.4l-0.2,0.4l-0.4-0.1l-0.2-0.4l-0.1-0.4l-0.1-0.4l-0.2-0.4
		l-0.3-0.4l-0.3-0.3l-0.4-0.1l-0.4-0.1l-0.4,0.1l-0.4,0.3l-0.4,0.1h-0.4l-0.4,0.1l-0.4,0.1l-0.4,0.1l-0.4-0.1l-0.4,0.1l-0.4,0.1
		l-0.4,0.1l-0.4,0.1l-0.4,0.1l-0.4,0.1l-0.4,0.2l-0.1,0.4l-0.1,0.4l0.1,0.4l0.1,0.4v0.4l-0.2,0.4l-0.3,0.3l-0.1,0.4l-0.1,0.4
		l-0.2,0.4l-0.4,0.2l-0.4,0.2l-0.3,0.1l-0.1,0.4l-0.1,0.4v0.4l0.1,0.4l0.1,0.4l-0.1,0.4l0.1,0.4l0.1,0.4v0.4l-0.1,0.4l-0.1,0.4
		l-0.1,0.4l-0.1,0.4l-0.1,0.4l0.3,0.3l0.4,0.2l0.4,0.2l0.4,0.1l0.4,0.1l0.4,0.1l0.4,0.1l0.4,0.1l0.3,0.4v0.4l0.1,0.4l0.1,0.4
		l0.2,0.4l0.1,0.4l0.1,0.4l-0.1,0.4l-0.2,0.3l-0.1,0.4v0.4l-0.1,0.4l-0.1,0.4l-0.1,0.4l-0.1,0.4l-0.1,0.4l-0.2,0.4l-0.2,0.4
		l-0.1,0.4l-0.3,0.4l-0.3,0.3l-0.3,0.4l-0.3,0.2l-0.4,0.3l-0.4,0.3l-0.4,0.1l-0.4,0.2l-0.3,0.1l-0.4,0.1l-0.4-0.1l-0.4-0.3l-0.3-0.4
		l-0.3-0.2l-0.4-0.2l-0.4-0.1l-0.4,0.1l-0.4,0.2l-0.4,0.3l-0.4,0.3l-0.4,0.2l-0.4,0.2l-0.4,0.1l-0.4,0.2l-0.4,0.1l-0.4,0.1l-0.4,0.1
		l-0.4,0.2l-0.4,0.2l-0.4-0.1l-0.4-0.2l-0.3-0.3l-0.3-0.3l-0.4-0.1l-0.4-0.1l-0.4-0.1l-0.4-0.1l-0.4-0.2l-0.4-0.1h-0.4h-0.4
		l-0.4-0.1l-0.4-0.1l-0.4-0.2l-0.2-0.3l-0.4-0.2l-0.4-0.1l-0.4-0.1l-0.4-0.2l-0.3-0.3l-0.3-0.4l-0.3-0.4l-0.4-0.1l-0.4,0.2l0.1,0.4
		l0.2,0.4l0.2,0.4l0.2,0.4l0.1,0.4l0.1,0.4l0.1,0.4l-0.1,0.4l-0.4,0.1l-0.4-0.1l-0.3-0.4l-0.2-0.4l-0.4-0.1l-0.3,0.4l-0.1,0.4
		l-0.1,0.4v0.4v0.4l0.1,0.4l-0.1,0.4v0.4l-0.1,0.4l-0.1,0.4l-0.2,0.4l-0.4,0.2l-0.4,0.1l-0.4,0.1l-0.4,0.2l-0.2,0.4l-0.1,0.4
		l0.1,0.4l-0.1,0.4l-0.2,0.4l-0.2,0.4l-0.4,0.3l-0.3,0.2l-0.4,0.3l-0.4,0.2l-0.4,0.2l-0.6,0.1l-0.6-0.6l-0.8-0.6l-0.8-0.3l-0.4-0.9
		l-0.4-0.8l-0.1-0.8l0.9-0.6l1.1-0.5l1.1-1.2l0.4-1.4l-0.3-0.3l-0.3-0.4l-0.1-0.4v-0.4l-0.1-0.4l-0.1-0.4L374,375l-0.2-0.4l-0.2-0.4
		l-0.1-0.4l-0.1-0.4l-0.1-0.4l-0.4-0.2l-0.4-0.1l-0.4-0.1l-0.1-0.4l-0.1-0.4l-0.1-0.4l-0.4-0.3l-0.3-0.3l-0.2-0.4l-0.2-0.4l-0.4-0.2
		l-0.4,0.1l-0.4,0.1l-0.3,0.4l-0.4,0.2l-0.4,0.1l-0.4,0.1l-0.4-0.1l-0.5-0.1l-0.4-0.1l-0.4-0.1l-0.4-0.1l-0.4-0.1l-0.4,0.2l-0.4,0.2
		l-0.4,0.3l-0.1,0.4l-0.2,0.4l-0.1,0.4l-0.1,0.4v0.4v0.4l0.1,0.4v0.4l-0.2,0.4l-0.3,0.3l-0.3,0.3l-0.2,0.4l-0.4-0.2l-0.3-0.4
		l-0.3-0.4l-0.3-0.3h-0.4h-0.4l-0.4-0.1l-0.4-0.2l-0.4-0.1l-0.3-0.3l-0.1-0.4l-0.1-0.4l-0.1-0.4l-0.1-0.4l0.2-0.4l0.4-0.3l0.4-0.2
		l0.4-0.3l0.2-0.4V370v-0.4l0.1-0.4l0.1-0.4l0.1-0.4l-0.1-0.4l-0.1-0.4l-0.2-0.4l0.1-0.4l0.1-0.4l0.1-0.4l0.1-0.4l0.1-0.4l0.1-0.4
		l-0.2-0.4l-0.4-0.2l-0.4-0.2l-0.3-0.3l-0.3-0.4l-0.3-0.4l-0.4-0.1l-0.4-0.1l-0.3-0.4l-0.1-0.4l0.1-0.4l0.1-0.4l0.1-0.4l-0.4-0.2
		h-0.4h-0.4h-0.4h-0.4h-0.4l-0.6-0.9l-0.6-1.1l-0.6-1.5l-0.8-1.1l-0.4-0.2l-0.9,0.4v1.1l-0.4,1.6l-0.8,1.1l-0.7-0.1l-1.4-0.4
		l-0.6,0.4v0.7l0.3,0.9l0.1,1.4l-0.6,2.6l-0.4,2.5l-0.6,1.1l-0.8-0.6l-0.1-0.7l-0.4-1.3l-0.7-0.1l-0.9,0.4l-1.1,0.1h-0.6l-0.5-0.6
		l-0.4-0.7l-0.5-1l-0.8-0.5l-1.6-0.4l-0.9-0.6l-1.6-1l-1.4-0.8l-1.3-1.2l-1.8-0.1l-1.1,0.1l-0.8-0.5l0.1-0.4v-0.4l-0.1-0.4l-0.1-0.4
		v-0.4l-0.1-0.4l-0.1-0.4l-0.1-0.4l-0.1-0.4l0.1-0.4l-0.1-0.4l-0.1-0.4l-0.1-0.4l-0.3-0.3l-0.4-0.2l-0.2-0.4l-0.1-0.4l-0.3-0.3
		l-0.4-0.1l-0.4-0.1l-0.5-0.1l-0.4-0.1l-0.4-0.1l-0.4-0.2l-0.3-0.4l-0.3-0.3l-0.4-0.3l-0.3-0.4l-0.4-0.1l-0.4-0.1l-0.3-0.3l-0.3-0.4
		l-0.3-0.4h-0.4l-0.4,0.2l-0.3,0.4h-0.4l-0.3-0.2l-0.2-0.4l-0.1-0.4l-0.1-0.4l-0.4-0.2l-0.4-0.2L319,348l-0.4-0.1l-0.4-0.1l-0.4-0.2
		l-0.4-0.3l-0.4-0.2l-0.4-0.1l-0.4-0.2l-0.2-0.4l-0.2-0.4l-0.3-0.4l-0.3-0.4l-0.1-0.4l-0.3-0.4l-0.2-0.4l-0.1-0.3l-0.3-0.3l-0.3-0.4
		l0.2-0.3l0.4-0.4l0.1-0.4l0.1-0.4l-0.2-0.4l-0.3-0.3l-0.2-0.4v-0.4l-0.2-0.4l-0.2-0.4l-0.1-0.4l0.1-0.4l0.2-0.4l0.3-0.3l0.3-0.4
		l0.1-0.4l0.1-0.4l-0.1-0.4l-0.3-0.2l-0.4-0.3l-0.2-0.4l-0.1-0.4l-0.1-0.4l-0.1-0.4l-0.1-0.4v-0.4l0.2-0.4l0.3-0.4l0.2-0.3l-0.1-0.4
		l-0.1-0.4l-0.3-0.4l-0.2-0.4l-0.3-0.4l-0.2-0.4l-0.2-0.4l-0.3-0.2l-0.4-0.3l-0.4-0.3l-0.3-0.3l-0.3-0.3l-0.3-0.4l0.2-0.4l0.2-0.4
		l0.1-0.4v-0.4l-0.1-0.4l-0.2-0.4l-0.4-0.1l-0.3-0.4l-0.2-0.4l-0.1-0.4l0.1-0.4l0.3-0.4l0.4,0.1h0.4l0.4-0.3l0.1-0.4l-0.2-0.4
		l-0.2-0.4l-0.2-0.4l-0.4-0.2l-0.3-0.2l-0.3-0.4l-0.2-0.4l-0.2-0.4l-0.3-0.4l-0.2-0.4l-0.2-0.4l-0.2-0.4l-0.2-0.3l-0.4-0.3l-0.4-0.2
		l-0.1-0.4l-0.1-0.4l-0.2-0.4l-0.1-0.4l-0.1-0.4l-0.1-0.4l-0.2-0.4l-0.2-0.4l-0.3-0.4l-0.3-0.3l-0.4-0.2l-0.4-0.1l-0.4-0.1l-0.4-0.2
		l-0.4-0.3l-0.3-0.2l-0.4-0.4h-0.4l-0.4,0.1l-0.4,0.1l-0.4,0.1l-0.4,0.1l-0.4,0.1h-0.4l-0.4,0.1l-0.4-0.1L299,314l-0.4,0.1l-0.4,0.1
		l-0.4-0.2l-0.1-0.4l0.1-0.4l0.2-0.4l0.4-0.3l0.2-0.4l0.1-0.4l-0.2-0.4l-0.3-0.3l-0.4-0.2l-0.4-0.3l-0.4-0.2l-0.3-0.3l-0.4-0.2
		l-0.4-0.1l-0.4-0.1l-0.4-0.2l-0.4-0.2l-0.4-0.1l-0.4-0.2l-0.4-0.1l-0.4-0.1H293l-0.4,0.2l-0.4,0.1l-0.4,0.2l-0.4-0.1l-0.2-0.4
		l-0.4-0.2l-0.4-0.2l-0.4-0.1l-0.4,0.1l-0.4,0.1h-0.4h-0.4H288h-0.4l-0.4,0.1l-0.4,0.3l-0.2,0.3l-0.1,0.5l-0.4,0.3l-0.4,0.1
		l-0.4,0.1l-0.4,0.1l-0.4,0.1l-0.4,0.1l-0.4,0.1l-0.4,0.2l-0.4,0.2l-0.4,0.2l-0.4,0.1h-0.4l-0.4-0.1L281,311l-0.4-0.2l-0.4-0.1
		l-0.4-0.1l-0.3-0.4l-0.1-0.4l0.1-0.4l0.3-0.4l0.2-0.3l0.3-0.4l0.2-0.1l0.4-0.3l0.2-0.4l0.1-0.4v-0.4l-0.1-0.4L281,306l-0.4-0.2
		l-0.4-0.1l-0.4-0.1l-0.4-0.3l-0.2-0.4l-0.1-0.4l-0.2-0.4l-0.1-0.4l-0.4,0.3l-0.4,0.3l-0.4,0.3l-0.4,0.3l-0.3,0.3l-0.2,0.4l-0.1,0.4
		l-0.1,0.4l-0.1,0.4l-0.3,0.3l-0.3,0.3l-0.3,0.4l-0.4-0.1l-0.4-0.2l-0.4-0.1H274l-0.4,0.1l-0.4,0.2h-0.4l-0.4,0.1H272l-0.4,0.2
		l-0.4-0.1l-0.4-0.1h-0.4h-0.4l-0.4,0.1l-0.4,0.1l-0.4,0.2l-0.4,0.1l-0.4,0.1l-0.4-0.1l-0.4-0.3l-0.4-0.1l-0.1,0.4v0.4l-0.1,0.4
		l-0.3,0.4l-0.4,0.3l-0.2,0.3l-0.1,0.4l0.2,0.4l0.3,0.3l0.2,0.4l0.1,0.4l0.1,0.4l0.1,0.4l0.1,0.4l0.1,0.4l0.1,0.4v0.4l-0.1,0.5
		l-0.1,0.4v0.4v0.4l-0.1,0.4v0.4l-0.1,0.4l-0.1,0.4l-0.1,0.4l-0.1,0.4l-0.1,0.4l-0.1,0.4l-0.1,0.5v0.4l0.1,0.4l0.4,0.3l0.4,0.1
		l0.4,0.1h0.4l0.4-0.1h0.4l0.4,0.1l0.4,0.3l0.2,0.4l0.1,0.4l-0.1,0.4l-0.1,0.4l-0.1,0.4v0.4v0.4l0.1,0.4v0.4l0.1,0.4l0.1,0.4v0.4
		l0.1,0.4l0.4,0.2l0.4,0.1l0.4,0.1h0.4l0.4,0.1l0.4,0.1l0.4,0.1l0.4-0.1l0.5,0.1l0.3,0.2l0.2,0.4l0.2,0.4l0.3,0.3l0.4,0.3l0.4-0.1
		l0.4,0.1h0.4h0.4l0.4,0.1l0.4,0.1l0.4,0.3l0.1,0.4l-0.1,0.4l-0.4,0.2l-0.6,0.1l-0.3,0.3l-0.3,0.4l-0.4,0.1l-0.4,0.1l-0.4,0.1
		l-0.4,0.4l-0.2,0.4l-0.4,0.2h-0.4l-0.4-0.1l-0.4-0.1l-0.4,0.1l-0.2,0.4l-0.1,0.4l-0.1,0.4l-0.2,0.4l-0.2,0.4l-0.2,0.4l-0.2,0.4
		l-0.1,0.4l-0.2,0.4l-0.1,0.4L270,337l-0.3,0.4l-0.4,0.2l-0.4,0.3l-0.4,0.2l-0.4,0.2l-0.4,0.1l-0.4,0.3l-0.4,0.3l-0.3,0.3l-0.3,0.4
		l-0.4,0.2l-0.3,0.4l-0.1,0.4l-0.1,0.4l-0.1,0.4l-0.1,0.5l0.2,0.4l0.2,0.4l0.3,0.4l0.2,0.4l0.2,0.4l0.2,0.4l0.1,0.4v0.4l-0.1,0.4
		l-0.3,0.3l-0.4,0.1l-0.4,0.2l-0.3,0.3l0.1,0.4l0.3,0.4l0.1,0.4l-0.2,0.4l-0.4,0.1h-0.4l-0.4-0.1h-0.4h-0.5h-0.4l-0.4,0.1l-0.4,0.1
		l-0.4,0.1l-0.4-0.1l-0.4,0.1l-0.4-0.1l-0.4,0.1l-0.4,0.2l-0.1,0.4l-0.1,0.4l-0.2,0.4l-0.2,0.3l-0.2,0.4l0.1,0.4l0.4,0.2l0.4,0.3
		l0.1,0.4l0.1,0.4l0.1,0.4l0.1,0.4v0.4l-0.1,0.4l-0.2,0.4l-0.1,0.4l-0.1,0.4l0.1,0.4l0.2,0.4l0.1,0.4l0.1,0.4l0.1,0.4l0.1,0.4
		l0.1,0.4l0.1,0.4v0.5l-0.1,0.4l0.1,0.4l0.2,0.4l0.3,0.4l0.1,0.4l0.1,0.4l0.1,0.4l0.3,0.4l0.3,0.2l0.4,0.3l0.4,0.2l0.3,0.4l0.4,0.2
		l0.3,0.4l0.3,0.3l0.4,0.2l0.4,0.2l0.4,0.1l0.4,0.1l0.4,0.1l0.4,0.3l0.3,0.3l0.3,0.4l0.3,0.4l0.2,0.4l0.1,0.4l0.3,0.4l0.3,0.3
		l0.4,0.3l0.4,0.2l0.4,0.2l0.4,0.2l0.4,0.3l-0.3,0.3l-0.4,0.3l-0.4,0.1l-0.4,0.2h-0.4l-0.4,0.1h-0.4h-0.4h-0.4h-0.4H266l-0.4-0.1
		h-0.4l-0.4-0.1h-0.4l-0.4-0.1l-0.4-0.1l-0.4-0.1l-0.4-0.1l-0.4-0.1l-0.4-0.1l-0.4-0.1l-0.4-0.1l-0.4-0.1l-0.4-0.1l-0.4-0.1
		l-0.4-0.1l-0.4-0.1l-0.3-0.4l-0.4-0.3l-0.4-0.1l-0.3,0.3l0.1,0.4l0.1,0.4l0.1,0.4l-0.2,0.4l-0.4,0.2l-0.4,0.1l-0.4,0.1l-0.3,0.4
		l-0.2,0.4v0.4l0.1,0.4l0.3,0.3l0.4,0.1l0.4,0.1l0.4,0.1l0.3,0.4l0.1,0.4l0.1,0.4l0.1,0.4l0.1,0.4l0.1,0.4v0.4l0.1,0.4l-0.1,0.4
		l-0.4,0.1l-0.4-0.1l-0.4-0.1l-0.4-0.1l-0.4,0.1l-0.1,0.4l0.4,0.3l0.4,0.1l0.4,0.1l0.4,0.1l0.4,0.1l0.1,0.4v0.4l-0.1,0.4l-0.4,0.3
		l-0.4,0.1l-0.4,0.1l-0.4,0.1l-0.4,0.1l-0.4-0.1l-0.3-0.3l-0.2-0.4l-0.2-0.4l-0.3-0.2h-0.4l-0.4,0.2l-0.3,0.3l-0.2,0.4l-0.1,0.4
		l-0.1,0.4l-0.2,0.4l-0.1,0.4l-0.1,0.4l-0.1,0.4l-0.1,0.4l-0.2,0.4l-0.2,0.4l-0.1,0.4l-0.1,0.4v0.4l0.2,0.4l0.4,0.3l0.1,0.4l0.1,0.4
		l0.1,0.4l0.1,0.4l-0.1,0.4l-0.1,0.4l-0.1,0.4l-0.2,0.4l-0.4,0.1h-0.4l-0.4-0.2l-0.4-0.2l-0.3-0.3l-0.4-0.3l-0.3-0.3l-0.4-0.3h-0.4
		l-0.4,0.1l-0.1,0.4l0.2,0.4l0.4,0.3l0.3,0.3l0.2,0.4l-0.2,0.4l-0.4,0.1l-0.4-0.1l-0.3-0.4l-0.4-0.1l-0.4,0.3l-0.1,0.4l-0.2,0.3
		l-0.3-0.2l-0.4-0.3l-0.4-0.1l-0.4-0.1l-0.4-0.1l-0.4-0.1l-0.4-0.1h-0.4l-0.4-0.1l-0.4-0.2l-0.4-0.2l-0.4-0.1l-0.5-0.4l-0.4-0.1
		l-0.4-0.2l-0.3-0.3H241l-0.3,0.4l-0.3,0.2l-0.6-0.2l-0.4-0.1l-0.4,0.1l-0.3,0.4l-0.1,0.4l0.2,0.4l0.4,0.3l0.2,0.4v0.4l-0.1,0.4v0.4
		l-0.1,0.4l-0.2,0.4l-0.3,0.1l-0.2-0.4l-0.1-0.4l-0.1-0.4l-0.3-0.3l-0.3-0.4l-0.4-0.3l-0.4-0.1l-0.4,0.1l-0.4,0.3l-0.3,0.3l-0.2,0.3
		l-0.2,0.4h-0.4l-0.1-0.4l-0.1-0.4l-0.1-0.4l-0.3-0.3l-0.4-0.1l-0.4-0.1l-0.4-0.2l-0.4-0.1l-0.4-0.2l-0.4-0.2l-0.4-0.1h-0.4
		l-0.3,0.2l0.2,0.4l0.2,0.4l-0.1,0.3l-0.1,0.6l0.1,0.4l-0.1,0.4l-0.1,0.4l0.1,0.4l0.4,0.2l0.4,0.1l0.1,0.4l-0.1,0.4l0.1,0.4l0.3,0.4
		l0.3,0.4v0.4l-0.1,0.4l-0.1,0.4l-0.4,0.2l-0.4,0.1l-0.4,0.1l-0.2,0.4l0.1,0.4v0.4v0.4l0.1,0.4l0.2,0.4l0.3,0.4l0.2,0.4l0.1,0.4v0.4
		l-0.1,0.4l0.1,0.4l0.3,0.4l0.3,0.3l0.4,0.3l0.1,0.4l-0.1,0.4l-0.3,0.3l-0.3,0.4l-0.2,0.3l-0.1,0.4l-0.1,0.4l-0.3,0.3l-0.4-0.1
		l-0.5-0.4h-0.4h-0.5l-0.4-0.1l-0.4-0.3l-0.3-0.2l-0.4-0.2l-0.3-0.4l-0.4-0.5l-0.1-0.4l-0.1-0.4l-0.4-0.2l-0.3,0.1l-0.2,0.4
		l-0.4,0.2l-0.4-0.3l-0.3-0.4l-0.4-0.5l-0.4-0.1l-0.4,0.1l-0.4,0.2l-0.4,0.1l-0.4,0.1l-0.4-0.1l-0.3-0.3l-0.4-0.3l-0.3-0.3l-0.2-0.3
		l-0.2-0.4l-0.4-0.3l-0.4-0.2l-0.4-0.1l-0.4-0.2l-0.3-0.3l-0.3-0.4l-0.2-0.4l-0.4-0.2l-0.4-0.3l-0.1-0.4l-0.1-0.4l-0.1-0.4l-0.1-0.4
		l-0.3-0.4l-0.2-0.4l-0.4-0.1l-0.4-0.2l-0.4-0.2l-0.2-0.4l-0.1-0.4l0.1-0.4l-0.1-0.4l-0.1-0.4l-0.3-0.4l-0.2-0.4v-0.4l-0.1-0.4
		l-0.1-0.4l-0.4-0.3l-0.4-0.2l-0.1-0.4l-0.1-0.4l-0.4-0.1h-0.4l-0.3,0.2l-0.1,0.4l-0.3,0.3l-0.4,0.2l-0.3,0.3l-0.3,0.3l-0.3,0.3
		l-0.4,0.2l-0.4,0.1l-0.4,0.2l-0.3,0.1l-0.2,0.4l0.1,0.4l0.1,0.4l-0.1,0.4l-0.4,0.1l-0.4-0.1l-0.4-0.1h-0.4l-0.3,0.3l-0.2,0.4
		l-0.3,0.3l-0.3,0.4v0.4l0.1,0.4l0.3,0.4l0.4,0.3l0.3,0.4l0.3,0.3l0.3,0.4l0.3,0.3l0.4,0.3l0.4,0.2l0.3,0.4l-0.1,0.6l0.1,0.4
		l0.1,0.4l0.3,0.4l0.2,0.4l0.1,0.4v0.4l-0.1,0.4l-0.2,0.4l-0.4,0.2l-0.3,0.3l-0.1,0.4l-0.1,0.4l-0.2,0.4l-0.2,0.4l0.1,0.6l0.3,0.3
		l0.4,0.2l0.4,0.1l0.1,0.4l-0.4,0.3l-0.2,0.4l-0.1,0.4l-0.1,0.4l-0.2,0.4l-0.3,0.3l-0.4,0.1l-0.4-0.1l-0.4-0.1l-0.4-0.2l-0.3-0.3
		l-0.2-0.4l-0.1-0.4l-0.1-0.4l0.1-0.5l-0.1-0.4l-0.2-0.4l-0.1-0.4v-0.4l0.1-0.4l0.1-0.4v-0.4v-0.4l-0.1-0.4l-0.1-0.4l-0.1-0.4
		l-0.1-0.4l-0.6-0.1l-0.4-0.2l-0.1-0.4l-0.4-0.2l-0.4-0.1l-0.4-0.1l-0.4-0.2h-0.4l-0.4,0.2l-0.4-0.1l-0.4-0.1l-0.4-0.1l-0.4,0.1
		l-0.4,0.1l-0.4-0.1l-0.4-0.1l-0.4-0.1l-0.4-0.1l-0.4-0.1l-0.4-0.3l-0.4-0.1l-0.4-0.1l-0.4-0.1l-0.4-0.1h-0.4l-0.4,0.2l-0.4,0.2
		l-0.3,0.4l-0.3,0.3l-0.4,0.2l-0.3-0.3l-0.1-0.4l-0.2-0.4l-0.1-0.4l-0.1-0.4l-0.2-0.4l-0.1-0.4l-0.3-0.3l-0.3-0.4l-0.4-0.3l-0.4-0.2
		l-0.4-0.1l-0.4-0.1l-0.4-0.1l-0.4-0.2l-0.4-0.1l-0.4-0.2l-0.4-0.1l-0.4-0.2l-0.4-0.1l-0.4-0.1l-0.4-0.1l-0.4,0.1l-0.4,0.1l-0.4,0.1
		l-0.4,0.2l-0.4,0.2l-0.4,0.1l-0.4,0.1l-0.4,0.1l-0.4-0.1l-0.4-0.1l-0.4-0.3l-0.4-0.2l-0.2-0.4l-0.2-0.4l-0.1-0.4l-0.1-0.4l-0.2-0.4
		l-0.3-0.4l-0.2-0.4l-0.3-0.4l-0.2-0.4l-0.1-0.4v-0.4l-0.1-0.4v-0.4v-0.4l-0.1-0.4v-0.4l-0.1-0.4l-0.2-0.4l-0.2-0.4l-0.2-0.4
		l-0.1-0.4v-0.4V382v-0.4v-0.4l0.1-0.4l0.1-0.4l0.2-0.4l0.4-0.1l0.4-0.2l0.3-0.4l0.2-0.4v-0.4l0.1-0.4l0.2-0.4l0.4-0.2l0.4-0.1
		l0.3-0.3l0.1-0.4l0.1-0.4l0.1-0.4v-0.4l-0.1-0.4l-0.1-0.4l-0.1-0.4l0.1-0.4l0.1-0.4l-0.1-0.4l-0.2-0.4l-0.1-0.4l0.2-0.3l-0.4-0.3
		l-0.4-0.1h-0.4l-0.4,0.2l-0.4,0.1l-0.4-0.1l-0.3-0.4l-0.2-0.4l-0.2-0.4l-0.2-0.4l-0.3-0.4l-0.1-0.4v-0.4l0.1-0.5l-0.1-0.4l-0.4-0.2
		l-0.4-0.2l-0.4-0.1l-0.4-0.1l-0.4-0.1h-0.4h-0.4h-0.4h-0.4l-0.4-0.1l-0.4-0.2l-0.4-0.1l-0.4-0.1l-0.4-0.1h-0.5l-0.4-0.1l-0.4-0.1
		l-0.4-0.1l-0.4,0.1h-0.4l-0.4-0.1l-0.4-0.1l-0.4-0.2l-0.3-0.4v-0.4l0.1-0.4l-0.1-0.4l-0.2-0.4l-0.1-0.4l-0.4-0.3l-0.4-0.1l-0.4-0.1
		l-0.2-0.4l-0.3-0.4l-0.4-0.2l-0.4-0.1l-0.4-0.2l-0.4-0.1l-0.4-0.1l-0.3-0.4l-0.5-0.3l-0.1-0.3l0.1-0.4l0.4-0.2l0.4,0.1l0.4,0.2
		l0.4-0.1v-0.4l-0.1-0.4l-0.1-0.4l-0.2-0.4l-0.1-0.4l-0.1-0.4l-0.1-0.4l-0.1-0.4l-0.1-0.4l-0.1-0.4l-0.2-0.3l-0.4-0.2l-0.4-0.1
		l-0.4-0.1l-0.4-0.2l-0.4-0.2l-0.4-0.3l-0.4-0.2l-0.3-0.2l-0.3-0.4l-0.1-0.4v-0.4l0.2-0.4l0.1-0.4v-0.4l-0.3-0.3l-0.4-0.2l-0.4-0.2
		l-0.3-0.3l-0.1-0.4l-0.1-0.4l-0.2-0.4l-0.3-0.4l-0.4-0.1l-0.4-0.2L159,349l-0.3-0.4l-0.3-0.3l-0.3-0.3l-0.4-0.3l-0.3-0.4l-0.1-0.4
		l-0.2-0.4l-0.2-0.4l-0.3-0.4l-0.4-0.2l-0.4,0.1l-0.2,0.4l-0.1,0.5l0.1,0.4l-0.4,0.2l-0.4,0.1l-0.4,0.1l-0.4,0.1l-0.4,0.3l-0.3,0.3
		l-0.4,0.2l-0.4,0.1h-0.4h-0.4l-0.4-0.2l-0.3-0.3l-0.4,0.1l-0.4,0.1l-0.3,0.4l-0.1,0.4l-0.1,0.4l-0.4,0.2l-0.4-0.2l-0.3-0.3
		l-0.3-0.4l0.1-0.4l-0.1-0.4l-0.4-0.2l-0.4,0.1l-0.3,0.3l-0.1,0.4l-0.1,0.4l-0.1,0.4l-0.1,0.4l-0.1,0.4l-0.1,0.4l-0.4,0.2h-0.4
		l-0.4-0.1l-0.4-0.3h-0.4l-0.4,0.1l-0.4,0.2l-0.4,0.1l-0.4,0.1l-0.4-0.1l-0.4-0.2l-0.4-0.1l-0.4-0.1h-0.4h-0.4h-0.4l-0.4,0.1
		l-0.3,0.2l-0.4,0.4l-0.1,0.4v0.4l-0.2,0.4l-0.3,0.3H138l-0.4,0.2l-0.3,0.4h-0.4l-0.4-0.1l-0.3-0.3l-0.4-0.3l-0.3-0.3l-0.3-0.4
		l-0.4-0.1l-0.4-0.1l-0.4-0.1l-0.4,0.1l-0.3,0.4L133,352l-0.4-0.1h-0.3l-0.2-0.2l-0.1-0.4l-0.4-0.2l-0.4-0.1v-0.4l-0.2-0.4l-0.4-0.1
		l-0.5-0.1l-0.4-0.1l-0.2,0.4l-0.1,0.4l-0.4,0.1l-0.3-0.3l-0.3-0.4l-0.3-0.3l-0.5-0.1h-0.4h-0.4l-0.1-0.4v-0.4l0.1-0.4l-0.1-0.4
		l-0.3-0.4l-0.3-0.3l-0.3-0.4l-0.1-0.4l0.1-0.4l-0.3-0.3l-0.4-0.1l-0.4-0.1l-0.1-0.4l-0.4-0.2l-0.5-0.1h-0.4l-0.4-0.2l-0.4-0.2
		l-0.4-0.2l-0.4-0.2h-0.4l-0.4-0.1l-0.4-0.1l-0.4-0.1l-0.4,0.1l-0.3,0.4l-0.1,0.4l-0.3,0.4l-0.4,0.1l-0.4,0.2l-0.4,0.2l-0.3,0.3
		l-0.3,0.3l-0.4,0.3l-0.4,0.1l-0.4,0.1l-0.4,0.1l-0.4,0.2l-0.4-0.1l-0.4-0.1L114,347l-0.3-0.2l-0.1-0.4l-0.2-0.4l-0.4-0.2v-0.6v-0.4
		l-0.1-0.4l-0.2-0.4l-0.4-0.3l-0.4-0.2l-0.4-0.1h-0.4h-0.4l-0.4,0.1l-0.4,0.1l-0.4,0.1l-0.4-0.1l-0.3-0.4l-0.1-0.4l-0.4-0.3
		l-0.4-0.1l-0.5-0.1L107,342l-0.1-0.4l0.2-0.4l0.2-0.4l-0.1-0.4l-0.4-0.1l-0.4-0.1l-0.4-0.1l-0.4-0.3v-0.4V339l-0.1-0.4v-0.4
		l-0.2-0.4l-0.3-0.3l-0.4-0.1l-0.4,0.1l-0.4,0.1h-0.4l-0.2-0.4l-0.4-0.1l-0.4,0.1l-0.4,0.1l-0.4,0.2l-0.4,0.2l-0.4,0.2h-0.4
		l-0.4-0.1l-0.4-0.1l-0.4,0.1l-0.4,0.2l-0.4,0.3l-0.4-0.1l-0.1-0.4l0.1-0.4l0.1-0.4l-0.1-0.4L98,336l0.1-0.5l-0.1-0.4l-0.3-0.4
		l-0.1-0.4v-0.4l-0.1-0.4V333l-0.1-0.4l-0.4-0.1l-0.4,0.1l-0.4,0.2l-0.4,0.1l-0.4,0.3l-0.4,0.1l-0.4,0.1l-0.4-0.1l-0.4-0.2l-0.4-0.1
		l-0.4,0.1l-0.4,0.1l-0.2,0.3l-0.4,0.4l-0.4-0.1l-0.3-0.4l-0.2-0.4l-0.1-0.4l-0.4-0.2l-0.4-0.1l-0.4-0.1h-0.4H89l-0.4-0.1l-0.1-0.4
		l-0.2-0.4l-0.3-0.3l-0.4-0.1h-0.4l-0.4-0.3l-0.3-0.3l-0.3-0.4l-0.4-0.2l-0.4-0.1l-0.4,0.1l-0.3,0.3l-0.2,0.4l-0.2,0.4l-0.4,0.2
		l-0.4,0.1l-0.4-0.1l-0.3-0.3l-0.4-0.3l-0.3-0.3l-0.4-0.2l-0.4,0.1l-0.4-0.2l-0.6-0.2l-0.3-0.3l-0.4-0.1l-0.4-0.2l-0.4-0.1l-0.4-0.1
		l-0.4-0.2l-0.4-0.2l-0.4-0.3l-0.3-0.3l-0.4-0.2l-0.4,0.1l-0.4,0.2l-0.4,0.1l-0.4-0.1l-0.4-0.2l-0.4-0.2l-0.4-0.3h-0.4l-0.2,0.4
		l-0.1,0.4l-0.4,0.1l-0.4-0.1l-0.3-0.3l-0.3-0.4h-0.5l-0.4,0.2l-0.4,0.2l-0.3,0.3l-0.4,0.1h-0.4l-0.3-0.3l-0.3-0.3l-0.4-0.4
		l-0.4-0.1l-0.3,0.4l-0.1-0.6l-0.1-0.4l0.1-0.5l0.2-0.4l0.1-0.4v-0.4l-0.1-0.4L68,324l0.4-0.2l0.4-0.1l0.3-0.2l0.1-0.4l-0.1-0.4
		l-0.2-0.4l-0.3-0.4l-0.3-0.4l-0.3-0.2l-0.4-0.1l-0.4-0.1l-0.4-0.2l-0.2-0.4l-0.4-0.1l-0.4,0.1l-0.4,0.2l-0.3,0.3l-0.4,0.2l-0.4,0.1
		l-0.4-0.1l-0.4-0.1l-0.4-0.1l-0.5-0.1l-0.4-0.1l-0.4,0.2l-0.2,0.4v0.4l-0.4,0.1l-0.5,0.1l-0.4,0.2l-0.4,0.2h-0.4l-0.4-0.1l-0.4-0.1
		l-0.4-0.3l-0.1-0.4v-0.4l-0.2-0.4l-0.1-0.4l-0.3-0.3l-0.3-0.3l-0.1-0.4v-0.4l-0.1-0.4l-0.3-0.4l-0.4-0.1l-0.4-0.1l-0.1-0.4
		l-0.1-0.4l-0.1-0.4l-0.1-0.4l-0.2-0.4l-0.4-0.1l-0.4-0.1l-0.4,0.1l-0.4,0.1l-0.4-0.3l-0.2-0.4l-0.3-0.4l-0.4-0.3l-0.3-0.2l-0.4-0.4
		l-0.3-0.3l-0.4-0.2l-0.3-0.4l-0.3-0.4l-0.3-0.3l-0.4-0.2l-0.4-0.2l-0.4-0.2l-0.4-0.3l-0.2-0.4l-0.4-0.3l-0.4-0.2l-0.4-0.3l-0.3-0.2
		l-0.4-0.2l-0.4-0.3l-0.3-0.4l-0.1-0.4v-0.4l-0.1-0.4l-0.1-0.4l-0.1-0.4l-0.4-0.4H45l-0.4-0.1l-0.3-0.4l-0.3-0.3l-0.4-0.2l-0.2-0.4
		l-0.1-0.4v-0.4l-0.1-0.4l-0.1-0.4l-0.1-0.4l-0.1-0.4l-0.1-0.4l-0.1-0.4l-0.3-0.4l-0.2-0.4l-0.2-0.4l-0.2-0.4l-0.3-0.4l-0.2-0.4
		l-0.1-0.4l-0.1-0.4l-0.1-0.3l-0.1-0.4l0.4-0.2l0.4-0.1l0.4,0.1l0.4-0.1l0.3-0.3l0.1-0.4l-0.1-0.4l-0.2-0.4l-0.4-0.1l-0.4,0.1
		l-0.4-0.1l-0.3-0.3l-0.4-0.1l-0.4-0.1l-0.4-0.1h-0.4h-0.4h-0.4l-0.5-0.1l-0.4-0.1l-0.4-0.2l-0.4-0.2l-0.4-0.2l-0.5-0.1l-0.4,0.1
		l-0.4,0.2l-0.4,0.1l-0.3,0.4l-0.1,0.4l-0.1,0.4l-0.1,0.4l-0.1,0.4l-0.4,0.2l-0.1,0.4L33,298h-0.4l-0.4-0.2l-0.4-0.1l-0.4-0.1h-0.4
		l-0.4,0.1l-0.4,0.1l-0.4,0.1l-0.4,0.1l-0.4,0.1l-0.4-0.1l-0.5-0.1l-0.4-0.1l-0.4-0.1l-0.4-0.2l-0.3-0.4l-0.3-0.2h-0.4l-0.4,0.3
		l-0.3,0.3l-0.4,0.2l-0.4,0.1l-0.4,0.2l-0.3,0.3l-0.2,0.4l-0.3,0.4l-0.4,0.2l-0.4,0.1l-0.4,0.1l-0.4,0.2l-0.3,0.3l-0.3,0.4l-0.2,0.4
		l-1.4,0.2l-1.5-0.7l-1-0.6l-1.4-0.6l-1.3-0.6l-1-0.7l-1.3-1.5l-1-0.9l-1-1.1l-1.1-1.1l-1-0.6l-1.1,0.1l-0.3-0.6l-0.7-0.4L5,291.5
		l-0.8,0.1L4,291.1l-0.2-0.4l-0.3-0.6l-0.4-0.3L3,289.4V289l-0.1-0.4l-0.2-0.4l-0.4-0.3L2,287.6l-0.3-0.4l-0.2-0.4l-0.1-0.4
		l-0.2-0.4L1,285.7l-0.1-0.4l-0.1-0.4l-0.2-0.4l-0.2-0.4l-0.1-0.4l-0.1-0.4v-0.4l0.1-0.4l0.1-0.4l0.1-0.4l0.1-0.5v-0.4l0.2-0.4
		l0.2-0.4l-0.1-0.4l-0.3-0.4l-0.4-0.2l-0.3-0.4l-0.1-0.4l-0.1-0.4l-0.1-0.4l-0.3-0.4l-0.3-0.4l-0.3-0.3l-0.3-0.4l-0.3-0.3l-0.4-0.3
		l-0.4-0.2l-0.4-0.2l-0.4-0.2l-0.4-0.1l-0.4-0.2l-0.4-0.2l-0.3-0.2l-0.4-0.2l-0.4-0.2l-0.4-0.2l-0.4-0.2l-0.1-0.4l0.1-0.4l0.1-0.4
		l0.1-0.5l0.1-0.4l0.1-0.5l0.1-0.4v-0.4l0.1-0.5l-0.2-0.5l-0.1-0.4l-0.3-0.4l-0.3-0.2l-0.4-0.3l-0.4-0.2h-0.5l-0.4-0.2l-0.3-0.3
		l-0.1-0.6l0.2-0.4l0.3-0.3l0.3-0.4l0.4-0.3l0.3-0.3v-0.5l-0.4-0.2l-0.4-0.1l-0.4-0.1l-0.2-0.4l-0.2-0.4l-0.3-0.4l-0.2-0.4v-0.4
		l-0.1-0.4l-0.2-0.4l-0.4-0.2l-0.4-0.1h-0.4l-0.4,0.1L-12,260l-0.3-0.4l-0.1-0.4v-0.4l-0.1-0.4l-0.3-0.4l-0.3-0.3l-0.4-0.4l-0.1-0.4
		l-0.1-0.4l-0.1-0.4l-0.2-0.4l-0.3-0.4l-0.4-0.3l-0.2-0.3v-0.5l0.1-0.4l-0.1-0.4l-0.1-0.4l-0.2-0.4l-0.1-0.4l-0.2-0.4l-0.2-0.4
		l-0.1-0.4l0.1-0.4l0.2-0.4l0.2-0.4l0.1-0.4l0.2-0.4l0.3-0.4l0.3-0.3l0.4-0.1l0.4-0.3l0.3-0.3l0.4-0.2l0.4-0.1l0.4-0.1l0.4,0.1
		l0.4,0.3l0.3,0.3l0.4-0.1l0.1-0.5v-0.2l0.3-0.4l0.4,0.1l0.4-0.1l0.4-0.1l0.4-0.3l0.1-0.4v-0.5l0.1-0.4l0.3-0.3l0.4-0.3l0.2-0.4
		l0.1-0.4l0.2-0.4l0.1-0.4l0.1-0.4l0.1-0.4v-0.4l0.1-0.5l0.2-0.4l0.4-0.1l0.4-0.2l0.4-0.3l0.2-0.4l0.3-0.4l0.1-0.4v-0.4l-0.2-0.4
		l-0.4,0.1l-0.4-0.1l-0.1-0.4v-0.4l-0.1-0.4l-0.4-0.2l-0.1-0.4v-0.4l0.4-0.2l0.4-0.2l0.1-0.4l0.1-0.4v-0.4l0.1-0.5l0.1-0.4l0.1-0.5
		l0.1-0.4v-0.4l0.1-0.4l0.1-0.5l0.1-0.4l0.1-0.4l-0.1-0.4l-0.1-0.4l-0.1-0.4l-0.3-0.3l-0.3-0.4l0.1-0.4l0.1-0.4l0.2-0.4l0.4-0.3
		l0.4-0.5l-0.1-0.4l-0.2-0.4l-0.4-0.1l-0.4-0.2l-0.4-0.2l-0.4-0.3l-0.2-0.4v-0.4l0.1-0.4l0.2-0.4v-0.4l-0.1-0.4l0.1-0.5l0.1-0.4
		l0.4-0.2l0.4-0.1l0.4-0.1l0.4-0.2l0.4-0.1l0.2,0.4l0.4,0.1l0.4-0.4l0.3-0.3l0.2-0.4l0.3-0.4l0.2-0.4l0.2-0.4l0.4-0.2h0.4l0.4-0.2
		l0.3-0.3V218l-0.1-0.4l-0.1-0.4l-0.1-0.4l-0.2-0.4l-0.3-0.3l-0.1-0.4l0.2-0.4l0.2-0.4v-0.4l-0.1-0.1l-0.3-0.4l-0.3-0.4l-0.4-0.2
		l-0.4-0.1h-0.4l-0.4,0.1H-4l-0.4-0.2l-0.3-0.2l-0.4-0.2l-0.4,0.1l-0.4,0.3l-0.4,0.2l-0.4,0.2l-0.4,0.1l-0.4,0.1H-8l-0.3-0.1
		l-0.3-0.2l-0.2-0.4l-0.4-0.1l-0.4-0.1l-0.4-0.2v-0.4v-0.4l-0.1-0.4l-0.1-0.4l-0.1-0.4l-0.1-0.4l0.1-0.4l0.4-0.2l0.4-0.2l0.2-0.4
		l0.1-0.4l0.1-0.5l0.1-0.4l0.4-0.3l0.2-0.4l0.1-0.4l0.1-0.5l0.1-0.4l0.2-0.4l0.1-0.4l0.1-0.4l0.1-0.4v-0.4l-0.2-0.4l-0.1-0.4
		l-0.4-0.2l-0.5-0.1l-0.4-0.1l-0.3-0.4l-0.1-0.4l-0.1-0.4l-0.1-0.4l-0.1-0.4L-10,200l-0.2-0.4l-0.1-0.4l-0.2-0.4l-0.1-0.4l-0.1-0.4
		l-0.1-0.4l-0.1-0.4l0.1-0.4l0.4-0.1l0.4-0.1l0.4-0.1l0.4-0.1l0.4-0.1l0.4-0.1l0.4-0.1l0.1-0.4l-0.4-0.3l-0.4-0.1l-0.2-0.4l0.3-0.4
		l0.1-0.4l0.1-0.4l0.2-0.4l0.3-0.4l-0.1-0.4l-0.4-0.3l0.1-0.4l0.4-0.3l0.4,0.1l0.4,0.1l0.4,0.1h0.5l0.4-0.1l0.4-0.1l0.4-0.1l0.4-0.1
		l0.4-0.2l0.4-0.2l0.4-0.2l0.4-0.2h0.4H-2l0.4,0.2l0.4,0.1l0.4,0.1l0.4-0.1l0.2-0.4l0.4-0.3l0.3-0.4l0.4-0.2l0.4-0.4l0.3-0.3
		l0.4-0.3l0.4-0.3v-0.4L2,187.1l-0.4-0.2l-0.4-0.1l-0.3-0.3l-0.2-0.4l0.1-0.4l0.1-0.4l0.2-0.4l0.1-0.4l0.2-0.4l0.3-0.2h0.4l0.5,0.1
		l0.4-0.1l0.3-0.3l0.1-0.4v-0.4l-0.1-0.4l-0.2-0.4l-0.2-0.4L2.9,181l0.1-0.4l0.4-0.1l0.4-0.1l0.2-0.4l0.1-0.4l0.1-0.4l0.1-0.5
		l0.1-0.4v-0.4l0.2-0.4l0.3-0.3l0.3-0.4l0.3-0.4l0.2-0.3l0.2-0.4l0.1-0.4l-0.2-0.4l0.1-0.4l0.2-0.4l0.3-0.3l0.4-0.3l0.4-0.3l0.3-0.3
		l0.1-0.4L7.4,172l-0.4-0.3l-0.4-0.1l-0.4-0.1H5.8l-0.4,0.1H4.9l-0.4-0.1l-0.4-0.1l-0.4-0.1l-0.4-0.1l-0.4-0.1L2.4,171l-0.3-0.4
		l-0.3-0.3L1.6,170l-0.3-0.3H0.9l-0.2,0.4l-0.3,0.4h-0.4l-0.4-0.2l-0.2-0.4l-0.1-0.4l-0.2-0.4l-0.3-0.4l-0.3-0.3l-0.4-0.3l-0.4-0.2
		l-0.3-0.3l-0.4-0.3l-0.4-0.1l-0.4-0.1l-0.4-0.2l-0.4-0.1l-0.4-0.2l-0.4-0.2l-0.1-0.4l0.3-0.4l0.3-0.3l0.4-0.4l-0.1-0.4l-0.1-0.4
		l0.1-0.4l-0.4-0.5l-0.3-0.4l-0.3-0.4l-0.2-0.5l0.4-0.7l0.7-0.4l0.5-0.2h0.4l0.4,0.1l0.3,0.4l0.2,0.2l0.2,0.2l0.2,0.1l0.3,0.2
		l0.4-0.1l0.5-0.1l0.4,0.1l0.5,0.1l0.5,0.1l0.5,0.1h0.4h0.4l0.4-0.1l0.4-0.2l0.3-0.4l0.3-0.4l0.2-0.1l0.3-0.1l0.6-0.1l0.4-0.2
		l0.8,0.5l0.4,0.3l0.4,0.3l0.4,0.2l0.4,0.3l0.4,0.3l0.4,0.2l0.4,0.1l0.4,0.2l0.4,0.1l0.5,0.1l0.4,0.1l0.4,0.1l0.5,0.1h0.5h0.5
		l0.4-0.1l0.5-0.1l0.4-0.1l0.5-0.1l0.4-0.1l0.4-0.1l0.4-0.2l0.4-0.2l0.4-0.3l0.4-0.3l0.4-0.4l0.4-0.3l0.3-0.4l0.4-0.4l0.4-0.3
		l0.4-0.4l0.4-0.3l-0.1-0.6l0.4-0.1l0.4-0.3l0.2-0.4l0.1-0.5l0.1-0.4l-0.1-0.4l-0.1-0.4l0.1-0.4l0.2-0.3l0.4,0.1l0.4,0.3l0.4,0.3
		l0.3,0.3l0.3,0.4l0.4,0.2l0.4,0.2l0.4,0.2h0.5l0.4,0.1l0.2,0.4l-0.3,0.4l-0.3,0.3l0.1,0.4l0.1,0.4l0.3,0.4l0.3,0.2l0.4,0.2l0.4,0.2
		l0.4,0.2l0.3,0.4l0.3,0.3l0.4,0.2l0.4,0.2l0.4,0.2l0.4,0.1l0.4,0.1l0.5,0.1h0.4l0.4,0.1l0.4,0.1l0.4,0.3l0.4,0.2l0.3,0.3l0.4,0.3
		l0.4,0.2l0.4,0.1l0.4,0.2l0.4,0.2l0.4,0.2l0.4,0.2l0.4,0.1l0.4,0.1H34l0.4-0.1l0.4-0.1l0.4-0.1l0.4-0.1l0.4,0.1l0.4,0.1l0.4,0.1
		l0.4,0.2l0.4,0.3l0.4,0.3l0.4,0.2l0.4,0.1h0.4l0.4-0.1l0.4,0.1l0.4,0.1l0.4,0.1l0.4,0.2l0.4,0.3l0.2,0.4l0.4,0.3l0.3,0.4l0.4,0.1
		l0.4,0.2l0.4,0.2l0.4,0.2l0.3,0.3l0.2,0.4l0.1,0.4l0.2,0.4l0.2,0.4l0.2,0.6l0.1,0.4l0.3,0.4l0.3,0.3l0.2,0.4l0.2,0.4l0.4,0.1h0.4
		l0.4-0.1l0.4,0.1h0.4H49h0.4l0.4-0.2l0.4-0.2l0.4-0.3l0.4-0.2l0.3-0.4l0.2-0.4l0.1-0.4l0.3-0.3l0.4-0.1l0.4,0.1l0.4,0.2l0.4,0.2
		l0.4,0.2l0.4,0.1l0.4,0.1l0.4,0.1l0.4,0.1l0.5,0.1l0.4-0.1l0.4-0.3l0.2-0.4l0.4-0.3l0.3-0.3l-0.1-0.4l-0.3-0.6l-0.1-0.4v-0.4
		l0.1-0.4l-0.1-0.4l-0.1-0.4l0.1-0.4l0.1-0.4v-0.4l-0.1-0.4l-0.3-0.4h-0.5l-0.4-0.2l-0.1-0.4l0.1-0.4l0.1-0.4l0.2-0.4l0.4-0.2
		l0.4-0.2l0.3-0.4l0.1-0.4l-0.3-0.3l-0.4-0.2l-0.2-0.4l-0.4-0.2l-0.2-0.4l0.1-0.4l0.2-0.4l0.2-0.3l0.2-0.4l0.1-0.4l0.1-0.5l0.1-0.4
		l0.1-0.4l0.1-0.4l0.2-0.4l0.3-0.4l0.1-0.4l-0.3-0.4l-0.3-0.3v-0.4l0.2-0.4l0.1-0.4l0.1-0.4l0.1-0.4l0.1-0.5l0.1-0.4v-0.4V152
		l-0.2-0.4l-0.4-0.2l-0.4-0.3l-0.4-0.2l-0.4-0.2l-0.4-0.1l-0.4-0.1l-0.4-0.1l-0.5-0.1l-0.4-0.1l-0.4-0.2l-0.4-0.1l-0.4-0.2l-0.4-0.2
		l-0.4-0.1h-0.4h-0.4l-0.4-0.3l0.1-0.4v-0.4l-0.4-0.1l-0.4-0.1l-0.4-0.1l-0.4-0.1h-0.4l-0.4-0.2l-0.3-0.4l-0.1-0.4v-0.4l0.1-0.4
		l0.2-0.4l0.2-0.4l0.1-0.4v-0.4l-0.3-0.4l-0.2-0.4l0.1-0.4l0.1-0.4l0.3-0.3l0.4-0.2l0.4-0.1l0.3-0.4l0.2-0.4L50,141l-0.2-0.4
		l-0.2-0.4l-0.3-0.4l-0.1-0.4l0.1-0.4l0.1-0.4l0.1-0.4l0.2-0.4l0.2-0.4l0.3-0.3l0.4-0.1h0.4l0.4-0.1l0.4-0.2l0.4-0.2l0.3-0.4
		l0.3-0.3l0.4-0.3l0.3-0.3l0.4-0.3l0.4-0.3l0.4-0.2l0.4-0.1l0.4-0.3h0.4l0.4,0.1l0.4,0.1h0.4h0.4h0.5l0.4,0.1l0.4,0.1l0.4,0.1
		l0.4-0.1l0.4,0.1l0.4,0.1l0.4-0.1l0.4-0.1h0.4l0.3-0.4l0.2-0.4l0.2-0.4l0.3-0.4l0.4-0.1h0.5l0.4,0.1l0.5,0.1l0.6-0.1l0.4-0.1
		l0.4-0.3l0.1-0.4l0.1-0.4l0.4-0.2l0.4-0.1h0.4l0.4-0.1l0.4,0.1l0.4,0.1l0.4,0.3l0.4,0.1l0.4,0.2l0.4,0.2l0.4,0.2l0.4,0.1l0.4,0.1
		l0.4,0.1l0.4-0.1l0.6-0.4l0.1-0.4l-0.2-0.4l-0.3-0.4l-0.1-0.4l0.3-0.4l0.4-0.2l0.1-0.4v-0.4l-0.1-0.4l-0.1-0.4l-0.1-0.4l-0.1-0.4
		l-0.1-0.4v-0.4v-0.4v-0.4l-0.1-0.4l-0.3-0.4l-0.4-0.2l-0.4-0.2l-0.3-0.3l-0.2-0.4l-0.4-0.2l-0.4-0.2l-0.2-0.4v-0.4l-0.1-0.2
		l-0.1-0.4l-0.3-0.3l-0.1-0.9l-0.2-0.6l0.1-0.5l-0.1-0.6l-0.1-0.6v-0.5v-0.6l-0.1-0.7v-0.6l-0.2-1.5v-0.6l-0.1-0.4l-0.1-0.9
		l-0.1-0.6l-0.1-0.3v-0.4l-0.3-0.4l0.1-0.5l-0.1-0.6l-0.4-0.3l-0.4-0.2L67,110l-0.4-0.1l-0.5-0.1h-0.4h-0.4l-0.4,0.1h-0.4l-0.4-0.4
		l-0.1-0.4l-0.1-0.4l-0.1-0.4l-0.3-0.3l-0.4-0.3l-0.4-0.2l-0.4-0.2l-0.4-0.2l-0.1-0.4l0.1-0.4l0.2-0.4l0.3-0.4l0.1-0.4v-0.4
		l-0.1-0.4l-0.4-0.3l-0.3-0.3l-0.3-0.4l-0.3-0.3l-0.3-0.4l-0.1-0.4l-0.1-0.4l-0.4-0.2l-0.3-0.4l-0.2-0.4l-0.3-0.3l-0.4-0.1l-0.4-0.1
		l-0.2-0.4l-0.1-0.4l-0.3-0.4l-0.4-0.2L57.3,99L57,98.7l-0.2-0.4l-0.2-0.4l-0.4-0.1h-0.4h-0.5l-0.4-0.1l-0.4-0.2l-0.4-0.2l-0.3-0.4
		l-0.3-0.4l-0.2-0.4L53,95.9l-0.4-0.1l-0.4-0.2l-0.4-0.1l-0.3-0.3l-0.3-0.4l-0.1-0.4l-0.1-0.4l-0.2-0.4l-0.3-0.3L50.2,93l-0.4-0.1
		l-0.4-0.1l-0.1-0.3l0.3-0.4l0.3-0.3v-0.5L49.7,91l-0.3-0.4l-0.1-0.4v-0.5l0.1-0.4v-0.4l0.1-0.4l0.2-0.4l0.2-0.4l0.3-0.3l0.4-0.3
		l0.4-0.2l0.4-0.2l0.4-0.3l0.4-0.2l0.4-0.2l0.4-0.3v-0.4l-0.1-0.4l-0.1-0.4L52.3,84l-0.1-0.4l-0.1-0.4L52,82.6l-0.1-0.4l-0.1-0.4
		l-0.2-0.4L51.3,81L51,80.6l-0.2-0.4l-0.1-0.4l-0.2-0.4L50.3,79l-0.1-0.4L50,78.2L50,77.8l-0.1-0.4L49.8,77l-0.1-0.4l-0.1-0.4
		l-0.1-0.4v-0.4l-0.1-0.4l-0.1-0.4V74v-0.4l-0.1-0.4v-0.4l-0.1-0.4l-0.1-0.4L49,71.5l-0.2-0.4l-0.1-0.4l-0.1-0.4l-0.1-0.4l-0.1-0.4
		l-0.1-0.4L48,68.7l-0.1-0.4l-0.2-0.4l-0.2-0.4l-0.3-0.4l-0.2-0.4l-0.1-0.4l-0.1-0.4l-0.2-0.4l-0.2-0.4l-0.1-0.4L46,64.3l-0.2-0.6
		l-0.1-0.4l0.1-0.4l0.1-0.4l0.4-0.3l0.4-0.1l0.4-0.1l0.4-0.1l0.4-0.1h0.4h0.4l0.4-0.1h0.4h0.4l0.4-0.1H51l0.4-0.1l0.4-0.1l0.4-0.1
		h0.4l0.4-0.1h0.4l0.4-0.1h0.4h0.4h0.4l0.4-0.1l0.4-0.1l0.4-0.1l0.4-0.1l0.4-0.2l0.4-0.2l0.4-0.2l0.1-0.4v-0.4l0.2-0.4l0.4-0.1h0.4
		l0.4,0.1l0.4,0.1h0.4l0.4-0.1l0.3-0.3l0.3-0.4l0.4-0.1l0.4-0.1h0.4h0.4h0.4l0.4-0.2l0.2-0.4l0.1-0.4l0.4-0.1l0.4-0.1v-0.4L64.9,56
		l-0.1-0.4l0.4-0.3l0.4,0.1l0.4,0.2l0.4,0.3l0.4,0.1l0.4,0.2l0.4,0.1l0.4,0.1h0.4h0.4l0.4,0.1h0.4l0.4,0.1l0.4,0.1l0.5,0.1l0.4,0.1
		h0.4h0.4h0.4h0.4l0.4-0.1H74h0.4l0.5,0.1l0.4,0.1h0.4l0.4-0.1l0.4-0.1H77l0.4,0.1L78,57h0.4l0.4,0.1h0.4l0.4-0.1H80l0.4,0.1
		l0.4,0.1l0.4,0.1h0.4h0.4h0.4l0.4-0.1l0.4-0.1l0.4-0.1h0.4l0.4-0.1h0.4h0.4L86,57h0.4l0.4,0.1h0.4h0.4h0.4l0.4-0.1l0.4-0.1l0.4-0.1
		h0.4l0.4-0.2l0.4-0.1l0.4-0.1h0.4l0.4-0.1l0.4-0.2l0.4-0.1l0.4-0.1l0.4-0.1l0.4-0.1h0.4l0.4-0.1h0.4l0.4-0.1l0.4,0.1h0.4l0.4,0.1
		l0.5,0.1h0.4h0.4l0.4-0.1H99l0.4-0.1h0.4l0.4,0.1l0.5,0.1l0.4,0.1l0.5,0.1l0.4-0.1l0.4-0.1l0.4-0.2l0.4-0.1l0.4-0.1l0.4-0.1h0.4
		l0.4,0.1l0.4,0.1l0.4,0.1l0.4,0.2l0.4,0.2l0.4,0.2l0.4-0.1l0.4-0.1l0.4-0.1l0.4,0.1l0.4,0.1l0.4,0.1l0.4-0.1l0.4-0.2l0.3-0.3
		l0.4-0.3l0.4-0.1l0.4-0.1l0.4-0.1l0.4-0.1l0.4-0.1l0.4-0.1l0.4-0.1l0.4-0.1h0.4h0.6h0.4h0.4l0.4-0.1h0.4h0.4l0.5,0.1h0.4l0.4,0.1
		l0.4,0.1l0.4,0.1l0.4-0.1h0.4l0.4-0.1l0.4-0.1l0.4-0.1l0.4-0.1l0.4-0.1l0.4-0.1h0.4l0.4,0.1l0.4,0.1l0.4,0.2l0.4,0.1l0.4,0.1h0.4
		l0.5-0.2l0.4-0.1l0.4-0.2l0.4-0.1l0.4-0.2l0.4-0.1l0.4-0.2l0.4-0.1l0.4-0.2l0.4-0.1l0.4-0.2l0.4-0.1l0.4-0.2l0.4-0.2l0.3-0.3
		l0.4-0.3l0.4-0.2l0.4,0.1l0.4,0.2l0.4,0.2l0.4-0.1l0.4-0.1l0.4-0.1l0.4-0.1h0.4h0.4l0.4,0.1l0.4,0.1l0.4,0.1l0.4,0.1l0.4,0.1h0.4
		h0.4l0.4-0.1h0.4h0.4h0.4h0.4h0.4h0.4h0.4l0.4,0.1h0.4l0.4-0.1l0.4,0.1l0.4,0.3l0.4,0.1h0.4l0.4-0.1l0.4-0.1l0.4-0.2l1,0.3L148,52
		l0.6,0.4l0.6,0.4l0.7-0.1l0.6-0.4l0.8-0.6l0.7-0.1l0.7,0.3l0.6,0.6l0.6,0.1l0.8-0.4l0.9-0.4l0.8-0.3l0.6,0.2l0.9,0.9l1-0.1l0.6-0.5
		l0.5-0.4l0.7-0.1l0.8,0.1l1.1,0.3l1.5,0.1l1.1-0.4l0.8-0.6l0.7-1.1l0.8-0.9l1.1,0.1l1.4,0.5l1.9,1.3l2.2,0.9l2.3,0.8l2,0.7l1.9-0.1
		l0.9-0.4l0.9,0.3l0.8,0.6h0.9l0.7-0.1l1,0.1l1.4,0.2l1.6-0.3l0.7-1.2l1.7,0.2l2.1,0.6l1.9,0.6l2.1,0.7l2.5,0.7l2,0.6l2.1,0.4
		l2.5,0.8l0.8,0.7l0.6,0.8l0.6,0.8l1.4,0.6l1.8,0.8l1.8,0.7l1.5-0.3l0.4-0.3l1.4,1.2l1.1,0.6l1.1,0.6l1.3,0.6l1.1,0.6l1.4,0.3
		l1.9,0.1l2.6-0.2l0.7,0.2l0.6,0.7l0.2,1.1l0.9,1.9l0.9,1.4l1.1,0.9l1.1,0.6l0.9,1l0.4,1.4l0.6,0.9l0.6,0.3l1,0.2l2,2.9l1.1,2.6
		l0.4,1.6l1.1,1.1l0.7-0.2l0.7-0.1l0.5,0.9l0.7,0.7l1.2,1.2l0.5,0.8l0.1,1.2l0.4,0.4l0.4,0.1h1.1l1.1,0.5l1.1,1.1l0.6,1l0.1,0.9
		l-0.1,0.9l0.4,0.9l0.8,0.3l1-0.3l0.4,0.4l0.6,0.6l1,0.9l1.3,0.4l1.5,0.1l1.2-0.3h0.3l0.8,0.6l0.6,0.9l0.9,1l1.9,1.1l2,0.9l0.4,0.7
		l-0.7,0.9l-0.4,0.9l0.4,0.8l0.6,0.9l1.1,1l0.6,0.6l0.8,0.5l0.7,0.2l1.1,0.1l0.7,0.2l0.4,0.6l0.2,0.6l0.6,0.6l0.4,0.2l1.5,0.6
		l1.1,0.3l2.7,0.7l2,0.7l0.6-0.8l0.4-1.4l0.3-1.6l0.4-1.9l0.4-2.1l0.2-1.8v-1.6l-0.3-0.4l-0.4-0.9l-0.1-0.6l0.2-1l0.1-0.6l0.6-0.2
		l0.6-0.1l0.6-0.5l-0.1-0.8l-0.1-0.7l0.4-0.8l0.3-0.9l-0.1-0.5l-0.3-0.6v-0.8l0.6-0.4V90l-0.3-0.7l-0.2-0.9l0.1-0.6l0.6-1.1l0.9-2
		l0.1-1l0.1-2.1l-0.4-1.4l-0.6-1.3l-0.6-1.1L283,77l0.9-0.4l0.9-0.8l0.9-1.1l0.9-0.6l1.4,0.3l1.4,0.6l1.3,0.6l0.5,0.1l0.9,0.3
		l1.6,0.6l1.6,0.9l1.9,1.3l1.5,0.4l1-0.4L300,79l0.2,0.4l0.3,0.4l0.4,0.2l0.4,0.2l0.3,0.2l0.4,0.3l0.2,0.4l0.1,0.4l0.1,0.4l0.1,0.4
		l0.3,0.4l0.4,0.2l0.3,0.2l0.4,0.2l0.4,0.2l0.4,0.1l0.4,0.1l0.3,0.2l0.4,0.3l0.4,0.2l0.4,0.2l0.3,0.3l0.3,0.3l0.3,0.4l0.4,0.3
		l0.3,0.2l0.4,0.3l0.4,0.2l0.1,0.4l-0.1,0.4l-0.1,0.4l-0.1,0.4l0.2,0.4l0.4,0.1h0.4l0.5,0.1l0.4,0.1l0.4,0.1l0.4,0.2l0.4,0.1
		l0.4,0.2l0.4,0.1l0.4,0.2l0.3,0.4l0.3,0.3l0.3,0.4l0.3,0.3l0.3,0.3l0.3,0.4l0.4,0.3l0.3,0.2l0.4,0.3l0.4,0.2l0.4,0.2l0.4,0.2
		l0.4,0.2l0.3,0.2l0.4,0.2l0.4,0.2l0.3,0.2l0.4,0.2l0.4,0.2l0.3,0.3l0.2,0.4l0.3,0.3l0.4,0.2l0.4,0.2l0.1,0.4l0.1,0.5l0.4-0.3
		l0.4-0.3l0.4-0.2l0.4-0.3l0.4-0.3l0.4-0.2l0.4-0.3l0.4-0.3l0.4-0.3l0.4-0.2l0.4-0.3l0.4-0.3l0.4-0.3l0.4-0.2l0.4-0.3l0.4-0.3
		l0.3-0.3l0.4-0.3l0.4-0.1l0.3-0.3l0.3-0.3l0.3-0.4l0.1-0.4l0.1-0.4l0.1-0.4v-0.4l0.1-0.5l0.1-0.4l0.4-0.4l0.4,0.1l0.6,0.1h0.4
		l0.4,0.1l0.4,0.1l0.4,0.1l0.4,0.1l0.2,0.4l0.1,0.4v0.4l0.3,0.3l0.4,0.1l0.2,0.4l0.1,0.4l0.1,0.6l0.3,0.3l0.3,0.4l0.3,0.3l0.4,0.1
		h0.4l0.4-0.1l0.4-0.1l0.4,0.1l0.4,0.2l0.3,0.4l0.4,0.2l0.4,0.1h0.4l0.4-0.1l0.4-0.2l0.3-0.3l0.2-0.4l0.4-0.3l0.3-0.3l0.3-0.4
		l0.4-0.1l0.4-0.1l0.4-0.3l0.3-0.3l0.4-0.3l0.4-0.2l0.3-0.2l0.4-0.3l0.2-0.3l0.4-0.3l0.3-0.3l0.1-0.4l0.3-0.3l0.4-0.2l0.4-0.1h0.4
		l0.4,0.1l0.4,0.1l0.4,0.1l0.2,0.4l0.1,0.4v0.4l0.4,0.3l0.3,0.2l0.4,0.3l0.3,0.3l0.3,0.3l0.3,0.4l0.3,0.4l0.3,0.4l0.3,0.3l0.3,0.4
		l0.4,0.3l0.2,0.4l0.3,0.4l0.1,0.4l0.3,0.4l0.4,0.1h0.4l0.3-0.3l0.3-0.1l0.4-0.1l0.4,0.2l0.3,0.4l0.1,0.4l0.4,0.3l0.4,0.1l0.4,0.1
		l0.4,0.1l0.1,0.4l-0.3,0.4l-0.4,0.2l-0.4,0.2l-0.4,0.1l-0.1,0.4l0.1,0.4l0.4,0.2l0.3,0.3l0.3,0.4l0.3,0.4l0.3,0.3l0.3,0.4l0.3,0.3
		l0.3,0.4l0.2,0.4l0.3,0.4l0.3,0.4l0.3,0.4l0.2,0.4l0.4,0.3l0.3,0.3l0.4,0.2l0.3,0.3l0.4,0.2l0.4,0.1l0.4,0.2l0.3,0.3l0.3,0.4
		l0.3,0.3l0.3,0.4l0.3,0.4l0.3,0.4l0.3,0.3l0.4,0.2l0.3,0.3l0.3,0.4l0.1,0.4l0.1,0.4v0.4l0.1,0.4l0.2,0.3l0.4,0.2l0.4,0.3l0.3,0.3
		l0.3,0.4l-0.1,0.4l-0.1,0.4v0.4l0.1,0.4l0.3,0.3l0.4,0.1h0.4l0.4-0.1h0.4l0.2,0.3l0.3,0.4l0.3,0.4l0.4,0.1l0.1,0.4l-0.1,0.4
		l-0.2,0.4l0.1,0.4l0.3,0.4l0.3,0.3l0.3,0.4l0.2,0.4l0.3,0.4l0.2,0.4l0.3,0.4l0.3,0.4l0.3,0.4l0.3,0.3l0.3,0.2l0.4,0.3l0.3,0.4
		l0.2,0.4l0.1,0.4l0.2,0.4l0.3,0.4l0.4,0.1l0.4,0.1l0.4,0.3l0.3,0.3l0.4,0.1l0.4,0.1l0.4,0.1l0.4,0.1l0.4,0.2l0.3,0.4l0.2,0.4
		l0.3,0.3l0.4,0.3l0.3,0.3l0.4,0.2l0.4,0.2l0.4,0.2l0.4,0.2l0.3,0.2l0.4,0.2l0.3,0.2l0.4,0.1l0.4,0.2l0.4,0.3l0.4,0.3l0.4,0.3
		l0.4,0.3l0.4,0.3l0.2,0.4l0.5,0.9l2.5,1.3l1.6,1.6l0.6,0.4l0.2-0.4l-0.1-0.6l-0.1-0.8l-0.2-0.9l0.2-0.8l0.1-0.4v-0.4l-0.7-0.9
		l-0.5-0.6l-0.1-0.5l0.1-0.5l-0.1-0.8l-0.4-0.6l-0.2-0.5l0.6-0.4l0.6-0.7l-0.1-0.7l-0.1-0.8l0.1-0.8l0.8,0.4l1.1,0.9l1.5,1.4
		l0.7,1.2l0.3,1.6l-0.1,0.4l0.1,0.6l0.4,0.3l0.2-0.1l0.3-0.3l0.7,0.2l0.3,0.3l-0.1,0.8v0.6l0.6,1.2l0.9,0.6l1.4,0.5l0.2,0.4l0.3,0.4
		l0.6,0.3l1.1-0.1l1.1,0.5l1.7,0.6l0.2,0.1l1.2,1.2l0.1,1.1l0.2,1.4l0.1,1l-0.6,1.2l0.1,0.4l0.7,0.6l1.2,0.6l2,1.1l1.9,1.1l2.1,1.7
		l0.6,0.7l0.8,0.1l0.9-0.1l1.7,0.4l1.4,1.4l2.3,1.8l1,1.1l0.7,1.3l0.6,0.9l0.1,0.2l2,1.2l1.8,1.2l2.5,1.7l1.1,1l1.4,1.8l2.3,1.8
		l1.7,1.7l1.6,2l1.6,0.7l1.9,1.4l0.1,1l0.7,0.6l0.9,0.4l0.7,0.5l1-0.9l0.2-0.8l0.1-1.2l-0.1-1l-0.1-0.6l0.4-0.7l0.7-0.8l0.9-0.9
		l1.3-1.4l0.5-1.2l0.6-0.4l0.6,0.2l0.6,0.9l0.2,1.4l-0.4,1.1l0.1,1.5l0.6,1.9l0.6,0.9l0.9,0.9l-0.1,0.9l-1,1.6l-0.4,0.6l-0.3,0.9
		l0.6,0.6l1,0.4l2,1.1l1.1,0.6l1.1,0.4l1,1.1l0.9,1l1.7,1.5l0.3,0.3l0.8,1.1l0.8,0.7l0.9,0.4l1,0.3l0.6,0.6l0.4,0.6l0.2,0.9l0.4,0.5
		l0.6,0.4l1.3,0.7l0.6,1l0.1,1.1l-0.3,1.5l-0.6,1l-0.4,0.1l-1.3-0.4l-0.1,0.4l0.1,0.4v0.4l0.1,0.4l0.1,0.4v0.4l-0.1,0.4l-0.1,0.4
		l-0.3,0.3l-0.4,0.1l-0.4,0.1l-0.4,0.2l-0.3,0.3v0.4l0.1,0.4l0.4,0.4l0.3,0.3l0.4,0.2l0.3,0.3l0.2,0.4l0.4,0.3l0.3,0.3l0.4,0.3
		l0.2,0.4l0.2,0.4l0.1,0.4v0.4v0.4l0.1,0.4l0.4,0.2l0.4,0.2l0.4,0.1l0.4,0.1l0.4,0.1l0.4,0.1l0.4,0.1l0.4,0.2l0.3,0.4l0.2,0.4
		l0.1,0.4l0.2,0.4l0.3,0.4l0.3,0.4l0.2,0.4l0.1,0.4l0.3,0.4l-0.2,0.3l-0.3,0.4l-0.3,0.3l-0.1,0.4l-0.4,0.1l-0.4,0.2l-0.4,0.1
		l-0.4,0.1h-0.4l-0.4-0.2l-0.4-0.2l-0.7-0.4l-1.2,0.6l-0.1,0.2l0.4,1.4l0.6,1.4l0.6,0.9l0.9,0.9l1.5,0.3l0.5,0.6l0.1,1.1l0.4,0.8
		l0.6,0.8l0.7,1l0.1,1.1l0.2,2v1.3l0.1,0.2l0.1,0.4l0.3,0.3l0.4,0.1l0.3,0.3l0.1,0.4l-0.1,0.4l-0.2,0.3l-0.2,0.4l0.1,0.4l0.2,0.4
		l0.2,0.4l0.4,0.3l0.4,0.1l0.4,0.1l0.4,0.2l0.4,0.1l0.4,0.2l0.3,0.3l0.4,0.3l0.4,0.2l0.4,0.2l0.3,0.3l0.3,0.4l0.4,0.1l0.4,0.2
		l0.4,0.1l0.4,0.2l0.3,0.4l0.1,0.4l0.1,0.4v0.4l0.1,0.4l0.4,0.3l0.3,0.3l0.4,0.3l0.1,0.3l-0.2,0.4l-0.4,0.1l-0.4-0.1l-0.4-0.1h-0.4
		h-0.4l-0.4,0.2l-0.2,0.3l-0.1,0.4l-0.1,0.4l-0.1,0.4h-0.3l-0.4,0.1l-0.3,0.3v0.4l-0.1,0.4l-0.1,0.4l-0.1,0.4l-0.3,0.4l-0.4,0.1
		l-0.4-0.1l-0.4-0.1l-0.4,0.1l-0.1,0.4l0.2,0.4l0.3,0.3l0.4,0.1l0.4,0.1l0.4,0.2l0.4,0.3l0.3,0.4l0.3,0.3l0.2,0.4l-0.1,0.4l-0.1,0.4
		l0.1,0.4v0.4l-0.2,0.4l-0.1,0.4l-0.3,0.4l-0.2,0.3l-0.2,0.4l-0.1,0.4l-0.1,0.4v0.5v0.4l0.1,0.4v0.4l0.1,0.4v0.4l-0.1,0.4v0.4v0.6
		l-0.4,0.1l-0.4,0.1l-0.4-0.1l-0.4-0.1l-0.4-0.1l-0.4-0.1h-0.4l-0.4-0.1l-0.4-0.1h-0.4h-0.4l-0.4-0.1l-0.4-0.1h-0.4l-0.4,0.1
		l-0.4,0.2l-0.4,0.3l-0.3,0.3l-0.3,0.3l-1.2-1.1l0.6,1.4l-0.4,0.1l-0.4,0.2l-0.4,0.3l-0.2,0.4l-0.2,0.4l-0.1,0.4v0.4v0.4l0.1,0.4
		v0.4v0.4l0.1,0.4l0.2,0.4l0.3,0.4l0.3,0.4l0.3,0.4l0.3,0.3l0.1,0.4l0.1,0.4l0.1,0.4l0.1,0.4l0.1,0.4l0.1,0.4v0.5l-0.4,0.1l-0.4,0.2
		l-0.1,0.4l0.1,0.4v0.4l-0.1,0.4l-0.1,0.4l-0.2,0.3l-0.3,0.4l-0.2,0.4l-0.3,0.3l-0.5,0.1l-0.4-0.1l-0.4-0.1l-0.4-0.1l-0.4-0.1
		l-0.4-0.1l-0.4-0.1l-0.4-0.1l-0.4-0.2l-0.4-0.1l-0.4-0.2l-0.4-0.2l-0.4-0.2l-0.3-0.2l-0.4-0.1h-0.4l-0.4,0.1l-0.4,0.3l-0.3,0.3
		l-0.3,0.3l-0.3,0.4l-0.3,0.3l-0.3,0.4l-0.2,0.4l-0.1,0.4l-0.1,0.4l-0.1,0.4l-0.2,0.4l-0.2,0.4l-0.2,0.4l-0.3,0.3l-0.4,0.1l-0.4,0.1
		l-0.4,0.1h-0.4l-0.4-0.1l-0.4-0.1H452l-0.4-0.1l-0.4-0.1l-0.4-0.1l-0.4-0.1l-0.4,0.2l-0.2,0.4l-0.1,0.4l-0.1,0.4l-0.1,0.4v0.4v0.4
		l0.1,0.4l0.3,0.4l0.3,0.3l0.1,0.4l-0.2,0.4l-0.4,0.1l-0.4,0.1l-0.1,0.4v0.4l0.3,0.3l0.4,0.1h0.4l0.4,0.1l0.3,0.2l0.2,0.4l0.1,0.4
		v0.4l0.1,0.4l0.4,0.3l0.4,0.1l0.4,0.3v0.4v0.4l0.1,0.4l0.2,0.4l0.3,0.4l0.1,0.4l-0.1,0.4l-0.3,0.3l-0.4,0.2l-0.4-0.1l-0.4-0.1
		l-0.4-0.1l-0.4-0.1l-0.2,0.4l-0.2,0.4l-0.1,0.4l-0.3,0.3l-0.4,0.1l-0.4,0.3l-0.2,0.4l-0.1,0.4l-0.1,0.4l-0.1,0.4l-0.1,0.4l-0.2,0.4
		l-0.3,0.4h-0.4l-0.4,0.1l-0.4-0.1h-0.4h-0.4l-0.4,0.2L445,277l-0.4,0.2l-0.4,0.1l-0.4,0.1l-0.4,0.1l-0.4,0.2l-0.4,0.2l-0.4,0.1
		h-0.2l-0.4,0.3l-0.3,0.3l-0.2,0.4l-0.3,0.3l-0.3,0.3l-0.3,0.4l-0.4,0.3l-0.4,0.2l-0.4,0.1l-0.4,0.1h-0.4l-0.4,0.1h-0.3l-0.3-0.2
		l-0.1-0.4l-0.1-0.2h-0.2l-0.3,0.4l-0.3,0.4l0.1,0.4l0.1,0.4l-0.1,0.4l-0.3,0.3l-0.4,0.1l-0.4,0.1l-0.4,0.1l-0.4,0.1l-0.4,0.1
		l-0.2,0.4v0.4l-0.1,0.4l-0.1,0.4l-0.1,0.4l-0.1,0.5l-0.1,0.4l-0.1,0.4l-0.1,0.4l-0.1,0.6v0.4l0.1,0.4l-0.1,0.4l-0.3,0.3l-0.4-0.1
		l-0.4-0.2l-0.2-0.4l-0.3-0.4l-0.4-0.1h-0.4l-0.3,0.3l-0.3,0.4l-0.3,0.3l-0.3,0.3l-0.4,0.4h-0.4l-0.4,0.1l-0.4,0.1l-0.4,0.1
		l-0.4,0.1l-0.4,0.1l-0.2,0.4v0.4l0.3,0.4l0.3,0.4l0.3,0.3l0.2,0.4l0.2,0.4l0.2,0.4l0.3,0.3l0.4,0.3l0.4,0.1l0.4,0.2l0.4,0.1
		l0.4-0.1l0.4-0.2l0.4-0.3l0.3-0.3l0.3-0.3l0.4-0.3l0.2-0.4h0.4l0.2,0.4l0.1,0.4l0.1,0.4l-0.2,0.4l-0.1,0.4l0.1,0.4l0.1,0.4l0.2,0.4
		l0.1,0.4l0.1,0.4l0.3,0.4l0.3,0.3l0.4,0.1l0.4,0.3l0.2,0.4l0.2,0.4l0.3,0.4l0.4,0.3l0.4,0.3l0.4,0.1l0.4,0.1l0.4,0.1h0.4l0.4-0.1
		h0.4l0.3,0.2l0.4,0.2l0.3,0.3l0.3,0.4l0.3,0.4l0.4,0.1l0.4,0.2l0.2,0.4l0.1,0.4l0.1,0.4v0.4l0.1,0.4l0.1,0.4l0.2,0.4l0.3,0.4
		l0.2,0.4l0.1,0.4l0.1,0.4l0.2,0.4l0.3,0.2l0.4,0.2l0.4,0.2l0.2,0.4l0.4,0.4l0.1,0.4l-0.2,0.3l-0.4,0.1l-0.4,0.1H443l-0.4-0.1
		l-0.4-0.2l-0.4-0.1l-0.3,0.3l-0.1,0.4l-0.1,0.4l-0.2,0.4l-0.4,0.3l-0.7,0.8h-0.8l-0.8-0.3l-0.3-0.3l-0.4,0.1l-0.5,0.1l-0.1,0.4
		l-0.1,0.4l-0.2,0.4l-0.2,0.4l-0.4,0.2l-0.3,0.3l-0.3,0.4l-0.1,0.4l-0.1,0.4l-0.1,0.4v0.4v0.5l-0.2,0.4l-0.3,0.1l-0.4-0.3l-0.4-0.1
		l-0.4-0.1h-0.4l-0.4,0.3v0.4l0.1,0.4v0.4l-0.1,0.4l-0.3,0.3l-0.4,0.2l-0.4-0.1l-0.4-0.1l-0.4-0.2l-0.3-0.4l-0.4-0.2l-0.3-0.2
		l-0.4-0.3l-0.3-0.3L429,314l-0.4,0.3l-0.2,0.3l-0.2,0.4l-0.2,0.4l-0.2,0.4l-0.4,0.2L427,316l-0.3,0.3l-0.4,0.3l-0.4,0.3l-0.5,0.2
		l-0.4-0.1l-0.4-0.1l-0.2-0.4l-0.3-0.4l-0.2-0.4l-0.2-0.4l-0.4-0.3l-0.4-0.1l-0.4-0.1l-0.4-0.1l-0.4-0.1l-0.4-0.2l-0.1-0.4l-0.1-0.4
		l-0.2-0.4l-0.3-0.3l-0.3-0.4l-0.4-0.1l-0.4-0.1l-0.4-0.1l-0.3-0.4l-0.3-0.4l-0.2-0.4l-0.3-0.4l-0.4-0.1h-0.4l-0.4,0.2l-0.4,0.2
		l-0.4-0.2l-0.1-0.4l-0.1-0.4l-0.4-0.3l-0.4-0.1h-0.4h-0.4l-0.4-0.1l-0.4-0.1l-0.4-0.2l-0.4-0.2l-0.3-0.4l-0.3-0.3l-0.4-0.1
		l-0.4-0.1h-0.4l-0.4-0.1l-0.4-0.2l-0.2-0.4l-0.3-0.4l-0.4-0.1l-0.4-0.1l-0.4-0.1l-0.3-0.3l-0.3-0.4l-0.4-0.2l-0.4-0.1l-0.4-0.1
		l-0.4-0.3l-0.3-0.4L406,305l-0.5-0.1h-0.4l-0.4-0.2l-0.1-0.4l-0.2-0.4l-0.4-0.1l-0.4-0.1h-0.4h-0.4h-0.4l-0.4,0.1l-0.4,0.1
		l-0.4,0.1l-0.4-0.3l-0.2-0.5l-0.3-0.4l-0.4-0.3l-0.4-0.2l-0.4-0.1l-0.4-0.2l-0.4-0.2l-0.4-0.2l-0.4-0.2l-0.2-0.3l-0.4-0.1l-0.4-0.1
		h-0.4l-0.4,0.1l-0.4,0.1l-0.2,0.4l-0.2,0.4l-0.2,0.4l-0.3,0.1l-0.4,0.2l-0.4,0.1l-0.4,0.2l-0.4,0.1l-0.4,0.2l-0.1,0.4l-0.1,0.4
		l-0.1,0.4l-0.1,0.4l-0.1,0.4l-0.1,0.4l-0.1,0.4l-0.1,0.4l-0.2,0.4l-0.1,0.4l-0.3,0.4l-0.3,0.3l-0.2,0.4l-0.2,0.4l-0.1,0.4l-0.1,0.4
		l0.2,0.3l0.4,0.1l0.4,0.1l0.3,0.3l0.1,0.4l0.1,0.4l0.1,0.4l0.2,0.4l0.3,0.3l0.3,0.4l0.2,0.4l0.1,0.4l0.2,0.4l0.1,0.4v0.4v0.4v0.4
		l0.3,0.3l0.4,0.3l0.4,0.2l0.3,0.3l0.2,0.4l0.1,0.4l0.3,0.4l0.5,0.5l0.1,0.4l0.1,0.4v0.4l0.1,0.2v0.4l0.3,0.2l0.4,0.2l0.3,0.4
		l0.1,0.4l0.1,0.4l0.2,0.4v0.4l0.1,0.4l0.3,0.4l0.3,0.3l0.4,0.2l0.4,0.1l0.4,0.1l0.4,0.1l0.1,0.4l0.3,0.4l0.3,0.3l0.4,0.2l0.4,0.1
		l0.4,0.1l0.4,0.1l0.4,0.1l0.4,0.1l0.2,0.4l-0.1,0.4l-0.1,0.4l0.1,0.4l0.3,0.4l0.3,0.3l0.4,0.3l0.1,0.4l0.1,0.4l0.1,0.4l-0.1,0.4
		l-0.1,0.4v0.5l-0.2,0.4l-0.1,0.4l-0.1,0.4v0.4l-0.2,0.4l-0.2,0.4l0.1,0.4l0.3,0.3l0.3,0.3l0.4-0.1l0.4-0.3l0.4-0.1l0.4-0.3h0.4
		l0.4,0.2l0.4,0.3l0.4,0.1l0.4,0.1l0.4,0.1l0.4,0.1l0.4,0.2l0.4,0.1l0.4,0.1h0.4l0.4,0.1l0.4,0.1l0.4,0.1l0.4,0.1l0.4-0.1l0.4,0.1
		l0.4-0.1l0.1-0.4v-0.4l0.1-0.4l0.3-0.3l0.4,0.1h0.4l0.4-0.1l0.3-0.2l0.4,0.1h0.4h0.4l0.4,0.2l0.4,0.2l0.4,0.2l0.3,0.3l0.3,0.4
		l0.4,0.3l0.4,0.1l0.4,0.1l0.1,0.4v0.4l0.1,0.4l0.4,0.3l0.1,0.4l0.1,0.4l-0.1,0.4l0.1,0.4l0.1,0.4v0.4l-0.1,0.4l-0.3,0.3l-0.1,0.4
		l-0.1,0.4v0.4l0.1,0.4v0.4l0.2,0.4l0.4,0.1l0.5,0.1l0.4,0.1h0.4h0.4l0.4,0.1l0.4,0.1h0.4l0.4-0.1l0.4-0.1l0.3-0.3l0.3-0.3
		L423.9,341.5L423.9,341.5"/>
</g>
</svg>
