<?xml version="1.0" encoding="utf-8"?>
<!-- Generator: Adobe Illustrator 27.0.0, SVG Export Plug-In . SVG Version: 6.00 Build 0)  -->
<svg version="1.1" id="Layer_1" xmlns="http://www.w3.org/2000/svg" xmlns:xlink="http://www.w3.org/1999/xlink" x="0px" y="0px"
	 viewBox="0 0 500 500" style="enable-background:new 0 0 500 500;" xml:space="preserve">
<style type="text/css">
	.st0{fill:#E74646;stroke:#FFFFFF;stroke-width:4.6041;stroke-linecap:square;stroke-linejoin:bevel;stroke-miterlimit:3.998;}
</style>
<g transform="matrix(0.999751,0,0,0.999751,18.6633,21.7738)">
	<path vector-effect="none" class="st0" d="M342.9,1.4L343,2v0.6l0.3,0.5l0.5,0.4l0.5,0.3l0.4,0.4l0.4,0.4l0.4,0.5l0.5,0.3l0.4,0.4
		l0.5,0.5l0.5,0.2l0.3,0.4l-0.1,0.6v0.7l-0.1,0.5l-0.2,0.6l-0.1,0.5v0.6L347,11l-0.2,0.5l-0.1,0.6l-0.1,0.6l-0.1,0.5l-0.2,0.6
		l-0.2,0.5l-0.2,0.6v0.6l-0.1,0.5l-0.2,0.6l-0.2,0.5l-0.1,0.5l-0.4,0.4l-0.2,0.6l-0.2,0.5l-0.2,0.5l-0.3,0.5l-0.3,0.5l-0.3,0.5
		l-0.5,0.4l-0.3,0.5l-0.3,0.5l-0.4,0.4l-0.3,0.5l-0.5,0.3l-0.6,0.2L340,24l-0.5,0.3l-0.5,0.2l-0.5,0.3l-0.5,0.3l-0.5,0.3l-0.1,0.6
		l0.1,0.6l0.2,0.5l0.4,0.4l0.2,0.6l0.2,0.5l0.1,0.6v0.6l0.1,0.6l0.1,0.5l0.1,0.6l-0.1,0.6v0.6l-0.1,0.6v0.6l-0.2,0.6l-0.2,0.5
		l-0.4,0.4l-0.4,0.4l-0.5,0.4l-0.4,0.5l-0.4,0.4l-0.2,0.5l-0.2,0.6l-0.2,0.5l-0.1,0.6l-0.1,0.6l-0.1,0.5l0.2,0.8l-0.6,0.2l-1,1
		l-0.1,0.5l-0.2,0.6l-0.2,0.5l-0.1,0.6l-0.1,0.5l-0.3,0.6l-0.2,0.5l-0.1,0.6l-0.1,0.5v0.6l0.2,0.6l0.1,0.5l0.5,0.3l0.5,0.3l-0.1,0.5
		l-0.2,0.5l-0.1,0.6v0.6l-0.1,0.6l-0.1,0.6l-0.4,0.4l-0.5,0.3l-0.4,0.4l-0.1,0.6v0.5v0.7l0.1,0.5L332,57l-0.3,0.5l-0.4,0.5l-0.5,0.3
		l-0.5-0.2l-0.5-0.3l-0.5-0.3l-0.6-0.2l-0.5,0.1l-0.5,0.4l-0.3,0.5l-0.2,0.5l-0.1,0.6l-0.4,0.4l-0.4,0.5l-0.2,0.5l-0.2,0.5l-0.1,0.6
		l-0.2,0.5l-0.5,0.3h-0.6l-0.5,0.4l-0.4,0.5l-0.4,0.4l-0.3,0.5l-0.2,0.5l-0.4,0.5l-0.5,0.3l-0.5,0.2l-0.6,0.1h-0.6h-0.6l-0.6,0.1
		l-0.6,0.1l-0.2,0.5l-0.1,0.6l-0.1,0.6l-0.1,0.6l-0.1,0.5l-0.1,0.6l-0.2,0.5l-0.3,0.6l-0.1,0.5v0.4l-0.5,0.2l-0.6,0.1l-0.5,0.2
		l-0.5,0.3l-0.2,0.5l-0.2,0.5l-0.1,0.6v0.6l0.1,0.6l0.3,0.5l0.1,0.5l0.1,0.6l0.1,0.6l-0.1,0.6l-0.1,0.6l-0.3,0.5l-0.2,0.5v0.6v0.6
		l0.1,0.6v0.6l-0.1,0.6l-0.2,0.5l0.1,0.6l0.5,0.2l0.4,0.4l0.6,0.1l0.1,0.4l-0.4,0.5l-0.2,0.5l-0.3,0.5V87l0.2,0.6l0.4,0.4l0.5,0.2
		l0.5,0.4l0.5,0.3l0.5,0.2l0.4,0.3l0.5,0.4l0.3,0.5l0.3,0.5l0.2,0.6l0.3,0.5l0.2,0.5l0.2,0.5l0.3,0.5l0.3,0.5l0.2,0.5l0.3,0.5
		l0.3,0.5l0.3,0.5l0.2,0.6l0.2,0.5l0.4,0.4l0.5,0.3l0.6,0.2l0.4,0.4l0.5,0.4L325,99l0.4,0.4l0.3,0.5l0.1,0.6l-0.4,0.4l-0.5,0.2
		l-0.6,0.2l-0.5,0.2l-0.6,0.1l-0.5,0.1H322l-0.5,0.2l-0.6,0.1l-0.4,0.3l0.5,0.4l0.5,0.1l0.4-0.4h0.6l0.5,0.3l0.4,0.4l0.5,0.4
		l0.5,0.1l0.6-0.2l0.5-0.2l0.6,0.1l0.5,0.2l0.5,0.2l0.5,0.4l0.4,0.5l0.3,0.5l-0.2,0.5l-0.5,0.1l-0.5,0.2l-0.4,0.3l0.2,0.5l0.2,0.5
		l0.1,0.6v0.6l0.1,0.6l0.1,0.6v0.8l-0.2,1.1l-0.4,0.9l-0.5,1.2l-0.6,0.9l-0.4,1.4l-0.6,0.6l-0.4,0.6l-1.9,0.6l-1,0.2l0.2,0.6
		l-0.3,0.5l-0.3,0.4l-0.2,0.6l-0.2,0.5l-0.3,0.5l-0.2,0.5l-0.1,0.6l0.2,0.6l0.4,0.4l0.5,0.3l0.5,0.1l0.6,0.1l0.6,0.2l0.5,0.2
		l0.5,0.4l0.2,0.5l-0.3,0.5l-0.4,0.4l-0.3,0.5l0.1,0.6l0.3,0.5l0.1,0.6l-0.5,0.3l-0.8,0.3l-0.5,0.1l-0.5,0.1l-0.2,0.6l-0.2,0.5
		l-0.4,0.5l-0.3,0.4l-0.3,0.5l-0.3,0.5l-0.4,0.5l-0.4,0.4l-0.3,0.5l-0.4,0.5l-0.3,0.4l-0.4,0.5l-0.4,0.4l-0.4,0.4l-0.5,0.4l-0.4,0.5
		l-0.3,0.5l-0.2,0.5l-0.2,0.6l-0.2,0.5l-0.4,0.4l-0.5,0.3l-0.5,0.3l-0.4,0.5l-0.1,0.5l-0.4,0.5l-0.2,0.5l-0.3,0.5l-0.4,0.4l-0.5,0.3
		l-0.5,0.1l-0.1,0.5l0.5,0.3l0.5,0.4l-0.1,0.6l-0.3,0.4l-0.6-0.1l-0.5-0.3l-0.5-0.3l-0.5-0.2h-0.6l-0.1,0.5l0.3,0.5l0.4,0.5l0.5,0.4
		l0.3,0.6l0.4,0.4v0.6l-0.1,0.6l-0.2,0.5l-0.3,0.5v0.6v0.6l-0.2,0.5l0.3,0.5l-0.2,0.6l-0.1,0.6v0.6l0.1,0.6l0.2,0.5l0.2,0.5l0.1,0.6
		v0.6l-0.1,0.6l-0.2,0.6l-0.2,0.5l-0.3,0.4l-0.4,0.5l-0.1,0.6l0.4,0.3l0.5,0.2l0.6,0.2l0.4,0.4l0.1,0.6l-0.1,0.6l-0.1,0.6l-0.1,0.5
		v0.7l0.1,0.6l-0.4,0.3l-0.3,0.6l-0.2,0.4l0.7,0.6l0.2,0.5l0.3,0.5l0.4,0.5l0.2,0.5l0.4,0.4l0.4,0.5l0.3,0.5l0.4,0.4l0.3,0.5
		l0.2,0.6v0.6v0.6l0.1,0.6l0.2,0.2l0.1,0.6l-0.2,0.5l-0.1,0.6v0.6v0.6v0.6l-0.2,0.6l-0.4,0.4l-0.3,0.5l-0.2,0.5v0.6l0.3,0.6l0.2,0.5
		l0.2,0.5l-0.1,0.6l-0.2,0.5l-0.2,0.6l-0.2,0.5v0.6l-0.1,0.8l-0.3,0.5l-0.1,0.6l-0.1,0.6v0.6l0.1,0.6l-0.2,0.6l0.1,0.5l0.1,0.6
		l0.1,0.6l0.1,0.6l-0.1,0.6l-0.1,0.5l-0.3,0.5l-0.2,0.5l-0.1,0.6l-0.1,0.6v0.6v0.6v0.6v0.7l-0.1,0.6l-0.1,0.5l-0.1,0.6l-0.1,0.6
		l-0.1,0.6v0.6v0.5l0.2,0.6l0.2,0.5l0.3,0.5l0.3,0.5l0.3,0.5l0.3,0.5l0.2,0.5l0.3,0.5l0.1,0.6l0.1,0.6l0.4,0.6l0.2,0.5l-0.1,0.6
		l-0.1,0.6l0.1,0.5l0.1,0.6l-0.3,0.5l-0.2,0.6l0.1,0.5l0.3,0.6l0.4,0.4l0.3,0.5l0.3,0.4l-0.1,0.4l0.1,0.5l0.6,0.2l0.5,0.2l0.1,0.6
		v0.6l0.1,0.6l0.1,0.5l0.2,0.5l0.2,0.6l0.1,0.5l0.1,0.6v0.6v0.6v0.6l-0.1,0.6l0.1,0.6l0.2,0.3l-0.3,0.6v0.6l0.1,0.5l0.1,0.6l0.1,0.6
		l0.1,0.6l0.1,0.5l0.2,0.6l0.2,0.5l0.3,0.5l0.4,0.5l0.1,0.5l0.1,0.6l0.1,0.6l-0.1,0.6l-0.3,0.5l-0.4,0.4l-0.3,0.5l-0.3,0.5l-0.3,0.5
		l-0.3,0.5l-0.3,0.5l-0.2,0.5l-0.2,0.6l-0.3,1l-0.1,0.5l-0.1,0.6l-0.2,0.5l-0.1,0.6l-0.2,0.5l-0.1,0.6l-0.2,0.5l-0.1,0.6v0.6
		l-0.1,0.6l-0.1,0.6l-0.2,0.5l-0.2,0.5l-0.4,0.5l-0.4,0.5l-0.4,0.3l-0.3,0.5l-0.3,0.5l-0.3,0.5l-0.2,0.5l-0.3,0.5l-0.4,0.5l-0.3,0.5
		l-0.4,0.3l-0.3,0.5l-0.3,0.5l-0.5,0.7l-0.2,0.5l-0.2,0.6l-0.2,0.5l-0.2,0.5l-0.2,0.6l-0.4,0.4l-0.3,0.5l-0.1,0.6v0.6v0.6l-0.1,0.6
		l-0.2,0.5l-0.2,0.6l-0.3,0.5l-0.1,0.5v0.6l-0.1,0.6v0.7l0.1,0.6l-0.1,0.5l-0.2,0.6l-0.1,0.6l-0.3,0.7l-0.4,0.3l-0.2,0.5l-0.1,0.6
		l-0.2,0.6l-0.2,0.5l-0.3,0.5l-0.5,0.4l-0.4,0.4l-0.3,0.5l-0.4,0.4l-0.3,0.3v0.6l-0.1,0.6v0.6l-0.1,0.5v0.7l0.1,0.6l0.1,0.5l0.2,0.6
		v0.6v0.6v0.6l-0.1,0.6v0.6L302,275l-0.1,0.5l-0.2,0.6l-0.1,0.6v0.6l0.1,0.6l0.1,0.5l0.1,0.6l0.1,0.6l-0.2,0.5l-0.2,0.5l-0.3,0.5
		l-0.2,0.6l-0.2,0.5l-0.3,0.5l-0.2,0.5l0.1,0.6l0.2,0.5l0.1,0.6l0.2,0.5l0.5,0.5l0.1,0.6l0.1,0.6l0.1,0.5l0.3,0.5l0.2,0.5l0.5,0.2
		l0.5,0.2h0.6l0.6,0.1l0.6,0.1l0.5,0.2l0.5,0.3l0.3,0.4l-0.2,0.5l-0.1,0.5l0.2,0.6h0.5l0.6,0.1l0.4,0.4l-0.2,0.5l-0.4,0.4l-0.5,0.3
		l-0.5,0.3l-0.3,0.5l-0.1,0.6l0.2,0.6l0.2,0.5l0.3,0.5l0.4,0.4l0.2,0.5l0.2,0.6v0.6v0.6l0.2,0.5l0.3,0.5l0.4,0.4l0.5,0.4l0.3,0.4
		l0.6,0.2h0.5l0.5-0.2l0.5-0.3h0.6l0.2,0.5l-0.1,0.6l-0.1,0.6v0.6v0.6l0.3,0.4l0.5,0.4l0.4,0.4l-0.1,0.6l-0.3,0.5l-0.4,0.4l-0.5,0.2
		l-0.3,0.5l-0.4,0.5l-0.4,0.3l-0.6,0.2l-0.5,0.2l-0.3,0.4l-0.1,0.6l0.2,0.6l0.3,0.5l0.4,0.4l0.5,0.3l0.5,0.2l0.5,0.2l0.5,0.4
		l0.5,0.2l0.5,0.2l0.6,0.1l0.6,0.2l0.5,0.1l0.5,0.3l0.1,0.6l0.2,0.5l0.3,0.5l0.6-0.1l0.5,0.1l0.5,0.4l0.4,0.4l0.6,0.2h0.5l0.6,0.3
		l0.2,0.7l-0.3,0.5l-0.3,0.5l-0.3,0.4l-0.4,0.5l-0.4,0.4l-0.4,0.4l-0.4,0.5l-0.1,0.6v0.6v0.6v0.6v0.6l-0.1,0.6v0.5l0.4,0.4l0.6-0.1
		l0.6,0.1l0.5,0.3l0.4,0.4l0.2,0.5l0.4,0.3l-0.2,0.5v0.6l0.2,0.6l0.5,0.3l0.5,0.3l0.3,0.5l-0.1,0.6l-0.5,0.1l-0.6-0.1l-0.5,0.2
		l-0.2,0.6l-0.2,0.5l-0.3,0.4l-0.6,0.3l-0.5,0.2l-0.5,0.3l-0.3,0.5l0.1,0.5l0.3,0.6l0.4,0.3l0.2,0.6l0.3,0.4l0.5,0.2h0.6l0.6-0.1
		h0.6l0.6,0.1l0.5,0.2l0.5,0.3l0.5,0.4l0.4,0.4l0.3,0.5l0.1,0.5l0.5,0.4l0.5,0.2h0.6l0.6,0.1l0.5,0.3l0.3,0.5l0.4,0.4l0.3,0.5
		l0.4,0.5l0.3,0.8l0.3,0.4l0.3,0.6l0.3,0.5l0.1,0.5l0.1,0.6l-0.1,0.6l-0.1,0.6l0.2,0.6l0.4,0.4l0.5,0.3l0.5,0.4l0.5,0.3l0.4,0.5
		l0.4,0.4l0.5,0.4l0.5,0.2l0.5,0.1h0.7l0.5,0.2l0.4,0.5l0.4,0.4l0.5,0.4l0.5,0.3l0.5,0.3l0.4,0.4l0.3,0.5l0.4,0.5l0.1,0.5l0.1,0.5
		l-0.4,0.5l-0.2,0.5l0.3,0.5l0.5,0.4l0.4,0.4l0.1,0.6l0.1,0.6l0.1,0.5v0.7l-0.1,0.5l-0.2,0.6l-0.3,0.4l-0.4,0.5l-0.3,0.5v0.6
		l0.2,0.5l0.3,0.5l0.2,0.5l0.2,0.6l0.2,0.5l0.1,0.6l-0.1,0.6l-0.3,0.4l-0.4,0.5l-0.1,0.5l0.1,0.7v0.5l0.2,0.6l-0.4,0.3l-0.5,0.4
		l-0.2,0.5l-0.2,0.5l-0.2,0.6v0.6l-0.1,0.4H336l-0.6,0.1l-0.4,0.4l-0.3,0.5l-0.3,0.5l-0.4,0.4l-0.4,0.4l-0.4,0.4l-0.6,0.2L332,374
		l-0.6-0.1l-0.5-0.1l-0.6-0.2l-0.6,0.1l-0.5,0.2l-0.5,0.3l-0.2,0.5l-0.1,0.6v0.6l-0.1,0.6l-0.4,0.4l-0.6,0.2l-0.6-0.1h-0.6l-0.6,0.1
		l-0.5,0.2l-0.5,0.3l-0.4,0.3l-0.4,0.5l-0.2,0.6l-0.1,0.5L323,380l-0.5,0.1l-0.5-0.3l-0.4-0.5l-0.2-0.3l-0.3-0.4l-0.2-0.5l-0.2-0.5
		l-0.3-0.6l-0.5-0.3l-0.5-0.1l-0.5,0.4l-0.5,0.3l-0.5,0.2l-0.6-0.1l-0.4-0.4v-0.6l0.1-0.6l0.2-0.5l-0.1-0.6l-0.2-0.6l-0.1-0.5
		l-0.2-0.6l-0.1-0.5v-0.6l-0.4-0.4l-0.5-0.2l-0.5-0.2l-0.6-0.2l-0.6-0.1l-0.3,0.4v0.6l-0.3,0.5l-0.4,0.5l-0.4,0.4l-0.5,0.3l-0.6,0.2
		l-0.1,0.5l-0.4,0.4l-0.4,0.5l-0.5,0.3l-0.5,0.2h-0.6l-0.5-0.1h-0.6l-0.6,0.1h-0.6l-0.6-0.1h-0.6l-0.6,0.1l-0.5,0.2l-0.6,0.1
		l-0.5,0.2l-0.6,0.1l-0.6,0.1l-0.5,0.1l-0.6,0.1l-0.6,0.1l-0.6-0.1l-0.6,0.1l-0.6,0.1l-0.6-0.1l-0.4-0.5l-0.3-0.4l-0.4-0.5l-0.5-0.4
		l-0.5-0.3l-0.5-0.3l-0.5-0.1l-0.6-0.1l-0.6-0.1H293h-0.6l-0.6-0.1h-0.6h-0.6l-0.5,0.2l-0.5,0.3l-0.6,0.1h-0.6l-0.3-0.5l-0.5-0.3
		l-0.5-0.1l-0.6,0.2l-0.6,0.1l-0.5-0.2l-0.5-0.3l-0.5-0.3l-0.5-0.2l-0.5-0.4l-0.5-0.2l-0.5-0.2l-0.6-0.2l-0.5-0.2l-0.5-0.2l-0.6-0.2
		h-0.6l-0.6,0.1l-0.5,0.1l-0.6,0.2l-0.6,0.1l-0.5,0.1l-0.6,0.1l-0.6,0.1l-0.5,0.1l-0.6,0.1h-0.6l-0.6-0.1l-0.6-0.2l-0.5-0.2
		l-0.4-0.5l-0.2-0.5l-0.5-0.3l-0.6,0.1l-0.5,0.3h-0.5l-0.4-0.4l-0.3-0.5l-0.4-0.4l-0.6-0.1l-0.6-0.1l-0.1,0.6l0.1,0.6l-0.1,0.6
		l-0.3,0.5l-0.4,0.4l-0.5-0.1l-0.5-0.2l-0.5-0.3l-0.6-0.1l-0.6-0.1l-0.6,0.1l-0.5,0.2l-0.5,0.2l-0.3,0.6l-0.1,0.5l-0.4,0.5l-0.5,0.3
		l-0.3,0.5l-0.2,0.5l-0.5,0.4l-0.3,0.5l-0.5,0.4l-0.4,0.4l-0.3,0.3l0.5,0.3l0.6,0.1l0.5,0.1l0.6,0.1l0.6,0.1l0.6,0.2l0.5,0.1
		l0.5,0.2l0.6,0.1l0.5,0.3l0.5,0.4l0.5-0.1l0.4,0.4l0.4,0.2l0.5-0.3l0.4,0.4l0.5,0.2l0.5-0.3l0.6-0.1l0.6-0.1l0.6-0.1l0.5,0.1
		l0.6,0.2l0.5,0.2l0.6,0.1l0.5,0.2l0.5,0.2l0.6,0.3l0.5,0.2l0.5,0.3l0.4,0.4l0.5,0.2l0.6,0.3l0.4,0.3l0.3,0.5v0.6v0.6v0.6l-0.1,0.6
		v0.6l-0.1,0.6l-0.1,0.6v0.6l-0.2,0.5l-0.2,0.6l-0.1,0.5l-0.2,0.6l-0.1,0.6l-0.2,0.5l-0.1,0.6v0.5l0.2,0.6l0.4,0.4l0.2,0.5l0.5,0.4
		l0.6,0.1l0.5-0.4l0.4-0.3l0.6-0.3l0.5-0.1l0.6-0.1h0.6h0.6l0.6,0.1l0.5,0.2l0.5,0.3l0.4,0.4l0.6,0.1h0.6l0.6,0.1l0.5,0.1l0.6-0.2
		l0.5-0.2l0.5,0.2l0.5,0.2l0.6,0.2l0.5,0.2l0.5,0.2l0.5,0.3l0.5,0.3l0.5,0.3l0.5,0.3l0.5,0.3l0.5,0.2l0.5,0.4l0.5,0.3l0.5,0.2
		l0.5,0.3l0.5,0.3l-0.3,0.5v0.6v0.6l0.2,0.6l0.3,0.4l0.4,0.5l0.5,0.4l0.2,0.6v0.5v0.6l-0.2,0.6l-0.2,0.5l-0.2,0.5l-0.2,0.6l0.3,0.5
		l0.3,0.5l0.2,0.5l0.3,0.5l0.4,0.4l0.5,0.3l0.5,0.4l-0.1,0.6l-0.2,0.5l-0.2,0.4l-0.5,0.1l-0.5,0.4l-0.5,0.4l-0.5,0.1l-0.6-0.3
		l-0.5-0.2l-0.5-0.2l-0.5-0.3l-0.5-0.3l-0.6-0.1l-0.5,0.1l-0.2,0.6l0.1,0.5l-0.4,0.5l-0.4,0.5l-0.2,0.5l-0.2,0.5l-0.3,0.5l-0.5,0.3
		l-0.6,0.1l-0.6,0.1l-0.5-0.1l-0.7-0.1l-0.5-0.2l-0.4-0.4l-0.1-0.6l-0.4-0.4l-0.5-0.1l-0.6,0.2l-0.5-0.1L283,411l-0.5-0.3l-0.5-0.2
		l-0.6,0.1l-0.6,0.1h-0.6l-0.6,0.2l-0.5,0.1l-0.5,0.3l-0.6,0.1l-0.6-0.1h-0.6h-0.6l-0.6-0.1l-0.6-0.1l-0.5-0.2l-0.5-0.2l-0.5-0.2
		l-0.5-0.3l-0.5-0.3l-0.7-0.4l-0.5,0.3l-0.5,0.1l-0.6,0.1h-0.6l-0.6,0.1l-0.6,0.1h-0.6l-0.5,0.2l-0.4,0.4l-0.1,0.6l0.3,0.5l0.3,0.5
		l0.2,0.5l0.1,0.6l-0.2,0.5l-0.5,0.4l-0.5,0.2l-0.5,0.2l-0.5,0.3l-0.5,0.4l-0.5,0.3l-0.3,0.3l-0.4,0.4l-0.3,0.4l-0.1,0.9l-0.2,0.5
		l-0.3,0.5l-0.5,0.4l-0.4,0.4l-0.5,0.4l-0.3,0.5L261,421l-0.1,0.6v0.6l-0.1,0.6v0.6l0.1,0.5l0.2,0.6v0.6v0.6v0.6l-0.4,0.5l-0.2,0.5
		l-0.2,0.5v0.6l0.3,0.4l0.6,0.2l0.4,0.4l0.4,0.5l0.2,0.5l0.1,0.5l0.3,0.6l0.1,0.5l0.4,0.7l0.6,0.1l0.5,0.2l0.6,0.2l0.5,0.3l0.2,0.6
		l0.1,0.5l-0.1,0.6l-0.1,0.6l-0.1,0.6l-0.1,0.6l0.1,0.6l0.2,0.5l0.2,0.5l0.3,0.5l0.4,0.5l0.1,0.6l-0.3,0.5v0.6l-0.3,0.5l-0.5,0.4
		l-0.2,0.5l-0.1,0.6l-0.1,0.6l-0.1,0.5l-0.2,0.6l-0.3,0.6l-0.1,1.1l0.1,0.9l0.1,0.6l0.1,0.4l-0.1,0.5l0.2,0.5l0.1,0.5v0.5v0.8v0.5
		l0.3,0.5l0.4,0.5l0.3,0.5l0.3,0.4l0.4,0.4l0.2,0.6l0.1,0.5v0.6l0.3,0.5l0.5,0.4l0.3,0.5l-0.5,0.3l-0.5,0.3l-0.6,0.2l-0.5,0.2
		l-0.5,0.2l-0.3,0.4l-0.1,0.6v0.6l0.1,0.6l0.2,0.5l0.1,0.5l-0.6,0.2l-0.5,0.2l-0.5,0.2l-0.6,0.2l-0.5,0.1h-0.7l-0.6-0.1h-0.5h-0.7
		l-0.5,0.1H259l-0.6,0.1h-0.6h-0.6h-0.6l-0.6,0.1l-0.6,0.1l-0.5,0.2l-0.5,0.3l-0.5,0.2h-0.6h-0.6l-0.6-0.1l-0.5-0.2l-0.6-0.2
		l-0.6-0.1h-0.6l-0.5,0.1l-0.7-0.5l-0.1-0.6v-0.6l-0.1-0.6l-0.3-0.5l-0.1-0.6l0.1-0.6l0.2-0.5l0.2-0.5l-0.2-0.6l-0.3-0.4l-0.6-0.1
		l-0.6-0.1h-0.6h-0.6l-0.5-0.3l-0.4-0.4v-0.6l0.1-0.6l-0.2-0.3l-0.2-0.5l-0.3-0.5l-0.3-0.5l-0.3-0.5l-0.5-0.2l-0.6-0.1l-0.5-0.2
		l-0.5-0.4l-0.5-0.3l-0.5-0.3l-0.4-0.4l-0.4-0.5l-0.5-0.3l-0.3-0.4l-0.5-0.3l-0.4-0.3l-0.5-0.4l-0.5-0.4l-0.5-0.2l-0.5-0.2l-0.6-0.2
		l-0.5-0.2l-0.5-0.2l-0.5-0.4l-0.5-0.2l-0.5-0.3l-0.5-0.2l-0.5,0.1h-0.5h-0.6h-0.6l-0.6,0.1L229,446l-0.5-0.3l-0.4-0.5l-0.3-0.5
		l-0.5-0.4l-0.4-0.4l-0.5-0.3l-0.4-0.4l-0.5-0.3l-0.5-0.3l-0.5-0.4l-0.5-0.3l-0.5-0.3l-0.4-0.3l-0.5-0.3l-0.5-0.3l-0.2-0.6l-0.2-0.5
		l-0.2-0.6l-0.5-0.2h-0.6h-0.6h-0.6h-0.6l-0.6-0.2l-0.6-0.1l-0.4-0.3l-0.3-0.5l-0.2-0.6l-0.4-0.2l-0.4-0.5l-0.4-0.4l-0.4-0.4
		l-0.5-0.3l-0.5-0.4l-0.4-0.4l-0.4-0.4l-0.6-0.3l-0.5-0.1l-0.5-0.2l-0.6-0.2l-0.4-0.4l-0.5-0.4l0.1-0.9l-0.3-0.5l-0.2-0.5l-0.3-0.5
		l-0.3-0.5l-0.5-0.4l-0.4-0.4l-0.5-0.4h-0.5l-0.6,0.2l-0.5,0.3l-0.4,0.4l-0.4,0.2l-0.6-0.2l-0.5-0.3h-0.5l-0.6,0.1l-0.6,0.2
		l-0.5,0.2l-0.5,0.2l-0.5,0.3l-0.5,0.4l-0.6,0.1l-0.5-0.2l-0.6-0.2l-0.5-0.3l-0.4-0.4l-0.5-0.4l-0.4-0.3l-0.5-0.3l-0.6,0.1l-0.5,0.3
		l-0.4,0.5l-0.2,0.5l-0.3,0.5l-0.4,0.4l-0.5,0.2h-0.6l-0.5-0.2l-0.5-0.4l-0.5,0.2L191,431l-0.4,0.2l-0.6-0.1l-0.5-0.2l-0.5-0.3
		l-0.6-0.2h-0.5l-0.6,0.1l-0.5,0.2l-0.6,0.1l-0.5,0.2l-0.3,0.4l-0.2,0.6l-0.1,0.6l-0.1,0.5l-0.3,0.5l-0.6,0.1l-0.1,0.6l-0.2,0.9
		l-0.4,0.3h-0.6l-0.4-0.4l-0.3-0.5l-0.4-0.5l-0.4-0.4l-0.4-0.4l-0.5-0.4l-0.4-0.5l-0.4-0.4l-0.5-0.2l-0.6-0.1l-0.6-0.1l-0.6-0.1
		h-0.5l-0.6-0.2l-0.4-0.3l-0.5-0.3l-0.4-0.5l-0.3-0.5l-0.3-0.5l-0.3-0.5l-0.4-0.4l-0.4-0.5l-0.2-0.5l-0.2-0.6l-0.2-0.5l-0.1-0.6
		l-0.1-0.5l-0.4-0.5l-0.5-0.3l-0.6-0.1l-0.5-0.2l-0.6-0.1l-0.4,0.1l-0.4-0.6l-0.2-0.6l-0.1-0.5l-0.1-0.6l-0.2-0.5l-0.4-0.5l-0.6-0.2
		l-0.4-0.3l-0.3-0.6l-0.4-0.4l-0.6-0.1h-0.6h-0.6h-0.6h-0.5l-0.6,0.2l-0.5,0.1l-0.6,0.2h-0.6l-0.5,0.3l-0.4,0.3l-0.6,0.1l-0.4-0.4
		l-0.3-0.5l-0.2-0.5l-0.4-0.5l-0.5-0.1h-0.6l-0.5-0.2l-0.4-0.4l0.3-0.5l0.4-0.5v-0.6l-0.2-0.5l-0.4-0.4l-0.5-0.5l-0.3-0.4l0.1-0.7
		l0.2-0.5v-0.6l0.1-0.9l-0.5-0.2l-0.6-0.1l-0.8-0.4l-0.5-0.2l-0.9-0.3l-0.2,0.6l-0.3,0.5l-0.3,0.4l-0.5,0.4l-0.5,0.3l-0.5,0.2
		l-0.5,0.3l-0.5,0.3l-0.4,0.4l-0.2,0.6v0.6l-0.4,0.3l-0.5,0.4l-0.2,0.6v0.6l-0.4,0.4l-0.3,0.5l-0.1,0.6l-0.3,0.4l-0.6-0.2l-0.5-0.3
		L145,418l-0.4-0.4l-0.4-0.4l-0.4-0.5l-0.3-0.5l-0.3-0.5l-0.4-0.4l-0.4-0.5l-0.5-0.4l-0.5-0.3l-0.5-0.1l-0.6-0.1h-0.5l-0.2-0.4
		l-0.1-0.6l-0.4-0.4l-0.3-0.5l-0.5-0.4l-0.4-0.4l-0.4-0.5l0.1-0.6l0.2-0.5l0.3-0.5l0.2-0.5l0.3-0.5l0.1-0.6l-0.1-0.6l0.1-0.6
		l-0.1-0.6l-0.2-0.5l0.1-0.7v-0.6l-0.1-0.5l-0.4-0.5l-0.5-0.4l-0.4-0.3v-0.6V401l-0.2-0.5l-0.6-0.2l-0.5-0.1l-0.5-0.3l-0.6-0.2
		l-0.5-0.1l-0.5,0.2l-0.5,0.3l-0.6,0.1l-0.6-0.1h-0.6h-0.6l-0.5,0.2l-0.5,0.3h-0.6l-0.5-0.4l-0.2-0.5l-0.5-0.3h-0.6l-0.5,0.1
		l-0.5,0.2h-0.6l-0.6,0.1l-0.5,0.3l-0.6,0.1l-0.5,0.1l-0.6,0.1l-0.4-0.3l-0.1-0.6l-0.2-0.5l-0.2-0.5l-0.6-0.1h-0.7h-0.6l-0.5,0.2
		l-0.5,0.3l-0.4,0.4l-0.5,0.2l-0.6,0.3l-0.5,0.2l-0.5,0.2l-0.6,0.2l-0.3,0.5l-0.4,0.4l-0.5,0.3l-0.6,0.1l-0.6,0.1l-0.5,0.1l-0.6-0.2
		l-0.5-0.1l-0.6-0.1h-0.6l-0.6,0.2h-0.7l-0.6,0.2l-0.5,0.2l-0.4,0.4l-0.4,0.4h-0.6l-0.5-0.2l-0.4-0.4h-0.6l-0.4,0.4v0.6l-0.1,0.6
		l-0.4,0.4l-0.5,0.2l-0.6,0.1l-0.5-0.3l-0.4-0.4l-0.2-0.6l-0.4-0.4l-0.4-0.5l-0.5-0.2l-0.5-0.2l-0.5-0.3l-0.5-0.4l-0.5-0.3l-0.5-0.2
		h-0.6l-0.7,0.2l-0.4-0.1l-0.6,0.1l-0.5-0.3l-0.4-0.4L95,400l-0.5-0.3l-0.6-0.1l-0.6-0.1l-0.5,0.1l-0.6-0.1l-0.4-0.4l-0.5-0.2
		l-0.6-0.2l-0.4-0.3l-0.5-0.3l-0.5-0.3l-0.5-0.4l-0.4-0.4l-0.4-0.5l-0.4-0.3l-0.5-0.4l-0.4-0.4l-0.4-0.5v-0.5l0.3-0.5l0.4-0.5
		l0.4-0.4l0.4-0.4l0.1-0.6l-0.2-0.5l-0.4-0.4l-0.3-0.5l-0.1-0.6l-0.1-0.6l-0.2-0.5l-0.5-0.3h-0.5l-0.4,0.5l-0.3,0.4l-0.4,0.5
		l-0.4,0.3l-0.5,0.4l-0.5-0.3l-0.5-0.2l-0.5-0.4l-0.5-0.3l-0.5,0.1l-0.5,0.3l-0.5,0.4l-0.5,0.3h-0.5l-0.6-0.2l-0.6-0.1h-0.5
		l-0.6,0.1l-0.5,0.2l-0.5,0.3h-0.6l-0.5-0.2h-0.6l-0.4,0.4l-0.1,0.6v0.6v0.6v0.6l-0.3,0.5l-0.5,0.2l-0.5,0.2l-0.6,0.2l-0.5-0.2
		l-0.4-0.4l-0.6-0.1l-0.6,0.1l-0.5,0.2l-0.5,0.3l-0.5,0.2l-0.5,0.3l-0.5,0.3l-0.5,0.3l-0.5,0.3l-0.5,0.3l-0.5,0.3l-0.4,0.4l-0.6,0.3
		l-0.5,0.2H63h-0.5l-0.4-0.4l-0.4-0.4l-0.4-0.5l-0.1-0.5l-0.4-0.4l-0.4-0.5v-0.6v-0.6l-0.1-0.6l-0.1-0.5l-0.2-0.6l-0.5-0.2l-0.4-0.5
		l-0.1-0.6v-0.6v-0.5l-0.1-0.6l-0.1-0.6l-0.1-0.5l-0.4-0.5l-0.5-0.3l-0.3-0.5l-0.1-0.6l0.1-0.5l0.3-0.7l0.6-0.3H59l0.5,0.4l0.5,0.2
		l0.6,0.1l0.5,0.2l0.4,0.5L62,386l0.4,0.4l0.6,0.1l0.6-0.1L64,386h0.6l0.6-0.1l0.5-0.2l0.6-0.2l0.5-0.2l0.6-0.1H68l0.6-0.1l0.5,0.2
		l0.5,0.3l0.5-0.4l0.5-0.4l0.5-0.3l0.5-0.3l0.5-0.4l0.4-0.3l0.6-0.3l0.5-0.2l0.5-0.3h0.6h0.6l0.4,0.3l0.5,0.4l0.5-0.2l0.4-0.5
		l0.4-0.4l0.4-0.5l0.3-0.5l0.3-0.5l0.4-0.4l0.5-0.3l0.4-0.5l0.1-0.5l-0.1-0.6l-0.1-0.5l-0.1-0.6l-0.3-0.5l0.1-0.6l0.3-0.4l0.3-0.6
		l-0.3-0.5v-0.6l0.2-0.5l-0.1-0.5l-0.2-0.6l0.1-0.5l0.4-0.4v-0.6h-0.5l-0.5,0.4l-0.4-0.3l0.2-0.6l0.3-0.5l0.4-0.4l0.3-0.5l0.2-0.5
		l0.4-0.5l0.4,0.3l0.1,0.6l0.2,0.5l0.2,0.5l0.1,0.6l0.4,0.3l0.6-0.1v-0.6v-0.6v-0.6l0.1-0.6l-0.1-0.6l-0.2-0.5l-0.4-0.4l-0.5-0.2
		l-0.6-0.2l-0.4-0.4l-0.1-0.5l-0.6-0.2h-0.6h-0.6h-0.6h-0.6l-0.6-0.1l-0.4-0.4l-0.5-0.4l-0.5-0.2l-0.5-0.2l-0.5-0.4l-0.4-0.4
		l-0.4-0.4l-0.4-0.5l-0.5-0.2l-0.6-0.1l-0.4-0.4l-0.1-0.6l0.2-0.5l0.3-0.5l-0.1-0.6l-0.3-0.5l-0.5-0.3l-0.2-0.5l-0.3-0.5l-0.3-0.5
		l-0.2-0.5v-0.6l0.5-0.3l0.6-0.1l0.5,0.2l0.6,0.1l0.6,0.1l0.6,0.1l0.6,0.1l0.5,0.2h0.6h0.6l0.4-0.4l0.1-0.6V355l0.2-0.5l0.1-0.7
		l-0.1-0.6l-0.2-0.5l-0.2-0.5l0.3-0.5l0.4-0.4l0.2-0.6l0.1-0.5l0.4-0.5l0.5-0.4l0.4-0.4l0.4-0.4l0.3-0.5l0.6-0.5L80,347l0.2-0.5
		l0.4-0.4l0.6-0.2l0.5-0.2l0.4-0.4l0.3-0.5l0.4-0.5l0.2-0.5l0.1-0.6l0.6,0.2l0.7,0.1l0.5,0.1l0.4,0.1l0.4,0.3l0.5,0.3l0.6,0.2
		l0.5-0.1l0.3-0.4l0.5-0.3l0.6,0.1h0.6l0.6,0.1l0.6,0.1l0.4,0.4v0.6l-0.2,0.5l-0.3,0.5l0.3,0.5l0.6-0.1l0.5-0.2l0.5,0.2v0.6l0.3,0.4
		l0.6,0.1l0.6,0.1h0.5h0.6l0.5-0.2l0.6-0.2l0.4-0.4l0.5-0.2l0.4-0.4l0.5-0.3l0.4-0.3l0.4-0.4l0.6-0.2l0.5-0.2h0.6l0.5,0.2l0.5,0.3
		l0.5,0.3l0.5,0.1l0.5-0.2l0.6-0.2l0.4-0.5l0.3-0.4l0.5-0.4l0.5-0.1l0.6,0.1l0.6,0.1l0.5,0.2l0.6,0.1l0.3,0.5l0.2,0.6l0.1,0.5v0.6
		l0.2,0.6v0.6l0.1,0.6l0.1,0.5l0.3,0.5l0.4,0.4l0.4-0.2l0.5-0.2l0.4,0.3l0.1,0.5l0.4,0.5l0.5,0.2l0.6-0.2l0.4-0.3l0.3-0.5l0.4-0.4
		l0.2-0.6v-0.5l-0.3-0.5v-0.6l0.4-0.4l0.6-0.1l0.5-0.3l-0.2-0.8l0.1-0.6l-0.1-0.6v-0.6l-0.2-0.5l-0.1-0.6l-0.2-0.6l-0.3-0.4
		l-0.4-0.5l-0.4-0.5l-0.4-0.4l-0.4-0.4l-0.5-0.3l-0.5-0.3l-0.5-0.4l-0.4-0.4l-0.1-0.6v-0.5v-0.6l-0.1-0.6l-0.1-0.6v-0.6l-0.2-0.5
		l-0.3-0.5l-0.1-0.6l0.2-0.6l0.1-0.5l0.3-0.5l0.3-0.5l0.2-0.5v-0.6v-0.6l-0.4-0.4l-0.6-0.2h-0.9l-0.6-0.1l-0.3-0.5l-0.3-0.5v-0.6
		l-0.1-0.6l0.3-0.5l0.3-0.4l0.5-0.4l0.2-0.5l0.3-0.5l0.3-0.5l0.3-0.5l0.3-0.5l0.2-0.5l0.2-0.6l0.2-0.6l0.1-0.6v-0.6v-0.6l0.1-0.5
		l0.1-0.6l0.4-0.4l0.5-0.5l0.4-0.4l0.3-0.5l-0.1-0.5l-0.2-0.6l-0.1-0.6l0.2-0.5l0.5-0.4h0.6l0.6,0.2l0.5,0.2l0.5-0.2l0.5-0.3
		l0.5-0.4l0.4-0.5l0.3-0.4l0.4-0.5l-0.1-0.5l-0.4-0.5l-0.5-0.4l-0.3-0.5l-0.2-0.5l-0.2-0.6l0.1-0.6l0.1-0.6v-0.6l-0.1-0.6l-0.3-0.5
		l-0.4-0.4h-0.6l-0.5,0.2l-0.5,0.3h-0.6v-0.4l0.2-0.6l0.3-0.4l0.3-0.5l0.3-0.6l0.4-0.4l0.5,0.1l0.6,0.2l0.5,0.2l0.4,0.4l0.5,0.4
		l0.5,0.3l0.2,0.5l0.6,0.2l0.5,0.2l0.5,0.2l0.6,0.2l0.6,0.1l0.6-0.1l0.5-0.2l0.4-0.4l0.5-0.4l0.5-0.4l0.5-0.2v-0.6v-0.5l-0.2-0.6
		v-0.6l-0.2-0.5l-0.1-0.6l0.1-0.5l0.5-0.3l0.5-0.4v-0.5l-0.4-0.5l-0.5-0.2h-0.6l-0.6-0.1l-0.5-0.3l-0.5-0.3l-0.4-0.5l-0.4-0.4
		l-0.3-0.6l-0.1-0.5v-0.6l-0.2-0.6l-0.2-0.5l-0.4-0.4l-0.4-0.5l-0.3-0.5l-0.4-0.5l-0.3-0.5l-0.5-0.3l-0.5-0.3l-0.6-0.1l-0.6-0.1
		L114,291l-0.4-0.4l-0.5-0.4l-0.3-0.4l-0.5-0.4l-0.5-0.3l-0.5-0.2l-0.6-0.1h-0.6l-0.6,0.1l-0.5,0.3l-0.5,0.2l-0.5,0.2l-0.6,0.1
		l-0.6-0.2l-0.5-0.2l-0.4-0.3l-0.5-0.4l-0.3-0.5l-0.5-0.4l-0.3-0.9l-0.3-0.5l0.1-0.6l0.3-0.5l0.4-0.4l0.4-0.5l0.4-0.4l0.5-0.3
		l0.5-0.2l0.5-0.3l0.6-0.2l0.5-0.3l0.4-0.4l0.5-0.2l0.6,0.1l0.6,0.1l0.6-0.1l0.5-0.3l0.1-0.6l-0.4-0.3l-0.5-0.4l-0.2-0.8l0.2-0.5
		l0.5-0.4l0.5-0.3l0.4-0.4l0.5-0.3l0.5-0.5l0.3-0.4l0.1-0.6l0.3-0.2l0.6-0.1l0.6,0.1l0.6-0.1l0.4-0.4l-0.5-0.7l-0.2-0.6l0.2-0.5
		l0.5-0.4l0.5-0.4l0.4-0.4l0.2-0.5v-0.7l-0.1-0.5l-0.1-0.6l-0.3-0.5l-0.2-0.5l-0.4-0.5l-0.3-0.5l-0.4-0.4l-0.5-0.4l-0.3-0.4v-0.6
		l-0.1-0.6l-0.3-0.5l-0.1-0.6l-0.1-0.6l-0.1-0.5l-0.1-0.6l-0.1-0.6v-0.6l0.1-0.6l0.1-0.5l0.1-0.6l0.1-0.6l0.4-0.2l0.5-0.3l0.4-0.4
		l0.4-0.5l0.2-0.5l0.2-0.6l0.2-0.5l0.3-0.5l0.4-0.4l0.6-0.1l0.5,0.1l0.5,0.3l0.5,0.3l0.6,0.2l0.5,0.1h0.6l0.6-0.1h0.6l0.6-0.1
		l0.6-0.1l0.5-0.1l0.5-0.3l0.5-0.3l0.6-0.2l0.5-0.1l0.6,0.2h0.6l0.6,0.1l0.6,0.2l0.5,0.2l0.6,0.1l0.5,0.2l0.6,0.2l0.5-0.2l0.6-0.1
		l0.5-0.1l0.6-0.1l0.6-0.1l0.5-0.2l0.6,0.3l0.5,0.1l0.6,0.1l0.6,0.1l0.5,0.3l0.4,0.4l0.3,0.5l0.6,0.1h0.6l0.5,0.3l0.3,0.5l0.3,0.5
		l0.4,0.4l0.5,0.2l0.6,0.1l0.5,0.3l0.7,0.3l0.4,0.4l0.4,0.3l0.5,0.4l0.1,0.5l-0.1,0.6l-0.1,0.6l0.1,0.6l0.4,0.5l0.4,0.4l0.7,0.5
		l0.6,0.2l0.4,0.4l0.6,0.1l0.5,0.3l0.4,0.4l0.1,0.6l0.1,0.6l0.1,0.5l0.4,0.5l0.6,0.2l0.6-0.1h0.6l0.5-0.1l0.6-0.1l0.6-0.1l0.5-0.3
		l0.4-0.4l0.2-0.6l0.1-0.5l0.3-0.5l0.3-0.5h0.7l0.5,0.2l0.5,0.3l0.5,0.3l0.5,0.3l0.5,0.2l0.5,0.2l0.3-0.1l0.5-0.4l0.5-0.1l0.6-0.2
		l0.6,0.1l0.4,0.4l0.5,0.3l0.5,0.3l0.6,0.2l0.5-0.1l0.6-0.1h0.6l0.5,0.2l0.6,0.1l0.5,0.3l0.5,0.2l0.4-0.4l-0.3-0.5l-0.1-0.5l0.2-0.6
		l0.5-0.3l0.5-0.2l0.3-0.5l0.2-0.6l0.5-0.2l0.5,0.4l0.4,0.3l0.6-0.1l0.5-0.2h0.6l0.5,0.3l0.2,0.6l-0.3,0.5l-0.2,0.5l0.2,0.5l0.5-0.1
		l0.5-0.3l0.5-0.3l0.5-0.2l0.6-0.1l0.5-0.2l0.6-0.2l0.5-0.2h0.6l0.6-0.2l0.5-0.2l0.5-0.2h0.6l0.6,0.2h0.6h0.6l0.4-0.4l0.4-0.5
		l0.4-0.4l0.4-0.4l0.3-0.4l-0.6-0.7l-0.4-0.4l-0.5-0.4l-0.3-0.5l-0.4-0.5l-0.4-0.5l-0.5-0.3l-0.4-0.4l-0.3-0.5l-0.3-0.5l-0.4-0.5
		l-0.5-0.4l-0.4-0.4l-0.4-0.5l0.1-0.6l-0.1-0.6l-0.1-0.6l-0.1-0.5l-0.2-0.6l-0.1-0.5l-0.1-0.6l-0.1-0.6l-0.2-0.5l-0.3-0.5l-0.2-0.6
		l-0.4-0.4l-0.5-0.4l-0.4-0.4l-0.4-0.5v-0.6l0.4-0.4l0.5-0.1l0.5,0.3l0.5,0.2l0.6-0.1l0.3-0.5l0.1-0.6l0.4-0.4l0.1-0.5l-0.2-0.6
		v-0.5l0.4-0.4l0.6-0.2l0.5-0.2l0.7,0.3l0.4,0.4l0.5,0.4l0.4,0.4l0.4,0.5l0.5,0.1l0.6,0.2l0.5,0.3l0.5,0.2l0.5,0.3l0.5,0.4l0.5,0.2
		l0.5,0.2l0.6-0.1l0.6,0.2l0.5,0.1l0.6,0.2l0.5,0.3l0.4-0.3h0.5l0.6,0.3l0.6,0.1l0.5-0.1l0.6-0.2l0.5-0.3l0.5-0.3l0.5-0.2l0.6-0.1
		h0.6l0.5-0.3l0.4-0.5l0.4-0.3l0.6,0.1l0.6,0.1h0.6l0.6-0.5l0.5-0.4l0.5-0.3h0.6l0.6,0.1l0.5,0.2l0.5,0.2l0.6,0.2l0.5,0.3l0.3,0.5
		v0.6l0.1,0.5l0.6,0.2l0.5-0.2l0.5-0.2l0.6-0.2l0.6-0.1l0.5-0.1l0.5-0.3l0.4-0.5l0.2-0.5h0.6l0.6-0.1l0.5,0.3l0.4,0.4l0.4,0.4h0.6
		l0.6-0.2l0.6,0.1l0.5,0.2h0.6h0.6l0.6,0.1h0.6h0.6h0.6h0.6l0.5-0.2l0.5-0.4l0.4-0.4l0.6-0.1l0.5-0.1h0.6l0.6-0.1l0.5-0.3l0.4-0.4
		l0.3-0.5l0.3-0.5l0.2-0.5l0.1-0.6v-0.6v-0.6l0.1-0.6l0.2-0.5l0.4-0.4l0.2-0.6l-0.1-0.6l-0.2-0.5l-0.3-0.5l0.1-0.6v-0.6l-0.1-0.6
		l-0.2-0.5l-0.2-0.5v-0.7l0.1-0.5l0.1-0.6l0.2-0.5l0.2-0.6l0.1-0.6l0.1-0.8l-0.3-0.5l-0.5-0.4l-0.5-0.2l-0.5-0.3l-0.5-0.3l-0.4-0.5
		l-0.4-0.4l-0.5-0.3v-0.7l-0.2-0.5l-0.2-0.6l-0.4-0.5l-0.2-0.5l-0.1-0.6v-0.6l0.2-0.5l0.1-0.6l0.2-0.5v-0.6l-0.3-0.5l-0.3-0.5
		l-0.1-0.6l0.3-0.5l0.4-0.4l0.3-0.5l-0.3-0.5l-0.3-0.5l-0.3-0.5v-0.6l0.1-0.6v-0.6v-0.6l0.1-0.6l0.1-0.6l-0.1-0.6l-0.1-0.5l-0.2-0.6
		l-0.4-0.7l-0.1-0.6l0.5-0.4l0.5-0.4l0.5-0.3l0.4-0.4l0.5-0.3l0.5-0.4l0.3-0.5l0.4-0.4l0.4-0.4l0.6-0.2h0.5h0.6h0.6l0.6-0.2l0.5-0.2
		l0.4-0.4l0.2-0.5v-0.6l0.1-0.6l0.2-0.6l0.4-0.2l0.5-0.2l0.1-0.5l0.2-0.6l0.1-0.6v-0.6V201v-0.6l0.1-0.6l0.2-0.5l0.2-0.6l0.3-0.5
		l0.4-0.4l0.1-0.6v-0.6l0.1-0.6l0.1-0.6l-0.2-0.5l-0.4-0.5l-0.4-0.5l-0.1-0.5l-0.2-0.6l-0.2-0.5l-0.4-0.5l-0.3-0.5l-0.1-0.5
		l-0.2-0.6l-0.1-0.5l-0.1-0.6v-0.6l0.2-0.6l0.3-0.4l0.6,0.1l0.4-0.4l0.2-0.6l0.2-0.5l0.1-0.6l0.2-0.5l0.2-0.6l0.2-0.5l0.2-0.5
		l0.2-0.5l0.2-0.6l-0.2-0.2l-0.4-0.4l-0.5-0.4l-0.5-0.2l-0.6-0.1l-0.5-0.2l-0.5-0.4l-0.4-0.5l-0.3-0.5l-0.3-0.5l-0.2-0.5l-0.2-0.5
		l-0.6,0.1l-0.5,0.1l-0.6-0.1l-0.5-0.4l-0.4-0.4l-0.6-0.1l-0.5-0.1l-0.6-0.2v-0.6l-0.3-0.5l-0.5-0.3h-0.6l-0.3,0.5l-0.3,0.5
		l-0.4,0.4l-0.6,0.2l-0.5,0.1l-0.6,0.3l-0.5,0.1l-0.6-0.2l-0.3-0.4l-0.1-0.6v-0.6l-0.2-0.5l-0.4-0.5l-0.5-0.4l-0.1-0.5l-0.2-0.6
		l-0.3-0.5l-0.5-0.1l-0.4-0.5v-0.6l-0.1-0.6l-0.3-0.5l-0.5-0.3H208l-0.6-0.2l-0.4-0.4l-0.4,0.3l-0.4,0.4l-0.5-0.3l-0.5-0.4l-0.4,0.3
		h-0.5l-0.5-0.4l-0.3-0.4l-0.5-0.2l-0.6,0.1l-0.3-0.4l-0.2-0.5v-0.6l0.2-0.6l0.3-0.5l0.2-0.5v-0.6l-0.6,0.1l-0.4,0.4l-0.3,0.5
		l-0.2,0.5l-0.3,0.5l-0.3,0.5l-0.3,0.5l-0.3,0.5l-0.3,0.5l-0.5,0.3l-0.5-0.1l-0.3-0.5l-0.1-0.6l-0.4-0.4l-0.4,0.3l-0.4-0.4l-0.4,0.4
		l-0.4,0.1l-0.1-0.6l0.2-0.5l0.1-0.5l-0.5-0.2l-0.5,0.4l-0.5,0.3l-0.4-0.3l-0.6-0.1l-0.5-0.4l-0.1-0.5l-0.6-0.2l-0.1-0.5v-0.6
		l0.2-0.4l0.4-0.4v-0.6l-0.1-0.6l-0.2-0.5l-0.4-0.5l-0.5,0.5l-0.4,0.4l-0.5,0.3l-0.5,0.3l-0.5,0.3l-0.6,0.1l-0.4-0.4l-0.2-0.5v-0.7
		v-0.6v-0.6l-0.1-0.6v-0.5l-0.2-0.6l-0.2-0.5L188,158l-0.4-0.4l-0.4-0.4l-0.5-0.3l-0.5-0.3l-0.5-0.3l-0.6-0.1h-0.6l-0.6-0.1h-0.6
		l-0.6-0.1l-0.5-0.3l-0.5-0.2l-0.5-0.2l-0.6-0.2L180,155l-0.5-0.2l-0.6-0.2l-0.5-0.1L178,154l-0.5-0.3l-0.5-0.4l-0.4-0.4H176
		l-0.6,0.1l-0.5,0.1h-0.6l-0.5-0.3l-0.5-0.4l-0.5-0.2l-0.5-0.1l-0.6,0.1h-0.6l-0.6,0.1h-0.6l-0.5-0.3v-0.6l-0.1-0.4l0.2-0.5
		l-0.1-0.6l-0.4-0.5l-0.5-0.3l-0.5-0.3l-0.4-0.3l-0.5-0.4l-0.4-0.4h-0.6l-0.6,0.1l-0.5,0.3l-0.6,0.1l-0.5-0.2l-0.5-0.2l-0.6-0.2
		l-0.6,0.1l-0.5-0.1l-0.6-0.1l-0.5-0.3l-0.1-0.5l-0.3-0.5l-0.5,0.1l-0.4,0.4l-0.4,0.4l-0.4-0.1l-0.1-0.6l-0.1-0.6v-0.6v-0.6
		l-0.1-0.6l-0.1-0.5v-0.6l-0.1-0.6l-0.1-0.6l-0.1-0.6l-0.1-0.5l-0.3-0.6v-0.5v-0.6l0.2-0.6v-0.6v-0.6l0.1-1l0.3-0.6l0.2-0.5l0.2-0.6
		l0.2-0.6l0.2-0.6l0.3-0.5l0.2-0.6l0.2-0.6l0.2-0.6v-0.5l-0.4-0.5l-0.4-0.4l-0.5-0.3l-0.4-0.4l-0.1-0.6l0.2-0.5l0.6-0.2l0.5,0.3
		l0.4-0.1l0.1-0.6v-0.6l-0.2-0.6l-0.3-0.4l-0.4-0.5l-0.4-0.5l-0.3-0.5l-0.3-0.5l-0.3-0.5l-0.1-0.5l-0.2-0.6l0.1-0.6l0.1-0.6l0.1-0.6
		v-0.6l0.2-0.5l0.2-0.5l0.2-0.6l0.2-0.5l0.2-0.6v-0.6v-0.6l0.1-0.6l0.1-0.6l0.1-0.6v-0.6l0.3-0.5l0.2-0.5l0.4-0.4l0.5-0.3l0.5-0.2
		l0.5-0.3l0.4-0.4l0.3-0.5l0.3-0.5l0.2-0.5l0.3-0.5l0.1-0.6l-0.2-0.5l-0.3-0.5l-0.3-0.5l-0.5-0.3l-0.3-0.5v-0.6l0.4-0.4l0.4-0.3
		l0.5-0.4l0.5-0.4l0.4-0.4l0.4-0.5l0.1-0.5v-0.6l0.1-0.6l0.1-0.6l0.4-0.4l0.6,0.1l0.5,0.2l0.6,0.1l0.6,0.1l0.5-0.1l0.6-0.3l0.4-0.3
		l0.3-0.5l0.2-0.6l0.2-0.5l0.1-0.6l0.1-0.6l0.2-0.5l0.4-0.4l0.5-0.4l0.5-0.2l0.5-0.1l0.6,0.1h0.6l0.6-0.1l0.5-0.3l0.6-0.1l0.6,0.1
		l0.5,0.1h0.6l0.3-0.5l0.4-0.4l0.3-0.5l0.3-0.5l0.2-0.5l0.1-0.6l0.1-0.6V91v-0.6l0.2-0.6l0.4-0.4l0.5-0.3l0.6,0.1l0.4,0.4l0.3,0.5
		l0.3,0.5l0.4,0.5l0.4,0.4l0.5,0.3l0.5,0.3l0.5,0.2l0.6-0.1l0.6-0.1l0.5-0.1l0.6,0.1l0.6,0.1l0.6,0.2l0.5,0.2l0.5,0.2l0.5,0.3
		l0.5,0.3l0.5,0.2l0.6,0.2l0.5,0.3l0.5,0.2l0.6,0.2l0.5,0.1l0.5,0.3l0.5,0.2l0.4,0.5l0.3,0.5l0.1,0.6l0.3,0.5l0.1,0.5l0.3,0.6
		l0.4,0.4l0.5,0.3l0.2,0.5l0.3,0.5v0.6l-0.1,0.7v0.6l0.1,0.5l0.4,0.5l0.5,0.3l0.5,0.1l0.6,0.2l0.4,0.3l0.6,0.2l0.5,0.1l0.5,0.4
		l0.3,0.5l0.4,0.4l0.5,0.3l0.6-0.2l0.5-0.2l0.5-0.4l0.4-0.4l0.5-0.2l0.6-0.3l0.5-0.3l0.4-0.3l0.5-0.4l0.4-0.3l0.6,0.1l0.6,0.2
		l0.5,0.2l0.4,0.4l0.3,0.5l0.4,0.5l0.3,0.4l0.7-0.4l0.5-0.3l0.4-0.4l0.4-0.5l0.4-0.4l0.5-0.3h0.6l0.6-0.1l0.6,0.1h0.6l0.6,0.1h0.6
		l0.5-0.1l0.6-0.2l0.5-0.3l0.5-0.2l0.5-0.2l0.6-0.2l0.5-0.1l0.6-0.2l0.4,0.2l0.5,0.2l0.6,0.2l0.5,0.2l0.5,0.3v0.6l-0.2,0.6l-0.2,0.5
		l0.5,0.3h0.6l0.6-0.2l0.5-0.2l0.6-0.1l0.6-0.1l0.6,0.1h0.6l0.5-0.1l0.5-0.2l0.5-0.4l0.2-0.6l0.3-0.4l0.6-0.2l0.5-0.1l0.6,0.1
		l0.6,0.2h0.5l0.6,0.1l0.4-0.4l0.2-0.6l-0.2-0.5l-0.2-0.6l-0.1-0.5l-0.1-0.6l0.1-0.6l0.1-0.6l0.2-0.5l0.2-0.5l0.3-0.5l0.1-0.6
		l-0.1-0.6l-0.3-0.5l-0.1-0.5l-0.2-0.6V93v-0.6v-0.6l0.2-0.6l0.1-0.5l0.1-0.6l-0.1-0.6l-0.3-0.5l0.2-0.5v-0.6l-0.2-0.6l0.1-0.6
		l0.2-0.5l0.4-0.5l0.5-0.2l0.4-0.4l0.5-0.4l-0.2-0.6l-0.2-0.5l-0.5-0.3l-0.2-0.5l-0.1-0.6l0.5-0.1h0.6l0.5,0.3l0.6,0.2l0.4,0.4
		l0.3,0.4l0.6,0.2l0.2,0.5l0.1,0.5l0.2,0.6l0.4,0.4l0.4,0.4l0.6,0.3l0.3,0.5l0.2,0.5l0.3,0.5l0.5,0.4l0.5,0.3l0.5-0.5l0.4-0.4
		l0.4-0.4l0.4-0.5l0.4-0.5l0.4-0.4l0.3-0.5l0.3-0.5l0.3-0.5v-0.5l0.5-0.3l0.3-0.5l0.5-0.3l0.4-0.4l0.4-0.4l-0.2-0.7v-0.6l-0.1-0.6
		l-0.1-0.5l-0.1-0.6l-0.3-0.5l-0.5-0.4l-0.4-0.4l-0.5-0.3l-0.5-0.5l-0.3-0.4l-0.4-0.5l-0.4-0.4l-0.5-0.5l-0.4-0.4l-0.3-0.4l-0.3-0.5
		l-0.3-0.5l-0.3-0.5l0.2-0.6l0.2-0.5l0.2-0.6l0.2-0.5l0.2-0.5l0.2-0.6l0.2-0.5l0.1-0.6l0.1-0.5l0.2-0.6l0.1-0.6l0.1-0.5l0.2-0.6
		v-0.6v-0.6v-0.6l0.2-0.6l0.4-0.4l0.5-0.3l0.5-0.3l0.4-0.4l0.2-0.6l0.2-0.5l0.2-0.6l0.3-0.4l0.3-0.5l0.2-0.8l0.1-0.5l0.2-0.6
		l0.5-0.3l0.5-0.2l0.5-0.2l0.6-0.1l0.5-0.2l0.5-0.4l0.5-0.3l0.4-0.5l0.3-0.5l0.1-0.5v-0.6l0.1-0.6l0.1-0.6l0.1-0.6l0.1-0.5l0.3-0.5
		l0.5-0.3l0.5-0.3l0.6-0.1l0.5-0.1l0.6-0.1l0.5-0.4l0.4-0.4l0.5-0.4l0.3-0.5l0.5-0.4l0.4-0.4l0.5-0.3l0.6-0.1l0.6,0.1l0.5,0.2h0.6
		L259,47l0.3-0.5l0.1-0.5l-0.1-0.6l-0.2-0.5l-0.2-0.6l-0.3-0.5l-0.2-0.5l-0.1-0.6l0.1-0.5l0.3-0.5l0.5-0.2l0.6,0.1l0.6,0.1l0.5-0.1
		l0.5-0.3l0.4-0.4l0.3-0.5l0.2-0.6l0.2-0.5l0.2-0.5l0.2-0.5l0.2-0.6l0.1-0.6l0.2-0.5l0.2-0.5l0.5-0.4l0.5-0.3l0.5-0.2l0.5-0.3
		l0.5-0.2l0.6-0.1l0.6-0.1l0.5,0.1l0.5,0.3l0.5,0.3l0.5,0.2l0.5-0.1l0.4-0.5l0.3-0.5l0.2-0.5l0.1-0.5l0.3-0.6l0.3-0.4l0.4-0.5
		l0.5-0.4l0.4-0.5l0.4-0.4l0.5-0.4l0.4-0.5l0.4-0.4l0.4-0.5l0.5-0.4v-0.8l0.2-0.3v-0.6l0.2-0.6l0.1-0.6v-0.5l0.1-0.6l0.1-0.6
		l0.2-0.5l0.2-0.6l0.1-0.5l0.2-0.6l0.2-0.5l0.3-0.5l0.5-0.2h0.6l0.6,0.1h0.6l0.5-0.1l0.6-0.2l0.5-0.2l0.6-0.1l0.5-0.2l0.6-0.1
		l0.5-0.3l0.5-0.3l0.4-0.3l0.5-0.4l0.5-0.3l0.4-0.4l0.3-0.5l0.2-0.6l0.2-0.5l0.3-0.5l0.3-0.5l0.3-0.4l0.5-0.4l0.4-0.5l0.4-0.4v-0.6
		l-0.2-0.5l-0.4-0.5l-0.3-0.5l-0.3-0.5l-0.3-0.5l-0.4-0.4l-0.3-0.5l-0.1-0.6l0.5-0.2l0.5,0.2l0.5,0.3l0.5,0.3l0.5,0.3l0.5,0.3
		l0.5,0.3l0.4,0.4l0.5,0.3l0.6,0.4l0.6,0.1h0.6l0.5-0.3l0.5-0.3l0.5-0.4l0.4-0.3l0.5-0.4l0.5-0.2l0.6-0.2l0.5-0.2l0.6-0.1l0.5-0.2
		l0.5-0.1l0.6-0.3l0.5-0.3l0.5-0.1l0.5-0.2l0.4-0.5l0.2-0.6V6l-0.2-0.5L300.3,5L300,4.4l-0.2-0.5l-0.2-0.5L299.1,3l-0.3-0.5L298.4,2
		L298,1.6l-0.5-0.4l-0.4-0.4l-0.4-0.4l-0.2-0.6l-0.2-0.5l-0.1-0.6l0.2-0.5l0.3-0.5l0.5-0.4l0.3-0.5l0.4-0.4l0.6-0.1l0.5,0.2l0.4,0.4
		l0.6,0.2l0.5,0.3l0.5,0.1h0.6h0.6l0.3,0.5l0.2,0.5L303-1l0.3,0.5l0.5,0.4l0.3,0.5l0.3,0.5l0.3,0.5l0.4,0.4l0.5,0.3l0.5,0.3l0.5,0.3
		l0.4,0.4l0.5,0.5l0.4,0.4l0.3,0.5l0.4,0.4l0.4,0.5l0.4-0.3l0.5-0.3l0.5-0.4l0.2-0.5l-0.4-0.5L310,2.9l0.4-0.3l0.6-0.2l0.5-0.1
		l0.5-0.2l0.6-0.3l0.6-0.1l0.5,0.3l0.5,0.1l0.5-0.2l0.3-0.5l0.5,0.1l0.5,0.3l0.4,0.4l0.5,0.5l0.3,0.4l0.2,0.6l0.2,0.5l-0.1,0.6
		l0.1,0.6l0.4,0.5l0.4,0.4l0.3,0.5l0.3,0.5l0.2,0.5l0.2,0.6l0.1,0.5l0.3,0.5l0.6-0.2l0.4-0.4l0.4-0.4l0.4-0.4l0.5-0.2l0.5,0.4
		l0.5,0.3l0.4-0.3l0.4-0.4l0.4-0.5l0.4-0.4l0.3-0.5l-0.1-0.6V5.2l0.1-0.6l0.1-0.5l0.3-0.5l0.3-0.5l0.3-0.5l0.3-0.5l0.3-0.5l0.3-0.5
		l0.3-0.5l0.4-0.4l0.4-0.5l0.4-0.4l0.3-0.5l0.4-0.5l0.3-0.4l0.4-0.5l0.3-0.5l0.3-0.5l0.2-0.5l0.3-0.5l0.5-0.4l0.4-0.4l0.5-0.3
		l0.5-0.3l0.5-0.3l0.5-0.2l0.6-0.1l0.6-0.1l0.5-0.2l0.5-0.4l0.4-0.4l0.4-0.4l0.5-0.4l0.5-0.3l0.4-0.4l0.6-0.1l0.5,0.1l0.6,0.1
		l0.6,0.1l0.6-0.1l0.5-0.2l0.5-0.3l0.5-0.4l0.3-0.4l0.4-0.4l0.6,0.2l0.4,0.4l0.2,0.5l0.2,0.5l0.1,0.7L344.5-8l-0.3,0.4l-0.4,0.5
		l-0.4,0.4l-0.2,0.5l-0.4,0.5l-0.3,0.5l-0.3,0.5l-0.3,0.5l-0.4,0.4l-0.2,0.5l-0.4,0.5l-0.2,0.5l-0.2,0.5v0.6l0.2,0.6l0.4,0.4
		l0.5,0.3l0.5,0.2l0.4,0.5L342.9,1.4L342.9,1.4"/>
</g>
</svg>
