<?xml version="1.0" encoding="utf-8"?>
<!-- Generator: Adobe Illustrator 27.0.0, SVG Export Plug-In . SVG Version: 6.00 Build 0)  -->
<svg version="1.1" id="Layer_1" xmlns="http://www.w3.org/2000/svg" xmlns:xlink="http://www.w3.org/1999/xlink" x="0px" y="0px"
	 viewBox="0 0 500 500" style="enable-background:new 0 0 500 500;" xml:space="preserve">
<style type="text/css">
	.st0{fill:#E74646;stroke:#FFFFFF;stroke-width:4.6041;stroke-linecap:square;stroke-linejoin:bevel;stroke-miterlimit:3.998;}
</style>
<g transform="matrix(0.999751,0,0,0.999751,18.6633,21.7738)">
	<path vector-effect="none" class="st0" d="M281.1,317.5L281,317l-0.5-0.7l-0.7-0.4H279l-0.8-0.3h-0.7l-0.7,0.4l-0.7,0.5l-0.7,0.3
		H275l-0.8-0.3l-0.7-0.4l-0.5,0.5l-0.5,0.5l-0.8,0.3l-0.7,0.1l-0.8,0.3l-0.3,0.7l0.3,0.8l-0.1,0.8l-0.3,0.7l-0.5,0.5l-0.8,0.3
		l-0.8,0.1l-0.7,0.4l-0.8,0.1l-0.7,0.1h-0.9l-0.8,0.1l-0.8,0.1l-0.7,0.1l-0.8,0.1l-0.8,0.3l-0.8,0.1l-0.8,0.1l-0.7,0.3l-0.9-0.1
		l-0.7-0.3l-0.5-0.5l-0.8-0.1l-0.4,0.7l-0.4,0.7l-0.8,0.3l-0.7,0.1l-0.8,0.4l-0.4,0.5v0.8v0.8l-0.5,0.8l0.3,0.8l0.1,0.8l0.3,0.8v0.8
		l0.1,0.8l-0.3,0.7l-0.5,0.7l-0.4,0.7l-0.4,0.7l-0.4,0.7l-0.4,0.7l-0.1,0.8l-0.1,0.7l-0.3,0.8l-0.1,0.7l-0.1,0.8l-0.4,0.7l-0.7,0.3
		l-0.8-0.1l-0.5,0.4v0.8l0.3,0.7l0.4,0.7v0.8l-0.3,0.9l-0.7,0.1l-0.7,0.3l-0.7,0.7l-0.3,0.7l-0.3,0.7v0.8l-0.1,0.8l0.7,0.4h0.8
		l0.8,0.1l0.5,0.7l0.3,0.8l-0.3,0.7l-0.4,0.7l-0.7,0.5l-0.7,0.3l-0.8,0.1l-0.7,0.4l-0.5,0.5l-0.7,0.3l-0.8,0.1l-0.7-0.5l-0.7-0.4
		h-0.8l-0.8,0.3l-0.7,0.3l-0.8-0.3l-0.7-0.4l-0.7-0.3l-0.8-0.1h-0.8h-0.8l-0.7-0.3l-0.8-0.3l-0.8-0.1l-0.5,0.3l-0.1,0.7l-0.3,0.8
		l-0.3,0.7l-0.5,0.5l-0.8,0.1h-0.8l-0.7,0.5l-0.4,0.5l-0.1,0.8l0.1,0.8v0.8v0.8L228,359l-0.4,0.7l-0.5,0.5l-0.3,0.7l-0.1,0.8v0.8
		l0.1,0.8l0.1,0.8l0.1,0.8l0.1,0.8l0.3,0.7l0.4,0.8l0.1,0.7l-0.1,0.8l-0.1,0.8l-0.5,0.7l-0.4,0.7l-0.4,0.7l-0.1,0.7l-0.1,0.8
		l0.1,0.9l-0.1,0.8l-0.7,0.3l-0.7,0.4l-0.8,0.1h-0.8l-0.8,0.1l-0.8,0.1H221h-0.8l-0.8-0.1l-0.8,0.3l-0.7,0.5l-0.4,0.5L217,377h-0.8
		l-0.8-0.1l-0.7,0.3l-0.7,0.4l-0.5,0.5l-0.7,0.7l-0.7,0.1l-0.8-0.1l-0.5-0.3v-0.5l0.1-0.8l0.3-0.7v-0.8v-0.9l-0.3-0.7l-0.5-0.7
		l-0.7-0.3l-0.7-0.4l-0.7-0.5l-0.7-0.4v-0.8l0.3-0.7l0.7-0.4l0.8-0.3l0.5-0.5l0.4-0.7v-0.8l-0.1-0.8l-0.4-0.7l-0.8-0.3l-0.7-0.1
		l-0.8-0.1l-0.8-0.1l-0.7-0.4l-0.8-0.1l-0.5-0.4l0.1-0.8l0.4-0.7l0.3-0.7l0.3-0.7v-0.8l-0.5-0.7l-0.5-0.5l-0.1-0.8v-0.8l-0.8-0.4
		l-0.8-0.1l-0.8-0.1h-0.8l-0.7,0.1l-0.8,0.1l-0.8,0.3l-0.7,0.1l-0.5-0.5l-0.5-0.5l-0.8-0.3l-0.7-0.3h-0.8l-0.8,0.1h-0.9l-0.8,0.1
		l-0.7,0.3l-0.3,0.7l0.3,0.7l0.1,0.7l-0.8,0.3l-0.7,0.1h-0.8h-0.9h-0.8l-0.8,0.1l-0.8,0.1l-0.8-0.1l-0.7,0.4l-0.4,0.7l-0.1,0.8
		l-0.1,0.7v0.8l0.1,0.9l-0.1,0.8v0.7l0.1,0.8l0.3,0.7l0.4,0.8l0.1,0.7v0.8l-0.3,0.8h-0.8l-0.7-0.1l-0.8-0.3l-0.5-0.5l-0.7-0.4
		l-0.8-0.1h-0.8l-0.8,0.1l-0.8,0.1l-0.7,0.4l-0.1,0.7l-0.3,0.8l-0.4,0.7l-0.7,0.5l-0.7,0.3l-0.7,0.4l-0.7,0.3l-0.7,0.4l-0.7,0.4
		l-0.4,0.7l-0.1,0.4l-0.7,0.1l-0.8,0.3l-0.8,0.1l-0.7,0.1h-0.9l-0.7-0.1l-0.8-0.1l-0.7-0.3h-0.8l-0.8-0.1l-0.8-0.1l-0.7-0.4
		l-0.7-0.4l-0.7-0.5l-0.5-0.5l-0.5-0.5l-0.5-0.7l-0.7-0.5l-0.3-0.7l-0.3-0.8l-0.1-0.8l-0.1-0.7l-0.7-0.4l-0.4-1l-1,0.3h-0.8h-0.8
		l-0.8,0.3l-0.7,0.4l-0.5,0.5l-0.3,0.7l-0.1,0.8v0.8l-0.5,0.5l-0.7,0.4l-0.5,0.5l-0.1,0.8l0.3,0.7l0.1,0.8l-0.3,0.7l-0.4,0.7v0.8
		l0.3,0.8l-0.1,0.7l-0.8,0.3l-0.8,0.1l-0.8-0.3l-0.7-0.1l-0.8-0.3l-0.7-0.4l-0.7-0.4l-0.5-0.5l-0.4-0.7l-0.4-0.7l-0.4-0.7l-0.5-0.5
		l-0.5-0.5v-0.8l0.1-0.8v-0.8l-0.1-0.7V369l-0.3-0.7l-0.5-0.5l-0.4-0.7l-0.3-0.7l-0.4-0.7l-0.5-0.7l-0.4-0.7l-0.4-0.5l-0.8-0.1
		l-0.8-0.1l-0.8-0.1l-0.7-0.4l-0.5-0.5l-0.3-0.7l0.1-0.8l0.3-0.8l0.3-0.7l0.3-0.7l0.4-0.7l-0.3-0.8l-0.5-0.4l-0.5-0.5l-0.4-0.7
		l-0.4-0.8l-0.3-0.7l-0.3-0.7l-0.5-0.7l-0.5-0.5l-0.7-0.5l-0.7-0.4l-0.7-0.5l-0.7-0.4l-0.3-0.7l-0.3-0.8l-0.1-0.8l-0.1-0.8l-0.1-0.7
		l-0.3-0.8l-0.5-0.5l-0.5-0.7l-0.7-0.4l-0.7-0.4l-0.7-0.3l-0.8-0.1h-0.8l-0.7-0.4l-0.7-0.4h-0.7l-0.8-0.3l-0.5-0.4l-0.8-0.3
		l-0.7-0.3l-0.8-0.3l-0.7-0.1l-0.8-0.1l-0.7-0.3l-0.8-0.1l-0.3,0.7l-0.1,0.7l-0.7,0.5l-0.8,0.1l-0.8-0.1h-0.8l-0.5-0.5l-0.7-0.4
		l-0.8-0.1h-0.8l-0.8,0.3l-0.7,0.1h-0.8l-0.7-0.1H109l-0.8,0.1l-0.7,0.4l-0.7,0.3l-0.7,0.4l-0.7,0.3l-0.7,0.4l-0.8,0.3l-0.7,0.3
		l-0.8,0.1l-0.7,0.3l-0.8,0.1l-0.8,0.3l-0.7,0.3l-0.8,0.1l-0.8,0.1l-0.8,0.1H97l-0.5,0.7l-0.3,0.7l-0.5,0.7l-0.4,0.7l-0.4,0.7
		l-0.4,0.7v0.8v0.8l-0.1,0.8v0.8v0.8l0.1,0.8v0.8l0.1,0.8v0.8l-0.7,0.5l-0.7,0.3l-0.7,0.4l-0.3,0.7l-0.1,0.8l0.1,0.8l0.7,0.5
		l0.3,0.7l-0.1,0.8l-0.1,0.8l-0.1,0.7v0.8l0.3,1.2l-0.4,0.7l-0.7,0.5l-0.5,0.4l-0.8,0.3l-0.7,0.3l-0.8,0.3l-0.7,0.1l-0.7,0.4
		l-0.5,0.7l-0.5,0.5l-0.4,0.7l-0.4,0.8l-0.5,0.5l-0.5,0.5l-0.4,0.7l-0.5,0.5l-0.8-0.3l-0.5-0.5l-0.7-0.4l-0.5,0.1l-0.7-0.1l-0.7,0.4
		l-0.5,0.5l-0.7,0.5l-0.7,0.3H78l-0.8-0.4l-0.5-0.5l-0.7-0.5l-0.7-0.1h-0.8l-0.8,0.1l-0.8-0.1l-0.8-0.1l-0.7-0.3l-0.5-0.5l-0.4-0.7
		l-0.1-0.8l-0.1-0.8l-0.3-0.7l-0.5-0.5l-0.4,0.7l-0.7,0.1l-0.5,0.5l-0.4,0.7v0.9l-0.5,0.4l-0.8,0.3l-0.7,0.1l-0.8,0.1l-0.7,0.3
		l-0.8,0.3l-0.7,0.3l-0.8,0.1l-0.8,0.1l-0.7,0.1l-0.8,0.3l-0.7,0.3l-0.8,0.3l-0.7,0.3h-0.8l-0.8-0.1l-0.9-1l-1.2-0.1h-0.8l-0.8-0.3
		l-0.7-0.1l-0.8-0.3l-0.7-0.1l-0.8-0.1l-0.7-0.3l-0.8-0.1l-0.8-0.1l-0.8,0.1l-0.7,0.3l-0.8,0.1l-0.8-0.1h-0.8H43l-0.7,0.4l-0.8,0.3
		l-0.8,0.1l-0.8-0.1l-0.8-0.1l-0.7-0.3l-0.7-0.4l-0.5-0.5l-0.8-0.3l-0.7-0.4l-0.7-0.4l-0.7-0.3l-0.7-0.3l-0.4-0.8l-0.3-0.8l-0.4-0.7
		l-0.4-0.7v-0.8l-0.1-0.8l-0.1-0.8l-0.3-0.7l-0.3-0.7v-0.9l0.1-0.7l0.1-0.8v-0.8l-0.1-0.8l-0.4-0.7l-0.5-0.5l-0.5-0.7l-0.7-0.4
		l-0.7-0.5l-0.5-0.5l-0.7-0.5l-0.5-0.5l-0.7-0.4l-0.7-0.4l-0.7-0.4l-0.7-0.4l-0.7-0.4l-0.7-0.3l-0.8-0.3l-0.8-0.1l-0.7,0.1l-0.7,0.4
		l-0.5,0.7l-0.5,0.5l-1-0.4l-0.5-0.7l-0.1-0.7l0.1-0.8l0.4-0.7l0.4-0.7l0.1-0.8l-0.4-0.7l-0.7-0.3l-0.7,0.1l-0.8,0.3h-0.8l-0.4-0.7
		l0.3-0.8l0.5-0.5l0.5-0.5L17,346l-0.4-0.7L16,345l-0.7-0.3h-0.8l-0.8,0.1L13,345l-0.8-0.1l-0.4-0.7l-0.3-0.7l-0.1-0.8l-0.7-0.5
		l-0.7-0.5l-0.7-0.1l-0.8,0.1L8,342.1l-0.7,0.3l-0.7,0.5l-0.7,0.4l-0.7,0.4l-0.7,0.1L4,344H3.2l-0.7-0.3l-0.8-0.3l-0.7-0.1H0.2
		l-0.7,0.1l-0.8,0.3l-0.7,0.4l-0.5,0.5l-0.7,0.4l-0.8-0.4l-0.3-0.7l-0.4-0.7l-0.7-0.4l-0.7-0.1l-0.8-0.1l-0.8,0.3l-0.7,0.3l-0.7,0.5
		H-9l-0.4-0.7l-0.3-0.8l-0.3-0.7v-0.8l0.1-0.8l0.3-0.7l0.4-0.7l0.4-0.7l0.4-0.7l0.3-0.8l0.1-0.7l0.1-0.8v-0.8l-0.1-0.9v-0.8v-0.8
		v-0.8l0.1-0.8l0.4-0.7l0.5-0.5l0.7-0.5l0.7-0.3l0.5-0.5l0.7-0.4l0.7-0.5l0.5-0.5l0.5-0.5l0.7-0.5l0.5-0.5l0.7-0.5l0.5-0.7l0.4-0.7
		l0.4-0.7l0.3-0.7l0.4-0.7l0.4-0.7l0.3-0.7l0.4-0.7l0.3-0.7l0.3-0.8l0.4-0.7l0.1-0.8l0.4-0.5l0.3-0.8l0.4-0.7l0.4-0.7l0.4-0.7
		l0.5-0.5l0.5-0.5l0.7-0.3l0.7-0.4l0.7-0.4l0.7-0.4l0.7-0.4l0.8-0.3l0.5-0.5l0.7-0.4l0.4-0.4l0.7-0.3H13l0.7,0.3l0.8,0.1l0.8-0.1
		l0.7-0.4l0.7-0.4l0.7-0.4l0.7-0.4l0.7-0.4l0.5-0.5l0.7-0.5l0.5-0.7l0.5-0.5l0.5-0.7l0.7-0.3l0.3-0.4l0.7-0.4l0.5-0.5l0.3-0.7
		l0.1-0.8l0.3-0.7l0.1-0.8l0.4-0.7l0.5-0.5l0.4-0.7l0.1-0.8l0.1-0.7l0.3-0.8l0.4-0.7l0.3-0.7l0.3-0.8l0.1-0.7L27,292l-0.4-0.7
		l-0.4-0.7l-0.8-0.3l-0.7-0.1H24l-0.7-0.4l-0.1-0.8v-0.8v-0.5H24l0.8,0.1l0.9,0.1h0.8l0.7-0.3l0.8-0.3l0.8-0.4l0.7-0.4l0.8-0.3
		l0.8-0.1l0.8-0.3l0.8-0.3l0.8-0.3l0.7-0.4l0.8-0.4l0.7-0.4l0.7-0.4l0.8-0.3l0.8-0.1h0.8l0.9-0.1H40l0.8-0.1h0.8h0.8l0.4-0.7
		l0.4-0.5l0.4-0.7l0.4-0.7l0.5-0.7l0.5-0.4l0.5-0.7l0.3-0.7L46,278l0.7-0.4l0.5-0.5l0.5-0.7l0.3-0.7l0.4-0.7l0.7-0.5l0.5-0.5
		l0.7-0.4l0.7-0.3l0.8-0.1l0.8-0.1l0.8-0.1l0.8-0.1l0.7-0.4v-0.7l0.3-0.8v-0.8v-0.8l0.1-0.7l0.4-0.7l0.4-0.7l0.4-0.7l0.5-0.7
		l0.4-0.7l0.5-0.5l0.7-0.5l0.7-0.4l0.7-0.4l0.7-0.3l0.7-0.4l2-1.2l2.3-0.8l1.3-0.8l2-1.2l0.8-4l0.9-3.9l-0.8,0.5l-0.5,0.5l-0.8,0.3
		l-0.8,0.1l-0.7,0.3l-0.7,0.5l-0.4,0.5l-0.4,0.7l-0.5,0.7l-0.5,0.7l-0.5,0.5l-0.8,0.3l-0.7,0.1l-0.8,0.3l-0.7,0.4l-1,0.4l-0.7,0.4
		l-0.7,0.4l-0.7,0.3h-0.8l-0.8,0.1l-0.7,0.4l-0.5,0.7l-0.5,0.4l-0.7,0.1l-0.7-0.5h-0.8l-0.8,0.1l-0.7,0.3l-0.5,0.5l-0.5,0.5
		l-0.7,0.4l-0.5,0.5l-0.7,0.4l-0.7,0.4l-0.8,0.3l-0.7,0.4l-0.5,0.4l-0.7,0.4l-0.5,0.7l-0.4,0.5l-0.4,0.7l-0.9,0.5l-0.5,0.5l-0.7,0.3
		l-0.7,0.4H40h-0.8l-0.8,0.1l-0.8,0.1l-0.7,0.4l-0.7,0.3l-0.5,0.7l-0.8,0.1h-0.7l-0.7-0.4l-1.3-0.4l-0.9,0.1l-1,0.5l-0.8,0.8v0.4
		l-0.1,0.7v0.5l-0.1,0.5v0.7l-0.4,0.5l-0.5,0.4l-0.7,0.5l-0.5,0.5l-0.4,0.7l-0.4,0.7l-0.4,0.7L26,278l-0.5,0.5l-0.7,0.4l-0.5,0.5
		l-0.7,0.4H23l-0.7-0.5l-0.7-0.1l-0.3-0.8l-0.3-0.8l-0.1-0.8V276v-0.8v-0.8v-0.8l0.4-0.7l0.4-0.7l0.4-0.7l0.1-0.8v-0.8l-0.1-0.8
		v-0.8l-0.1-0.8l-0.1-0.8l0.1-0.8l0.3-0.7l0.5-0.5l0.7-0.5l0.7-0.3l0.7-0.5l0.5-0.5l0.5-0.5l0.7-0.5l0.9-0.4l0.7-0.4l0.4-0.7
		l0.3-0.8l0.3-0.7v-0.8l0.1-0.8l0.1-0.8l0.1-0.7l0.3-0.8l0.1-0.7l0.1-0.8l0.1-0.8l0.3-0.7v-0.8v-0.8l-0.1-0.9l-0.1-0.8l-0.3-0.7
		v-0.7l-0.3-0.8v-0.8v-0.9v-0.8l-0.3-0.7l-0.1-0.8l-0.4-0.7l-0.4-0.7l-0.7-0.5l-0.5-0.5l-0.7-0.5l-0.7-0.5l0.1-0.7l-0.1-0.8
		l-0.3-0.8l-0.5-0.5l-0.8-0.1l-0.8,0.3l-0.7,0.3l-0.7,0.3l-0.7,0.4L21,238l0.3-0.8l0.3-0.7l-0.1-0.8l-0.4-0.7l-0.4-0.7l-0.3-0.7
		v-0.8l0.3-0.7l-0.4-0.9l-0.8-0.4l-0.7-0.1l-0.8-0.1l-0.7-0.4l-0.3-0.8l0.1-0.7l0.1-0.8v-0.8l0.1-0.8l-0.1-0.8l-0.5-0.7v-0.9v-0.8
		l0.1-0.8l0.1-0.8l0.5-0.5l0.3-0.5l0.5-0.7l0.4-0.7v-0.8l0.1-0.8l0.1-0.8l0.1-0.8l0.1-0.7l0.3-0.8l0.1-0.7l0.3-0.7l0.3-0.8l0.5-0.5
		l0.5-0.5l0.7-0.5l0.5-0.7l0.3-0.7l0.4-0.7l0.5-0.5l0.7-0.4l0.7-0.5l2-4l0.3-0.5l0.7-0.5l0.7-0.4l0.5-0.5l0.7-0.4l0.8-0.1l0.7-0.3
		l0.8-0.3l0.7-0.1l0.8-0.3l0.7-0.3l0.7-0.4l0.7-0.4l0.7-0.3l0.7-0.4l0.7-0.3l0.8-0.3l0.7-0.3l0.8-0.3l0.5-0.5l0.3-0.7V196v-0.8v-0.9
		l0.4-0.5l0.7-0.5L42,193l0.5-0.5L43,192l0.5-0.7l0.5-0.5l0.4-0.5l0.5-0.7l0.4-1l0.4-0.7l0.3-0.7l0.3-0.8l0.1-0.7l-0.3-0.8l-0.4-0.7
		l-0.4-0.7V183l0.3-0.8l0.5-0.5l0.5-0.5l0.7-0.4l0.5-0.5l0.7-0.5l0.5-0.7l0.4-0.7l0.3-0.7l0.3-0.7l0.3-0.8l0.4-0.8l0.3-0.7l0.3-0.7
		l-0.1-0.8l-0.1-0.8l0.4-0.7l0.1-0.7l0.1-0.8L52,170l0.3-0.7l0.4-0.7L53,168l0.1-0.8v-0.8l0.4-0.7l0.7-0.4l0.8-0.3l0.5-0.4l0.7-0.5
		l0.4-0.7l0.4-0.7l0.1-0.8l0.1-0.7l0.1-0.8l-0.1-0.8v-0.9l0.1-0.7l0.1-0.8l0.1-0.8l0.3-0.7l0.4-0.7l0.3-0.7l0.7-0.3l0.7-0.4l0.7-0.4
		l0.5-0.5l0.7-0.4l0.7-0.4l0.5-0.5l0.7-0.4l0.8-0.1H65l0.8-0.1l0.8-0.1h0.8h0.8l0.8,0.1l0.7,0.3l0.8,0.3l0.7,0.3h0.8l0.7-0.1
		l0.8-0.1l0.5-0.8l0.7-0.1l0.8-0.3l0.4-0.5l0.4-0.7l-0.5-0.9l-0.5-0.5l-0.7-0.4l-0.8-0.1h-0.8l-0.5-0.5v-0.8l-0.1-0.8v-0.8l-0.4-0.7
		l-0.7-0.5l0.4-0.8l0.5-0.5l0.8-0.1l0.8-0.1l0.7-0.3l0.7-0.5l0.4-0.7l0.4-0.7l0.1-0.7l0.3-0.8l0.1-0.7v-0.9l0.1-0.7l0.5-0.4l0.8-0.1
		l0.8-0.1l0.7,0.4l0.7,0.4l0.7,0.4l0.4,0.7l0.1,0.8l0.5,1l0.3,0.7l0.7,0.4l0.7,0.4l0.4,0.7l0.1,0.7l0.4,0.7l0.7,0.4l0.5-0.5l0.3-0.7
		l0.3-0.8l0.3-0.7l0.5-0.7l0.7-0.5l0.5-0.5l0.5-0.5l0.7-0.5l0.1-0.7l0.5-0.7l0.5-0.5l0.4-0.7l0.5-0.7l0.7-0.4l0.7-0.5l0.5-0.5
		l0.5-0.7l0.4-0.5l0.5-0.7l0.5-0.7l0.5-0.5l0.5-0.5l0.3-0.7l0.4-0.8l0.3-0.7l0.4-0.7l0.4-0.7l0.4-0.7l0.4-0.7l0.4-0.7l0.4-0.7
		l0.4-0.7l0.5-0.7l0.7-0.4l0.7-0.4l0.7-0.4l0.5-0.5l0.3-0.7l0.5-0.5l0.1-0.8l0.1-0.8v-0.8l0.1-0.7l0.3-0.8l0.4-0.7l0.5-0.5l0.7-0.5
		l0.7-0.4l0.7-0.3l0.8-0.1l0.7,0.1h0.8h0.8h0.8l0.8-0.4l0.5-0.5l0.8,0.1l0.8,0.1l0.7,0.1l0.8,0.1l0.5,0.3l1.2-0.3h0.8l0.8-0.1h0.8
		h0.8l0.7-0.3l0.8-0.3l0.5-0.4l1-0.1l0.7-0.3l0.8-0.3h0.8h0.8l0.8,0.1l0.7,0.3l0.8,0.1l0.8,0.1l0.7-0.3l0.8-0.3l0.7-0.1l0.8,0.1
		l0.8,0.3l0.7,0.1h0.9l0.7-0.1l0.8-0.3l0.8-0.1l0.7-0.3l0.7-0.4l0.7-0.3l0.5-0.7l0.5-0.4l0.8-0.1l0.8-0.1l0.8,0.1l0.7,0.4l0.7,0.3
		l0.8,0.1h0.8l0.7-0.4l0.7-0.4l0.5-0.7l0.5-0.5l0.5-0.5l0.3-0.8l0.4-0.7l0.3-0.7l0.4-0.7l0.3-0.7l0.3-0.8l0.1-0.7l0.4-0.8l0.1-0.7
		v-0.8l0.1-0.8l0.1-0.8l0.3-0.7l0.1-0.8l0.5-0.7l0.3-0.7l0.1-0.4L151,95l0.3-0.7l0.4-0.7l0.4-0.7l0.4-0.7l0.7-0.5l0.7-0.3l0.8,0.1
		l0.8-0.3l0.8-0.1l0.8-0.1h0.8l0.8-0.1l0.7-0.3l0.7-0.3l0.8-0.1h0.8l0.5-0.7l0.4-0.7l0.4-0.7l0.3-0.7l0.4-0.7l0.7-0.5l0.4-0.5
		l0.1-0.7l-0.1-0.8l-0.1-0.8l0.4-0.7l0.7-0.4l0.3-1.2l0.4,1.2l0.8,0.7h0.8L168,83l0.4-0.7l0.5-0.7l0.9-0.4h0.8l0.8,0.1v-0.5l0.4-0.3
		l0.4,0.5h0.5l0.4,0.7l-0.5,0.1l-0.4,0.3l0.1,0.7v0.5l-0.4,0.7l-0.3,0.7l-0.3,0.9v1.3l0.4,0.4l1.2,0.3l0.7,0.4l0.7-0.3l1-0.5
		l0.4-0.1h0.7l0.5-0.4l0.8-0.3l0.5-0.4l0.4-0.3l0.5-0.1l0.1,0.7l-0.3,0.4l-0.5,0.1l-0.3,0.4l-0.7-0.3l-0.5,0.4l-0.8,0.4l-0.7,0.5
		l-0.1,0.7l-0.9-0.1l-0.5,0.9l0.3,0.7h0.5l0.4-0.4l0.5-0.1h1l0.3-0.5v-0.7h0.7l0.5,0.4l0.5,0.8l0.7,0.7l0.7,0.5l0.7,0.7l1.3,0.1
		l0.5,1.2l-0.4,0.9l-0.9,1.3l-0.8,0.5l0.9,0.3l0.5-0.1l0.7-0.5l0.5,0.1l0.9,0.9l-0.1,0.9v1l-0.1,0.4v3.6l-2.1,1.6l0.3,4.3l-0.7,0.9
		l-2.3,1.4l0.4,0.5l1.6,0.4l2.7-2.6l-0.3-3.9l1-1l1.7-0.3v-0.7l-1-1l0.4-0.9l2-1.3l2.5,0.4l0.7-0.7v-3.6l0.7-0.9l-0.7-3l0.3-1.2h0.9
		l1,0.1l1.4,0.1l0.8,0.4l0.5,0.4l0.5,0.7l0.4,0.4l0.4-0.4v-0.7l-0.3-1l-0.1-1.4l0.3-0.5l0.4,0.3l-0.1,0.7v0.7l0.5,1v0.8l-0.1,0.8
		l-0.5,0.8l0.3,0.5l0.4-0.3l0.4,0.5l0.4-0.1v-0.5l0.1-1l0.3-0.4l0.5-0.9l0.7,0.4h0.8l0.8-0.4l1-0.4l0.5-1l0.3-0.8l0.8-0.5l0.4,1
		l0.8,0.1v0.7l0.7-0.3l0.9-1l1.2-0.5l0.4-0.7l0.7-1l0.1-0.7l1,0.3l-0.1,0.7l-0.1,0.7l-0.5,0.7l0.4,0.8l-0.3,0.4l-0.4,0.3v0.7
		l-0.3,1.3l-0.5,0.8l-0.1,0.4l0.7,0.8l0.7-0.1l0.4,0.7l0.8-0.1l0.9,0.3h0.5l0.3-0.7h0.8l0.3,0.7l0.7,0.9l0.3,0.5l0.5-0.1l1.2-1.6
		l0.7,0.7l0.7-0.7v-0.8l-0.1-0.7l0.3-0.5l0.5-0.4l0.3-1l0.5-0.4l1.2-0.1l0.7-0.5l1.3,0.7l0.7-0.3l0.3-0.7l0.5-0.5l0.8-0.3l0.3-1.4
		v-0.7h0.5l0.4,0.4l0.3-0.5h0.5l1-0.5l0.4-0.4l-0.1-1.4l0.1-0.4l0.5-1.2l0.5-0.7l0.5-1l0.5,0.3l1.7,0.9l0.5,1.6l-0.1,0.7l0.7,0.4
		l0.3,0.3l0.7,0.4l0.8,0.3l0.7,0.4l0.3,0.3l-0.3,0.7h-0.7H233h-0.7l-0.7,0.4l-0.1,0.9l-0.9,3l-0.1,0.5l0.3,0.8l0.8,0.9L232,94
		l0.9,0.3l0.5-0.1v-0.8l-0.5-0.7l0.5-0.4l0.7-0.7l0.7-1.6l1.7-1.8l0.1-0.5l0.5-0.4l1.4,0.3l0.3-1.3l0.4,0.3l0.3,0.5l0.3,0.7v0.8v0.4
		l-0.3,1l-0.1,0.5l0.1,1.2v0.8l0.8,2.1l0.1,0.5l0.5,0.9l0.3,0.4l0.5,0.1l0.7,0.4l0.1,0.8l0.1,0.7v1l0.8,0.7l-0.1,0.7l-0.9,1
		l-0.4,0.5l-0.3,0.5l0.1,0.8l-0.3,0.8l-0.5,0.8l-0.4,0.4l-0.8-0.3v-0.7l-0.5-0.5l-0.9,0.3l-0.3,0.5v1.2l-0.4,0.8l0.4,0.1l0.8,0.9
		l0.4,0.7l1.7,0.1h0.9l0.9,0.3l0.8,0.3l3.4,2h1l0.9,3.6l-3.6,0.3l0.7,1.3v2.3l-2.5,2v2.6l-1.3,1.7l1.6,1.3v0.7l-1.3,1.6l-1.3,0.4
		l-1,0.9l1.3,0.4l1,0.9l0.7,3l-0.7,2h-0.4l-1.4-0.3l-0.8,0.9l-1.4,0.8l-0.8,0.9l-0.8,0.5l-0.4,0.5l-0.3,0.7l0.1,0.8l0.4,0.9l0.1,0.5
		v1l-0.1,0.5l-0.4,0.3l0.5,0.8l0.4,0.1l0.5,0.1l0.7-0.1l0.7-0.3l1.2-0.9l0.5-0.3h0.5l1,0.7l0.3,1.8l-0.1,0.7l-0.1,0.9l-0.5,0.8
		l-1.2,0.3l-0.3,0.8l-0.5,1l0.3,0.4l1.2-0.7l0.9,0.1l1.2,0.4l0.5-0.4v0.7l0.5-0.1l0.4-0.1l0.5-0.7h1.4h0.5l0.8,0.3l0.5,0.3l1.3,1.4
		l0.5,1.4l1.2,0.4h0.5l0.8,0.3l1.2,0.7l0.5,1.2l0.5-0.4l0.7-0.3l1,0.7l0.1,0.4l0.7,0.1l0.7,0.4l0.1-1.2l0.7,1.4l0.8,0.7l0.3,0.5
		l-0.1,0.5l0.1,1l0.4,0.3l0.9-0.4l2-0.8h0.5l0.9,0.1l0.8,0.7l0.5,0.3l0.5-0.3l0.5-0.8l1.6,1l0.5,0.7l0.4,1h0.5l0.4-0.8l0.3-0.4
		l0.7-0.7l1-0.4l0.9-0.1l0.8-0.1l1.4-0.5l1.4-0.1l0.8-0.1l0.5-0.1l0.8-0.4l0.7-0.3l0.5,0.8l0.4-0.4l0.8,0.1l0.7-0.1l0.3,0.4l0.1,0.7
		l1,0.3l0.1-0.4l0.4-0.8l0.3-0.7l0.1-0.7l2-1.6l6.8,0.3l1.7-0.7l2.3-2.9l2.1-1.3l0.4-3l4-3.9v-3.9l-1.6-2.6H300l-0.7-1.3l1.7-1.3
		l3.8-1.3V131h1.7l3-2h1.7l2.7-1.3l1.4-2l2.3-1.6l0.7-0.4l2.1-2.9l1.7-1.7l1.3-0.4l0.8-2.5l2.1-2.6l0.3-2.6l-0.3-1.7l-0.7-0.7
		l-3.8-0.3l-1-1h6.5l1.7-0.7l4-4.9h6.1l0.4-1.3l3.6-1.7l3.8-1.8l3.5-3.3l1.7-0.7l5.1,0.3l2-1.3l4.4,0.9l0.7,0.7l-0.3,1.7l1.7,1.7
		l2.6,0.7l1.4,1.6v1.7l2.3,0.3l2.3-1.3l3.8,0.4l0.3,1.3l-0.7,2.1l0.9,0.9l0.4,0.5v0.7l0.3,0.8l0.1,0.8l-0.4,0.4l0.1,0.9l0.4,0.4
		l0.5,0.5l0.7,0.3l0.5,0.1l0.8,0.4l1.2,0.1h0.8l2.1-0.4l0.5-0.1l1.7-0.1l0.5-0.3l1.2-0.1l0.8-0.3l0.5-0.1l0.4-0.3l0.5-0.4l0.4-0.3
		l0.4-1l-1.7-1.4l0.1-0.4h1.2l0.7,0.3l0.4,0.3l0.5,0.1l0.9,0.4l0.9,0.4l0.5,0.4l0.4,0.3l0.5,0.3l-0.1,0.4l-0.5,0.1l-1-0.3h-0.4
		l-0.7-0.3l-0.8,0.5l-0.4,0.5l-0.3,1l0.1,0.5l0.3,0.4l0.7,0.5l1,0.1l0.4,0.1l0.7,0.1l0.5,0.3l0.4,0.4l0.8,0.7l0.5,0.1l0.5,0.8
		l0.1,0.8l0.4,0.9l0.3,0.5l0.3,0.4l0.8,0.7l0.8,0.7h0.7l0.4,0.4h0.8l0.8-0.1l0.5,0.1l0.4,0.1l0.5-0.1l0.7,0.1l0.9-0.1l0.4-0.4
		l0.5-0.3l0.5-0.7l0.4-0.4l0.5-0.5l0.4-0.4l0.3-0.4l0.4-0.5l0.3-0.5l0.5-0.1l0.7,0.7l0.3,0.4l0.4,0.5l0.3,0.3l0.4,0.5l0.4,0.3
		l0.7,0.1h1.2l1.2-0.1h0.7l0.8,0.7l0.5,0.4l0.3,0.4l0.7,0.8l0.4-0.1l-0.1-0.8l-0.7-0.7l-0.1-0.4l0.5-0.4l0.4-0.1l1.3-0.3l0.5-0.1
		l0.8-0.1l0.8-0.1l0.7-0.3l0.7-0.3l0.7-0.1l0.7-0.3l1.8-0.3l0.7-0.3l0.5-0.3l0.7-0.1l0.9-0.1l0.8,0.1l0.3,1v0.9v0.7l0.7,0.4l0.9-0.4
		l0.3-0.4l-0.4-1l-0.5-0.4l-0.4-0.7v-0.8l-0.1-0.8l0.4-0.3l0.8-0.4l0.5-0.3l0.3-0.4l0.1-2.1l0.4-0.5l0.4-0.4h0.4l0.7-0.1l0.1-0.4
		l0.4-0.4h0.9l0.4-0.4l-0.3-0.8v-0.5h0.5l0.8,0.5l0.4,0.1l0.5-0.1l0.7-0.1l0.1-0.5l0.3-0.7h0.5l0.4,0.4l0.5,0.5l0.4,0.4l0.9,0.7v0.5
		l-0.3,0.4l-0.5,0.9l-0.3,0.4l-0.4,0.8l0.1,0.4l0.1,0.5l0.3,0.5l0.3,1.3l0.1,0.5l0.4,0.4l0.3,0.3l0.3,0.7l0.5,0.7l1-0.3l0.7-0.5
		l0.8-0.8l0.9-0.3l0.4-0.1l0.4-0.4l0.3-0.5l0.8-0.4l0.5,0.4l0.3,0.4l0.5,0.1l0.3,0.4v0.7l0.1,0.8l0.5,0.3l0.7,0.1l0.5,0.7l0.8-0.1
		l2.5,1.2l1.2-0.7l1.7,0.1h0.7l0.3,0.5l0.4-0.3v-0.8l0.8-0.3l1.6-0.9l1.8-1l0.3,0.5l0.3,0.5l-0.7,1l-0.8,0.3l-0.4,0.3l0.3,0.4
		l0.7-0.1l0.5-0.1l-0.1,0.8l0.7-0.3l0.8,0.4l0.8,0.1l0.7,0.3l0.5-0.1l0.3-0.5l-0.5-0.7l-1,0.3l-0.5-0.9l-0.4-0.5l0.8,0.1h1.2h0.5h1
		l0.4-0.1l1.2-0.7l0.3-0.4l0.7-0.7l0.9-0.7h0.5h0.5l0.5-0.3l0.7,0.4l0.9-0.3l0.8,0.3l0.8-0.3l1,0.4l0.4,0.1l0.1,0.7l0.1,0.9
		l-0.5,0.4L478,115l-0.5,0.3l-0.5-0.4l-0.5-0.3l-0.9,0.3l-0.4,0.3l-0.4,0.3l-0.7,0.7l0.4,0.9l-0.4,0.4l-0.7,0.1l-0.5-0.1l-1,0.4
		l-1,0.3l-0.3,0.8l0.7,0.1l0.9,0.1h0.4l0.7-0.1l1.2,0.5l-0.7,0.5l-1.4,0.3l-0.1,0.5l-0.5,0.4h-0.5l-0.4,0.3l-0.1-0.4l-0.8-0.1
		l-0.5-0.3l-0.4,0.3l0.1,0.7l0.8,0.8l0.5,0.3l0.5,0.9v0.5h-0.4l-0.3,0.5l-0.4,0.3l0.7,0.9l0.1,0.4l-0.3,0.4l0.4,0.4l1.2,0.1l0.4,0.3
		l0.4,0.4l-0.1,0.9l0.1,0.5l1,0.8l0.8,0.3l-0.9,0.5l-0.3,1.3l-0.5-0.1h-0.7l-0.7,0.8l-0.1,0.8l0.7,0.3l0.7,0.4l-0.1,1l-0.5,0.1
		l-0.7-0.4l-0.9,0.1l-0.5-0.3l-0.7-0.3l-0.5,0.1l-0.9,0.3l-0.7,0.4l-0.3,0.4l-0.4,0.8l-0.4,0.5l-0.4-0.5l-0.8,0.1l-0.4,0.4l-0.1,0.4
		l0.5,1.3l-0.1,0.9l0.7,0.3l0.5,0.8l0.4,0.9v0.5h-1.2l-0.1,0.5v0.5l-0.5,1.2l-0.4,0.4l-0.4,0.3l-0.5,0.5l-0.5,0.5l0.9,0.3v0.4
		l-0.3,0.9l-0.8,1.8l0.8-0.5l0.7-0.9l0.5-0.7h0.5l0.4-0.5l0.4-1l0.5-0.3l0.8,0.1l0.1,0.5l0.3,0.5l0.5-0.4l-0.1-0.8l0.7,0.5h0.5
		l0.7-0.4l0.4,0.8l0.3,0.5l0.7-0.8l0.4-2.6l0.4-0.7l0.5-0.3l0.4-0.1l0.7,0.1l-0.1,0.5l-0.3,0.7l-0.7,0.8l-0.4,0.5l-0.1,0.5l0.5,2
		l0.1,0.9l-0.3,0.4l-0.3,0.5l-0.1,0.7l-0.4,0.4l-0.7-0.3l-0.4,0.7l-0.4,0.7l-0.4,0.5l-0.4,0.3l-0.4,0.3l-0.5,0.1l-0.5,0.3l-0.8,0.3
		l-1.3,0.3l-0.4,0.7l0.1,0.9l0.4,0.9l0.4,0.3l0.4,0.5v0.5l-0.4,0.4l-0.4,0.3l-0.9,0.3h-0.7l-0.8,0.1l-0.4,0.8l-0.3,1.3l-0.5,0.3
		l-0.7,0.3h-1.3l-0.5,0.1l-0.9,0.1l-0.4-0.1h-0.5h-0.5h-0.9l-0.8-0.1l-1-0.1l-0.7-0.1l-0.5,0.1l-1.7,0.1l-0.8-0.1v-0.9l-0.1-1.8
		v-0.9l0.5-0.5l0.5,0.1l0.7-0.3l0.4-0.4l0.8-0.5l-0.5-0.4l-0.9,0.3l-0.4,0.1l-0.5-0.4H451h-0.5l-0.7-0.5l-0.4-0.8l-0.8,0.3l-0.1-0.5
		l0.3-0.4h0.4h0.5l0.3-0.4l-0.1-0.8l-0.7-0.7l0.5-0.8l0.1-1l0.1-0.5l0.8-0.3l0.7-0.3l0.5-0.9l-0.9-0.1l0.7-0.9l-0.8-0.5v-0.7
		l-0.9-0.4l0.1,0.9l-0.1,1l0.3,0.4v0.5l-1,0.3l-0.5,0.4l-0.5-0.5l-0.4-0.1l-0.3,0.4l-0.1,0.8l0.7,0.5l0.1,0.5l-0.3,0.9l-1.2,0.9
		l-0.3,0.5l-0.5,0.8l-0.4,0.4l-0.1,0.7v0.5l-0.3,0.5l-0.8,0.1l-0.4,0.3l-0.5,0.4l-0.5,0.5l-0.7,0.9l-0.8,0.1l-0.4-0.9l0.1-0.5
		l0.1-0.4l0.3-0.4l-0.1-0.8l-0.9-0.1l-0.7,0.4l-1.6,0.1l-0.8,0.3l-1.4-0.1h-0.5l-0.4,0.5l-0.4,0.1l-0.5,0.3l-0.7,0.3l-0.4,0.3
		l-0.4,0.1L432,157l-0.7,0.3l-0.7,0.5l-0.5-0.1l-0.7-0.3l-0.4,0.5l-0.5,0.3l-0.4,0.5l-0.4,0.8l-0.8,0.3l-0.7,0.1l-0.4,0.3l-0.5,0.3
		l-0.5,0.5l-0.7,0.8l-0.4,0.5l-0.3,0.4l0.1,1.4l-0.7,0.8l-0.4,0.4l-1.3,0.3l-0.5,0.7l-0.5,0.3l-0.5,0.1l-1.4,0.5l-0.5,0.4l-0.7,0.3
		L417,167l0.5-0.8l0.1-0.5l-0.7-0.4l-0.4,0.5l-0.4,0.5l-0.4,0.5l0.1,1.3v0.7v0.8l0.5,0.8l0.3,1.7l0.5,0.4l0.3,0.4l-0.4,0.7l-0.8-0.1
		h-0.8l-0.4-0.1l-0.1-0.5l0.1-0.9l-0.3-0.4l-0.5,0.1l-0.5,0.4l-0.5-0.3l-1-0.1l-0.8,0.3l-0.1,0.8l-0.7,0.5H410l-0.5-0.3l-0.3-0.4
		l-0.4-0.3l-0.3-0.5h-0.5l-0.3-0.4v-0.5l0.8-0.3l0.9-0.8l0.8-0.1l0.5,0.3l0.5-0.3v-0.9l0.5-0.5l0.5-0.7l0.7-0.1l0.7-0.4l0.5-0.3
		v-0.7l0.7-0.1l0.3-0.5l-0.4-0.4l-0.5,0.1h-1.4l-0.7,0.3l-0.5,0.3l-0.9,0.1l-0.1,0.9l-0.5,0.5l-0.7,0.3l-0.3,0.4l-0.1,0.7l-0.5,0.1
		l-0.7,0.8l-0.5-0.1l0.1-0.7l-0.1-0.5l0.4-0.8v-0.7l-0.8,0.7l-1,0.3l-0.3-0.7l-0.8-0.5l-0.5,0.3l-0.5-0.5v1l0.8,0.4l0.3,0.5l0.5,1.3
		l0.4,0.4l0.5-0.1l0.5,0.7v0.4l-0.7,0.3l0.3,0.9l-0.4,0.4l-0.3,0.5l-0.3,0.4h-0.8l-1.6,0.3l-0.7,0.3l-0.4,0.3l-0.5,1.2l-0.1,0.7
		l0.3,0.8l0.5,0.5l-0.3,0.5l-0.5,0.3l-0.5-0.1l-0.4-0.1l-0.4-1l-0.5,0.3l-0.5,0.4l-0.8,0.3l-1.2,0.4l-1,0.4l-0.4,0.1l-0.8,0.4
		l-0.4,0.3l-0.4,0.1l-0.5,0.4l-0.9,0.4h-0.4l-0.9-0.1l-0.7,0.3l-0.9,0.7h-0.5l0.1-0.7l0.4-0.5v-0.5l-0.4-0.3l-0.5-0.3l-0.8,0.3
		l-0.3,0.4l0.4,0.8l0.3,0.4l-0.4,0.4l-0.8,0.7l0.5,0.4l-0.1,0.5l-0.4,0.3L387,183l-0.5,0.4l-0.9,0.9l-0.4,0.3l-0.7,0.9l-0.4,0.4
		l-0.5,0.4l-0.5,0.3l-0.4,0.4h-1l0.1-1.2l0.5-0.5l0.5-0.3v-0.5l-0.7-0.4l-0.7,0.4l-0.4,0.3l-1,0.3l-0.7,0.7l0.3,0.5l0.9,0.4l0.5,0.5
		l-0.1,0.7l-0.1,0.8v0.5l-0.3,0.5l-0.8,0.4h-1l-0.3-0.5l-0.5-0.3l-1.2,0.3l-0.7,0.3l-0.8,0.1h-0.8l-0.4-0.3l-0.3-0.7v-0.5l0.5-0.4
		l0.4-1.4l0.7-0.7l-0.9-0.3l-0.4-0.3h-1.2l-0.4-0.1l-0.7,0.1v0.9l-0.5-0.1l-0.1-0.5l0.1-0.5l0.1-0.7h-0.8l-0.7-0.1l-0.8,0.4L369,184
		l-0.3,0.7v0.5l-0.5,0.4l-0.5,0.8l-0.7-0.1l-0.4,0.3l-0.5,1.2v0.7l-0.3,0.8l-0.7,0.3l-1,0.3l-0.8-0.1v0.5v0.5l-0.5,0.3l0.1,0.5
		l0.5-0.3l1,0.3l0.3,0.5l0.1,0.7l0.5-0.3l0.3-0.7l0.5-0.3l0.3-0.4v-0.5l0.5-0.8l0.7-0.3l0.4-0.8l0.7,0.4l0.5,0.7l0.8,0.7h0.5
		l0.4,0.3v0.8l0.3,0.7l0.7,0.8l0.7-0.1l0.5-1l0.4,0.7l0.8,0.7l0.5,0.1l1.2,0.4l0.3-0.5l-0.7-0.8l0.8,0.1l0.4,0.7l0.3,0.8l-0.7,1
		l-0.3,0.4l-0.7,0.9l0.5,0.8l-0.3,0.5v0.4l0.5,0.7l0.9,0.1l-0.4,0.8l-0.4,0.4l-0.1,0.7l-0.5,0.7l-0.8-0.4l-0.5-0.5l-0.8,0.3
		l-0.5,0.5l0.4,0.8l0.4,0.5l0.3,0.4l0.3,0.5l-0.4,0.8l-0.4,0.5l-0.7,0.9l-0.1,0.5l0.4,0.5v0.8l-1,0.3l-0.5-0.1l-0.7-0.1l-0.4-0.3
		l-0.1-0.7v-0.9v-0.8l-0.1-0.5l-0.1-0.7v-0.4l-0.8-0.7l-0.1-0.7l-0.1-0.9l-0.5-0.3l-1-0.7l-0.4,0.5l-0.5,0.4l-0.7,0.3l-0.8,0.1h-0.5
		l-1.2-0.1l-0.4,0.9v0.7l-0.3,0.5l-0.4,0.1l-0.5,0.1l-0.5-0.3l-0.5,0.1v0.7l0.5,1l-0.3,0.9l-0.4,0.8l-0.3,1.8l0.4,0.4l0.5,0.3
		l0.8,0.4l0.3,0.4l0.4,0.5l0.1,0.5l0.3,0.4L363,212l-0.5,0.1l-0.9,0.1l-0.5-0.1l-0.8-0.1h-0.8l-1,0.1l-0.3,1.2l0.4,0.3l0.4,0.8
		l-0.5,0.8l-0.1,0.9l0.4,0.3l1-0.4l0.7,0.7l0.1,1v0.5l-0.1,0.9l0.4,0.7l0.3,0.4l0.3,0.7l0.1,0.5l0.4,2.1l0.1,0.8l0.4,0.5l0.3,0.4
		l0.3,0.8l0.4,0.7l0.4,0.3l0.5,0.3l-0.5,0.9l-0.4,0.3h-0.8l-0.4-0.1l-1.4,0.1l-0.4,0.4l-0.4,0.4l-0.5,0.4h-0.5l-0.5-0.4l-0.5,0.1
		l-0.5,0.8l-0.4,0.4l-0.5,0.4h-0.7l-0.3-0.4l-0.3-0.4l-0.5,0.4l-0.7,0.1h-0.9l0.3,0.8l-0.5,0.3l-0.9,0.4l-0.7,0.1l-0.8,0.1l-0.5,0.3
		l-0.5,0.1l-0.7,0.1l-0.7,0.5l-0.4,0.7l-0.9,1.2l-1,0.3l-0.5,0.4l-0.9,0.3l-0.7,0.3l-0.8-0.4l-0.5,0.3l-0.3,0.7h-0.5h-0.5l-0.4,0.3
		l-0.7-0.3l-0.5-0.3l-0.4-0.1l-1-0.1h-0.7l-0.4-0.5l0.1-0.4l0.8-1l0.5-0.8l0.4-0.5l0.3-1l0.1-1.6l0.3-0.4l0.3-0.4l0.5-0.7l0.7-0.7
		l0.3-0.7l0.3-1.3v-0.4l-0.5-1.4l0.1-0.7l-0.1-0.4l-1.2-0.5l-0.3-0.4l-0.5-0.5l-0.4-0.8l-0.3-0.4l0.8-0.4v-0.7h-0.8l-0.5-0.1v-0.8
		l-0.1-0.7l-0.5,0.3l-0.9-0.3l-0.8,0.4l-0.1,0.7l0.1,0.8l0.1,0.9l0.3,0.8l-0.9,0.9l0.3,0.9l-0.1,0.9l0.5,0.3l0.7-0.4l0.4,0.3
		l0.1,0.9h-0.5l-0.7,0.1l-0.4,0.3l-0.4-0.3l-0.5,0.1l-0.4-0.3l0.3-0.5l-0.3-0.3l-0.7,0.1l-0.5-0.3l-0.9,0.7l-0.1-0.5l0.1-0.7v-0.7
		l-0.3-0.8l-0.5,0.1l-1,0.3l-0.5,0.7l-0.8,0.1l-0.8,0.8l-0.1,0.5l-0.7,0.7v0.7l-0.1,0.4l-0.7,0.1l-0.9-1.6l-0.4-0.9l-0.3-0.7
		l-0.5-0.5l-0.4-0.1l-0.1,0.7l0.1,0.4l0.7,0.8l0.7,1.8l0.1,0.7l-0.3,0.7l-0.5,0.5l-0.5,1.2l0.1,0.8H323l0.3,0.7l0.4,0.7l0.8,0.4
		l0.9,0.1l0.7-0.1l-0.1,0.7l0.1,0.7l0.7,0.8l0.5,0.1l0.5,0.3l1,0.5l0.5,0.1l0.5,0.3l0.5,0.3l0.4,0.1l0.4,0.3l1,0.4l0.4-0.3l0.4-0.3
		l0.5-0.1l0.3,0.4l0.1,0.8l-0.3,0.4l-0.1,0.5l-0.8,1l-0.7,0.7l-0.3,0.4l-0.3,0.5l0.4,1.3l0.1,0.5l0.3,0.5l0.5-0.4l0.7-0.7l0.4-0.3
		l0.8-0.4l1.6-0.9l0.4-0.5l0.9-0.9h0.9l0.5,0.5l0.3,0.3l0.4,0.4l0.3,0.9l-0.4,0.8l-0.3,0.7l-0.7,0.5l-0.5,0.3l-0.4,0.4H337l-0.5,0.3
		l-0.4,0.4l-0.5,0.5l-0.3,0.5l-0.4,0.5l-0.4,0.7L334,247l-0.3,0.4l-0.4,0.5l-0.3,0.7l-0.3,0.4l-0.8,0.7l-0.7-0.1l0.1-0.7l0.7-0.9
		l-0.5-0.8l-0.4,0.3l-0.8,0.7l-1.4,0.3l-0.4,0.3l-0.4,0.3l-0.5,0.7l-0.7,0.5l-0.3,0.5l-0.3,0.5l-0.1,0.4l-0.3,0.5l-0.3,0.4l-0.8,0.9
		l-0.4,0.4l-0.5,0.5l-0.4,0.3l-0.3,0.4l-0.1,0.7l0.3,1.7l0.4,0.8l0.1,1.2v1.6l-0.5,0.7l-0.5,0.4l0.1,1.7l-1.3,0.7l-0.5,0.3l-0.7-0.5
		l-0.4-0.4l-0.8-0.3l-0.3-0.9l-0.4-0.4l-1.4-0.5l-0.5-0.1l-1.3,0.4l-0.3,0.8l-0.1,1.3l0.4,0.9l0.4-0.3h0.4l0.5,0.4l1.4,0.4l-0.8,1
		l-0.8,0.8l-0.3,0.3l-0.3,0.5l-0.5,0.5l-0.4,0.8v0.8l0.7-0.5l0.1,0.7l0.4,0.3l0.4,0.1l0.4,0.8l-0.9,0.8l-0.9,0.1l-0.4,0.5l-0.8,1.2
		H314l-0.7-0.5l0.5-0.7l-0.1-0.7l-0.7,0.7l-0.5,0.1l-1,0.7l0.1-0.8l0.4-0.5l0.5-0.4l0.4-0.4l-0.1-0.7l-0.3-0.8l-0.4-0.4l-1.2,0.3
		l-0.5,1.3l0.3,0.5l-0.4,0.7l-0.7,0.4l-0.4,0.4l-0.3,0.7l-0.4,0.4l0.3,0.8l-0.8,1.2l-0.4,0.9l-0.5-0.3l-0.1-0.5l0.3-0.5v-0.8
		l-0.3-0.7l-0.4-0.3l-0.7-1V272l0.5-0.7l-0.9-0.1l-0.1,0.5v0.5l-0.5,1l-0.5,0.3l-0.3,0.5l-0.4,0.1l-1.3,1.6l-0.5,0.5l-0.7-0.7
		l-0.8,0.1l-0.8,0.3l-0.5-0.1l-0.7-0.3l0.3,1.2l0.7,0.1l0.4,0.3l0.3,0.9l-0.7,0.5l-0.5,0.1l-0.8,0.8l1.3,0.1v0.5l-0.3,1l-0.3,0.9
		l0.1,1.4l-0.4,0.3l-0.5,2.2l-1,1.6l-0.4,0.8l-0.7,2.5l-0.5-0.8l-0.3,1.4l-0.1,0.7l0.5,0.1l0.7,0.7v0.5l-0.1,0.8l-0.4-0.4l-0.5-0.4
		H295l-1,0.5l0.1,0.9l-0.5,1.3l-0.1,0.9l-0.9,0.4l-1.2,0.5l-0.7,0.5l-0.8,1.2l-0.5,1.2l-0.7-1.6l-0.5,1l-0.9,0.1l-0.3,0.5l0.5,0.3
		l0.8-0.3l-0.7,1.7l-0.5,1.2l-0.3-0.5l-0.4,0.4l-0.1,0.5l0.1,0.7l-0.4,0.5l0.4,0.8l-0.8,2.5h0.5l0.1,0.9l-0.1,0.5l-0.3,1.8v0.9
		l-0.3,2.1l-0.3,1.3l-0.1,0.4l-1.3,1.2h-0.8l-0.7,0.3l-1,0.3l-0.1-0.5L281.1,317.5L281.1,317.5"/>
	<path vector-effect="none" class="st0" d="M352.8,88.4l-0.7,0.4l-0.7-0.4l-0.7-0.5l-0.7-0.4l-0.7-0.9v-0.8l0.3-0.8l0.4-0.5h0.8
		l0.7,0.5l0.7,0.4l0.3,0.7l0.1,0.8v0.8v0.8"/>
	<path vector-effect="none" class="st0" d="M352.2,67.3L352,68l-0.9-0.4l-0.8-0.3h-0.8l-0.7,0.3l-0.4-0.7v-0.8l0.1-0.8l0.4-0.7h0.7
		l0.4,0.7l0.4,0.7l0.7,0.4l0.8,0.3L352.2,67.3L352.2,67.3"/>
	<path vector-effect="none" class="st0" d="M358.6,49.6l-0.7,0.5l-0.7-0.3l-0.1-0.7l-0.1-0.8l-0.3-0.7l0.7-0.5l0.4-0.7l0.8-0.1
		l0.7,0.4l0.3,0.7l-0.3,0.7l-0.4,0.8L358.6,49.6L358.6,49.6"/>
	<path vector-effect="none" class="st0" d="M352.8,56.9l-0.7,0.3l-0.8-0.1l0.1-0.8l0.5-0.5l0.1-0.7l-0.3-0.7l0.8-0.1l0.7,0.3
		l0.8,0.3l0.5,0.4v0.9l-0.4,0.5h-0.8L352.8,56.9L352.8,56.9"/>
	<path vector-effect="none" class="st0" d="M333,261.7h-1l-0.4-0.5l-0.4-0.7l-0.1-0.7l0.3-0.7l0.5-0.5l0.7-0.5h0.8l0.3,0.7l-0.1,0.8
		l-0.1,0.8v0.8L333,261.7"/>
	<path vector-effect="none" class="st0" d="M343.8,84.5l-0.3,0.7h-0.8l-0.7-0.3l-0.7-0.4l-0.7-0.4l0.4-0.7l0.3-0.7l0.7-0.4h0.8
		l0.5,0.7l0.3,0.7L343.8,84.5L343.8,84.5"/>
	<path vector-effect="none" class="st0" d="M455.5,167.5h-0.8l-0.7-0.4l-0.5-0.5l0.5-0.5l0.7-0.4l0.7-0.4l0.8,0.7l0.5,0.7l-0.4,0.7
		L455.5,167.5"/>
	<path vector-effect="none" class="st0" d="M349.4,83.5l-0.5,0.1l-0.7-0.4l-0.5-0.7l-0.3-0.7l0.4-0.5l0.8-0.1l0.7,0.4l0.5,0.5
		l0.1,0.8L349.4,83.5L349.4,83.5"/>
	<path vector-effect="none" class="st0" d="M422.2,168.4l-1.4,0.7l-0.3-1.2v-0.4l0.7-0.5h0.7l0.4,0.5V168.4"/>
	<path vector-effect="none" class="st0" d="M168.3,79.7v0.7l-0.4,0.4l-0.7-0.4l-0.4,0.3l-0.4-0.9l0.1-0.7l0.7-0.3l0.4,0.3l0.3,0.4
		L168.3,79.7L168.3,79.7"/>
	<path vector-effect="none" class="st0" d="M176.8,79.7l-0.4,0.7l-0.7-0.3l-0.7-0.4l-0.4-0.3l0.4-0.7h0.7l0.4,0.3l0.3,0.4
		L176.8,79.7L176.8,79.7"/>
	<path vector-effect="none" class="st0" d="M177,85.3l-0.4,0.3H176l-0.3-0.7v-0.7L176,84h0.8l0.3,0.3l0.4,0.4L177,85.3L177,85.3"/>
	<path vector-effect="none" class="st0" d="M191.5,88.9l-0.7,0.7l-0.7-1v-0.7l0.4-0.3l0.3,0.3l0.7,0.4V88.9L191.5,88.9"/>
	<path vector-effect="none" class="st0" d="M188.1,94.4l-0.7,0.4L187,94l0.4-0.3l0.3-0.3h0.8l0.3,0.3l-0.3,0.4L188.1,94.4
		L188.1,94.4"/>
	<path vector-effect="none" class="st0" d="M445.9,109.6l-0.5,0.4l-0.8-0.1l-0.7-0.3l0.3-0.5l0.8,0.1L445.9,109.6"/>
	<path vector-effect="none" class="st0" d="M343.5,69.6l-0.3,0.7l-0.7-0.4l-0.3-0.7l0.3-0.7l0.7,0.4L343.5,69.6L343.5,69.6"/>
	<path vector-effect="none" class="st0" d="M403,110.3l-0.4,0.4l-0.3-0.5l0.1-0.8l0.8-0.3l0.4,0.7L403,110.3L403,110.3"/>
	<path vector-effect="none" class="st0" d="M412.7,174.8l-0.8,0.1l-0.4-0.5l0.5-0.5l0.4-0.3l0.5,0.5L412.7,174.8L412.7,174.8"/>
	<path vector-effect="none" class="st0" d="M182.1,88.8l-0.8,0.7h-0.7v-0.7l0.4-0.3l0.4-0.4l0.3,0.4L182.1,88.8L182.1,88.8"/>
	<path vector-effect="none" class="st0" d="M250.6,112.5l-0.3,0.7l-0.8-0.4l0.1-0.7l0.3-0.7l0.7,0.4V112.5L250.6,112.5"/>
	<path vector-effect="none" class="st0" d="M377.7,203.7h-0.5l-0.7-0.3l0.5-0.5l0.8-0.1l0.5,0.4L377.7,203.7"/>
	<path vector-effect="none" class="st0" d="M363,76.4v0.7h-0.8l-0.5-0.8l0.7-0.3L363,76.4"/>
	<path vector-effect="none" class="st0" d="M187,91.8l-0.3,0.7l-0.7-0.4v-0.7l0.3-0.3l0.4,0.3L187,91.8L187,91.8"/>
	<path vector-effect="none" class="st0" d="M179.7,83.3l-0.4,0.7h-0.7l-0.4-0.4l0.4-0.3l0.4-0.4L179.7,83.3L179.7,83.3"/>
	<path vector-effect="none" class="st0" d="M192.9,87l-0.4,0.7l-0.3-0.4l-0.4-0.3l0.4-0.7l0.3,0.3L192.9,87L192.9,87"/>
	<path vector-effect="none" class="st0" d="M406.1,212.3l-0.5,0.4l-0.4-0.8l0.3-0.7l0.5,0.1L406.1,212.3"/>
	<path vector-effect="none" class="st0" d="M298.7,139.7v0.8l-1-0.4l0.3-0.7L298.7,139.7"/>
	<path vector-effect="none" class="st0" d="M347.4,86.3l-0.7,0.1l-0.1-0.8l0.4-0.5l0.4,0.4V86.3"/>
	<path vector-effect="none" class="st0" d="M366.8,219.5l-0.3,0.8l-0.5-0.5l0.3-0.8L366.8,219.5"/>
	<path vector-effect="none" class="st0" d="M382.8,193.1v0.7l-0.9-0.3l0.1-0.7L382.8,193.1"/>
	<path vector-effect="none" class="st0" d="M177.7,82l-0.4,0.7l-0.4-0.3l0.4-0.7L177.7,82"/>
	<path vector-effect="none" class="st0" d="M170.9,76.8l-0.4,0.7l-0.4-0.3l0.4-0.7L170.9,76.8"/>
	<path vector-effect="none" class="st0" d="M475.6,109.9l0.1,0.8l-0.7-0.1l-0.1-0.4L475.6,109.9"/>
	<path vector-effect="none" class="st0" d="M174.3,84.6l-0.4,0.3l-0.4-0.5l0.5-0.3L174.3,84.6"/>
	<path vector-effect="none" class="st0" d="M477.1,148l-0.4,0.5l-0.4-0.4L477.1,148"/>
	<path vector-effect="none" class="st0" d="M187.9,97.4l-0.4,0.3l-0.4-0.4l0.4-0.3L187.9,97.4"/>
	<path vector-effect="none" class="st0" d="M189.4,97.1l-0.4,0.3l-0.4-0.3l0.4-0.3L189.4,97.1"/>
	<path vector-effect="none" class="st0" d="M173.6,77.9l-0.4,0.3l-0.4-0.3l0.4-0.3L173.6,77.9"/>
	<path vector-effect="none" class="st0" d="M356.2,231.9v0.7l-0.7-0.5L356.2,231.9"/>
</g>
</svg>
