<?xml version="1.0" encoding="utf-8"?>
<!-- Generator: Adobe Illustrator 27.0.0, SVG Export Plug-In . SVG Version: 6.00 Build 0)  -->
<svg version="1.1" id="Layer_1" xmlns="http://www.w3.org/2000/svg" xmlns:xlink="http://www.w3.org/1999/xlink" x="0px" y="0px"
	 viewBox="0 0 500 500" style="enable-background:new 0 0 500 500;" xml:space="preserve">
<style type="text/css">
	.st0{fill:#E74646;stroke:#FFFFFF;stroke-width:4.6041;stroke-linecap:square;stroke-linejoin:bevel;stroke-miterlimit:3.998;}
</style>
<g transform="matrix(0.999751,0,0,0.999751,18.6633,21.7738)">
	<path vector-effect="none" class="st0" d="M208.9,467.6l-4.1-0.7h-4.1h-3.4l-0.7-4.1l-0.7-4.1l-0.7-4.1l-1.4-4.1l-0.7-4.1l-1.4-3.4
		l-3.4-2l-3.4-1.4l-3.4-1.4l-2.7-2.7l-1.4-4.1l-2.7-2h-4.1l-4.1,0.7l-4.1,1.4h-4.1h-4.1l-4.1,0.7l-4.1-0.7l-4.1-0.7l-2-3.4l1.4-4.1
		l1.4-3.4v-4.1l-1.4-4.1l-2.7-2l-2.7-2.7l-3.4-1.4h-4.1l-4.1,0.7l-3.4,1.4l-3.4,2l-3.4,2.7l-2,3.4l-2,2.7l-3.4-1.4l-4.1-0.7
		l-3.4,1.4h-4.1l-2-3.4l2-3.4l2.7-3.4l3.4-2.7l0.7-4.1l-1.4-3.4l-2-1.4l-4.1-2l-4.1-1.4l-0.7-4.1l1.4-3.4l0.7-4.1l-0.7-4.1l-0.7-4.1
		l-1.4-3.4l-0.7-4.1v-4.1l2-2l1.4-2.7l-2-3.4l-0.7-4.1l-2-3.4l-2.7-3.4L81,341l-4.1-0.7h-4.1l-2,0.7l-2,0.7l-4.1,0.7l-4.1,0.7h-2h-2
		l-0.7-2.7l-1.4-4.1l-1.4-3.4l-2-3.4l-1.4-4.1l0.7-4.1l-0.7-4.1l-2-3.4l-3.4-2l-4.1-0.7l-2.7-2.7v-5.4l2.7-2.7l3.4-2l3.4-2l3.4-1.4
		l4.1-1.4l4.1-0.7h4.1l4.1,0.7l4.1,0.7h4.1h4.1l4.1-1.4l3.4-2l3.4-2.7h4.1l3.4,1.4h4.1l-0.7-3.4l-0.7-4.1l3.4-1.4l4.1,1.4l3.4-2
		l0.7-4.1l-1.4-3.4l-1.4-3.4l-2-3.4l-1.4-3.4l-1.4-3.4l-0.7-4.1l-0.7-4.1v-4.1l0.7-4.1l0.7-4.1l1.4-3.4l2-3.4l2.7-2.7h4.1l3.4,2
		l4.1,0.7l4.1-1.4l4.1-0.7l4.1-0.7l4.1-1.4l-0.7-5.4l-2-3.4l-3.4-1.4l-3.4-2l-0.7-3.4l0.7-4.1l-0.7-4.1l-2.7-2h-4.1l-3.4-2v-4.1
		l-0.7-5.4l5.4-0.7l3.4-1.4l3.4-2l2.7-2.7l1.4-3.4l-0.7-4.1l1.4-3.4v-3.4l-3.4-2v-4.1l4.1-0.7l4.1-0.7l3.4-2l1.4-3.4l0.7-4.1l2-2.7
		l2.7-2h4.1l2.7-2l2.7-2.7h4.1l3.4,2.7l3.4-0.7l3.4-1.4l4.1-1.4l2.7-2.7h3.4l8.8-12.3l4.8,4.1l2,1.4l2,1.4l2,0.7l2.7,1.4l2.7,1.4
		l3.4,2l2,1.4l2,1.4l2.7,1.4l2,1.4l4.1,2l2.7,0.7l2,1.4l4.8,2.7l2,1.4l4.8,3.4l2,1.4l2,1.4l2.7,1.4l2.7,1.4l4.1,3.4l2.7,2.7l2.7,1.4
		l2.7,1.4l5.4,4.1l7.5,3.4l8.8,2l4.1,1.4l4.1,2.7l12.3,6.8l5.4,3.4l3.4,2.7l5.4,3.4l7.5,3.4l4.1,3.4l2.7,4.8l7.5,5.4l2.7,0.7
		l4.1,2.7l1.4,7.5l2.7,4.1l2.7,2.7l2.7,3.4l4.1,4.8l1.4,2l4.1,5.4l2.7,2.7l1.4,2.7l1.4,3.4l2.7,4.1l1.4,2.7l1.4,2.7l2.7,6.8l5.4,8.8
		l2,3.4l6.1,6.8l2.7,4.1l6.1,6.8l4.1,8.8l4.1,5.4l2,4.1l4.1,8.8l2.7,8.2l0.7,4.1v3.4v6.1v2.7v4.8l-0.7,4.8l-2.7,6.8l-4.8,2.7l-8.2,2
		h-10.9l-11.6,4.8l-8.2,2.7l-2.7,2l-8.2,1.4l-7.5,4.1l-12.9-2.7l-8.2,3.4l-9.5,1.4l-4.8,1.4l-17,3.4l-12.3,2.7l-8.2,4.8l-11.6,4.8
		l-12.9,6.1l-10.2,8.2l-5.4,12.9l-3.4,8.2l-3.4,11.6l-5.4,6.8l-7.5,4.8l-4.1-0.7h-2.7h-3.4L208.9,467.6L208.9,467.6"/>
	<path vector-effect="none" class="st0" d="M206.9,2.1l3.4,0.7l4.1-1.4l4.1,0.7l3.4,1.4l3.4,1.4l3.4,1.4l3.4,1.4l3.4,2l1.4,3.4
		l1.4,4.1l2,3.4l3.4,2.7l3.4,2l3.4,1.4l3.4,1.4l3.4,2l3.4,2l3.4,2l3.4,2l3.4,2l3.4,2.7l3.4,2l3.4,2l3.4,2l3.4,1.4l3.4,2l4.1,1.4
		l3.4,1.4l3.4,2l3.4,2l3.4,2l3.4,1.4l3.4,2l3.4,1.4l3.4,1.4l3.4,1.4l4.1,1.4l4.1,0.7h4.1l4.1-0.7h4.1l4.1,0.7l4.1,0.7l3.4,1.4
		l4.1,1.4l4.1,0.7l4.1,1.4l3.4,1.4l3.4,2l2.7,3.4l3.4,2.7l3.4,1.4l3.4,0.7l3.4,1.4l3.4,1.4l3.4,1.4l3.4,2.7l2.7,2.7l0.7,4.1
		l-0.7,4.1l-0.7,4.1v4.1l-2,3.4l-2.7,2.7l-2,2.7l2,3.4l1.4,4.1l-0.7,4.1l-2.7,3.4l-2.7,2.7l-3.4,2l-3.4,1.4l-3.4,1.4l-4.1,0.7
		l-3.4-1.4l-4.1-1.4l-3.4-2l-3.4-2l-3.4-2l-4.1-1.4l-4.1-0.7l-4.1-0.7l-4.1-0.7l-3.4-2.7l-3.4-2l-4.1-0.7h-4.1l-4.1-0.7l-4.1-0.7
		l-4.1-1.4l-3.4-1.4l-3.4-1.4l-3.4-1.4l-4.1-1.4l-4.1-1.4h-4.1H294l-4.1-1.4l-4.1-1.4l-3.4-1.4l-3.4-2l-3.4-2l-3.4-1.4l-3.4-1.4
		l-3.4-1.4l-3.4-1.4l0-2l-3.4-2l-3.4-2.7l-3.4-2l-3.4-1.4l-4.1-1.4l-3.4-1.4l-4.1-1.4l-3.4-1.4l-3.4-1.4l-4.1-1.4l-4.1-1.4l-3.4-1.4
		l-4.1-0.7h-4.1l-4.1-0.7l-3.4-1.4l-3.4-2l-3.4-2.7l-3.4-2.7l-3.4-2.7l-3.4-2.7l-6.1-5.4l-8.2,0.7l-8.8-0.7l-6.1-3.4l-8.8-8.2
		l-13.6-8.2l-9.5-10.2l-4.8-12.9l2.7-6.8l5.4-8.2l2-2.7l2-3.4l3.4-2.7l3.4-2l3.4-1.4l3.4-2l4.1-0.7l4.1-0.7l4.1-0.7h4.1l4.1-0.7h4.1
		h4.1l4.1,0.7l4.1,0.7l4.1,0.7l3.4,1.4l3.4,1.4l3.4,2l3.4,2.7l3.4,2.7L206.9,2.1"/>
	<path vector-effect="none" class="st0" d="M360,189.2l-2,3.4l-5.4-1.4l-3.4-2l-2.7-2.7l-2-3.4l-2.7-3.4l-3.4-2.7l-3.4-1.4l-3.4-1.4
		l-3.4-2l-3.4-2l-4.1-0.7h-4.1l-4.1-0.7l-4.1-1.4l-3.4-1.4l-4.1-1.4l-3.4-2L294,160l-3.4-2l-3.4-1.4l-2.7-3.4l-2-3.4l-1.4-3.4
		l0.7-4.1l2.7-2.7h4.1l3.4,2l3.4,1.4l4.1,0.7l3.4,1.4l4.1,0.7l4.1,0.7l4.1,0.7l4.1,0.7l4.1,0.7l4.1,0.7l4.1,0.7l4.1,0.7l4.1,0.7
		l3.4,2l3.4,2.7l2.7,2.7l2.7,2.7l1.4,4.1l0.7,4.1l2,3.4l2.7,3.4l2,3.4l1.4,3.4L360,189.2"/>
	<path vector-effect="none" class="st0" d="M387.9,196.7l-2.7,2h-4.1H377l-4.1-1.4l-2.7-2.7l-2-3.4l-0.7-4.1l-1.4-4.1V179l-1.4-4.1
		l-2.7-2.7l-1.4-3.4l-0.7-3.4l3.4-2h4.1l4.1,0.7l4.1,0.7l3.4,1.4l4.1,0.7l3.4,1.4l4.1,1.4l4.1,0.7h4.1l2,3.4l-1.4,3.4l-2.7,2.7
		l-1.4,3.4l-2,3.4l-2,3.4l-2,3.4L387.9,196.7L387.9,196.7"/>
</g>
</svg>
