<?xml version="1.0" encoding="utf-8"?>
<!-- Generator: Adobe Illustrator 27.0.0, SVG Export Plug-In . SVG Version: 6.00 Build 0)  -->
<svg version="1.1" id="Layer_1" xmlns="http://www.w3.org/2000/svg" xmlns:xlink="http://www.w3.org/1999/xlink" x="0px" y="0px"
	 viewBox="0 0 500 500" style="enable-background:new 0 0 500 500;" xml:space="preserve">
<style type="text/css">
	.st0{fill:#E74646;stroke:#FFFFFF;stroke-width:4.6041;stroke-linecap:square;stroke-linejoin:bevel;stroke-miterlimit:3.998;}
</style>
<g transform="matrix(0.999751,0,0,0.999751,18.6633,21.7738)">
	<path vector-effect="none" class="st0" d="M319.2,327.9l-0.1,0.8v0.8v0.8l0.1,0.8l0.6,0.4v0.5l-0.6,0.6l-0.4,0.6l-0.5,0.4l-0.5,0.4
		l0.1,0.6l0.3,0.8l-0.1,0.8l-0.3,0.6l-0.1,0.6l0.1,0.8l-0.5,0.5l-0.6,0.5v0.8l0.8,0.1l0.6,0.5l-0.3,0.6l-0.8-0.1h-0.6v0.8l0.6,0.4
		l-0.1,0.6l-0.6,0.3l-0.8,0.3l-0.4,0.5l0.6,0.4l0.6-0.1l0.8,0.3l0.5,0.5l0.5,0.6l0.3,0.6l-0.4,0.6l-0.6,0.4l-0.8-0.1l-0.5-0.5
		l-0.8-0.3l-0.4,0.6l0.5,0.5l0.4,0.5l-0.5,0.3l-0.3,0.6l0.4,0.5l0.5,0.6l0.1,0.6l0.5,0.6l0.6,0.4l-0.1,0.6l-0.6,0.4l-0.6,0.4
		l-0.4,0.8l0.4,0.5h0.8h0.8l0.3,0.8l-0.4,0.5v0.8l0.5,0.6l0.1,0.6l-1.2,0.4h-0.6l-0.8-0.1l-0.6,0.4v0.8l-0.1,0.6l0.4,0.6l0.1,0.8
		l0.1,0.8l0.1,0.8l-0.1,0.8l-0.1,0.6l-0.1,0.8l0.1,0.8v0.9l-0.1,0.8l-0.1,0.6v0.8l0.4,0.6l0.5,0.5l-0.4,0.6l-0.8,0.1h-0.8h-0.6
		l-0.8,0.1l-0.6,0.3l-0.8,0.3l-0.4,0.1v0.8l0.3,0.8l0.5,0.5l0.4,0.6l0.3,0.6l0.3,0.6l-0.1,0.8l-0.1,0.8l-0.1,0.8l0.3,0.8l0.3,0.6
		l0.3,0.6l0.1,0.8l0.3,0.6l0.3,0.8l0.1,0.6l0.3,0.8l0.4,0.6l0.3,0.6l0.3,0.6l-0.1,0.8l-0.6,0.3l-0.8,0.1l-0.6-0.1l-0.8-0.3l-0.4-0.5
		l-0.6-0.4l-0.6,0.4l-0.4,0.6l-0.1,0.8l-0.3,0.6l-0.3,0.6l-0.3,0.8l-0.1,0.6l-0.3,0.8l-0.4,0.6l-0.3,0.6l-0.1,0.8l-0.3,0.6l-0.4,0.6
		l-0.4,0.6l-0.4,0.6l-0.6,0.4l-0.8,0.1l-0.6,0.1H303l-0.8,0.1h-0.6l-0.8,0.4l-0.6,0.3l-0.5,0.6l-0.3,0.6l-0.8-0.1l-0.5,0.4l-0.4,0.5
		l-0.8,0.3l-0.8,0.1l-0.6-0.1h-0.8l-0.5,0.5l-0.3,0.6l-0.1,0.8l0.3,0.8v0.8l-0.6,0.3h-0.8l-0.6-0.1l-0.6-0.4l-0.6-0.4l-0.8-0.5
		l-0.8,0.1l-0.8,0.3l-0.6,0.4l-0.4,0.5l-0.4,0.6l-0.3,0.8l-0.1,0.8v0.8l0.1,0.8l0.3,0.6l0.1,0.8v0.8h-0.8l-0.8,0.1h-0.8h-0.8
		l-0.6,0.4l-0.4,0.6l-0.3,0.5l-0.8-0.1l-0.6-0.3l-0.8-0.3l-0.6-0.3l-0.6-0.4l-0.6-0.4l-0.6-0.1l-0.8-0.1l-0.8,0.1l-0.8,0.1l-0.8,0.1
		l-0.5,0.5l-0.3,0.8l0.1,0.6l0.1,0.8l0.3,0.6l-0.3,0.8l-0.5,0.4l-0.6,0.4l-0.8,0.3l-0.6,0.3l-0.6,0.5l-0.3,0.6l-0.4,0.6l-0.4,0.6
		l-0.6,0.4l-0.6,0.3l-0.8,0.3h-0.8l-0.8,0.1h-0.8l-0.6-0.1H264h-0.8l-0.6,0.1l-0.6,0.4l-0.6,0.5l-0.5,0.5l-0.5,0.6l-0.5,0.5
		l-0.4,0.6l-0.8,0.1l-0.8-0.1l-0.6-0.1h-0.8l-0.8-0.3l-0.6-0.4l-0.6-0.4l-0.6-0.4l-0.4-0.5l-0.3-0.8l-0.3-0.6l-0.4-0.6l-0.6-0.3
		l-0.8,0.1l-0.6,0.4l-0.5,0.4l0.3,0.8l0.4,0.6l-0.5,0.5l-0.6,0.3l-0.8,0.1l-0.6,0.3l-0.8,0.3h-0.6l-0.6-0.4h-0.8l-0.8,0.1l-0.8-0.1
		l-0.6-0.3l-0.8,0.1h-0.8l-0.8,0.1l-0.8,0.1l-0.8-0.1l-0.6-0.4l-0.5-0.5l-0.6-0.3h-0.8l-0.6,0.4l-0.5,0.4l-0.8,0.4l-0.6,0.1
		l-0.8,0.1L232,421l-0.8,0.1l-0.6,0.1l-0.8,0.1l-0.6-0.4l0.3-0.6l0.4-0.5l0.4-0.6l-0.5-0.5l-0.8,0.3l-0.6,0.3l-0.6,0.3l-0.8,0.3
		l-0.6,0.3l-0.8,0.1h-0.8l-0.5-0.4l-0.1-0.8l-0.4-0.5l-0.8-0.3l-0.6-0.3l-0.8-0.1l-0.6-0.1l-0.8-0.1l-0.8-0.1l-0.8-0.1h-0.8
		l-0.6-0.1l-0.8-0.1l-1-0.3l-0.3,0.8l0.3,0.8l0.3,0.6l0.3,0.6l0.1,0.8l-0.1,0.8l-0.4,0.6l-0.5,0.5l-0.5,0.6v0.8l0.4,0.6l0.4,0.6
		l0.4,0.6l0.1,0.6l-0.1,0.8l-0.1,0.8l-0.1,0.8l-0.1,0.8l-0.1,0.6v0.9l0.3,0.6l0.1,0.8l0.1,0.8l-0.3,0.6l-0.5,0.6l-0.6,0.1l-0.4-0.6
		l-0.6-0.4l-0.6-0.4l-0.6-0.4l-0.6-0.5l-0.6-0.1l-0.8-0.1l-0.6,0.4l-0.6-0.4l-0.4-0.5l-0.6-0.4h-0.8l-0.8,0.1l-0.6,0.4l-0.6,0.3
		l-0.6-0.3h-0.8l-0.6,0.1l-0.8,0.1l-0.8,0.3H200l-0.6,0.3l-0.6,0.4l-0.5,0.5l-0.4,0.6l-0.4,0.6l-0.4,0.6l-0.6,0.4l-0.6,0.5l-0.6,0.4
		l-0.6,0.3l-0.8,0.1l-0.6,0.3l-0.6,0.3l-0.8,0.3l-0.6,0.4l-0.6,0.4l-0.4,0.4v0.8l0.3,0.8l0.1,0.6l0.1,0.8l-0.5,0.6l-0.6,0.4
		l-0.5,0.5l-0.6,0.4l-0.9,0.5l-0.3,0.6l-0.4,0.6l-0.4,0.6l-0.5,0.5l-0.5,0.5l-0.4,0.6l-0.3,0.8l-0.1,0.6l-0.4,0.6l-0.6,0.4l-0.6,0.4
		l-0.5,0.4l-0.6-0.5l-0.6-0.3l-0.8,0.1l-0.5,0.4l-0.6,0.5l-0.6,0.3l-0.8,0.1h-0.8l-0.8-0.3l-0.6-0.3h-0.8l-0.8,0.3l-0.6,0.3
		l-0.6,0.3l-0.8,0.1l-0.6,0.1l-0.5,0.3l-0.5-0.6l-0.5-0.5l-0.8-0.1l-0.6,0.1l-0.8,0.3l-0.6,0.4l-0.6,0.3l-0.6,0.3h-0.8l-0.8,0.3
		L163,453l-0.8,0.3l-0.6,0.3h-0.9h-0.8l-0.8-0.1h-0.8l-0.8,0.1l-0.6,0.4l-0.5,0.5l-0.5,0.5l-0.4,0.6l-0.5,0.6l-0.3,0.5l-0.6,0.3
		h-0.8l-0.6,0.3l-0.6,0.4l-0.6,0.3l-0.8,0.4h-0.6l-0.8,0.3l-0.6,0.4l-1,0.4l-0.6,0.4l-0.5,0.5l-0.5,0.6l-0.6,0.5l-0.5,0.4l-0.8,0.1
		l-0.3-0.8l0.1-1.2l-0.6-0.4l-0.6-0.3l-0.8,0.3l-0.5,0.5l-0.1,0.8l-0.1,0.8v0.8l-0.1,0.8l-0.3,0.6l-0.5,0.5l-0.6,0.3h-0.8h-0.8h-0.8
		h-0.8h-0.8l-0.8,0.1l-0.8,0.1l-0.6,0.1l-0.8,0.1l-0.8,0.1l-0.6,0.1l-0.6,0.5l-0.6,0.4l-0.5,0.5l-0.5,0.6l-0.5,0.5l-0.4,0.6
		l-0.6,0.4l-0.6,0.4l-0.8,0.3l-0.6,0.3l-0.6,0.3l-0.8,0.1l-0.8-0.1l-0.6-0.1l-0.8-0.1l-0.8,0.1l-0.8,0.1l-0.8,0.1l-0.8-0.1h-0.8
		h-0.8l-0.8-0.3l-0.6-0.3l-0.5-0.4l-0.8-0.4l-0.8-0.1h-0.8l-0.8,0.1l-0.6,0.1l-0.8,0.1l-0.8,0.1l-0.8,0.1h-0.8H107l-1,0.1l-0.4-0.5
		l-0.6-0.4l-0.6-0.3l-0.8-0.1l-0.8-0.1H102l-0.6-0.3l-0.6-0.3l-0.3-0.6l-0.4-0.6l-0.1-0.6l-0.1-0.8l-0.1-0.8l-0.6-0.6l-0.3-0.6
		l-0.1-0.8l-0.3-0.6l-0.1-0.8l0.3-0.6l0.4-0.6l0.3-0.6l0.3-0.8l0.4-0.6l0.3-0.6l0.3-0.6l-0.1-0.8l-0.1-0.8l-0.1-0.6l-0.1-0.8v-0.8
		l0.1-0.8l0.3-0.8l0.1-0.6l0.1-0.8v-0.8l0.1-0.8v-0.8v-0.8v-0.8l-0.3-0.8l-0.1-0.6l-0.1-0.8v-0.9l0.1-0.6v-0.8l0.1-0.8v-0.8l0.4-0.4
		l0.5-0.5l0.4-0.6l0.5-0.5l0.6-0.5l0.4-0.6l0.3-0.6l0.3-0.8l0.1-0.8l0.3-0.6l0.5-0.4l0.4-0.9l0.1-0.8l0.3-0.8l0.1-0.6l-0.1-0.8V428
		l0.1-0.8v-0.8l0.1-0.6l0.4-0.6l0.3-0.8l0.3-0.6l0.1-0.8v-0.8v-0.8l0.1-0.8l0.4-0.6l0.5-0.5l0.3-0.8l0.3-0.6l0.3-0.6l0.3-0.8
		l0.3-0.6l0.6-0.9l0.4-0.6l0.4-0.6l0.5-0.4l0.4-0.6l0.5-0.6l0.4-0.6l0.3-0.6l0.4-0.6l0.4-0.6l0.4-0.6l0.5-0.4l0.5-0.6l0.5-0.6
		l0.3-0.6l0.3-0.6l0.1-0.8l0.1-0.8v-0.8l0.1-0.8l0.3-0.6l0.1-0.8l0.3-0.6l0.1-0.8l0.3-0.6l0.1-0.8l0.1-0.6l0.4-1.3l0.3-0.8l0.3-0.6
		l0.4-0.6l0.4-0.6l0.4-0.6l0.4-0.6l0.4-0.6l0.5-0.5l0.4-0.6l0.1-0.8l-0.1-0.8l-0.1-0.8l-0.1-0.6l-0.5-0.6l-0.4-0.6l-0.3-0.6
		l-0.3-0.8l-0.1-0.6l-0.1-0.8l-0.1-0.8l-0.1-0.8l-0.1-0.6v-0.8l0.4-0.8l-0.3-0.4l-0.1-0.8l0.1-0.8V377v-0.8v-0.8l-0.1-0.8l-0.1-0.6
		l-0.3-0.8l-0.3-0.6l-0.1-0.6l-0.1-0.8v-0.8l-0.1-0.8l-0.6-0.3l-0.8-0.3l-0.1-0.6l0.1-0.5l-0.4-0.5l-0.4-0.6l-0.5-0.5l-0.4-0.8
		l-0.1-0.6l0.3-0.8l0.4-0.6l-0.1-0.8l-0.1-0.6l0.1-0.8l0.1-0.8l-0.3-0.6l-0.5-0.8l-0.1-0.8l-0.1-0.8l-0.4-0.6l-0.3-0.6l-0.4-0.6
		l-0.4-0.6l-0.4-0.6l-0.4-0.6l-0.3-0.6l-0.3-0.8v-0.6v-0.8l0.1-0.8l0.1-0.8l0.1-0.8l0.1-0.6l0.1-0.8V346v-0.8v-0.8v-0.8l0.1-0.8
		l0.1-0.8l0.3-0.6l0.4-0.6l0.1-0.6l0.1-0.8l-0.1-0.8l-0.1-0.8l-0.1-0.8l-0.1-0.6l0.3-0.8l-0.1-0.8V334l0.1-0.8l0.1-0.8l0.4-0.6
		l0.1-1V330l0.3-0.6l0.3-0.8l0.3-0.6l0.1-0.8l-0.3-0.6l-0.3-0.6l-0.4-0.8v-0.8l0.3-0.6l0.4-0.6l0.5-0.5l0.3-0.8v-0.8v-0.8v-0.8
		l0.1-0.8l0.3-0.6l-0.1-0.8l-0.3-0.3l-0.1-0.8v-0.8v-0.8l-0.3-0.8l-0.4-0.6l-0.5-0.5l-0.4-0.6l-0.5-0.6l-0.5-0.5l-0.3-0.6l-0.5-0.6
		l-0.4-0.6l-0.3-0.6l-0.9-0.8l0.3-0.5l0.4-0.8l0.5-0.4l-0.1-0.8V304l0.1-0.6l0.1-0.8l0.1-0.8l-0.1-0.8l-0.5-0.5l-0.8-0.3l-0.6-0.3
		l-0.5-0.4l0.1-0.8l0.5-0.6l0.4-0.5l0.3-0.6l0.3-0.8l0.1-0.8v-0.8l-0.1-0.8l-0.3-0.6l-0.3-0.6l-0.1-0.8v-0.8l0.1-0.8l0.3-0.8
		l-0.4-0.6l0.3-0.6v-0.8v-0.8l0.4-0.6l0.3-0.6l0.1-0.8v-0.8l-0.5-0.5l-0.4-0.8l-0.6-0.5l-0.5-0.6l-0.4-0.6l0.1-0.6h0.8l0.6,0.3
		l0.6,0.4l0.6,0.4l0.8,0.1l0.4-0.5l0.1-0.8l-0.6-0.5l-0.6-0.4l0.1-0.6l0.6-0.1l0.6-0.4l0.5-0.5l0.4-0.6l0.3-0.6l0.5-0.6l0.1-0.6
		l0.5-0.6l0.6-0.4l0.6-0.4l0.5-0.5l0.3-0.6l0.3-0.8l0.3-0.6l0.4-0.6l0.5-0.6l0.6-0.5l0.5-0.5l0.5-0.5l0.5-0.6l0.4-0.5l0.5-0.6
		l0.4-0.6l0.5-0.5l0.5-0.6l0.4-0.6l0.4-0.6l0.4-0.5l0.5-0.6l0.3-0.6l0.3-0.8l0.6-0.1l0.6-0.1l1-0.4l0.6-0.4l-0.1-0.8l-0.4-0.6
		l-0.1-0.8l0.4-0.6l0.5-0.5l0.4-0.6l-0.3-0.6l-0.6-0.5l-0.6-0.3l-0.8-0.3l-0.8-0.1l-0.6-0.1l-0.6-0.4l-0.5-0.5l-0.3-0.8l0.1-0.8
		l0.3-0.6l0.4-0.6l0.3-0.6l0.3-0.8l0.4-0.5l0.4-0.6l-0.3-0.8l1.3-0.3l2.5-0.8l0.5-0.8l0.8-0.8l0.5-1.8l0.8-1.2l0.6-1.6l0.5-1.2
		l0.3-1.4v-1l-0.1-0.8l-0.1-0.8V233l-0.1-0.8l-0.3-0.6l-0.3-0.6l0.5-0.4l0.6-0.3l0.6-0.1l0.3-0.6l-0.4-0.6l-0.5-0.6l-0.6-0.5
		l-0.6-0.3l-0.6-0.3l-0.8-0.1l-0.6,0.3l-0.8,0.3l-0.6-0.1l-0.6-0.5l-0.5-0.5l-0.6-0.4h-0.8l-0.5,0.5l-0.6-0.1l-0.6-0.5l0.5-0.4
		l0.8-0.1l0.6-0.3h0.9l0.6-0.1l0.8-0.1l0.6-0.3l0.8-0.3l0.6-0.3l0.5-0.5l-0.1-0.8l-0.4-0.6l-0.5-0.5l-0.6-0.4l-0.6-0.5l-0.5-0.5
		l-0.8-0.3l-0.6-0.4l-0.5-0.5l-0.3-0.6l-0.3-0.8l-0.4-0.6l-0.4-0.6l-0.4-0.6l-0.3-0.6l-0.4-0.6l-0.4-0.6l-0.3-0.6l-0.3-0.6l-0.4-0.6
		l-0.3-0.8l-0.4-0.6l-0.4-0.6l-0.6-0.5l-0.5-0.4l-0.6-0.3l-0.6-0.4l-0.6-0.5l-0.6-0.3l-0.5-0.5l-0.3-0.8v-0.8l0.4-0.6l0.3-0.6
		l0.5-0.6l-0.1-0.5l-0.8-0.1l-0.5-0.5l-0.6-0.3l-0.1-0.8l0.3-0.6l0.1-0.8v-0.8l-0.1-0.8v-0.8v-0.8l0.3-0.6l0.4-0.6l0.1-0.8l0.1-0.8
		l-0.1-0.8l-0.1-0.8l-0.1-0.6l-0.4-0.6l-0.1-0.8v-0.8l0.1-0.8l0.3-0.6l0.3-0.6l0.6-0.4l0.6-0.3l0.8-0.1l0.6-0.3v-0.5l0.1-0.6
		l0.4-0.8l0.3-0.6l0.1-0.8l0.1-0.6l0.1-0.8l0.1-0.8l0.1-0.8l0.3-0.6l0.8-0.1l0.8-0.1h0.8h0.8l0.8-0.1l0.6-0.3l0.6-0.4l0.5-0.6
		l0.3-0.6l0.4-0.6l0.5-0.5l0.5-0.6l0.6-0.5h0.8l0.6-0.4l0.3-0.6l0.1-0.8l0.3-0.6l0.3-0.6l0.5-0.6l0.5-0.5l0.1-0.8l0.3-0.6l0.4-0.6
		l0.6-0.5l0.6-0.1l0.8,0.3l0.6,0.4l0.6,0.4l0.6,0.3l0.6-0.4l0.5-0.6l0.4-0.6l-0.1-0.8l-0.1-0.6v-0.9v-0.6l0.1-0.8l0.5-0.5l0.6-0.4
		l0.5-0.5l0.1-0.8l0.1-0.8v-0.8l0.1-0.8l0.3-0.6l0.1-0.6l-0.6-0.4l-0.6-0.4l-0.1-0.6l-0.3-0.8v-0.8l0.1-0.6l0.1-0.8l0.3-0.6l0.4-0.8
		l0.1-0.6l0.1-0.8l0.3-0.6l0.3-0.8l0.1-0.6l1.3-1.3l0.8-0.3l-0.3-1l0.1-0.6l0.1-0.8l0.1-0.8l0.3-0.6l0.3-0.8l0.3-0.6l0.5-0.5
		l0.5-0.6l0.6-0.5l0.5-0.5l0.5-0.5l0.3-0.6l0.3-0.8v-0.8l0.1-0.8v-0.8l0.1-0.8l-0.1-0.8l-0.1-0.6l-0.1-0.8V131l-0.1-0.8l-0.3-0.6
		l-0.3-0.8l-0.5-0.5l-0.3-0.6l-0.1-0.8l0.1-0.8l0.6-0.4l0.6-0.4l0.6-0.4l0.6-0.3l0.6-0.4l0.6-0.1l0.8-0.3l0.6-0.4l0.4-0.6l0.5-0.5
		l0.4-0.6l0.4-0.6l0.6-0.5l0.4-0.6l0.4-0.6l0.4-0.6l0.3-0.6l0.3-0.6l0.3-0.8l0.5-0.5l0.1-0.6l0.3-0.6l0.3-0.8l0.1-0.6v-0.8l0.3-0.8
		l0.3-0.6l0.3-0.8l0.1-0.6l0.1-0.8l0.1-0.8l0.3-0.6l0.3-0.8v-0.8l0.1-0.6l0.3-0.8l0.1-0.6v-0.9l0.1-0.8l-0.4-0.5l-0.6-0.3l-0.6-0.6
		l-0.5-0.5l-0.6-0.4l-0.5-0.6l-0.5-0.5l-0.5-0.5l-0.6-0.4l-0.6-0.5l-0.4-0.6v-0.8l-0.1-0.8l0.6-0.6l0.5-0.5l0.5-0.5l0.5-0.6l0.5-0.5
		l0.6-0.5l0.6-0.3l0.8-0.3l0.6-0.1l0.8-0.1l0.8,0.1l0.6,0.3l0.8,0.1l0.8,0.3l0.6,0.1h0.8l0.8,0.1l0.8,0.1h0.8l0.6-0.1l0.8-0.4
		l0.4-0.5l-0.1-0.6l0.1-0.8l0.1-0.8l0.3-0.6l0.4-0.6l0.4-0.6l0.6-0.5l0.5-0.5l0.5-0.6l0.4-0.5l0.4-0.6l0.3-0.8v-0.8l0.1-0.8l0.1-0.6
		l0.1-0.8l0.1-0.8v-0.8v-0.8v-0.9v-0.8v-0.8l0.1-0.8l0.6-0.1l0.6-0.3l0.8-0.1l0.6-0.4l0.6-0.3l0.8-0.1h0.8l0.8,0.1l0.6,0.1l0.8,0.3
		l0.8,0.1l0.6,0.3l0.6,0.3h0.8l0.6-0.3l0.8-0.1l0.8-0.1l0.6-0.1l0.8,0.3l0.6,0.3l0.6,0.4l0.6,0.3l0.5,0.5l0.5,0.6l0.6,0.5h0.6h0.8
		h0.8l0.6-0.3l0.8-0.3l0.5-0.5l0.8-0.1h0.8l0.6,0.4l0.6,0.4l0.6,0.3h0.8h0.8l0.8-0.3l0.6-0.3l0.6-0.1h0.8l0.8,0.1l0.1-0.5l-0.1-0.8
		v-0.8l0.3-0.6l0.4-0.6l0.3-0.8l0.1-0.6l0.3-0.8l0.1-0.6l0.1-0.8l0.1-0.8l0.1-0.8v-0.8v-0.8v-0.8l0.3-0.8l0.1-0.6l0.1-0.8l0.1-0.8
		l0.3-0.6l0.3-0.6l0.5-0.6l0.5-0.4l0.4-0.8l0.5-0.5l0.4-0.6l0.3-0.8l0.3-0.6l0.3-0.6l0.4-0.6l0.4-0.6l0.3-0.6l0.3-0.8l0.4-0.6
		l0.3-0.6l0.3-0.6l0.5-0.6l0.5-0.6l0.4-0.5l0.6-0.5l0.3-0.6l0.6-0.8l0.4-0.5l0.3-0.8l0.1-0.8l0.4-0.6l0.4-0.5l0.5-0.6l0.5-0.6
		l0.3-0.6l0.4-0.6l0.4-0.6l0.4-0.6l0.1-0.6l0.3-0.8l0.1-0.6l0.1-0.8l0.3-0.8l0.4-0.6l0.5-0.5l0.5-0.6l0.1-0.6v-0.8l0.3-0.8l0.5-0.5
		l0.6-0.5l0.5-0.6l0.5-0.5l0.5-0.6l0.4-0.5l0.4-0.8l0.3-0.6l0.4-0.6l0.3-0.6l0.1-0.8l0.6-0.3l0.6-0.4l0.6-0.3l0.8-0.4l0.6-0.3
		l0.6-0.3l0.6-0.4l0.6-0.4l0.6-0.3l0.8-0.3l0.6-0.1l0.8-0.1l0.8,0.3l0.6,0.4l0.6,0.3l0.8,0.1l0.6,0.3l0.6,0.3l0.6,0.5l0.6,0.4
		l0.8,0.1h0.8l0.6,0.3l0.4,0.6l0.6,0.3l0.6,0.4l0.6,0.4l0.8,0.6l0.8,0.4l0.5,0.5l0.5,0.6l0.6,0.3l0.6,0.4l0.3,0.6l0.6,0.4l0.6,0.1
		l0.6,0.5l0.5,0.5l1,0.4h0.8l0.6-0.4l0.5-0.4l0.6-0.5l0.4-0.5l0.6-0.5l0.6-0.3l0.6-0.3l0.6-0.3l0.6-0.5l0.4-0.6l0.3-0.6l0.1-0.8
		l0.1-0.8V25l0.3-0.6l-0.3-0.4l0.4-0.8l0.4-0.5l0.1-0.8l0.1-0.8l0.3-0.6l0.1-0.8l0.4-0.6l0.5-0.6l0.6-0.4l0.5-0.4l0.8-0.4l0.6-0.1
		l0.6-0.4l0.6-0.4l0.6-0.4h0.8h0.8h0.8l0.6-0.4l0.6-0.3l0.8,0.1h0.8l0.6,0.1h0.8l0.6-0.3l0.6-0.4l0.6-0.3l0.8-0.3l0.6-0.1l0.8-0.3
		l0.8-0.1l0.6-0.3l0.6-0.3l0.6-0.4l0.8-0.3l0.8-0.1l0.6,0.4l0.5,0.5l0.4,0.6l0.4,0.6l0.4,0.6l0.5,0.6l0.5,0.5l0.4,0.6l0.4,0.6
		l0.6,0.4l0.6,0.3l0.8,0.1h0.8h0.8l0.8-0.1l0.8-0.1l0.8-0.1l0.8-0.1h0.8l0.6-0.3l0.8-0.1l0.8-0.1l0.6-0.1l0.8,0.4l1-0.4l0.6-0.3
		l0.8-0.1l0.6-0.1l0.8-0.3l0.6-0.3l0.6-0.5l0.5-0.5l0.5-0.5l0.4-0.6l0.5-0.5l0.6-0.4l0.6-0.4l0.6-0.5l0.3-0.6l0.4-0.6l0.4-0.6
		l0.5-0.5l0.6-0.4l0.6-0.4l0.6-0.3l0.6-0.4l0.5-0.5l0.6-0.4l0.5-0.5l0.6-0.4l0.6-0.4l0.5-0.4l0.6-0.5l0.3-0.6l0.1-0.8V3.2l0.4-0.6
		l0.9,0.8l0.5,0.6l0.3,0.6l0.3,0.6l0.5,0.5l0.6,0.5l0.6,0.5l0.6,0.3h0.8l0.6-0.4l0.5-0.5l0.6-0.5l0.6-0.4l0.5-0.5l0.5-0.6l0.5-0.5
		l0.3-0.5l0.5-0.5l0.8-0.3l0.8-0.1l0.6,0.1l0.5,0.1l0.6-0.3l0.8-0.3l0.6-0.3l0.6-0.4l0.4-0.6l0.4-0.6v-0.6l-0.1-0.8l-0.5-0.6
		l-0.5-0.5l-0.5-0.6l-0.6-0.4L327-4.2l-0.4-0.5l-0.1-0.8l0.1-0.8l0.5-0.5l0.6-0.4l0.5-0.5l0.5-0.6l0.1-0.8v-0.6l-0.1-0.8l-0.1-0.8
		v-0.9l0.1-0.6l0.3-0.8l0.5-0.4l0.6-0.5l0.6-0.3h0.8l0.6-0.1l0.8-0.9l0.6,1l0.4,0.6l0.4,0.6l0.4,0.6l0.5,0.6l0.4,0.5l0.4,0.6
		l0.4,0.6l0.3,0.6l0.4,0.6l0.4,0.8l0.3,0.6l0.3,0.6l0.4,0.6l0.5,0.6l0.6,0.4l0.6,0.1l0.8,0.1l0.6,0.4l0.6,0.5l0.4,0.6v0.8l-0.3,0.6
		l-0.1,0.8l0.1,0.8l0.1,0.6l0.3,0.8v0.8v0.8L342.7,3l-0.4,0.6v0.8l0.4,0.8l0.3,0.6l0.3,0.6l0.1,0.8l0.3,0.8v0.6l-0.1,0.8v0.8
		l0.4,0.6l0.5,0.6l0.1,0.8l0.1,0.6l0.4,0.6l0.6,0.3h0.8l0.6,0.4l0.6,0.1l0.6-0.6l0.6-0.4l0.4,0.5l0.5,0.5l0.5-0.3l0.8-0.1h0.6
		l0.4-0.6l0.8-0.1l0.5,0.5l0.6,0.6l0.5,0.4h0.8l0.8-0.3l0.6-0.1l0.8,0.1l0.6,0.3l-0.3,0.8l-0.1,0.6l-0.3,0.8l-0.3,0.6l-0.4,0.6
		l-0.5,0.5l-0.5,0.5l-0.6,0.5l-0.5,0.5l-0.5,0.6l-0.5,0.5l-0.6,0.5l-0.6,0.3l-0.6,0.4l-0.6,0.3l-0.8,0.1l-0.6-0.1l-0.8-0.1l-0.8,0.1
		l-0.6,0.3l-0.8,0.3l-0.8-0.1l-0.6,0.4l-0.5,0.5l-0.6,0.4l-0.8-0.1l-0.6-0.3l-0.8,0.3l-0.4,0.5l-0.3,0.6l-0.4,0.6l-0.5,0.6l-0.5,0.4
		l-0.6,0.4h-0.8l-0.8,0.1l-0.6,0.4l-0.6,0.4l-0.5,0.5l-0.6,0.4l-0.8-0.1l-0.6-0.3l-0.6-0.5l-0.6-0.1l-0.8,0.3l-0.6,0.3l-0.6,0.3
		l-0.8,0.1H329l-0.6-0.3l-0.8-0.1h-0.6v0.8v0.8l0.1,0.8v0.8V33l-0.1,0.8l-0.6,0.1l-0.5,0.5l-0.3,0.8l-0.1,0.6l-0.1,0.8l-0.1,0.8v0.8
		L325,39l-0.3,0.6l-0.4,0.6l-0.6,0.4l-0.6,0.4l-0.6,0.4l-0.3,0.5l0.6,0.3l0.8-0.3h0.8l0.6,0.3l0.5,0.6l0.5,0.5l0.6,0.5l0.8,0.8
		l0.8,0.3l0.4,0.6l0.4,0.6l0.3,0.6l0.4,0.6l0.3,0.6l0.5,0.5l0.6,0.4l0.6,0.4l0.8,0.3h0.8l0.6,0.3l0.6,0.3l0.8,0.3l0.6,0.3l0.6,0.3
		l0.8,0.1l0.6,0.3L339,52l0.5,0.5l0.6,0.5l0.6,0.4l0.6-0.1l0.8-0.1h0.8l0.8,0.1l0.6,0.3l0.6,0.4h0.8l0.8-0.3l0.6-0.1l0.8-0.3
		l0.6-0.1h0.8l0.8,0.1l0.6,0.3l0.6,0.5l0.4,0.6l0.4,0.5l0.4,0.6l0.4,0.8l0.1,0.6l0.3,0.6l0.1,0.8l-0.1,0.8l-0.4,0.6l-0.3,0.6v0.8
		l-0.1,0.8l-0.1,0.8l0.1,0.8l-0.1,0.8l-0.1,0.6v0.8v0.8v0.8v0.8l-0.1,0.8l-0.3,0.9l0.5,0.6l0.4,0.6l0.3,0.6l0.4,0.6l0.5,0.6l0.6,0.4
		l0.8-0.1l0.6-0.1l0.8-0.3l0.8-0.1l0.5,0.5l0.4,0.6l0.3,0.6l0.3,0.6l0.5,0.6l0.6,0.5l0.6,0.4l0.4,0.3v0.8V79v0.8l-0.3,0.6l-0.3,0.8
		l-0.3,0.6l-0.3,0.6l-0.4,0.6l-0.4,0.6l-0.5,0.6l-0.3,0.6l-0.1,0.8l-0.1,0.6l-0.1,0.8l-0.3,0.6l-0.3,0.8l-0.3,0.6l-0.1,0.8l-0.3,0.6
		l-0.1,0.8l-0.1,0.6l-0.3,0.8l-0.3,0.6l-0.3,0.8l-0.1,0.6l-0.4,0.6l-0.4,0.6l-0.4,0.6l-0.1,0.8v0.8l-0.1,0.8l-0.3,0.6v0.8v0.8
		l0.1,0.8l0.5,0.5l0.6,0.4l0.6,0.5l0.3,0.6l-0.1,0.6l-0.1,0.8l-0.3,0.6l-0.5,0.6l-0.6,0.5l-0.6,0.1h-0.8l-0.6,0.5l-0.4,0.6l-0.4,0.6
		l-0.3,0.6l-0.3,0.6v0.8l-0.3,0.8l-0.1,0.6l-0.1,0.8l-0.4,0.8l-0.5-0.5l-0.4-0.6l-0.4-0.6l-0.5-0.5l-0.6-0.3l-0.8-0.3h-0.8l-0.5,0.4
		l-0.4,0.6l-0.4,0.6l-0.5,0.6l-0.6,0.3h-0.8l-0.8,0.3l-0.6,0.3l-0.6,0.3l-0.6,0.4L340,116l-0.5,0.6l-0.5,0.5l-0.6,0.4l-0.5,0.4
		l-0.8,0.3l-0.6-0.1l-0.5-0.5l-0.3-0.6l-0.3-0.8l-0.1-0.8l-0.5-0.5l-0.6-0.4l-0.6-0.3l-0.5-0.6l-0.1-0.6l-0.3-0.8l-0.4-0.6l-0.8-0.1
		l-0.6,0.3l-0.8,0.3l-0.4,0.8l-0.3,0.6l-0.4,0.5l-0.8,0.1l-0.6-0.3l-0.8-0.4l-0.4,0.6l-0.3,0.8l-0.3,0.6l-0.4,0.6l-0.5,0.5l-0.5,0.6
		h-0.8l-0.8,0.1l-0.6,0.5l-0.4,0.5l-0.4,0.6l-0.5,0.6l-0.4,0.6l-0.5,0.5l-0.5,0.6l-0.5,0.5l-0.6,0.5l-0.5,0.5l-1,0.3l-0.5,0.5
		l-0.4,0.6v0.8l0.1,0.8l0.1,0.8l0.1,0.8v0.8v0.8v0.8l-0.1,0.8l0.3,0.8l0.3,0.6l0.5,0.5l0.4,0.6l0.4,0.6l0.6,0.5l0.6,0.3l0.8,0.1
		l0.8,0.1l0.4,0.5l0.3,0.8l-0.5,0.6l-0.5,0.5l-0.1,0.8v0.8l0.1,0.8l0.1,0.8l-0.3,0.9h-0.8l-0.6-0.1h-0.8l-0.4,0.6l-0.4,0.6l-0.3,0.6
		l-0.3,0.8l-0.4,0.6l-0.5,0.5l-0.6,0.3l-0.8-0.3l-0.5-0.5l-0.8,0.1l-0.4,0.6l0.1,0.9l0.1,0.6v0.8l-0.4,0.6l-0.5,0.6l-0.5,0.5
		l-0.6,0.4H310h-0.9h-0.8h-0.8l-0.6,0.4l-0.4,0.6l-0.3,0.6l-0.1,0.8l0.1,0.6l0.3,0.8l-0.3,0.6l-0.6,0.5l-0.5,0.5l-0.5,0.6l-0.3,0.6
		l-0.1,0.8v0.8l-0.4,0.6l-0.6,0.4l-0.3,0.9l0.4,0.6l0.4,0.6l0.3,0.8v0.8l0.5,0.5l0.4,0.6l0.1,0.6l-0.1,0.8l-0.4,0.6l-0.5,0.6
		l-0.5,0.5l-0.4,0.6l-0.3,0.6l-0.3,0.6l-0.3,0.6L302,171l0.1,0.8l0.3,0.6l0.5,0.5l0.4,0.6l0.3,0.8l0.1,0.8v0.8l-0.1,0.8v0.8
		l-0.1,0.8v0.8l0.3,0.6l0.4,0.6l0.3,0.8l0.1,0.6l0.6,0.5h0.8l0.8,0.1l0.8,0.1h0.6l0.8-0.3h0.6l0.8,0.3l0.5,0.5l0.4,0.6l0.6,0.4
		l0.8-0.1l0.8-0.3l0.8,0.1l0.1,0.8l0.4,0.5l0.4,0.5l-0.1,0.8l0.4,0.6h0.8l0.8-0.3h0.8l0.6,0.3l0.6,0.3l0.8,0.3l0.6-0.1h0.8l0.3,0.8
		l-0.1,0.6l-0.4,0.8l-0.3,0.6v1l0.5,0.4l0.6,0.5l0.6,0.5l0.4,0.5l0.4,0.8l0.3,0.6l0.5,0.5l0.5,0.6l0.1,0.8l-0.1,0.8l-0.3,0.6
		l-0.1,0.8l0.1,0.8v0.8l0.3,0.6l0.5,0.6l0.6,0.4l0.5,0.6l0.5,0.5l0.4,0.6l0.3,0.6l0.1,0.8l0.3,0.8l0.5,0.4l0.6,0.3l0.6,0.4l0.5,0.6
		l0.3,0.6v0.8v0.8v0.8v0.8v0.9l0.1,0.6l0.4,0.6l0.6,0.5l0.6,0.3h0.8l0.3,0.6l0.4,0.5l0.6,0.5l0.5,0.6l0.3,0.6l0.1,0.8l-0.5,0.5
		l-0.6,0.4l-0.6,0.4l-0.4,0.6l-0.3,0.6l0.4,0.6l-0.1,0.6l0.6,0.4l0.6-0.1l0.8-0.1h0.8l0.8,0.1h0.8l0.8,0.3l0.6,0.1l0.6,0.3l0.8,0.3
		l0.9,0.4l0.1,0.8v0.8l-0.1,0.6l-0.1,0.8l-0.1,0.8v0.8l-0.1,0.6l-0.1,0.8l-0.3,0.8v0.8l-0.1,0.6l-0.1,0.8l-0.3,0.6l-0.4,0.6
		l-0.3,0.6l-0.5,0.6l-0.4,0.6l-0.4,0.6l-0.4,0.6l-0.3,0.8l-0.4,0.5l-0.4,0.6l-0.5,0.6l-0.4,0.6l-0.3,0.8l-0.1,0.6l0.1,1l-1.3,2.7
		l-0.4-0.4l-0.8,0.3l-0.5,0.4l-0.5,0.6l-0.3,0.6l-0.1,0.8v0.8l-0.1,0.8l-0.1,0.8l-0.1,0.6l-0.4,0.6H330l-0.6,0.5l-0.4,0.6l-0.5,0.6
		l-0.4,0.6l-0.3,0.6v0.8l-0.1,0.8l-0.3,0.6l-0.1,0.8l-0.3,0.6l-0.1,0.8l-0.3,0.6l-0.3,0.6l-0.4,0.8l-0.4,0.6l-0.4,0.5l-0.5,0.6
		l-0.6,0.5l-0.3,0.6l-0.1,0.8l-0.4,0.6l-0.6,0.4l-0.6,0.3l-0.6,0.3l-0.8,0.3l-0.5,0.5l-0.3,0.8l0.3,0.6l0.3,0.8v0.6l-0.4,0.6
		l-0.4,0.6l-0.3,0.8l-0.1,0.6l0.6,0.5l0.5,0.5l0.5,0.5l0.5,0.6l0.3,0.6l-0.4,0.6l-0.5,0.6l-0.1,0.6l0.4,0.6l0.5,0.6l-0.1,0.8
		l-0.1,0.8l-0.4,0.6l-0.5,0.5l-0.4,0.6v0.8l0.1,0.8l0.4,0.6l0.3,0.6l0.4,0.6l0.3,0.8l0.3,0.6l0.1,0.8l-0.1,0.8l-0.4,0.6l-0.5,0.5
		l-0.3,0.5l-0.8,0.1l-0.8-0.1l-0.4-0.6l-0.1-0.8v-0.8l-0.6-0.5l-0.6-0.3l-0.8,0.3l-0.6,0.4l-0.3,0.8l-0.3,0.6l-0.1,0.8l-0.1,0.6
		l0.3,0.8l0.1,0.6l-0.5,0.5v0.8l0.1,0.9l-0.4,0.6l-0.6,0.3l-0.6,0.4l-0.6,0.4l-0.5,0.6l-0.5,0.5l-0.6,0.3l-0.8,0.1l-0.5,0.1l0.1,0.8
		l0.1,0.8l0.1,0.6l-0.6,0.4h-0.8l-0.6-0.1H307l-0.8-0.1l-0.6-0.3l-0.8-0.3h-0.8h-0.8l-0.6,0.4l-0.4,0.6l-0.4,0.6l0.3,0.6l0.6,0.3
		h0.8l0.9,0.5l-0.1,0.6l-0.5,0.5l-0.5,0.6l-0.5,0.6l-0.3,0.6l0.1,0.6l0.5,0.5l0.6,0.5h0.8h0.8h0.8l0.5,0.5l-0.1,1.2l-0.5,0.6
		l-0.1,0.6l0.3,0.8l0.6-0.1l0.8,0.3l0.5,0.5l0.5,0.6l0.4,0.6l0.3,0.6l-0.1,0.6l-0.4,0.6l-0.4,0.6l-0.3,0.6l-0.1,0.8l0.1,0.8l0.6,0.5
		l0.6,0.4l0.3,0.8v0.8l0.4,0.6h0.8h0.8l0.6,0.1l0.6,0.5l0.5,0.6l0.5,0.5l0.6,0.4l0.8,0.3l0.6,0.3h0.8h0.8l0.5,0.5l0.4,0.6l0.4,0.6
		l0.3,0.8L319.2,327.9L319.2,327.9"/>
</g>
</svg>
