<?xml version="1.0" encoding="utf-8"?>
<!-- Generator: Adobe Illustrator 27.0.0, SVG Export Plug-In . SVG Version: 6.00 Build 0)  -->
<svg version="1.1" id="Layer_1" xmlns="http://www.w3.org/2000/svg" xmlns:xlink="http://www.w3.org/1999/xlink" x="0px" y="0px"
	 viewBox="0 0 500 500" style="enable-background:new 0 0 500 500;" xml:space="preserve">
<style type="text/css">
	.st0{fill:#E74646;stroke:#FFFFFF;stroke-width:4.6041;stroke-linecap:square;stroke-linejoin:bevel;stroke-miterlimit:3.998;}
</style>
<g transform="matrix(0.999751,0,0,0.999751,18.6633,21.7738)">
	<path vector-effect="none" class="st0" d="M183.8,56.1l-0.3-0.4v-0.5l0.3-0.4l0.1-0.5l0.2-0.4l0.5-0.1l0.5,0.2l0.4,0.3l0.4-0.1
		v-0.4l-0.1-0.5l-0.1-0.5l-0.1-0.5l0.2-0.4h0.5l0.4,0.2l0.4,0.3l0.3,0.4l0.3,0.4l0.3,0.4l0.4,0.3l0.5,0.1l0.4,0.1l0.3,0.4l0.3,0.3
		l0.1,0.5l-0.2,0.4v0.5v0.5l-0.1,0.5l-0.1,0.5l-0.1,0.5l0.3,0.4l0.4,0.3l0.3,0.4l0.2,0.4l0.2,0.5l-0.1,0.5l-0.1,0.5l-0.3,0.3
		l-0.3,0.3l-0.3,0.3l-0.2,0.5l-0.3,0.3l-0.4,0.3l-0.3,0.4l-0.4,0.3l-0.2,0.4l-0.2,0.4l-0.2,0.5v0.5l-0.1,0.5l-0.3,0.4l-0.3,0.3
		l-0.3,0.4l-0.4,0.3l-0.4,0.3l-0.3,0.3l-0.3,0.4l-0.2,0.5l-0.3,0.3l-0.3,0.3l-0.3,0.3l-0.2,0.5l0.1,0.4l0.3,0.4l0.3,0.4l0.3,0.3
		l0.4,0.3l0.1,0.5v0.5l-0.1,0.5l-0.2,0.5l-0.2,0.4l-0.3,0.4l-0.3,0.4l-0.3,0.4v0.4l0.4,0.4l0.3,0.3l0.5,0.2l0.4,0.2l0.4-0.2l0.3-0.4
		l0.2-0.5l0.2-0.4l0.4-0.3l0.4-0.2l0.3-0.3l0.3-0.4l0.3-0.3l0.3-0.4l0.3-0.3l0.2-0.5l0.2-0.5l0.1-0.4v-0.5l0.1-0.5l0.3-0.4l0.5-0.2
		l0.4,0.2l0.4,0.3l0.3,0.4l0.3,0.4l0.3,0.3l0.4,0.2l0.5,0.2l0.4,0.2l0.5,0.2l0.4-0.2l0.4-0.3l0.3-0.4l0.2-0.5v-0.5l0.2-0.4l0.2-0.5
		l0.3-0.4l0.1-0.4v-0.5l0.2-0.4l0.4-0.3l0.3-0.3l0.2-0.4l0.3-0.4l0.5-0.1h0.5h0.5l0.5,0.1h0.5l0.5-0.1l0.4-0.3l0.4-0.3l0.4-0.3
		l0.1-0.4l0.3-0.4l0.2-0.4l0.2-0.4l0.3-0.4l0.1-0.5l0.3-0.4l0.4-0.3l0.4-0.3h0.4l0.5,0.2l0.4,0.2l0.3,0.4l0.3,0.3l0.4,0.3l0.5,0.2
		l0.5,0.1l0.4-0.2l0.3-0.4h0.4l0.5,0.1l0.4-0.3l0.2-0.4l0.3-0.3l0.7-0.3l0.3-0.4l0.3-0.3l0.3-0.4v-0.5l0.2-0.4l0.3-0.5v-0.4
		l-0.1-0.5l-0.1-0.5l0.2-0.4l0.4-0.2l0.3-0.3l0.1-0.5l-0.3-0.4l-0.3-0.4l-0.3-0.3l-0.4-0.3h-0.5l-0.5-0.2l-0.4-0.3l-0.3-0.3
		l-0.3-0.3l-0.4-0.3l-0.4-0.2l-0.4-0.3l-0.3-0.3l-0.1-0.4l-0.1-0.5l-0.2-0.5l-0.2-0.4l-0.2-0.4v-0.5l0.2-0.5l0.3-0.4l0.2-0.4
		l0.2-0.4l0.3-0.4l0.3-0.4l-0.2-0.4l-0.5-0.2l-0.3,0.4l-0.3,0.3l-0.4,0.3l-0.5,0.1l-0.4-0.3l-0.1-0.4l0.1-0.5L207,47l0.5-0.2
		l0.4-0.2l0.4-0.3l0.2-0.4l-0.2-0.4L208,45l-0.4-0.3l-0.4-0.2l-0.5-0.1l-0.5-0.1l-0.4-0.2l-0.4-0.3l0.2-0.5l0.3-0.3l0.3-0.4l0.2-0.4
		l0.1-0.5l-0.2-0.5l-0.2-0.4l-0.2-0.5l-0.2-0.4l-0.3-0.4L205,39l-0.3-0.4l-0.3-0.4l-0.3-0.4l-0.3-0.4l-0.3-0.4l-0.2-0.4l0.1-0.5
		l0.2-0.5l0.3-0.3h0.5h0.5l0.5-0.1l0.3-0.3l0.3-0.3l0.4-0.3l0.4-0.3l0.4-0.3l0.7,0.4l0.4-0.2l0.5-0.1l0.4,0.2l0.4,0.3l0.4,0.1h0.5
		l0.5,0.2h0.5l0.4-0.2l0.2-0.4l0.3-0.4l0.2-0.5l0.3-0.5l0.2-0.5l0.2-0.4l0.3-0.5l0.2-0.5l0.3-0.5l0.2-0.4l0.4-0.1l0.5,0.2l0.4,0.3
		l0.4,0.2l0.5,0.1l0.5-0.1l0.4-0.3l0.5-0.1h0.5l0.5,0.1l0.5-0.1h0.5l0.5,0.1l0.4,0.2L222,30l0.4-0.3h0.5l0.5,0.2l0.4,0.1l0.5,0.2
		l0.4-0.2l0.3-0.4L225,29l-0.3-0.3l-0.4-0.3l-0.3-0.4l-0.3-0.3l-0.3-0.3L223,27l-0.3-0.4l0.1-0.7l0.5-0.1h0.5l0.4-0.2l0.4-0.3
		l0.2-0.4l0.4-0.2h0.5l0.4-0.3l0.4-0.3l0.3-0.4l0.4-0.3l0.4-0.3l0.3-0.3l0.3-0.4l0.3-0.4l0.1-0.5l0.3-0.4l0.4-0.3l0.4-0.3l0.4-0.2
		l0.4-0.3l0.5,0.2l0.5,0.2l0.5,0.1l0.4,0.2l0.5,0.1h0.5l0.3-0.3l0.1-0.5l0.2-0.5l0.4-0.3l0.4-0.1l0.5,0.1l0.5,0.1l0.5,0.1l0.5,0.1
		h0.3l0.3,0.4l0.3,0.4l0.2,0.4v0.5v0.5L239,22l0.4,0.3l0.2,0.4l-0.1,0.5l-0.2,0.4v0.6l0.1,0.4l0.2,0.5l0.3,0.3l0.4,0.3l0.4,0.2
		l0.5,0.1l0.5,0.2h0.5l0.5,0.2l0.4,0.2l0.4,0.2l0.5,0.3l0.4,0.2l0.3,0.3l0.1,0.5v0.5l0.1,0.5l0.1,0.4l0.2,0.5l0.3,0.3l0.4,0.2
		l0.4,0.3l0.3,0.4l0.2,0.5l-0.3,0.3l-0.4,0.3l-0.5,0.1l-0.4,0.3l-0.3,0.3l0.1,0.5l0.3,0.3l0.3,0.3l0.2,0.5v0.5v0.5l-0.1,0.5
		l-0.3,0.4l-0.4,0.3l-0.3,0.4l-0.3,0.3l-0.1,0.5v0.5l0.2,0.5l0.4,0.3l0.4,0.2l0.4,0.2l0.4,0.3l0.3,0.4v0.5v0.5l-0.2,0.5l-0.1,0.4
		l-0.2,0.5l-0.3,0.3l-0.2,0.5l-0.2,0.4l-0.2,0.4l-0.1,0.6l0.1,0.5l0.3,0.3l0.5,0.2l0.4,0.2l0.4,0.2l0.5,0.2l0.4,0.3l0.3,0.3l0.4,0.3
		l0.4,0.2l0.5,0.2l0.4,0.2l0.4,0.2l0.5,0.3l0.3,0.3l0.4,0.3l0.4,0.3l0.4,0.3l0.5,0.1l0.5,0.1l0.5-0.1h0.5l0.5,0.2l0.5,0.1l0.4,0.2
		l0.5-0.1l0.4-0.1l0.2-0.5l0.2-0.4l0.3-0.4l0.3-0.4l0.3-0.4l0.3-0.3l0.5-0.2l0.4-0.2l0.5-0.1l0.5,0.1l0.3,0.3l0.3,0.4l0.1,0.5v0.5
		l-0.2,0.5l-0.3,0.3l-0.3,0.3l-0.5,0.2l-0.3,0.4l-0.2,0.4l-0.1,0.5l0.2,0.5v0.5l0.2,0.4l0.2,0.4l0.4,0.3l0.4,0.4l0.3-0.2l0.5-0.1
		l0.3-0.3l0.3-0.4l0.3-0.3l0.3-0.3l0.5-0.1l0.5-0.1l0.5,0.2l0.4,0.2l0.3,0.3l0.4,0.3l0.3,0.4l0.4,0.3l0.4,0.2l0.5-0.1l0.5-0.1
		l0.4-0.2h0.5l0.3,0.3l0.4,0.3l0.4,0.3l0.4,0.3l0.4,0.1h0.5h0.5l0.5-0.2l0.4-0.2l0.4-0.2l0.5-0.1l0.5-0.1l0.4-0.1l0.5-0.1l0.5,0.1
		l0.5,0.1h0.6l0.5,0.1l0.4,0.1l0.5,0.2l0.4,0.2l0.5,0.1h0.5h0.5h0.5h0.5l0.2-0.4h0.5l0.5-0.1l0.5-0.1l0.5-0.1l0.4,0.2l0.4,0.3
		l0.4,0.3l0.3,0.3l0.4,0.3l0.4,0.3l0.3,0.3l0.3,0.4l0.3,0.4l0.3,0.4l0.3,0.3l0.4,0.3l0.3,0.4l0.3,0.4v0.5l-0.1,0.5l-0.2,0.5
		l-0.2,0.4l-0.3,0.4l-0.3,0.4l-0.1,0.5l-0.1,0.5l0.2,0.4l0.4,0.3l0.3,0.2v0.5l0.1,0.4l0.1,0.5l0.2,0.5l0.1,0.4l0.2,0.5l0.4,0.3
		l0.3,0.3l0.3,0.4l0.1,0.5l-0.1,0.4L291,70l0.4,0.3l0.4,0.3l0.3,0.4l0.3,0.4l0.3,0.4l0.3,0.4l0.3,0.4l0.2,0.4l0.2,0.5l0.3,0.4
		l0.4,0.2l0.5,0.2l0.5-0.1h0.5l0.5-0.1h0.5l0.5,0.1l0.4,0.1l0.5,0.3l0.4,0.2l0.4,0.3l0.3,0.3l0.2,0.4l-0.1,0.5l-0.3,0.4l-0.4,0.3
		l-0.4,0.1l-0.4-0.3l-0.4-0.3l-0.4-0.2l-0.5-0.2l-0.4-0.2l-0.4-0.3l-0.4-0.2l-0.5,0.1l-0.3,0.3l-0.1,0.5l0.2,0.5l0.2,0.4l0.2,0.4
		l0.1,0.5l0.1,0.5l0.1,0.5v0.5l0.1,0.4l0.2,0.5l0.2,0.4l0.1,0.5l-0.1,0.5l0.1,0.5l0.1,0.4l0.1,0.5l0.2,0.5l0.2,0.4l0.3,0.4l0.1,0.5
		v0.5l-0.1,0.5l-0.3,0.4L296,88l-0.3,0.4l-0.1,0.4l-0.3,0.4l-0.5,0.3l-0.2,0.4l0.1,0.4l0.4,0.2l0.5-0.1h0.5h0.5l0.5,0.2l0.4,0.2
		l0.4,0.2l0.3,0.4l-0.2,0.4l-0.4,0.3l-0.4,0.2l-0.4,0.3l-0.3,0.4l-0.2,0.4l-0.2,0.5l-0.2,0.5l-0.3,0.3l-0.4,0.3l-0.4,0.2l-0.5,0.2
		l-0.4-0.2l-0.5-0.1h-0.6l-0.4,0.1l-0.3,0.4l-0.2,0.4l-0.1,0.5l-0.2,0.4l-0.1,0.6l0.3,0.4l0.2,0.4l0.1,0.5v0.5v0.5l0.2,0.4l0.5,0.1
		l0.4,0.2l0.5,0.1l0.5,0.2l0.4,0.2l0.3,0.4l0.4,0.3l0.3,0.4l0.4,0.3l0.4,0.2l0.4,0.3l0.3,0.3l0.3,0.3l0.3,0.4l0.3,0.4l0.3,0.3h0.4
		l0.5-0.1h0.5l0.5,0.1l0.4,0.3l0.3,0.4l0.1,0.5l0.1,0.4l0.4,0.3h0.4l0.5-0.2l0.4-0.1l0.5,0.1l0.3,0.3l0.3,0.4l0.1,0.5l0.2,0.4
		l0.3,0.4l0.4,0.3l0.4,0.2l0.3,0.3l0.3,0.4h0.5l0.5,0.2l0.4,0.2h0.5l0.4-0.3l0.4-0.2l0.5,0.3l0.2,0.4l0.2,0.4l0.2,0.5h0.4l0.5-0.1
		h0.4l0.4,0.2l0.5,0.3l0.4-0.2l0.4-0.2l0.4-0.3l0.4-0.3l0.4-0.2h0.5l0.4,0.3l0.3,0.4l0.3,0.4l0.3,0.4l0.2,0.4l0.2,0.5l0.3,0.4
		l0.4,0.3h0.5l0.4-0.1l0.5-0.1l0.4-0.2l0.5-0.1l0.4-0.3l0.4-0.2l0.5-0.2l0.4-0.1l0.5-0.2l0.4-0.3l0.4-0.3l0.4-0.1h0.5l0.5,0.1
		l0.5,0.2l0.4,0.2l0.4,0.3l0.3,0.3l0.1,0.5l0.1,0.5l0.3,0.4l0.4,0.2h0.5h0.5l0.5-0.1l0.4-0.2h0.5l0.4-0.2l0.4-0.3l0.3-0.2l0.3-0.4
		l0.3-0.4l0.3-0.4l0.3-0.3l0.3-0.4l0.5-0.1l0.3,0.3l0.4,0.3l0.4,0.3l0.4-0.2l0.5-0.2l0.5-0.1h0.4l0.5-0.1l0.4-0.3l0.3-0.3l0.3-0.4
		l0.4-0.3l0.4-0.3l0.4-0.3l0.3-0.3l0.4-0.3l0.4-0.3l0.5-0.3l0.4-0.2l0.4-0.2l0.5-0.1l0.4-0.2l0.4-0.3l0.3-0.4l0.1-0.4l-0.1-0.5
		l-0.3-0.4l-0.4-0.3l-0.4-0.3l-0.3-0.4l-0.2-0.4l-0.1-0.4l-0.2-0.5l-0.3-0.4l-0.4-0.3l-0.3-0.4l-0.1-0.7l-0.1-0.5v-0.4l0.2-0.5
		l0.4-0.2l0.4-0.3l0.2-0.4l0.2-0.5l0.3-0.3l0.4-0.3l0.4-0.3h0.5l0.5,0.2l0.4,0.3l0.4,0.3l0.3,0.3l0.4,0.3l-0.3,0.6l-0.1,0.4l0.1,0.5
		l0.3,0.4l0.4,0.3l0.3,0.4l0.1,0.4l0.1,0.5l0.1,0.5v0.4v0.5l0.1,0.5l0.3,0.4l0.4,0.2l0.2,0.5l0.1,0.4l0.1,0.5v0.5v0.5l0.3,0.4
		l0.3,0.3l0.1,0.4l0.3,0.4l0.3,0.3l0.3,0.3h0.4h0.5l0.4-0.2l0.5-0.3l0.3-0.3l0.4-0.3l0.4-0.3l0.4-0.3l0.4-0.3l0.4-0.3l0.4-0.3
		l0.4-0.2l0.4-0.3l0.4-0.2l0.5-0.1l0.5,0.1l0.3,0.3l0.4,0.2l0.5-0.2l0.4-0.2l0.4-0.2l0.3-0.4v-0.5v-0.5v-0.5l0.1-0.5l0.3-0.3h0.5
		l0.4,0.2h0.5l0.4-0.3l0.4-0.2l0.5-0.1h0.4l0.5,0.1l0.5,0.2h0.4l0.4-0.3l0.4-0.3l0.4-0.3l0.4-0.1l0.4,0.3l0.4,0.3l0.4,0.2l0.4,0.3
		l0.4-0.3l0.3-0.3l0.3-0.4l0.3-0.3l0.3-0.4h0.4l0.4,0.3l0.2,0.4l0.1,0.5l0.1,0.5l0.3,0.4l0.3,0.3l0.2,0.4l-0.1,0.5l-0.3,0.3
		l-0.3,0.3l-0.3,0.4l-0.3,0.4v0.4l0.3,0.4l0.3,0.3l0.4,0.3l0.3,0.3l0.3,0.4l0.3,0.3l0.4,0.3l0.4,0.3l0.4,0.3l0.3,0.3l0.5,0.2
		l0.4,0.2l0.3,0.3l0.5,0.1l0.4-0.1l0.5,0.1l0.5,0.1l0.4,0.3l0.4,0.3l0.3,0.3l0.4,0.3l0.5-0.1l0.3,0.1l0.6-0.2h0.5l0.4,0.2l0.4,0.3
		l0.4,0.3l0.4,0.3l0.4,0.2l0.4,0.2l0.3,0.4l0.3,0.3l0.2,0.5l0.3,0.3l0.4,0.3l0.5-0.1l0.4-0.2l0.3-0.3l0.1-0.5v-0.5l0.3-0.3h0.5
		l0.3,0.3l0.4,0.2h0.5l0.3-0.3l0.3-0.3l0.4-0.2l0.5-0.2h0.6l0.5-0.2h0.5l0.5,0.1l0.4,0.1l0.5,0.2l0.4-0.1l0.5-0.1l0.5-0.1l0.4-0.3
		l0.3-0.3l0.3-0.4l0.5-0.2l0.4-0.2l0.4-0.2l0.5-0.3l0.4-0.2l0.3-0.3l0.4-0.3l0.4-0.2h0.5h0.6l0.5,0.1l0.2,0.4l0.2,0.4l0.1,0.5
		l0.3,0.3l0.5-0.1l0.4-0.1l0.5-0.1l0.4-0.3l0.5-0.1h0.5l0.4-0.2l0.4-0.1h0.5l0.4,0.3l0.2,0.4l0.4,0.3h0.5l0.4-0.3l0.4-0.2h0.5h0.5
		l0.5,0.1l0.5-0.1l0.4-0.3l0.4-0.2l0.4,0.1l0.5,0.2l0.4,0.3l0.4,0.1l0.5,0.2l0.2,0.4v0.5v0.5l0.3,0.3l0.4,0.3l0.3,0.4l0.1,0.4v0.5
		l-0.1,0.6l0.2,0.4l0.1,0.5l-0.1,0.5l0.1,0.5l-0.1,0.5l-0.3,0.4l-0.2,0.4l-0.3,0.4l-0.2,0.4l-0.1,0.5l0.3,0.4l0.3,0.3l0.4,0.3
		l0.3,0.4l0.3,0.3l0.1,0.5l0.2,0.3h0.4l0.5,0.1l0.4,0.1l0.4,0.3l0.4,0.3l0.3,0.4l0.3,0.3l0.3,0.4l0.3,0.4l0.3,0.4l0.3,0.3l0.3,0.3
		l0.4,0.3l0.4,0.3l0.5,0.2l0.3-0.3l0.1-0.5l0.3-0.4l0.3-0.3v-0.5l0.2-0.5l0.4-0.3l0.3-0.3v-0.5l0.2-0.5l0.3-0.3l0.4-0.3l0.4-0.3
		l0.4-0.2l0.4-0.3l0.4-0.3l0.3-0.3l0.3-0.4l0.2-0.5l0.8,0.3l0.4,0.2l0.7,0.3l0.5,0.1l0.4,0.2l-0.1,0.8v0.5l-0.2,0.4l-0.1,0.6
		l0.3,0.3l0.4,0.4l0.3,0.3l0.2,0.4v0.5l-0.3,0.4l-0.3,0.4l0.3,0.3l0.4,0.2h0.5l0.4,0.1l0.3,0.4l0.2,0.4l0.3,0.4l0.3,0.3l0.5-0.1
		l0.3-0.3l0.4-0.3h0.5l0.5-0.2l0.4-0.1l0.5-0.2h0.4h0.5h0.5h0.5l0.5,0.1l0.3,0.3l0.3,0.5l0.3,0.3l0.5,0.2l0.3,0.4l0.2,0.4l0.1,0.5
		l0.1,0.4l0.2,0.5l0.3,0.5l0.3-0.1l0.5,0.1l0.4,0.2l0.5,0.1l0.4,0.3l0.3,0.4l0.1,0.4l0.1,0.5l0.2,0.4l0.2,0.5l0.2,0.4l0.3,0.4
		l0.3,0.3l0.3,0.4l0.3,0.4l0.3,0.4l0.3,0.4l0.4,0.3l0.3,0.3l0.5,0.2h0.4l0.5,0.1l0.5,0.1l0.5,0.1l0.4,0.2l0.3,0.3l0.3,0.4l0.4,0.3
		l0.3,0.3l0.3,0.3l0.3,0.4l0.3,0.4l0.3,0.3h0.5l0.3-0.3l0.2-0.8l0.1-0.5l0.5-0.1l0.3-0.4l0.1-0.4l0.1-0.5l0.2-0.5l0.3-0.3l0.4-0.2
		l0.5-0.1l0.4-0.2l0.5-0.1h0.4l0.5,0.2l0.4,0.3l0.4,0.2l0.5,0.1l0.3-0.2l0.3-0.4l0.4-0.2l0.4,0.3l0.4,0.2h0.5l0.4-0.2l0.3-0.3
		l0.3-0.4l0.2-0.4l0.3-0.4l0.4-0.3l0.5-0.1l0.4,0.3l0.3,0.3l0.4,0.3l0.3,0.3l0.4,0.3l0.5,0.2l0.4,0.2l0.5-0.1l0.4-0.3l0.4-0.3
		l0.4-0.2l0.4-0.2l0.5-0.2l0.5-0.1h0.4l0.4,0.3l0.5,0.2l0.3-0.2l0.3-0.3l0.4-0.3l0.5-0.2h0.4l0.4,0.3l0.3,0.3l0.4,0.3l0.3,0.4
		l0.3,0.4l0.2,0.4l0.3,0.4l-0.1,0.8h-0.4l-0.5,0.2l-0.4,0.2l-0.4,0.3l-0.4,0.2l-0.5,0.1h-0.4l-0.5-0.2l-0.4-0.1H473l-0.5,0.1
		l-0.4,0.2l-0.4,0.3v0.5l0.3,0.6l-0.3,0.4l0.1,0.5l0.4,0.3l0.4,0.1l0.4,0.3l0.3,0.4l0.3,0.4l0.3,0.4l0.2,0.4l0.2,0.4l0.2,0.5
		l-0.2,0.5l-0.3,0.3h-0.5l-0.4-0.2l-0.4-0.3l-0.4-0.3l-0.4-0.2l-0.5-0.1l-0.4,0.1l-0.3,0.3l0.3,0.4l0.2,0.5l-0.1,0.5l-0.3,0.3
		l-0.4,0.3l-0.4,0.3l0.2,0.4l0.2,0.5l-0.2,0.4l-0.4,0.3l-0.6,0.1l-0.5,0.3l-0.5,0.3l-0.5,0.3l-0.3,0.3v0.3v0.3l0.1,0.8l0.2,0.5
		l0.4,0.5l0.3,0.3l0.3,0.4l0.3,0.4l0.3,0.4l0.2,0.4l0.3,0.3l0.3,0.4l0.3,0.4l0.4,0.2l0.4,0.2l0.5,0.2l0.3,0.3l0.3,0.4l0.3,0.3
		l0.3,0.4l0.4,0.3l0.5,0.2l0.4,0.2h0.5l0.3,0.3l-0.1,0.5l0.4,0.2l0.4,0.2l0.4,0.3l0.4,0.3l0.4,0.2l0.4,0.3l0.3,0.3l0.1,0.4l-0.4,0.3
		l0.1,0.4l0.2,0.5l0.2,0.4l-0.2,0.5l-0.3,0.4v0.5l0.2,0.4l0.3,0.3l-0.5,0.3l-0.4,0.2l-0.4,0.3l-0.3,0.3l-0.4,0.3l-0.4,0.2l-0.4,0.2
		l-0.5,0.3l-0.4,0.2l-0.4,0.2l-0.4,0.3l-0.4,0.3l-0.4,0.3l-0.3,0.4l-0.3,0.3l-0.1,0.5v0.5v0.5l0.2,0.4l-0.1,0.4l-0.4,0.3l-0.4,0.1
		h-0.5l-0.4,0.3l-0.1,0.4l-0.2,0.5l-0.4,0.3l-0.4,0.2l-0.5,0.1l-0.5,0.1l-0.4,0.1l-0.5,0.1l-0.5,0.1l-0.4-0.1l-0.5-0.1l-0.5,0.1
		l-0.5,0.1l-0.5,0.1l-0.3,0.3l-0.3,0.4l0.3,0.3l0.4,0.3l0.3,0.3v0.4l-0.3,0.4l-0.2,0.5l0.1,0.4l0.1,0.3v0.5l-0.2,0.4l-0.3,0.3
		l-0.3,0.3L462,184l-0.4,0.3l-0.3,0.3l-0.1,0.5l0.1,0.5l0.3,0.3l0.1,0.5l-0.1,0.4l-0.3,0.4l-0.4,0.3l-0.4,0.2l-0.4,0.3l-0.5,0.2
		l-0.4,0.3l-0.3,0.3l-0.4,0.3l-0.4,0.3l-0.3,0.4l-0.3,0.3l-0.4,0.2l-0.4,0.3l-0.3,0.3l-0.4,0.3l-0.3,0.3l-0.3,0.3v0.4l0.3,0.4
		l0.5,0.1l0.4,0.1h0.6l0.4,0.2l0.2,0.4v0.5l-0.2,0.5l-0.2,0.4l-0.3,0.3l-0.4,0.3l-0.3,0.3l-0.3,0.4l-0.2,0.4l-0.3,0.4l-0.3,0.4
		l-0.3,0.3l-0.3,0.4l-0.1,0.5l0.2,0.4l0.1,0.5v0.5l0.3,0.3l0.4,0.2l0.3,0.5l-0.1,0.4l-0.3,0.3l-0.4,0.2l-0.5,0.2l-0.4,0.2l-0.3,0.3
		v0.5l-0.3,0.4l-0.3,0.3l-0.5,0.1h-0.5l-0.5,0.1l-0.3,0.3l-0.2,0.4l-0.2,0.5v0.5v0.5l-0.1,0.5l0.2,0.4l0.5,0.2l0.4,0.2h0.5l0.5,0.2
		l0.2,0.3l-0.3,0.4l-0.3,0.3l-0.4,0.3l-0.4,0.3l-0.3,0.3l-0.4,0.3l-0.3,0.4l-0.3,0.3l-0.4,0.3l-0.3,0.3l-0.3,0.3l-0.4,0.3l-0.3,0.3
		l-0.5,0.5l-0.4,0.1l-0.4,0.3H446l-0.5-0.1l-0.4-0.2l-0.3-0.4l-0.4-0.3l-0.4-0.1l-0.5-0.2l-0.5,0.2l-0.4-0.1l-0.3-0.3l-0.1-0.5
		l-0.1-0.5v-0.4l-0.1-0.5l-0.3-0.4l-0.3-0.4l-0.5-0.5l-0.6,0.3l-0.4,0.3l-0.3,0.3l-0.3,0.4l-0.3,0.3l-0.3,0.3l-0.3,0.3l-0.3,0.4
		l-0.3,0.4l-0.3,0.4h-0.4l-0.3-0.4l-0.3-0.3l-0.3-0.4l-0.4-0.2l-0.5-0.1l-0.5-0.1l-0.4-0.2l-0.5-0.1l-0.5,0.1l-0.5-0.1l-0.5-0.1
		l-0.5-0.1l-0.4,0.3l-0.3,0.4l-0.1,0.4l0.3,0.4l0.2,0.4l-0.3,0.4l-0.3,0.3l-0.4,0.3l-0.4,0.3l-0.3,0.4l-0.3,0.3l-0.4,0.4L428,216
		l-0.3,0.3l-0.3,0.4l-0.1,0.5l0.2,0.4l0.3,0.4l0.4,0.3l0.3,0.4l0.1,0.5l0.2,0.4l0.2,0.4l0.4,0.4l0.4,0.2l0.4,0.2l0.4,0.2l0.4,0.3
		l0.1,0.5l-0.3,0.4l-0.4,0.3l-0.4,0.3l-0.2,0.4l-0.3,0.4l-0.3,0.4l-0.3,0.4l-0.3,0.4l-0.3,0.3l-0.4,0.3l-0.3,0.4l-0.1,0.4l-0.1,0.4
		l-0.3,0.4l-0.3,0.4l-0.3,0.4l-0.2,0.3l-0.5,0.1l-0.3,0.4l-0.3,0.3l-0.3,0.4l-0.3,0.3l-0.3,0.4l-0.3,0.3l-0.3,0.4l-0.2,0.4l-0.2,0.4
		l-0.3,0.5l-0.2,0.4l-0.2,0.4l-0.1,0.5l-0.3,0.4l-0.2,0.4l-0.3,0.4l-0.3,0.4l-0.4,0.4l-0.2,0.4l-0.3,0.4l-0.3,0.3l-0.3,0.4l-0.3,0.4
		l-0.3,0.4l-0.2,0.4l-0.3,0.4l-0.2,0.4l-0.2,0.4l-0.3,0.4l-0.1,0.5l-0.3,0.4l-0.2,0.4l-0.2,0.4l-0.3,0.5l-0.1,0.3l-0.4,0.3l-0.3,0.4
		l-0.4,0.3l-0.3,0.3l-0.3,0.3l-0.3,0.4l-0.3,0.3l-0.3,0.3l-0.3,0.4l-0.3,0.3l-0.3,0.4l-0.4,0.3l-0.3,0.3l-0.4,0.3l-0.3,0.3l-0.4,0.3
		l-0.5,0.2l-0.4,0.3l-0.3,0.3l-0.2,0.4l0.1,0.5l-0.1,0.4l-0.4,0.4l-0.4-0.2l-0.4,0.3l-0.3,0.4L408,253l-0.4,0.2l-0.5-0.1l-0.3-0.3
		l-0.3-0.4l-0.3-0.4l-0.2-0.5l-0.3-0.3l-0.5-0.1l-0.3,0.3l-0.3,0.4l-0.2,0.4l-0.3,0.4l-0.5,0.1l-0.4,0.1l-0.5,0.1l-0.4,0.3l-0.5,0.1
		l-0.4,0.1l-0.5,0.1l-0.3-0.1l-0.4-0.1l-0.4-0.2l-0.4-0.3l-0.5-0.1l-0.4,0.1l-0.5,0.2l-0.4,0.2l-0.4,0.2h-0.5l-0.5-0.2l-0.4-0.2
		l-0.5-0.1h-0.4l-0.4-0.3l-0.1-0.4l-0.1-0.5l-0.3-0.4l-0.3-0.3l-0.3-0.4v-0.5v-0.5l-0.1-0.8l-0.4,0.1l-0.6,0.3l-0.3-0.5l0.2-0.4
		l0.1-0.5l-0.1-0.5l-0.1-0.5l-0.3-0.4l-0.3-0.3l-0.3-0.4l-0.3-0.4l-0.3-0.4l-0.2-0.4l-0.3-0.4l-0.3-0.4l-0.3-0.4l0.1-0.5l0.3-0.3
		l0.3-0.3l0.1-0.5l-0.4-0.5l-0.3-0.3l-0.3-0.3l-0.3-0.4l-0.3-0.3l-0.4-0.3l-0.5-0.2l-0.4-0.2h-0.5l-0.4,0.2l-0.4,0.2l-0.5,0.2
		l-0.4,0.1h-0.5h-0.5l-0.5-0.1h-0.5l-0.5-0.1l-0.4,0.2l-0.4,0.2l-0.5,0.3l-0.3,0.4l0.1,0.4l0.3,0.4v0.4l-0.4,0.3l-0.5,0.1l-0.5,0.1
		l-0.4,0.1l-0.5,0.1l-0.5,0.1l-0.4,0.2l-0.4,0.2l-0.5-0.1h-0.5l-0.5,0.1l-0.4,0.1l-0.4,0.3l-0.4,0.3l-0.3,0.3l-0.3,0.4l-0.4,0.3
		l-0.4,0.3l-0.3-0.3l-0.1-0.5l-0.3-0.4h-0.5l-0.5-0.1l-0.3-0.3l-0.2-0.4l-0.1-0.5L370,241l-0.2-0.4l-0.3-0.4l-0.2-0.4l-0.2-0.4
		l-0.3-0.4l-0.3-0.4l-0.2-0.4l-0.3-0.4l-0.3-0.4l-0.4-0.3l-0.4-0.2l-0.5-0.2l-0.4-0.1l-0.4-0.4l-0.3-0.3l-0.4-0.3l-0.4-0.3l-0.4-0.3
		l-0.4-0.3l-0.3-0.3l-0.4-0.3l-0.4-0.3l-0.5-0.2l-1.6,0.5h-0.4l-0.5-0.2l-0.4-0.3l-0.3-0.3l-0.3-0.4l-0.4-0.1l-0.5-0.1l-0.2-0.4
		l-0.2-0.4h-0.5l-0.3,0.3l-0.2,0.5h-0.3l-0.2-0.4l-0.4-0.3l-0.3,0.3l-0.3-0.3l-0.2-0.5L354,231l-0.2-0.4l-0.5-0.1l-0.5,0.1l-0.4,0.2
		l-0.3,0.3l-0.2,0.4l-0.3,0.4l-0.5,0.4l-0.2,0.4l-0.3,0.3l-0.3,0.3l-0.3,0.4l-0.3,0.4v0.5l-0.2,0.4l-0.3,0.4l-0.3,0.3l-0.3,0.4
		l-0.2,0.4l0.1,0.5l0.3,0.4l0.4,0.3l0.3,0.4l0.1,0.5l-0.3,0.3l-0.4-0.1l-0.4-0.3l-0.4-0.3l-0.4,0.1l-0.5,0.2l-0.4-0.1l-0.4-0.3
		l-0.5-0.2l-0.4-0.2l-0.5-0.1l-0.5,0.2l-0.2,0.4v0.5l0.1,0.4l0.3,0.4l0.4,0.3l0.3,0.3l0.4,0.3l0.3,0.5l-0.4,0.3l-0.3,0.4l-0.2,0.4
		l-0.4,0.2h-0.4l-0.6-0.1h-0.5h-0.4h-0.5l-0.5,0.1l-0.5-0.1l-0.3-0.1l-0.3,0.3l-0.1,0.5v0.5l0.4,0.2h0.5l0.4,0.2l0.3,0.5v0.5v0.4
		l0.3,0.4l0.4,0.2l0.5,0.2l0.4,0.3l0.3,0.3l0.3,0.4l0.2,0.5l0.3,0.3l0.4,0.2h0.5l0.4,0.3l0.2,0.5l0.1,0.4l0.2,0.5l0.3,0.3l0.5,0.1
		l0.5,0.2l0.3,0.3l0.3,0.4l0.2,0.4l0.1,0.5l-0.3,0.4l-0.2,0.4l-0.2,0.4v0.5v0.5l-0.3,0.4l-0.3,0.3l-0.1,0.5l-0.1,0.5l0.3,0.3
		l0.4,0.3l0.2,0.5l-0.1,0.4L348,259l0.2,0.4l0.1,0.5l-0.4,0.5l-0.4,0.1l-0.5,0.1l-0.3-0.3l-0.5-0.2l-0.4-0.2l-0.5,0.2l-0.4,0.3
		l-0.4,0.3l-0.4,0.1l-0.5-0.1l-0.5,0.1l-0.4,0.3l-0.3,0.3l-0.4,0.3l-0.3,0.3l-0.2,0.5v0.5l-0.3,0.4l-0.3,0.4l-0.3,0.3l-0.1,0.5
		l0.2,0.5l-0.3,0.4l-0.3,0.3l-0.4,0.2l-0.4,0.2l-0.3,0.4l-0.3,0.3l-0.5,0.1l-0.3-0.3l-0.4-0.3l-0.5,0.1L336,267l-0.1,0.4v0.5
		l-0.1,0.5l-0.5,0.5l-0.5-0.1l-0.4-0.2l-0.6-0.3l-0.5-0.1h-0.5l-0.4,0.2l-0.4,0.2l-0.3,0.5l-0.2,0.4l-0.1,0.5l0.3,0.3l0.3,0.3
		l0.3,0.4l-0.3,0.3l-0.4,0.2L331,272l-0.5,0.1l-0.3,0.3l-0.4,0.2l-0.4-0.3l-0.5-0.2l-0.4,0.3l-0.2,0.4l-0.2,0.5l-0.2,0.4l-0.2,0.4
		l-0.3,0.4v0.5v0.5l0.2,0.5l0.2,0.3l0.3,0.3l0.1,0.4l-0.2,0.4l-0.1,0.5l0.2,0.4l0.3,0.4l0.2,0.5v0.5l0.1,0.4l0.3,0.4h0.5l0.5-0.1
		h0.5l0.2,0.3l0.2,0.5l0.3,0.3l0.5,0.1l0.4,0.2l0.4,0.3l0.5,0.1l0.3,0.4l0.2,0.4l0.1,0.5l-0.1,0.4l-0.2,0.5l-0.3,0.3l-0.3,0.4
		l-0.2,0.4l0.2,0.5l0.3,0.4l0.4,0.2l0.5,0.2l0.4,0.1l0.6,0.3l0.2,0.4l0.2,0.5l0.2,0.4l0.5,0.2l0.5-0.1l0.4,0.2l0.4,0.3l0.4,0.2
		l0.5,0.1h0.5h0.5h0.5l0.5,0.1l0.5-0.1l0.5-0.1l0.5,0.1l0.4,0.2l0.4,0.3l-0.1,0.4l0.2,0.4h0.5l0.3-0.3l0.1-0.6l0.6-0.1l0.3-0.4
		l0.3,0.2l0.2,0.4v0.5v0.5l0.2,0.5l0.2,0.4l0.1,0.4l0.1,0.5l0.1,0.5l0.1,0.5v0.4l0.2,0.5v0.5v0.5l0.1,0.5l0.3,0.3l0.3,0.3v0.5
		l-0.2,0.4l-0.4,0.1l-0.3,0.3l-0.2,0.4h0.5l0.3,0.4l0.1,0.4l0.2,0.4l0.5,0.1l0.4,0.3l-0.2,0.4l-0.3,0.4l-0.2,0.4v0.4l0.2,0.5
		l0.3,0.4l-0.2,0.4l-0.3,0.7l0.5,0.2l0.3,0.3l0.4,0.3l0.4,0.2l0.5,0.2l0.2,0.4l-0.2,0.5l-0.3,0.4v0.4l0.4,0.3l0.5,0.1h0.4l0.4,0.3
		l0.4,0.2l0.5,0.1h0.5l0.4,0.3l0.2,0.4l0.2,0.4l0.3,0.4l0.4-0.1l0.4-0.3l0.3-0.4l0.3-0.3l0.3-0.3l0.3-0.4l0.4-0.3l0.4-0.3l0.4-0.2
		l0.3-0.3l0.1-0.4l0.3-0.3h0.4l0.5,0.3l0.3,0.4l0.4,0.3l0.3,0.3l0.4,0.2l0.4,0.2l0.2,0.5l-0.3,0.4v0.5l0.1,0.5l0.4-0.1l0.4-0.2
		l0.5,0.1l0.4,0.3l0.3,0.3l0.4,0.3h0.5l0.4-0.1l0.5-0.2l0.4-0.2l0.5-0.2l0.4-0.1h0.5l0.4,0.2l0.4,0.2l0.4,0.3l0.4,0.3l0.3,0.3
		l0.3,0.4l0.3,0.3l0.4,0.3l0.3,0.4l0.2,0.4l0.2,0.4l-0.1,0.5l-0.3,0.4l-0.3,0.4l-0.3,0.4l-0.1,0.4l-0.1,0.5l0.1,0.5l0.3,0.4l0.3,0.3
		l0.3,0.4l0.2,0.4l0.2,0.5l0.2,0.4l0.1,0.5l0.2,0.4l0.2,0.4l0.3,0.4l0.2,0.4v0.5l0.1,0.5v0.5l-0.3,0.4l-0.1,0.4l0.3,0.4l0.3,0.4
		l0.4,0.3l0.3,0.3l0.3,0.4l0.1,0.4v0.5l-0.2,0.5l-0.2,0.4l-0.2,0.4l0.2,0.5l0.3,0.3l0.3,0.4l0.3,0.3l0.7,0.3v0.5l0.2,0.5l0.3,0.4
		l-0.1,0.5l-0.3,0.3l-0.4,0.3h-0.5l-0.4-0.2l-0.4-0.3l-0.3-0.3l-0.3-0.3l-0.4-0.3l-0.3-0.3l-0.3-0.5l-0.2-0.4l-0.3-0.3l-0.4-0.3
		l-0.4-0.3l-0.6-0.1l-0.4-0.3l-0.4-0.3l-0.3-0.3l-0.4-0.3l-0.4-0.2l-0.4-0.3l-0.3-0.4l-0.3-0.4l-0.2-0.4l-0.3-0.4l-0.2-0.5l-0.1-0.4
		l-0.2-0.4l-0.5-0.2h-0.5h-0.5l-0.4,0.2l-0.3-0.3l-0.3-0.4l-0.3-0.4l-0.3-0.3l-0.3-0.4l-0.4-0.3l-0.3-0.3l-0.4-0.2l-0.4-0.3
		l-0.5-0.2l-0.4-0.3l-0.3-0.4l-0.2-0.4l-0.3-0.3l-0.2-0.5l-0.4-0.3l-0.3-0.3l-0.3-0.4l-0.3-0.4l-0.4,0.2l-0.2,0.4v0.5l-0.1,0.5
		l-0.3,0.3l-0.4,0.3l-0.3,0.3l-0.3,0.4l-0.3,0.3l-0.4,0.3l-0.4,0.3l-0.4,0.2l-0.4,0.3l-0.3,0.4l-0.2,0.5l0.2,0.4l0.2,0.5l0.3,0.4
		l0.1,0.4l-0.2,0.5l-0.4,0.3l-0.4,0.3h-0.5l-0.4-0.2l-0.4-0.2l-0.5-0.2l-0.4-0.2l-0.5,0.1l-0.4,0.2l-0.4,0.3l-0.6-0.1H347l-0.4-0.2
		l-0.4-0.2h-0.6H345l-0.4,0.1l-0.4,0.3l-0.3,0.3l-0.3,0.3l-0.3,0.4l-0.3,0.3l-0.3,0.4l-0.3,0.4l-0.3,0.3l-0.4,0.3l-0.3,0.3l-0.4,0.3
		l-0.3,0.3l-0.3,0.3l-0.2,0.4l-0.2,0.5l-0.1,0.5v0.7l-0.1,0.3l0.2,0.5l0.3,0.4l0.3,0.4l0.1,0.4v0.5l0.2,0.5l0.3,0.4v0.5v0.5
		l-0.1,0.5v0.5l-0.1,0.5l-0.1,0.4l-0.3,0.4l-0.2,0.4l-0.1,0.5l0.5,0.2l0.4,0.1l0.4,0.3l0.6,0.3l0.3,0.1l0.4,0.3l0.4,0.3l0.4,0.2
		l0.4,0.3l0.4,0.3l0.4-0.1l0.1-0.4l0.1-0.5l0.2-0.5l0.3-0.3l0.3-0.4l0.5-0.1l0.4-0.2l0.4-0.2h0.5l0.3,0.4l0.2,0.4l0.2,0.4l0.3,0.5
		l0.2,0.4l0.2,0.4l0.3,0.4l0.3,0.3l0.4,0.3l0.5,0.1l0.5-0.3l0.2,0.6l0.2,0.5v0.5l-0.1,0.5l-0.1,0.4L351,347l-0.3,0.3l-0.3,0.4
		l-0.3,0.4v0.5l0.2,0.5l0.2,0.4l0.4,0.3l0.1,0.5l-0.1,0.5l0.3,0.1l0.4-0.2l0.4-0.2l0.5-0.2l0.5,0.1l0.4,0.2l0.5,0.1l0.4,0.3l0.3,0.3
		l0.5,0.1l0.5,0.1l0.4,0.2l0.5-0.2l0.5-0.2l0.4,0.2l0.3-0.3l0.1-0.5l0.1-0.5l0.3-0.4l0.4-0.2l0.5-0.2h0.5h0.5h0.4h0.6l0.5,0.1h0.5
		l0.5,0.1l0.4,0.1l0.4,0.3l0.5,0.2l0.3,0.3l0.4,0.3l0.4,0.3l0.2,0.3l0.3,0.4l0.3,0.3l0.3,0.4l0.3,0.3l0.3,0.4l0.3,0.4l0.3,0.4
		l0.3,0.4l0.1,0.4v0.5l-0.2,0.4l-0.2,0.5l-0.2,0.4l0.1,0.5l0.4,0.2l0.5,0.2l0.4,0.1l0.4,0.3l0.3,0.3l0.4,0.2l0.5,0.1l0.5,0.2
		l0.3,0.3l-0.1,0.4l-0.2,0.5l-0.1,0.5l-0.1,0.4l-0.2,0.5l-0.2,0.4l-0.3,0.4l-0.1,0.5v0.4l0.4,0.3l0.5,0.2l0.2,0.4l0.1,0.5l-0.2,0.4
		l0.1,0.5l-0.3,0.4l-0.3,0.3l0.2,0.4l0.1,0.5l-0.3,0.3l-0.4,0.3l-0.4,0.2l-0.5,0.2l-0.4,0.3l-0.4,0.3l-0.3,0.3l-0.4,0.3l-0.4,0.3
		l-0.3,0.3l-0.4,0.3l-0.4,0.3l-0.5,0.2l-0.5-0.1l-0.4-0.1h-0.5l-0.5-0.1l-0.4-0.3l-0.4-0.2l-0.5-0.1l-0.5-0.1l-0.5-0.1l-0.4-0.2
		l-0.5-0.1l-0.4,0.2l-0.4,0.2l-0.5,0.2l-0.4,0.2l-0.4,0.3l-0.4,0.2l-0.4,0.2l-0.5,0.1h-0.5l-0.5,0.1l0.1,0.5l-0.7,0.2l-0.3-0.3
		l-0.5,0.1l-0.4,0.2l-0.5,0.2l-0.4,0.2l-0.7,0.2l-0.2-0.4l-0.2-0.5l-0.4,0.1l-0.5,0.2l-0.4,0.2l-0.4,0.2l-0.5,0.1l-0.4,0.3l-0.4,0.2
		l-0.4,0.2l-0.4,0.3l-0.5,0.1l-0.4-0.2h-0.5h-0.6h-0.5l-0.5-0.1h-0.4l-0.5,0.1l-0.4,0.2l-0.4,0.3l-0.3,0.4l-0.3,0.3l-0.4,0.2
		l-0.5,0.1l-0.5,0.1h-0.4l-0.5,0.3l-0.3,0.3l-0.4,0.3l-0.4,0.3l-0.3,0.1l-0.3-0.4l-0.2-0.4l-0.3-0.4l-0.1-0.5v-0.5l-0.3-0.3
		l-0.4-0.3l-0.4-0.2l-0.4-0.3l-0.3-0.2l-0.4-0.3l-0.5-0.2l-0.3-0.3l-0.3-0.4l-0.3-0.4l-0.4-0.3l-0.5-0.4l-0.5,0.1l-0.4-0.2l-0.5-0.2
		l-0.5,0.1h-0.4l-0.5,0.1l-0.5,0.1h-0.4h-0.5l-0.4,0.3l-0.5,0.2l-0.4-0.1h-0.6l-0.4,0.3l-0.4,0.2l-0.3,0.3l-0.4,0.3l-0.3,0.3
		l-0.3,0.4l-0.3,0.3l-0.3,0.4l-0.5-0.5l-0.2-0.4l-0.1-0.4l-0.3-0.4l0.1-0.4l0.2-0.5l0.1-0.5v-0.5l-0.1-0.5l0.2-0.4l0.3-0.3l0.3-0.4
		v-0.5l-0.3-0.3l-0.4-0.3l-0.4-0.2l-0.4-0.3l-0.4-0.3l-0.4-0.3l-0.3-0.4l-0.1-0.4l-0.2-0.5v-0.5v-0.5l0.1-0.5l0.1-0.4l0.3-0.3h0.5
		l0.4-0.3l0.3-0.4l0.3-0.4l0.1-0.5v-0.5v-0.5l-0.2-0.4l-0.3-0.4l-0.2-0.5v-0.5l0.1-0.5l-0.2-0.4l-0.3-0.4l-0.4-0.2l-0.5,0.1
		l-0.3,0.3l-0.3,0.4l-0.3,0.4l-0.3,0.3l-0.4,0.2h-0.5l-0.4-0.3l-0.2-0.4l-0.2-0.4l0.1-0.5l0.1-0.5l0.2-0.4l0.3-0.4l0.3-0.4v-0.5
		l-0.3-0.4l-0.4-0.2l-0.5-0.1l-0.4-0.2l-0.5-0.2H316h-0.5l-0.3-0.3l-0.4-0.3l-0.4-0.2l-0.4-0.3l-0.4-0.3l-0.4-0.3l-0.4,0.3l-0.3,0.3
		l-0.4,0.3l-0.5,0.1l-0.4,0.3l-0.3,0.3l-0.4,0.3l-0.4,0.1l-0.4,0.2l-0.3,0.3l-0.3,0.4l-0.3,0.4l-0.2,0.5l-0.2,0.4l-0.3,0.4l-0.2,0.3
		l-0.2,0.5l-0.3,0.4l-0.3,0.4l-0.4,0.3l-0.3,0.3l-0.1,0.5l0.1,0.4l-0.2,0.4l-0.4,0.3l-0.4,0.3v0.3l-0.2,0.3l-0.4,0.3h-0.5h-0.5
		l-0.5,0.1l-0.4,0.1l-0.5,0.1l-0.5,0.1l-0.4,0.1l-0.4,0.2l-0.5,0.1l-0.5,0.1l-0.4,0.2H298l-0.3-0.3l-0.4-0.3l-0.5,0.1l-0.4,0.2
		l-0.4,0.1l-0.5,0.2l-0.5,0.1l-0.4,0.2l-0.4,0.3l-0.3,0.4l-0.3,0.3l-0.5,0.2h-0.5l-0.5,0.1l-0.4,0.1l-0.5,0.1l-0.4,0.3l-0.4,0.2
		l-0.4-0.3l-0.3-0.3l-0.2-0.5l-0.3-0.3l-0.3-0.4l-0.3-0.4l-0.4-0.2h-0.6l-0.5-0.1l-0.4-0.1l-0.5-0.2l-0.3-0.3l-0.4-0.3l-0.3-0.3
		l-0.6-0.4l-0.2-0.5l-0.4-0.3l-0.4-0.3l-0.4-0.2l-0.3-0.3l-0.3-0.4l-0.3-0.4l-0.4-0.2l-0.3-0.4l-0.1-0.5l0.1-0.3v-0.5l-0.3-0.3
		l-0.8-0.3h-0.3l-0.3-0.1l-0.5-0.1l-0.5-0.2l0.2-0.3l0.4-0.3h0.4l0.5-0.1h0.5l0.4,0.3l0.3,0.3l0.5,0.1l0.4-0.3l0.1-0.5l-0.2-0.4
		l-0.3-0.4v-0.5l0.1-0.4l0.1-0.5l0.2-0.4l0.4-0.3l0.4-0.2l0.4-0.2l0.4-0.4l0.3-0.3l0.1-0.5v-0.5l0.2-0.5l0.2-0.4l0.3-0.4l0.2-0.4
		l-0.3-0.4h-0.4l-0.5,0.2h-0.5l-0.3-0.3l-0.2-0.4l0.3-0.4l0.4-0.3l0.4-0.2l0.5-0.1l0.2-0.3l0.4-0.3l0.3-0.3l0.2-0.5l0.2-0.4
		l-0.2-0.4l-0.4-0.2l-0.1-0.5l0.2-0.4l-0.1-0.5l-0.4-0.1l-0.5,0.1l-0.4,0.3l-0.3,0.4l-0.3,0.3l-0.4-0.2v-0.5l0.1-0.5l0.1-0.5v-0.5
		v-0.5l-0.3-0.4l-0.3-0.3l-0.4-0.3l-0.3-0.4l-0.7,0.2l-0.4,0.2l-0.4,0.3l-0.3,0.4l-0.3,0.3l-0.5-0.1l-0.3-0.3l-0.3-0.4l-0.2-0.4
		l-0.2-0.4l-0.2-0.5l0.1-0.5l0.1-0.4l0.2-0.5l-0.1-0.4l-0.4-0.3l-0.2-0.4l0.1-0.3l0.2-0.4l0.2-0.4l0.2-0.5l-0.1-0.5v-0.8l-0.1-0.4
		v-0.6l-0.1-0.4l-0.3-0.4l-0.3-0.4l-0.1-0.4l-0.3-0.4l0.1-0.5l0.3-0.3h0.4l0.5-0.1l0.4-0.2l0.5-0.3l0.4-0.2l0.4,0.1l0.5,0.2l0.5,0.1
		l0.4-0.1l0.4-0.3l0.2-0.4l0.2-0.4l0.2-0.5l0.2-0.4l0.3-0.3l0.4-0.3l0.4-0.2l0.5-0.2h0.5l0.4-0.2v-0.5l-0.1-0.5l-0.3-0.4l-0.3-0.3
		l-0.4-0.3l-0.4-0.3l-0.4-0.2h-0.5l-0.4,0.3l-0.4,0.3l-0.3,0.4l-0.3,0.3l-0.3,0.3l-0.5,0.1h-0.5l-0.4-0.3l-0.4-0.3l-0.3-0.4
		l-0.3-0.4l-0.3-0.3l-0.3-0.4h-0.4l-0.3,0.4l-0.2,0.4l-0.5,0.4h-0.4l-0.5-0.2l-0.4-0.2l-0.4-0.3l-0.4-0.2l-0.5-0.1l-0.5,0.1
		l-0.5,0.1l-0.4,0.3l-0.3,0.3l-0.3,0.4l-0.3,0.3l-0.3,0.3l-0.5,0.1l-0.3-0.3l-0.4-0.4l-0.3-0.3l-0.4-0.2l-0.5-0.1l-0.5,0.2l-0.4,0.2
		l-0.5,0.1l-0.4-0.3l-0.5-0.1l-0.4,0.2l-0.5,0.1l-0.4,0.1l-0.5,0.1l-0.3-0.3l-0.3-0.4l-0.4-0.2h-0.5l-0.5,0.1h-0.5l-0.3-0.3
		l-0.3-0.4l-0.1-0.5l-0.2-0.4l-0.3-0.3l-0.5-0.3h-0.4l-0.5,0.1l-0.3,0.4l-0.1,0.5v0.5l-0.1,0.5v0.5l0.1,0.4l-0.1,0.5l-0.2,0.4
		l-0.3,0.4l-0.3,0.4l-0.3,0.3l-0.4,0.3l-0.3,0.4l-0.3,0.4l-0.2,0.4l-0.2,0.4l-0.2,0.3l0.3,0.3l0.3,0.4l0.3,0.4l0.3,0.4l0.3,0.4
		l0.3,0.5l0.1,0.5l0.1,0.5l0.2,0.4l0.2,0.4l0.1,0.5l0.2,0.4l0.1,0.5v0.5l0.1,0.4l0.1,0.5v0.5v0.5v0.5l0.3,0.3l0.3,0.3l0.3,0.4
		l0.1,0.5v0.5l-0.3,0.3l-0.3,0.4l-0.4,0.3l-0.4,0.1l-0.5,0.2l-0.4,0.3l-0.3,0.4l-0.3,0.3l-0.3,0.3l-0.4,0.3l-0.4,0.2l-0.5,0.1
		l-0.5,0.1h-0.4L252,340l-0.5,0.2l-0.4,0.3l-0.3,0.3l-0.5,0.1l-0.4-0.3l-0.3-0.4l-0.3-0.4l-0.3-0.3l-0.4-0.2l-0.4-0.3l-0.3-0.3
		l-0.4-0.3l-0.4-0.2l-0.4,0.2l-0.3,0.4l-0.5,0.1l-0.5,0.1l-0.4,0.1l-0.2,0.5l-0.1,0.5l-0.3,0.3l-0.3,0.3l-0.3,0.3l-0.2,0.4l-0.3,0.5
		l-0.2,0.4l-0.2,0.4l-0.3,0.4l-0.3,0.3l-0.4,0.3l-0.4,0.3l-0.3,0.3l-0.4,0.3l-0.4,0.3l-0.3,0.3l-0.4,0.3l-0.4,0.2l-0.3,0.3l-0.3,0.4
		l-0.2,0.5l-0.3,0.4l-0.2,0.4l-0.2,0.4l-0.3,0.6l0.3,0.4l0.2,0.4l0.3,0.3l0.5,0.1l0.4-0.2l0.5-0.2l0.4-0.1l0.4,0.2l0.3,0.4l0.3,0.4
		l-0.1,0.5l-0.1,0.5l-0.1,0.5l0.2,0.5l0.2,0.4l0.3,0.4l0.4,0.2l0.5-0.1h0.5h0.5l0.3,0.3l-0.2,0.4l-0.4,0.3l-0.5,0.2l-0.3,0.3
		l-0.4,0.3l-0.4,0.3l-0.3,0.4l-0.3,0.4l-0.1,0.4L240,358v0.5v0.5v0.5l-0.2,0.5v0.3l0.3,0.4l0.1,0.5l-0.2,0.4l-0.3,0.4l-0.3,0.3
		l-0.4,0.3l-0.3,0.3l-0.3,0.4l-0.3,0.3l-0.3,0.3l-0.3,0.4l-0.3,0.3l-0.4,0.3l-0.4,0.2l-0.4,0.3l-0.3,0.4l-0.3,0.3l-0.3,0.4l-0.4,0.3
		l-0.4,0.2l-0.4,0.3l-0.4,0.3l-0.3,0.4l-0.3,0.3l-0.4,0.3l-0.4,0.3l-0.3,0.3l-0.4,0.3l-0.4,0.3l-0.4,0.3l-0.3,0.3l-1.3,1l-0.6,1.9
		l-1,0.1l-1,0.2l-0.2,0.3v0.4l-0.3,0.5l-0.2,0.2l-0.6,0.2l-0.4,0.5l-0.2,0.5l-0.7,0.6l-0.9,1.3l-0.8,0.9l-0.2,0.6l-0.1,1.1l0.3,1.2
		l-0.7,0.2l-0.5,0.1h-0.4l-0.4-0.2l-0.5-0.2l-0.4-0.2l-0.5-0.2l-0.4,0.3l-0.4,0.3l-0.4,0.2l-0.4,0.2l-0.4,0.2l-0.5,0.2l-0.4,0.2
		l-0.5-0.1l-0.5-0.2l-0.3-0.3l-0.3-0.4l-0.3-0.4l-0.4-0.4l-0.3,0.3l-0.3,0.3l-0.3,0.4l-0.2,0.4l-0.2,0.4l-0.2,0.5l-0.3,0.4l-0.3,0.3
		l-0.3,0.4l-0.3,0.3l-0.3,0.4l-0.3,0.4l-0.1,0.4l-0.2,0.5l0.1,0.5l0.1,0.5l-0.2,0.3l1,1.4v1.2l-0.2,1.2l0.3,1.5l0.1,1.8l-0.3,1.6
		l-1.5,1.5l-0.3,1.2l0.4,1.1l0.7,1.3l-0.7,1.6l-0.3,1.5l0.2,1.6l0.7,0.8l0.9,0.9l-0.3,0.7l0.6,0.5l0.2,0.4l0.2,0.5l0.1,0.4l0.2,0.4
		l0.3,0.4l0.2,0.5l0.3,0.3l0.4,0.4l0.3,0.4l0.1,0.4l-0.1,0.5l-0.2,0.4l-0.2,0.5l0.3,0.6l0.3,0.3l0.2,0.4l-0.2,0.5l0.2,0.4l0.2,0.4
		l-0.1,0.6v0.3l0.1,0.5l0.3,0.3l0.2,0.5l0.2,0.4l0.2,0.4l0.1,0.5v0.5l-0.1,0.5l-0.1,0.4l-0.2,0.5l-0.2,0.4l0.2,0.5l0.3,0.4l0.3,0.4
		l0.3,0.4l0.2,0.4l0.1,0.5l0.3,0.6l-0.3,0.4l-0.3,0.3l-0.4,0.3l-0.3,0.3l-0.3,0.3l-0.4,0.3l-0.4,0.2h-0.5l-0.3,0.4v0.5l0.1,0.4v0.5
		v0.6l-0.1,0.4l-0.1,0.6v0.4v0.6v0.5v0.5l-0.1,0.5l-0.2,0.4l-0.3,0.3l-0.4,0.2l-0.5-0.2H209l-0.5,0.2l-0.4,0.1l-0.4-0.2l-0.4-0.2
		l-0.5,0.2l-0.5-0.1l-0.3-0.3v-0.6l-0.3-0.3l-0.4,0.3l-0.3,0.3l-0.3,0.4l-0.3,0.3l-0.3,0.4l-0.4,0.3l-0.4,0.2l-0.4,0.2l-0.5,0.2
		l-0.4,0.2l-0.4,0.3h-0.4l-0.4,0.3l-0.3,0.3l-0.3,0.3l-0.4,0.3l-0.4,0.2l-0.4,0.3l-0.4,0.3l-0.3,0.4l-0.3,0.4l-0.2,0.4l-0.2,0.4
		l-0.3,0.3l-0.5,0.2l-0.4,0.2h-0.5l-0.5-0.1l-0.3-0.4l-0.2-0.4l-0.3-0.4l-0.3-0.3l-0.4-0.3l-0.4-0.3l-0.4-0.2l-0.2-0.5l0.1-0.5
		l0.3-0.3l0.3-0.3l0.3-0.4l0.3-0.4l0.1-0.4v-0.5v-0.5l-0.4-0.3l-0.3-0.3l-0.5-0.2l-0.3-0.3l-0.4-0.3l-0.4-0.3l-0.4-0.3l-0.5,0.1
		l-0.3,0.3l-0.3,0.3l-0.3,0.3l-0.7,0.2L188,437l-0.4,0.1l-0.5,0.2l-0.4,0.2l-0.4,0.2l-0.5,0.1l-0.4,0.2l-0.5,0.2l-0.4,0.1l-0.5,0.2
		l-0.4,0.1l-0.5,0.1h-0.5l-0.4,0.2l-0.3,0.3l-0.3,0.4l-0.3,0.3l-0.3,0.4l-0.3,0.3l-0.3,0.4l-0.5,0.2l-0.4,0.2l-0.4,0.2l-0.5,0.2
		l-0.4,0.1l-0.4,0.2l-0.5,0.2l-0.4,0.1l-0.5,0.1l-0.4,0.2l-0.4,0.3l-0.4,0.3l-0.3,0.6l-0.3,0.3l-0.3,0.4l-0.3,0.3l-0.4,0.3l-0.4,0.3
		l-0.4,0.3l-0.4,0.2l-0.4,0.3l-0.4,0.3l-0.3,0.4l-0.3,0.3l-0.3,0.3l-0.4,0.3l-0.4,0.3l-0.3,0.4l-0.3,0.5l-0.6,0.1l-0.4,0.2h-0.5
		l-0.4-0.2l-0.4-0.3l-0.4-0.2l-0.4-0.3l-0.5-0.2l-0.4-0.3l-0.3-0.3l-0.4-0.3l-0.3-0.3l-0.5,0.1l-0.4,0.1l-0.5,0.1l-0.5-0.1l-0.4-0.3
		l-0.3-0.4l-0.3-0.4l-0.3-0.4h-0.4l-0.5,0.2l-0.4,0.3l-0.3,0.4l-0.3,0.3l-0.2,0.4l-0.3,0.4l-0.4,0.3l-0.3,0.3l-0.4,0.3l-0.4-0.1
		l-0.7-0.4l-0.1-0.5l-0.1-0.5l-0.2-0.4l-0.3-0.4l-0.3-0.4l-0.1-0.5l-0.2-0.4l-0.1-0.5l-0.2-0.4l-0.2-0.4l-0.3-0.4l-0.3-0.3v-0.5
		l0.1-0.5l-0.3-0.4l-0.4-0.2l-0.4-0.3l-0.3-0.4l-0.3-0.3l-0.4-0.2l-0.4-0.3l-0.4-0.2l-0.4-0.3l-0.4-0.3l-0.4-0.2h-0.5l-0.4,0.3
		l-0.3,0.4l-0.3,0.3h-0.4l-0.3-0.3l-0.1-0.5l-0.1-0.5l-0.1-0.4l-0.3-0.4l-0.4-0.2l-0.3-0.4l-0.3-0.4V436l0.3-0.4l0.3-0.3l0.3-0.3
		l0.4-0.3h0.5l0.4,0.2l0.4,0.2l0.5-0.1v-0.5l0.1-0.4l0.3-0.4l-0.1-0.5l-0.3-0.3l-0.5-0.2l-0.1-0.4l0.2-0.5l-0.1-0.5l-0.1-0.4
		l-0.2-0.5l-0.3-0.3l-0.3-0.3l-0.4-0.3l-0.4-0.3l-0.4-0.3l-0.3-0.4l-0.3-0.4l-0.3-0.4l-0.4-0.3l-0.3-0.3l-0.4-0.3l-0.3-0.3l-0.2-0.4
		l-0.3-0.4l-0.4-0.2l-0.4-0.3h-0.5l-0.5-0.2l-0.4-0.1l-0.3-0.4l-0.2-0.5l-0.3-0.4l-0.3-0.3l-0.3-0.3l-0.4-0.3l-0.3-0.3l-0.4-0.3
		l-0.2-0.4l-0.2-0.5l-0.1-0.4v-0.5l0.3-0.4l0.4-0.2l0.2-0.4l-0.3-0.4l0.3-0.3l0.4,0.2l0.4,0.3l0.3,0.4l0.4,0.3l0.5,0.1l0.4-0.3
		l0.1-0.5l0.1-0.4l-0.1-0.5v-0.5l0.1-0.5l0.1-0.5l0.2-0.5v-0.4l-0.2-0.5l-0.2-0.4l0.2-0.4l0.4-0.2l0.3-0.4l0.3-0.3l0.3-0.4l0.4-0.2
		l0.3-0.3l0.2-0.4l-0.1-0.4l-0.3-0.4l-0.4-0.3l-0.4-0.3l-0.4-0.1l-0.5,0.1l-0.3,0.4l-0.1,0.4l0.2,0.5l0.2,0.4l-0.2,0.5h-0.4
		l-0.4-0.3l-0.4-0.2l-0.3,0.3l-0.2,0.5l-0.3,0.3l-0.5-0.2l-0.3-0.3l-0.4-0.3l-0.3-0.4l-0.2-0.4l-0.2-0.4l-0.2-0.5l0.1-0.5l0.3-0.4
		l0.3-0.3l0.2-0.5l0.2-0.4l0.3-0.4l0.2-0.4v-0.5l-0.2-0.4l-0.5-0.2l-0.4-0.2l-0.3-0.4l0.1-0.5v-0.5l-0.3-0.3l-0.4-0.3l-0.5-0.1
		l-0.5-0.1l-0.4-0.3l-0.4-0.3l-0.5,0.1l-0.5-0.1l-0.4-0.3V402l-0.1-0.5v-0.5v-0.5L131,400l-0.4-0.2l-0.5-0.1l-0.3-0.4l-0.2-0.5
		l-0.1-0.4l-0.3-0.4l-0.4-0.2l-0.5-0.1l-0.4-0.2l-0.4-0.3l-0.3-0.3l-0.5-0.1l-0.4-0.3l-0.3-0.4l-0.2-0.4l0.1-0.6l0.1-0.4l0.2-0.5
		l0.1-0.4l0.2-0.5l0.1-0.5l0.3-0.4l0.1-0.5l-0.1-0.4l-0.1-0.5l0.1-0.5l0.3-0.4l0.2-0.4l0.3-0.4l0.3-0.4l0.3-0.6l-0.2-0.4l-0.3-0.4
		l-0.3-0.4l-0.4-0.3h-0.5l-0.5,0.1h-0.5h-0.5h-0.5h-0.5l-0.4-0.1l-0.4-0.3l-0.3-0.4l-0.1-0.5v-0.5l0.1-0.5l0.1-0.5l-0.2-0.4
		l-0.1-0.5l0.1-0.5l-0.3-0.4l-0.4-0.3l-0.3-0.4l-0.2-0.4l-0.2-0.5v-0.5l0.1-0.5l-0.1-0.5l-0.2-0.4l-0.3-0.4l-0.3-0.4l-0.3-0.3
		l-0.3-0.3l-0.3-0.4l-0.3-0.4l-0.2-0.4l-0.2-0.5V374l-0.1-0.5v-0.5l-0.1-0.5L118,372l-0.4-0.3l-0.5,0.1h-0.5l-0.5-0.1l-0.4-0.3
		l-0.1-0.4v-0.5v-0.6l0.1-0.5l0.1-0.5v-0.5l0.1-0.5l0.2-0.5l0.1-0.4l0.1-0.5l-0.1-0.5l-0.2-0.4l-0.1-0.5l-0.1-0.4l-0.5-0.2l-0.4-0.2
		l-0.1-0.5h-0.5h-0.4l-0.3-0.3l0.1-0.5l0.2-0.4l0.3-0.4l0.3-0.4l0.3-0.4l0.2-0.4l-0.1-0.5l-0.4-0.2h-0.5l-0.5,0.2l-0.5-0.1l-0.5-0.2
		l-0.3-0.3l-0.4-0.3l-0.3-0.4l-0.1-0.5v-0.5l0.1-0.5l0.1-0.5v-0.5v-0.5l-0.3-0.4l-0.3-0.3l-0.4-0.3l-0.3-0.3l-0.3-0.4l-0.3-0.4
		L109,353l-0.2-0.5v-0.5l0.1-0.5l0.1-0.5l0.2-0.5l0.1-0.4l-0.4-0.3l-0.2-0.4v-0.5l-0.2-0.4l-0.2-0.5l-0.2-0.4v-0.5l-0.3-0.3
		l-0.4-0.2l-0.4,0.3l-0.4,0.3l-0.4,0.2l-0.5,0.1l-0.4,0.1l-0.4,0.3l-0.1,0.5l0.2,0.4v0.5l-0.3,0.4l-0.3,0.4l-0.3,0.3l-0.4,0.3
		l-0.4,0.2l-0.4,0.3l-0.3,0.4l-0.4,0.2l-0.5,0.1l-0.4-0.1l-0.5-0.2l-0.4-0.2l-0.5-0.2l-0.5-0.1l-0.4-0.2l-0.5-0.2l-0.5-0.1l-0.4-0.1
		l-0.3-0.4l-0.1-0.4l-0.1-0.5l-0.5-0.2l-0.3,0.3l-0.3,0.4l-0.3,0.4l-0.2,0.4l-0.2,0.5v0.5l-0.2,0.5l-0.2,0.4l-0.3,0.3l-0.3,0.4
		l-0.3,0.4l-0.3,0.4l-0.4,0.3l-0.4,0.1l-0.5,0.1l-0.4,0.3l-0.2,0.4l-0.3,0.4h-0.4l-0.8-0.1l-0.1-0.7l-0.2-0.4v-0.5l0.1-0.6v-0.5
		l-0.1-0.4l-0.3-0.4l-0.1-0.5l0.1-0.5l0.2-0.4h0.5l0.5-0.2l0.1-0.5v-0.5l-0.2-0.4l-0.3-0.4l-0.4-0.3l-0.4-0.2l-0.4-0.2l-0.5-0.2
		l-0.5-0.1l-0.4-0.2l-0.4-0.2l-0.4-0.3l-0.5-0.2l-0.4-0.2l-0.4-0.3l-0.3-0.3l-0.2-0.4l0.2-0.5l0.2-0.4V344l-0.3-0.4l-0.3-0.4
		l-0.3-0.4l-0.4-0.3l-0.3-0.3l-0.3-0.4l-0.3-0.4l-0.3-0.4l-0.1-0.5v-0.3l-0.3-0.4l-0.3-0.3l-0.3-0.4l-0.3-0.4l-0.2-0.4l-0.1-0.5
		l-0.1-0.5l0.1-0.4l-0.3-0.4l-0.3-0.4l-0.3-0.4l-0.2-0.4l-0.1-0.5v-0.5l-0.2-0.4l-0.3-0.4l-0.3-0.4l-0.2-0.5l0.1-0.5l0.2-0.4
		l0.3-0.4l0.3-0.4H80l0.5-0.1l0.4-0.2l0.3,0.4h0.4l0.4-0.2l0.4-0.3l0.4-0.3h0.5l0.5-0.1h0.5L85,329l0.3-0.3l0.3-0.4l0.3-0.4l0.3-0.4
		l0.1-0.4l-0.2-0.4l-0.3-0.4l-0.3-0.4l-0.3-0.3l0.2-0.4l0.3-0.3l0.4-0.4l0.2-0.4l-0.1-0.5l-0.3-0.4l-0.3-0.3l-0.4-0.2l-0.5-0.2
		l-0.3-0.4l-0.4-0.3l-0.4-0.3l-0.4-0.2l-0.5-0.1l-0.5-0.2l-0.4-0.2l-0.4-0.3v-0.5l0.1-0.5l0.2-0.5l0.1-0.5l0.2-0.4v-0.5l-0.2-0.4
		l-0.3-0.4l-0.3-0.3l-0.4-0.3l-0.4-0.3l-0.5-0.1l-0.3-0.3l-0.3-0.4l-0.3-0.4l-0.2-0.4v-0.5l0.1-0.5l0.2-0.5l-0.2-0.4l-0.4-0.3
		l-0.3-0.3l-0.2-0.7l0.1-0.5l-0.3-0.4l-0.3-0.4l-0.3-0.4l-0.3-0.3l-0.3-0.3l-0.4-0.3l-0.4-0.3h-0.5h-0.5l-0.5,0.2l-0.3,0.3l-0.3,0.4
		l-0.4,0.3l-0.4,0.2l-0.1-0.4l0.1-0.5l0.2-0.4l0.2-0.5l0.1-0.5l-0.1-0.5v-0.5v-0.5v-0.5l-0.3-0.4l-0.3-0.4l-0.4-0.3l-0.2-0.4
		l-0.3-0.4l-0.5-0.1h-0.5l-0.5-0.2l-0.4-0.3l-0.3-0.3l-0.3-0.4l-0.1-0.4l-0.1-0.5l-0.2-0.4l-0.1-0.5l-0.3-0.4l-0.1-0.5l0.1-0.5v-0.5
		l0.2-0.5l0.1-0.5v-0.5v-0.5l-0.1-0.4l-0.2-0.5l-0.4,0.3l-0.4,0.3l-0.4,0.3l-0.4,0.3h-0.5h-0.5l-0.5-0.1h-0.5l-0.4,0.3l-0.3,0.3
		l-0.2,0.5l-0.1,0.5v0.5l-0.1,0.5l-0.1,0.5l-0.1,0.5l-0.2,0.4l-0.3,0.3l-0.4,0.3H61l-0.5-0.2l-0.3-0.1l-0.4,0.2l-0.4,0.3l-0.2,0.4
		l-0.3,0.3l-0.3,0.4l-0.1,0.5l0.1,0.5l0.1,0.4v0.6l-0.2,0.4l-0.3,0.4l-0.3,0.4l-0.3,0.4v0.5l-0.2,0.4l-0.3,0.3l-0.4,0.2l-0.5,0.1
		l-0.5,0.1l-0.4,0.1l-0.3,0.4l-0.3,0.4l-0.3,0.3h-0.5l-0.5-0.2h-0.5l-0.5-0.1l-0.5,0.1h-0.5l-0.3,0.3l-0.3,0.4l-0.3,0.4l-0.3,0.4
		l-0.2,0.5l0.1,0.5l0.2,0.4l0.3,0.3l0.3,0.4v0.5v0.5l-0.1,0.5l-0.1,0.5l-0.2,0.4l-0.1,0.5v0.5l-0.3,0.4l-0.3,0.4v0.5l0.2,0.4
		l0.3,0.4l0.3,0.4l0.3,0.4v0.5l-0.2,0.5l-0.4,0.3l-0.3,0.4l-0.1,0.4l0.2,0.5l0.3,0.4l0.3,0.4v0.5l-0.3,0.4l-0.3,0.3l-0.3,0.4
		l-0.2,0.5l0.2,0.4v0.6l-0.1,0.4l-0.2,0.5l-0.1,0.5v0.5v0.5v0.5v0.5l-0.3,0.5l-0.3-0.2l-0.5-0.2l-0.4-0.3l-0.3-0.4l-0.2-0.4v-0.5
		v-0.5l-0.1-0.5l-0.2-0.4l-0.2-0.4l-0.3-0.5l-0.3-0.4l-0.3-0.4l-0.3-0.4l-0.3-0.4l-0.3-0.3l-0.3-0.4l-0.1-0.4v-0.5l-0.2-0.5
		l-0.3-0.3l-0.4-0.3l-0.3-0.3l-0.3-0.4L43,319l-0.1-0.5l-0.1-0.5l-0.3-0.4l-0.3-0.3l-0.4-0.3l-0.3-0.4l-0.2-0.4l-0.2-0.5l-0.3-0.4
		l-0.3-0.4l-0.2-0.4l0.1-0.5l0.3-0.4l0.3-0.4l0.3-0.4l0.1-0.5l0.2-0.4v-0.6l-0.1-0.4v-0.5l-0.1-0.5l-0.1-0.5l-0.1-0.4l0.1-0.6v-0.5
		v-0.5l0.1-0.5l0.2-0.5l0.1-0.5v-0.5l-0.1-0.4l-0.3-0.5l-0.2-0.4l-0.2-0.4l-0.2-0.5l-0.2-0.4l-0.1-0.5v-0.5l0.1-0.5l-0.3-0.3
		l-0.2-0.5V299l-0.1-0.5l0.1-0.5l-0.1-0.5l-0.1-0.5l-0.3-0.4l-0.3-0.4l-0.2-0.5l-0.1-0.4l-0.1-0.5v-0.5v-0.5v-0.5l0.1-0.5V292v-0.5
		l0.1-0.6l0.2-0.4l0.1-0.5l0.1-0.5l0.2-0.5l0.2-0.7l0.1-0.5l0.2-0.4l0.1-0.5l0.2-0.4l0.2-0.5v-0.5v-0.5v-0.5v-0.5l0.1-0.5v-0.5v-0.5
		v-0.5l-0.1-0.5v-0.5l-0.1-0.5l0.1-0.5l0.1-0.5l0.1-0.5V278v-0.6l0.1-0.5v-0.5l-0.1-0.5l0.1-0.5v-0.5v-0.5v-0.5v-0.5l0.2-0.5
		l0.1-0.4l0.1-0.5l0.1-0.6l-0.1-0.4l0.1-0.3l-0.1-0.4l-0.2-0.5l-0.1-0.5l-0.2-0.4l-0.2-0.5l-0.1-0.4l-0.1-0.5v-0.5l0.2-0.5v-0.5
		l0.1-0.5l-0.1-0.5l-0.1-0.5l-0.1-0.4l-0.1-0.5l-0.1-0.5l-0.1-0.5v-0.4l-0.1-0.5v-0.5v-0.5v-0.5v-0.5v-0.5l0.1-0.5v-0.6v-0.4v-0.6
		l0.1-0.5l0.2-0.4l0.1-0.5l0.3-0.4l0.1-0.5v-0.5v-0.5l-0.1-0.5l-0.2-0.4l-0.3-0.4l-0.3-0.4l-0.3-0.4l-0.3-0.5l-0.1-0.4l-0.2-0.5
		l-0.2-0.4L39,248v-0.5v-0.5v-0.5l0.1-0.5l0.1-0.6l0.1-0.5l0.1-0.5l0.1-0.4l0.1-0.6l0.1-0.5v-0.5v-0.5l-0.1-0.5v-0.5v-0.5l0.2-0.4
		l0.2-0.5l0.3-0.4l0.2-0.4l0.2-0.4l0.3-0.5l0.2-0.4l0.3-0.4l0.3-0.4l0.2-0.4l0.2-0.4l0.3-0.4l0.1-0.5l0.2-0.5l0.1-0.5v-0.5l0.1-0.5
		l-0.1-0.5l-0.1-0.5l-0.1-0.4l-0.1-0.5l0.2-0.3l0.3-0.3V229v-0.5l0.1-0.5v-0.6l0.1-0.4l0.1-0.6l0.2-0.4l-0.1-0.5l-0.2-0.5l-0.2-0.4
		l-0.3-0.4l-0.3-0.4l-0.2-0.5v-0.5l-0.1-0.5v-0.5l-0.2-0.4l-0.4-0.3l-0.3-0.4l-0.3-0.3l-0.1-0.4l0.2-0.5l0.1-0.4l-0.2-0.5l-0.1-0.4
		l-0.2-0.5l-0.1-0.5l-0.2-0.4l0.2-0.5l0.2-0.4l0.3-0.4l0.2-0.5l-0.1-0.5l-0.1-0.4l0.1-0.5l0.1-0.5v-0.5v-0.5v-0.5v-0.5l0.1-0.5
		l0.3-0.4l-0.2-0.7v-0.5l0.1-0.5v-0.5l0.1-0.6v-0.5v-0.4v-0.6v-0.5v-0.5l-0.1-0.4l-0.1-0.5l-0.1-0.5v-0.5l0.1-0.5v-0.5v-0.5v-0.5
		V199l0.2-0.5v-0.5v-0.5l-0.1-0.5v-0.4l-0.1-0.5v-0.5l-0.1-0.5l-0.1-0.5l-0.1-0.4l-0.2-0.5l-0.1-0.5v-0.5l0.2-0.4l0.2-0.5l0.3-0.3
		l0.5-0.1h0.5l0.4-0.1l0.4-0.3l0.3-0.4l0.2-0.4l-0.1-0.5v-0.5l-0.2-0.5l-0.3-0.4l-0.4-0.3l-0.4-0.3l-0.4-0.3l-0.3-0.3l-0.4-0.3
		l-0.3-0.3l-0.3-0.4l-0.3-0.4l-0.3-0.4l-0.1-0.4l-0.3-0.5l-0.3-0.4l-0.3-0.4l-0.3-0.4l-0.4-0.3l-0.4-0.2l-0.4-0.3l-0.3-0.4l-0.3-0.4
		l-0.2-0.4V180l0.2-0.4l0.3-0.4l0.3-0.3l0.3-0.4l0.2-0.4l0.2-0.4l0.1-0.6v-0.5l-0.2-0.4l-0.1-0.5l-0.2-0.4l-0.2-0.5L37,174l-0.4-0.3
		l-0.4-0.3l-0.4-0.2l-0.4-0.3l-0.3-0.3l-0.3-0.4l-0.3-0.4l-0.3-0.3l-0.3-0.5l-0.1-0.5v-0.5v-0.5l-0.1-0.4l-0.1-0.5l-0.2-0.4
		l-0.3-0.5l-0.3-0.4l-0.3-0.4l-0.3-0.3l-0.3-0.3l-0.4-0.3l-0.3-0.3l-0.4-0.3l-0.3-0.4v-0.5v-0.5l0.1-0.5l-0.1-0.5l-0.1-0.4l-0.2-0.5
		l0.1-0.5l0.2-0.5l0.3-0.4l0.3-0.4l0.1-0.4l0.2-0.5l0.3-0.4l0.2-0.4l0.3-0.3l0.4-0.3h0.4h0.6l0.4,0.3l0.3,0.3l0.4,0.4l0.3,0.4
		l0.3,0.4l0.3,0.4l0.2,0.4l0.2,0.5l0.3,0.4l0.3,0.3l0.3,0.4l0.3,0.3l0.4,0.3l0.4-0.1l0.2-0.4l0.3-0.3l0.3-0.4l0.3-0.4l0.3-0.4
		l0.3-0.4l0.2-0.4l0.3-0.4l0.3-0.3l0.4-0.3l0.5-0.3l0.4-0.3l0.4-0.3l0.3-0.3l0.2-0.5l-0.1-0.5l-0.2-0.4l-0.1-0.5l-0.4-0.6l-0.3-0.5
		l-0.3-0.4l-0.3-0.4l-0.3-0.5l-0.3-0.4l-0.3-0.4l-0.2-0.4l-0.3-0.4l-0.4-0.3l-0.4-0.3l-0.4-0.3l-0.3-0.3l-0.4-0.3l-0.3-0.4l-0.3-0.4
		l-0.3-0.4l-0.3-0.4l-0.3-0.4l-0.3-0.4l-0.3-0.4l-0.3-0.4l-0.3-0.4l-0.4-0.3l-0.4-0.3l-0.3-0.3l-0.3-0.4l-0.3-0.4l-0.3-0.4l-0.3-0.4
		l-0.3-0.4l-0.3-0.4l-0.3-0.3l-0.4-0.3l-0.4-0.3l-0.3-0.4l-0.2-0.5l0.1-0.5l0.1-0.5l0.1-0.5l0.2-0.4l-0.1-0.5l-0.3-0.4l-0.2-0.5
		l-0.3-0.4l-0.5-0.1l-0.3-0.4l-0.3-0.5l-0.3-0.4l-0.2-0.5l-0.2-0.4l-0.3-0.4l-0.4-0.3l-0.4-0.3l-0.4-0.3l-0.3-0.3l-0.3-0.5l-0.3-0.4
		l-0.3-0.3l-0.3-0.5l-0.1-0.4l0.1-0.5v-0.6v-0.5v-0.5v-0.5l-0.1-0.4l-0.1-0.5v-0.5l0.4-0.3l0.4-0.3l0.1-0.5l-0.3-0.4l0.1-0.5
		l0.2-0.5l0.1-0.5v-0.5v-0.5l-0.2-0.5l-0.1-0.5l-0.2-0.4l-0.3-0.4l-0.3-0.4l-0.3-0.4l-0.2-0.4l-0.2-0.5l-0.3-0.4l-0.3-0.4l-0.3-0.4
		l-0.3-0.4l-0.3-0.3l-0.3-0.4l-0.4-0.3l-0.3-0.4l-0.1-0.4l-0.2-0.5l-0.2-0.4l-0.2-0.5l-0.3-0.4l-0.2-0.4l-0.3-0.5l-0.1-0.4l-0.1-0.5
		l-0.1-0.5l-0.1-0.4l-0.3-0.4l-0.3-0.4l-0.3-0.4l-0.6-0.5l-0.1-1v-0.5v-0.5v-0.5v-0.5l-0.1-0.5l0.2-0.5l0.1-0.5l0.1-0.4l0.1-0.5
		l0.2-0.5l-0.1-0.4l-0.3-0.4l-0.3-0.3l-0.1-0.3l-0.5-0.2l-0.4-0.3l-0.3-0.4l-0.3-0.3L16,98.3l-0.5-0.1L14.9,98l-0.4-0.2L14,97.7
		l-0.4-0.3l-0.3-0.3l-0.4-0.3l-0.3-0.3l-0.3-0.4l-0.3-0.4l-0.4-0.3l-0.4-0.3l-0.3-0.3l-0.5-0.3L9.7,94l-0.4-0.3l-0.4-0.3l-0.5-0.2
		l-0.4-0.2l-0.4-0.3L7,92.7l-0.5-0.3l-0.4-0.1l-0.5-0.2L5,92l-0.4-0.3l-0.4-0.2l-0.4-0.3l-0.4-0.2l-0.5-0.3l-0.3-0.3L2,90.2L1.6,90
		l-0.5-0.1l-0.4-0.2l-0.5-0.2l-0.4-0.2l-0.5-0.3l-0.4-0.2l-0.5-0.2l-0.4-0.2l-0.5-0.3L-3.2,88l-0.4-0.3l-0.4-0.3l-0.4-0.3l-0.3-0.3
		l-0.3-0.4l-0.2-0.4l-0.3-0.4L-6,85l-0.3-0.4l-0.3-0.3l-0.4-0.3l-0.4-0.2L-8,83.5l-0.4-0.2l-0.4-0.3l-0.4-0.3l-0.3-0.3l-0.3-0.4
		l-0.4-0.3l-0.3-0.4l-0.4-0.3l-0.4-0.3l-0.3-0.3l-0.3-0.4l-0.2-0.4l-0.1-0.5l-0.2-0.4l-0.3-0.5l-0.3-0.4l-0.2-0.4l0.1-0.5v-0.6
		l-0.1-0.4l-0.2-0.5l-0.2-0.4l-0.2-0.5l-0.2-0.4l-0.2-0.5l-0.3-0.4l-0.1-0.5l0.2-0.4l0.2-0.5l0.3-0.4l0.1-0.5v-0.5l-0.1-0.5
		l-0.2-0.5l-0.1-0.4l-0.2-0.5l-0.4-0.3l-0.4-0.3l-0.2-0.4l0.3-0.5l0.3-0.3l0.3-0.5l0.1-0.5l0.2-0.4l0.4-0.3l0.5-0.2l0.5,0.1l0.5-0.1
		l0.5,0.1l0.4-0.2l0.5-0.2l0.5-0.1h0.4h0.6h0.5l0.4,0.1h0.5l0.5-0.1l0.3-0.4l-0.1-0.4l-0.3-0.4L-8,62l0.3-0.3l0.4-0.3l0.5-0.2
		l0.3-0.3l0.1-0.5v-0.5l-0.2-0.5l-0.3-0.4l-0.3-0.4l-0.3-0.4l-0.3-0.4l-0.3-0.4L-8,56.8l0.1-0.6l0.2-0.4l0.1-0.5l0.2-0.5l0.3-0.4
		l0.4-0.3l0.3-0.4l0.3-0.3l0.4-0.3l0.4-0.3l0.4-0.2l0.4-0.3l0.4-0.3l0.4-0.3l0.4-0.3l0.3-0.4l0.3-0.4l0.2-0.4l0.3-0.4l0.2-0.4
		l0.3-0.4l0.3-0.4l0.3-0.4l0.3-0.4l0.2-0.5l0.2-0.4l0.3-0.4l0.4-0.2l0.5,0.1L1.3,46h0.4l0.4-0.3l0.3-0.4l0.4-0.4l0.4-0.1l0.5-0.1
		l0.4-0.2l0.3-0.4L5,43.7l0.8-0.2l0.4-0.3l0.2-0.4l-0.1-0.5L5.8,42l-0.4-0.2l-0.5-0.2H4.4H3.8l-0.5-0.1l-0.5,0.1l-0.4-0.3L2,41
		l-0.3-0.5L1.5,40l-0.3-0.3l-0.6-0.1L0,39.8l-0.4-0.2l-0.4-0.2l-0.5-0.2h-0.5l-0.4-0.2l-0.5-0.2l-0.4-0.3l-0.2-0.4v-0.5l-0.1-0.5
		l-0.2-0.5v-0.4l-0.1-0.5v-0.5v-0.5l0.2-0.5l0.1-0.5l0.1-0.5l-0.1-0.5l-0.3-0.4l-0.4-0.3l-0.4-0.2h-0.5l-0.5,0.1h-0.5l-0.5-0.1
		l-0.4-0.2l-0.4-0.3l-0.1-0.4v-0.5l0.1-0.6l0.2-0.4l0.2-0.5l0.1-0.5l0.2-0.4l0.2-0.5l0.2-0.5v-0.5l0.1-0.5V25v-0.5l0.1-0.5l0.1-0.6
		v-0.5l-0.1-0.4l-0.2-0.5l-0.2-0.5l-0.1-0.4L-7,20.4L-7.2,20l-0.3-0.5l-0.3-0.3L-8,18.6l0.2-0.5l0.3-0.3l0.4-0.3l0.3-0.4l0.1-0.5
		v-0.5l0.2-0.4l0.4,0.1l0.4,0.3l0.5,0.1l0.5-0.1l0.5-0.1l0.4-0.3l0.4-0.2l0.5-0.2h0.5h0.5l0.5,0.1l0.5,0.1l0.4-0.3h0.5L0.8,15h0.5
		l0.4-0.3l0.4-0.2h0.5l0.5,0.2L3.7,15l0.4,0.2l0.3-0.4l0.3-0.3l0.3-0.3l0.2-0.5L5.4,13l0.2-0.4l0.3-0.5l0.3-0.3l0.4-0.3L7,11.1
		l0.4-0.3l0.4-0.3l0.2,0.5l0.3,0.5l0.2,0.4l0.3,0.4l0.4,0.3l0.4,0.2l0.5,0.2l0.4,0.3l0.3,0.3l0.1,0.5v0.5l-0.2,0.5l-0.3,0.4
		l-0.4,0.3l-0.3,0.2l-0.3,0.4l-0.3,0.3L9,17.3l-0.2,0.4l0.1,0.5l0.3,0.4l0.5,0.2l0.4,0.1l0.5,0.3l0.4,0.2l0.5,0.1h0.5l0.4-0.1
		l0.5-0.3l0.4-0.3l0.4-0.3l0.4-0.2l0.5-0.1l0.5-0.1l0.4-0.1l0.5-0.2l0.4-0.2l0.4-0.3l0.1-0.6l0.3-0.3l0.4-0.3l0.5-0.1h0.5h0.5h0.5
		h0.5l0.5-0.1l0.5-0.1l0.5,0.1l0.4,0.3l0.4,0.3l0.3,0.4l0.4,0.2l0.5-0.3l0.4-0.2l0.4-0.3h0.5l0.5,0.2l0.4,0.2l0.4,0.3l0.5,0.2
		l0.4,0.3l0.4,0.3l0.4,0.1l0.5,0.1l0.4,0.3l0.3,0.3l0.4,0.3l0.4,0.3l0.4,0.3l0.3,0.3l0.3,0.4l-0.2,0.4L31.7,21l-0.4,0.3L31,21.8
		l-0.1,0.5l0.1,0.4l0.4,0.3l0.5-0.1l0.5-0.1l0.5-0.1l0.4,0.1l0.5-0.1h0.5l0.5-0.2l0.5-0.1l0.4-0.1l0.5-0.2l0.4-0.2h0.5l0.4,0.5
		l0.3,0.3l0.4,0.3l0.4,0.3l0.5,0.2l0.4,0.2l0.4,0.3l0.3,0.3l0.3,0.4l0.3,0.4l0.3,0.5l0.2,0.4l0.2,0.4l0.1,0.5l0.3,0.4l0.2,0.5
		l0.2,0.4l0.4,0.3l0.4,0.3l0.3,0.3l0.3,0.5l0.3,0.4l0.3,0.4l0.3,0.4l0.3,0.4l0.3,0.4l0.3,0.4l0.3,0.3l0.5,0.3l0.3,0.4l0.3,0.4
		l0.3,0.4l-0.1,0.4l-0.4,0.3h-0.5l-0.5-0.2l-0.3,0.4l-0.1,0.4l0.1,0.5l0.3,0.4l0.3,0.4l0.4,0.2l0.3,0.5l0.1,0.4V39l-0.1,0.5
		l-0.3,0.4l-0.3,0.4l0.3,0.4l0.3,0.3l0.3,0.3l0.4,0.3l0.4,0.3l0.3,0.3l0.3,0.5l0.3,0.4l0.3,0.4l0.3,0.4l0.3,0.4l0.2,0.4l0.2,0.5
		L50.1,46l-0.3,0.4l-0.3,0.4v0.5l0.1,0.4l0.2,0.5l0.2,0.4l0.2,0.5l0.3,0.4l0.4,0.3l0.3,0.3l0.1,0.5l-0.1,0.5L51,51.8l-0.3,0.4
		l-0.3,0.3L50.1,53L50,53.5l0.1,0.4l0.3,0.4l0.3,0.5v0.5l0.3,0.4l0.3,0.3l0.3,0.4l-0.1,0.5l-0.1,0.5l-0.4,0.4l-0.3,0.3l0.3,0.4
		l0.3,0.3l0.2,0.3l0.3,0.4l0.3,0.4l0.2,0.4l0.3,0.4l0.3,0.4l0.3,0.4l0.3,0.4l0.4,0.3l0.5,0.1l0.4,0.3l0.4,0.3l0.4,0.3l0.4,0.1
		l0.5,0.2l0.5,0.1l0.4,0.3l0.4,0.3l0.1,0.4l0.1,0.5l0.3,0.4l0.3,0.3h0.5l0.3-0.4l0.4-0.3h0.4l0.3,0.4l0.3,0.4l0.3,0.3L62,67l0.5,0.2
		l0.3,0.4l0.4,0.3l0.3,0.3l0.3,0.4l0.4,0.3l0.4,0.2l0.4,0.2l0.6,0.1l0.4,0.1l0.5,0.2l0.3,0.3l0.1,0.5l0.3,0.4l0.4,0.3l0.3,0.3
		l0.2,0.5l0.1,0.4l0.1,0.5l-0.1,0.5l0.1,0.5l0.1,0.5l0.1,0.5l0.1,0.4v0.5l0.2,0.5l0.2,0.4v0.5l-0.1,0.5l1,0.6l1.4-0.1l2.2,0.2
		l1.6,1.5l1.6,1l1.9,1.2l1,0.7l1.9,0.4l1,0.6l0.6,1.2l0.4,0.9l0.6,0.7h0.8l1.4-0.2l1-0.5l0.9,0.2l0.4,1.6l0.2,0.9l1,0.7l0.8-1.4
		l0.5-3l0.8-3.1l-0.2-1.6l-0.3-1v-0.9l0.8-0.5l1.6,0.4l0.9,0.2l1-1.4l0.5-2v-1.4l1.1-0.5l0.5,0.3l1,1.3l0.8,1.8l0.7,1.3l0.8,1.1h0.5
		h0.5h0.5h0.5h0.5l0.4,0.3l-0.1,0.5l-0.2,0.5l-0.1,0.5l0.2,0.4l0.3,0.4l0.4,0.2l0.5,0.1l0.3,0.4l0.3,0.4l0.3,0.3l0.4,0.3l0.4,0.3
		l0.3,0.5l-0.1,0.5l-0.1,0.5l-0.1,0.5l-0.2,0.5l-0.1,0.4l-0.1,0.5l0.3,0.4l0.2,0.4l0.1,0.5l-0.1,0.5l-0.2,0.5l-0.2,0.4v0.5v0.5
		l-0.3,0.4l-0.4,0.3l-0.4,0.3l-0.4,0.3l-0.3,0.4l0.1,0.5l0.1,0.5l0.1,0.4l0.2,0.5l0.3,0.3l0.5,0.2l0.4,0.3l0.5,0.1h0.5h0.5l0.3,0.3
		l0.3,0.4l0.3,0.4l0.4,0.3l0.3-0.4l0.3-0.3l0.3-0.3l0.3-0.4v-0.5l-0.1-0.5v-0.5v-0.5l0.2-0.5l0.1-0.5l0.3-0.4l0.2-0.4l0.4-0.3
		l0.4-0.3l0.4-0.3l0.5,0.1l0.5,0.1l0.4,0.2l0.4,0.2l0.6,0.1l0.4,0.2l0.5-0.1l0.5-0.1l0.4-0.3l0.3-0.4l0.4-0.1l0.5-0.1l0.5,0.3
		l0.3,0.4l0.3,0.4l0.3,0.3l0.4,0.3l0.2,0.4l0.1,0.5L121,94l0.4,0.2l0.5,0.1l0.4,0.3l0.2,0.5l0.2,0.4l0.1,0.5l0.3,0.4l0.3,0.4
		l0.3,0.4l0.2,0.5l0.2,0.4v0.5l0.1,0.5l0.3,0.4l0.3,0.3l-0.5,1.6l-1.4,1.5l-1.3,0.6l-1.1,0.7l0.1,1l0.4,1l0.5,1.1l1,0.3l1,0.7
		l0.7,0.7l0.7-0.2l0.4-0.3l0.5-0.3l0.4-0.3l0.3-0.3l0.4-0.3l0.3-0.4l0.3-0.4l0.1-0.5l-0.1-0.4l0.1-0.5l0.3-0.4l0.5-0.3l0.4-0.2
		l0.4-0.2l0.4-0.3l0.3-0.4l0.2-0.5l0.1-0.5v-0.5l0.1-0.5l-0.1-0.5v-0.5v-0.5l0.2-0.5l0.1-0.4l0.3-0.4l0.4,0.1l0.3,0.4l0.3,0.4
		l0.4,0.1l0.5-0.2l0.1-0.4l-0.1-0.5l-0.2-0.4l-0.2-0.5l-0.3-0.4l-0.3-0.4l-0.3-0.4l-0.1-0.5l0.4-0.3l0.4,0.2l0.3,0.4l0.3,0.4
		l0.3,0.3l0.4,0.3l0.5,0.1l0.5,0.1l0.5,0.3l0.3,0.3l0.4,0.3l0.5,0.2l0.4,0.1h0.5h0.5l0.5,0.1l0.4,0.3l0.5,0.2l0.4,0.1l0.5,0.2
		l0.5,0.2l0.3,0.3l0.3,0.3l0.4,0.3l0.5,0.1l0.4-0.3l0.4-0.3l0.4-0.1l0.5-0.1l0.5-0.2l0.4-0.3l0.4-0.2l0.4-0.3l0.4-0.3l0.4-0.3
		l0.4-0.3l0.4-0.3l0.5-0.1l0.4,0.2l0.5,0.3l0.3,0.3l0.3,0.4l0.4,0.3l0.5,0.1l0.4-0.1l0.3-0.2l0.4-0.3l0.4-0.2l0.4-0.3l0.4-0.3
		l0.3-0.3l0.3-0.4l0.3-0.3l0.3-0.4l0.2-0.4l0.3-0.4l0.3-0.4l0.2-0.4l0.2-0.5l0.2-0.4l0.2-0.5l0.1-0.5v-0.5l0.1-0.5l0.3-0.3l0.1-0.5
		l-0.1-0.5l-0.1-0.4l-0.3-0.5l-0.1-0.4l-0.1-0.5v-0.5l-0.3-0.4l-0.4-0.2l-0.5-0.2l-0.4-0.1l-0.5-0.2l-0.5-0.1l-0.4-0.3l-0.4-0.3
		l-0.3-0.3l0.1-0.5l0.2-0.4l0.1-0.5l0.1-0.5l0.1-0.5v-0.5l-0.2-0.4l-0.1-0.5l0.1-0.5l-0.1-0.5l-0.2-0.5v-0.4l0.1-0.5l0.2-0.5
		l0.3-0.2l0.4-0.3l0.4-0.3l0.3-0.4l0.1-0.5l0.2-0.5l0.3-0.3l0.3-0.4v-0.5l-0.1-0.4l-0.1-0.5l0.1-0.5l0.2-0.5l0.4-0.3l0.5-0.1
		l0.5-0.2l0.4-0.1l0.5-0.1l0.4-0.2l0.5-0.1l0.5,0.1l0.5-0.1l0.5-0.2l0.4-0.1h0.5l0.5-0.1l0.4-0.3l0.4-0.1l0.5,0.2l0.5,0.1l0.3,0.3
		l0.3,0.4l0.3,0.4l0.1,0.5l0.2,0.4l0.3,0.4l0.4,0.1l0.3-0.4l0.1-0.5l0.1-0.5l-0.2-0.4l-0.1-0.5l0.1-0.5l0.1-0.5l0.1-0.4l0.4-0.3
		l0.5,0.2h0.5l0.5-0.1h0.5l0.5,0.1l0.5,0.2l0.3,0.3l0.4,0.3l0.3,0.3l0.3,0.3l0.3,0.3l0.3,0.4l0.4,0.6l0.3,0.3l0.4,0.3l0.3,0.3
		l0.3,0.4l0.3,0.4l0.3,0.3l0.4,0.3l0.3,0.4l0.3,0.3l0.3,0.4l0.4,0.3l0.5-0.1l0.4-0.3l0.3-0.4l0.3-0.4v-0.5l0.1-0.5l0.1-0.5l0.2-0.5
		l0.3-0.3l0.3-0.4l0.3-0.4l0.3-0.4l0.4-0.3l0.4-0.1l0.4-0.3l0.3-0.4l0.3-0.3l0.3-0.4l0.2-0.4l0.2-0.5l-0.1-0.4l-0.3-0.5l-0.3-0.3
		l-0.3-0.3l-0.4-0.3l-0.4-0.3l-0.5-0.2l-0.3-0.3l-0.3-0.4v-0.5v-0.4l-0.2-0.5v-0.5l0.2-0.4l0.3-0.4l0.3-0.4l0.3-0.4l0.2-0.4l0.3-0.4
		l0.2-0.4l0.3-0.4l0.3-0.3l0.5-0.2l0.5,0.1l0.5,0.1h0.5h0.5l0.4-0.2l0.3-0.3l0.1-0.5l0.2-0.5v-0.5l0.1-0.5v-0.5l0.1-0.5l-0.1-0.5
		L183.8,56.1L183.8,56.1"/>
</g>
</svg>
