<?xml version="1.0" encoding="utf-8"?>
<!-- Generator: Adobe Illustrator 27.0.0, SVG Export Plug-In . SVG Version: 6.00 Build 0)  -->
<svg version="1.1" id="Layer_1" xmlns="http://www.w3.org/2000/svg" xmlns:xlink="http://www.w3.org/1999/xlink" x="0px" y="0px"
	 viewBox="0 0 500 500" style="enable-background:new 0 0 500 500;" xml:space="preserve">
<style type="text/css">
	.st0{fill:#E74646;stroke:#FFFFFF;stroke-width:4.6041;stroke-linecap:square;stroke-linejoin:bevel;stroke-miterlimit:3.998;}
</style>
<g transform="matrix(0.999751,0,0,0.999751,18.6633,21.7738)">
	<path vector-effect="none" class="st0" d="M391.5,270.7l-7.1,0.5l-2.9,0.5l-3.8,1.9l-7.1,2.9l-3.8,0.5l-3.3,1l-2.4,1.9l-3.8,1.9
		l-3.8,1.9l-3.3,1.9l-2.4,1.9l-3.8,1.9l-2.4,3.3l-3.3,2.9l-2.9,3.3l-2.4,2.9l-1.4,4.3l-1,1.9l-3.3,3.3l-4.3,1h-2.4l0.5,1.9l2.9,2.4
		l1,2.9l1,2.9v2.9l0.5,2.9l-1,4.3l-1,4.3l4.8,1.9l2.4,3.8l1.4,2.4l-1,1.9l-1.9-1.4l-1.9,1l-2.4-1.9h-3.3l-1.9,2.9l1.4,2.9l0.5,1.4
		l-1,3.8l-1.9,3.3l-1.4,1.9l-2.9,1.9l-4.3,7.6l-4.8,6.2l-2.4,4.8l-1,2.9l-1,2.9l0.5,3.3l-1.9,0.5l-1.4,1l-1,1l-0.5,2.9l-0.5,3.3
		l-1.4,6.2l-5.2,3.8l2.4,1.9l-1,1.9l-0.5,2.9v3.8l-0.5,4.3l-1,4.3l-1.4,2.9l-2.4,1.4l1.9,1.9l2.9,2.9l-1,3.3l1,5.2l0.5,4.8l-0.5,2.4
		l-1,2.4l-3.3,1.4l-2.4-0.5l-2.9-1l-2.4-1l-2.4-1H274l-3.3,0.5l-2.4,0.5l-2.9,0.5l-2.9,1l-2.4,1l-2.4,1.4l-1.9,1.4l-2.4,1.9
		l-2.4,1.4l-2.4,1l-2.9,1l-2.4,1.4l-2.4,1l-2.9,1l-2.4,0.5l-2.9,1l-2.4,1l-2.9,1l-2.4,0.5l-2.9,0.5h-2.9l-1.9-1.9l0.5-2.9l1.4-2.4
		l1.9-2.4v-2.4l-1-2.9l-2.9-0.5h-2.9l-2.9,0.5l-2.9,0.5l-2.9,0.5l-2.4,1l-2.4,1.4l-2.4,2.4l-11.9,5.7l-2.4-2.9l-1.9-1.9l-2.4-1.4
		l-2.4-1.4l-1.9-2.4l-1-2.4l-0.5-2.9v-2.9l0.5-2.9l-1-2.4l-1-2.9l-1.9-1.9l-2.4-1.4h-2.9l-2.9,1l-2.9,0.5l-2.4,0.5l-2.9,1l-2.9,0.5
		h-2.9H147h-2.9h-2.9h-2.9l-2.9-1l-1.9-1.4l-1.9-2.4l-1.4-2.4l-1-2.4l-1.4-2.4l-2.4-1.4l-2.9-0.5h-2.9l-2.9,0.5l-2.4,0.5l-2.9,1
		l-2.9,0.5l-2.4,1l-1.4-1.9l-1-2.4l-1-2.9l-1-2.4l-1-2.4l-0.5-2.9v-2.9l0.5-2.9v-2.9l0.5-2.9l-0.5-2.9l-1-2.4l-1.9-1.9l-2.4-1.4
		l-0.5-1.4v-2.9l-0.5-2.9l-1-2.9l-1-2.4v-3.3v-2.9l0.5-2.4l1-2.9l0.5-2.4l1-2.9l0.5-2.4l1-2.9l1-2.4l1-2.9l1-2.4l1-2.4v-2.9l1.9-2.4
		l2.9-0.5l2.9-1l2.4-1.4l2.4-1.4l1.9-1.9l2.4-1.4l2.4-0.5l2.9-1h2.9l2.9-1l2.4-1l2.4-1.4v-3.8l1-2.9l0.5-2.4l0.5-2.9l1-2.4l0.5-2.9
		l1.4-2.4l1.9-1.9l1.4-2.4v-1.4l-2.9-1.4l-2.4-1.4l-2.9-1h-2.9l-2.9,0.5h-2.9l-0.5-1.9l-1-2.9l-0.5-2.9l-0.5-2.9v-2.9l1.4-2.4
		l1.4-1.9l1.9-2.4l0.5-2.9l-1-2.9l-1.4-1.9l-1.4-2.4l-0.5-2.9l-1-2.9l0.5-2.9l0.5-2.4l1.4-2.4l1-2.4l-0.5-2.9l-1.4-2.4l-1.9-1.9
		l-1.9-1.9l-2.9,0.5l-1.4,2.4l-2.4,1.4l-1.9-2.4v-2.9l0.5-2.9l0.5-2.4l1-2.9l0.5-2.4l0.5-2.9l0.5-2.9l1-2.4l0.5-2.9l-1.9-1.9
		l-2.4-1.9l-2.9-1l-2.4-1l-1.9-2.4l-0.5-2.4l0.5-2.9l0.5-2.9l0.5-2.4v-3.3l0.5-2.4l0.5-2.9l-1.4-2.4l-2.4-1.4l-1.9-1.9l-0.5-2.9
		l-0.5-2.9V188l0.5-2.9l1-2.9l1-2.4l1.4-1.9l1.9-1.9l1.4-2.4l0.5-2.9l1-2.4l1-2.4l1.4-2.4l2.4-1.4l2.9-1l2.4-1.4l1.9-1.4l1-2.9
		l-0.5-2.9l1.9-1.9l2.9-0.5l2.9-0.5l2.9,1l0.5,2.9v2.4v2.9l1.4,2.4l1.9,2.4l2.4,1.4l2.9,1h2.9l2.4-0.5l2.9-0.5h2.9l2.9,0.5l2.4,1
		l2.4,1l2.9,1l2.4,0.5l2.9,0.5h2.9l2.4,1l4.3,1.4l1.9-3.3l1-2.4l1-2.9l0.5-2.4V158l-0.5-3.3v-2.9v-2.9v-2.9v-2.9l-0.5-2.9l1-2.9
		l1-2.4l1.4-2.4l1.4-2.4l1-2.4l-1-2.9l-1.9-1.9l-2.4-1.4l-2.4-1.4l-1.9-1.9v-2.9l1.9-1.9l3.3-1l2.4-1.4l2.9-0.5l2.4-1.4l2.4-1
		l2.9-0.5l2.4-1l0.5-3.8l-1.4-2.4l-1.9-1.9l-2.9-1h-2.9h-2.9h-2.9l-2.4-1l-2.4-1l-1.9-2.4l-1.4-2.4l-1-2.4l-0.5-2.9l-0.5-2.9v-2.9
		l0.5-2.9l0.5-2.9l1-2.4l1.9-2.4l1.9-1.9v-2.9l-0.5-2.9V60v-2.9l0.5-2.9v-2.4l-1-2.9l-0.5-2.9l0.5-2.4l2.4-1.4l2.4-1.4v-2.9
		l-1.4-1.9l1.9-3.8l1.9-2.4l1.9-1.9l2.4-1l2.9-0.5l2.9,0.5l2.4-1l0.5-2.9L196,21l-1.4-2.4v-2.9l1.4-2.4l2.4-1.4h2.9l2.9,0.5l2.9,1
		h2.4l2.4-1.9l1.4-2.4l1-2.4l1.4-2.4l2.9-1l1.9-1.4v-2.4l-2.4-2.4l-1-2.4V-8l2.4-1.4l2.4-1l2.4-1.4l1-2.4l1.9-2.4l2.9-1l2.4,1
		l2.9,0.5l2.4,1.4l2.4,1.4l2.4,1h2.9l2.9-0.5l2.9,0.5l2.4,1.9l2.4,1.4l1.4,2.4l1,2.4l1,2.9l1.9,1.9l1.9,1.9l1.4,2.4l1.4,2.4l1.9,1.9
		l2.4,1.9l1.9,1.9l2.4,1.4l1.9,2.4l2.4,1.4l2.4,4.3l1.4,4.3l3.8,3.3l4.8,2.9l5.2,1l5.2-1.4l3.8,2.4l3.3,2.9l1.9,2.9l-0.5,5.2
		l-1.4,6.7l-3.8,3.8l-4.3,2.4l-1.4,0.5l-1.9-1l-2.4-0.5l-2.9-1l-1.4,0.5l-1.9,0.5l-1.9,1.9l-2.9,1l-2.9-0.5l-2.9,0.5l-2.4-0.5
		l-2.9-1.4l-1.9-1.9l-1.9-1.4l-2.9-0.5l-2.4,1l-2.9,0.5l-2.4,1.4V60l-0.5,2.9l-0.5,2.9l-1,2.4l-0.5,2.9l-0.5,2.9v2.9l-0.5,2.9v2.4
		l-0.5,2.9l0.5,2.9l1,2.4l1.9,2.4l1.9,1.9l1.9,2.4l1,2.4l0.5,2.9l1,2.4l0.5,2.9l0.5,2.9v2.9v2.9l-0.5,2.9v3.8l2.4,1l2.9,1l2.4,1
		l2.4,0.5l1.9,2.4v2.4l-1.4,2.4v2.9l2.4,1.9l2.4,1l2.9,0.5l2.4,1l1.4,2.4l0.5,2.4l1,2.9l1.4,2.4l1.4,2.4l-0.5,2.9l-1.9,1.9l-1,2.9
		v2.9l0.5,2.9l1.9,1.9l2.4,1.4l2.4,1.4l2.4,1.4l2.4,1l2.4,1l1.9,1.9l0.5,2.9v2.9l1,2.9l2.4,0.5l1.9-1.4l1-2.9l0.5-2.4v-2.9l1-2.9
		l0.5-2.9l2.4-1.4l2.4-1l2.9,0.5l2.9,0.5l2.9,0.5h2.9l2.9-0.5l2.4-1l2.4-1.9l2.9-0.5h2.9l2.4,0.5l2.9,1l2.4,1.4l2.4,1.4l1.9,2.4
		l1,1.4l-1.4,2.4l-1.4,2.4l-0.5,2.4l-0.5,2.9l-0.5,2.9l-0.5,2.9l-0.5,2.4l-0.5,2.9l-0.5,2.4l-1,2.9l-1.4,2.4l-0.5,2.9l-0.5,2.4
		l-0.5,2.9v2.9l-0.5,2.9l-1,2.4l-0.5,2.9v2.9l2.4,0.5l2.4-1l2.4-1.4l2.9-0.5h2.9h2.9l2.9,0.5l2.4,1.4l1.9,1.9l1,2.9l1,2.4l2.4,1.9
		h2.9h2.9l1.4,2.4l1.4,2.4l1,2.4l0.5,2.9l1,2.9l0.5,2.9v2.9l-1,3.8l1.4,1.9l1.9,2.4l1.9,1.9l1.4,2.4l1.9,1.9l1.9,2.4L391.5,270.7
		L391.5,270.7"/>
</g>
</svg>
