<?xml version="1.0" encoding="utf-8"?>
<!-- Generator: Adobe Illustrator 27.0.0, SVG Export Plug-In . SVG Version: 6.00 Build 0)  -->
<svg version="1.1" id="Layer_1" xmlns="http://www.w3.org/2000/svg" xmlns:xlink="http://www.w3.org/1999/xlink" x="0px" y="0px"
	 viewBox="0 0 500 500" style="enable-background:new 0 0 500 500;" xml:space="preserve">
<style type="text/css">
	.st0{fill:#E74646;stroke:#FFFFFF;stroke-width:4.6041;stroke-linecap:square;stroke-linejoin:bevel;stroke-miterlimit:3.998;}
</style>
<g transform="matrix(0.999751,0,0,0.999751,18.6633,21.7738)">
	<path vector-effect="none" class="st0" d="M284.3,360.5L284.3,360.5l0.2-0.1l0.2-0.1l0.2-0.1l0.3-0.2l0.1-0.2l0-0.2l-0.3-0.2
		l-0.2-0.1l-0.2,0l-0.3-0.1l-0.1-0.1l-0.2-0.1l-0.2,0l-0.2-0.2l-0.3-0.2l-0.1-0.1l-0.1-0.2l-0.2-0.2l-0.2-0.2l-0.5-0.3l-0.5-1.1
		l-0.5-0.5l-0.3-0.4l-0.6-0.3l-0.2-0.3l-0.5-0.5l-0.1-0.1l-0.1-0.2l-0.1-0.4l-0.2,0.1l-0.3,0.1l-0.4,0.2l-0.2,0.2l-0.4,0.3l0,0.6
		l-0.6,0.4l-0.2,0.3l-0.5,0.2h-0.7h-0.3l-0.8-0.4l-0.5-0.3l-0.3,0.5l-0.1,0.3l-0.1,0.3l-0.1,0.5l-0.2,0.4l-0.3,0.1h-0.2l-0.5-0.3
		l-0.4-0.2l-0.7-0.5l-0.4-0.4l-0.9-0.5l-0.6-0.3l-1.4-0.9l-0.6-0.8l-0.7-0.5l-0.8-0.5l-0.5-0.6l-0.6-0.7l-0.2-0.4l-0.5-0.4l-0.3-0.2
		l-0.2-0.1l-0.5,0.1l-0.2,0l-0.4,0.1l-0.9,0.2l-0.4,0.2l-0.3,0.1l-0.5,0l-0.3-0.1l-0.5-0.2l-0.4-0.1l-0.5-0.3L258,350l-0.4-0.4
		l-0.3-0.1l-0.5-0.2h-0.3l-0.5,0l-0.3-0.3l-0.4-0.5l-0.6-0.8l-0.4-0.6l-0.1-0.1l-0.2-0.2l-0.3,0l-0.2-0.1l-0.2-0.1l-0.3-0.2l-0.4,0
		h-0.2h-0.1l-0.3,0h-0.3l-0.2,0l-0.2,0l-0.3-0.4l-0.1-0.1l-0.2-0.2l-0.1-0.1l-0.1-0.1l-0.1-0.1l-0.1-0.2l-0.3-0.3l-0.3,0.3l-0.2,0
		l-0.2,0l-0.2,0.1l-0.1,0l-0.2,0l-0.1,0.1l-0.2,0.1l-0.2,0h-0.2l-0.1-0.1l-0.1-0.1l-0.1-0.1l-0.1-0.2l-0.3-0.2l-0.1-0.1l-0.2-0.1
		l-0.1-0.1l-0.2-0.3l-0.5,0l-0.3,0l-0.2-0.1h-0.3H245h-0.4l-0.1-0.1l-0.1-0.1l-0.2-0.1l-0.1-0.1l-0.2-0.1l-0.3-0.1l-0.3-0.1
		l-0.1-0.1l-0.2-0.1l-0.4-0.1h-0.2H242l-0.2,0l-0.2,0.2l-0.1,0.1l-0.2,0.2l-0.1,0.1l-0.1,0.2l-0.3,0.3l-0.2,0l-0.2,0l-0.5,0h-0.2
		l-0.2-0.1l-0.2,0l-0.1-0.1l-0.1-0.1l-0.2,0l-0.4-0.1l-0.3-0.1l-0.7-0.2h-0.3h-0.4h-0.2l-0.1,0l-0.4,0l-0.2,0l-0.2,0.1l-0.2,0.1
		l-0.2,0.2l-0.1,0.1l-0.1,0.1l-0.2,0.2l-0.1,0.1l-0.2,0.2l-0.2,0.2l-0.2,0.1l-0.2,0l-0.2,0.1l-0.1,0l-0.2,0l-0.4,0.1l-0.2,0l-0.2,0
		h-0.2l-0.1,0l-0.3,0l-0.1,0.1l-0.1,0.1l-0.2,0.3l-0.1,0.5l0,0.1l-0.1,0.3l-0.1,0.2l0,0.6l-0.1,0.1l-0.1,0.1l-0.1,0.1l-0.2,0.2
		l-0.2,0.1l-0.3,0.1l-0.2,0.1l-0.4,0.3l-0.4,0.3l-0.1,0.1l-0.1,0.2l-0.1,0.1l-0.1,0.2l-0.1,0.1l-0.1,0.1l-0.1,0.1l-0.1,0.1l-0.2,0.2
		l-0.3,0.1l-0.4,0.2l-0.2,0.1l-0.3,0h-0.5l-0.4,0.2l-0.4,0.2l-0.2,0.2l-0.3,0.2l-0.1,0.1l-0.2,0.1l-0.1,0.1l-0.4,0.2l-0.3,0.2
		L224,353l-0.1,0.7l-0.1,0.2l-0.4,0.2h-0.1l-0.2,0l-0.2,0.1l-0.1,0.3l-0.1,0.3l-0.1,0.1l-0.2,0.1l-0.2,0.1l-0.1,0.1l-0.2,0.2
		l-0.2,0.2l-0.2,0.2l-0.2,0.2l-0.1,0.1l-0.1,0.1l0,0.1l0,0.2v0.2l0.2,0.2l0.1,0.1l0.1,0.3l-0.1,0.5l-0.3,0.2l-0.2,0.1l-0.2,0.1
		l-0.3,0.1l-0.2,0.6l-0.2,0.7l-0.2,0.7l-0.1,0.5v0.3l0.1,0.3l0.1,0.2l0.3,0.5l0.2,0.4l0.1,0.8l0,0.4l-0.1,0.4l-0.2,0.3l-0.2,0.1
		l-0.5,0.3l-0.4,0.1l-0.5,0.1l-0.3,0.3l-0.4,0.5l-0.5,0.4l-0.4,0.2l-0.3,0.2h-0.5l-0.6-0.1l-0.5-0.5l-0.3-0.3l-0.3-0.5l-0.4-0.5
		l-0.2-0.5v0l0.1-0.1l0.1-0.2v0h0l0.1-0.1l0.1-0.1l-0.2-0.1l-0.1,0h-0.1l-0.2-0.1h-0.1h0v0l-0.1-0.1v0h0l0-0.3v-0.3v-0.1l0,0
		l-0.2-0.1l0,0v-0.4h0V362h0l0-0.1l0,0h-0.1l-0.1,0v0l0,0h-0.1v0h0h0l0,0l0-0.1l0,0v-0.1l0-0.1l-0.1,0v0l0-0.1v0l0,0v-0.1l0,0
		l-0.1,0v0l0,0l0-0.3v-0.3v0v0l-0.1-0.1l0,0v-0.1l0-0.3l-0.1-0.1v0l-0.1-0.1v0l0-0.4v-0.1l0.1-0.3l0.1-0.1l0-0.1l0,0v0l0.1-0.3
		l0-0.1l0,0v0l0-0.1v0l0-0.1h0v-0.1l0,0h0h0l-0.1-0.1v0l0-0.1v0h0V357l0-0.5v-0.1v0l0,0l0.4-0.1l0,0h0l0.1-0.3l0,0l0.1-0.1h0l0-0.1
		h0.1v0l0.1,0h0l0.1-0.1l0.1-0.3v0l0-0.1v-0.4l0-0.1l0.1-0.1h0l0,0l0.1,0l0.1,0h0l0.1-0.1l0.2-0.1l0.1-0.2l0,0l0.1-0.1l0.1-0.1
		l0-0.2v-0.1v0v-0.1v-0.1l0-0.1l0-0.2l-0.1-0.1v-0.1h0v-0.1l0,0l0,0l0.3-0.1v0l0-0.1l0.1-0.1l0,0l0.2-0.1l0,0l0-0.3l0-0.1l0,0v0
		l0-0.1v0v-0.2l0-0.3l0.2-0.6l0.1-0.2v-0.1l0,0v0v0v0l0,0l0.2,0l0.1,0l0,0l0,0l0.1-0.1l0-0.1l0,0h0l0-0.1h0l0,0l0.1-0.5l0,0v0h0.1
		v-0.1v-0.1l0-0.1l0-0.1l0-0.3l0.1-0.3v-0.1v0v0l-0.2-0.2h0h0h0l0-0.3l0-0.3l0-0.1l-0.1,0l-0.3-0.2l-0.1,0l0.1-0.5l0.1-0.1l0.1-0.1
		v-0.1l0-0.1v0l0.2-0.7l0-0.1l0,0v0v0h0l0-0.4l-0.1-0.1l-0.1-0.1l-0.1-0.1h0l-0.3-0.2l0,0l-0.1-0.1V343h0v-0.1h0v0l-0.1-0.2v0h0
		v-0.1v0h0v0v0l-0.2-0.2l0-0.1l0,0v0l-0.3-0.4l0,0l-0.3-0.1l-0.3,0l-0.3,0l-0.1,0l-0.2-0.1h-0.2h0l-0.2-0.1H212l-0.1,0.1l0,0
		l-0.1-0.1l-0.1-0.2l-0.1-0.3l-0.2-0.3l-0.1-0.1l0,0l0,0v-0.1v-0.4h0v-0.1h0l0-0.1l-0.1-0.1h-0.2h-0.1v0l0,0.1l0.1,0.1v0.1v0.2v0
		l0,0.1l0,0l-0.2,0h-0.1H210v0l-0.2,0.1h0l-0.1,0l-0.2,0h0l-0.1,0l-0.1,0v0H209l-0.1,0.1l-0.1,0.2l-0.1,0.3l0,0l0,0.1l-0.2,0.2v0
		l0,0l0,0.2l0,0.1l-0.1,0l-0.1,0l0,0H208l-0.1-0.1l0,0v0l-0.1-0.1l-0.2-0.1h-0.1v0l0,0h-0.3h-0.2l0,0l-0.1,0l-0.2,0.1l0,0.1
		l-0.2,0.3l-0.1,0l-0.2,0l-0.1,0l-0.5,0l-0.1,0l0,0h0l-0.3,0.2l0,0l0,0l0,0l-0.1,0.1l0,0l-0.1,0.1h0l-0.1,0h0l-0.1,0h0l-0.2-0.1
		l-0.1-0.1l-0.3-0.2l-0.3-0.1H203h-0.2h-0.1l0,0h0l-0.1,0l0,0h-0.1v0l-0.2,0h-0.1l-0.1,0.1l-0.1,0.1h-0.3l-0.1,0l-0.3,0l-0.1,0v0
		l0,0.1h0l-0.1,0l-0.2,0l-0.1,0h0l-0.3,0.1v0h-0.1l-0.1,0l0,0v0l0,0v-0.4v0h0h-0.1l-0.1,0h0h-0.1l0,0l0,0l-0.1,0h-0.2l-0.1,0.1v0.1
		l-0.1,0.2l-0.1,0.1l-0.2,0h-0.1l-0.2,0l0,0l-0.1-0.1l-0.3-0.3l-0.3-0.2v0h-0.1l0,0l-0.1,0.1l-0.2,0.1l0,0.1l0.1,0.1l0,0.1v0
		l-0.1,0.1l-0.3,0.2l-0.1,0.2v0l0,0.1l0,0.1v0l-0.1,0l0,0.1l0.1,0.2l0.1,0.2l0,0.1l-0.1,0.2l-0.3,0h-0.2l-0.3,0.1l-0.3,0l-0.1-0.1
		l0-0.2l-0.1-0.2l-0.1,0l-0.2-0.1l-0.4,0l-0.2-0.3l-0.1-0.1l-0.5-0.1h-0.2h-0.2h-0.2L193,343l-0.3-0.2l-0.1-0.1l-0.1-0.1l-0.1-0.1
		l-0.1-0.1l-0.1-0.1l-0.2-0.1l-0.1,0l-0.7-0.2h-0.2h-0.2h-0.3l-0.2-0.1v-0.2v-0.2v-0.3l-0.1-0.3l-0.1-0.1l-0.2,0l-0.2,0l-0.1,0.1
		l-0.1,0.2l-0.1,0.2l-0.2,0.2l-0.1,0.1l-0.3,0.1l-0.1,0.1l-0.2,0.1l-0.3,0.2l0,0.2l-0.1,0.1l-0.3,0.2l-0.2,0.2l-0.1,0.1l-0.2,0.4
		l-0.2,0.2l-0.4,0.2l-0.1,0.1l-0.1,0.1l-0.3,0.2h-0.2l-0.2-0.1L185,344h-0.2h-0.2v-0.7l0-0.2l-0.3-0.1H184l-0.3,0.2l-0.2,0.1
		l-0.2,0.1h-0.4l-0.3-0.2l-0.1-0.2l-0.1-0.2l0-0.2v-0.2v-0.2V342l-0.2-0.4l-0.1-0.1l-0.2-0.1l-0.3,0.2l-0.1,0.1l-0.1,0.1l-0.2,0
		l-0.2,0l-0.4,0l-0.2-0.1h-0.2H180l-0.3,0.1l-0.2,0.1l-0.3,0.1l-0.2,0l-0.3-0.2l0-0.3l0-0.2l-0.1-0.4l-0.3-0.1l-0.3,0l-0.2,0.1
		l-0.4,0.2l-0.2,0l-0.2,0.1l-0.2,0.1l-0.2,0h-0.2l-0.6-0.2l-0.1-0.1l-0.1-0.1l-0.1-0.2l-0.1-0.1l-0.3-0.2l-0.2,0l-0.5-0.1H174
		l-0.2,0l-0.2,0l-0.2,0l-0.2,0l-0.1,0l-0.2,0.1l-0.3,0.1l-0.2,0l-0.2,0l-0.4-0.1l-0.2-0.1l-0.1-0.1l-0.2-0.2l-0.1-0.1l-0.1-0.1
		l-0.3-0.1l-0.2,0l0-0.1v-0.2l0-0.2l-0.1-0.2l-0.1-0.3l-0.2-0.2l-0.2-0.2l-0.2-0.4l0-0.2l0-0.3l0-0.2l0-0.1l-0.4-0.5l-0.2-0.3
		l-0.1-0.2h-0.3l-0.2,0l-0.2,0l-0.3,0.1l-0.2,0l-0.3,0h-0.3l-0.1-0.1l-0.2-0.1l-0.1-0.1l-0.1-0.1l-0.2,0l-0.1-0.6l0-0.2l-0.1-0.2
		l-0.3-0.1l-0.2-0.1l-0.1-0.1l-0.3-0.1l-0.2-0.1l0.3-0.5v-0.2l-0.2-0.2l-0.3-0.2l-0.3-0.1l-0.2,0h-0.2l-0.2,0l-0.5-0.1l-0.5-0.1
		l-0.2-0.1l-0.1-0.2l0-0.2l0-0.3l0-0.1l0.1-0.1v-0.2v-0.2V331l-0.3-0.3l-0.1-0.2l-0.1-0.1l-0.2-0.1l-0.1-0.1l-0.1-0.1l-0.3-0.1
		l-0.1,0l-0.4,0h-0.3l-0.2,0.1l-0.2,0l-0.1,0.1l-0.1,0.2l-0.1,0.1l-0.3,0.1l-0.2-0.1l-0.3-0.1l-0.2-0.1l-0.1-0.1l-0.1-0.2l0-0.3
		l-0.2-0.4l-0.3,0l-0.1,0.1l-0.2,0.3l-0.1,0.6l-0.1,0.2l-0.2,0.1l-0.1,0.1l-0.2,0.2l-0.2,0.1l-0.1,0.1l-0.3,0.3l-0.1,0.3l-0.3,0.3
		l0,0.2v0.5l-0.4,0.3l-0.2,0.1l-0.2,0h-0.3l-0.3,0.1l-0.2,0.1l-0.1,0.2l-0.1,0.3l-0.2,0.2l-0.2,0l-0.2,0l-0.2,0h-0.4l-0.3-0.4
		l-0.1-0.3l-0.1-0.2l-0.1-0.2L152,333l-0.4,0l-0.1-0.2l-0.2-0.2l-0.3-0.5h-0.2l-0.2,0l-0.1,0l-0.2-0.2l-0.1-0.2l-0.1-0.2l-0.1-0.2
		l-0.5-0.1l-0.6-0.1l-0.2-0.1l-0.1-0.1l-0.1-0.2l0.2-0.4v-0.2v-0.3v-0.2l-0.1-0.3v-0.2v-0.3v-0.2v-0.2l0.1-0.4l0.1-0.1l0.3-0.3
		l0-0.6l-0.1-0.3l-0.2-0.4l-0.1-0.2l0-0.3l0-0.3l-0.1-0.1l-0.3,0.1l-0.2,0.5l-0.1,0.1l-0.2,0.1l-0.2,0l-0.1,0l-0.2,0.1l-0.1,0.1
		l-0.1,0.1l-0.1,0.2l-0.1,0.1l-0.1,0.2h-0.2l-0.2,0h-0.3l-0.2,0h-0.2l-0.2,0.2v0.3l-0.2,0.6l0,0.2l-0.1,0.8l0,0.2l0.2,1l0,1
		l-0.2,0.4l-0.5,0.4l-0.8,0l-0.7-0.1l-0.3-0.2l-0.3-0.2l-0.5-0.3l-0.4-0.5l-0.1-0.5l0.1-0.7l0.1-0.6v-0.2l-0.1-0.2l-0.1-0.2
		l-0.1-0.1l-0.3-0.5l-0.1-0.2l-0.4-0.7l0-0.2l0-0.2l0.1-0.3l0.1-0.3l0-0.3v-0.2l-0.1-0.2l-0.2-0.4l-0.2-0.5v-0.1v-0.2l0-0.2v-0.2
		v-0.2v-0.2l0-0.2L140,323l-0.3-0.4l-0.1-0.1l-0.1-0.1l-0.2-0.1l-0.4-0.1l-0.2-0.1l-0.1-0.1l-0.2-0.1l-0.1-0.3l-0.1-0.3L138,321
		v-0.3l-0.1-0.2l0-0.2l0-0.2l0-0.3v-0.2v-0.2l0-0.2l0.1-0.2l0.1-0.5v-0.3V318l0-0.3l0-0.1l0-0.3l0-0.3v-0.2v-0.1l-0.1-0.2l-0.1-0.2
		l-0.5,0l-0.3,0.5l0,0.2l-0.1,0.2l-0.1,0.1l-0.3,0.2l-0.1,0.1l-0.2,0.1l-0.1,0.2l-0.1,0.2l-0.1,0.2l-0.1,0.3l-0.1,0.1l-0.1,0.1
		l-0.1,0.1l-0.3,0.2l-0.2,0.1l-0.2,0l-0.3-0.2l0-0.2l0-0.7l-0.1-0.1l-0.2-0.2l-0.1-0.1l-0.2-0.1l-0.3-0.1l-0.3-0.1l-0.1-0.1
		l-0.1-0.1l-0.4-0.2l-0.1-0.1l-0.2-0.1l-0.2-0.1l-0.3-0.1l-0.2-0.1l-0.3-0.1l-0.1-0.1l-0.2-0.1l-0.2-0.1h-0.2h-0.2l-0.2,0l-0.5,0.4
		l-0.1,0.3l-0.2,0.3l-0.2,0.1l-0.2,0.1l-0.2,0h-0.2h-0.2l-0.2-0.1l-0.2-0.1l0-0.4l-0.5-0.1l-0.2,0l-0.4,0l-0.3,0l-0.4,0h-0.2
		l-0.2-0.1l-0.1-0.1l-0.2-0.4l0-0.2l-0.1-0.2l-0.2-0.2l-0.2-0.1l-0.3-0.2l-0.1-0.1l-0.2,0l-0.5-0.2l-0.9-0.3l-0.2-0.3l0.1-0.2l0-0.1
		l0.1-0.2l0.1-0.2l0.1-0.1l0-0.5v-0.2v-0.2l0-0.2l0-0.2l0.1-0.5l0-0.2v-0.2v-0.2l0.2-0.6l0.4-0.2l0.1,0h0.3l0.2,0.1l0.2,0l0.1-0.2
		l0.1-0.2l0.1-0.2l0.2-0.3l0.3-0.3l0.2-0.1l0.1-0.1l0-0.2l0.1-0.3l0-0.2l-0.2-0.5l0.1-0.3l0.1-0.1l0.1-0.2l0.1-0.1l0.1-0.1v-0.3
		l-0.1-0.2l-0.1-0.2l-0.3-0.1l-0.2-0.1l-0.1-0.1l-0.1-0.2l-0.1-0.3l-0.1-0.3l-0.2-0.1l-0.2-0.1l-0.1-0.2l-0.1-0.1l-0.1-0.1h-0.3
		l-0.1,0.1l-0.1,0.2l-0.1,0.1l-0.5-0.1l-0.1-0.1h-0.2l-0.2,0.2l-0.2,0.1l-0.2,0.1l-0.2,0.1l-0.1,0.1l-0.3,0.2l-0.6,0.5l-0.1,0.2
		l-0.1,0.1l-0.1,0.1l-0.2,0.1l-0.4-0.1l-0.2,0l-0.1-0.1l-0.1-0.1l-0.3-0.1l-0.3,0h-0.2l-0.3,0l-0.2,0l-0.2,0h-0.3h-0.4l-0.2,0h-0.3
		l-0.2,0l-0.1-0.1l-0.2-0.3l-0.1-0.2l-0.1-0.1l-0.3-0.1l-0.2-0.1l-0.4-0.3l-0.1-0.1l-0.1-0.1l-0.1-0.1l-0.2-0.1l-0.2-0.1l-0.2-0.1
		l-0.1-0.1l-0.1-0.1l-0.2-0.1l-0.1-0.1l-0.1-0.1l0.1-0.2l0.1-0.1v-0.3l-0.1-0.2l-0.1-0.3l-0.4-0.6l0-0.3l-0.1-0.1l-0.2-0.4l-0.3-0.4
		l-0.1-0.1l-0.2-0.1l-0.2-0.1l-0.1-0.2l-0.3-0.2l-0.7-0.2l-0.2-0.1l-0.2-0.2l-0.4,0h-0.2h-0.2l-0.4,0l-0.5-0.1l-0.3-0.1l-0.1-0.2
		l0-0.2l0-0.2l-0.1-0.3l0-0.2l0-0.2l0-0.2l0-0.1l0.1-0.8l0-0.2l-0.1-0.2l-0.2,0l-0.2-0.3l0-0.1l0-0.2l-0.5-0.6l-0.2,0h-0.2l-0.2,0
		h-0.2l-0.2-0.2l-0.1-0.1h-0.2l-0.2,0l-0.1-0.1l-0.1-0.2l-0.2-0.3l-0.2-0.2l-0.1-0.1l-0.1-0.1l-0.8-0.2l-0.3-0.1l-0.1-0.2l0.3-1.2
		l0.1-0.1l0.2-0.3l0.1-0.1l0.1-0.1l0.2-0.3l0.1-0.1l0.1-0.3l0-0.2l0-0.2l0.1-0.4l0.1-0.2l0-0.2l-0.2-0.2l-0.2-0.2l-0.1-0.1l-0.1-0.1
		l-0.3-0.2l-0.4-0.1l-0.1-0.2l0.1-0.3V287l0.2-0.5l0.2-0.1l0.1-0.1l0-0.2l0-0.2l0-0.1v-0.2v-0.2l0-0.2l-0.1-0.1v-0.2v-0.3l0-0.3
		v-0.2v-0.2l0.1-0.4l0.2-0.1l0.2,0.1l0.2,0.1l0.2,0l0.2-0.4l-0.4-0.5l-0.2-0.2l-0.5,0l-0.1,0.1h-0.2l-0.2-0.1l-0.2-0.2l-0.1-0.1
		l-0.1-0.3V281v-0.4l0-0.2l0-0.3l-0.3,0l-0.2,0l-0.2,0l-0.3-0.2l-0.2-0.4l-0.4,0.1l-0.1,0.2l-0.3,0.1l-0.3-0.2l-0.2,0l0.1-1
		l-0.2-0.1l-0.1-0.1l-0.1-0.1l-0.1-0.1l-0.2,0l-0.4,0.2l-0.4-0.1l-0.3-0.2l-0.1-0.1l-0.3,0h-0.3h-0.2h-0.2H97l-0.2,0h-0.3l-0.3,0H96
		l-0.2,0l-0.2,0l-0.2,0l-0.3,0.2l-0.2,0.2l-0.1,0.1l-0.1,0.4l-0.3,0.2l-0.2,0H94l-0.2,0h-0.2l-0.9-0.2h-0.2h-0.2l-0.2,0l-0.2,0.1
		l-0.1,0.2l-0.1,0.1l-0.2,0.1l-0.2,0l-0.2,0.1l-0.2,0.1l-0.1,0.1l-0.1,0.3l-0.1,0.2l-0.1,0.2l-0.2,0.1h-0.2l-0.2,0l-0.2-0.4
		l-0.1-0.2l-0.2,0l-0.5-0.2l-0.2-0.1l0-0.2l0.1-0.4l-0.1-0.2l-0.4-0.1l-0.3-0.1l-0.2-0.1l-0.1-0.4v-0.1l0.1-0.5v-0.3l-0.2-0.2
		l-0.2-0.3l0-0.2l-0.1-0.2l-0.2-0.2l-0.5-0.2l-0.1-0.3l-0.1-0.2l-0.1-0.2l0-0.2v-0.2v-0.2l0.1-0.5v-0.1l-0.2-0.3l-0.1-0.1l-0.1-0.3
		l0.1-0.5l0.1-0.1l0.1-0.2l0.1-0.4v-0.2l-0.1-0.2l-0.1-0.1l-0.2-0.2l-0.1-0.2h-0.2l-0.2-0.2l0-0.2v-0.1l-0.1-0.2l-0.1-0.3l-0.1-0.3
		l0-0.3v-0.3l-0.1-0.1l-0.1-0.2l-0.1-0.2l-0.2-0.1l-0.1-0.2h-0.2h-0.3l-0.2-0.1l-0.5-0.1l-0.1-0.2l0.1-0.2l0.1-0.4l0.1-0.4l0.1-0.1
		l0.4-0.2l-0.1-0.3l-0.2-0.1l-0.1-0.1l-0.2-0.3l-0.1-0.2l-0.2-0.1l-0.4-0.7l-0.1-0.1l-0.3-0.1l-0.3,0.1l-0.4-0.2l0-0.2l-0.2-0.3
		l-0.1-0.1l-0.2-0.1l-0.4,0l-0.2,0l-0.3,0.1h-0.1h-0.2l-0.2,0l-0.1,0l-0.2-0.3l0-0.2l-0.1-0.1l-0.1-0.1l-0.2-0.1l0-0.2l-0.1-0.2
		l-0.3-0.5l-0.1-0.1l-0.2-0.2l-0.2,0h-0.2l-0.2,0l-0.2-0.1l-0.2-0.1l-0.1-0.1l-0.1-0.1l-0.1-0.2l-0.1-0.2l0-0.1l0-0.2l-0.1-0.2
		l-0.1-0.2h-0.2l-0.2,0h-0.1l-0.2,0l-0.2,0l-0.2,0l-0.2,0.1l-0.5,0l-0.3-0.1l-0.3-0.1l-0.1-0.1l0-0.2l-0.1-0.2l0.1-0.4l-0.2-0.2
		l-0.2-0.1l-0.2-0.1l-0.1-0.1l-0.2-0.1l-0.1-0.3l0-0.1l0-0.2V258v-0.2l-0.1-0.2l-0.1-0.1l-0.1-0.1l-0.4-0.1h-0.2h-0.2h-0.2l-0.2-0.1
		l0.1-0.3l0.4-0.1l0.2-0.1l0.2-0.1l0.3-0.2l0.1-0.1l0-0.2v-0.2l0-0.1l0-0.2l-0.2-0.4l-0.1-0.2l-0.2-0.3l-0.1-0.1l-0.2,0l-0.2,0.1
		l-0.3,0l-0.2,0h-0.2h-0.2l-0.2-0.2l0.1-0.3l0.2-0.1l0-0.2v-0.2l-0.2-0.2l-0.2-0.2l-0.1-0.2l-0.1-0.2l-0.1-0.2l-0.1-0.3l-0.1-0.2
		v-0.2l0-0.2v-0.2l-0.1-0.3l-0.1-0.2l-0.1-0.2l-0.1-0.2l-0.3-0.4l-0.1-0.1l-0.2-0.1l-0.3,0l-0.3,0.1l-0.2,0l-0.3-0.1l-0.1-0.2
		l-0.3-0.4l-0.1-0.2l-0.1-0.1l-0.2-0.1l-0.1-0.2l-0.1-0.1l-0.1-0.2l-0.1-0.3l0-0.2l-0.2-0.4l-0.1-0.1l-0.2-0.2l-0.4-0.1l-0.3,0h-0.1
		l-0.2-0.2l-0.1-0.3l0-0.2l-0.2-0.2l-0.4,0l-0.4-0.1l-0.1-0.1l-0.2-0.3l-0.2-0.2l-0.1-0.2l-0.3-0.4l-0.4,0l-0.2,0l-0.5-0.1l-0.2-0.1
		l-0.4,0l-0.3-0.1l-0.2-0.3l0-0.2l0.1-0.1l0.2-0.2l0.1-0.1l0.2-0.1l0.1-0.1l-0.1-0.2l-0.2-0.2l0.1-0.3l0.3,0l0.2,0l0.2-0.2l0.1-0.4
		l-0.1-0.1l-0.2-0.1l-0.1-0.2l0.1-0.2v-0.2v-0.2l-0.1-0.2l-0.4-0.2l-0.1-0.1l-0.2-0.2v-0.4v-0.2l-0.1-0.1l-0.1-0.1l-0.3-0.3l0-0.2
		l0.1-0.4l0.1-0.2l0.1-0.2l0.2-0.5l0.2-0.3l0-0.4l0-0.4v-0.2l0-0.2l0-0.2l0-0.3v-0.2l-0.2-0.2l-0.3,0l-0.3,0l-0.3,0.2l-0.2,0.1
		l-0.2,0l-0.2-0.1l-0.2-0.2l-0.2,0.1l-0.2,0l-0.3,0.1h-0.2h-0.2l-0.2-0.1l-0.2,0l-0.2-0.2l-0.1-0.4l0-0.2l0-0.2l0-0.2l0-0.1
		l-0.2-0.1l-0.2,0l-0.1,0.2l-0.3-0.1l-0.1-0.1l-0.1-0.1l-0.2-0.2l-0.1-0.1l-0.3-0.1l-0.2-0.1l-0.1-0.1l-0.2-0.3l-0.2-0.1h-0.1h-0.2
		l-0.3,0l-0.1-0.1l-0.1-0.1l-0.2-0.2l-0.1-0.1l-0.5-0.2H52h-0.2l-0.2-0.1l-0.2-0.1l-0.1-0.2l-0.1-0.2l-0.1-0.3l-0.2-0.1l-0.3-0.2
		l-0.2-0.2l-0.2-0.2l-0.1-0.1l-0.1-0.1l-0.2-0.1l-0.3-0.1l-0.3-0.2l-0.2-0.2l-0.1-0.1l-0.3-0.1l-0.1,0.1l-0.1,0.3l-0.1,0.3l-0.1,0.1
		h-0.2l-0.3,0l-0.2-0.1l-0.3-0.5h-0.3l-0.1,0.1l-0.1,0.3l-0.2,0.1l-0.1,0.3l0,0.2v0.3l-0.2,0.1l-0.3,0l-0.2-0.1l-0.3-0.2l-0.2-0.1
		l-0.2-0.1l-0.2-0.1l-0.1-0.1l-0.2-0.2l0-0.3l-0.2-0.4l-0.1-0.2l-0.1-0.1l-0.4-0.2l-0.5-0.3l-0.1,0.2l-0.2,0.4l0.1,0.2l0.2,0.2
		L43,230l0,0.2l-0.2,0.1h-0.2l-0.3,0l-0.1,0.1l-0.1,0.2l0,0.2v0.3l-0.1,0.1l-0.3,0.2l0,0.2l0.2,0.1l0.1,0.1l0.1,0.2l-0.1,0.1
		l-0.3,0.2l0,0.2l0,0.2v0.3l-0.3,0.2l-0.1,0.1l-0.1,0.1l-0.1,0.2l-0.1,0.3l-0.1,0.3l0,0.2l-0.1,0.2l-0.3,0.2l-0.3,0.1l-0.2,0l-0.1,0
		l-0.4,0.3l-0.2,0.1h-0.2l-0.3,0.1h-0.2l-0.5-0.1l-0.2-0.1l-0.3-0.1l-0.3-0.1l-0.2-0.1l-0.3,0.2l0.4,0.7l0,0.2l0,0.2v0.2l0,0.2v0.2
		l-0.2,0.3l-0.1,0.2l-0.1,0.2l-0.1,0.3l-0.2,0.3l-0.2,0.1l-0.2,0h-0.2l-0.4,0.1l-0.1,0.1l0.1,0.3l0,0.2l-0.2,0l-0.3,0l-0.2-0.1
		l-0.2-0.2l-0.1-0.1l-0.3-0.2l-0.2,0.1l-0.1,0l-0.3-0.1l-0.2-0.2l-0.2-0.1l-0.2-0.1l-0.2-0.1l-0.2-0.2l-0.2-0.3l-0.3-0.6l0-0.2
		l0.2-0.3l0.2-0.4l0.1-0.1l0.1-0.2l-0.2-0.2H32l-0.1-0.1l0-0.5l0.1-0.2l0.2-0.4l0-0.4l-0.1-0.2l-0.2-0.3l-0.1-0.2l0-0.2l0-0.2l0-0.2
		l0-0.2l0.1-0.1l0.1-0.1l0-0.2l-0.1-0.2l-0.1-0.1v0v0v-0.2l0.1-0.5l0,0l0,0V231v0h0l0-0.1v0l-0.4-0.4l-0.3-0.1l-0.1-0.1l-0.1-0.1
		l-0.3-0.2l-0.2-0.1l-0.1-0.1l-0.1-0.1h0l-0.1,0l-0.3-0.2l-0.3-0.1l0-0.1h0l0,0l0,0l-0.3-0.2l-0.3-0.2l-0.1,0h0l-0.1-0.1l-0.1-0.1
		l-0.1-0.1l-0.2-0.2l-0.1-0.1l-0.1-0.1l-0.2-0.2l-0.2-0.1l-0.1-0.1l-0.2-0.2l-0.1-0.2l0-0.2l-0.1-0.2l0-0.2l-0.2-0.4l-0.1-0.1v-0.2
		l0,0v0v0v0l0-0.1l0,0l0-0.1h0l-0.1-0.1l-0.1-0.3l-0.1-0.1l-0.2-0.2l0-0.1l0,0h0l-0.3-0.4l-0.5-0.6l-0.1-0.2v0l0,0v0l-0.1-0.1
		l-0.2,0h0h0l0,0l0,0l0,0l-0.1-0.1l0,0v0l0-0.1l0-0.1l0-0.1l-0.7-0.9l-0.2-0.2l-0.2-0.1l-0.2,0h-0.1l-0.2,0.4l-0.2,0.2l-0.1,0h-0.2
		l-0.1-0.1h-0.1l-0.1,0h0v0l-0.1,0.1l0,0l0-0.1l-0.1,0v0l-0.1-0.1h0v0v0l0,0l-0.1-0.1v0l0-0.3v0v0h0v0v0h0v0l0-0.1l-0.1-0.1
		l-0.2-0.1h0l0,0l-0.4-0.1l-0.2-0.2l-0.5-0.5l-0.1-0.2v0l0-0.1v0l0-0.1l0-0.3l0-0.1v0l0,0h-0.2h-0.1l-0.2,0.1l-0.3-0.2l0-0.1
		l-0.4-0.4l-0.1-0.1l-0.1-0.1l-0.2-0.2l-0.2-0.2l-0.1-0.1v-0.1h0v-0.1l0-0.1v0v0l0,0l0,0h0l0,0v0h0h0h0l0,0l0,0l0,0l-0.1,0l0,0
		l-0.1,0l-0.1,0h-0.1l-0.1,0h0l0,0l0,0l0,0l0,0l0-0.1l0-0.1h0l0,0h0l0,0h0l-0.1,0.1h0h0h-0.1h0l0,0l0,0v0l0,0v0l0,0l-0.1-0.1l-0.1,0
		l-0.1-0.1h0l0-0.1v-0.5v-0.1h0l0.2-0.1h0l0-0.1v0h0v0h0l-0.1,0l-0.1-0.1l0-0.1V214l0,0l0.1,0l0.1-0.1l0,0l0.1-0.1l0-0.1l0-0.1
		l0-0.1v0l0,0v0l0-0.1l-0.2-0.2v0l-0.1-0.1v-0.1l0-0.1l0-0.1l0,0l0.1,0l0.2,0v0l0.1,0h0l0.3,0l0.2,0l0.1,0l0-0.1l0-0.1l0.2-0.3
		l0-0.1l0.2-0.1l0.1-0.2l0.2-0.2l0,0v-0.1v-0.1l0-0.1v0v-0.1l0-0.1h0l0,0v0v0l0-0.1v0h0v0l0,0h0h0h0l-0.1,0l-0.1,0.1l-0.2-0.1l0,0
		l-0.1-0.1v0l0,0v-0.1v0v-0.1l0-0.2l0-0.1v0v0l0-0.1l0-0.1l0,0v-0.1v0l0,0v0v0h0v-0.1v0l-0.1-0.1l-0.1-0.1l0,0l-0.2-0.1h-0.1h-0.1
		l0,0l0,0.1l0,0.2h0v0l-0.3,0l-0.1,0l0,0.1l-0.1,0l-0.2,0.1l-0.1,0l-0.1-0.1l0,0l-0.3-0.4v0l0,0l0-0.1l-0.2-0.2l0-0.3v-0.1l0-0.2v0
		l0-0.1l0,0v0l-0.3-0.4v-0.2l0,0v-0.1h0h-0.1l-0.2-0.1h0h0l0,0l-0.1-0.1v0l-0.2-0.2v-0.1l-0.1-0.1v0l0,0v-0.1l0,0l0,0l-0.1-0.1
		l-0.1,0L11,205l-0.2-0.4l-0.2-0.1l-0.3-0.2l0-0.1h0h0l0,0l-0.1,0l-0.3,0l-0.1-0.1l0-0.2v0l0-0.1v-0.1v-0.1l0-0.1v-0.1l0-0.1v-0.1
		l-0.1-0.1h0l-0.2-0.1h0l0,0v-0.1l0,0l0.1-0.3l0,0l0-0.3h0v0v-0.1v-0.2v-0.1v-0.1v0v-0.1l0,0h0l0,0v-0.1v0h0v0v0l-0.1,0l-0.1-0.1
		l-0.2,0l-0.2-0.2H8l-0.1,0H7.8H7.6h0l-0.1,0l-0.3-0.3l-0.1-0.1h0l-0.5-0.4l-0.2-0.3v0l0-0.2l-0.1,0l-0.1,0l-0.1,0v0h0h0l-0.1,0.1v0
		h0h0v0l0,0l0,0l-0.3,0H5H4.8h0l0,0l-0.5-0.2L4,199.2l-0.2,0H3.6l0,0.1h0l0,0.2l0,0H3.3l-0.3,0H2.8l-0.2,0l-0.3,0l0,0v0H2.1l-0.1,0
		l-0.1,0l0,0l0,0H1.7h0l0,0v-0.1v-0.1h0v0l0-0.1l0,0l-0.4-0.2l-0.1-0.1l0-0.1h0l0-0.1l-0.1-0.1l0,0v0l-0.1-0.1v0l0,0l0,0l0,0v-0.1
		l0.1-0.1l0.1,0h0l0-0.1v0H0.7l-0.2-0.1l-0.1-0.1v0l0.2-0.2v-0.1v0l0-0.1v0v0l0,0L0.4,197v0h0v0l0,0v0v0v-0.1l0.1-0.3h0v0l-0.1-0.1
		l-0.1,0l-0.1,0l-0.2,0l-0.2-0.1l-0.1-0.1h-0.1h-0.1l-0.6-0.1l-0.3,0l-0.2-0.1l0-0.3v-0.2v-0.1l0.1-0.4l0,0h0v0v-0.1l-0.1-0.1l0,0
		H-2h0v0v0l0.1-0.5l0-0.3v-0.1h0v-0.1v-0.2l0-0.1l0,0l-0.2,0l-0.2,0h0l-0.1-0.1h0l0-0.1l-0.1-0.1v0l-0.1,0l-0.1,0l-0.2,0l-0.1,0h0
		v-0.2v0v0l0-0.1h0h-0.1l0,0l-0.1,0v0l-0.1-0.3v-0.1v-0.1l0-0.1l0-0.1v-0.1l0-0.1v0l0,0v-0.1l0-0.1v0h0l0-0.1l0.1,0l0-0.2v-0.1v-0.6
		v-0.2l0-0.3l0,0v-0.1v0h0l0,0h0v-0.1v0v0l-0.2-0.1h0h0v0l-0.1,0h0h0l-0.1-0.2l-0.1-0.1l0.1-0.2l0.1-0.2l0.1-0.2l0.3-0.1h0l0,0
		l0-0.1l0-0.1v0l-0.1-0.2v0l0,0L-4,186l0-0.1l0-0.1l0-0.1v0v0v0l0,0v0h0l0-0.1v-0.1l-0.1-0.2l0-0.1h0l0-0.1l-0.2-0.2l0-0.1l0,0v0
		l0,0v0l0,0v-0.1l-0.1-0.1V184l0,0v0v0v0l0,0v-0.2v0v0v0l0-0.4l-0.1-0.2v0l-0.2-0.3v-0.1l0,0v0v0v0l0,0l0-0.3l0-0.1v0l0-0.1v0l0,0
		l-0.1-0.1l-0.5-0.4l-0.1-0.2l-0.1,0v0v0l-0.3-0.2l-0.2-0.2l0,0v0l0,0v0v0l-0.1-0.1l-0.1,0H-7l-0.1,0l-0.2,0.1l-0.1,0.1l0,0l0,0.1
		l-0.1,0.2l-0.1,0.5h0h0l0,0.1h0l0,0.1h0l-0.2,0.1l-0.2,0l0,0v0h0l0,0l-0.2,0.1l-0.5,0.5l0,0.1l-0.1,0.2l0,0.1l-0.1,0l-0.3,0.1h-0.3
		h0h-0.2h-0.2l-0.5,0l-0.2,0.1l-0.1,0.1h0l-0.1,0.2l-0.1,0.3l0,0.2l-0.1,0.1l-0.3,0.4l-0.1,0.3v0l-0.1,0.2v0l-0.1,0.1h0l0,0h-0.1h0
		l-0.4-0.3l-0.1-0.1l-0.1-0.2v0v-0.5h0v-0.1l0-0.3l0-0.1v0l0-0.1l0-0.2l-0.1-0.1v0v0h0v0v0v0l0,0l-0.1-0.2l0,0l0,0h0l-0.1,0v-0.1
		l0.1-0.1l0.2-0.1l0.1-0.1l0-0.1l0-0.3v0v-0.1l0,0l0,0l-0.1-0.1v-0.2h0l-0.1-0.1l-0.1-0.2l-0.1-0.1l-0.1-0.1l-0.1-0.1l-0.1-0.1
		l-0.3-0.2l-0.1,0h0v0l0-0.1l0.1-0.1h0l0,0h0.2l0.1,0l0.2-0.4l0.1-0.3l0-0.1l0-0.1v-0.1l0-0.1l-0.2-0.3l0,0l-0.1-0.1v0l0,0l0-0.1h0
		v0l-0.1-0.1v0l-0.1-0.2V177l0-0.1h0h0l0,0l-0.5,0l-0.1,0l0,0v-0.1l0.1-0.5l0-0.1l-0.1-0.3v-0.1l0,0l0.1-0.1l0.2-0.1h0h0l0.1-0.2
		l0.1-0.1l0.3,0l0.4,0h0.1l0.2-0.1l0.1-0.1l0.1-0.1l0.1,0v0h0.5l0.2,0h0.1l0.3-0.1l0.1-0.1l0,0h0l0,0v0h0h0l0.1,0l0,0l0.1,0l0,0
		l0.1-0.1l0.1-0.2l0-0.1v0v-0.1v0v0l0,0v0l-0.1-0.1l0-0.1l-0.2-0.2l-0.2-0.4v0l0,0v0l0-0.1l0-0.1v0v0l0,0l0-0.4l0.1-0.5v0l-0.2,0h0
		h-0.2l-0.3,0l-0.1,0h0h0l-0.1-0.2l-0.1-0.1v0v-0.1v0l0-0.2l0-0.5l0-0.4v0h0v-0.1l-0.1-0.1v0v0v0v0l0-0.1l0.1-0.1h0l0-0.1l0.3-0.1
		l0-0.1l-0.1,0l-0.1-0.1l-0.3-0.2v-0.1l-0.1-0.2v-0.1l0-0.1h0l0-0.2l0.1-0.4l0.1-0.1v0l0.1-0.1l0.2-0.1h0v0h0h0l0.4-0.1l0,0h0l0,0
		l0.1-0.3l0.3-0.8l0.1-0.2v0l0,0l0.1-0.1h0l0.1-0.2l0-0.1v0v0v0l0,0h0l0-0.1l0.1,0v0h0h0l0,0h0l0.2-0.1l0.2-0.2l0.1-0.1l0.3-0.4
		l0.2-0.2l0.5-0.7l0-0.1h0v0l0-0.1h0l0,0l-0.2-0.1l-0.1-0.1l0,0l-0.3-0.1h-0.1l-0.1-0.1v0h0l0,0v0h0l0,0h0v0v-0.1v0l0-0.1l-0.1-0.2
		l-0.1-0.2l-0.1-0.1v0l-0.1-0.2v0v0h0v0l0-0.1v-0.2v0v0v-0.1l0,0v0v0v0l0,0l-0.1-0.2l-0.2-0.4h0v0v0h0l0-0.1l-0.1-0.2l0-0.1v-0.2
		l0-0.2v0v0l-0.2-0.2l-0.2-0.2l-0.3-0.1h0l-0.1-0.1l-0.1,0l-0.1-0.1l0,0l0,0h0l0-0.3l0-0.1v-0.1l0,0v0v-0.1v0l-0.1-0.3l-0.1-0.1v0v0
		l0-0.1l0.1-0.1l0.2,0h0l0.1,0l0,0l0.1-0.1l0.1-0.1l0-0.2l0-0.3h0l0.1-0.2l0.2-0.2l0-0.1v0l0,0l-0.3-0.5l-0.2-0.3l-0.4-0.5l-0.1,0
		l-0.1,0l-0.3-0.1l0,0h0l-0.1,0H-13l-0.1,0l-0.5-0.1l-0.5-0.3h-0.1h0l-0.3-0.1l0,0l-0.2-0.1l0,0l0.1-0.1l0.1,0l0,0h0l0.1-0.1l0.1,0
		l0.1-0.1l0,0h0l0.1-0.1l0,0l0.1-0.2l0.1-0.2l0.1-0.6l0.1-0.2l0-0.5v0l0.1-0.1l0.1-0.2l0-0.1h0l0.1-0.1l0.5-0.1l0,0l0.2-0.1l0.1-0.1
		l0.2-0.4l0.1-0.1l0.1-0.1l0,0h0l0,0l0.4-0.2h0l0.1-0.1l-0.1-0.1l0-0.1l-0.2-0.1l-0.4-0.1l-0.1,0l-0.1,0v0v0v0l0,0h0l0,0v0v-0.1
		v-0.1l0,0v-0.1l-0.1-0.1l-0.1-0.1l-0.2-0.2l-0.1,0v0l-0.1,0v0v0v-0.1l0-0.1l0.1-0.1l0.2-0.1l0.1-0.1l0.1-0.1l0,0v0v-0.1v-0.2v0
		l-0.1,0l0-0.1l0-0.1l0,0v0l0-0.1l-0.1-0.1l-0.3-0.1l-0.1,0v0l-0.1-0.1l0-0.1v-0.1v-0.1v0l-0.1-0.1l-0.3-0.1h0.2l0.3,0l0.2,0h0h0v0
		h0l0-0.2l0.1-0.2v0l0,0l0.2-0.3l0.3-0.2h0h0v0h0h0.1l0.1,0h0l0,0h0.4l0.2,0v0l0.1,0l0,0l0,0l0.2,0h0.1h0l0,0h0.1h0h0l0.1,0h0l0.1,0
		l0.4-0.2v0h0h0v0l0,0l0,0h0h0.1l0.1,0h0.1h0h0h0.1h0.2H-8h0l0.1,0l0,0l0.2,0.1l0,0v0.1h0v0v0l0.1,0v0h0l0.1,0.1l0,0l0,0.3l0,0.1h0
		h0h0h0l0.1,0l0.1,0l0,0l0,0l0.2-0.1l0.1-0.1l0,0l0.3-0.4l0-0.1l0.1,0l0.1-0.1l0.3-0.3h0h0.1h0h0h0h0l0.2,0l0.2,0.1v0l0.3,0.1l0.1,0
		h0.2h0.2v0h0.1h0v0h0.2l0.3-0.1l0.2-0.1l0.2-0.2l0.3-0.2h0l0.1,0v0v0.1l0,0l0,0.1l-0.2,0.4l-0.1,0.3l-0.1,0.1l0,0.1v0v0.1l0.1,0.2
		v0.1v0.2l0,0.2v0l0,0.1h0l0,0.1l0,0l0,0.1v0.2v0.1l-0.1,0.4l-0.1,0.2l-0.1,0.1l0,0H-3l0,0h0l-0.1,0l-0.2,0.1l0,0.1l-0.1,0.3l0,0.4
		l0,0.4v0.1v0v0.1l0,0.3l0,0.5v0v0.1l0,0.2v0v0l0,0.3l0,0.1l0,0.2v0.1h0v0.2l0,0.4v0.3l0.1,0.1h0l0.1,0l0,0h0H-3h0l0.1,0v0l0,0
		l0.1,0l0.1,0.1v0.2l0,0.2v0.1l0,0.1l0.2,0.4h0l0,0.2l0,0l0,0.1l0,0l0,0.1l0,0v0l0,0l0.1,0v0l0,0v0l0.1,0.1l0,0l0.2,0.2l0,0l0.1,0.1
		h0v0l0.1,0.1l0,0.1v0l0,0l0,0l0.2,0l0,0l0.1,0.3v0.2l0.1,0.4v0.1h0v0l0.1,0l0.1,0l0.2-0.1l0.6-0.6l0.2-0.1l0.2,0l0,0v0h0H1v0h0.1
		h0.2h0.1l0.1,0h0.1h0l0.2,0l0.3,0l0,0.1l0.1,0h0l0.2,0.1v0l0,0l0.1,0l0,0h0.1l0,0v0h0h0v0l0.1,0l0,0l0.1-0.1l0.1-0.1v0l0.1-0.1
		l0.1-0.3l0.1-0.1h0.1l0.1,0h0H4h0.1l0,0l0,0v0l0.1-0.2l0-0.1l0,0l0-0.2l0-0.3v0l0-0.1h0v-0.1v-0.2l0-0.1l0.1-0.1l0,0h0h0h0h0.2
		l0.9,0.3l0.3,0l0.2,0l0.2,0l0.1,0h0l0.1-0.1h0h0h0l0,0v0l0.1,0h0h0h0h0l0,0h0.1l0.1-0.1h0l0-0.1h0v0l0.1-0.2l0.2-0.2l0.1,0v0l0.1,0
		l0.1,0.1h0h0.2h0h0l0.1-0.1l0.1,0l0.4-0.2l0.4-0.3l0.1-0.2v0l0.1-0.1l0.3-0.4l0.1-0.1h0.1v0h0l0.2,0.1l0.1,0l0.1,0v0l0,0h0l0.1,0.1
		l0,0l0.2,0.2l0.2,0.1v0h0l0,0l0,0v0h0l0,0.1l0.1,0.1v0h0h0v0l0.1,0.1v0l0,0.3l-0.1,0.1l-0.1,0.6v0.1l0.1,0.2l0.1,0.1l0.3,0.1h0h0.1
		l0.3,0h0.2h0l0.3-0.2l0.3-0.3l0.2-0.2l0.1-0.2l0,0l0.1-0.1h0v0h0.1l0.2-0.1h0l0,0h0.1l0,0h0.1l0.1-0.1v0l0,0h0h0l0.5-0.2l0.8-0.7
		l0.3-0.2l0.4-0.3l0.2-0.2l0.1,0h0.2h0l0,0h0l0.2-0.2l0.3-0.3l0.1-0.1l0.1-0.1l0.5-0.3l0.1,0l0.4-0.3v0v-0.1v0l0,0v0v-0.1v-0.1v0
		v-0.3l0,0l-0.1-0.5l-0.1,0h0h0h-0.1l0,0h-0.1v0l0,0v-0.2l-0.1-0.1h-0.1h0l-0.1-0.2v-0.2l-0.1-0.4l0,0l-0.1-0.3v-0.3l-0.1-0.5
		l-0.2-0.7l-0.1-0.3v0l0,0l0-0.2l0,0l0-0.1v0l-0.1,0l0-0.1l0-0.2v0l0-0.1l-0.1-0.6v-0.1l0-0.3l0,0l0-0.1l-0.2-0.5l0-0.2l0,0l0-0.1
		l0,0l0-0.2l0,0v0v0h0v-0.1l0,0v0l0-0.1v0h0l-0.1-0.1l-0.2-0.1h-0.1h-0.2l-0.1,0l0,0l0-0.1l0.1-0.2l0,0V138h0h0v0h0l-0.1,0v0l-0.1,0
		v0l0,0h0l0-0.1v0v-0.1l0,0v0l-0.1,0v0l-0.1,0h0l-0.1-0.1l0,0l-0.1-0.1l0,0l0,0l0.1,0h0.1h0h0H15h0h0.1h0.1l0.2,0h0.1h0h0.1l0,0
		l0.2,0h0l0.2,0l0,0l0.1,0l0.1-0.2v0v0l0-0.3v-0.1l0-0.4v0v0l0-0.1l0,0l0-0.1v-0.1v0v0l0.2-0.4l0.3-0.3h0l0-0.1l0.2-0.2l0.3-0.2
		l0.2-0.3l0.2-0.1l0.3-0.2l0.3-0.3l0.1-0.1h0v0l0.1-0.1l0,0l0.1-0.1l0,0l0.3-0.3l0.2-0.3l0.1-0.2l0.1-0.1l0.1-0.3l0-0.1L20,131
		l0-0.1v-0.1v0l-0.1-0.1l0,0l-0.3-0.1l-0.1-0.1l-0.1,0l0,0l-0.1-0.1l-0.1,0l0,0l-0.1,0l-0.2-0.1l-0.1-0.1h0v0l-0.1-0.1h0l0,0l0-0.1
		l-0.1,0l-0.1,0H18l-0.1,0v0h-0.2h0h-0.1h-0.1h0h0h-0.1l-0.1,0l0,0l-0.3-0.1l0,0l-0.1,0l0-0.1l-0.2-0.2l-0.4-0.2l0,0l0,0l-0.2-0.2
		l0,0l0,0l-0.1-0.1v0l-0.1-0.1l-0.2-0.1h0l-0.1,0H15l-0.2,0h-0.2h0l-0.1,0h-0.1l-0.2-0.1l-0.1,0l-0.1-0.1l-0.2-0.1l-0.2,0h0h0h-0.1
		l-0.1-0.1l-0.2-0.1l0,0l-0.1,0h-0.1h-0.1l-0.2,0h0l0,0l-0.1-0.1l-0.1,0H12l-0.1-0.1l-0.1,0l0,0l-0.1-0.1l0,0l0-0.1l-0.1-0.1v0h0
		l0,0v0h0l0,0l0,0L11,126l-0.1-0.3l-0.1-0.1h0l0,0l0,0l-0.1-0.1h0l0-0.1v0l-0.1-0.1V125l0,0l0,0l0-0.1h0h0h0H9.9H9.8L9.5,124v-0.1h0
		l-0.1-0.2v0v0l0-0.1v-0.2v0l0,0l-0.1-0.1l0,0l0-0.1h0v0l0-0.3l0.1-0.4v-0.2L9.1,122l0,0v0v0v-0.2l0-0.4l0-0.2l0-0.1v-0.1l0.1-0.5
		l0.1-0.2l0-0.1l0.2-0.3h0h0l0-0.1h0l0.1-0.1v0l0.1-0.2l0.1-0.4l0-0.2v-0.7v-0.2l0-0.1h0v0v-0.1l0-0.1v0l0,0l0,0V117v0l0.1-0.1
		l0.1-0.2l0.1-0.2v0v0l0-0.2l0.1-0.4l0.1-0.2v-0.1l0,0l0.1-0.1l0,0l0.1,0l0,0l0,0l0.1,0.1l0.1,0l0.1,0.1l0.1,0.1l0,0.1h0l0.1,0
		l0.1,0.1l0.2,0.1l0.1,0.1l0,0l0,0.1h0l0.1,0.1l0.2,0h0l0.2-0.1h0.1l0.1,0h0.1l0,0l0,0h0h0.1h0h0h0.1l0.1,0.1h0l0.1,0l0,0l0.3,0.1
		l0.1,0.1l0,0l0,0l0,0l0,0.1l0.2,0.1l0,0.1l0.1,0h0l0.1,0.1h0l0.1,0h0v0l0-0.2l-0.1-0.5l0-0.5v-0.1l0,0l0.2-0.5l0-0.1l0-0.2v0
		l-0.1,0l0,0h0h0l0,0h-0.1l-0.2,0.1l-0.2,0l-0.1,0l-0.1,0l-0.2-0.2h0l0,0v0l0,0l-0.2-0.3l0-0.2v-0.3l0.2-0.3l0.1-0.1l0.2-0.2h0h0
		l0.1,0h0.1l0,0l0-0.1v0v-0.1v0l0,0h0l0,0l0,0h0.1h0h0.1l0.1,0l0,0h0h0h0h0.1v0l0-0.1v-0.1l0,0l0-0.1v0v0l0-0.1l0,0l0-0.1v0h0l0,0h0
		l-0.1,0.1l0,0.1l0,0.1h0h-0.1l0,0v0l0-0.1v-0.1v0V112v0l0,0h0l0,0l-0.1,0.1l-0.1,0l0,0h0l0-0.1l0-0.1l0-0.1l0.2-0.2l0,0v0l0,0l0,0
		l-0.2-0.1l0,0v0l0,0l0-0.1l0-0.4l-0.1-0.9v0v-0.2l0-0.1l0-0.3l0-0.4v-0.6l0.1-0.1l0-0.1l0-0.1l0,0l-0.1-0.2l0.1-0.1h0l0,0v-0.1
		v-0.1l-0.1,0l0-0.1v-0.2l-0.1-0.7v-0.1v0h0v0l-0.1-0.1v0v0h0l0-0.1v-0.1v-0.1l0-0.1h0l0-0.1l0,0l0,0l0.3-0.1l0.1-0.1l0.1-0.1
		l0.3-0.3l0.2-0.2l0.1,0h0v0l0,0l0.1,0h0.1h0h0.1h0l0.1,0l0,0l0,0v0H16h0l0.1,0l0,0h0.1h0l0,0h0.1h0.1h0h0.1h0v0l0,0l0.1,0h0l0.1,0
		l0.2,0l0.2,0l0,0l0,0h0v0.1h0l0,0v0.1l0,0l0,0.1h0v0.1l0.1,0l0.1,0.1l0,0v0h0v0l0,0l0,0l0.1,0l0.1,0.1l0.1,0.1h0l0.1,0.1l0.1,0
		l0.1,0.1H19l0.1,0l0.2,0.1h0.1h0.1h0h0l0.2,0v0h0h0h0l0.1-0.1l0.2-0.1l0.1-0.2l0,0l0.2-0.5v0l0.1,0h0l0.2,0.1l0.1,0l0,0l0.1-0.1
		h0.1l0.1,0v0l0,0v0.2l0.1,0.1l0,0.3l0.1,0.1l0,0l0.1,0H22h0h0l0.2,0l0.3,0.1l0.1,0.1h0l0.2,0.1l0.1,0h0v0l0.1,0l0,0l0,0l0,0
		l0.1,0.1v0l0,0.1l0,0l0.2,0.1H24h0l0.2,0.1l0.4,0.2l0,0h0l0.1,0.1l0.2,0.1l0,0l0.2,0.1l0,0l0.2,0.1l0.1,0.1l0.1,0l0.1,0l0,0
		l0.2,0.1l0,0l0.1,0.1h0v0l0.1,0v0v0v0.1l0.1,0.1l0,0l0.1,0.1l0.2,0l0.2-0.1l0.1-0.1l0-0.2v-0.1l0-0.1v-0.1l-0.1-0.1l0-0.1l0,0v-0.1
		l0,0v0v0l0.1-0.2l0.1-0.1l0.1-0.2l0,0l0.1-0.1l0.2-0.2v0l0,0l0.1,0h0l0.2,0l0.1,0l0.1,0l0.2,0h0.1h0l0.1-0.1l0,0h0l0.1,0l0.2-0.1
		l0.3-0.2l0.2-0.2l0,0v-0.1v-0.3v0l0.1-0.2l0-0.1l0.1-0.1v0l0.2-0.4l0.6-0.6l0.1-0.1h0h0.1h0l0.1,0.1l0,0v0h0l0,0.1l0,0v0h0.1h0.1
		h0.1l0.1-0.2h0h0l0.2,0h0h0h0l0.1,0h0l0.1,0l0.2-0.1l0.2-0.2l0.1-0.2l0.2-0.3v0l0.1-0.2l0.1-0.2l0-0.1l0.1-0.1v0V102l-0.2-0.6v-0.5
		l-0.1-0.3v-0.2v0v0l0.1-0.2l0.2-0.4l0-0.1v0l0-0.2v-0.5l0-0.1l0.2-0.2l0.1-0.2v-0.1v0l-0.2,0l-0.2,0l0,0l0,0l-0.1-0.1l0,0l0-0.1
		v-0.1v0l0.1-0.1l0.1-0.3l0-0.3v-0.1l0-0.2v0l-0.1-0.4v-0.1l0,0h0.1h0.1l0.3,0.1h0.1l0.1,0h0.1h0.1h0.2h0.1h0.1h0h0h0H35h0h0h0h0.1
		l0.1,0v0h0l0.1,0h0v0h0.1l0,0l0.1,0v0l0.1,0.2l0,0.1l0,0l0.3,0.1h0.1l0.1,0.1l0.4,0.1l0.1,0.1l0.1,0l0,0.1l0,0.1l0,0v0h0l0,0h0h0h0
		l0.1,0l0.1,0.1l0,0l0,0l0,0l0.2,0l0,0l0,0v0l0,0h0.2l0.2,0.1l0.1,0h0l0.2,0.1h0l0.1,0l0.1,0l0.3,0.1l0.1,0l0.2,0.1l0.3,0h0h0l0.1,0
		h0h0h0.1v0h0h0l0,0l0,0l0.1-0.1h0l0,0l0.2,0l0,0v-0.1l0.1-0.1l0-0.2l0-0.1v0v-0.3l-0.1-0.1v0v0h0L41,96.5l-0.1,0l0,0v-0.1h0l0,0v0
		h0l0,0l0-0.2v0l0,0l-0.1,0h0l-0.1,0l0-0.1v0l0-0.1l0.1-0.2l0.2-0.2l0.3-0.2h0.1h0h0h0.1h0.2h0.1l0,0v0l0-0.3v-0.2l0-0.1v-0.1v0
		v-0.1l0-0.1l0,0v-0.1v0l0-0.1l0.1,0h0l0.1,0h0.1h0h0h0l0.2-0.1l0,0l0.2-0.1h0l0.2,0.1h0.1l0.1-0.1l0.1-0.2v0l0.1-0.1l0.2-0.1h0l0,0
		h0.1l0.1,0l0,0h0l0.2-0.1h0h0l0.1,0v0H44l0.5,0.1l0.5,0.1l0,0l0,0l0.3,0.1l0,0l0.2,0.1l0,0v0l0,0l0,0h0h0v0l0.2,0.1h0h0.1h0.1h0.2
		h0.1l0.2,0l0.1,0h0l0.1,0h0h0.1h0.1h0h0l0.2,0h0.2h0h0h0.1H48h0h0l0.1,0l0,0l0.1,0h0l0,0l0.1,0h0h0h0.1h0l0.1,0h0h0h0h0h0l0.1,0
		l0.1-0.1l0,0v0v0l0.1-0.3l0-0.1v0l0.1-0.2l0-0.3v-0.1l0,0l0.1-0.5v0l0-0.2l0-0.2l0-0.2l0.1-0.2l0-0.1l0.2-0.4l0.1-0.2l0.5-0.5
		l0.1-0.1h0l0.1,0l0.4-0.2l0,0l0.1-0.1l0.4-0.4h0l0.1,0v0l0.3-0.4l0.3-0.3l0.2-0.3l0.2-0.3l0.1-0.1l0,0l0.5-0.6l0.3-0.3l0.1-0.1v0
		l0.2-0.3l0.1-0.2l0,0l0.1-0.2l0.2-0.3l0.2-0.3l0.2-0.5l0-0.2l0.2-0.8l0.2-0.8l0-0.2v0H56l0.3-0.1l0.2-0.1l0.2-0.2l0.2-0.2l0.2-0.2
		l0.1-0.2l0.2-0.2l0.2-0.2l0.2-0.1l0.3-0.1l0.3-0.2l0.3-0.1l0.2-0.2l0.3-0.1l0.3-0.1l0.3-0.1l0.2-0.2v-0.3l0-0.3l0-0.3l0.1-0.3
		l0.1-0.3l0.1-0.2l0.1-0.3l0.2-0.2l0.2-0.2l0.3-0.1l0.3-0.1l0.2-0.1l0.4,0.1h0.3l0.3-0.1l0.3-0.1l0.3,0l0.3-0.1l0.2-0.2l0.2-0.2
		l0.2-0.1l0.3-0.1l0.2-0.2l0.3-0.1l0.3-0.1l0.3,0h0.3l0.3,0l0.3,0.1l0.2,0.1l0.3,0.1l0.3,0.1l0.2,0.2l0.2,0.2l0.1,0.2l0,0.3l0,0.3
		l-0.2,0.2L67,77.7l0.2,0.2l0.2,0.1l0.3,0.1l0.3,0l0.3-0.1l0.3,0.1l0.2,0.2l0.2,0.2l0.3,0.1l0.2,0.1l0.2,0.3l0,0.3l0,0.3l0.3,0.1
		l0.2,0.2l-0.1,0.3l-0.1,0.3l-0.1,0.3l0.2,0.1l0.3,0l0.3,0.1l0.3,0.1l0.3,0.1l0.3,0h0.3h0.3h0.3l0.3,0l0.3,0l0.3,0.1l0.2,0.1
		l0.3,0.2l0.2,0.2l0.2,0.2l0.2,0.2l0.3,0.1l0.3,0.1l0.3,0l0.3,0.1l0.1,0.3l0.2,0.3l0.3,0.1l0.3,0.1l0.2,0.1l0.2,0.2l0.3,0.1h0.3
		l0.3-0.1l0.3-0.1l0.2-0.1l0.2-0.2l0.1-0.3l0-0.3v-0.3l0-0.3l-0.2-0.3l0.1-0.3l0.2-0.1h0.3l0.3,0l0.3,0h0.3L80,82l0.1,0.2v0.3
		l0.2,0.1l0.3,0.1l0,0.3l0.1,0.2l0.2,0.2l0.3,0l0.3,0.1l0.3,0.1l0.2,0.2l0,0.3l0,0.3l0,0.3V85l0,0.3l0.3,0l0.3,0l0.2,0.2l0.3,0
		l0.2-0.1l0.2-0.2l0.3,0l0.3,0.1l0.3-0.1h0.3h0.3l0.2,0.2l0.1,0.3l0.3,0l0.2,0.2l0.2,0.2l0.3,0.1l0.3,0l0.3-0.1l0.3,0l0.3,0l0.2,0.1
		l0.2,0.2l0.1,0.3l0.1,0.3l0,0.3l0,0.3l0.1,0.2l0.2,0.2l0.2,0.1l-0.1,0.3l-0.1,0.3l0.1,0.3l0.2,0.2l0,0.3l0.1,0.3l0.2,0.2l0.1,0.2
		l0.2,0.2l0.3,0.1l0.3,0.1l0.2,0.1l0.3,0.1l0.3,0.1l0.3,0.1h0.3l0.3,0.1l0.2,0.2l0.3,0l0.3-0.1l0.3-0.1l0.2-0.1l0.3,0h0.3h0.3h0.3
		l0.3,0l0.3,0H95h0.3l0.3,0l0.3,0l0.3,0.1v0.3l0.1,0.3l0.2,0.2l0.2,0.2L97,92l0.2-0.2l0.3-0.1l0.3-0.1H98l0.3,0l0.3,0l0.3,0l0.1-0.2
		L98.9,91l0-0.3l0.3-0.1l0.3,0l0.3,0.1l0.3,0.1l0.2,0.1l0.4,0.2l0.2,0.1l0.3,0l0.3,0l0.2-0.2l0.2-0.2l0.2-0.2l0.3,0l0.1-0.3v-0.3
		l0.1-0.3l0.1-0.3l0.1-0.3l0.1-0.3l0-0.3l0.2-0.2l0.2-0.2h0.3l0.3,0l0.3-0.1l0.3,0l0.3,0l0.3-0.1l0.3,0l0.3-0.1l0.3,0l0.3,0.1l0.3,0
		l0.2-0.1l0.2-0.2l0.2-0.2l0.3,0h0.3l0.3,0l0.3,0h0.3l0.2-0.2l0.3-0.1l0.4-0.1l0.2,0.2l0.2,0.1l0.3-0.1l0.3-0.1l0.3-0.1l0.2-0.2
		l0.1-0.3l0.1-0.3l0.1-0.2l0.3-0.1l0.2-0.2l0-0.3l0-0.3l0-0.3l0.1-0.3l0.3-0.1l0.2,0.1l0.3,0.1l0.3,0l0.3-0.1l0.3-0.1l0.2-0.3l0-0.3
		l0.1-0.3l0.1-0.2l0.3,0h0.3l0.3,0l0.3,0.1l0.2,0.1l0.2,0.1l0.2,0.2l0.2,0.2l0.2,0.2l0.2,0.1l0.3,0l0.3-0.1l0.2,0.1l0.2,0.2l0.2,0.2
		l0.2,0.2l0.3,0l0.3,0.1l0.2,0.2l0.2,0.2l0.1,0.3l0.1,0.3l0.2,0.2l0.3,0.1l0.2,0.2l0.2,0.2l0.2,0.2l0.1,0.3l0.1,0.2l0.3,0.1l0.3,0
		l0.3-0.1l0.3-0.1l0.2-0.2l0.3-0.1l0.3-0.1l0.3-0.1h0.3L123,87l0.3,0.1l0.3,0l0.3,0l0.3,0l0.3,0l0.3,0l0.2,0.2l0.2,0.2l0.1,0.2
		l0.2,0.2l0.2,0.1l0.2,0.1l0.3,0.1l0.1,0.3v0.3l-0.2,0.2l-0.1,0.3v0.3l0.1,0.3l0.1,0.3v0.3l0,0.3L126,91l-0.1,0.3l-0.1,0.3l-0.1,0.2
		l-0.2,0.2l-0.1,0.3l0,0.3l0,0.3l0,0.3v0.3l0.1,0.2l0.2,0.2l0.3,0.1l0.2,0.1l0.2,0.2l0.2,0.2l0.2,0.2l0.1,0.3l0.1,0.3l0,0.3l0,0.3
		l0,0.3l0.1,0.3l0,0.3l0.1,0.2l0.2,0.2l0.2,0.2l0.2,0.2l0.2,0.1l0.2,0.2l0.2,0.1l0.3,0.1l0.3-0.1l0.3-0.1h0.3l0.2,0.2l0.2-0.2
		l0.2-0.2l0.3-0.1l0.3,0.1l0.2,0.2l0.2,0.2l0.2,0.2l0.2,0.2l0.2,0.1l0.2,0.2l0.3,0.1l0.3,0h0.3l0.3,0.1l0,0.3l0.1,0.2l0.3,0.1l0.3,0
		l0.3,0l0.3,0.1l0.3,0l0.3,0l0.3,0h0.3l0.3,0l0.2,0.2l0.1,0.3v0.3l0.2,0.2l0.2,0.3l0,0.3l0.1,0.3l0.3,0.1l0.3,0l0.3,0l0.3,0.1
		l0.2,0.2l0.2,0.2l0.1,0.2l0.3,0l0.3-0.1l0.2-0.1l0.3-0.1l0.3,0h0.3l0.3,0.1l0.3,0.1l0.3,0.1l0.3,0l0.3,0l0.3,0l0.3,0.1l0.2,0.1
		l0.2,0.2l0.2,0.1l0.3,0.1l0.3,0.1h0.3h0.3h0.3h0.3l0.3,0.1l0.1,0.1l0.2-0.2l0.1-0.2l0.2-0.2l0.1-0.2l0.2-0.1l0.3-0.1l0.3,0l0.3,0.1
		l0.3,0h0.3h0.3h0.3l0.3,0l0.3,0.2l0.2,0.2l0.2,0.2l0.1,0.3l0.1,0.5l-0.1,0.4l-0.1,0.3l0,0.5l0.5-0.1h0.5l0.4,0l0.2,0.2l0.4,0.1h0.3
		l0.3,0.1l0.2,0.2h0.3l0.3-0.1l0.3-0.1l0.3,0l0.3-0.1h0.3h0.3h0.3l0.3,0h0.3h0.3l0.3,0h0.3h0.3h0.3l0.3,0l0.3-0.1l0.3,0l0.3-0.1
		l0.3-0.1l0.3-0.1l0.3,0l0.3-0.2l0.3-0.1l0.2-0.1l0.3-0.2l0.2-0.1l0.2-0.2l0.2-0.2l0.1-0.3l-0.1-0.3l0-0.3l0.1-0.3l0.2-0.1l0.3,0
		h0.3l0.3,0l0.3,0l0.3,0l0.3,0l0.3,0h0.3h0.3h0.3l0.3,0h0.3l0.3,0h0.3h0.3l0.3,0l0.3,0h0.3h0.3h0.3l0.3,0l0.3,0.1l0.3,0.1l0.3,0.1
		l0.3,0l0.3-0.1l0.3,0h0.3l0.3,0h0.3h0.3l0.3,0l0.3,0l0.3-0.1l0.3-0.1l0.2-0.2l0.3-0.1l0.2-0.2l0.2-0.1l0.3,0l0.2,0l0.3,0l0.3-0.1
		l0.3,0.1l0.3,0l0.2-0.1l0.3-0.2l0.2-0.1l0.3-0.1l0.2-0.1l0.3,0l0.3,0h0.3l0.3,0l0.3,0h0.3l0.3,0.1l0.3,0l0.3,0l0.3,0l0.3,0l0.3,0.1
		l0.2,0.1l0.2,0.2l0.3,0.1l0.3-0.1l0.3-0.1l0.3-0.1l0.2-0.2l0.2-0.2l0.2,0l0.3,0h0.3l0.3,0.1l0.3,0.1l0.2,0.1l0.2,0.2l0.2,0.2
		l0.2,0.2l0.2,0.2l0.2,0.1l0.2,0.2l0.2,0.2l0.2,0.2l0.2,0.2l0.2,0.2l0.3,0.1l0.3,0l0.3,0.1l0.2,0.1l0.2,0.1l0.2,0.2l0.2,0.1l0.3,0.1
		l0.2,0.1l0.3,0.1h0.3l0.3,0.1l0.2,0.2l0.2,0.2l0.1,0.3v0.3l-0.2,0.2h-0.3l-0.2,0.2v0.3l0.1,0.2l0.2,0.2l0.2,0.2l0.2,0.1l0.3,0.1
		l0.4,0l0.3,0l0.3,0l0.2-0.2l0.2-0.2l0-0.3l0.2-0.2l0.2-0.2l0.2-0.2l0.2-0.2l0.3-0.1l0.2-0.2l0.2-0.2l0.3-0.1l0.3,0l0.3,0l0.3,0
		l0.3,0l0.3-0.1l0.3-0.1h0.3h0.3h0.3h0.3l0.3,0l0.3,0l0.3,0.1l0.2,0.2l0.2,0.2l0.3,0l0.3,0h0.3l0.3,0h0.3l0.3,0h0.3h0.3h0.3h0.3
		l0.3,0l0.3-0.1l0.2-0.1l0.3-0.1l0.3-0.1l0.3-0.1h0.3l0.3-0.1l0.3-0.1l0.3,0h0.3l0.3,0l0.3-0.1l0.2-0.2l0.2-0.2l0.1-0.3l0.3-0.2
		l0.2-0.2l0.2-0.2l0.2-0.2l0.3-0.2l0.2-0.2l0.2-0.2l0.2-0.2l0.2-0.2l0.2-0.2l0.2-0.2l0.2-0.2l0.2-0.2l0.2-0.3l0.1-0.2l0.2-0.5
		l0.1-0.3l0.1-0.3l0.1-0.3l0.1-0.3l0.1-0.3l0.1-0.3l0.1-0.2l0.1-0.3l0.2-0.2l0.2-0.2l0.2-0.2l0.4-0.2l0.3-0.1l0.3-0.1l0.3-0.1l0.3,0
		l0.3-0.1h0.3l0.3,0l0.3,0h0.3h0.3h0.3h0.3l0.3,0l0.4-0.1l0.3-0.1l0.3-0.1l0.3-0.1l0.3-0.1l0.3,0h0.3l0.3,0l0.3,0.1l0.2,0.2l0.3,0.1
		l0.3,0.2l0.2,0.2l0.2,0.2l0.2,0.2l0.3,0.1h0.3h0.3l0.3,0.1l0.3,0.1h0.3l0.3-0.1l0.3-0.1l0.2-0.1l0.3-0.1l0.3-0.1l0.3,0l0.3-0.1
		l0.3-0.1l0.1-0.2l0.2-0.2l0.2-0.1l0.3,0h0.3h0.3l0.3,0.1l0.2,0.1l0.3,0l0.3,0h0.3l0.3,0l0.3,0.1l0.2,0.1l0.1,0.3l0,0.3v0.3l0.1,0.3
		l0.2,0.2l0.3,0h0.3l0.2-0.1l0.2-0.2l0.2-0.1l0.2,0.2l0.3,0.1l0.3-0.1l0.2-0.1l0.3-0.1l0.3-0.1l0.3,0l0.2,0.1l0.2,0.2l0.2,0.2l0.3,0
		l0.3,0l0.3-0.1h0.3l0.3,0.1l0.2,0.2l0.2,0.2l0.3,0.1l0.3,0L228,98l0.2-0.2l0.2-0.2l0.2-0.1l0.3-0.1l0.3-0.1l0.3-0.1h0.3h0.3l0.3,0
		l0.3,0l0.3,0l0.3,0l0.3,0h0.3h0.3l0.3-0.1l0.2-0.1l0.3-0.1l0.2-0.2l0.2-0.1l0.2-0.2l0.2-0.2l0.3-0.1l0.3,0l0.3,0.1l0.2,0.1l0.3,0.1
		l0.3,0.1l0.2,0.2l0.2,0.2l0,0.3l0,0.3v0.3V98l0.1,0.3l0.1,0.2l0.2,0.2l0.2,0.1l0.3,0.1l0.3,0.1l0.3,0l0.3,0l0.3,0h0.3l0.3,0l0.3,0
		l0.3,0h0.3h0.3h0.3l0.3,0h0.3h0.3l0.3,0l0.3,0l0.3,0h0.3l0.3,0l0.3,0.1l0.2,0.2l0.2,0.2l0.2,0.2l0.2,0.1l0.3,0.1l0.3,0h0.3h0.3h0.3
		l0.3,0.1l0.2,0.1l0.3,0l0.3,0l0.3,0l0.3-0.1l0.2-0.2l0.3-0.1l0.2-0.1l0.3,0l0.3,0h0.3h0.3h0.3h0.4v0.3h0.2h0.3h0.3l0.3-0.1h0.3h0.3
		l0.3,0l0.2,0.2l0.2,0.1l0.3,0.1l0.3,0h0.3h0.3l0.3-0.1l0.2-0.1l0.3-0.1l0.2,0.1l0.2,0.2h0.3l0.3-0.1l0.2-0.2l0.3,0l0.3,0l0.3,0.1
		l0.3,0.1l0.2,0.1l0.2,0.1l0.3,0.1l0.3,0l0.3,0l0.3-0.1l0.3-0.1l0.2,0l0.3,0l0.2,0.2l0.1,0.3l0.2,0.1h0.3l0.3-0.1h0.2h0.3l0.2,0
		l0.2,0.2l0.1,0.3l0,0.3l0.1,0.2l0.2,0.2l0.3,0h0.3l0.3,0l0.3,0l0.3-0.1l0.3,0l0.2,0.2l0.1,0.2l0.2,0.2l0.2,0.2l0.2,0.2l0.1,0.2
		l0,0.3l-0.1,0.3l0,0.3l0,0.2l0.2,0.2l0.2,0.2l0.2,0.2l0.2,0.2l0.2,0.2l0.2,0.2l0.2,0.1l0.2,0.1l0.3,0.1l0.2,0.1l0.3,0.1l0.2,0.1
		l0.3,0.1l0.4,0l0.3,0l0.2-0.1l0.3-0.1l0.3,0l0.2,0.1l0.3,0.1l0.3,0.1l0.3,0l0.3,0h0.3h0.3l0.3,0l0.2,0.2l0,0.3l0,0.3l0,0.3l0.2,0.3
		l0.2,0.2l0.2,0.1l0.3,0l0.2,0.1l0.3,0.1l0.3,0.1l0.3,0.1l0.2,0.2l0.2,0.1l0.2,0.1l0.2,0.2l0.2,0.2l0.1,0.3l0,0.3l0.1,0.3l0.2,0.2
		l0.2,0.2l0.2,0.2l0.3,0l0.3,0h0.3h0.3h0.3l0.3,0l0.3,0h0.3l0.3,0l0.3,0.1l0.2,0.1l0.3,0.1l0.2,0.1l0.2,0.2l0.1,0.2l0.2,0.2l0.2,0.1
		l0.2,0.2l0.2,0.2l0.2,0.2l0.2,0.2l0.2,0.2l0.2,0.2l0.2,0.2l0.2,0.2l0.2,0.2l0.2,0.2l0.2,0.2l0.2,0.2l0.2,0.2l0.2,0.2l0.2,0.2
		l0.2,0.2l0.2,0.2l0.2,0.2l0.2,0.2l0.2,0.2l0.2,0.2l0.3,0.2l0.2,0.1l0.3,0.1l0.2,0.2l0.3,0.1l0.1,0.1l0.3,0.2l0.2,0.2l-0.3,0.1
		l-0.4,0l-0.2,0l-0.1,0l-0.2,0.2l-0.2,0.2l-0.2,0.1l-0.3,0h-0.3h-0.3l-0.3,0l-0.3,0l-0.3,0l-0.3,0l-0.3,0l-0.3,0l-0.2-0.1l-0.1-0.1
		l-0.1-0.1l-0.1-0.1l-0.2-0.2l-0.3,0h-0.2l-0.3,0.1l-0.5,0.2l-0.3,0.5l0.1,0.3l0.2,0.3l0.2,0.2l0.2,0.3l-0.1,0.3l0,0.3l0.1,0.2
		l-0.2,0.2l-0.2,0.2l-0.2,0.2l0,0.3l0.2,0.1l0.2,0.1l0.3,0.1l0.2,0.1l0.3,0.1l0.3,0.1l0.2,0.2l0.2,0.2l0.2,0.1l0.2,0.2l0.2,0.2
		l0.2,0.2l0.1,0.2l0.1,0.3l0.1,0.2l0.2,0.1h0.3l0.2-0.2l0.1-0.2h0.3l0.2,0.2l0.2,0.2l0.2,0.2l0.2,0.2l0.2,0.2l0.3,0l0.3,0l0.3,0
		l0.3,0l0.3,0h0.3l0.3,0h0.3l0.3,0l0.3,0l0.2,0.2l0.1,0.3l0,0.3l-0.2,0.2l-0.2,0.2l-0.2,0.2l-0.2,0.2l-0.1,0.2l-0.1,0.3l0.1,0.2
		l-0.1,0.3l-0.1,0.3l-0.1,0.2l-0.2,0.2l-0.2,0.2l-0.2,0.2l-0.1,0.2v0.3l0,0.3l0,0.3l-0.1,0.3l-0.1,0.3l-0.1,0.2l-0.3,0.1l-0.2,0.1
		l0,0.3l0.1,0.3l0.1,0.3l0.1,0.2l0,0.3v0.3l0,0.3l-0.2,0.2l-0.3,0l-0.3,0H282l-0.2,0.1l-0.1,0.3l-0.1,0.3l-0.1,0.2l-0.1,0.3
		l-0.1,0.3l0.1,0.3l0.2,0.2l0.3,0.1l0.2,0.1l0.1,0.3v0.3l-0.2,0.2l-0.2,0.2l-0.2,0.2l-0.2,0.2l-0.2,0.1l-0.2,0.2l-0.2,0.2l-0.1,0.2
		l-0.3,0.1l-0.3,0l-0.2-0.1l-0.3-0.1h-0.3H279l-0.3,0.1l-0.2,0.1l-0.3,0.1l-0.2,0.1l-0.3,0.1l-0.3,0l-0.3,0.1l-0.2,0h-0.3l-0.3,0
		l-0.3,0l-0.3,0l-0.2,0.2l0,0.3l0.2,0.2l0,0.3l-0.2,0.2l-0.1,0.2l-0.1,0.3l-0.1,0.3l-0.2,0.2l0.1,0.2l0.3,0.1l0.2,0.2l-0.1,0.3
		l-0.3,0.1l-0.3,0l-0.2,0.1l-0.3,0.1l-0.3,0.1l-0.3,0.1l-0.2,0.1l-0.1,0.3l0.1,0.2l0.1,0.3l0,0.3l0.1,0.3l0.1,0.2l0.1,0.3l0.1,0.3
		l0.1,0.2l0,0.3l0.1,0.3l0.1,0.3l0.1,0.2l0.2,0.2l0.2,0.1l0.3,0l0.2,0.1l0.1,0.3l0.1,0.2v0.3l0,0.3l-0.1,0.3l-0.1,0.3l-0.1,0.3
		l-0.1,0.2l-0.1,0.3l-0.1,0.2l-0.1,0.3l-0.2,0.2l0,0.2l0,0.3l0,0.3l-0.1,0.2l-0.3,0.1l-0.2,0.1l0,0.3l0,0.3l0,0.3l0.1,0.2l0,0.3v0.3
		v0.3l0.2,0.1l0.3,0l0.3,0.1l0.1,0.3l0.2,0.1l0.2,0h0.3l0.3,0l0.3-0.1l0.3-0.1l0.2-0.1l0.2-0.2l0.3,0l0.3,0.1l0.2,0.1l0.3,0.1h0.3
		l0.3-0.1h0.3l0.3,0l0.2,0.1l0.2,0.2l0.2,0.2l0.1,0.1v0.3l-0.1,0.2l-0.1,0.2l0.1,0.3l0.2,0.2l0.1,0.3l0.1,0.3l0.1,0.3l0,0.2v0.3
		l-0.2,0.2l-0.2,0.1h-0.3l-0.2,0.1l-0.1,0.2l-0.1,0.2l-0.2,0.2l-0.1,0.2l-0.2,0.2l-0.2,0.2l-0.2-0.1l-0.1-0.2l-0.3,0.1l-0.2,0.1
		l-0.3,0.1l-0.2,0l-0.3,0.1l-0.1,0.2l-0.1,0.3l0.1,0.2v0.3l-0.1,0.3l0,0.3v0.3l0.1,0.2l0.2,0.2l0.3,0.1l0.2,0.1l0.3,0.1l0.1,0.2
		l0.1,0.3l-0.3,0.3l-0.2,0.2l-0.1,0.2l-0.1,0.2l0,0.3l0.2,0.2l0.2,0.2l0.1,0.3l0,0.3l0,0.3l0,0.3l-0.1,0.3l0,0.3l0,0.3v0.3l0,0.3
		l-0.1,0.3l-0.1,0.2l0,0.3v0.3l0,0.3l-0.1,0.3l-0.2,0.1l-0.2,0.1v0.3l0.1,0.3l0.2,0.1l0.1,0.2v0.3l0.1,0.3l0.2,0.1l0.3,0l0.1,0.2
		v0.3l0,0.3l-0.2,0.2l-0.1,0.2l-0.2,0.2l-0.2,0.1l-0.3,0l-0.1,0.2l0,0.3v0.3l-0.1,0.3l-0.1,0.3l0,0.3l-0.1,0.3l-0.1,0.3l-0.1,0.2
		l-0.2,0.2l-0.2,0.2l-0.1,0.2v0.3l-0.1,0.2l-0.2,0.2l-0.3,0l-0.3,0l-0.3,0l-0.2,0.2v0.1l0,0.3l-0.3,0l-0.2-0.2l-0.2-0.2l-0.3-0.1
		l-0.3,0l-0.3,0l-0.3,0.1l-0.2,0.2l-0.2,0.2l-0.3,0.1l-0.2,0.2l-0.2,0.2L271,175l-0.1,0.3l-0.1,0.3l-0.1,0.2l0,0.3l0.1,0.3l0.1,0.2
		l0.1,0.3l0.1,0.2l0.1,0.3l0,0.3l0,0.3l0,0.3v0.3l0.1,0.2l0.2,0.2l0.2,0.3l0.1,0.2l0.1,0.3l0,0.3l0.1,0.2l0.2,0.2l0.2,0.2l0.2,0.2
		l0.1,0.3v0.3l0.1,0.2l0.2,0.2l0.3,0.1l0.3,0h0.3l0.3,0.1l0.2,0.1l0.1,0.2l0,0.3v0.3l0.1,0.2l0.2,0.3l0.1,0.2l0.1,0.3l0.2,0.1
		l0.3,0.1l0.2,0.1v0.3l-0.2,0.2l-0.2,0.2l-0.2,0.2l-0.2,0.2l-0.1,0.2l0.1,0.4l0.2,0.2l0.2,0.1h0.3l0.2,0.1l0.2,0.2l0.2,0.1l0.2,0.2
		l0.1,0.3l0.1,0.3l0,0.3v0.3l0,0.3l0,0.3l0,0.3l0,0.3l0,0.3l0,0.3l0,0.2l0.2,0.1l0.2,0.1l0.2,0.1l0.3,0.1l0.2,0.1l0.3,0.1l0.2,0.1
		l0.3,0.1l0.2,0.1l0.2,0.1l0.2,0.1l0.2,0.2l0.2,0.2l0.2,0.2l0.2,0.2l0.2,0.2l0.2,0.3l0.1,0.2l0.1,0.3l0.1,0.3l0.2,0.2l0.2,0.1
		l0.2,0.2l0.1,0.3l-0.1,0.2l-0.1,0.2v0.3l0,0.3l-0.1,0.3l0,0.3l0,0.3v0.3l0,0.2l0.1,0.3l0.1,0.3l0.1,0.2l0.1,0.3l0.1,0.3l0.1,0.2
		l0.1,0.3l0.1,0.2l0.1,0.3l0.2,0.2l0.2,0.2l0.2,0.2l0.1,0.2l0.1,0.3v0.3l0.1,0.3l0.2,0.2l0.2,0.4l0.1,0.3l0.1,0.3l0.5,0l0.4-0.2
		l0.5,0.3l0.2,0.4l0.7,0l0.6,0.4l0.7,0.7l0.6,0.7l0.6,0.6l0.8,1l0.6,0.5l0.8,0.4l0.9,0.4l0.6,0.4l1,0.5l0.9-0.1l0.1-0.2l0.2-0.2
		l0.2-0.2l0.2-0.1l0.3,0l0.3-0.1l0.2-0.1l0.2-0.2l0.1-0.2l0.2-0.2l0.3-0.1l0.3,0l0.2-0.1l0.2-0.2l0.2-0.2h0.3l0.2,0.1l0.2,0.2
		l0.2,0.1l0.3,0l0.3,0.1l0.3,0l0.3,0l0.3,0l0.2-0.1l0.3,0l0.3,0l0.3,0h0.3l0.3,0.1l0.2,0.1l0.3,0.1h0.3l0.1-0.3l0.1-0.2l0.3-0.1
		l0.1-0.3l0.1-0.3l0.1-0.3l0.1-0.2l0.2-0.2l0.3-0.1l0.3-0.1l0.2,0l0.3,0l0.2,0.1l0.2,0.1l0.2,0.1l0.2,0.1l0.3,0.1h0.3h0.3h0.3l0.3,0
		l0.3,0l0.3,0.1l0.2,0.2l0.3,0.1l0.3,0l0.3,0.1l0.1,0.2l0.1,0.3l-0.1,0.2l-0.2,0.2l-0.3,0.1l-0.2,0l-0.3,0l-0.2,0.1l0,0.3l0,0.2
		l0.1,0.3l0,0.3l0.1,0.2l0.2,0.2l0.1,0.3l0.1,0.2l0.1,0.3l0.2,0.2l0.1,0.3l0.1,0.2l0.1,0.3l0.1,0.3l0,0.2l0.1,0.3v0.3l0,0.3l0.1,0.2
		l0.2,0.1l0.2,0.2l0.2,0.2l0.3,0h0.3l0.2,0.2l0.1,0.2l0.1,0.3l0,0.3v0.3l0.1,0.2l0.2,0.2l0.2,0.2l0.2,0.1l0.2,0.1l0.2,0.2l0.2,0.1
		l0.2,0.2l0.1,0.2l0.2,0.2l0.2,0.1l0.2,0.1l0.2,0.1l0.2,0.2l0.2,0.2l0.2,0.2l0.2,0.1l0.2,0.2l0.2,0.2l0.2,0.1l0.2,0.2l0.2,0.2
		l0.1,0.2l0.2,0.2l0.3,0l0.3,0l0.3,0.1l0.2,0.1l0.1,0.3l0.1,0.3l0,0.2l0.1,0.3l0.1,0.3l0.3,0l0.3,0l0.2,0.2l0.1,0.2v0.3l0,0.3
		l0.2,0.2l0.2,0.2l0.1,0.3l0.1,0.2v0.3l0.1,0.3l0.2,0.2l0.2,0.1l0.3,0h0.2l0.2-0.1l0.3-0.1l0.3,0l0.3,0v-0.3l0.1-0.2l0.2-0.1
		l0.3,0.1l0.3,0.1l0.2,0.1l0.3,0.1l0.3,0l0.2-0.1l0.3-0.1l0.2-0.2l0.3-0.1l0.2,0l0.3,0.1l0.1,0.3l0.2,0.1l0.3,0l0.3,0.1l0.2,0.1
		l0.2,0.2l0.2,0.3l0.1,0.2l0,0.3l-0.1,0.2l-0.2,0.1l-0.3,0.1l-0.2,0.1l-0.1,0.3l0.1,0.2v0.3l-0.1,0.2l-0.1,0.2l0,0.3l0.1,0.2l0,0.4
		l0.2-0.2l0.2,0.1l0.2,0.2l0.2,0.2l0.2,0.2h0.3l0.3-0.1l0.2-0.2l0.2-0.1l0.2-0.1h0.3l0.2,0.2l0.2,0.2l0.3,0.1l0.2,0l0-0.3l0.1-0.2
		h0.3l0.2,0.2l0.2,0.1l0.2,0.1l0.3,0l0.2-0.1l0.3-0.1l0.3,0l0.2,0.1l0.2,0.2l0.2,0.2l0.2,0.1l0.2,0.1l0.3,0.1l0.3,0l0.2,0.1l0.3,0.1
		l0.2,0.2l0.4,0.1l0.3,0.1l0.3,0l0.3,0.1l0.2,0.2l0.2,0.2l0.2,0.2l0.3,0.1l0.2-0.1l0.3-0.1l0.1-0.2l0.1-0.2l0.2-0.2l0.3-0.1l0.3,0
		l0.2,0.1l0.2,0.2l0.2,0.2l0.2,0.2h0.3l0.3,0l0.2,0.2l0.1,0.3l0.1,0.2l0.3,0.1h0.3h0.3l0.3,0l0.2,0.1l0.2,0.1l0.1,0.3l0.1,0.2
		l0.2,0.2l0.2,0l0.2-0.2l0.1-0.2l0.3,0l0.3,0l0.3,0l0.3,0.1l0.2,0.1l0.3,0l0.2-0.1l0.2-0.2l0.3-0.1l0.2-0.1l0.3-0.1l0.2,0l0.1,0.3
		v0.3l0,0.3v0.3l0.1,0.2l0.2,0.3l0,0.2l0,0.3l0,0.2l0,0.3l0,0.3l0,0.3l0.1,0.3l0.2,0.1l0.2-0.2l0.2-0.1l0.3-0.1l0.3,0.1l0.3,0.1h0.3
		l0.2-0.1l0.2-0.1l0.3-0.1l0.2-0.1l0.3,0l0.2,0.1l0.1,0.3h0.2l0.3,0l0.3,0l0.3,0l0.2,0.2l0.1,0.2v0.3l0,0.3v0.3v0.3l0.2,0.2l0.2,0.1
		l0.3,0l0.3,0.1l0.1,0.3l-0.1,0.3l-0.1,0.2l0,0.2l0.2,0.1l0.3,0l0.2,0.1l0.2,0.2l0.1,0.2l0.2,0.2l0.3,0.1l0.3,0l0.3,0l0.2-0.1h0.3
		h0.3l0.3,0.1l0.2,0.1l0.2,0.2l0.1,0.2l0,0.3v0.3v0.4l0.3,0.1l0.1,0.2l0,0.3l0.2,0.1l0.3,0l0.3,0l0.3,0l0.2-0.1l0.3-0.1l0.2-0.1
		l0.3-0.1l0.2-0.2l0.2-0.2l0.2-0.2l0.3-0.1l0.2-0.1l0.2-0.1l0.2-0.2l0.1-0.2l0.2-0.2l0.3-0.1l0.3,0.1l0.3,0l0.3,0.1h0.3l0.2,0.1
		l0.2,0.1l0.2,0.1l0.2,0.1h0.3l0.3,0l0.2,0.1l0,0.3l0.3,0.1l0.3,0.1l0.2,0.2l0,0.3l0.1,0.2l0.2,0.2l0.2,0.2l0.2,0.3l0.1,0.2l0,0.3
		v0.3l0,0.3h0.3h0.3l0.3,0l0.2,0.2l0.2,0.2l0.2,0.2l0.2-0.1l0-0.3l0.1-0.2l0.3,0l0.3,0l0.2,0l0.1,0.2v0.3l0.3,0.1l0.2,0.1l0.1,0.3
		l0.1,0.1h0.2l0.3,0.1l0.2-0.1l0.2-0.2l0.3,0l0.3,0l0.3,0.1l0.3,0l0.2,0.2l0.2,0.2l0.2,0.2l0.2,0.2l0.2,0.1h0.3l0.2-0.2l0.2-0.1h0.4
		l0.2-0.2l0.1-0.2v-0.3l0-0.3l0.2-0.2l0.2-0.1l0.3,0h0.3h0.3h0.3l0.3,0.1l0.3,0.1l0.2,0.1l0.3,0.1l0.2-0.1l0.3-0.1l0.2-0.1l0.2-0.1
		h0.3l0.2,0.2l0.2,0.1h0.3l0.3-0.1l0.1-0.2l0-0.3l0-0.3l0-0.3l0.1-0.3l0.1-0.3l0.2-0.2l0.2-0.1l0.2,0.1l0.1,0.2l0,0.3l0.2,0.2
		l0.2,0.2l0.3,0.1l0.2-0.1l0.1-0.3l0-0.3l0.2-0.2l0.2-0.1l0.3,0l0.2,0.2l0.3,0.1h0.3h0.3l0.3,0l0.2-0.1l0.2-0.2l0.2-0.2l0.3,0l0.3,0
		l0.3,0l0.2-0.1l0-0.3l0-0.3l0.1-0.2l0.2,0l0.3,0.1l0.2,0.2l0.1,0.2l0.1,0.3l0,0.2l0.2,0.2l0.2,0.2l0.2,0.2l0.2,0.2l0.2,0.2l0.2,0.2
		l0.2,0.1l0.2,0.1l0.2,0.2l0.1,0.2l0,0.3l0,0.3l0.2,0.2l0.2,0.1l0.3,0.1l0.2,0.2v0.3l0,0.3l-0.1,0.2v0.3l0.1,0.3l0.2,0.2l0.2,0.1
		l0.2,0.1l0.2,0.2l0.2,0.1l0.2,0.1l0.3,0l0.3,0l0.2,0.1l0.1,0.2l0,0.3l0.1,0.2l0.1,0.3l0,0.3l0,0.2l0.1,0.3l0.1,0.2l0,0.3l0,0.3v0.3
		l-0.3,0l-0.2-0.1l-0.2,0l-0.2,0.1l0,0.3l0,0.2l0.3,0.2l0.2,0.2l0.3,0.1l0.3,0.1l0.2,0.1l0.2,0.1l0.2,0.1l0.2,0.2l0.1,0.2l0.3,0.1
		l0.3,0l0.2,0.2l0.1,0.2l0.1,0.2l0,0.3l0,0.3v0.3l0.2,0.2l0.2,0.1l0.3,0.1l0.3,0h0.3l0.3,0l0.3,0l0.2,0.1l0.3,0h0.3l0.3,0l0.3,0
		l0.3,0l0.2,0.1l0.3,0.1h0.3h0.3h0.3h0.3l0.3,0l0.3,0.1l0.3,0.1l0.2,0.1l0.2,0.1l0.1,0.2l0,0.3v0.3l0,0.2l0.2,0.3l0.1,0.2l0.1,0.2
		l0.1,0.2l0.2,0.2l0.3,0l0.3,0l0.2-0.1h0.3l0.3,0l0.2,0.2l-0.1,0.2l0.1,0.2l0.1,0.3l0.1,0.2l0,0.3l0,0.3l0,0.3l0.1,0.2l0.1,0.3v0.3
		l-0.1,0.3l-0.1,0.2l-0.1,0.3l-0.2,0.2l-0.3,0l-0.2,0.1l-0.1,0.2l-0.1,0.2v0.3l-0.1,0.2l-0.2,0.2l-0.2,0.1l-0.3,0.1l-0.1,0.2l0,0.3
		l0,0.3v0.3v0.3v0.3v0.3l0.1,0.3l0.1,0.2l0.1,0.2l0.1,0.3l0.1,0.2v0.3l0,0.3v0.3v0.3l0,0.3v0.3l0.1,0.2l0.1,0.3l0.2,0.2l0.1,0.2
		l0.2,0.2l0.1,0.2l0.1,0.3l0.1,0.2l0.1,0.2l0.1,0.3l0.2,0.1l0.2,0.2l0.3,0l0.3,0l0.3,0l0.2-0.1l0.3,0l0.2-0.1l0.2-0.1l0.3-0.1
		l0.2-0.1l0.3-0.1l0.3,0l0.3,0l0.3,0l0.2,0.1l0.3,0.1l0.2,0.1l0.2,0.1l0.2,0.1l0.3,0.1l0.3,0l0.3,0l0.2,0.1l0.2,0.2l0.2,0.2l0.2,0.2
		l0.1,0.3l0.1,0.2l0.1,0.3l0.1,0.2l0.1,0.2l0.1,0.3l0.2,0.2l0.2-0.1l0.2-0.2l0.2-0.2l0.2-0.1l0.2-0.1h0.3l0.3,0.1l0.3,0.1l0.3,0.1
		l0.2,0.1l0.2,0.2l0.2,0l0.3,0.1l0.3,0l0.3,0l0.3,0l0.3,0l0.3,0l0.3,0l0.3,0l0.3,0.1l0.2-0.1h0.3l0.2,0.1l0.3,0.1l0.2,0.1l0.2,0.1
		l0.1,0.3l0.2,0.1l0.4,0.1l0.1,0.3l0,0.3l0,0.2l0.1,0.3v0.3v0.3l-0.1,0.3l0,0.3v0.3l0,0.3l0.1,0.2l0.1,0.2l0,0.3l0,0.2l0.1,0.3
		l0.1,0.2l0.2,0.2l0.3,0.1l0.2,0.1l0.3,0.1l0.2,0l0.2-0.2l0.1-0.2l0-0.3l0.1-0.3l0.1-0.2l0.2-0.2l-0.1-0.3l-0.3,0l-0.2-0.1l-0.2-0.2
		l-0.1-0.4l0.1-0.2l0.1-0.2l0.1-0.3l0-0.3l0.2-0.2l0.2-0.1l0.1-0.2l0-0.3v-0.2l-0.1-0.3l-0.1-0.2l-0.2-0.2l-0.1-0.3l-0.1-0.2l0-0.4
		l-0.2-0.2l-0.2-0.1l-0.2-0.2l-0.2-0.2l-0.2-0.2l-0.2-0.2l-0.2-0.2l-0.2-0.2l-0.2-0.2l0-0.2v-0.3l0.2-0.2l0.2-0.2l0.1-0.2l0.2-0.2
		h0.3l0.2,0.1l0.3,0l0.2-0.1l0.1-0.2l0-0.3l0-0.3l0.1-0.2l0.2-0.1l0.2-0.1l0.3-0.1l0.2-0.1l0.2-0.2l0.2-0.2l0.2-0.2l0.2-0.1l0.2-0.2
		l0.1-0.3l0.2-0.1h0.3l0.3,0l0,0.2l0.1,0.3l0.2,0.1l0.2,0.2l0,0.2l0,0.3v0.3l0.1,0.3l0.2,0.2l0.1,0.2l0,0.3l0,0.3l0,0.3l0.1,0.2
		l0.2,0.1l0.2,0.1l0.2,0.1l0.1,0.3l0.2,0.2l0.1,0.2l0,0.3l0,0.3l0.1,0.2l0.2,0.2l0.2,0.1l0.1,0.2l0.2,0.3l0.2,0.2l0.2,0.1l0.2,0.1
		l0.2,0.1l0.2,0.2l0.1,0.2l0.1,0.2l0.2,0.2l0.2,0.2l0.2,0.2l0.3,0.1l0.3,0l0.3,0l0.2-0.1l0.3,0l0.3,0l0.2,0.3l0.2,0.2l0.2,0.2
		l0.2-0.1l0.1-0.3l0.2-0.1l0.3,0.1l0.1,0.2l0,0.3l0.3,0.3l0.2,0.2l0.2,0.1l0.2,0.1l0.2,0.2l0.2,0.1h0.3h0.3l0.3,0.2l0.2,0l0.2-0.2
		l0.1-0.2l0.1-0.3l0.1-0.2l0.2-0.2l0.2-0.2l0.1-0.3l-0.1-0.2l-0.2-0.2l-0.2-0.2l-0.2-0.2l0-0.2l0-0.3v-0.3l-0.1-0.3l-0.1-0.2
		l-0.2-0.2l-0.1-0.2l-0.1-0.3v-0.3v-0.3l0-0.3l0.1-0.2l0.2-0.1l0.3-0.1l0.2-0.1l0.1-0.3l0.1-0.2v-0.3l-0.2-0.2l-0.2-0.2l-0.1-0.2
		l0-0.3l-0.1-0.3l-0.3-0.1l-0.2-0.1l-0.1-0.3l0-0.3l0.1-0.3l0-0.2l0.1-0.4l0.1-0.2l-0.1-0.2l-0.1-0.3l0.2-0.1h0.3l0.3,0l0.2,0.1
		l0.2,0.1l0.3,0.1l0.2,0.1l0.3,0.1l0.2,0.1l0.2,0.2l0.1,0.2l0,0.3l0.1,0.3h0.2l0.1-0.2l0.1-0.2l0.2-0.2l0.2-0.2l0.2-0.1l0.3,0
		l0.2,0.2l0.2,0.2l0.2,0.2l0,0.2l0.1,0.2l0.1,0.3l0.2,0l0.1-0.2l0.1-0.3v-0.3l0-0.3v-0.3l-0.1-0.2l-0.2-0.2l-0.1-0.2l0-0.3l0.2-0.2
		l0.2-0.1l0.3,0.1l0.4,0.1l0.2-0.1l0.2-0.2h0.3l0.2,0.2l0.2,0.1l0.3,0l0.3,0.2l0.2,0.1l0.2,0.1l0.2,0.1l0.3,0.1h0.3l0.3,0l0.3,0
		l0.3,0.1l0.3,0.1l0.2,0.1l0.2,0.2l0.2,0.1l0.1-0.2l0.1-0.2l0.2-0.2l0.2,0l0.2,0.2l0.3,0l0.2-0.1l0.1-0.3l-0.1-0.2l-0.2-0.2
		l-0.2-0.2l-0.1-0.2l0-0.3l0.2-0.1h0.3l0.2,0.2l0.2,0.2l0.2,0.2l0.2,0.2l0.2,0.1l0.2,0.1h0.2l0.3,0l0.1-0.2l0-0.3l0.1-0.3l0-0.3
		l0-0.3l0-0.3l0-0.2l-0.1-0.3l-0.2-0.2l-0.1-0.2v-0.3l0-0.3l0-0.3l0.1-0.2l0.1-0.2l0-0.3l0.1-0.3l0-0.3l0-0.3l0.1-0.2l0.1-0.2
		l0.1-0.3l0.1-0.2l0.2-0.2l0.2-0.1h0.3l0.2,0.1l0.1,0.3l0.1,0.2l0.2,0.2l0.3,0.1l0.3,0l0.2,0l0.3-0.1l0.2,0l0.2-0.2l0.1-0.2v-0.3
		l-0.1-0.3l-0.2-0.1l-0.3-0.1l-0.3,0l-0.2-0.1l-0.2-0.2l0.1-0.3l0.3,0l0.3,0.1l0.2,0.1l0.3,0.1l0.2-0.1l0.1-0.3l0-0.2v-0.3l0-0.3
		l0-0.3l0-0.3l-0.1-0.2l-0.1-0.3l-0.2-0.2l-0.2-0.1l-0.3,0l-0.3-0.1l-0.2-0.2l0-0.2V252l0.1-0.2l0.2-0.2l0.2-0.1l0.3-0.1l0.2-0.1
		l0.1-0.2l0-0.3l-0.1-0.2l-0.1-0.3l0.2-0.2l0.2,0l0.2,0.2l0.2,0.2l0.2,0.1l0.3,0.1l0.3,0l0.3,0.1l0.2,0l0.3,0l0.3,0l0.3,0.1l0.3,0.1
		l0.2,0.1l0.2,0.1l0.3,0.1l0.3,0.1h0.3l0.3,0.1h0.3l0.3,0h0.3h0.3h0.3h0.3h0.3l0.3-0.1h0.3l0.2-0.1l0.2-0.1l0.2-0.2l0.2-0.2l0.2,0.1
		l0.3,0.1l0.2,0.1l0.3,0.1l0.2,0.1l0.3,0.1l0.2,0.1l0.3,0l0.2,0.1l0.2,0.1l0.2,0.2l0.3,0.1l0.2,0.1l0.2,0.1l0.2,0.1l0.2,0.1l0.3,0.1
		l0.3,0.1l0.2,0l0.3,0.1l0.2,0.1l0.2,0.1l0.2,0.1l0.3,0.1l0.2,0.1l0.2,0.2l0.2,0.1l0.3,0.1l0.2,0.2l0.2,0.1l0.2,0.2l0.2,0.2l0.1,0.2
		l0.2,0.2l0.2,0.2l0.2,0.2l0.2,0.1l0.3,0.1l0.2,0.1l0.3,0.1l0.3,0l0.2,0.1l0.2,0.2l0.2,0.2l0.2,0.2l0.3,0.1l0,0.1l0.2,0.1l0.2,0.2
		l0,0.2l-0.1,0.3l0,0.3l0,0.2l0,0.3l-0.1,0.3l0,0.3v0.3v0.3v0.3v0.3l0,0.5l0.3,0.3l0.2,0.2l0.2,0.2l0.2,0.2l0,0.2l0,0.3l0,0.3l0,0.2
		l0.1,0.3l0.1,0.2l0.1,0.2l0.1,0.3l0.1,0.2l0.1,0.3l0,0.2l0.2,0.2l0.2,0.2l0.2,0.2l0.2,0.1l0.2,0.2l0.1,0.2l0.2,0.2l0.2,0.2l0.1,0.3
		l0.1,0.2l0.2,0.2l0.1,0.2l0.2,0.2l0.1,0.2l0,0.3l0.1,0.3v0.3v0.3l0,0.3l-0.1,0.3l0,0.3l0.1,0.2l0,0.3l-0.2,0.2l-0.2,0.1v0.3l0,0.3
		l0,0.2v0.3v0.3v0.3v0.3l0,0.3l0,0.2l0.1,0.3l0.2,0.2l0.1,0.2l0.1,0.3l0.2,0.2l0.2,0.1l0.2,0.1l0.2,0.2l0.1,0.2l0.1,0.2l0.1,0.3
		l0.1,0.2l0.1,0.3l0.1,0.2l0.3,0l0.1,0.2l0.1,0.3l0.1,0.2l0,0.3l-0.1,0.2l0,0.3l0,0.3l0,0.3l0.1,0.3l0.1,0.2l0.2,0.1l0.2,0.2
		l0.2,0.2l0.1,0.2l0.2,0.2l0.2,0.2l0.1,0.2l0.1,0.2l0.1,0.2l0.2,0.2l0.2,0.1l0.2,0.2l0.1,0.2l0.1,0.2l0.1,0.2l0.1,0.2l0.1,0.2
		l0.1,0.2l0.2,0.2l0.2,0.2l0.2,0.2l0.2,0.2l0.2,0.1l0.2,0.1l0.2,0.1l0.2,0.1l0.2,0.2l0.1,0.2l0.1,0.2l0.1,0.2l0.1,0.3l0.1,0.2
		l0.1,0.2l0.1,0.3l0.2,0.3l0,0.3l0.1,0.2l0,0.3l-0.1,0.3l-0.2,0.2l-0.2,0.1l-0.2,0.1l-0.3,0.1l-0.2,0.1l-0.2,0.2l-0.1,0.2l-0.1,0.2
		l-0.1,0.2l-0.1,0.2l-0.2,0.2l-0.2,0.2l-0.1,0.2l-0.1,0.2l-0.2,0l-0.2-0.2l-0.2-0.2l-0.2-0.2l-0.2-0.2l-0.2-0.2l-0.1-0.3l-0.1-0.2
		l-0.2-0.2l-0.1-0.2l-0.1-0.2l-0.2-0.2l-0.2-0.1l-0.2-0.1h-0.3h-0.2l-0.2,0.2l-0.2,0.2l-0.1,0.2l-0.1,0.2l-0.1,0.3l0,0.2l-0.1,0.2
		l-0.1,0.2l-0.1,0.3l0,0.3l0.1,0.3l0,0.2l0,0.3l0,0.3v0.3v0.3l0.2,0.2l0.2,0.2l0.2,0.2l0.2,0.1l0.2,0.2l0.2,0.2l0.2,0.2l0.1,0.2
		l0.1,0.3l0.1,0.2l0,0.3l0,0.2v0.3v0.3l0,0.3l0.1,0.3l0.2,0.2l0.2,0.2l0.1,0.2l0.2,0.2l0.2,0.2l0.2,0.1l0.2,0.2l0.2,0.1l0.2,0.2
		l0.1,0.3l0.1,0.2l0,0.3l0.1,0.2v0.3l0,0.3l-0.1,0.2l-0.1,0.2l-0.2,0.2l-0.2,0.2l-0.2,0.2l-0.1,0.2v0.3l0.1,0.2l0.2,0.2l0.2,0.2
		l0.2,0.1l0.2,0.1l0.2,0.1l0.2,0.2l0.1,0.2l0.1,0.2l0.1,0.3l0,0.2l0.1,0.2l0.2,0.2l0.2,0.2l0.2,0.2l0.2,0.2l0.2,0.1l0.2,0.1l0.2,0.1
		l0.2,0.1l0.2,0.2l0.1,0.3v0.3l0,0.3l-0.1,0.2l-0.1,0.2l-0.2,0.1l-0.2,0H477l-0.3,0l-0.2,0.2l-0.1,0.3l-0.1,0.2v0.3l0,0.3l0.1,0.3
		l0,0.2l0,0.3l0,0.3v0.3l0,0.3v0.2l0,0.3v0.3v0.3l-0.1,0.3v0.3v0.3v0.3v0.3l0,0.3v0.3l0,0.3l0,0.3l0,0.2v0.3v0.3v0.3v0.2v0.3l0,0.3
		v0.3l0,0.3v0.3l0.1,0.4l-0.1,0.2l0,0.3v0.3v0.3v0.3v0.3l0,0.3l0,0.3l0,0.2l0,0.3l-0.1,0.3l-0.1,0.2l-0.1,0.2l-0.1,0.3l0.1,0.2
		l0,0.3l0.1,0.3l0,0.2l0.1,0.3l0,0.2l-0.1,0.3l0,0.2l0.2,0.2l0.2,0.2l0.2,0.2l0.1,0.2v0.3l0,0.3v0.3l0.1,0.3l0.1,0.2l0.1,0.2
		l0.1,0.2l0.1,0.3l0,0.3l-0.1,0.2l0,0.3l0,0.2v0.3l0,0.3v0.3v0.3l-0.2,0.1l-0.1,0.2l0,0.3l0,0.2l0,0.3l0,0.3l0,0.3v0.3l0,0.3
		l-0.1,0.3l0,0.3l-0.1,0.2l-0.1,0.2l-0.1,0.2l-0.2,0.2l-0.1,0.2l-0.1,0.2l-0.1,0.3l-0.1,0.2l-0.1,0.2l-0.1,0.2l-0.1,0.3l-0.1,0.2
		v0.3v0.3l0,0.3v0.3v0.3l0,0.3l0,0.3l0,0.2l0,0.3l0,0.3l0,0.3l0,0.3v0.3v0.3v0.3l0,0.3l0.1,0.2l0.1,0.3l0,0.2l0.1,0.3l0.1,0.2
		l0.1,0.2l0.1,0.2l0.1,0.2l0,0.3v0.3v0.3l0,0.3l-0.1,0.2l0,0.3l-0.1,0.2l0,0.3v0.3v0.2v0.3l0,0.3v0.3v0.3v0.3v0.3v0.3l0,0.3v0.2
		l0,0.3l0,0.3l0,0.3l0,0.2l0,0.3l0,0.3l0,0.3v0.3l-0.1,0.3v0.3l0,0.3l0,0.2l0.1,0.3l0.1,0.2l0,0.3l0.1,0.3l0,0.2l0,0.2l-0.2,0.1
		l-0.3,0.1l-0.2,0.2l-0.3,0h-0.3l-0.2,0l-0.2,0.1l-0.2,0.2l-0.2,0l-0.3-0.1l-0.2-0.2l-0.2-0.1h-0.3l-0.2,0.2l-0.1,0.2l-0.1,0.2
		l-0.1,0.2l-0.1,0.2l0,0.3l0,0.3l0.1,0.2l0.1,0.2l0.1,0.2l0.1,0.2l0.1,0.3l0.1,0.2l0.1,0.2l0.1,0.3v0.3v0.3l0,0.3l0,0.3l-0.2,0.2
		l-0.2,0.2l-0.2,0.2l-0.2,0.1l-0.2,0.1l-0.2,0.2l-0.2,0.2l-0.2,0.1l-0.2,0.1l-0.2,0.1l-0.1,0.2l0,0.3l-0.1,0.3l0,0.3l0,0.3l-0.1,0.3
		v0.2l0,0.3l0.1,0.2l0.2,0.2l0.2,0.1l0.2,0l0.2,0.2l0.1,0.3v0.3l0,0.3l-0.2,0.2l-0.3,0l-0.3,0l-0.2,0.1l-0.2,0.2l-0.1,0.2l-0.2,0.2
		l-0.3,0l-0.2-0.1l-0.3-0.3l-0.3,0l-0.3,0l-0.3,0l-0.2-0.2l-0.1-0.2l0-0.3v-0.3l0-0.3l0-0.3l0-0.3v-0.3l0-0.2l-0.1-0.3l0-0.3l0-0.2
		l0-0.3v-0.3l0.1-0.3l0-0.2l-0.1-0.3l-0.1-0.2l-0.1-0.2l-0.2-0.2l-0.2-0.2l-0.2-0.2l-0.2-0.1l-0.2,0.1l-0.2,0.2l-0.2,0.2l-0.2,0.2
		l-0.2,0.1l-0.3,0.1l-0.2,0l-0.3,0l-0.3-0.1l-0.2-0.1l-0.3,0l-0.1,0.2l-0.1,0.3v0.3v0.3v0.3v0.3l-0.1,0.3v0.3v0.3v0.3v0.3v0.3l0,0.3
		l0,0.3l0,0.3v0.3l0,0.2l0,0.3l0,0.3l0,0.2l0.1,0.3l0,0.3l0,0.2v0.3l-0.1,0.3l-0.1,0.3l-0.2,0.2l-0.2,0.1l-0.3,0.1l-0.2,0.2
		l-0.2,0.1l-0.2,0l-0.3,0h-0.4l0,0.3l0,0.3l0.1,0.2l0,0.3l0,0.2l0,0.3l0.1,0.3l0,0.2l0,0.3l0,0.3l0,0.2v0.3l0,0.3v0.3v0.3l-0.1,0.3
		l-0.1,0.2l-0.2,0.2l0,0.3l0,0.3l0.1,0.2l0.1,0.2l0.1,0.3l0,0.2l0,0.2l0.1,0.2l0.2,0.2l0.2,0.1l0.3,0.1l0.2,0.1l0.2,0.2l0.1,0.2
		l0.1,0.3l0.1,0.2l0.1,0.3l0,0.2l0.1,0.3l0.1,0.2l0.1,0.2l0,0.3l0.1,0.2l0.1,0.2l0,0.2l-0.2,0.2l-0.3,0l-0.2,0.1l-0.1,0.2l-0.1,0.2
		l-0.1,0.3v0.3v0.3l0,0.3l0,0.3l0,0.3l-0.1,0.2l-0.1,0.2l-0.2,0.2l-0.2-0.1h-0.3l-0.3,0l-0.2,0.2l-0.1,0.2l-0.1,0.2l-0.1,0.2
		l-0.2,0.2l-0.2,0.2h-0.2l-0.3,0l-0.3,0l-0.2-0.1l-0.2-0.2l-0.2-0.2l-0.2-0.1l-0.3,0l-0.2,0.1l-0.3,0.1l-0.2,0.1l-0.2,0.2l-0.1,0.2
		l-0.3,0.1h-0.3l-0.2,0l-0.3,0l-0.3,0.1l-0.2,0.2l-0.1,0.2l-0.2,0.2l-0.2,0.1l-0.3,0h-0.2h-0.3l-0.2-0.2v-0.3l0-0.3l0-0.3l0-0.3
		l0-0.3v-0.3l-0.1-0.2l-0.1-0.2l0-0.3l0.1-0.3l0.1-0.2v-0.3V373l0-0.3l0-0.2l0-0.3l0-0.3l-0.1-0.2l-0.2-0.2l-0.2-0.2l-0.2-0.2
		l-0.1-0.2l0-0.3l0-0.3l0-0.2l0-0.3l-0.1-0.2l-0.1-0.3l-0.1-0.2l0-0.3l-0.1-0.2l-0.3,0l-0.2,0.1l-0.2,0.2h-0.3l-0.2,0.1l-0.2,0.2
		l-0.2,0.2l-0.2,0.1l-0.3-0.1l-0.1,0.2l0,0.3v0.3l0.1,0.2l0.2,0.2l0.2,0.2v0.3v0.3l0.1,0.2l0.2,0.2l0.1,0.3l0,0.2l0,0.3l-0.2,0.2
		l-0.2,0.2l-0.2,0.1l-0.2,0.1H452h-0.3l-0.2-0.1l-0.3-0.1l-0.2,0.1l-0.2,0.2l-0.1,0.3l0,0.3l0.1,0.2l0,0.3l-0.2,0.2l-1.8-0.5
		l-0.1-0.1l0-0.2l0-0.1l0-0.2l-0.2-0.2l-0.4,0l-0.1,0l-0.2,0.1l-0.2,0l-0.2-0.1l-0.1-0.1l-0.2-0.2l0-0.3l0.1-0.3l0.1-0.2l0.1-0.2
		v-0.2v-0.2l-0.1-0.2l-0.1-0.2h-0.4l-0.2,0l-0.2-0.1l-0.2,0l-0.2,0l-0.2,0l-0.1-0.1l-0.1-0.1l0-0.2l0.1-0.2l-0.1-0.1l-0.3-0.2
		l-0.1-0.2l-0.1-0.2v-0.4l-0.2-0.2l-0.1-0.1l-0.2,0h-0.4h-0.2l-0.1,0.1l-0.1,0l-0.2,0.1L443,369l0,0.3l-0.1,0.1l-0.4,0l-0.2-0.1
		l-0.4-0.1l-0.1-0.3l0-0.1v-0.2v-0.2l0-0.2l-0.2-0.2l-0.2-0.1l-0.2-0.1l-0.1-0.1l-0.2-0.3l0-0.2v-0.2v-0.2l0-0.2v-0.1l0-0.3l0.1-0.9
		l0-0.2l0-0.2l0-0.2l-0.1-0.1l-0.4-0.5l-0.1-0.1l-0.2-0.1l-0.1-0.2l0-0.2l0-0.1l-0.2-0.2l-0.4-0.4l-0.3,0l-0.4,0.1l-0.1,0l-0.2,0.1
		l-0.2,0.1l-0.1,0h-0.2l-0.2-0.3l-0.1-0.2l-0.3-0.3l-0.2,0l-0.2,0.2l-0.1,0.2l-0.1,0.1l-0.3,0.1l-0.1,0.2l-0.2,0.1l-0.2,0l-0.2,0.3
		v0.4l0,0.1v0.2l-0.1,0.5l-0.1,0.2l0,0.4l0,0.2l-0.1,0.2l-0.1,0.2l-0.1,0.1l-0.1,0.1l-0.2,0.1h-0.2l-0.1,0.1l0,0.2v0.5l0.1,0.1
		l0,0.2l0,0.2l0.4,0.5l0.2,0.3l0.1,0.2l0,0.2v0.2l-0.1,0l-0.2,0l-0.3,0l-0.1-0.1l-0.2,0l-0.3,0l-0.1,0.1l-0.1,0.1v0.2l0.1,0.1v0.2
		l-0.2,0.1l-0.2-0.1l-0.2,0l-0.1-0.1l-0.2-0.4l-0.1-0.1h-0.2l-0.1,0l-0.2,0.3l-0.1,0.2l0,0.3l0,0.1l0,0.2l-0.1,0.1l-0.3,0.1
		l-0.1,0.1h-0.2l-0.5,0h-0.2l0,0h0l-0.2-0.2l-0.2-0.2l-0.1-0.1l-0.1,0l-0.2,0l-0.1-0.2v-0.2l-0.3-0.2l-0.2-0.2l-0.4-0.1h-0.3h-0.3
		l-0.2-0.2l-0.1-0.4l-0.1-0.1h-0.2l-0.3,0h-0.2l-0.2-0.1l-0.1,0l-0.1,0l-0.1-0.1l-0.1-0.3l-0.1-0.4l-0.1-0.2l-0.3-0.3l-0.2-0.2
		l-0.1-0.1l-0.1-0.1l-0.2,0l-0.2-0.1l-0.1-0.1l-0.1-0.1l-0.3,0.1l-0.4,0.1h-0.1h-0.2l-0.2,0.1l-0.1,0.1l-0.2,0.3l-0.2,0.2l-0.1,0.1
		l-0.5,0.1l-0.2,0l-0.2-0.2l-0.2,0l-0.1,0l-0.3-0.3l-0.2-0.2l-0.2-0.1l-0.4-0.1l-0.1-0.2v-0.2v-0.1l-0.2-0.3l-0.1-0.2l-0.1-0.2
		l-0.1,0l-0.4,0l-0.3,0l-0.2,0l-0.3,0.2l-0.6,0l-0.4,0l-0.4-0.1h-0.4l-0.2-0.1l0-0.2l0-0.2l-0.1-0.5l-0.1-0.3l-0.1-0.2l-0.2-0.2
		l-0.1-0.1l-0.4-0.1l-0.3-0.2l-0.4-0.4l-0.1-0.1l-0.1-0.2l-0.2-0.3l-0.1,0h-0.5l-0.5,0l-0.5-0.1l-0.5,0l-0.5,0.2l-0.2,0.3l-0.5,0.1
		l-0.4,0.3l-0.2,0.1l-0.1-0.1l-0.2-0.1l-0.4-0.1h-0.3l-0.3,0.1l-0.1,0.1l-0.2,0.2l-0.2,0.2l-0.2,0.2l0,0.1l0,0.1l0,0.2l-0.1,0.3
		l-0.1,0.3l-0.3,0.1l-0.3,0l-0.1-0.5l-0.3-0.1l0-0.6l-0.1-0.2h-0.2l-0.8,0l-0.3,0l-0.1-0.1l-0.1-0.3l-0.1-0.2l-0.1,0l-0.3-0.1h-0.3
		l-0.2-0.1l-0.1-0.1l0-0.1l0.2-0.2l0.3-0.1l0.3-0.2l0.3-0.1l0.4-0.2l0.3-0.2l0.2-0.2l0.7-0.2l0.2-0.2v-0.3l-0.1-0.2l-0.1-0.2
		l-0.2-0.1l-0.2-0.2l-0.3-0.2L406,359l0-0.1l0.2-0.1l0.3-0.3l0.3-0.2l0.4,0l0.4,0l0.2,0l0.2,0l0.1,0l0-0.2v-0.2l-0.1-0.4l0-0.1
		l0.2,0l0.1,0.2l0.2,0.1l0.1,0l0.2-0.2l0.1-0.1l0.2-0.1l0.4-0.2l0.4-0.2l0.3-0.2l0.3-0.1l0-0.2l-0.1-0.2l0-0.3l0-0.2l-0.1-0.2l0-0.2
		l-0.1-0.2l0-0.1l0.3,0h0.1l0.2-0.1l0.3-0.2l0.4-0.2l0.2,0l0.7,0.1l0.3,0l0.4-0.1l0.4-0.5l0.3-0.4l0.1-0.2l0-0.1l0.1-0.4l-0.1-0.4
		l0-0.2l-0.1-0.2l-0.2-0.3l-0.2-0.2l-0.2-0.3l-0.2-0.4l-0.1-0.2l0-0.2l-0.1-0.2l-0.1-0.3l-0.2-0.3l0-0.4l0-0.3l0.1-0.3l0-0.3
		l-0.1-0.2l-0.1-0.3v-0.2v-0.3l0-0.1h-0.1l-0.3,0.1h-0.2l-0.1-0.1l0-0.2l0-0.2l0-0.4l0.2-0.3l0.1-0.1l0.1-0.2l0.2-0.3l0.2-0.3
		l0.2-0.3l0.4-0.7h-0.1l-0.3,0.1l-0.2,0l-0.2,0.1l-0.4,0.1l-0.3,0.1l-0.2,0.2l-0.2,0l-0.4,0.1l-0.4,0h-0.4h-0.4l-0.5-0.1h-0.3h-0.3
		l-0.2,0.2l-0.5,0.3l-0.3,0.2l-0.2,0.1l-0.2,0l-0.2,0.2l-0.1,0.2l-0.4,0.3l-0.2,0.1l-0.1,0.2l-0.3,0.4l-0.5,0.3l-0.3,0.1l-0.3,0.1
		l-0.5,0.1l-0.3,0.2l-0.2-0.1v-0.2v-0.2l-0.2-0.2l-0.2-0.3l0.2-0.1l0.1-0.1l0-0.2l0.2-0.1l0.5-0.2l0.1-0.3l0-0.3l-0.1-0.3l-0.1-0.1
		l-0.1-0.3l0-0.2l0-0.5l-0.2-0.5l-0.3-0.4l-0.5-0.5l0.3,0l0.8,0h0.4l0.4-0.1l0.4-0.3l0.1-0.2l0.1-0.2l0.2-0.3l0-0.1l0.3-0.2l0.2,0
		h0.3l0.2-0.1l0.1-0.1l0.2,0l0.1,0h0.5l0.4-0.1l0.6,0h0.3l0.4-0.3l0.1-0.5l0.1-0.2l0.1-0.3l0.3-0.2l0.2-0.2l0.2-0.3l0-0.3l-0.1-0.2
		l-0.1-0.4L410,338l-0.1-0.1h-0.2l-0.1,0.1l-0.2,0.2l-0.2,0.1l-0.6,0l-0.2,0l-0.5,0.6h-0.3l-0.4-0.1l-0.4,0l-0.2-0.1l-0.2-0.2
		l-0.1-0.5l-0.4-0.5l-0.1-0.5l-0.3-0.4l-0.1-0.1l0.1-0.9l0-0.1l-0.1-0.3l-0.1-0.3l-0.2-0.4l-0.1-0.2l-0.1-0.5l-0.2-0.3l-0.3-0.3
		l-0.2-0.3l-0.2-0.5l-0.2-0.3l-0.1-0.2l-0.2,0l-0.3,0l-0.3,0.1l-0.3,0.2l-0.3,0.2l-0.3,0.2l-0.3,0.3l-0.3,0.2h-0.2l-0.1,0.1
		l-0.3,0.1l-0.3,0.3l-0.3,0.1l-0.5-0.1l-0.6-0.2l-0.5-0.2l-0.2,0l-0.1,0.2l-0.5,0.5l-0.3,0.2l-0.2,0.1l-0.3-0.1l-0.2,0l-0.5,0.3
		l-0.2,0l-0.1,0l-0.1-0.3l0-0.3h-0.1l-0.1,0.1l-0.2,0.2l-0.5,0.4l-0.1,0.4l-0.5,0.3l-0.3,0.1l-0.2-0.1l-0.1,0l-0.1,0.2l-0.2,0.2
		l-0.2,0.2l-0.3,0.1l-0.4,0.1l-0.2,0.1l-0.3,0.1l-0.1,0.2h-0.2l-0.2-0.2L391,336h-0.1l-0.2,0.2l-0.2,0.3l-0.1,0.4l0,0.3h-0.1l-0.5,0
		l-0.4,0l-0.2,0l0,0.1l0.1,0.3v0.5v0.4l0,0.2v0.2l0,0.1l0,0.5l-0.2-0.1l-0.2-0.1l-0.3-0.2l-0.2-0.1l-0.2,0l-0.1,0.5l-0.1,0.4
		l-0.1,0.5l-0.1,0.4l-0.1,0.1l-0.2,0.1l-0.1,0.1l-0.2,0.1l-0.2,0.3l-0.1,0.1l-0.2,0l-0.2-0.1l-0.2-0.1l-0.2,0l-0.1,0.1l-0.2,0.1
		l-0.2-0.1l-0.4-0.1l-0.3-0.1l-0.7-0.2l-0.3-0.2l-0.3-0.1l-0.2-0.1l-0.1-0.1h-0.1l-0.3,0l-0.2,0l-0.1,0h-0.1l-0.2-0.2l-0.1-0.2v-0.2
		l0.1-0.3l0-0.2l0.1-0.5l-0.3,0h-0.6l-0.5,0l-0.5-0.1l-0.5-0.2l-0.2-0.1l-0.6-0.1l-0.2-0.2l-0.1-0.2l-0.1-0.3l-0.1-0.1l-0.5-0.1
		l-0.3-0.1l-0.3-0.1l-0.4-0.1l-0.2-0.1l-0.2-0.1l-0.2-0.2l-0.1-0.1l-0.1-0.1l-0.3,0l0.1,0.2l0.3,0.3l0.1,0.2l0.1,0.3l0.1,0.3
		l-0.1,0.1l-0.3-0.1l-0.1-0.1l-0.2-0.2l-0.2-0.2l-0.1-0.1l-0.2-0.2l-0.1-0.1l-0.2,0l-0.5-0.1l-0.3-0.1h-0.2l-0.3-0.1l-0.3-0.3
		l-0.2-0.2l-0.2-0.1l-0.5,0H372l-0.4,0.1l-0.3,0.1L371,336h-0.3l-0.1-0.1l0-0.3l0.1-0.4l0.1-0.4v-0.2l-0.1-0.2l-0.2-0.2l-0.1-0.2
		l-0.2-0.4l-0.4-0.5l-0.2-0.5l-0.5-0.7l-0.1-0.1l-0.2-0.2l-0.3-0.3l-0.1-0.1l-0.3-0.1l-0.5-0.5l-0.3-0.1l-0.1,0v0.3l-0.1,0.4
		l-0.1,0.3l-0.3,0.3l-0.1,0.1l-0.3,0.1l-0.1,0.1l-0.1,0.1l-0.1,0l-0.1,0.1l0,0.3l-0.1,0.4l-0.1,0.2l-0.3,0.3l-0.3,0.1l-0.3,0h-0.5
		l-0.5,0l-0.4-0.1l-0.3-0.1l-0.3-0.1l-0.3-0.1l-0.2-0.1l-0.1,0.1l-0.4,0.3l-0.4,0.1l-0.6,0.2l-0.1,0.1l-0.1,0.2l-0.1,0.5l-0.1,0.2
		l-0.2,0.1l-0.2,0l-0.5,0l-0.3,0l-0.3-0.1h-0.2h-0.1l-0.1,0l-0.3,0.3l-0.3,0.2l-0.3,0.2l-0.3,0.2l-0.2,0.2l-0.1,0.1l-0.2,0.1
		l-0.3,0.1l-0.3,0.4l-0.2,0.2l-0.2,0.3l-0.2,0.3l-0.2,0.3l-0.1,0.2l-0.1,0.4l0,0.1v0.3l-0.2,0.3l-0.3,0.2l-0.1,0.4l0,0.1l-0.5,0.4
		l-0.4,0.2l-0.7,0.3l-0.4,0.2l-0.4,0.2l-0.2,0.2l-0.4,0.3l-0.3,0.4l-0.1,0.2H350l-0.3,0.1l-0.2,0.1v0.3v0.3l-0.4,0.3l0,0.2l0.3,0.4
		l0.1,0.1l0,0.3l-0.1,0.1l-0.2,0.1l-0.3,0.1l-0.3,0.2l-0.1,0.2l0,0.5l-0.1,0.1l-0.1,0.1l-0.1,0.2l-0.4,0.4l-0.3,0.3l-0.3,0.1h-0.1
		l-0.4-0.2l-0.9-0.9l-0.1-0.1l-0.2,0l-0.1,0l-0.2,0l-0.5,0.2l-0.6,0.3l-0.3,0.2l-0.3,0l-0.3-0.2l-0.3-0.3l-0.4-0.2h-0.1l-0.3,0.1
		l-0.4,0l-0.4,0l-0.4,0.2l-0.4,0.1l-0.4,0l-0.5,0H339l-1.1-0.3l-0.7,0l-0.2-0.1l-0.1-0.1v-0.2l-0.2-0.2l-0.2-0.1l-0.1-0.1h-0.1
		l-0.2,0l-0.1,0.1l-0.1,0.4l-0.1,0.2h-0.2l-0.1-0.1l-0.1-0.4l-0.2-0.2l-0.1,0l-0.1,0.1l-0.2,0.2l-0.5,0.2h-0.5l-0.5,0.1l-0.2,0
		l-0.3,0l-0.2-0.1h-0.1l-0.1,0.1l-0.1,0.3l0,0.2l-0.1,0.2h-0.2l-0.2,0l-0.1,0l-0.2,0l-0.1,0.2l0.1,0.5v0.3l-0.2,0.2l-0.3,0.4
		l-0.3,0.6l-0.1,0.2l-0.1,0.2l-0.2,0.1l-0.2,0.1l-0.3,0.1l-0.5,0.2l-0.1,0.1l-0.2,0.2l-0.3,0.3l-0.2,0.1l-0.2,0.1l-0.3,0.1l-0.2,0.1
		l-0.1,0.2l0.2,0.2l0.4,0.2l0.2,0.2l0.2,0.2l0.1,0.2l-0.4,0.6l-0.1,0.4v0.6l-0.1,0.2l0,0l-0.3,0.2l-0.4,0.1h-0.4l-0.6-0.1l-0.5-0.3
		l-0.2,0l-0.1,0l-0.4,0.3l-0.5,0.2h-0.2l-0.4-0.2l-0.3,0l-0.4,0l-0.4-0.1h-0.2l-0.1,0.1l0,0.4l0.1,0.6v0.1l-0.4,0.2l-0.3,0.3
		l-0.3,0.2h-0.1l-0.1-0.1v-0.2v-0.3l-0.3-0.3l-0.2-0.1l-0.2,0l-0.4,0.2l-0.5,0.1l-0.3,0.2l-0.3,0.5l-0.3,0.2l-1.3,0.5l-0.2,0
		l-0.3,0.2l-0.2-0.1l0-0.3l0.1-0.4l0-0.1l-0.2-0.1l-0.2,0l-0.5,0.5l-0.7,0.4l-0.6,0.4l-0.5,0.1l-0.4,0.2l-0.3,0.1l-0.2,0.1l-0.2,0.2
		l-0.3,0.5l-0.2,0.5l-0.2,0.3v0.1l0.5,0.2l0.3,0.4l0.3,0.5l0.2,0.5l0.1,0.5l0.1,0.2l0.1,0.2l-0.2,0.3L314,362l-0.5,0.6l-0.4,0.4
		l-0.5,0.3l-0.4,0.3l-0.1,0.2l-0.5,0.1l-0.5,0l-0.3,0l-0.4,0.1l-0.6,0.5l-0.3,0.4l-0.3,0.4l-0.1,0.1l-0.2,0.1l-0.3,0l-0.2-0.2
		l-0.1-0.2L308,365l-0.3-0.1l-0.2,0.1l-0.3,0.2l-0.2,0.2l-0.3,0.1l-0.2,0.2l-0.1,0.1l-0.3,0l-0.4-0.4l-0.3-0.4h-0.2l-0.2,0l-0.4,0
		l-0.2,0.6h-0.1h-0.1l-0.1,0l-0.4,0l-0.6,0.1l-0.3,0.1l-0.2-0.1l-0.5-0.9l-0.1-0.5l-0.1-0.5l0-0.3l0-0.1l-0.2-0.2l-0.2,0l-0.3,0
		h-0.6l-0.2,0l-0.3,0.1l-0.5,0.2l-0.4,0.1l-0.5,0.3l-0.5,0.3l-0.6,0.4l-0.4,0.3l-0.5,0.3l-0.4,0.2h-0.2l-0.3,0l-0.6-0.3l-0.3-0.1
		l-0.1,0l-0.3-0.1l-0.1,0.1l-0.2,0.1l-0.2,0.2l-0.1,0h-0.1l-0.2,0.3l-0.2,0.3l-0.3,0.1l-0.4,0.1l-0.1-0.1l-0.1-0.3l-0.1,0l-0.4,0
		h-0.3l0-0.1l0-0.1l0-0.1l-0.2-0.1l0-0.1l0-0.5v-0.2l0-0.1l-0.1-0.2l-0.3-0.2v-0.3v-0.2v-0.3l-0.1-0.1l-0.2,0.2h-0.1L290,363h-0.1
		l-0.3,0.1h-0.2h-0.2l-0.3,0l-0.3-0.1l-0.6-0.3l-0.3-0.1l-0.1-0.1l-0.2-0.2l-0.1-0.2l-0.2-0.5l-0.2-0.4l-0.2,0h-0.2h-0.3l-0.2,0
		l-0.1,0l-0.1-0.1h-0.1l-0.2,0l-0.2-0.2l-0.1-0.1l-0.3,0.1l-0.2-0.2L284.3,360.5L284.3,360.5"/>
</g>
</svg>
