<?xml version="1.0" encoding="utf-8"?>
<!-- Generator: Adobe Illustrator 27.0.0, SVG Export Plug-In . SVG Version: 6.00 Build 0)  -->
<svg version="1.1" id="Layer_1" xmlns="http://www.w3.org/2000/svg" xmlns:xlink="http://www.w3.org/1999/xlink" x="0px" y="0px"
	 viewBox="0 0 500 500" style="enable-background:new 0 0 500 500;" xml:space="preserve">
<style type="text/css">
	
		.st0{fill-rule:evenodd;clip-rule:evenodd;fill:#E74646;stroke:#fff;stroke-width:4.6041;stroke-linecap:square;stroke-linejoin:bevel;stroke-miterlimit:10;}
</style>
<g transform="matrix(0.999751,0,0,0.999751,18.6633,21.7738)">
	<path vector-effect="none" class="st0" d="M363.9,48.2l0.2,0.1l0.7,0.2l0.1,0l0.1,0.2l0,0.4l0,0.2l0.1,0.1l0.1,0.2v0.2l0,0.3v0.2
		l0,0.3l0,0.2l-0.3,0.2l-0.2,0.1v0.3l0,0.1l0,0.2l-0.3,0.1l-0.2,0.2v0.3l0.1,0.1l0.2,0.1l0.3,0.1l0.1,0.3l-0.1,0.3v0.2l0,0.2l0,0.2
		L365,54l-0.2,0.2l-0.1,0.1l-0.1,0.1l-0.1,0.2l-0.3,0.1l-0.3-0.2l-0.2,0l-0.2,0l-0.2,0.1l-0.3,0.1l-0.3-0.1l-0.2,0l-0.2,0.1L362,55
		l-0.1,0.1l-0.3,0.9l0.1,0.1l0.1,0.1l0.2,0.1l0,0.3v0.1l0.3,0.7l-0.1,0.1l-0.2,0l0,0.2l0.1,0.1l0.1,0.1l0,0.2l0.1,0.2l0,0.1l0.1,0
		l0.3-0.1l0.2-0.1l0.2,0.1l0,0.2l-0.1,0.4v0.1v0.2l0.1,0.1l0.1,0.1l0.2,0.2l0.2,0.1l0.1,0l0.1-0.1l0.1-0.1l0.1-0.1l0.4,0.2l0.2,0.3
		l0,0.2l0.1,0.2l0.2,0.2l0.1,0.2l0,0.3l0.1,0.3l0.1,0.2l0.1,0.1l0.2,0l0.3,0.2l-0.1,0.1l-0.1,0.2l-0.2,0.2l-0.1,0.1l-0.2,0.1h-0.2
		l-0.2,0l-0.3,0.1l-0.3,0.2l-0.2,0.2l-0.1,0.3l-0.1,0.3l-0.1,0.1l-0.3,0l-0.2,0.1l-0.1,0l-0.2,0l-0.2,0.1l-0.2,0.3l0,0.2l0.1,0.3
		l0.2,0.1l0.3,0.3l0.1,0.2l0.2,0.2l0.3,0.1l0.2,0.1l0.2,0.1l0.1,0.1l0.1,0l0.3,0.3L365,67l0.3,0.2l0.2,0.2l0.2,0.3l0.2,0.4l0.1,0.1
		l0.2,0.1l0.4,0.1h0.2h0.2l0.2,0l0.3,0.2l0.1,0.1l0.2,0.2l0.1,0.1l0.1,0.1l0.1,0.1l0.2,0.2l0.1,0.1l0.1,0.1l0.2,0.3l-0.1,0.3l0,0.2
		l0,0.3l0.2,0.3l0.1,0.1l0.1,0.1l0.2,0.2l0.1,0.2l0.1,0.2l0.2,0.1l0.3,0.1l0.3,0l0.2,0l0.2,0l0.2,0l0.2,0l0.2,0.2l0,0.2v0.1
		l-0.1,0.3v0.3l0.1,0.2l0.3,0.1l0.3,0.1v0.1l0,0.2l-0.1,0.2l0.1,0.2l0.1,0.1l0.1,0.1l0.1,0.1v0.2l0,0.1l-0.1,0.1l-0.1,0.1l-0.2,0.2
		l-0.3,0.2l-0.1,0.2l0,0.1l-0.1,0.2v0.2l0.1,0.2l0,0.1l0,0.2V77l-0.1,0.3l-0.1,0.3l0.1,0.3l0,0.2l0.2,0.4l0,0.1l0,0.3l0.2,0.4
		l0.3,0.1l0.3,0l0.1,0l0.2,0l0.3,0.5l0.2,0.5l0.2,0.2l0.2,0.1l0.1,0.1l0.1,0.1l0.2,0.2v0.1v0.2l0.1,0.3l0.1,0.1l0.3,0.1l0.2,0h0.2
		h0.2l0.1,0l0.3,0.1l0.3,0.2l0.2,0.3L376,83l0.1,0.2l0.3,0.6l0.2,0.3l0.2,0.3l0,0.2l0,0.2l0,0.2l0,0.2l0,0.2v0.2l0,0.2l0,0.1
		l0.3,0.5l0.1,0.2l0.1,0l0.1,0.1l0.3,0h0.3l0.2,0l0.3,0l0.2,0l0.1,0.1l0.1,0.1l0.1,0.1l0.1,0.1l0.1,0.1l0.3,0.1h0.2h0.2h0.3h0.2h0.1
		l0.2,0l0.1-0.3l0.2-0.2l0.2-0.1l0.3,0l0.6,0.1l0.1,0l0.3-0.1l0.1-0.1l0.1-0.1l0.1-0.1l0.2,0l0.2,0.2l0.4,0.2L384,87l0.3,0.2
		l0.2,0.2l0.1,0.1h0.3l0.2,0l0.3-0.1l0.2,0l0.1-0.1l0.3,0.1l0.1,0.1l0.1,0.1l0.1,0.1l0.1,0.2l0.2,0.3v0.2l-0.1,0.3l-0.3,0.4l0,0.2
		v0.2v0.2v0.2l0.2,0.2l0.1,0.1l0.1,0.2v0.2l0,0.2l0,0.2v0.5l0.1,0.1l0.1,0.1l0.2,0.1l0.2,0.1l0.3,0.1l0.2,0.1l0.2,0.4l0.1,0.3v0.2
		V93l0,0.2v0.1v0.2v0.2l0.2,0.2l0.3,0.1l0.3,0l0.3,0.1l0.1,0l0.1,0.1l0.2,0l0.3,0h0.2l0.2-0.1l0.3,0.1l0.3,0.1l0.1,0.1l0.3,0l0.1,0
		h0.2l0.1-0.1l0-0.3l0-0.2l0.1-0.3l0.1-0.1l0.2,0h0.2l0.3,0.1l0.1,0.2l0.1,0.1l0.1,0.1l0.1,0.1l0.3,0l0.3-0.1l0.1,0l0.1,0.2l0.1,0.3
		l0,0.1l-0.1,0.2l-0.1,0.1l-0.2,0.3l-0.1,0.2l-0.2,0.8l0,0.3V97v0.2l0.1,0.2l0,0.1l0.2,0.4l0.1,0.2l0,0.2l0.3,0.3l0.1,0.1l0.3,0.1
		l0.3,0.2l0.2,0.3l0.1,0.1l0.1,0.1l0.1,0.1l0.2,0.1l0.1,0.1l0.2,0.1l0.1,0.1l0.1,0.1l0.1,0.1l0.1,0.1l0.1,0.1l0.2,0.1l0.1,0.1
		l0.1,0.1l0.1,0.1l0.1,0.1l0.2,0.2l0.2,0.1l0.1,0.1l0,0.2l-0.1,0.1l-0.1,0.1l-0.1,0.1l-0.1,0.1l0,0.3v0.2l0,0.2l0,0.2l0,0.2l0.1,0.3
		v0.2l0,0.2l0,0.3v0.2v0.3v0.2l0.1,0.2l0.2,0.3l0.2,0.3l0.1,0.2l0.1,0.1l0,0.2l0,0.3v0.1l-0.3,0.7l-0.2,0.2l0,0.1l-0.1,0.3l0,0.2
		l-0.1,0.6l0.1,0.1l0.2,0.2l0.1,0.1l0.3,0.1l0.1,0.1l0.1,0.3l-0.1,0.2l-0.1,0.2l-0.1,0.1l-0.3,0.2l-0.1,0.3l-0.1,0.2l-0.1,0.1
		l-0.1,0.2l0,0.4v0.3l0,0.2l0,0.1l0.1,0.2l0,0.1l0,0.2v0.1l0,0.2v0.1l0,0.2l0,0.2v0.2l0,0.2l0,0.2v0.1v0.2l0,0.3l0.3,0.5l0,0.1v0.2
		v0.2v0.1v0.2l0.2,0.1l0.2,0.2l0,0.2l0,0.2l0.2,0.2l0,0.1l0,0.2l0,0.1l-0.1,0.1l0,0.2l0.2,0.3l0.1,0.2l0.2,0.3l0.1,0.2l0,0.2l0,0.2
		l0,0.3l0,0.1l0.1,0.2l0,0.1l0,0.2l0,0.1l0,0.2l0.1,0.3l0,0.2l0.2,0.2l0.3,0l0.2,0l0.4,0.1l0.3,0.3l0.1,0.2l0.1,0.1l0.2,0.1l0.1,0.1
		l0.3,0.4l0,0.1l0.1,0.3l0.1,0.2l-0.2,0.9l0,0.1l0.2,0.5l0.1,0.3v0.2l0,0.2l-0.1,0.2l-0.1,0.1l0,0.1l-0.1,0.1l0,0.1l-0.1,0.4l0,0.3
		l0.1,0.3l0.1,0.1l0.3,0.3l0,0.2l0,0.2l0.1,0.2l0.2,0.1l0.2,0.3l0,0.2l0,0.3l0,0.2l0.1,0.2l0.1,0.3l0,0.2l-0.1,0.2l-0.1,0l-0.1,0.1
		l-0.1,0.1l-0.1,0.2l-0.1,0.1l-0.1,0.2l0,0.1l-0.1,0.3l-0.1,0.2l-0.1,0.2l0,0.1l-0.1,0.2l0,0.2l-0.1,0.1l0,0.1l0,0.1l-0.1,0.5
		l0.1,0.1l0.2,0.1l0.2,0l0.2,0.1l0.1,0.2l-0.1,0.4l-0.1,0.2l-0.1,0.2l-0.1,0.3l-0.1,0.1l-0.1,0.3l-0.1,0.1l-0.1,0.1l-0.2,0.1
		l-0.2,0.1l-0.3,0.2l-0.1,0.2v0.2l0,0.3l-0.1,0.1l-0.2,0.2l-0.2,0.3l-0.1,0.1l-0.1,0.1l-0.1,0.1l-0.1,0.1l-0.1,0.1l-0.1,0.2
		l-0.1,0.2l-0.1,0.1l-0.2,0.2l-0.5,0.3l-0.6,0.3l-0.2,0.1l-0.1,0.1l-0.1,0.1l-0.2,0.3l-0.1,0.3l0,0.1l0,0.2l0,0.2l0,0.2l0.1,0.3
		l0,0.2v0.2l0,0.1v0.2v0.2l0,0.3l0,0.2v0.2l0,0.3v0.2l0,0.2l0,0.2l0,0.2v0.2l0,0.3l0.1,0.2l0.1,0.3l0,0.2v0.2v0.2v0.2v0.2l0,0.3
		l-0.1,0.6l0,0.2v0.2v0.2l-0.3,0.8l-0.1,0.1l-0.2,0.2l-0.1,0.1l-0.2,0.6l-0.1,0.1l-0.4,0.3l-0.3,0.2l-0.2,0.1l-0.2,0.1l-0.2,0.1
		l-0.2,0.2l-0.3,0.2l-0.7,0.4l-0.3,0.2l-0.2,0.1l-0.1,0.1l-0.2,0.1l-0.3,0.2l-0.1,0.1l-0.1,0.1l-0.3,0.2l-0.1,0.1l-0.2,0.2l-0.2,0.1
		l-0.1,0.1l-0.1,0.1l-0.2,0.2l-0.2,0.1l-0.2,0.3l-0.2,0.2l-0.1,0.1l-0.2,0.1l-0.1,0.1l-0.1,0.1l-0.1,0.1l-0.1,0.1l-0.2,0.2l-0.1,0.1
		l-0.1,0.2l-0.2,0.2l-0.1,0.1l-0.1,0.2l-0.1,0.1l-0.1,0.1l0,0.1l-0.1,0.1l-0.1,0.1l-0.1,0.1l0,0.1l-0.1,0.1l-0.1,0.2l-0.1,0.1
		l-0.1,0.2l-0.1,0.2l-0.2,0.3l-0.1,0.2l-0.1,0.2l-0.1,0.2l-0.1,0.2l0,0.1l-0.2,0.3l-0.1,0.3L388,158l-0.3,0.9l-0.1,0.3v0.2v0.3
		l0,0.4l0.3,0.5l0.1,0.1l0.1,0.1l0.1,0.1l0.2,0.2l0.1,0.1l0.1,0.1l0.2,0.3l0,0.2l0,0.2v0.1v0.2l-0.1,0.3l-0.1,0.3v0.3l0,0.2v0.3v0.3
		l0,0.3v0.2v0.1v0.2l-0.1,0.6l-0.1,0.1v0.3l0.2,0.1l0.2-0.1l0.3,0l0.1,0l0.3,0.4l0.1,0.2l0,0.1l0.2,0.3v0.2v0.2l-0.1,0.1l-0.2,0.1
		l-0.1,0.1l-0.2,0.3l-0.1,0.1l0,0.1l-0.1,0.2l0.1,0.3l0.2,0.1l0.2,0.1l0.3,0l0.2,0h0.2h0.2l0.2,0l0.2-0.1l0.2,0h0.2h0.2l0.2,0
		l0.4,0.1l0.2,0.1l0.5,0.2h0.2h0.2l0.3,0.1l0.3,0l0.2,0.1l0.2,0.1l0.1,0l0.1,0.1l0.1,0.1l0.1,0.1l0.2,0.2v0.2v0.2v0.2l0,0.2l0,0.1
		l0.1,0.2l0.1,0.2l0.1,0.1l0.1,0.1l0.1,0.1l0.1,0.1l0.1,0.2l0.1,0.1l0.2,0.1l0.1,0.1l0.2,0l0.1,0.1l0.3,0.1l0.3,0.1l0.1,0l0.1,0.1
		l0.1,0.1l0.1,0.1l0.1,0.1l0.1,0.1l0.1,0.1l0.2,0.2l0.2-0.2l0.2-0.1l0.1-0.1l0.2-0.1l0.2-0.2l0.2-0.1l0.2-0.1l0.3,0l0.1,0.1l0.2,0.3
		l0.2,0.3l0.2,0.2l0,0.3l0,0.2v0.2l0,0.1l0.1,0.1l0.1,0.1l0.1,0l0.1,0.1l0.1,0.3l0.2,0.3l0.3,0l0.2,0.1l0.1,0.1l0.2,0.1l0.1,0.1
		l0.1,0l0.2,0.1l0.1,0.1l0.2,0.1l0.4,0.1l0.3,0l0.3,0l0.2,0l0.3,0h0.2h0.2l0.3,0h0.2l0.2,0l0.6,0.1l0.5,0.1l0.6,0.2l0.2,0.1l0.7,0.1
		l0.3,0l0.7,0.2h0.2l0.2,0l0.3,0l0.1-0.1l0.3,0l0.2,0l0.3,0.1l0.1,0.1l0.3,0.1l0.1,0.1l0.1,0l0.2,0.1l0.1,0.1l0.1,0.1l0.1,0.1
		l0.3,0.3l0.1,0.1l0.1,0.1l0.2,0.2l0.1,0.1l0.1,0.1l0.1,0.2l0.1,0.1l0.1,0.1l0.2,0.2l0.3,0.3l0.1,0.1l0.3,0l0.3,0h0.1h0.2h0.2
		l0.6,0.2l0.1,0.1l0.2,0.3l0.4,0h0.2h0.2l0.3,0l0.4,0.1l0.3,0.2l0.2,0.2l0.2,0.1l0.5,0.2l0.2,0l0.2,0h0.2l0.1,0l0.2-0.1l0.3,0h0.2
		l0.3,0l0.4,0.1l0.6,0.1l0.3,0l0.2,0.1l0.3,0h0.2l0.3,0h0.2l0.2,0l0.3-0.1h0.2h0.3h0.2h0.2l0.4,0.1l0.1,0.1l0.3,0.1l0.2,0l0.3,0.1
		l0.2,0l0.2,0h0.1l0.2,0l0.3,0l0.2,0l0.2,0.1l0.1,0.1l0.1,0.2l0.1,0.2v0.1l0.2,0.2h0.2l0.4,0.1l0,0.2l0.1,0.2l0.3,0l0.2-0.1l0.2,0
		l0.4,0l0.8,0.2l0.8,0.2l0.2,0l0.1,0l0.2,0.1l0.2,0.1l0.1,0l0.1,0.1l0.1,0.1l0.2,0.2l0.2,0.2l0.2,0.2l0.3,0.2l0.1,0.1l0.2,0.1
		l0.2,0.1l0.2,0.1l0.3,0.1l0.2,0l0.2,0l0.2-0.1l0.2,0l0.3,0.1l0.2,0.1l0.2,0.1l0.2,0.2l0.1,0.2l0.2,0.1l0.2,0.2l0.1,0.1l0.3,0.1
		l0.1,0.1h0.1h0.2l0.5,0.1h0.1l0.3,0.1l0.2,0.1l0.1,0.1l0.3,0.2l0.3,0.1l0.2,0l0.1,0.1l0.1,0.1l0.1,0.1l0.1,0.2l0.1,0.1l0.2,0.1
		l0.1,0.1l0.2,0.1l0.2,0.1l0.2,0.1l0.1,0.1l0.1,0.1l0.1,0.1l0.1,0.2l0.1,0.2l0.3,0.1l-0.1,0.5l0.1,0.2l0.3,0.3l0.1,0.1l0.1,0.1
		l0.1,0.1l0.2,0.1l0.1,0.1l0.1,0.1l0.1,0.1l0.1,0.1l0.2,0.1l0.1,0.1l0.1,0.1l0.2,0.1l0.1,0.1l0.1,0.1l0.1,0.1l0.2,0.1l0.1,0.1
		l0.2,0.1l0.1,0.1l0.2,0.1l0.1,0.1l0.2,0.1l0.2,0.2l0.2,0.1l0.2,0.2l0.1,0.1l0.1,0.1l0.1,0.1l0.1,0.1l0.2,0.2l0.3,0.3l0.2,0.2
		l0.1,0.1l0.2,0.2l0.1,0.2l0.1,0.1l0.1,0.1l0.1,0.1l0.2,0.1l0.1,0.1l0.1,0.1l0.2,0.2l0.2,0.2l0.1,0.1l0.2,0.1l0.1,0.1l0.2,0l0.1,0.1
		l0.1,0.1l0.2,0.1l0.1,0.1l0.1,0.1l0.2,0.3l0.1,0.3v0.2l0,0.2l0.1,0.2l0.1,0.1l0.4,0.6l0.1,0.2l0.1,0.1l0.1,0.1l0.2,0.1l0.1,0.1
		l0.3,0.4l0.1,0.3l0,0.2l0,0.3v0.1v0.2l-0.1,0.3l-0.1,0.3l0.1,0.1l0.3,0h0.2l0.3,0.1l0.7,0.2l0.3,0.2l0.2,0.1l0.2,0.1l0.1,0.1
		l0.1,0.1l0.3,0.3l0.3,0.5l0.1,0.1l0.2,0.2l0.1,0.1l0.2,0.1l0.1,0.1l0.3,0.1l0.1,0.1l0.2,0.1l0.1,0.1l0.1,0.1l0.1,0.2l0.1,0.2
		l0.1,0.1l0.1,0.3l0.1,0.2l0.2,0.3l0.1,0.2l0.1,0.3l0,0.2l0.1,0.2l0,0.2v0.2v0.2l0.1,0.1l0.2,0.2l0.1,0.1l0.6,0.2l0.4,0.1l0.1,0.1
		l0.1,0.1l0.1,0.1l0.1,0.1l0.1,0.1l0.2,0.1l0.1,0.1l0.2,0.1l0.2,0.1l0.2,0.1l0.1,0l0.2,0.1l0.2,0.1l0.2,0.1l0.2,0.1l0.1,0l0.2,0.2
		l0.2,0.3l0,0.2l0.2,0.3l0.2,0.3l0.1,0.1l0.2,0.1l0.3,0.1h0.3l0.3,0h0.3l0.3,0h0.3h0.3h0.2l0.2,0h0.1h0.3h0.2l0.3,0h0.3h0.2h0.2h0.2
		h0.2h0.2l0.2,0h0.2h0.2l0.2,0h0.2l0.2,0l0.3,0l0.3,0h0.2l0.2,0h0.2h0.3h0.2h0.2l0.7,0.1l0.2,0.2l-0.1,0.7l-0.1,0.1l-0.1,0.2
		l-0.1,0.1l-0.2,0.1l-0.2,0.1l-0.4,0.2l-0.2,0.2l-0.1,0.1l-0.1,0.2l-0.1,0.2l-0.1,0.2l0,0.1l-0.1,0.1l0,0.2l-0.1,0.5v0.1l0,0.2
		l0,0.3v0.1l-0.1,0.2l0,0.1l-0.1,0.6v0.2l-0.1,0.2l-0.1,0.1l-0.1,0.3l-0.1,0.2l-0.1,0.1l0,0.2l0.3,0.3l1,0.6l1,0.3l0.7,0.1l1,0.8
		l0,0.9l0.3,1.3l0.2,1.4l0.1,1.7l0.3,1.7l0.3,1.3l0.3,1.3l0.2,1.4l0.3,2.1l0.6,1.3l0.3,1.1l0.1,1.6l-0.1,1.4l-0.1,1.5l0.6,1.3
		l0.9,1.1l0.7,1.1l1.8,2.9l0.1,0.2l0.1,0.2l0.2,0.2l0.1,0.2l0.2,0.3l0.1,0.2l0.1,0.2l0.1,0.1l0.1,0.2l0.1,0.2l0.2,0.3l0.2,0.3
		l0.1,0.2l0.3,0.5l0.2,0.2l0.2,0.2l0.1,0.1l0.1,0.2l0.2,0.2l0.1,0.1l0.1,0.2l0.3,0.3l0.3,0.3l0.1,0.2l0.1,0.1l0,0.4l0,0.5v0.3l0,0.2
		l0,0.4l0,0.5l-0.1,0.4l0,0.3l-0.2,0.8v0.3l-0.2,0.4l-0.3,0.2l-0.8,0.3l-1.4,0.4l-1.4,0.3l-2.2,0.6l-0.3,0.2l-0.3,1l-0.2,0.7l-0.2,1
		l-0.3,2.1l-0.2,1L472,266l-0.6,2.2l-0.7,2.2l-0.2,1.3l-0.3,1.4l0.2,0.9l-0.1,0.8l-0.6,1.7l-0.7,0.9l-1,0.6l-0.8,0.3l-1.3,0.1
		l-1.1-0.1l-1-0.2l-1.3-0.2l-2-0.3l-0.7-0.2l-0.3-0.1l-0.3-0.1h-0.7l-0.8,0.1l-1.3,0.2l-0.3,0h-1.4h-1.7l-1.7,0.1l-1.5,0.3l-1.5,0.3
		l-0.9,0.3l-1.3,0.5l-1.2,0.5l-1.2,0.3l-1.3,0.3l-1,0.3l-1.4,0.9l-0.4,0.2l-1.4,0.7l-1.1,0.5l-1.2,0.6l-1.5,0.9l-2.2,1.7l-1.4,1
		l-1.2,0.7l-1,0.8l-1.1,0.7l-1.1,0.8l-1.2,0.9l-0.7,0.8l-0.3,0.5l0,0.2l-0.2,0.6l-0.4,0.7l-0.5,0.5l-0.7,0.3l-0.7,0.5l-0.9,0.9
		l-0.6,0.9l-0.2,0.2l-0.3,0.3l-0.7,0.6l-0.9,0.9l-1.5,1.6l-1.6,1.7l-0.3,0.3l-0.7,0.4l-1,0.4l-1.1,0.3l-1.1,0.5l-1.5,0.8l-1,0.6
		l-0.9,0l-0.8-0.3l-0.3-0.2l-0.7-0.3l-1.3-0.6l-1.5-0.4l-1.1-0.4l-1.7-0.8l-0.7,0l-0.2,0.7l-0.1,0.8l-0.3,1.3l0,0.2l-0.1,1.3
		l-0.4,1.3l-0.3,1.1l-0.3,1.4l-0.3,1.7l-0.3,0.9l-0.6,0.9l-0.9,1l-1.2,1.5l-0.9,1.3l-0.7,1l0,0.2v0.5v1l0,1.4v1.4l-0.1,1.7l0,1.5
		l0.1,1.4l0,0.3l0.1,0.3l0.1,0.3l0.5,0.7l0.3,0.7l0.1,0.9l0.1,1l-0.1,0.7l-0.4,1l-0.5,0.8l-0.2,0.8l0,0.9l-0.1,1.2l-0.5,1.2
		l-0.6-0.2l-0.2,0.1l-0.3,0l-0.3,0h-0.3l-0.3,0l-0.2-0.2l-0.3,0l-0.3,0h-0.3l-0.3,0H389h-0.3h-0.3h-0.3H388h-0.3h-0.3l-0.3,0H387
		h-0.3l-0.3,0l-0.3,0l-0.3,0l-0.3-0.1l-0.3,0h-0.3h-0.3l-0.3,0l-0.2,0l-0.3,0l-0.3,0l-0.2-0.1l-0.2-0.1l-0.3,0l-0.2,0.1l-0.2,0.2
		l-0.2,0.2l-0.2,0.1l-0.3,0.1l-0.3,0.1l-0.2,0.1l-0.3,0.1l-0.3,0.1l-0.3,0.1l-0.3,0.1l-0.3,0.1l-0.3,0.1l-0.2,0.1l-0.3,0.1l-0.3,0.1
		l-0.3,0.1h-0.2l-0.3,0l-0.3,0l-0.3-0.1l-0.3,0l-0.3,0h-0.3l-0.3,0l-0.3,0l-0.2,0l-0.3,0.1l-0.2,0.1l-0.3,0.1h-0.3l-0.3,0l-0.3,0
		l-0.3,0l-0.3,0h-0.3l-0.3,0h-0.3h-0.3l-0.2,0h-0.3h-0.3h-0.4h-0.2l-0.3,0l-0.3,0l-0.3,0.1l-0.3,0l-0.2,0.1l-0.3,0.1l-0.3,0.1
		l-0.2,0.1l-0.2,0.2l-0.2,0.2l-0.3,0.1l-0.3,0l-0.3,0l-0.3-0.1l-0.3,0l-0.3,0l-0.3,0.1l-0.2,0.1l-0.3-0.1l-0.2-0.1l-0.2-0.1l-0.3,0
		l-0.3,0l-0.3,0h-0.3l-0.3,0l-0.3,0.1l-0.2,0.1l-0.3,0.1l-0.3,0.1l-0.2,0l-0.3,0l-0.2-0.1l-0.3,0l-0.3,0h-0.3l-0.3,0h-0.3l-0.2,0
		h-0.3h-0.3l-0.3,0l-0.3,0h-0.3l-0.3,0l-0.3,0H360l-0.3,0h-0.2l-0.3,0.1l-0.3,0.1l-0.3,0.1l-0.2,0.1l-0.3,0.1l-0.2,0.1h-0.3l-0.3,0
		l-0.3,0.1l-0.2,0.1h-0.3l-0.3,0l-0.3,0l-0.3,0h-0.3h-0.3h-0.3l-0.3,0h-0.3l-0.3,0h-0.3h-0.3l-0.3,0h-0.3l-0.3,0l-0.2,0l-0.3,0.1
		h-0.3h-0.3h-0.3l-0.3-0.1l-0.3,0l-0.3,0h-0.3l-0.3,0h-0.3l-0.2,0h-0.3l-0.3,0l-0.3,0H349l-0.2,0l-0.3,0h-0.3l-0.3,0l-0.3,0h-0.3
		h-0.3l-0.2,0h-0.3h-0.3h-0.3h-0.3l-0.3,0l-0.3-0.1l-0.3,0l-0.3,0h-0.3l-0.3,0H344h-0.3l-0.3-0.1l-0.3-0.1l-0.2-0.1l-0.3-0.1
		l-0.2-0.2l-0.2-0.1l-0.3,0l-0.2,0.2l0,0.3l0.1,0.2v0.3l-0.2,0.1l-0.3,0.1l-0.1,0.3l-0.1,0.2l-0.2,0.1h-0.3h-0.3h-0.3l-0.2,0.1
		l-0.3,0.1l-0.2,0.2l-0.2,0.2l-0.3,0h-0.3l-0.3-0.1l-0.3,0h-0.3l-0.3,0.1l-0.1,0.2v0.3l-0.1,0.3l-0.2,0.1l-0.2,0.1l-0.3,0.1
		l-0.2,0.1l-0.3,0.1l-0.3,0l-0.3,0.1h-0.3h-0.3h-0.3l-0.3,0h-0.2l-0.3,0h-0.3l-0.3,0l-0.3,0l-0.3,0h-0.3l-0.3,0h-0.3h-0.3l-0.3,0
		h-0.3h-0.3l-0.3,0l-0.2,0l-0.3,0l-0.3,0.1l-0.2,0.2l-0.1,0.3l-0.1,0.3l0,0.2l0.1,0.3l0.1,0.3l0.1,0.2l0.1,0.3l0.1,0.2l0.1,0.3
		l0,0.3l0.1,0.2l0.2,0.3l0.1,0.2l0.1,0.3l0.1,0.2l0.1,0.3l0.1,0.3l0.1,0.2l0.1,0.3l0.1,0.3l0.1,0.2l0.1,0.3l0,0.2l0.1,0.3l0,0.3v0.3
		l0,0.3v0.3v0.3l0,0.3l0,0.3v0.3l0,0.2l0.1,0.3l0,0.3l0,0.3l0,0.3l0,0.2l0.1,0.3l0.1,0.3l0.1,0.2l0.1,0.3l0.1,0.3l0.1,0.2l0.1,0.3
		l0.1,0.2l0.1,0.3l0.1,0.2l0.1,0.3l0.1,0.3l0,0.3l0.1,0.2l0.2,0.3l0.1,0.2l0,0.3v0.3l-0.2,0.2l-0.3,0.1l-0.2,0.1l-0.2,0.2l-0.2,0.1
		l-0.3,0.1l-0.2,0.2l-0.2,0.2l-0.1,0.2l-0.1,0.3l0,0.3v0.3l0,0.3v0.3l0,0.2l0.2,0.3l0,0.2v0.3l-0.2,0.2l-0.2,0.2l0.1,0.2l0.3,0.1
		l0.3,0l0.3,0.1l0.2,0.2l0.1,0.2l0,0.3l0,0.3l0.2,0.2l0.2,0.2l0.3,0.1l0.2,0.1l0.3,0.1l0.2,0.2l0.1,0.2l0.2,0.2l0.2,0.2l0.2,0.1
		l0.2,0.1l0.3,0h0.3h0.2l0.3,0.1l0.1,0.2l0.1,0.3l0.2,0.2l0.3,0l0.2,0.1l0.2,0.2l0.1,0.3l0.1,0.2l0.2,0.1l0.3,0l0.2,0.2l0.1,0.3
		l0.2,0.2l0.2,0.1l0,0.3l0.1,0.3l0.2,0.2l0.2,0.2l0.2,0.2l0.2,0.2l0.2,0.2l0.1,0.2v0.3l0,0.3l-0.2,0.2l-0.1,0.2l-0.1,0.3l0.1,0.3
		l0.2,0.1l0.2,0.1l0.2,0.1l0.2,0.2l0.2,0.2l0.1,0.3l0.1,0.3l0,0.2l0.2,0.2h0.3l0.2-0.1h0.3h0.3l0.3,0l0.3,0.1l0.2,0.1l0.2,0.1
		l0.2,0.2l0,0.3l0,0.3l0.2,0.2v0.3l0.1,0.2l0,0.3l0.1,0.6l0,0.3v0.3l0.1,0.9v0.4l0.1,0.4v0.3v0.3l0,0.4l0,0.3l0,0.3l0.1,0.3l0.1,0.5
		l0.2,0.2l0.1,0.2l0.1,0.1v0.3l0.1,0.2l0.2,0.1l0.2,0.1l0.1,0.3l0.2,0.2l0.2,0.1l0.2,0.1l0.2,0.2l0,0.3v0.3v0.3v0.3l0,0.3l0,0.2
		l0,0.3l0,0.3l0,0.3v0.3l-0.1,0.3l-0.2,0.1l-0.2,0.2l0,0.3l0.2,0.2l0.1,0.2l-0.1,0.2l-0.3,0.2l-0.3,0l-0.3,0l-0.3,0l-0.2-0.1
		l-0.2-0.1l-0.3-0.1l-0.2-0.1l-0.2-0.1l-0.2-0.2l-0.3-0.1l-0.3,0l-0.3,0H343l-0.3,0l-0.2,0.1l-0.1,0.3l0,0.3l-0.2,0.2l-0.2,0.1
		l-0.3,0l-0.3-0.1l-0.2-0.1h-0.3l-0.2,0.1l-0.2,0.2l-0.1,0.2l-0.1,0.2l-0.2,0.2h-0.3l-0.3,0l-0.3,0l-0.3,0l-0.3-0.1l-0.3,0l-0.3-0.1
		l-0.2-0.1l-0.3-0.1h-0.3h-0.3h-0.3l-0.3,0l-0.3,0H336l-0.2,0.2l-0.2,0.1l-0.3,0.1l-0.2,0.2l-0.2,0.2l-0.2,0.2l-0.2,0.2l-0.2,0.2
		l-0.2,0.2l-0.3,0.1l-0.2,0.1l-0.3,0h-0.3l-0.3,0.1l-0.2,0.2l-0.1,0.2l-0.1,0.2l0,0.3l-0.1,0.3l-0.1,0.3l0.1,0.3l0.2,0.2l0.1,0.2
		l0.1,0.3l0,0.3l-0.1,0.2l-0.2,0.2l-0.3,0.1l-0.2,0.1l-0.2,0.2l-0.1,0.3l-0.1,0.3l0.1,0.2l0.2,0.2v0.3l0,0.3l-0.1,0.3l-0.1,0.2
		l-0.1,0.3v0.3l0.1,0.2l0.2,0.2l0.3,0.1h0.3l0.3,0l0.3,0l0.3,0l0.3,0.1v0.3l-0.1,0.3l0.2,0.2h0.3h0.3l0.3,0.1l0.3,0.1l0.2,0.1
		l0.2,0.1l0.3,0.1l0.3,0l0.3,0l0.3,0.1l0.3,0.1l0.3,0l0.2,0.1l0.2,0.1l0.2,0.2l0.2,0.1l0.1,0.2v0.3v0.3l0,0.3l0,0.3l0,0.3l-0.1,0.3
		l-0.1,0.2l-0.1,0.3v0.3l0.2,0.2l0.2,0.2l0,0.3l-0.2,0.2l-0.1,0.2l-0.1,0.3l0,0.3l-0.1,0.3l0,0.3l-0.1,0.2l-0.1,0.2l-0.1,0.2
		l-0.1,0.3l0,0.3l0.1,0.2l0.3,0.1l0.1,0.2l0.2,0.1l0.2,0.2l-0.1,0.3l-0.2,0.2l-0.2,0.1l-0.3,0.1l-0.1,0.2l-0.1,0.3l0,0.2l0.1,0.3
		l0.2,0.1h0.3l0.2,0.2l0,0.3v0.3l-0.1,0.3l0,0.3l0.1,0.2l0.1,0.2l-0.1,0.3v0.3l0,0.3l0.2,0.3l0,0.3l-0.2,0.2l-0.2,0.2l-0.1,0.2
		l-0.2,0.2l-0.2,0l-0.3,0l-0.3-0.1l-0.2-0.1l-0.3,0l-0.3-0.1l-0.3-0.1l-0.2-0.1l-0.2-0.1l-0.3,0l-0.3,0l-0.2,0.2l-0.1,0.3l-0.1,0.2
		l-0.2,0.2l-0.2,0.1l-0.2,0.2l-0.2,0.1l-0.2,0.1h-0.3h-0.3h-0.3l-0.3,0l-0.3,0h-0.3l-0.3-0.1l-0.1-0.2l-0.1-0.3l-0.2-0.2l-0.2-0.2
		l-0.1-0.2l-0.1-0.3l-0.1-0.2l-0.1-0.3l0-0.2l-0.1-0.3l-0.2-0.2l-0.2-0.1l-0.2-0.1l-0.3-0.1l-0.2-0.1L328,409l-0.2-0.2l-0.1-0.2
		l-0.2-0.2l-0.2-0.1l-0.3-0.1l-0.3-0.1l-0.3,0l-0.3,0h-0.3l-0.3-0.1l-0.2-0.1l-0.2-0.2l-0.2-0.2l-0.2-0.1l-0.2-0.1l-0.3-0.1l-0.3,0
		l-0.3,0.1l-0.3,0l-0.3,0.1l-0.3,0h-0.3l-0.3-0.1l-0.2-0.1l-0.3-0.1l-0.2-0.1l-0.2-0.1l-0.2-0.1l-0.3-0.1l-0.2-0.1l-0.2-0.2
		l-0.2-0.2l-0.2-0.1l-0.2-0.2l-0.3,0l-0.3,0h-0.3l-0.3-0.1l-0.2-0.1l-0.3-0.1l-0.3-0.1l-0.2-0.1l-0.2-0.1l-0.2-0.2l-0.2-0.2
		l-0.2-0.1l-0.2-0.1l-0.3-0.1l-0.2-0.1l-0.2-0.2l-0.1-0.3l0-0.3l0.2-0.2l0.2-0.2l-0.1-0.2l-0.3-0.1h-0.3l-0.2-0.1l-0.2-0.1l-0.2-0.1
		l-0.2-0.2l-0.2-0.2l-0.2-0.2l-0.2-0.2l-0.3,0l-0.1,0.2l0,0.2l0,0.3l0,0.3l0,0.3l0,0.3l-0.1,0.2l-0.2,0.2l-0.3,0.1l0.1,0.3l-0.2,0.2
		l-0.2,0.2l-0.2,0.2l-0.2,0.2l-0.2,0.2l-0.2,0.2l-0.2,0.2l-0.2,0.2l-0.2,0.2l-0.2,0.1l-0.3,0.1l-0.3,0.1l-0.2,0.1l-0.3,0.1l-0.3,0
		l-0.3,0l-0.3,0h-0.3h-0.3l-0.3,0l-0.3,0l-0.3,0l-0.3,0l-0.2-0.1l-0.3-0.1l-0.3-0.1l-0.3-0.1l-0.2-0.2l-0.3-0.2l-0.2-0.1l-0.2-0.2
		l-0.3-0.2l-0.5-0.3l-0.2-0.2l-0.3-0.2l-0.1-0.1l-0.3-0.1l-0.2-0.2l-0.3-0.1l-0.2-0.1l-0.3-0.2l-0.2-0.2l-0.2-0.2l-0.2-0.2l-0.2-0.2
		l-0.2-0.2l-0.2-0.2l-0.2-0.2l-0.2-0.2l-0.2-0.2l-0.2-0.2l-0.2-0.2l-0.2-0.2l-0.2-0.2l-0.2-0.2l-0.2-0.2l-0.2-0.2l-0.2-0.2l-0.2-0.2
		l-0.2-0.2l-0.2-0.2l-0.2-0.2l-0.2-0.1l-0.2-0.2l-0.1-0.2l-0.2-0.2l-0.2-0.1l-0.3-0.1l-0.2-0.1l-0.3-0.1l-0.3,0h-0.3l-0.3,0l-0.3,0
		H296h-0.3h-0.3l-0.3,0l-0.3,0l-0.2-0.2l-0.2-0.2l-0.2-0.2l-0.1-0.3l0-0.3l-0.1-0.3l-0.2-0.2l-0.2-0.2l-0.2-0.1l-0.2-0.1l-0.2-0.2
		l-0.3-0.1l-0.3-0.1l-0.3-0.1l-0.2-0.1l-0.3,0l-0.2-0.1l-0.2-0.2l-0.2-0.3l0-0.3l0-0.3l0-0.3l-0.2-0.2l-0.3,0h-0.3h-0.3l-0.3,0
		l-0.3,0l-0.3-0.1l-0.3-0.1l-0.2-0.1l-0.3,0l-0.3,0.1l-0.2,0.1l-0.3,0l-0.4,0l-0.3-0.1l-0.2-0.1l-0.3-0.1l-0.2-0.1l-0.3-0.1
		l-0.2-0.1l-0.2-0.1l-0.2-0.2l-0.2-0.2l-0.2-0.2l-0.2-0.2l-0.2-0.2l-0.2-0.2l0-0.2l0-0.3l0.1-0.3l0-0.3l-0.1-0.2l-0.2-0.2l-0.2-0.2
		l-0.2-0.2l-0.1-0.2l-0.2-0.2l-0.3,0l-0.3,0.1l-0.3,0l-0.3,0h-0.3l-0.3,0l-0.2-0.2l-0.1-0.2l0-0.3l-0.1-0.3l-0.2-0.2l-0.2,0h-0.3
		H281l-0.3,0.1h-0.3l-0.2-0.1l-0.1-0.3l-0.2-0.2l-0.3,0l-0.2,0l-0.3,0.1L279,388l-0.3,0l-0.3,0l-0.3-0.1l-0.2-0.1l-0.2-0.1l-0.3-0.1
		l-0.3-0.1l-0.3,0l-0.3,0l-0.2,0.2l-0.3,0.1H276l-0.2-0.2l-0.2-0.1l-0.3,0.1l-0.2,0.1l-0.3,0.1h-0.3h-0.3l-0.3,0l-0.3-0.1l-0.2-0.1
		l-0.2-0.2l-0.3,0h-0.3h-0.3l-0.3,0.1H272h-0.3h-0.2v-0.3h-0.4h-0.3h-0.3h-0.3l-0.3,0l-0.3,0l-0.2,0.1l-0.3,0.1l-0.2,0.2l-0.3,0.1
		l-0.3,0l-0.3,0l-0.3,0l-0.2-0.1l-0.3-0.1h-0.3H267h-0.3l-0.3,0l-0.3-0.1l-0.2-0.1l-0.2-0.2l-0.2-0.2l-0.2-0.2l-0.3-0.1l-0.3,0h-0.3
		l-0.3,0l-0.3,0l-0.3,0h-0.3h-0.3l-0.3,0h-0.3h-0.3h-0.3l-0.3,0l-0.3,0l-0.3,0h-0.3l-0.3,0l-0.3,0l-0.3,0l-0.3-0.1l-0.3-0.1
		l-0.2-0.1l-0.2-0.2l-0.1-0.2l-0.1-0.3v-0.3v-0.3l0-0.3l0-0.3l-0.2-0.2l-0.2-0.2l-0.3-0.1l-0.3-0.1l-0.2-0.1l-0.3-0.1l-0.3,0
		l-0.3,0.1l-0.2,0.2l-0.2,0.2l-0.2,0.1l-0.2,0.2l-0.3,0.1l-0.2,0.1l-0.3,0.1h-0.3h-0.3l-0.3,0l-0.3,0l-0.3,0l-0.3,0l-0.3,0h-0.3
		h-0.3l-0.3,0.1l-0.3,0.1l-0.3,0.1l-0.2,0.1l-0.2,0.2l-0.2,0.2l-0.2,0.2l-0.3,0l-0.3-0.1l-0.2-0.2l-0.2-0.2l-0.3-0.1h-0.3l-0.3,0.1
		l-0.3,0l-0.3,0l-0.2-0.2l-0.2-0.2l-0.2-0.1l-0.3,0l-0.3,0.1l-0.3,0.1l-0.2,0.1l-0.3,0.1l-0.3-0.1l-0.2-0.2l-0.2,0.1l-0.2,0.2
		l-0.2,0.1h-0.3l-0.3,0l-0.2-0.2l-0.1-0.3v-0.3l0-0.3l-0.1-0.3l-0.2-0.1l-0.3-0.1l-0.3,0h-0.3l-0.3,0l-0.3,0l-0.2-0.1l-0.3-0.1h-0.3
		h-0.3l-0.3,0l-0.2,0.1l-0.2,0.2l-0.1,0.2l-0.3,0.1l-0.3,0.1l-0.3,0l-0.3,0.1l-0.3,0.1l-0.2,0.1l-0.3,0.1l-0.3,0.1h-0.3l-0.3-0.1
		l-0.3-0.1h-0.3h-0.3l-0.3-0.1l-0.2-0.2L238,384l-0.2-0.2l-0.3-0.2l-0.3-0.1l-0.2-0.2l-0.3-0.1l-0.3,0h-0.3l-0.3,0l-0.3,0.1
		l-0.3,0.1l-0.3,0.1l-0.3,0.1l-0.4,0.1l-0.3,0h-0.3h-0.3h-0.3h-0.3l-0.3,0l-0.3,0h-0.3l-0.3,0.1l-0.3,0l-0.3,0.1l-0.3,0.1l-0.3,0.1
		l-0.4,0.2l-0.2,0.2l-0.2,0.2l-0.2,0.2l-0.1,0.3l-0.1,0.2l-0.1,0.3l-0.1,0.3l-0.1,0.3l-0.1,0.3l-0.1,0.3l-0.1,0.3l-0.2,0.4l-0.1,0.2
		l-0.2,0.3l-0.2,0.2l-0.2,0.2l-0.2,0.2l-0.2,0.2l-0.2,0.2l-0.2,0.2l-0.2,0.2l-0.2,0.2l-0.3,0.2l-0.2,0.2l-0.2,0.2l-0.2,0.2l-0.3,0.2
		l-0.1,0.3l-0.2,0.2l-0.2,0.2l-0.3,0.1l-0.3,0h-0.3l-0.3,0l-0.3,0.1l-0.3,0.1h-0.3l-0.3,0.1l-0.3,0.1l-0.3,0.1l-0.2,0.1l-0.3,0.1
		l-0.3,0h-0.3h-0.3h-0.3h-0.3l-0.3,0h-0.3l-0.3,0h-0.3l-0.3,0l-0.3,0L219,392l-0.2-0.2l-0.3-0.1l-0.3,0l-0.3,0h-0.3h-0.3h-0.3H217
		l-0.3,0.1l-0.3,0.1l-0.3,0l-0.3,0l-0.3,0l-0.3,0l-0.3,0.1l-0.2,0.2l-0.2,0.2l-0.3,0.1l-0.2,0.2l-0.2,0.2l-0.2,0.2l-0.2,0.2l0,0.3
		l-0.2,0.2l-0.2,0.2l-0.3,0l-0.3,0l-0.4,0l-0.3-0.1l-0.2-0.1l-0.2-0.2l-0.2-0.2l-0.1-0.2v-0.3l0.2-0.2h0.3l0.2-0.2v-0.3l-0.1-0.3
		l-0.2-0.2l-0.2-0.2l-0.3-0.1h-0.3l-0.3-0.1l-0.2-0.1l-0.3-0.1l-0.2-0.1l-0.2-0.2l-0.2-0.1l-0.2-0.1l-0.3-0.1l-0.3,0l-0.3-0.1
		l-0.2-0.2l-0.2-0.2l-0.2-0.2l-0.2-0.2l-0.2-0.2l-0.2-0.1l-0.2-0.2l-0.2-0.2l-0.2-0.2l-0.2-0.2l-0.2-0.1l-0.3-0.1l-0.3-0.1h-0.3
		l-0.3,0l-0.2,0l-0.2,0.2l-0.2,0.2l-0.3,0.1l-0.3,0.1l-0.3,0.1l-0.3-0.1l-0.2-0.2l-0.2-0.1l-0.3-0.1l-0.3,0l-0.3,0l-0.3,0l-0.3,0
		l-0.3-0.1h-0.3l-0.3,0l-0.3,0h-0.3l-0.3,0l-0.3,0l-0.2,0.1l-0.3,0.1l-0.2,0.1l-0.3,0.2l-0.2,0.1l-0.3,0l-0.3-0.1l-0.3,0.1l-0.3,0
		l-0.2,0l-0.3,0l-0.2,0.1l-0.2,0.2l-0.3,0.1l-0.2,0.2l-0.3,0.1l-0.3,0.1l-0.3,0l-0.3,0h-0.3h-0.3l-0.3,0h-0.3l-0.3,0l-0.3,0.1
		l-0.3,0l-0.3-0.1l-0.3-0.1l-0.3-0.1l-0.3,0H192h-0.3h-0.3l-0.3,0l-0.3,0h-0.3h-0.3l-0.3,0h-0.3l-0.3,0h-0.3h-0.3h-0.3l-0.3,0
		l-0.3,0l-0.3,0l-0.3,0l-0.3,0h-0.3l-0.3,0l-0.2,0.1l-0.1,0.3l0,0.3l0.1,0.3l-0.1,0.3l-0.2,0.2l-0.2,0.2l-0.2,0.1l-0.3,0.2l-0.2,0.1
		l-0.3,0.1l-0.3,0.2l-0.3,0l-0.3,0.1l-0.3,0.1l-0.3,0.1l-0.3,0l-0.3,0.1l-0.3,0h-0.3h-0.3h-0.3l-0.3,0h-0.3h-0.3l-0.3,0h-0.3h-0.3
		h-0.3l-0.3,0.1l-0.3,0l-0.3,0.1l-0.3,0.1h-0.3l-0.2-0.2l-0.3-0.1h-0.3l-0.4-0.1l-0.2-0.2l-0.3,0h-0.4l-0.5,0.1l0-0.4l0.1-0.3
		l0.1-0.3l-0.1-0.4l-0.1-0.3l-0.2-0.2l-0.2-0.2l-0.3-0.2l-0.3,0h-0.3h-0.3h-0.3l-0.3,0l-0.3-0.1l-0.3,0l-0.3,0.1l-0.2,0.1l-0.1,0.2
		l-0.2,0.2l-0.1,0.2l-0.2,0.2l-0.1-0.1l-0.3-0.1h-0.3h-0.3h-0.3h-0.3l-0.3-0.1l-0.3-0.1l-0.2-0.1l-0.2-0.2l-0.2-0.1l-0.3-0.1l-0.3,0
		l-0.3,0l-0.3,0l-0.3-0.1l-0.3-0.1l-0.3-0.1H168l-0.3,0l-0.3,0.1l-0.2,0.1l-0.3,0.1l-0.3,0l-0.1-0.2l-0.2-0.2l-0.2-0.2l-0.3-0.1
		l-0.3,0l-0.3,0l-0.3-0.1l-0.1-0.3l0-0.3l-0.2-0.3l-0.2-0.2v-0.3l-0.1-0.3l-0.2-0.2l-0.3,0h-0.3l-0.3,0l-0.3,0l-0.3,0l-0.3-0.1
		l-0.3,0l-0.3,0l-0.3-0.1l-0.1-0.2l0-0.3l-0.3-0.1h-0.3l-0.3,0l-0.3-0.1l-0.2-0.2l-0.2-0.1l-0.2-0.2l-0.2-0.2l-0.2-0.2l-0.2-0.2
		l-0.3-0.1l-0.3,0.1l-0.2,0.2l-0.2,0.2l-0.2-0.2H158l-0.3,0.1l-0.3,0.1l-0.3-0.1l-0.2-0.1l-0.2-0.2l-0.2-0.1l-0.2-0.2l-0.2-0.2
		l-0.2-0.2l-0.1-0.2l0-0.3l-0.1-0.3l0-0.3l0-0.3l0-0.3l-0.1-0.3l-0.1-0.3l-0.2-0.2L155,382l-0.2-0.2l-0.2-0.1l-0.3-0.1l-0.2-0.2
		l-0.1-0.2v-0.3l0-0.3l0-0.3l0-0.3l0.1-0.3l0.2-0.2l0.1-0.2l0.1-0.3l0.1-0.3l0.1-0.3l0-0.3V378l-0.1-0.3l-0.1-0.3v-0.3l0.1-0.3
		l0.2-0.2v-0.3l-0.1-0.3l-0.3-0.1l-0.2-0.1l-0.2-0.1l-0.2-0.2l-0.1-0.2l-0.2-0.2l-0.2-0.2l-0.3,0l-0.3,0l-0.3,0l-0.3,0l-0.3,0
		l-0.3-0.1l-0.2-0.1h-0.3l-0.3,0.1l-0.3,0.1l-0.3,0.1l-0.2,0.2l-0.3,0.1l-0.3,0.1l-0.3,0l-0.3-0.1l-0.1-0.2l-0.1-0.3l-0.2-0.2
		l-0.2-0.2l-0.2-0.2l-0.3-0.1l-0.2-0.2l-0.1-0.3l-0.1-0.3l-0.2-0.2l-0.2-0.2L147,373l-0.3,0l-0.2-0.2l-0.2-0.2l-0.2-0.2l-0.2-0.1
		l-0.3,0.1l-0.3,0l-0.2-0.1l-0.2-0.2l-0.2-0.2l-0.2-0.2l-0.2-0.1l-0.2-0.1l-0.3-0.1l-0.3,0h-0.3l-0.3,0l-0.1,0.2l-0.1,0.3l0,0.3
		l-0.2,0.3l-0.3,0.1l-0.3,0.1l-0.3,0l-0.3-0.1l-0.2-0.1l-0.3,0.1l-0.1,0.3l0,0.3l0,0.3l0,0.3l-0.2,0.2l-0.3,0.1l-0.1,0.2l-0.1,0.3
		l-0.1,0.3l-0.2,0.2l-0.3,0.1l-0.3,0.1L139,375l-0.2-0.1l-0.2-0.2l-0.3,0.1l-0.3,0.1l-0.2,0.2h-0.3l-0.3,0l-0.3,0h-0.3l-0.3,0
		l-0.2,0.2l-0.2,0.2l-0.2,0.1l-0.3,0l-0.3-0.1l-0.3,0l-0.3,0.1l-0.3,0l-0.3,0.1l-0.3,0l-0.3,0l-0.3,0.1l-0.3,0h-0.3l-0.2,0.2
		l-0.2,0.2l0,0.3l-0.1,0.3l-0.1,0.3l-0.1,0.3l-0.1,0.3v0.3l-0.1,0.3l-0.3,0l-0.2,0.2l-0.2,0.2l-0.2,0.2l-0.3,0l-0.3,0l-0.2-0.1
		l-0.3-0.2l-0.2-0.1l-0.3-0.1l-0.3-0.1l-0.3,0l-0.3,0.1l0,0.3l0.1,0.2l-0.1,0.2l-0.3,0l-0.3,0l-0.3,0h-0.3l-0.3,0.1l-0.3,0.1
		l-0.2,0.2l-0.3,0.1l-0.2-0.2l-0.2-0.2l-0.1-0.3v-0.3l-0.3-0.1l-0.3,0l-0.3,0H125h-0.3l-0.3,0l-0.3,0h-0.3h-0.3h-0.3l-0.3,0
		l-0.2,0.1l-0.3,0.1l-0.3,0.1l-0.3,0l-0.2-0.2l-0.3-0.1h-0.3l-0.3-0.1l-0.3-0.1l-0.3-0.1l-0.2-0.1l-0.3-0.1l-0.3-0.1l-0.2-0.2
		l-0.1-0.2l-0.2-0.2l-0.1-0.3l0-0.3l-0.2-0.2l-0.1-0.3l0.1-0.3l0.1-0.3l-0.2-0.1l-0.2-0.2l-0.1-0.2l0-0.3l0-0.3l-0.1-0.3l-0.1-0.3
		l-0.2-0.2l-0.2-0.1l-0.3,0l-0.3,0l-0.3,0.1l-0.3,0l-0.3-0.1l-0.2-0.2l-0.2-0.2l-0.3,0l-0.1-0.3l-0.2-0.2h-0.3h-0.3l-0.3,0.1
		l-0.3-0.1l-0.3,0l-0.2,0.2l-0.2,0.1l-0.3,0l-0.2-0.2l-0.3,0l-0.3,0l0-0.3v-0.3l0-0.3l0-0.3l0-0.3l-0.2-0.2l-0.3-0.1l-0.3-0.1
		l-0.3,0l-0.2-0.2l-0.1-0.2l0-0.3l-0.3-0.1l-0.2-0.1v-0.3l-0.1-0.2l-0.3-0.1h-0.3l-0.3,0l-0.3,0h-0.3l-0.2,0.1l-0.1,0.3l0.2,0.3
		l0,0.3v0.3l0,0.3l-0.1,0.3l-0.2,0.2l-0.2,0.1l-0.3,0.1l-0.3,0.1h-0.3l-0.3-0.1l-0.2-0.2l-0.2-0.1l-0.3-0.1l-0.3-0.1l-0.2-0.3
		l-0.1-0.3l-0.3-0.1l-0.3,0l-0.3-0.1l-0.3-0.1l-0.2-0.2l-0.2-0.2l-0.2-0.2l-0.3-0.2l-0.2-0.1l-0.3-0.1l-0.3,0l-0.3,0h-0.3h-0.3h-0.3
		l-0.3,0l-0.3-0.1l-0.3-0.1l-0.3-0.1l-0.3,0L101,369l0.1-0.3l0.1-0.3l0.1-0.3l-0.2-0.2l-0.3-0.1l0-0.3l0-0.3l-0.2-0.3l-0.2-0.1
		l-0.3-0.1l-0.2-0.2l-0.2-0.2l-0.3-0.1l-0.3,0.1l-0.3,0l-0.3-0.1l-0.2-0.1l-0.2-0.2l0.1-0.2l0.2-0.2l0-0.3l0-0.3l-0.1-0.2l-0.2-0.2
		l-0.2-0.2l-0.3-0.1l-0.3-0.1l-0.2-0.1l-0.3-0.1l-0.3,0h-0.3l-0.3,0l-0.3,0.1l-0.3,0.1l-0.2,0.2l-0.3,0.1l-0.2,0.1l-0.2,0.2
		l-0.2,0.2l-0.3,0.1l-0.3,0l-0.3,0.1l-0.3,0.1h-0.3l-0.4-0.1l-0.2,0.1l-0.3,0.1l-0.3,0.1l-0.2,0.2l-0.2,0.2l-0.1,0.3l-0.1,0.2
		l-0.1,0.3l-0.1,0.3l0,0.3l0,0.3v0.3l-0.2,0.2l-0.3,0.1l-0.3,0.1l-0.3,0.1l-0.2,0.2l-0.3,0.1l-0.3,0.2l-0.3,0.1l-0.2,0.1l-0.2,0.2
		l-0.2,0.2l-0.1,0.2l-0.2,0.2l-0.2,0.2l-0.2,0.2l-0.2,0.1l-0.3,0.1h-0.1l0.1-0.3l0-0.1l0-0.2l0,0l0.3-0.5l0.3-0.2l0.1-0.1l0.7-0.4
		l0.2-0.2l0,0l0.2-0.1v0l0.1-0.2l0.1-0.2l0.1-0.3v0l0.1-0.2l0.3-0.4l0.2-0.3l0.1-0.1l0.3-0.2l0.2-0.2l0.1-0.1l0-0.1l0.4-0.4l0.2-0.2
		l0.3-0.5l0.3-0.5l0.1-0.1l0.1-0.2l0.1-0.4l0-0.1v-0.1l0.1-0.3l0.1-0.3l0,0l0.3-0.3l0,0l0.1-0.1l0,0l0.1,0v0h0l0,0h0h0.1l0.2,0h0h0
		h0h0.1l0-0.1l0,0v-0.1v0l0.1-0.7l0-0.2l0.1-0.5v-0.1l0-0.1l0.1-0.6l0-0.2l0-0.3l0.1-0.2v0v-0.3l0-0.2l0-0.1l0,0v-0.2v0l0-0.2h0
		l0-0.1v0l0-0.1l-0.1-0.2v0l0,0l0,0l0-0.1l-0.1,0v0l0,0l-0.1-0.1v0l0,0l0,0v0l-0.1-0.1l0,0l0-0.1l-0.1,0l0,0l-0.1-0.1l0,0l-0.1-0.1
		l0,0l-0.1-0.1l-0.1-0.1l0,0l0,0l0,0h0v0l0,0h0h0l0-0.1l-0.2-0.1l-0.1-0.1h0l-0.2-0.1l-0.1,0l0,0v0l-0.1,0l0,0l-0.1,0l0,0l-0.1-0.1
		v0l-0.2-0.1l0-0.1h0l-0.1,0v0l0,0v0l-0.1,0v-0.1l0-0.1l0-0.1v-0.2l0-0.2v-0.3l0-0.3v-0.1v0l0,0v0v0l0,0l0-0.1v0l0,0v0h0v0l0-0.1v0
		l0-0.1l0,0l0,0l0-0.1v-0.1l0-0.4v-0.1V352v-0.1v-0.1v-0.2v0v-0.3v-0.1l-0.1-0.2v0l0-0.2l-0.1-0.4l-0.1-0.1l0-0.1l-0.1-0.1l0-0.1
		l-0.2-0.2h0l-0.3-0.1l-0.3,0h-0.1h0l0,0h0h0h0h-0.1l0,0l0,0v0l0,0l0,0h-0.1h0l-0.1,0h0h-0.1l-0.1,0l-0.1,0h0l-0.1,0.1l-0.2,0.1
		l-0.3,0.2l0,0l-0.2,0.1l-0.2,0.1h0H87h0l-0.1-0.1l-0.2-0.1l-0.2-0.1l-0.1,0l-0.1-0.1l-0.1,0l-0.1-0.1l-0.2-0.2l-0.3-0.1l-0.1-0.1
		l-0.1,0l-0.1,0l0,0l-0.2,0l-0.3-0.1l0,0h0h0l-0.1-0.1l-0.2,0l0,0l-0.1-0.1l0,0l-0.2-0.1l0,0v0l0-0.1v0h0v-0.2v0l0,0l-0.2-0.1
		l-0.1-0.2l-0.2-0.1l0,0l-0.1-0.1l0,0v0l-0.1-0.1l-0.1-0.1l-0.1-0.1h0v0l-0.1-0.1l-0.2,0v0l0,0h0l0-0.1h0l0,0l0,0l-0.1-0.1l0-0.1
		l-0.1,0l-0.1-0.1h0v0l-0.2-0.1l-0.1-0.1l0,0l0,0l-0.2-0.1l-0.1,0v0h0l-0.1-0.1l-0.1,0l0,0l0,0v0h0v0l-0.1-0.1v0l-0.1-0.1v0
		l-0.1-0.1v0h0l0-0.1l0,0l0-0.1l-0.1-0.1l0-0.1l0,0l-0.1,0l0,0h0l0,0h0v0l-0.1,0l0,0l-0.2,0l-0.1,0l-0.2-0.1h0l0,0l-0.3-0.1l0,0
		l-0.1,0l-0.1,0l-0.1,0l-0.1,0v0l-0.1,0l-0.1,0h0l0-0.1l0-0.1l0,0l0-0.2l0-0.2V343l0-0.2l0.1-0.4v-0.3l0-0.4l0.1-0.3l0-0.1v0v-0.2
		l0.1-0.3v-0.1l-0.1,0l0,0l-0.1,0v0h-0.1h0h0h-0.1v0l-0.2-0.1l-0.3,0l-1-0.4l-0.2,0l-1.1-0.3h-0.1h-0.1h-0.1h-0.1h0h0h-0.1l0,0h0h0
		l0,0l-0.1,0l-0.2,0.1l-0.1,0.1l0,0l-0.1,0.1l-0.2,0.2v0l0,0l-0.2,0.3v0.1l-0.1,0.5l0,0l0,0.2v0.1l-0.2,0.3v0l-0.3,0.2h0l-0.1,0.1h0
		l-0.1,0.1h0l0,0l0,0l0,0l-0.4,0.2h0l0,0h0l0,0v0l-0.2,0.1l0,0h-0.1l-0.2,0v0l-0.3-0.1h0l-0.2-0.1v0h0l-0.1,0l-0.1-0.1l-0.1-0.1
		l-0.1,0l-0.2-0.1l-0.2-0.1l-0.2,0l-0.3-0.2l-0.3-0.1h0l-0.1-0.1l-0.1-0.1v0l-0.1,0l0,0l0,0l0-0.1h0v0l0-0.2h0V341l0,0l0,0v0v0
		l0-0.1l-0.1-0.1v0h0v0l0,0v-0.1v-0.2l0,0l0,0v0h0l0,0h-0.1l0,0l-0.1,0l-0.2,0.1v0h0v0h0h0h0h0H67l0,0l-0.2,0h-0.1v0l-0.1,0h-0.4h0
		h0v0l-0.1,0l-0.2,0h-0.1l-0.2,0h-0.1l-0.2,0l-0.1,0H65l-0.2,0l-0.2,0l-0.1,0h-0.1l-0.3-0.1l-0.1,0v0l-0.1,0l-0.1-0.1l0,0h0
		l-0.1-0.1l0,0v-0.1h0v0l0,0v0h0v0l-0.1-0.1h0l-0.1,0H63h-0.1h0l-0.1,0l-0.1-0.1h0l-0.2-0.1l-0.2-0.1h-0.1l-0.1,0l0,0v0h0h0h0
		l-0.1,0h-0.1h-0.1h-0.2l-0.1,0l-0.1-0.1l-0.2,0h0h0l-0.1,0l-0.1,0h0l-0.3,0.3h-0.1l-0.1,0l-0.2,0.2h0l-0.1,0h0l-0.1,0h0l-0.1,0l0,0
		h-0.2h-0.1h0l-0.4-0.1h-0.2l0,0l0,0l0,0l0,0.2l0,0.1l-0.1,0.1h0l-0.1,0l0-0.1l-0.1-0.1h0v0h0l-0.1,0l0,0h0l0,0h0l-0.2,0h0l-0.2,0
		l-0.3,0.2l-0.1,0l0-0.1l0-0.2h0l0-0.1l-0.1,0l-0.3-0.1l-0.2-0.1l-0.1,0l-0.1,0l-0.1-0.1h0l-0.1,0v0h0v0l0,0l-0.1-0.1v0h0l0,0v0
		l-0.1,0l0,0l-0.2-0.1l0,0h0h-0.1v0h0h0l0,0l-0.2,0.3l-0.2,0h0l-0.2,0.1l-0.1,0.3l0,0l-0.1,0l-0.1,0.1h-0.1l0,0h0h-0.1h0H53h-0.1h0
		h-0.1h0l0,0l-0.2,0l-0.1,0l0,0l0,0h0l-0.1,0l-0.4-0.1l0,0l-0.3-0.1l-0.1-0.1l0,0v0l-0.1-0.1l-0.1,0h0h-0.1l0,0h0l-0.1,0.1l-0.1,0.1
		l0,0.1l0,0.1v0l-0.1,0.1v0.1l0,0.1l-0.2,0.3v0v0.3l-0.1,0.1l0,0l0,0l-0.1,0h-0.1v0h0l-0.1,0.1l0,0.1l0,0l0,0.1h-0.1l0,0v0l-0.1-0.1
		h0l-0.1-0.1l-0.1-0.1v0l0,0l-0.1,0v-0.1l0,0l0,0v0l-0.1,0l0-0.1l0-0.1l0-0.1h0h0l0,0h0l0,0.3l0,0.1l-0.1,0.1v0l-0.3,0.2l-0.3,0.3v0
		h-0.1l-0.1,0l0,0v0l0,0v0h0v-0.1l-0.1,0h0h0l0,0.1l0,0.2v0l0,0.2l-0.4,0.5l-0.1,0.1l-0.2,0.3l-0.1,0.2v0.2l0,0.2l0,0.2v0l0,0l0,0
		h-0.1h0l-0.2,0.2h-0.1h0l0,0l-0.1,0v0l-0.1-0.1l0,0l-0.1-0.2l0-0.1l0,0v0l-0.1,0h-0.2v0l0-0.1L45,342l-0.1,0l-0.2,0.1h0h-0.1l0-0.2
		l0-0.3v0l0,0l-0.1-0.4l-0.1-0.2l0-0.1v0h0v0l-0.4-0.2l-0.4,0h-0.1l-0.2,0h0l-0.1,0l0,0v0h0v0l0,0v0l0,0V340v0l-0.1-0.2l0,0l0-0.1
		l-0.2-0.1l-0.1,0v0.2l0,0.1l0,0.2l0,0.1v0.1l-0.1,0.3l0,0.1l0,0l-0.1,0.1l-0.1,0.1l0,0l-0.1,0.1l-0.3,0.2l-0.2,0.2h0l-0.1,0.1
		l-0.2,0.3l-0.1,0.1v0v0.1h0v0v0h0l0,0l0,0.1v0l0.1,0l0,0l0,0l0.1,0.1l0,0v0.1h0v0v0.1l0,0l0,0.1l0,0.1l0,0.2l0,0v0v0v0h0l0,0l0,0.1
		v0l0,0l0,0l0,0.1v0.1l0,0l-0.1,0.1l-0.1,0l0,0h0l0-0.1l0,0v0l0-0.2h0v0l-0.1-0.1v0v-0.1l-0.1-0.2l0,0l0,0l0-0.1v0l0,0l0-0.2l0,0v0
		l-0.1,0v0l0,0h0l0,0l0,0l-0.1,0.1l0,0l0,0l-0.1,0.1l-0.2,0.2l0,0l0,0l-0.1,0v0h0l0,0v0h0l0-0.1v0l0-0.1v0l0,0v0l-0.1,0h0h-0.1l0,0
		h0h0h0h0l0,0v0v0h0v0l0-0.2v0l-0.1-0.1l-0.1,0l0-0.1l0,0l0,0l0-0.2l0,0l0-0.1l0,0l0,0l-0.1,0v0l0,0h-0.1h0h-0.1l-0.2,0.1l-0.2,0.1
		l-0.1,0h0h0l-0.1,0h0h0l-0.1-0.1l-0.1,0l-0.1-0.1l-0.1-0.1v0v0h0l-0.1-0.3v-0.1v0l-0.1-0.1l0-0.2l0,0l-0.1,0l0,0l-0.1,0.2l0,0.1
		l-0.1,0.3l0,0.1l0,0.2v0.1v0.1l-0.1,0.2l0,0l-0.2-0.1l-0.1-0.1l-0.1,0h0l-0.1-0.1h0l-0.2-0.1h0l-0.2,0.1l-0.2,0l0,0l-0.1-0.1v0
		l-0.1-0.2l0-0.2l0-0.1v0h-0.1v0h-0.1l-0.1,0.1h0l0,0h0h0l0,0l-0.1,0h0h0h0h-0.1h-0.1l-0.2-0.2v0L33,340l0,0h0l0,0l-0.1,0l0,0l0,0
		l-0.1-0.1v0v0h0v-0.1l-0.1-0.1l-0.2-0.1h-0.1h0v0l0,0l-0.1,0l-0.2-0.1l-0.1-0.1l-0.1,0v0l-0.1,0v0l-0.1-0.1l-0.1,0l-0.1,0h-0.1h0
		H31h0h0h0h-0.2h-0.1h0l-0.3,0h-0.1h-0.1H30h0v0h-0.1l-0.1,0v0l-0.1,0h0h0l0,0h-0.1l-0.1-0.1h0l-0.1-0.1v0l-0.1-0.1l0,0v0l-0.1,0v0
		l0,0v0l-0.1,0l-0.1,0l-0.3-0.1l-0.2-0.2h0l0-0.1h0v-0.1l0,0l0-0.4l-0.1-0.1l0,0h0l-0.1,0l-0.1,0l0,0v-0.1v-0.1l0-0.3v0v0v0
		l-0.1-0.4l0,0v0v0h0v0l-0.1-0.1v0l0.1,0h0h0l0.2,0h0.1h0H28l0.1,0h0.1l0.3,0l0.2,0l0.3,0.1l0,0v0H29v0l0.1,0.1l0,0.1v0h0v0v0.1
		l0,0.1l0,0.1v0v0l0.1,0.1l0.1,0h0l0,0l0,0.1h0v0.1h0v0.1l0,0l0,0l0.1,0h0l0.1-0.1h0h0.1l0.2,0.1l0,0l0,0.1h0l0,0h0.1v0h0h0h0.1v0h0
		h0l0.1,0v0l0,0l0-0.1h0l0-0.1v0l-0.1,0l0-0.1h0l0,0v0v0l0,0h0v-0.1l0,0v-0.2l0.1-0.2l0.1-0.1l0,0l0.1-0.1l0-0.2l0-0.4v0h0v0
		l-0.1-0.1l0,0v0l0,0l-0.1,0l0,0l0-0.2l-0.1-0.1v0l0,0v0l0.1-0.1h0.1h0l0,0v-0.3l0,0l0.1-0.1l0,0l0,0v-0.1v-0.3h0v0v0v-0.1h0l0,0v0
		l-0.2-0.1l-0.2,0v0l0,0v-0.2v-0.3v0l0-0.2v-0.1v0l0,0v0l0,0h-0.1l0,0l0-0.1l0,0l0,0l0-0.2l-0.1-0.4l0,0l-0.1,0l-0.3-0.1l-0.3-0.1
		l-0.1,0l-0.2,0.2l-0.2,0.2h0h0l0-0.1v0l0,0l-0.1-0.1l0-0.1l-0.1-0.1l0,0l-0.1,0v0v-0.1l0-0.1l0-0.1h0l0,0l-0.1,0.2h0h-0.1h0v0
		l-0.1,0l-0.1,0l-0.3-0.2l-0.2-0.1l0,0l0,0l0.1-0.3v0l-0.1,0l-0.1,0l-0.1,0l-0.1,0l-0.1-0.1l0-0.1l-0.1-0.1l-0.1,0l0,0l-0.1,0
		l-0.1-0.1l-0.1-0.1v0l0-0.2l0-0.1l0.2-0.4v0l0-0.1v-0.1l-0.1-0.1h0l-0.1,0v0l-0.1,0L26,328l0,0v0l0-0.3l-0.2-0.1v0l0-0.1l0-0.3h0
		l0,0l0,0l-0.2-0.1l-0.2,0l-0.1-0.1l-0.2-0.1l-0.1,0h0l-0.1,0h0h0h-0.1l0,0h0l0,0h0h0l0,0h-0.1l-0.1,0l0,0h0h0h0h0h0h0l-0.1,0v0l0,0
		h-0.1l0,0l-0.2-0.1h-0.1l-0.3-0.2l0,0l-0.1,0l-0.1-0.1l-0.1,0l-0.1-0.1l-0.1,0h0l-0.1-0.1l-0.1,0l0,0l0,0l-0.3-0.1l-0.2-0.1
		l-0.1-0.1l0-0.1l-0.2-0.1h0l-0.1-0.1l-0.1-0.2h0l0-0.1l-0.1-0.1l0,0v-0.1l-0.1-0.2l-0.1-0.3l0,0l0-0.3l0-0.1l0,0l0,0l0-0.1l-0.1,0
		v0l-0.2-0.1h0l-0.1-0.1l0,0l-0.1,0v0h0l0,0l0,0v0h0l0-0.1l0,0v0h0v0l0,0l-0.1-0.1v-0.1h0v0v-0.1l0-0.1l0-0.3l0-0.2l0-0.2l0-0.4
		l0-0.3l-0.1-0.2l0,0l-0.1-0.2l-0.1-0.3l0-0.1l0-0.3l-0.1-0.2v0l0-0.3v0l0-0.1l0,0l0,0l0-0.2l0.1-0.1l0.1-0.1l0,0h0l0.1,0h0l0.1,0h0
		l0.4-0.2v-0.1l0,0l0,0l0.4-0.3l0.1,0l0,0h0h0.1l0.1,0h0h0.1l0.5,0.2l0,0l0,0v-0.4v-0.2l0-0.1l0,0h0l0,0v0l0,0l0,0l-0.1-0.1l0,0l0,0
		h0v0v0h0v0l-0.1-0.1h0v0l-0.1-0.1l-0.1-0.1h0l-0.1-0.1l0,0l-0.1-0.1l0-0.2h0l-0.1-0.1l0,0l0,0l0-0.1l0,0v0l0-0.2l0-0.3v0v0v-0.3
		l0-0.2v0l0.1-0.2l0-0.1l0-0.1l0-0.1l0,0v0l0-0.1h0l0-0.1h0v-0.1l0-0.1l0,0l0-0.1l-0.2-0.4l0-0.1l-0.2-0.6l0-0.3l0,0l-0.1,0h-0.1
		l0,0h0h-0.1l-0.1,0v0h0v0l0,0l0,0h0h0l-0.1,0h0l-0.1,0h0h0l-0.1,0l-0.1-0.1l-0.2,0l-0.3-0.3l-0.1-0.2v-0.1v-0.1l0-0.1v0l-0.1-0.1
		l0,0v0l-0.1,0v0h0l-0.1-0.1h0l-0.1-0.1h0v0l-0.1,0v-0.1h0v0h0v0l0-0.1v0l-0.1-0.1l-0.1-0.1l0,0h0l-0.1-0.1l0-0.1l0-0.2v0l0-0.4
		l-0.1-0.2v-0.1h0h0l0,0l0-0.1l0,0l0-0.1h0l0-0.1l0,0h0l-0.1-0.1v0l0.1-0.1h0h0l0.1-0.1h0h0h0l0,0l0.1,0v-0.1v-0.2l-0.1-0.2v-0.2
		L16,307v-0.2v0l0,0l0,0l-0.1-0.1v0l-0.1-0.1l0,0l0-0.1l0-0.1h0v-0.1h0l0-0.2l0-0.1l0-0.1l0-0.1v0l0-0.1l0-0.1v-0.1l0-0.1v0
		l-0.1-0.1l0-0.1l-0.1-0.1l-0.1-0.3l-0.1-0.2h-0.1l-0.3-0.1h-0.1h-0.2h-0.1l-0.2,0h0h-0.1h0h0h-0.1l-0.1,0h-0.1l-0.1,0l-0.3-0.1
		l-0.3-0.1l0,0l0-0.1h0v0l-0.1,0l0-0.1l0,0v-0.1l0-0.1l0,0l0-0.1l0-0.1l0-0.1l0,0V303l0-0.1v0h0v-0.1l0-0.1l0-0.1l-0.1-0.1l0,0
		l-0.1,0l-0.1,0h0h-0.1l0-0.1l-0.1-0.1l-0.1-0.2l-0.1-0.3l0-0.1l0-0.2l0-0.1l0-0.1l0-0.2l0-0.1l0-0.2l0-0.2l0-0.1l0-0.1l-0.1-0.1
		l0-0.1l0-0.1l0-0.2l0-0.1l0-0.1l0,0l0-0.1l0-0.1h0l0-0.1l0-0.1v0l-0.1,0v0l0-0.1l-0.1,0l-0.1,0l-0.1,0l0,0v0l-0.1,0l-0.1-0.1l0,0
		l-0.2-0.1L9,298.2h0l0,0L8.4,298l0,0v0h0h0l0,0l0,0l0,0l-0.1,0l0,0l0,0l0,0h0l0,0h0v0l-0.2,0l0-0.1l0,0h0v0l-0.1,0v0l-0.1-0.1
		l-0.1,0l-0.1-0.2h0l-0.1-0.1l-0.1-0.1v0l-0.1,0v0l-0.1-0.1v0h0v0v0l-0.1,0l-0.1-0.2L6.3,296v0l0,0l0,0v0l0,0l0-0.1L6,295.4l0-0.1
		l0,0v0h0v-0.1L5.8,295l0-0.1l-0.2-0.2l-0.1,0l-0.1-0.1l0,0l-0.1-0.1h0v0h0l0,0v0h0l0,0l0-0.1l-0.1-0.1l0,0l0,0l-0.1-0.2l-0.1-0.1v0
		l0,0v0h0v0l-0.1-0.1l0,0l0-0.2l-0.1-0.1l0-0.2h0l0-0.2l0-0.3v0l0-0.1l0-0.2v-0.2l0-0.6v-0.3V291l0-0.2l0-0.3l0-0.3V290l-0.1-0.8
		l0-0.4l0-0.1l0-0.1l0-0.3h0l0-0.1l0,0l0-0.1v0v-0.1v0l0-0.2l0-0.1v0l0-0.1v0V287l0-0.1h0L3,286.7l-0.1,0l-0.1,0v0h0l-0.1,0
		l-0.1-0.2l-0.1-0.1h0v0l-0.1-0.1l0,0v0l-0.1,0l-0.1-0.2h0l0,0l-0.1-0.1l0-0.1l0,0l-0.1-0.1l0,0l0,0l0,0h0l0-0.1l0,0l-0.1-0.1l0,0
		l0,0l-0.1-0.1v0l0,0v0l0,0l0,0l0,0l-0.1-0.1l0,0v0l-0.1-0.1l-0.1-0.1l-0.1-0.1v-0.3l0-0.3v-0.2l0.1-0.4v-0.3l0.1-0.1v-0.1l0,0
		l0-0.1v0v-0.1l0-0.2V282v-0.2l0-0.1l0,0l-0.2,0l-0.2,0h0l-0.1-0.1v-0.1l0.2-0.3l0-0.2l0-0.1v-0.1v0l0.1-0.1l0,0l0.1-0.1h0h0l0.1,0
		l0.1-0.1l0,0v0l0.1-0.2l0.1-0.1v0v-0.1v0v-0.1v-0.1l0,0v0v0h0l0-0.1l-0.3-0.1h0H0.7l0,0H0.5l0,0H0.4h0l-0.1-0.1h0l0,0l-0.1-0.2
		v-0.1l0-0.1l0-0.1v-0.1h0v0l0,0v-0.1v-0.3v0l0,0v0l0-0.2v-0.1l0.1-0.2l0-0.2l0.1-0.1l0.1-0.3l0.1-0.2l0-0.1l0-0.2v0v0H0.5v0v0
		l-0.1,0h0l-0.4-0.1h-0.1v0h0h0h0l-0.1,0l-0.2,0h-0.1h0h0l0,0l0,0l-0.1,0l0,0l0,0h0v0l-0.1-0.1l-0.1,0l0,0l-0.1,0l0,0h0h-0.1h0h0h0
		h0h-0.3h0l0,0l-0.1,0l-0.1-0.1h0l-0.2,0l0,0l-0.3,0.3v0l-0.1,0l-0.1,0h0l-0.2,0.1v0l-0.3,0.1l-0.2,0.3l-0.1,0l-0.2,0.1l-0.1,0
		l-0.4,0.2l-0.1,0h0l-0.1,0H-5l-0.1,0h-0.1h-0.1h-0.1h-0.1l0,0h0h-0.1l-0.2,0l-0.1,0h0l-0.1,0v0l-0.2-0.1v0l-0.1-0.2v0l-0.1-0.1
		v-0.1l0,0v-0.1h0l0-0.1l-0.1-0.1v0h0v0l-0.1-0.1v0l0-0.1h0v0v0v0h0v0h0l-0.1-0.1l-0.1,0l0-0.1l0,0h0l-0.2,0.2l-0.1,0h-0.1l-0.3-0.1
		h0h-0.1l-0.1,0l-0.1,0h0h0l0,0h0h0h-0.1l-0.1,0h0h0h-0.1l-0.1,0h0l-0.3,0l-0.1,0h0h0h0l-0.2,0.2l-0.1,0.1l-0.2,0.3h-0.1v0l-0.1,0
		l-0.1-0.1l0,0v0l0,0l-0.1,0l0-0.1l0-0.2v-0.1l0-0.1v-0.1v-0.1l0-0.2v-0.3l0-0.1v0v-0.1v0h0v0v-0.2h0v0v0v0l0-0.1v-0.1l0-0.3v0
		l0-0.1h0l0-0.3l0-0.1V273v-0.1l0.1-0.2l0-0.1l0.1-0.2l0,0v-0.2l-0.1-0.1v0l-0.1,0h-0.2l0,0v0l0,0l-0.3-0.1l-0.1-0.1v0l-0.1-0.1l0,0
		l-0.1-0.1h0v0l-0.1,0h-0.1l-0.1,0h-0.1h0l0,0h0l-0.2,0.2h0l0,0h-0.1l0,0h0v-0.1v0h0l-0.1-0.1v-0.1v0h0v0l-0.1-0.1v-0.1v-0.4l0-0.2
		l0-0.2v0l0,0v0l0.1-0.2v0l0-0.3v0l-0.1-0.1l-0.2-0.1h-0.1l0,0h-0.1h0h-0.1l-0.2,0h0l-0.2,0.1h0l-0.1,0.1h-0.2l-0.2,0l-0.2-0.1h-0.1
		l-0.1,0l-0.3,0l-0.2,0h0l-0.1,0h-0.1l-0.1,0l0,0h0h0h0l-0.1,0h-0.1v0l-0.1,0l0,0l0,0l0,0.2l0,0v0l-0.1-0.1l-0.3-0.2l0-0.2l0-0.2
		v-0.2l0-0.2v-0.3v-0.2l-0.1-0.3l-0.3-0.1l-0.4,0l0-0.2l0.1-0.3l0-0.3l0.1-0.2l0.1-0.2l-0.1-0.3l-0.2-0.1l-0.1-0.2l0-0.3l0-0.2
		l0.2-0.3h0.3l0.2,0l0.2,0l0.2,0l0.1-0.4v-0.2l0-0.2l-0.1-0.3l0.2-0.3l0.2,0l0.2,0l0.2,0l0.2-0.1l0.3-0.3l0.3,0l0.2,0l0.4,0.2
		l0.1,0.1l0.1,0.2l0.1,0.1l0.1,0.1l0.3-0.1l0.1-0.1l0.1-0.1l0.3,0.1l0.2,0l0.2-0.1l0.3,0l0,0.2l0,0.2l0,0.3v0.2l0.3,0.3h0.3l0.3-0.2
		l0.2-0.1l0.1-0.2l0.2-0.1l0.2,0l0.2-0.1l0.2,0l0.2,0h0.2l0.2,0l0.3,0.2l0.1,0.3l0,0.3l0.3,0.5l0.1,0.1l0.1,0.4v0.2v0.3v0.2l0.1,0.2
		l0.1,0.1l0.3,0.1l0.6,0.3h0.2h0.2l0.2,0h0.2l0.2-0.2v-0.3l0.2,0l2.1-0.3l2.5,0.6l1.8-0.9l0.1-1.6l-0.1-1.8l-1.3-2.2l-0.7-1.7
		l-0.2-2.4l1-1.7l1.9-0.4l1.6-1l-0.8-1.9l0.2-1.8l0.1-2.1l1.4-1l-1-1.8l-0.3-2l0.5-2.9l1.2-1.7l1.1-1.8l0.3-0.2l1.2-0.7l0.3-2.2
		l-0.3-2.5l-2.5-2.6l-0.8-1.5l-1.3-1.8l-1.9-0.9l-1.4-0.7l-1.8-1.3l-1.7-0.6l-1.5,0.5l-1.4,0.8l-1.1,1l-1.8-1.1l-0.7-1.4l-1.4-1.6
		l0-0.3l0.2-0.6l0-0.2l0-0.2l0-0.2l0-0.2l0-0.2l0-0.2l0-0.2v-0.2l0-0.2l0-0.2l-0.2-0.3l-0.3-0.2l-0.3-0.3l-0.1-0.1l-0.1-0.1
		l-0.1-0.1l-0.2-0.1l-0.3-0.2l-0.2-0.2l-0.2-0.1l-0.2-0.2l-0.2-0.2l-0.1-0.1l-0.1-0.3l-0.1-0.2l0-0.3v-0.3v-0.2l0-0.3v-0.2l0-0.1
		l0-0.2l0-0.2v-0.3v-0.2l0.2-0.2l0.1-0.2l0.2,0l0.7,0.3l0.2,0.1l0.2,0.2l0.2,0.1l0.3,0l0.2-0.3l0.2-0.3l0.3,0l0.3,0.2l0.2,0.1
		l0.2,0.1l0.2-0.1l0.1-0.2l0.1-0.1l0.2-0.2l0.2-0.1l0.3-0.2l0.2-0.1l0.3-0.2l0.2-0.1l0.2-0.1l0.1-0.1l0.4,0.2l0.2,0.1l0.2,0.2
		l0.2,0.2l0.1,0.1l0.1,0.1l0.5,0.3l0.2-0.1l0.2-0.1l0.2-0.1l0.2-0.1l0.2-0.1L-8,210l0.1-0.3l0-0.2l0-0.3v-0.3v-0.2v-0.2l0-0.1V208
		l0-0.3l0-0.2l-0.2-0.1l-0.3-0.1l-0.2,0.1l-0.2,0.1l-0.4-0.1l-0.3-0.1l-0.2-0.1l0-0.3v-0.3l0-0.2V206v-0.2l0-0.2l0.3-0.5l0.2-0.3
		l0.1-0.3l0-0.3l0-0.2l0-0.2l0-0.3l-0.1-0.2l-0.2-0.3v-0.3l0-0.3l0-0.3l0-0.3l0-0.2l0-0.3v-0.2V201v-0.2l0-0.2l-0.2-0.4l-0.2-0.2
		l-0.4-0.2l-0.2-0.5l-0.1-0.4l-0.2-0.2l-0.1-0.1l-0.1-0.2l-0.1-0.2l-0.2-0.3l-0.8-0.4l-0.2-0.1l-0.1-0.1l0-0.2l0.2-0.3l0.3-0.6
		l0.3-0.1l0.2,0l0.3,0l0.2-0.1l0.2-0.1l0.1-0.2l0.2-0.4l0.2-0.2l0.3,0h0.3l0.2,0.1h0.2l0.1,0l0.3,0.1l0.2,0l0.2,0l0.2,0l0.1-0.1
		l0.2-0.1l0.3-0.2l0.1-0.3l0.2-0.3l0.2-0.3l0.2,0h0.2l0.2,0l0.3,0l0.2,0h0.2h0.2l0.3,0H-5h0.2h0.2l0.5,0.3l0.3,0.2l0.1,0.1l0.2,0.1
		l0.1,0.1l0.2,0.1h0.4h0.2l0.3-0.2l0.2-0.3l0.2-0.2l0.1-0.2l0.1-0.1l0.2-0.3l0.2-0.4l0.2-0.2l0.2-0.3l0.1-0.2l0.2-0.2l0.1-0.1
		l0.2-0.1l0.2-0.1l0.3-0.1l0.2-0.1l0.3-0.2l0.2-0.1l0.3-0.1l0.2-0.1l0.4-0.2l0.3-0.1l0.2-0.1l0.2-0.1l0.1-0.1l0.1-0.1l0.1-0.2
		L2.6,190v-0.3v-0.2l0-0.2l0.1-0.3l-0.1-0.3l-0.3-0.1l-0.3-0.2l0.4-1l0.1-0.1l0.1-0.1l0.2-0.3l0.2-0.2l0.1-0.1l0.2-0.1l0.4-0.1
		l0.3-0.1l0.3,0l0.2,0l0.2,0l0.2-0.1l0.2-0.2l0.3-0.7l0-0.2l0.2-0.3l0.1-0.2l0.1-0.1l0.2-0.1l0.2-0.1l0.2-0.1l0.3-0.1l0.2-0.1
		l0.2-0.1l0.2-0.1l0.3-0.2l0.2-0.1l-0.2-0.7l0.1-0.3l0.2,0l0.3,0h0.2l0.2,0h0.2l0.3,0.1l0.2-0.2l0.1-0.1l0.3-0.2l0.2-0.1l0.2-0.1
		l0.3,0l0.3,0.2l0.2,0.1l0.1,0.1l0.2,0l0.5,0.1h0.1L12,182l0.2-0.1l0.3-0.2l0.2,0l0.4,0.2l0.3,0.1l0.8,0.3l0.2,0.1l0.3,0.1l0.3,0.1
		l0.3,0.1l0.2,0l0.1,0.1l-0.2,0.4l0.2,0.3l0.2,0h0.2l0.2,0.1l0.2,0.1l0.2,0.1l0.1,0.2l0.1,0.2l0.3,0.2h0.2h0.2l0.2,0l0.3,0l0.2-0.1
		l0.3-0.1l0.4-0.1l0.1,0l0.3-0.1l0.2,0l0.6-0.2l0.5-0.2l0.2-0.1l0.1-0.1l0.3-0.1l0.2-0.1l0.4,0h0.1l0.3-0.1l0.2,0l0.2-0.1l0.2-0.2
		l0.1-0.1l0.3-0.2l0.1-0.1l0.2-0.1l0.3,0l0.3-0.1h0.2l0.3,0l0.3,0.2l0.1,0.2l0.4,0.2l0.2,0l0.2,0l0.3-0.4l0.1-0.1l0.2-0.3l0.2-0.1
		l0.3-0.2l0.2-0.1l0.1-0.3l0.3-0.1l0.3,0.1l0.2,0.3l0.6,0.3l0.3,0.1l0.2,0.1l0.2,0.1l0.3,0.2l0.3,0.2l0.1,0.1l0.2,0.3l0.1,0.1
		l0.1,0.2l0.3,0.1l0.2,0l0.5,0.1h0.2l0.1-0.1v-0.2l0-0.2l0-0.3l-0.1-0.3l-0.1-0.4l-0.1-0.2l-0.1-0.1l-0.1-0.3l0-0.2l0-0.2l0-0.2
		l-0.1-0.2l0-0.1l-0.2-0.6v-0.2l0-0.3l0.2-0.3l0.3-0.1l0.3-0.1l0.1-0.1l0.1-0.2l0.2-0.2l0.2-0.3l0.2-0.2l0.4,0.1l0.1,0.2l0.2,0.2
		l0.3,0.2l0.1,0.2l0.1,0.2l0.1,0.1l0.1,0.2l0.1,0.1l0.1,0.2l0.1,0.2l0.1,0.1l0.1,0.2l0.1,0.1l0.1,0.2l0.1,0.2l0.4,0.2l0.2,0.2
		l0.2,0.1l0.3,0.1l0.2,0.1l0.1,0.2l0.1,0.2l0.1,0.1l0.1,0.3l0.1,0.1l0.3,0.1h0.2l0.2-0.2l0.2,0l0.3,0l0.3,0.1l0.1,0.2l0.1,0.2
		l0.1,0.2l0.2,0l0.4,0.2l0.2,0.1l0.2,0.1l0.2,0h0.2h0.2l0.2,0l0.3-0.1l0.2-0.1l0.2-0.1l0.3,0h0.3l0.3-0.1l0.1-0.1l0.2-0.2l0.2-0.1
		l0.7-0.3l0.3,0l0.2,0h0.2h0.2l0.2,0h0.2h0.2l0.2,0l0.2,0l0.2,0l0.2,0l0.3,0l0.2,0h0.2l0.3-0.1l0.3-0.1l0.3-0.1l0.3-0.1l0.3-0.1
		l0.3-0.1h0.2l0.2,0h0.3h0.2l0.3,0h0.2H49l0.2,0l0.3,0l0.3,0.1l0,0.3l0.1,0.3l0.1,0.1l-0.1,0.1l0,0.2l0.1,0.2l-0.3,0.6l-0.1,0.2
		l-0.3,0.6l-0.1,0.2l-0.1,0.2l0,0.2v0.2l-0.2,0.5l0.1,0.3l0.1,0.2l0.1,0.3l0.1,0.2l0.2,0.3v0.2l0.2,0.3l0.2,0.1l0.3,0.2l0.1,0.2
		l0,0.2l-0.2,0.3l-0.1,0.1l-0.2,0.1l-0.2,0l-0.5,0.2l-0.3,0.1l-0.1,0.1l-0.1,0.1l-0.1,0.1l-0.1,0.2l-0.3,0.6l-0.2,0.5v0.2l0.1,0.3
		v0.3v0.2l0,0.2v0.2l-0.1,0.2l-0.1,0.2v0.3l0.3,0l0.4-0.1l0.3,0l0.6,0.2l0.3,0.1h0.2l0.2,0l0.3,0l0.2-0.1l0.2,0l0.2,0.1l0.1,0.3
		l0.1,0.1l0.3,0.1l0.2,0.1l0.2,0.1l0.3,0.2l0,0.3l0.1,0.2l0.3,0l0.2-0.1l0.2-0.6l0.1-0.2l0.1-0.2l0.2-0.1l0.2-0.1l0.1-0.1l0.1-0.1
		l0.2-0.3l0.2-0.3l0.3,0.2l0.1,0.1l0.2,0.2l0.1,0.2l0,0.3l0.1,0.3l0.1,0.1l0.4,0.1l0.2-0.1l0-0.2v-0.1l0.1-0.3l0.2-0.1l0.2,0l0.2,0
		H56l0.3,0.2l0.3,0.2l0.2,0.1l0.1,0.1l0.2,0.1l0.2,0.1l0.1,0.1l0.2,0.1l0.1,0.1l0.1,0.1l0.6,0.2l0.2,0l0.3-0.1l0.3,0l0.2,0l0.4-0.2
		l0.2-0.1l0.1-0.1l0.2-0.1l0.3-0.1l0.2,0.3l0,0.2l0,0.3v0.2l0.1,0.2l0.1,0.2l0,0.3l-0.1,0.3l-0.2,0.6l0,0.2l0.2,0.2l0.3-0.1l0.1-0.2
		l0.2-0.2l0.4-0.1l0.3,0.2l0.3,0.1h0.2l0.2,0h0.3h0.1h0.3l0.2,0l0.1-0.1l0.2-0.1l0.3-0.1l0.2,0h0.2H65h0.2l0.2-0.1l0.1-0.1l0.1-0.1
		l0.2-0.1l0.3-0.1l0.2-0.3l0-0.2l0.2-0.4l0.2-0.2l0.2-0.3l0.3-0.3l0.2-0.1l0.1-0.1l0.3-0.1l0.6-0.2l0.3-0.1l0.3-0.2l0.1-0.1l0.2-0.1
		l0.4-0.1l0.2,0l0.2-0.1l0.2-0.1l0.1-0.1l0.1-0.2l0.1-0.2l0.2-0.4L71,191l0.1-0.2l0.1-0.2l0.1-0.1l0.1-0.2l0.1-0.2l0.1-0.3l-0.1-0.5
		l0-0.3l0.2-0.4l0.1-0.1l0.2-0.1l0.3-0.1l0.4,0h0.2l0.2,0l0.3-0.1l0.2-0.2l0.2-0.1l0.1-0.1l0.2-0.2l0.2-0.2l0.1-0.2V187l0.1-0.2
		l0.1-0.1l0.1-0.1l0.2-0.1l0.1-0.1l0.2-0.3l0.1-0.2l0.1-0.3l0.2-0.2l0.2-0.3l0.2-0.3l0.2-0.1l0.1-0.1l0.2-0.1l0.2-0.1l0.6-0.2l0.3,0
		l0.3,0h0.2l0.2,0l0.2,0l0.2,0l0.4,0.2l0.2-0.1l0-0.3l-0.1-0.3l0.3-0.3l0.2,0l0.2-0.1l0.2,0l0.2,0.1l0.3,0.2h0.2l0.2,0l0.2,0h0.2
		l0.3-0.2l0.2-0.1l0.2-0.1l0.2-0.1l0.3-0.1l0.2,0l0.3,0.1l0.2,0.2l0.1,0.1l0.3,0.2l0.2,0l0.2,0l0.2,0.1l0.3,0.1l0.2,0.1l0,0.3
		l0.1,0.2l0.2,0.4l0,0.2l0.1,0.3l0.3,0.2l0.1,0.1l0.1,0.1l0.1,0.1l0.1,0.1l0.3,0.1h0.2h0.2l0.3,0l0.4,0.2l0.1,0.1l0.1,0.2l0.1,0.2
		l0.1,0.2l0.1,0.2l0.3,0.2l0.2,0l0.2,0l0.2,0l0.4-0.2l0.4-0.1l0.2,0l0.3,0.2l0.5,0.3h0.2l0.3-0.2l0.1-0.1l0.2-0.2l0.1-0.2l0.3-0.7
		l0.1-0.3l0.1-0.3l0-0.2l0-0.2l0.1-0.3l0.1-0.2l0-0.2l0-0.3l0-0.2l0-0.2l0.1-0.3v-0.2l-0.1-0.2l-0.1-0.1L92,183l-0.1-0.4l0-0.2
		l0-0.2l0-0.2l0.3-0.1l0.4,0.1l0.3,0l0.2,0.1h0.2l0.2,0l0.3,0.1h0.2l0.3-0.2l0.1-0.1l0.1-0.1l0.3,0.2l0.1,0.1l0.2,0.1l0.2,0h0.2
		l0.2,0h0.2h0.2H96h0.2l0.3,0l0.4,0.1l0.2,0.1h0.2l0.2,0l0.2,0.1h0.2l0.4,0.3l0.1,0.1l0.1,0.1l0.1,0.1l0.3,0.1l0.3,0h0.2l0.2,0
		l0.2,0h0.2l0.3,0.1l0.2,0.1l0.4,0l0-0.2l0.2-0.2l0.2-0.1l0-0.2l-0.1-0.2l-0.4-0.2l-0.5-0.3l-0.1-0.1l-0.1-0.2l0.1-0.3l0.3-0.1
		l0.2,0l0.2,0l0.2-0.1h0.2l0.1,0l0.3-0.1l0.2-0.1l0.5-0.2l0.2,0h0.2h0.2l0.3,0h0.2h0.1h0.2l0.2,0l0.2,0l0.3,0l0.2,0l0.2-0.1l0.2-0.1
		l0.3-0.2l0.3-0.1l0.3,0h0.3l0.4,0.2l0.1,0.1l0.1,0.1l0.5,1l0.1,0.2l0.1,0.1l0.2,0.2l0.3,0h0.2l0.3-0.1l0.3-0.1l0.2-0.1l0.2-0.1
		l0.3-0.1l0.2,0l0.6,0.3l0.2,0.2l0.1,0.1l0.2,0.2l0.1,0.1l0.1,0.2l0.2,0.4l0,0.2l0,0.2l0.1,0.2l0,0.2v0.2l0,0.2v0.2l0,0.2v0.2l0,0.2
		l0,0.2l0,0.2l0.1,0.2l0.3,0.2l0.2,0.2l0.2,0.1l0.3,0.1l0.2,0h0.2l0.2,0l0.2,0l0.3,0.2l0.2,0h0.2l0.2,0l0.1-0.2l0.2,0l0.2,0.1
		l0.2,0.1h0.2l0.4,0h0.3h0.2h0.2h0.2h0.2h0.3l0.3,0l0.1,0l0.3-0.1l0.2-0.3l0.4-0.2h0.3l0.3,0.2l0.1,0.1l0.1,0.2l0.3,0.1l0.2,0l0.2,0
		h0.2h0.2l0.2-0.1l0.1-0.1l0.2-0.1l0.1-0.1l0.1-0.1l0.1-0.1l0.3-0.1h0.2l0.2-0.1l0-0.2l0.1-0.2l0.2,0h0.3l0.2,0h0.2l0.3,0l0.3,0
		l0.8,0.4h0.3l0.2,0l0.2,0l0.2,0l0.3-0.2l0.2,0h0.2l0.2,0h0.2l1-0.4l0.8-0.3l0.1,0l0.2,0l0.2,0h0.2l0.7,0.2l0.1-0.1l0.1-0.1l0.2-0.1
		l0.1,0h0.3l0.3,0h0.3l0.2,0h0.2h0.2l0.2,0l0.2-0.1l0.2-0.1l0.3-0.2l0.3-0.1l0.2,0l0.5,0.2l0.2,0.2l0.5,0.2l0.2,0l0.3,0l0.2,0
		l0.4-0.2l0.3-0.2l0.5-0.2l0.2,0l0.4-0.1l0.4-0.1h0.2l0.2,0.1l0.2,0l0.2,0h0.2l0.6-0.2l0.4-0.2l0.2-0.1l0.3-0.1h0.2l0.2,0l0.5,0.3
		l0.3,0.2l0.2,0.1l0.2,0.1l0.2,0.2l0.3,0.1l0.4,0.3h0.2h0.2l0.2,0h0.1l0.2,0h0.2l0.2,0l0.2,0l0.3-0.1l0.3-0.1l0.1-0.1l0.1-0.1
		l0.3-0.1h0.2h0.3l0.2,0h0.2l0.2,0l0.2,0.1l0.2,0l0.2,0l0.4,0.2l0.3,0.1l0.3,0.1l0.2,0l0.2-0.1l0.1-0.1l0.1-0.1l0.1-0.1l0.1-0.2
		l0.2-0.2l0.1-0.1l0.1-0.1l0.2-0.1l0.3-0.1l0.3-0.2l0.2-0.1l0.3-0.1l0.2-0.2l0.2-0.3l0.1-0.2l0.3-0.3l0.2,0l0.2,0l0.2,0h0.2h0.2h0.2
		h0.2l0.2,0l0.3,0l0.2,0l0.2,0l0.2,0.1l0.3,0.1l0.3-0.1l0.1-0.7v-0.2v-0.2v-0.2l0.3-0.5l0.1-0.2l0.3-0.2l0.1-0.1l0.3,0.1l0.3-0.1
		l0.3,0l0.2,0l0.2,0l0.3,0l0.2,0h0.2h0.3l0.2,0h0.2h0.2l0.3,0h0.3h0.3h0.2l0.2,0.1l0.3,0l0.8,0.3l0.3,0l0.2,0h0.4l0.2,0l0.2-0.1
		l0.2-0.1l0.2-0.2l0.1-0.1l0-0.2l0.1-0.4l0.1-0.4v-0.2l0-0.2l0.1-0.4l0.2-0.3v-0.1l0-0.2l-0.1-0.2l-0.2-0.5v-0.2l0-0.2l0.1-0.2
		l0.1-0.3l0-0.2l0-0.5l-0.1-0.2l0-0.2v-0.2l0.1-0.2l0.1-0.2l0.2-0.3l0.1-0.1l0.2-0.3l0.1-0.1l0.3-0.3l0.3-0.1l0.2,0h0.2l0.1,0h0.2
		l0.1-0.2l-0.1-0.3l-0.1-0.1l-0.2-0.1l-0.1-0.1l-0.1-0.1l-0.1-0.2l-0.1-0.4l-0.1-0.3l0-0.2l0-0.2l0-0.2l0-0.3l0-0.2l0-0.3l0-0.2
		v-0.2l0.1-0.3l0.1-0.3l0.1-0.2l0.2-0.2l0.1-0.1l0.1-0.2l0.1-0.1l0.1-0.1l0.1-0.1l0.3-0.1l0.2,0l0.2-0.1l0.3-0.1l0-0.2l0.2-0.4
		l0.1-0.1l0.2-0.3l0.2-0.1l0.1-0.1l0.1-0.1l0.1-0.1l0.1-0.1l0.2-0.3l0.1-0.1l0.1-0.3l0.2-0.3l0.2-0.3l0.1-0.1l0.2-0.1l0.3,0.2
		l0.2,0.1l0.3,0l0.4,0.1l0.1,0.3l0.2,0l0.3,0.1h0.2l0.3,0.1l0.2,0.1l0.3,0l0.1-0.1l0.2-0.3l0.1,0l0.2-0.1l0.5,0.2l0.1-0.1l0.1-0.1
		l0.3,0.1l0.2,0l0.2,0l0.2,0h0.2l0.3,0h0.2l0.2,0h0.2l0.3,0h0.2l0.2,0l0.2,0l0.1-0.1l0-0.2v-0.2l0-0.1l0-0.2l-0.1-0.2l-0.1-0.1
		l-0.1-0.1l-0.1-0.1l-0.2-0.1l-0.3-0.1l-0.1-0.1l-0.2-0.1L173,163l-0.3-0.2l-0.1-0.2l-0.1-0.2l-0.2-0.3l-0.2-0.2l-0.3-0.6l0-0.2
		l0-0.2l-0.3-0.6l0-0.2l0.2-0.4l0.1-0.2l0.2-0.1l0.3-0.1l0.3,0l0.3,0h0.4h0.2l0.2,0l0.2,0l0.2,0h0.2h0.2h0.3h0.2h0.2l0.2,0l0.1,0
		l0.2-0.1l0.4-0.2l0.2-0.2l0.1-0.1l0.2-0.1l0.3-0.1l0.2,0h0.2h0.2l0.3,0l0.6,0.2l0.2,0.1l0.2,0.1l0.3,0.1l0.3,0.2l0.4,0.2l0.3,0.1
		l0.2,0h0.2l0.3,0l0.2,0l0.3-0.2l0.1-0.3l0-0.2l0-0.3v-0.3l0.1-0.2l0-0.2l0.1-0.3l0.1-0.3l0-0.4v-0.1v-0.2l0.2-0.5l0.2-0.2l0.1-0.1
		l0.1-0.2l0-0.1l-0.1-0.1l-0.1-0.2l-0.2-0.1l-0.3-0.2l-0.2-0.1l-0.1-0.1l-0.3-0.2l-0.1-0.1l-0.1-0.1l-0.1-0.2l0.2-0.2l0.2-0.2
		l0.2-0.1l0.2-0.2l0.1-0.1l0.1-0.1l0.1-0.1l0.2-0.1l0.1-0.1l0.2-0.1l0.1-0.1l0.2-0.1l0.1-0.2l0.2-0.2l0.2-0.2l0.2-0.3l0.1-0.2
		l0.1-0.2l0.1-0.4l0-0.2v-0.2v-0.2l0-0.2V150l0-0.2l0-0.2v-0.1l-0.1-0.2l0-0.2l0-0.3l0-0.2l-0.1-0.1l0-0.3l0-0.3l0-0.2v-0.2l0-0.2
		v-0.2l0-0.2v-0.2v-0.2v-0.2l0-0.3v-0.2v-0.2l0-0.2v-0.2l0-0.2V145v-0.2v-0.2l0-0.4v-0.2v-0.2v-0.2l0-0.2v-0.1l0-0.2l-0.2-0.5l0-0.2
		v-0.2v-0.3l0-0.2l0-0.2v-0.2l0-0.2v-0.2l0-0.2v-0.2v-0.2l0-0.2v-0.1l0.8-5.7l0.1-0.3l0.2-0.4l0.1-0.3l0-0.2l0-0.2v-0.2v-0.1l0-0.2
		v-0.3V132v-0.2l0-0.2l0-0.3l0-0.2v-0.1l0-0.3v-0.1l0.1-0.3l0.1-0.3l0.2-0.6l0.1-0.3l0-0.3l0.3-0.7l0.1-0.3l0.1-0.3l0-0.2l0.2-0.5
		l0.1-0.3l0.1-0.5l0.1-0.3l0.1-0.4l0-0.3l0.3-0.7l0-0.2v-0.3l0-0.1v-0.3l0-0.3l0-0.3l0-0.2v-0.2v-0.3v-0.1l0-0.2l0.1-0.3l0.1-0.2
		l0.1-0.1l0.3-0.1l0.2-0.1l0.1-0.1l0.1-0.1l0.2-0.2l0.1-0.1l0.1-0.2l0.1-0.2l0.1-0.2l0.2-0.2l0.2-0.1l0.2-0.2l0.1-0.1l0.1-0.2
		l0.1-0.1l0.1-0.4V118v-0.2v-0.2v-0.2v-0.2l0-0.1l0-0.2l0-0.2l-0.1-0.4l0-0.2l0-0.3l0-0.1v-0.2l-0.1-0.1l-0.1-0.1l-0.3-0.2l-0.2-0.1
		l-0.1-0.1l-0.1-0.2l-0.1-0.1l-0.2-0.2l-0.3-0.3l-0.1-0.1l-0.1-0.1l-0.1-0.2l-0.1-0.3l-0.1-0.3V113l0-0.2l0.1-0.3l0.1-0.3l0.2-0.3
		l0.2-0.4l0.1-0.3v-0.1l0-0.3l0-0.2l-0.1-0.3h-0.3l-0.1,0.1l-0.1,0.2l-0.2,0.1l-0.2,0h-0.2h-0.2l-0.3-0.2l-0.1-0.1l-0.1-0.1
		l-0.3-0.1l-0.4,0.1l-0.1,0l-0.1-0.1l-0.2-0.1l-0.3,0V110l-0.1-1l0-0.2l-0.1-0.3l-0.1-0.3l0-0.1l0.1-0.3l0.1-0.2l0.2-0.1l0-0.2
		l-0.1-0.3l-0.3-0.3l-0.1-0.1l-0.3-0.1l-0.2-0.1l0-0.1l0.2-0.3l0.3-0.1l0.2,0l0.2,0l0.1,0l0.2,0l0.3-0.2l0.1-0.1l0.2-0.1l0.2-0.1
		l0.2,0l0.2,0l0.3,0l0.4,0l0.3,0.1l0.4-0.2h0.2l0.2-0.1l0.1-0.1l0.2-0.1l0.1-0.1l0.3-0.2l0.3,0.1l0.2-0.1l0.3-0.2l0.2,0.1l0.1,0.3
		l0.1,0.2l0.2,0l0.2-0.3l0.1-0.1l0.2,0.1l0.2,0.3l0.1,0.4l0,0.2l0.2,0.3l0.1,0.1l0.2,0.1l0.3,0.1h0.2l0.2,0l0.2-0.1l0.1,0l0.2-0.1
		l0.3-0.1l0.3-0.1h0.2l0.1,0l0.3,0.3l0,0.3v0.2l0.1,0.3l0,0.1l0.1,0.1l0.3,0.1l0.2,0l0.2-0.1l0.3,0l0.3-0.1l0.3-0.1l0.2-0.1l0.1-0.1
		l0.1-0.1l0.1-0.2l0.1-0.1l0.1-0.1l0.1-0.1l0.2-0.1l0.3,0l0.2,0l0.2,0l0.2,0.1l0,0.2l0,0.3l0.3,0h0.2h0.2h0.2l0.2,0.1l0.2,0.2
		l0.1,0.2l0.1,0.1l0.3,0l0.3,0l0.3,0h0.2l0.2,0h0.2h0.2l0.2,0l0.2,0h0.3h0.2h0.3l0.2-0.1l0-0.3l-0.1-0.1v-0.3l0.2-0.1l0.2,0.1
		l0.3,0.3l0,0.1l0.1,0.1l0.1,0.1l0.2,0.4l0.2,0l0.3,0l0.4,0.2l0.1,0.1l0,0.3l0.1,0.2l0.1,0.1l0.1,0.1l0.2,0.1l0.2,0.1l0.3,0.1
		l0.3-0.1l0.2-0.1l0.5-0.2l0.5-0.2l0.2,0.1l0.1,0.3l0.1,0.1l0.2,0l0.2,0h0.2h0.2l0.3,0l0.3,0.1l0.3,0.1l0.1,0l0.2-0.1l0.3-0.3h0.2
		l0.2-0.1v-0.2l0.2-0.2l0.3,0.1l0.1,0.3l0.2,0.2l0.3,0.1l0.1-0.1l0.1-0.1l0.2-0.1l0.1,0l0.3,0.2l0.3,0l0.2-0.1l0.3-0.1l0.2,0.1
		l0,0.2l0.1,0.2l0.1,0.2l0.3,0l0.3,0l0.2-0.1l0.3-0.1l0.2,0l0.3,0l0.2,0l0.2,0.1l0.1,0.1l0.2,0.1l0.3-0.1l0.2-0.1l0.2,0l0.3-0.1h0.2
		l0.3,0.2l0,0.1l0,0.3l0.1,0.2l0.2,0h0.2l0.3-0.1h0.2l0.3,0h0.3h0.2l0.1-0.1l0.1-0.1l0.1-0.2h0.2l0.3,0.1l0.1-0.1l0.4-0.4l0.3-0.1
		h0.2h0.2l0.2,0h0.2l0.5,0l0.1,0.1l0.2,0.1l0.1,0l0.3-0.1l0.2,0.1l0.1,0.1l0.3,0.1h0.2l0.2-0.1l0.2,0l0.2,0l0.3,0.2l0.2-0.1h0.3
		l0.2,0.4l0,0.2l0,0.2l0.1,0.3l0.1,0.1l0.1,0.2l0.1,0.1l0.2,0.1l0.1,0.1l0.1,0.1l0.1,0.2l0,0.3l0.1,0.2l0.2,0.2l0.1,0.1l0.1,0.1
		l0.3,0.5l0.3,0.2l0.2,0.2v0.2l0,0.2l0.1,0.3l0,0.3l0.1,0.2l0,0.3l0.2,0.1l0.2,0l0.2,0h0.2l0.2,0l0.2,0.1l0.1,0.1l0,0.2l-0.1,0.2
		l-0.1,0.1l-0.2,0.4l0.1,0.3l0.3,0.1l0.2,0l0.2,0h0.2h0.1h0.2l0.2,0h0.3h0.2h0.2l0.2,0l0.3,0.1h0.3l0.2,0h0.3l0.2,0h0.2l0.7,0.2
		l0.2,0.1l0.2,0.1l0.3,0.2l0.2,0.2l0.1,0.1l0.1,0.1l0.1,0.1l0.1,0.2l0.1,0.1l0.2,0.1l0.1,0.1l0.2,0.2l0.2,0.1l0.3,0.1l0.3,0.1l0.2,0
		l0.2,0l0.2,0l0.2,0l0.3,0.1l0.3,0l0.2,0.1h0.2h0.4l0-0.2v-0.2l0.1-0.3l0-0.2l0.1-0.3l0-0.2V117l0-0.2v-0.1l0-0.2v-0.2l0-0.3v-0.2
		v-0.2v-0.2v-0.2v-0.2l0-0.3l0-0.2l0-0.2l0-0.3V114l0-0.2v-0.2l0-0.1v-0.2l0-0.2v-0.3l-0.2-0.3l-0.3-0.7l-0.2-0.5l0-0.1l-0.1-0.3
		l-0.1-0.2l-0.1-0.2l-0.1-0.2l-0.1-0.3l-0.1-0.3l-0.1-0.1l-0.1-0.2l-0.1-0.1l-0.3-0.3l-0.1-0.1l-0.1-0.2l-0.1-0.1l-0.2-0.3v-0.2
		v-0.2l0.1-0.4l0-0.2l0-0.2l0.1-0.3l0.1-0.4l0.1-0.3l0.3-0.7l0.1-0.2l0.1-0.2l0.2-0.3l0.2-0.3l0.1-0.3l0.2-0.2l0.1-0.2l0.1-0.2
		l0.2-0.1l0.3-0.1l0.2,0l0.2-0.1l0.1-0.1l0.2-0.2l0.6-1.4l0.1-0.3l0-0.2l0.1-0.3l0.2-0.6l0.1-0.1l0.1-0.2l0.1-0.2l0.1-0.2l0.4-1
		l0.3-0.2h0.2l0.2,0h0.2l0.3,0l0.2,0l0.2-0.1l0.1-0.1l0.2-0.1l0.1-0.1l0.1-0.1l0.1-0.1l0.1-0.3l0.1-0.2l0.2-0.2l0.2-0.4l0.1-0.2
		l0.1-0.2l0.1-0.1l0.1-0.1l0.1-0.1l0.1-0.1l0.1-0.1l0.1-0.1l0.1-0.1l0.1-0.2l0.1-0.1l0.2-0.2l0.2-0.2l0.2-0.2l0.1-0.1l0.1-0.1
		l0.1-0.2l0.1-0.1l0.1-0.1l0.1-0.1l0.1-0.1l0.1-0.1l0.1-0.1l0.1-0.1l0.2-0.2l0.2-0.1l0.1-0.1l0.1-0.1l0.2-0.1l0.1-0.1l0.1-0.1
		l0.1-0.1l0.1-0.1l0.1-0.1l0.2-0.1l0.1-0.1L246,91l0.1-0.2l0.1-0.1l0.2-0.2l0.1-0.2l0.1-0.1l0.1-0.1l0.1-0.2l0.1-0.1l0.1-0.1
		l0.2-0.2l0.1-0.1l0.1-0.1l0.2-0.2l0.1-0.2l0.3-0.2l0.1-0.2l0.3-0.2l0.1-0.1l0.1-0.1l0.1-0.1l0.1-0.1l0.1-0.1l0.1-0.2l0.2-0.1
		l0.1-0.1l0.1-0.1l0.1-0.1l0.1-0.1l0.1-0.1l0.4-0.2l0.2-0.4l0.1-0.1l0.1-0.1l0.2-0.1l0.2-0.2l0.2-0.3l0.1-0.2l0.1-0.2l0.1-0.1
		l0.1-0.1l0.2-0.3l0.2-0.2l0.1-0.2l0.1-0.2l0.1-0.2l0.1-0.2l0.1-0.2l0.1-0.2l0.1-0.1l0.1-0.1l0.2-0.3l0-0.1l0.1-0.1l0.1-0.2l0.2-0.3
		l0.1-0.1l0.2-0.3l0.1-0.2l0.2-0.2l0.2-0.2l0.1-0.1l0.1-0.3l0.1-0.1l0.1-0.1l0.1-0.2l0.2-0.4l0.2-0.1l0.2,0l0.2,0l0.2,0.1l0.3,0.1
		l0.2-0.1l0.5-1.2l0.1-0.4l0.1-0.2l0.3-0.3l0.3-0.1l0.1-0.1l0.1-0.1l0.3-0.1l0.3-0.2l0.2-0.1l0.1-0.1l0.3-0.2l0.2-0.2l0.1-0.1
		l0.1-0.1l0.1-0.2l0.1-0.2l0.1-0.2L260,75l0.2-0.3l0.1-0.3l0.1-0.1h0.2l0.2-0.1l0.2-0.1l0.3-0.1l0.1,0l0.3-0.1l0.1-0.1l0.2-0.1
		l0.1-0.1l0.1-0.2v-0.2l0-0.2l0.1-0.1l0.1-0.2l0.1-0.1l0.1-0.2l0.1-0.1l0.1-0.1l0.2-0.2l0.1-0.1l0.2-0.4l0.1-0.2l0.1-0.2l0.3-0.7
		l0-0.2l0-0.2l0.2-0.1l0.2,0l0.2,0l0.7,0.2l0.2,0l0.2,0l0.2,0l0.2,0.1h0.2l0.2,0.3l0.1,0.2l0.1,0.1l0.1,0.1l0.1,0.2l0.2,0.3l0,0.2
		l0.1,0.3l0.1,0.1l0.3,0.4l0.1,0.1l0.4,0.2h0.3l0.1,0.1l0.1,0.1l0.2,0.2l0.1,0.1l0.3,0l0.1,0l0.1,0.1l-0.3,0.3v0.2l0.2,0.5l0.7,0.7
		l1,1.1l0.6,1l1.2,0.9l0.4,0.9l1.8,0.5l0.6,0.9l0,0.6l0.8,0.6l1,1l1.5,0l0.2,0.2l0.1,0.1l0.1,0.1l0.1,0.1l0.2,0.1l0.2,0.2l0.1,0.1
		l0.2,0.1l0.1,0.1l0.2,0.1l0.2,0h0.2h0.3l0.2-0.1l0.3-0.1l0.2-0.1l0.4-0.1h0.1l0.2,0l0.2,0.1h0.2l0.7,0.3l0.2,0.1l0.1,0l0.3,0.1h0.2
		h0.1l0.3,0.3l0.1,0.1l0.1,0.1l0.3,0.1l0.3,0l0.2,0h0.2l0.4,0l0.2,0l0.3,0.1l0.1,0.3l0,0.3l0.1,0.1l0.2,0.1l0.1,0.3L288,86h0.2h0.2
		l0.1,0l0.5-0.2h0.1h0.2l0.5,0.2l0.2,0.1l0.3,0.1l0.6,0.2l0.4,0.1l0.2,0l0.3,0l0.3-0.1l0.2,0l0.2,0h0.2l0.2,0h0.2h0.3h0.2l0.4,0.2
		l0.2,0.1l0.3,0.1l0.1,0h0.4h0.3l0.4,0.2l0.2,0.1l0.3,0.2l0.1,0.1l0.2,0.2l0.2,0.1l0.2,0.1l0.2,0.1l0.2,0.1l0.2,0.1l0.2,0.2l0.2,0.2
		l0.3,0l0.4,0.2h0.3l0.5,0.2l0.2,0.1l0.4,0.1l0.3,0l0.4-0.1l0-0.2l0.3-0.1l0.2,0l0.2,0l0.5,0.1l0.1,0l0.2,0l0.2-0.1l0.1-0.1l0.1-0.1
		l0.2,0l0.1,0.2l0.1,0.2l0.1,0.3l0.1,0.2h0.2l0.2,0l0.2,0l0.2,0.1l0.1,0.1l0.3,0h0.2h0.2h0.3l0.3,0.1l0.3,0.1l0.3,0.2l0.2,0.1
		l0.3,0.1l0.2,0.1l0.3,0.1l0.4,0v-0.2l0-0.3l0.1-0.3l0.1-0.2l0.1-0.2l0.1-0.2l0.3-0.3l0.3-0.2l0.3-0.1l0.2-0.1l0.3-0.2l0.2-0.1
		l0.3-0.2l0.2-0.1l0.1-0.1l0.1-0.1l0.3-0.2l0.1-0.1l0.1-0.1l0.2-0.1l0.1,0l0.2-0.2l0.2-0.1l0.2-0.1l0.2-0.1l0.1-0.1l0.1-0.1l0.2-0.2
		l0.2-0.6l0.2-0.6v-0.2l-0.1-0.2l0.2-0.3l0.1-0.1l0.2-0.2l0.1-0.2l0.1-0.1l0.1-0.1l0.1-0.1L313,83l0-0.3l0-0.2v-0.2l0-0.3l0-0.2
		v-0.3v-0.2l0-0.2v-0.2l0-0.2l-0.2-0.3l-0.1-0.1l-0.2-0.4l0-0.2l0-0.3l0-0.3l0.1-0.2l0.1-0.3l0-0.2l0-0.3l0-0.3l0.2-0.7l0.1-0.3
		v-0.1l0.1-0.3l0-0.2v-0.1l0-0.3l0-0.2l0-0.2l0-0.2l0-0.3l0-0.2l0-0.3l0-0.3l0-0.1l0-0.2l0-0.3l0.1-0.2l0-0.2l0-0.2l0-0.3l0-0.2
		l0-0.3l0-0.2l0.2-0.6l0.1-0.4l0-0.2l0-0.2v-0.1l0-0.2l0-0.1l0.1-0.4l0-0.2v-0.2l0.1-0.3v-0.2l0-0.2l0-0.2l0-0.2l0-0.2l0-0.2
		l0.1-0.3l0.3-0.8l0-0.2l0-0.3l0-0.2l-0.1-0.3l0.1-0.2l0.1-0.1l0.3,0.1l0-0.2l0-0.3l0.2-0.6l0.3-0.7l0.1-0.2l0.1-0.2l0.1-0.2
		l0.1-0.2l0.1-0.3l0.1-0.2l0.1-0.2l0.1-0.2l0.1-0.2l0.1-0.2l0-0.1l0.2-0.1l0.1-0.1l0.1-0.1l0.1-0.1l0.2-0.2l0.2-0.1l0.1-0.1l0.3-0.2
		l0.1-0.1l0.1-0.1l0.2-0.1l0.3-0.2l0.3-0.2l0.2-0.1l0.3-0.1l0.5-0.3l0.2-0.1l0.2-0.2l0.1-0.2l0.2-0.4l0-0.1l0.1-0.2l0.1-0.2l0.1-0.2
		l0.2-0.3l0.1-0.1l0.2-0.2l0.2-0.1l0.1-0.1l0.2-0.1l0.2-0.1l0.4-0.2l0.5-0.2l0.2-0.1l0.2,0h0.2h0.3h0.2h0.2l0.3,0l0.7,0.3l0.3,0.1
		l0.4,0.1l0.8,0.2l0.3,0.1l0.2,0.1l0.1,0l0.2,0.1l0.3,0.2l0.3,0.1l0.1,0.1l0.3,0.1l0.3,0.1l0.4,0.2l0.3,0.1l0.4,0.1l0.6,0.1l0.2-0.2
		l0.1-0.1l0.2-0.2l0.3-0.2l0.1-0.1l0.3-0.1l0.2-0.1l0.5-0.1l0.2,0.1l0.3,0l0.1,0l0.2,0.1l0.3,0.1l0.2,0.2l0.1,0.2l0.1,0.1l0.3,0h0.2
		l0.2,0h0.3l0.2,0l0.2,0l0.2,0l0.1,0h0.2h0.2l0.2,0h0.2h0.1l0.2,0l0.2,0l0.2,0l0.3-0.1l0.2,0l0.1-0.1l0.1-0.1l0.1-0.1l0.1-0.1
		l0.1-0.2l0.2-0.2l0.1-0.1l0.1-0.2l0.1-0.1l0.1-0.1l0.1-0.1l0.2-0.1l0.3-0.2l0.4-0.2l0.2,0l0.2,0l0.2,0h0.2l0.2-0.1l0.1-0.1l0.2-0.1
		l0.2-0.1l0.3-0.1l0.3-0.2l0.2-0.1l0.1-0.1l0.1-0.1l0.4-0.3l0.2-0.2l0.1-0.2l0.1-0.2l0-0.3l0-0.2l0-0.1V53v-0.2v-0.1l0.2-0.4
		l0.1-0.2l0.3-0.1l0.1,0l0.2,0l0.2,0l0.3-0.1l0.1,0l0.2-0.1l0-0.3l0-0.2l-0.1-0.2l-0.1-0.3l-0.1-0.3l0-0.1L345,50l0-0.3l0-0.1
		l-0.1-0.2l0-0.1V49v-0.2v-0.5v-0.1l0-0.2v-0.2l0.1-0.2l0-0.1l0.1-0.2l0.1-0.1l0.1-0.1l0.2-0.2l0.3-0.2l0.1-0.1l0.3,0l0.2-0.1
		l0.3-0.1l0.1,0l0.2,0l0.2,0l0.1-0.1l0.3-0.1l0.1-0.1l0.1-0.1l0.1-0.2l0.1-0.2l0.1-0.3l0.1-0.1l0.1-0.1l0.2-0.3l0.1-0.1l0.2,0l0.3,0
		h0.2l0.1,0l0.3,0.1l0.3,0.1h0.3l0.2,0l0.3,0l0.4,0.2l0.2,0.1l0.2,0.1l0.1,0.1l0.1,0.3h0.2h0.2h0.2l0.2,0l0.3-0.1l0.3,0h0.2l0.3,0.1
		l0.1,0.3l0.1,0.2l0.3,0.1l0.2,0.1l0.1,0.1l0.1,0.3v0.2l0.3,0.4l0.1,0l0.2,0l0.3,0.1l0.1,0.1l0.1,0.2l0.1,0.2l0.2,0.1l0.1,0.1
		l0.3,0.1l0.1,0.1l0.1,0l0.1,0.1l0.1,0.1l0.2,0.1l0.1,0.1l0.1,0.1l0.1,0.2l0.2,0l0.2,0l0.2,0l0.2-0.1l0.2,0l0.1,0h0.3h0.2h0.2l0.1,0
		l0-0.3v-0.2l-0.1-0.3l0-0.1l0.2-0.2h0.1h0.2l0.3,0.2l0.2,0.1l0.1,0.1l0.4,0.1l0.4-0.2h0.2l0.1,0.1l0.2,0.1l0.3,0.1l0.3,0h0.2l0.2,0
		l0.2,0l0.2-0.1l0.2-0.1h0.1l0.2,0l0.2,0.1L363.9,48.2L363.9,48.2"/>
</g>
</svg>
