<?xml version="1.0" encoding="utf-8"?>
<!-- Generator: Adobe Illustrator 27.0.0, SVG Export Plug-In . SVG Version: 6.00 Build 0)  -->
<svg version="1.1" id="Layer_1" xmlns="http://www.w3.org/2000/svg" xmlns:xlink="http://www.w3.org/1999/xlink" x="0px" y="0px"
	 viewBox="0 0 500 500" style="enable-background:new 0 0 500 500;" xml:space="preserve">
<style type="text/css">
	.st0{fill:#E74646;stroke:#FFFFFF;stroke-width:4.6041;stroke-linecap:square;stroke-linejoin:bevel;stroke-miterlimit:3.998;}
</style>
<g transform="matrix(0.999751,0,0,0.999751,18.6633,21.7738)">
	<path vector-effect="none" class="st0" d="M428.7,98.2v0.6v0.6l-0.2,0.6v0.6l-0.2,0.5l-0.2,0.6l-0.1,0.5l-0.2,0.6l-0.2,0.5
		l-0.3,0.4l-0.4,0.5l-0.5,0.3l-0.5,0.3l-0.5,0.3l-0.4,0.5l-0.3,0.4l-0.3,0.5l-0.3,0.5v0.6l0.7,0.4l0.5,0.2l-0.1,0.6L425,109
		l-0.2,0.5l-0.2,0.5l-0.2,0.6l-0.1,0.5l-0.2,0.6l-0.2,0.5l-0.2,0.6v0.6l-0.2,0.5l-0.3,0.5l-0.3,0.5l-0.2,0.5l-0.3,0.5l-0.5,0.4
		l-0.5,0.3l-0.2-0.4v-0.6l-0.4-0.5l-0.5-0.2l-0.6-0.2l-0.5-0.1l-0.6-0.1l-0.6-0.2l-0.5-0.1l-0.6-0.1l-0.6,0.1l-0.5,0.2l-0.6,0.2H415
		l-0.6,0.2l-0.5,0.2l-0.5,0.3l-0.4,0.4l-0.4,0.5l-0.5,0.2l-0.5,0.4l-0.5,0.3l-0.5,0.3l-0.5,0.2l-0.5,0.4l-0.5,0.2l-0.6,0.1l-0.5,0.2
		l-0.5,0.3l-0.5,0.3l-0.4,0.4l-0.5,0.4l-0.5,0.3l-0.3,0.4l-0.5,0.3l-0.9,0.1l-0.3-0.3l-0.2-0.6l-0.2-0.5l0.1-0.6l-0.1-0.6l-0.4-0.4
		l-0.5-0.4l-0.5-0.1h-0.6l-0.5,0.3l-0.3,0.4l-0.4,0.5l-0.5,0.3l-0.5,0.3l-0.5,0.1h-0.6l-0.1-0.6l0.3-0.4l-0.2-0.4l-0.6-0.1l-0.5,0.2
		l-0.5,0.2h-0.6h-0.6l-0.6,0.1l-0.5,0.2l-0.6,0.1l-0.5,0.2l-0.6,0.1l-0.6,0.1h-0.6h-0.5l-0.6-0.2l-0.5-0.2l-0.5-0.2l-0.6-0.2
		l-0.5-0.1l-0.6-0.2l-0.5-0.2l-0.4-0.4l-0.5-0.4l-0.3-0.5l-0.2-0.5l-0.2-0.5v-0.6l-0.1-0.6l-0.2-0.5l-0.5-0.3l-0.4-0.3l-0.5-0.4
		l-0.5-0.4l-0.5-0.2l-0.6-0.1l-0.5-0.1l-0.5-0.4l-0.3-0.5H381l-0.4-0.4l-0.4-0.4l-0.5-0.2l-0.6-0.2l-0.5-0.2l-0.6,0.2l-0.4,0.4
		l-0.4,0.4l-0.3,0.5l-0.3,0.5l-0.3,0.5l-0.4,0.4l-0.4,0.5l-0.4,0.4l-0.2,0.5v0.6l-0.2,0.5l-0.5,0.4l-0.5,0.4l-0.4,0.4l-0.5,0.2
		l-0.5,0.3l-0.3,0.5l-0.2,0.6l0.2,0.5l-0.3,0.5l-0.5,0.3l-0.5,0.2l-0.6,0.1l-0.5,0.3l-0.5,0.4l-0.5,0.3l-0.5,0.2l-0.3,0.3l-0.6-0.1
		l-0.5-0.3l-0.5-0.4l-0.2-0.5l-0.3-0.5l-0.2-0.6v-0.5v-0.6l-0.5-0.5l-0.4-0.3l-0.6-0.1h-0.6l-0.6-0.2l-0.5-0.2l-0.5-0.2l-0.5-0.2
		l-0.4-0.5l-0.4-0.5l-0.5-0.4l-0.4-0.4l-0.2-0.6l0.1-0.6v-0.6v-0.6L360,111l-0.6-0.1l-0.5-0.1l-0.6-0.1l-0.5-0.2l-0.6-0.1l-0.6-0.1
		h-0.6l-0.4,0.4l-0.3,0.5l-0.3,0.5l-0.3,0.5l-0.3,0.4l-0.2,0.5l-0.1,0.6l-0.1,0.5l-0.3,0.6l-0.2,0.5l-0.3,0.5l-0.3,0.5l-0.3,0.4
		l-0.4,0.5l-0.4,0.4l-0.4,0.4l-0.4,0.5l-0.3,0.4l-0.4,0.5l-0.5,0.4l-0.4,0.3l-0.5,0.4l-0.5,0.2l-0.6,0.1l-0.2,0.6l-0.4,0.3l-0.5,0.2
		l-0.3,0.5l-0.4,0.4l-0.5,0.3l-0.5,0.3l-0.5,0.4l-0.4,0.4l-0.4,0.4l-0.5,0.4l-0.3,0.4l-0.3,0.5l-0.1,0.6v0.6l-0.5,0.4l-0.5,0.3
		l-0.5,0.2h-0.6l-0.6,0.1h-0.6l-0.5,0.1l-0.6,0.2l-0.3,0.2l0.3,0.5l0.4,0.4l0.5,0.3l0.4,0.5l0.1,0.5l-0.3,0.5h-0.6l-0.6-0.1
		l-0.5-0.2l-0.6-0.1l-0.1,0.6l0.1,0.5l0.1,0.6l0.5,0.3l0.4,0.4l-0.1,0.6v0.6h0.5l0.5-0.4l0.3-0.5l0.5-0.3l0.5-0.3l0.5-0.3l0.5-0.2
		l0.6,0.1l0.5,0.3l0.4,0.4l0.4,0.5l0.3,0.5l0.3,0.5l0.2,0.5v0.6l0.2,0.5l0.1,0.6l0.2,0.5l0.2,0.5l0.5,0.4l0.5,0.3l0.1,0.6l-0.1,0.9
		l-0.1,0.6l-0.1,0.5l-0.1,0.6l-0.1,0.6v0.6l-0.1,0.6l-0.3,0.4h-0.6l-0.6,0.1l-0.5,0.3l-0.2,0.5l-0.2,0.6l-0.4,0.3l-0.6,0.3l-0.3,0.4
		v0.6v0.6v0.6l0.1,0.6l0.3,0.5l0.4,0.4l0.1,0.6l0.1,0.5l0.1,0.6l0.5,0.3l0.6,0.1l0.6,0.1l0.5,0.2l0.1,0.6l-0.1,0.6l-0.2,0.5
		l-0.1,0.6l-0.4,0.4l-0.4,0.5l-0.2,0.5l0.1,0.6v0.6l-0.4,0.4l-0.1,0.6l0.1,0.5l0.3,0.5l0.1,0.6l0.1,0.5l0.3,0.8l0.6,0.1l0.5,0.3
		l0.5,0.3l0.4,0.4l0.3,0.5l0.2,0.5v0.6l0.2,0.6l0.5,0.2l0.5,0.2l0.6,0.2l0.5,0.2l0.5,0.2l0.6,0.2l0.6,0.1h0.6l0.3,0.1l0.5-0.2
		l0.5-0.2l0.6-0.2l0.5-0.2h0.6l0.6,0.1l0.5,0.2l0.5,0.2l0.6,0.2l0.5,0.2l0.4-0.3l0.5-0.2l0.5-0.2h0.6h0.6h0.6l0.5-0.4v-0.6v-0.6
		l0.1-0.6l0.1-0.5l0.2-0.6l0.2-0.5l0.4-0.4l0.4-0.4l0.4-0.5l0.4-0.4l0.4-0.4l0.3-0.6l0.4-0.4l0.5-0.2h0.6l0.5-0.1l0.6,0.2l0.4,0.4
		l0.5,0.3l0.5,0.2l0.6,0.2l0.5,0.1l0.5,0.2l0.6,0.2l0.6,0.1l0.5,0.1l0.6,0.1h0.6h0.6l0.6-0.1l0.6-0.1h0.5h0.6l0.6-0.1l0.6-0.2
		l0.4-0.3l0.4-0.4l0.4-0.5l0.5-0.4l0.3-0.5l0.1-0.5l0.3-0.5l0.2-0.5l0.2-0.6l0.2-0.5l0.3-0.5l0.6-0.1l0.4,0.3l0.3,0.5l0.3,0.5
		l0.3,0.5l0.2,0.5l0.2,0.5l0.2,0.6l0.2,0.5l0.1,0.6l0.1,0.5v0.6v0.6v0.6l-0.1,0.6l0.2,0.6l0.3,0.5l0.5,0.1l0.6-0.1h0.5h0.6h0.7
		l0.5,0.1l0.6,0.1l0.6,0.1l0.5,0.3l0.4,0.3l0.1,0.6l0.1,0.6l-0.3,0.4v0.7v0.6l0.3,0.4h0.6l0.5,0.2l0.4,0.5l0.3,0.5l0.2,0.5l0.4,0.4
		l0.2,0.6l0.1,0.6v0.5v0.6l0.3,0.5l0.6,0.2l0.5,0.2l0.1,0.6v0.6v0.6l0.1,0.5l0.2,0.6l0.2,0.5v0.6l-0.2,0.5l-0.5,0.3l-0.3,0.5
		l-0.3,0.5l-0.5,0.2l-0.6,0.1l-0.6,0.1l-0.5,0.2l-0.5,0.2l-0.5,0.3l-0.5,0.3l-0.4,0.5l-0.2,0.4l-0.4,0.3l-0.4,0.4l-0.4,0.5l-0.4,0.4
		l-0.4,0.5l-0.2,0.5v0.6v0.6v0.6l-0.2,0.6l-0.2,0.5l-0.2,0.5l-0.2,0.5l-0.3,0.5l-0.3,0.5l-0.4,0.5l-0.1,0.5v0.6l0.1,0.6l0.1,0.5v0.7
		l-0.3,0.5l-0.4,0.4l-0.4,0.3l-0.5,0.3l-0.5,0.3H380l-0.4,0.4l-0.1,0.6l0.1,0.5l0.1,0.6v0.6l-0.1,0.6l-0.1,0.6l-0.1,0.5l-0.3,0.5
		l-0.4,0.6l-0.3,0.5l-0.3,0.5l-0.3,0.5l-0.4,0.5l-0.2,0.3l0.2,0.8l-0.3,0.4l-0.5,0.3l-0.4,0.4l-0.4,0.4v0.6l0.2,0.5l0.3,0.5l0.3,0.5
		l-0.2,0.6l-0.3,0.5l-0.2,0.5l-0.3,0.5l-0.1,0.5l-0.1,0.6l-0.1,0.6l-0.2,0.5l-0.4,0.4l-0.4,0.5l-0.3,0.5l-0.2,0.5l-0.1,0.6l0.2,0.5
		l-0.1,0.6l-0.4,0.4l-0.5,0.2h-0.6l-0.5-0.3l-0.5-0.3l-0.4-0.4l-0.4,0.3l-0.1,0.5l-0.1,0.6l-0.1,0.6v0.6l-0.2,0.6l-0.2,0.5l-0.2,0.5
		l-0.1,0.5l-0.1,0.6l0.1,0.6l0.1,0.6l0.2,0.5l0.3,0.5l0.3,0.4l0.4,0.5l0.5,0.5l0.3,0.4l0.4,0.4l0.6,0.2h0.6l0.6-0.1l0.6,0.2h0.6
		l0.5,0.2l0.4,0.4l0.1,0.6l-0.1,0.6v0.5l0.1,0.6l0.1,0.6l-0.2,0.5l-0.1,0.6l-0.2,0.5l-0.1,0.3l0.2,0.9l0.6,0.1l0.4-0.4l0.3-0.5
		l0.3-0.5l0.4-0.4l0.4-0.4l0.6-0.2l0.5,0.1l0.6,0.2l0.5,0.3l0.6-0.1l0.5-0.2l0.5-0.3l0.4-0.2l0.4,0.3l-0.1,0.6l0.1,0.6v0.5l-0.4,0.5
		l-0.2,0.5l-0.2,0.5v0.6v0.6v0.7l-0.1,0.6l0.1,0.6l-0.1,0.5l-0.2,0.6l-0.2,0.5l-0.1,0.6l0.4,0.3l0.5-0.2l0.4-0.5l0.4-0.2l0.6,0.1
		l0.5,0.3l0.4,0.4l0.5,0.3l0.5,0.2l0.5,0.2l0.6,0.1l0.4,0.4l-0.1,0.6l-0.1,0.5v0.7l-0.1,0.6l0.1,0.5l0.1,0.6l0.3,0.5l0.5,0.2h0.6
		h0.5h0.6l0.5,0.3l0.5,0.2l0.5,0.3l0.4,0.5l0.5,0.2l0.6-0.1l0.5-0.2l0.6-0.1l0.5,0.2l0.4,0.4l0.4,0.5l0.6,0.1l0.4,0.4l0.1,0.5
		l0.1,0.6l-0.4,0.4l-0.4,0.4l-0.1,0.6l0.4,0.3l0.3,0.5l0.2,0.6v0.6v0.5l-0.4,0.4l-0.6-0.1l-0.5-0.4l-0.4-0.4l-0.3-0.5l-0.4-0.4
		l-0.5-0.4l-0.4-0.4h-0.6l-0.5,0.2l-0.2,0.5l-0.2,0.5l-0.2,0.6l-0.1,0.5l-0.1,0.6l-0.1,0.6l-0.3,0.5l-0.2,0.5l-0.2,0.5l-0.2,0.6
		l-0.3,0.5l-0.2,0.5l-0.3,0.5l-0.4,0.6l0.2,0.5l0.2,0.5l0.4,0.5l0.3,0.5v0.6l-0.1,0.5l-0.2,0.5l-0.1,0.6v0.6l-0.2,0.5l-0.3,0.5
		l-0.4,0.5l-0.4,0.4l-0.4,0.5l-0.5,0.3l-0.4,0.4l-0.4,0.4l-0.4,0.5l-0.2,0.5l-0.3,0.5l-0.5,0.3l-0.5,0.3l-0.5,0.3l-0.4,0.3l-0.5,0.4
		l-0.3,0.5l-0.3,0.5l-0.3,0.4l-0.3,0.5l-0.4,0.5l-0.5,0.3l-0.3,0.5l-0.3,0.5l-0.3,0.5l-0.3,0.5l-0.1,0.5l-0.2,0.5l-0.1,0.6l-0.2,0.5
		v0.6l0.2,0.5l0.4,0.5l0.1,0.4l-0.5,0.4l-0.3,0.5l-0.3,0.5l-0.5,0.3l-0.3,0.5l-0.2,0.5l-0.2,0.6l-0.2,0.5l-0.1,0.6v0.6v0.6l0.1,0.5
		l0.1,0.6l0.2,0.5l0.1,0.6l0.2,0.5l0.1,0.5l0.2,0.6l0.2,0.5l0.1,0.6l0.1,0.5l0.1,0.6l0.2,0.8l0.3,0.4l0.2,0.5l0.2,0.6v0.5l0.3,0.5
		l0.3,0.5l0.2,0.5l0.3,0.5l0.2,0.6l-0.1,0.5l0.4,0.4l0.4,0.4l0.4,0.5l0.4,0.4l0.3,0.5l0.1,0.6l-0.2,0.5l-0.2,0.5l0.3,0.5l0.5,0.2
		l0.6,0.1l0.4,0.3l0.5,0.3l0.4,0.5l0.4,0.4l0.2,0.6l-0.1,0.5l0.4,0.5l0.5,0.3l0.5,0.1h0.6l0.5-0.3l0.2-0.5l0.2-0.6v-0.5v-0.6
		l-0.1-0.6v-0.6l-0.2-0.5l-0.2-0.5l0.1-0.6v-0.6l-0.1-0.9l0.4-0.4l0.5-0.2l0.5-0.1l0.6-0.2l0.5-0.3l0.5-0.2l0.5,0.1l0.6,0.1l0.6,0.2
		l0.5,0.1h0.6l0.6,0.1l0.6,0.1l0.6,0.1l0.5,0.2l0.5,0.2l0.6,0.2l0.5,0.1l0.6,0.2l0.5,0.2l0.5,0.2l0.5,0.3l0.4,0.3l0.5,0.4l0.5,0.2
		l0.6,0.1h0.6l0.5-0.1l0.5-0.3l0.5-0.3l0.2-0.5l0.4-0.5l0.4-0.4l0.5-0.2h0.6l0.6,0.1l0.5,0.1l0.6,0.1l0.6,0.1l0.5,0.1l0.5,0.3
		l0.4,0.5l0.3,0.4l0.3,0.5l0.2,0.6l0.1,0.5l-0.4,0.3v0.5l0.5,0.2h0.6l0.5,0.3l0.5,0.2l0.5,0.4l0.4,0.2l0.5,0.3l0.5,0.3l0.4,0.5
		l0.3,0.5l0.1,0.5l-0.2,0.5l-0.3,0.5l-0.1,0.6L413,297v0.6v0.6v0.6v0.5l0.4,0.5l0.4,0.4l0.5,0.5l0.3,0.4l0.4,0.5l0.2,0.5l0.2,0.5
		v0.6l-0.3,0.5l-0.3,0.5l-0.4,0.4l-0.5-0.2l-0.6-0.1l-0.4,0.3l-0.3,0.5v0.6v0.6l0.2,0.4l0.5,0.4l0.5,0.2l0.5,0.3l0.4,0.4l0.4,0.5
		l0.5,0.3l0.4,0.4l0.4,0.4l0.5,0.3l0.5,0.3l0.5-0.1v-0.6l0.1-0.5l0.2-0.5l0.4-0.5l0.6,0.1l0.6,0.1l0.5,0.2l0.4,0.4l0.4,0.5l0.5,0.3
		l0.6,0.2l0.5,0.1l0.5,0.2l0.5,0.4l0.2,0.5l0.3,0.5l0.2,0.5l0.4,0.4l0.5,0.2l0.5,0.2l0.6,0.1h0.6h0.6l0.4,0.3l0.5,0.4l0.5-0.1
		l0.6,0.1l0.3-0.4l0.2-0.6v-0.5v-0.6l0.3-0.5l0.3-0.5l0.5-0.4l0.2-0.5l0.3-0.5l0.4-0.4l0.4-0.4l0.5-0.2l0.8-0.4l1.7,0.5l1,1.2
		l0.7,1.3l0.8,1.2l0.6,1l1.1,0.8l1.4-0.4l1.3-0.8l0.9-0.5l1-0.1l0.9,0.6l1,0.7l1.2,0.9l1.3,0.9h0.7l0.6-0.6l0.3-0.5l0.4-2.4l0.2-0.7
		l0.5-0.4l0.7-0.8l1.1-0.7l1.4-0.3l1.6-0.5l0.6-0.1h0.6l0.6,0.1l0.6,0.2l0.6,0.1l0.8,0.6l0.3,0.5l0.1,0.9v0.6v0.6l-0.1,0.6v0.6v0.6
		v0.6l-0.1,0.9l-0.1,0.6l0.2,0.6l0.5,0.4l0.3,0.6l0.5,0.2l0.9,0.2l0.6,0.2l0.4,0.3l0.6,0.2h0.6l0.6,0.1l0.6,0.1l-0.2,0.5l-0.4,0.4
		l-0.5,0.4l-0.1,0.6v0.6l-0.1,0.5l0.1,0.6l0.2,0.5l0.3,0.5l0.4,0.4l0.5,0.5l0.5,0.2l0.5,0.1l0.5,0.3l0.1,0.5l-0.5,0.3l-0.5,0.3v0.6
		l0.5,0.3l0.3,0.4l-0.3,0.5l-0.3,0.5l-0.5,0.2l-0.6,0.1l-0.5,0.2l-0.4,0.4l-0.3,0.5v0.6v0.6v0.6v0.6l0.1,0.6l0.1,0.5l0.2,0.6
		l0.3,0.4l0.2,0.6l-0.1,0.5l-0.3,0.5l-0.2,0.5l-0.2,0.6l-0.2,0.5l-0.2,0.5l-0.2,0.5l-0.1,0.6l-0.1,0.6l-0.1,0.5l-0.3,0.5l-0.3,0.5
		l-0.4,0.4l-0.2,0.6l0.3,0.5l0.5,0.4l0.2,0.5l0.2,0.4l-0.4,0.4l-0.2,0.5l-0.3,0.5l-0.3,0.5l-0.5,0.4l-0.5,0.1l-0.6-0.1l-0.4,0.5
		l-0.2,0.5l-0.4,0.4l-0.4,0.4l-0.3,0.5l-0.3,0.5l-0.4,0.4l-0.4,0.2l-0.5-0.1l-0.5,0.1l-0.4,0.4l-0.3,0.4l-0.2,0.6v0.6l-0.2,0.3
		l-0.5-0.3l-0.4-0.4l-0.3-0.4v-0.6l0.2-0.5l0.4-0.5l0.4-0.4l-0.2-0.6l-0.4-0.3l-0.6-0.2l-0.5-0.2l-0.5-0.2l-0.6-0.1h-0.6H451
		l-0.6-0.1l-0.4-0.4l-0.1-0.5l-0.4-0.5l-0.6-0.1h-0.6h-0.6l-0.5,0.1l-0.5,0.2l-0.5,0.2l-0.5,0.3l-0.4,0.5l-0.2,0.5v0.6l-0.2,0.6
		l-0.4,0.4l-0.5-0.1l-0.5-0.2l-0.4-0.5l-0.3-0.4l-0.3-0.5l-0.5,0.1l-0.1,0.5v0.6v0.6l-0.1,0.6l-0.2,0.5l-0.4,0.4L441,349l-0.5,0.3
		l-0.4,0.3l-0.5,0.4l-0.4,0.4l-0.5,0.4l-0.4,0.4l-0.5-0.1l-0.5-0.4l-0.5-0.2l-0.6,0.1v0.6l0.3,0.5l0.4,0.4l0.5,0.4l0.3,0.5v0.6
		l-0.4,0.3l0.2,0.5l0.2,0.5l-0.1,0.6l-0.5,0.2l-0.5-0.2l-0.5-0.3l-0.5-0.2l-0.6-0.1h-0.5l-0.6,0.2l-0.1,0.6l-0.2,0.5l-0.2,0.6
		l-0.4,0.3h-0.5l-0.5-0.3l-0.6-0.2l-0.4,0.4l-0.1,0.6l-0.1,0.8l-0.2,0.6l-0.3,0.4l-0.5,0.3l-0.5,0.3l-0.4,0.4l-0.3,0.5v0.6l-0.1,0.6
		l-0.2,0.7l-0.4,0.1l-0.5-0.4l-0.3-0.3l-0.2-0.3l-0.2-0.2l-0.2-0.4l-0.1-0.4l-0.1-0.4l-0.2-0.6l-0.3-0.5l-0.2-0.2l-0.7-0.5l-0.2-0.3
		v-0.4l-0.1-0.4L425,357l-0.4-0.5l-0.6-0.1l-0.5,0.6l-0.5-0.1l-0.4-0.2l-0.2-0.4l-0.3-0.4l-0.6-0.4l-0.3-0.2l-0.3-0.2l-0.6-0.3H420
		l-0.3-0.3l-0.2-0.6v-0.4l0.1-0.5l-0.3-0.6l-0.2-0.4l-0.3-0.7l-0.2-0.5h-0.8l-0.4,0.1l-0.5,0.3l0.2,0.4l-0.7,0.3l0.1,0.4v0.3
		l-0.1,0.3l-0.6,0.7h-0.4l-0.5-0.1l-0.5,0.4l-0.1,0.3l-0.1,0.4l0.1,0.7l-0.4,0.7l-0.7,0.5l-0.1,1.1l-0.2,0.4l-0.3,0.1l-0.3-0.1
		l-0.5-0.4l-0.3-0.2l-0.6-0.3l-0.4-0.1l-0.4-0.1l-1-0.1l-0.6,0.6l-0.1,0.3l-0.2,0.4l-0.5,0.1l-0.3,0.1l-0.8,0.3h-0.3l-0.6-0.3
		l-0.2-0.2l-0.4-0.3l-0.5-0.1l-0.3,0.1l-0.4,0.2l-0.3,0.2l-0.4,0.2l-0.3,0.4l-0.7,0.5l-0.3,0.3l-0.2,0.2l-0.3,0.2l-0.4,0.2l-0.4,0.1
		l-0.3,0.2l-0.4,0.3l-0.7,0.7l-0.5-0.3h-0.3l-0.6,0.3l-0.4,0.2l-0.1,0.5l-0.1,0.5l-0.2,0.6l-0.4,0.5l-0.3,0.1l-0.3-0.2l-0.3-0.3
		l-0.2-0.3l-0.4-0.5l-0.3-0.2h-0.4l-0.5-0.1l-0.5,0.3l-0.2,0.3l-0.3,0.8l-0.1,0.4l-0.1,0.4l-0.3,0.6l-0.3,0.3l-0.2,0.2l-0.5,0.1
		l-1,0.2l-0.4,0.1h-0.5l-0.7,0.1l-0.2,0.4l-0.1,0.6l0.1,0.5l0.1,0.4l0.1,0.3l0.1,0.5v0.4l0.5,1v0.7l0.2,0.3l0.1,0.3l0.1,0.8l0.2,0.6
		l0.2,0.4l0.2,0.4l0.2,0.4l0.1,0.3l0.5,0.5l0.1,0.4l0.1,0.3l-0.1,0.7l-0.8,0.9l-0.3,0.2l-0.4,0.2h-0.4l-0.6,0.2l-0.4,0.3H389
		l-0.3,0.1L388,378l-0.3,0.2l-0.5,0.4l-0.1,0.3l-0.2,0.7l-0.7,0.9l-0.3,0.2l-0.4,0.1l-0.4,0.2l-0.3,0.1l-0.1,0.5l0.2,0.6v0.4
		l-0.4,0.3h-0.5l-0.7-0.1l-0.4,0.1h-0.3l-0.7,0.1l-0.3-0.2l-0.4-0.3l-0.3-0.2l-0.4-0.1l-0.8-0.5l-0.3-0.2l-0.4-0.2l-0.4,0.9v0.5
		l-0.3,0.4l-0.3,0.1l-0.3-0.3l-0.2-0.4l-0.1-0.5l-0.2-0.3l-0.3-0.4l-0.4-0.1l-0.4-0.1l-0.4,0.2l-0.4,0.3l-0.4,0.5l-0.9,0.1l-0.6,0.2
		l-0.2,0.6l-0.2,0.3l-0.1,0.4l-0.3,0.4l-0.4,0.1l-0.5,0.2l-0.3,0.2l-0.2,0.3l-0.2,0.4l-0.4,0.4l-0.5,0.4l-0.7,0.3l-0.6,0.4l-0.4,0.1
		l-0.4,0.2l-0.4,0.1l-0.3,0.2l-0.4,0.2l-0.4,0.3l-0.2,0.5l-0.5,0.8l-0.4,0.1h-0.3l-0.3,0.3l-0.5,0.3l-0.4,0.1l-0.7-0.5l-0.2-0.4
		l-0.1-0.4l-0.3-0.3l-0.3-0.1l-0.4-0.3l-0.4-0.2l-0.3-0.1l-0.3-0.1l-0.8-0.3l-0.6-0.1l-0.7-0.4l-0.4-0.5v-0.7l-0.1-0.3l-0.1-0.4
		v-0.6v-0.5l0.1-0.6l0.1-0.6l0.2-0.3l0.2-0.3l0.2-0.3l0.2-0.7l-0.4-0.2l-0.3-0.2h-0.9l-0.3,0.1h-0.4l-0.4,0.1l-0.4,0.2l-0.4,0.2
		l-0.4,0.2l-0.4,0.1h-1.1l-0.6,0.3l-0.4,0.1l-0.4,0.2h-0.3l-0.4,0.1l-0.9,0.1l-0.3-0.1l-0.5-0.2l-0.5,0.5l-0.3,0.3l-0.2,0.4
		l-0.2,0.5l-0.2,0.3l-0.2,0.4l-0.3,0.4l-0.9,0.8l-0.5,0.5l-0.4,0.4l-0.4,0.5l-0.4,0.6l-0.2,0.4l-0.2,0.4l-0.2,0.4l-0.1,0.8l0.3,0.2
		l0.3,0.2l0.2,0.4v0.7v0.3l-0.2,0.7l-0.4,0.7l-0.1,0.3l-0.2,0.6l-0.2,0.7v0.8l-0.1,0.3l-0.2,0.6v0.3l-0.1,0.4l-0.1,0.5l-0.1,0.3
		l-0.3,0.4l-0.3,0.3l-0.8,1.5l-0.5,0.1l-0.5,0.1l-0.7,0.1l-0.4-0.1l-0.3-0.1l-0.3-0.2l-1.5-1.6l-0.5-0.5l-0.4-0.3l-0.7-0.8l-1.2-1.4
		l-0.5-0.5l-0.4-0.5l-0.5-0.7l-0.4-0.4l-1-1.2l-0.5-0.6l-0.4-0.5l-0.2-0.4l-0.5-0.5l-0.4-0.5l-0.8-0.9l-0.4-0.4l-0.2-0.3l-0.1-0.4
		l-0.4-0.5l-0.4-0.5l-0.4-0.3l-0.4-0.7l-0.2-0.3l-0.4-0.5l-0.6-0.6l-0.7-0.7l-0.8-0.7l-0.3-0.5l-0.3-0.3l-0.3-0.2l-0.5,0.3l-0.5-0.4
		l-0.6,0.5l-0.2,0.4l-0.2,0.3l-0.1,0.5l-0.2,0.4l-0.1,0.3l-0.2,0.4l-0.3,0.3l-0.5,0.5l-0.2,0.3l-0.5,0.6l-0.2,0.3l-0.2,0.4l-0.2,0.3
		l-0.2,0.5l-0.2,0.3l-0.2,1.5l0.1,0.5l-0.4,0.5l-0.1,0.4l-0.2,0.7l-0.1,0.4l-0.3,0.5l-0.1,0.3l-0.1,0.4l-0.5,0.7h-0.4l-0.6-0.4
		l-0.6-0.6l-0.2-0.4l-0.5-0.7l-0.6-0.5l-0.1-0.4l-0.2-0.3l-0.4-0.1l-0.3-0.3l-0.3-0.2l0.2-1.2l-0.4-0.6l-0.5-0.4l-0.3-0.5l-0.2-0.7
		v-0.9l0.3-0.6l0.4-0.6v-0.4l-0.3-0.3l-0.4-0.3l-0.5-0.4l-0.4-0.5l-0.2-0.3l-0.5-0.1l-0.5-0.1l-0.5-0.5l-0.3-0.4l-0.4-0.1l-0.3-0.1
		l-0.4-0.1l-0.3-0.1l-0.4-0.2h-0.4h-0.5l-0.2,0.2l-0.2,0.3l-0.1,0.5l-0.1,0.3v0.4l-0.1,0.6l-0.4,0.4L307,383l-0.5,0.4l-0.2,0.3
		l-0.3,0.6l-0.2,0.3l-0.1,0.5l-0.2,0.9v0.7l-0.1,0.7l-0.2,0.3l-0.4,0.1l-0.6,0.2l-0.4,0.1l-0.3,0.1l-0.4,0.3l-0.4,0.4l-0.3,0.2
		l-0.4,0.2l-0.3,0.1l-0.6,0.1h-0.3l-0.8,0.4l-0.3,0.2l-0.3,0.3l-0.3,0.2l-0.2,0.4l-0.1,0.4l-0.1,0.3l-0.1,0.5l0.1,0.4l0.2,0.3
		l0.3,0.4l0.2,0.4l0.2,1l-0.4,0.3l-0.5,0.2l-0.3,0.1h-0.3l-0.4,0.2l-0.4,0.1l-0.3,0.1l-0.6,0.2l-0.4,0.3l-0.6,0.5l-0.3,0.1l-0.6,0.2
		l-0.4,0.1l-0.7,0.6l-0.2,0.4l-0.2,0.3l-0.1,0.4v0.5l0.2,0.6l0.1,0.4l-0.3,0.4l-0.8,0.1l-0.4-0.1l-1,0.2l-0.3-0.1l-0.3-0.3l-0.2-0.3
		h-0.3l-0.4-0.3l-0.4-0.4l-0.3-0.3l-0.5-0.3l-0.4-0.2l-0.5-0.1l-0.6-0.1l-0.3-0.1l-0.6-0.1l-0.5-0.2l-0.5-0.4l-0.1-0.4l-0.4-0.5
		l-0.1-0.5l-0.1-0.3l-0.4-0.5l-0.1-0.4l-0.4-0.6l-0.2-0.2l-0.2-0.5V393l-0.5-0.6v-0.3l0.2-0.4v-0.4l-0.2-0.4l-0.4-0.1l-0.8-0.6
		l-0.3-0.3l-0.3-0.2l-0.5-0.2l-0.5-0.1l-0.7-0.2l-0.4-0.1l-0.6-0.2l-0.3-0.3l0.1-0.6l-0.3-0.4l-0.4-0.1l-0.3-0.1l-0.4-0.1l-0.2-0.3
		l-0.4-0.6l-0.7-0.2h-0.7l-0.4-0.3v-0.4v-0.7l-0.3-0.6h-0.5l-0.6-0.1l-0.3-0.1l-0.4,0.4l-0.3,0.3h-0.3l-0.4-0.1l-0.5-0.3l-0.5-0.3
		l-0.4-0.4l-0.2-0.3l-0.2-0.5l-0.2-0.2l-0.2-0.3l-0.3-0.2l-0.4-0.1h-0.3l-0.4,0.2l-0.1,0.4l-0.1,0.3l-0.6,0.9l-0.4-0.4l-0.1-0.3
		l0.1-1.1h-0.5l-0.2-0.3l-1-1.1l-0.3-0.3l-0.5-0.4l-0.8-0.8l-0.3-0.1l-0.4-0.1l-0.6-0.1l-0.4,0.4l-0.5,0.2l-0.4,0.1l-0.4,0.4
		l-0.3,0.4l-0.1,0.5l0.2,0.3l-0.1,0.3l-0.2,0.3l-0.4,0.3l-0.3,0.1v0.4l-0.2,0.3l-0.2,0.3l-0.4,0.5l-0.2,0.3h-0.3h-1l-0.4,0.1
		l-0.3,0.3l-0.2,0.8l0.2,0.3l0.5,0.7l0.5,0.5l0.3,0.2l0.3,0.2l-0.3,0.5l-0.4,0.2l-0.3,0.3l-0.4,0.2l-0.4,0.4l-0.3,0.5l-0.4,0.4
		l-0.3,0.3h-0.3l-0.6,0.6l-0.1,0.3l0.5,0.4l-0.2,0.4l-0.3,0.1l-0.3,0.1h-0.6l-0.3,0.1l-0.5,0.7l0.2,0.3v0.5h-0.8l-0.5-0.2l-0.3,0.2
		l-0.4,0.4l-0.2,0.8l-0.2,0.3l-0.4,0.2l-0.3,0.3l-0.3,0.3l-0.1,0.5l-0.1,0.3l-0.4,0.4L249,397l-0.1,0.4l-0.1,0.8l0.2,0.3l0.1,0.3
		l0.3,0.4l0.1,0.5l-0.3,0.3l-0.4-0.1l-0.5-0.3l-0.3-0.2l-0.4-0.2l-1.6-0.4l-0.8-0.2l-0.7,0.1l-0.4,0.1l-0.3,0.1l-0.4,0.1l-0.2,0.3
		l-0.2,0.5l-0.5,0.8l-0.5-0.3l-0.2-0.7l-0.1-0.4l-0.1-0.3l-0.2-0.4l-0.2-0.3l-0.3-0.3h-0.3l-0.5-0.1l-0.3-0.1l-0.4-0.1h-0.4
		l-0.6-0.1l-0.4-0.1l-0.4-0.1l-0.3-0.1l-0.6-0.2l-0.4-0.1l-0.3,0.1l-1,0.5l-1.5,0.1l-0.4,0.1l-0.7-0.1l-0.6-0.1l-0.7-0.1l-0.5-0.1
		l-0.5-0.1l-0.4-0.1l-0.5,0.3l-0.2,0.3l0.3,0.4l0.2,0.4v0.5l-0.2,0.3l-0.3,0.3l-0.3,0.4l-0.3,0.4l-0.6,0.1l-0.2-0.3l-0.3-0.2
		l-0.3-0.2l-0.4-0.1l-0.4-0.3l-0.3-0.3l-0.7-0.6l-0.2-0.4l-0.3-0.4l-0.1-0.3l-0.1-0.4v-0.6l-0.1-0.5l-0.1-0.3l-0.2-0.4l-0.3-0.2
		l-0.2-0.2l-0.8-0.8l-0.2-0.4l-0.6-0.8l-0.3-0.2h-0.3l-0.7,0.1l-0.4,0.2l-0.3,0.2l-0.4,0.2l-0.4,0.2l-0.3,0.2l-0.4,0.2h-1l-0.7-0.1
		l-0.3,0.1l-0.4,0.2l-0.1,0.3l-0.2,0.3l-0.1,0.8l-0.1,0.9l-0.3,0.3l-0.5,0.6l-0.1,0.8v0.3l0.1,0.4v0.5l0.6,0.9l0.1,0.4l-0.6,0.4
		l-0.6,0.4l-0.2,0.3l-0.1,0.6l-0.3,0.6v0.4l-0.6,0.5l-0.1,0.3v0.7l-0.1,0.3l-0.2,0.4l-0.2,0.2l-0.3,0.3l-0.6,0.2H212l-0.5-0.1
		l-0.3-0.1l-0.4-0.1l-0.5-0.1L210,406l-0.2,0.3l-0.1,0.3l-0.1,0.4l-0.2,0.5l-0.1,0.4v0.6l0.4,0.4l0.3,0.3l0.5,0.6v0.5l0.1,0.3
		l0.2,0.4l0.1,0.3l0.3,0.5l0.2,0.4l0.2,0.4l0.1,0.6l0.1,0.3l-0.1,0.5l-0.6,0.3l-0.4,0.1l-0.2,0.3v0.9l0.1,0.4l0.2,0.3l0.2,0.5
		l0.1,0.4v0.7l0.2,0.4l0.3,0.2l0.4,0.2l0.2,0.4v0.4v0.5l0.1,0.5v0.3l0.2,0.3l0.2,0.7l-0.1,0.6l-0.1,0.5l-0.2,0.3l-0.2,0.4l-0.3,0.5
		l0.3,0.2l0.3,0.1l0.3,0.2l0.2,0.4l0.5,0.4l0.4-0.1l0.3,0.1l0.3,0.5l0.6,0.5l0.6-0.1l0.3-0.4l0.8,0.3l0.2,0.3l0.1,0.7l-0.2,0.3
		l-0.3,0.4l-0.1,0.4v0.7l0.4,0.6l0.4,0.4l0.2,0.2l0.8,0.1l0.4,0.3l-0.1,0.5l-0.1,0.4l-0.1,0.4l0.7,0.7l0.3,0.3h0.7l0.6,0.1l0.2,0.4
		l-0.1,0.6l-0.1,0.4l-0.2,0.6l-0.2,0.3l-0.4,0.4l-0.2,0.6l-0.2,0.3v0.4l-0.1,0.5l-0.2,0.7l-0.4,0.5l-0.1,0.6l0.2,0.3l0.5,0.3
		l0.2,0.3l0.3,0.6v0.4l0.1,0.9v1.6l0.2,0.7l0.1,0.4l0.4,0.3l0.4-0.1l0.3-0.1l0.6,0.2l0.2,0.4l0.1,0.4l0.2,0.2l0.4,0.2l0.2,0.3
		l-0.1,0.8l-0.3,0.4l-0.5,0.5l-0.5,0.5h-1l-1-0.2h-0.7l-0.7,0.1l-0.2,0.2v0.3l0.4,0.4l0.3,0.4l0.1,0.4l-0.2,0.3L218,450l0.4,0.4
		l0.4,0.1l0.2,0.4l-0.1,0.5l-0.4,0.5l-0.5,0.4l-0.4,0.3l-0.3,0.3l-0.2,0.6l0.1,0.6l0.1,0.4v0.3v0.6v1.3l0.1,0.4l-0.4,0.6l-0.2,0.4
		l-0.1,0.5l-0.1,0.4v0.8l-0.1,0.4l-0.1,0.3l-0.2,0.3l-0.2,0.3l-0.2,0.3v0.9l0.1,0.3l0.2,0.4l0.2,0.5l0.1,0.4l0.2,0.3l0.2,0.4
		l0.5,0.5l0.8,0.2l0.3-0.3l0.3-0.3l0.4-0.5l0.5,0.2l0.3,0.4l-0.2,0.6l-0.1,1l0.3,0.3l0.6,0.4l0.7,0.1l0.3,0.1l0.2,0.5v0.5l-0.2,0.4
		v1l-0.2,0.6l-0.3,0.1l-0.4,0.1l-0.4,0.1h-0.7l-0.4,0.2l-0.4,0.5l-0.4,0.4l-0.4,0.5l-0.1,0.3l-0.2,0.3l-0.2,0.6l-0.2,0.3l-0.4,0.1
		h-0.4l-0.3,0.1h-0.7l-0.4-0.1l-0.7-0.1l-0.4-0.1l-0.3-0.4l-0.1-0.3l-0.1-0.4l-0.3-0.4l-0.2-0.4l-0.4-0.4l-0.8-1h-0.7l-0.4,0.1
		l-0.3,0.1L210,470l-0.3,0.3l-0.8,0.6h-0.3l-0.3-0.2l-0.3-0.2v-0.7l0.2-0.5l0.1-0.3l0.2-0.3l0.4-0.4V468l-0.5-0.6l-0.3-0.1l-0.7-0.2
		L207,467l-0.5-0.1l-0.5-0.2l-0.6-0.2l-0.3-0.2l-1.1-0.1h-0.4h-0.5l-0.6,0.1l-0.6,0.1l-0.4,0.2l-0.3,0.1l-0.4,0.1l-0.4,0.2l-0.4,0.1
		l-0.6,0.2l-0.4,0.1h-0.5l-1.5-0.1l-0.5,0.1l-0.4,0.1l-0.7,0.2h-0.3l-0.7,0.3l-0.3,0.1l-0.4,0.2l-0.3,0.1l-0.4,0.1l-0.3,0.2
		l-0.4,0.1l-0.4,0.2l-0.5,0.3l-0.6,0.3l-0.7-0.3l-0.6-0.4l-0.5-0.4l-0.6-0.4l-0.3-0.3l-0.3-0.3l-0.7-0.9l-0.1-0.6l0.3-0.2v-0.4v-0.6
		v-0.3l0.7-0.7l0.3-0.3l0.3-0.6v-0.4l-0.3-0.3l-0.6-0.6l-0.4-0.1l-0.4-0.1l-0.3-0.2l-0.4-0.2l-0.3-0.2l-0.4-0.4l-0.2-0.3l-0.3-0.4
		l-0.1-0.4v-0.4l-0.2-0.4l-0.3-0.4l-0.2-0.3l-0.1-0.3l-0.2-0.6l-0.2-0.2l-0.3-0.5l-0.2-0.4l-0.1-0.4v-0.4l0.5-0.2h0.3h0.4h0.9
		l0.6-0.2l0.4-0.4l0.1-0.4l0.2-0.7l-0.3-0.3l-0.1-0.7l0.3-0.6l0.2-0.3l0.1-0.6l0.1-0.3l0.1-0.5l0.1-0.7l0.1-0.6l0.3-0.3l0.1-0.4
		v-0.6l-0.1-0.3l-0.5-0.4l-0.6-0.1l-0.6-0.2l-0.4-0.2l-0.3-0.1l-0.3-0.1l-0.4-0.1l-0.3-0.1l-0.3-0.2l-0.3-0.2l-0.4-0.4l0.2-0.6
		l0.3-0.1h0.4l0.6-0.2l0.4-0.3l-0.1-0.3v-0.4l-0.1-0.4l-0.1-0.3v-0.4l-0.1-0.3v-0.4l-0.1-0.4l-0.1-0.6v-0.3l-0.2-0.8l-0.3-0.2
		l-0.3-0.1l-0.3-0.2l-0.3-0.5l-0.1-0.3l-0.2-0.4v-0.3l0.1-1.4l0.1-0.5l0.2-1l-0.2-0.4l-0.1-0.6l-0.6-0.4l-0.8-0.1l-0.6,0.4l-0.3,0.1
		l-0.4,0.2l-0.4,0.2l-1.1,0.9l-0.5,0.4l-0.4,0.5l-0.5,0.5l-0.4,0.5l-0.7,0.3l-0.3,0.1l-0.6,0.2l-0.4,0.1l-1.4,0.2h-0.4h-0.5
		l-1.7-0.1l-0.5,0.1l-0.4,0.1h-0.3l-0.3,0.2l-0.4,0.3l-0.2,0.2l-0.4,0.5l-0.3,0.3l-0.4,0.4l-0.6,0.5l-1.2,1l-0.6,0.5l-0.2,0.3
		l-0.2,0.4l-0.2,0.3l-0.5,0.8l-0.4,0.5l-0.4,0.5l-0.3,0.2l-0.4,0.2l-0.3,0.1l-0.6,0.4l-0.2,0.3l-0.2,0.3l-0.3,0.3l-0.2,0.4l-0.4,0.4
		l-0.7,0.7h-1.3l-0.9,0.6l-0.2,0.3l-0.4,0.7l-0.6,0.2l-0.6,0.1l-0.5-0.1h-0.3l-0.4,0.1l-0.6,0.2l-0.5,0.2l-0.6,0.3l-0.3,0.2
		l-0.6,0.2l-1.1,0.2H152l-0.4-0.2l-0.3-0.1l-0.3-0.1l-0.3-0.2l-0.3-0.2l-1.4-0.2l-0.5,0.1l-0.4,0.1l-0.3,0.2l-0.4-0.1l-0.7-0.6
		l-0.3-0.5l-0.1-0.4v-0.4l-0.1-0.5l-0.3-0.6L146,447l-0.2-0.3l-0.2-0.4l-0.2-0.3l-0.1-0.3l-0.3-0.7l-0.6,0.4h-0.4l-0.6,0.2l-1.4,0.2
		h-0.3h-0.5l-0.3-0.1l-0.5-0.1l-0.3,0.1L140,446l-0.5,0.3l-0.1,0.3v0.3l-0.2,0.5l-0.2,0.3l-0.2,0.2l-0.3,0.4l-0.4,0.1l-0.4,0.1
		l-0.3-0.1l-1.1-0.1l-0.6,0.2l-0.3,0.2h-0.5l-0.4,0.1l-0.7,0.2l-0.3-0.2l-0.3-0.2l-0.3-0.3l-0.1-0.5l-0.2-0.6l-0.3-0.5l-0.3-0.4
		l-0.3-0.2l-0.3-0.2l-0.7-0.2l-0.4,0.6v0.4l-0.2,0.6l-0.1,0.3l-0.3,0.2l-0.3-0.1l-0.3-0.3l-0.3-0.4l-0.2-0.3l-0.3-0.4l-0.5-0.4
		l-0.5-0.3v-0.5l0.2-0.5l0.1-1.2l-0.1-0.5l-0.2-0.3l-0.3-0.7v-0.6l0.1-0.4l0.1-0.3l0.3-0.6l0.5-0.4l0.4-0.4l0.2-0.6l0.1-0.3l0.4-0.6
		l0.6-0.1l0.3-0.1l0.5-0.4l0.2-0.4l0.1-0.5l-0.1-0.4l-0.2-0.4l-0.4-0.6l-0.3-0.2l-0.3-0.2l-0.4-0.2l-0.3-0.2l-0.3-0.2h-0.5l-0.4-0.1
		l-0.3,0.1l-0.4,0.1l-0.4,0.2l-0.4,0.2L126,435l-0.4,0.3l-0.4,0.3l-0.3,0.2l-0.4,0.1l-0.4,0.1l-0.5-0.3v-0.4l-0.2-0.4l-0.2-0.3
		l-0.2-0.3l-0.6-0.6l-0.5-0.3l-0.5-0.5l-0.6-0.6l-0.3-0.9l-0.1-0.6l-0.2-0.7l-0.2-0.8l-0.1-0.5l-0.3-0.9l-0.3-0.5v-0.4l-0.1-0.5
		l-0.1-0.6l-0.2-0.7l0.1-0.6l0.4-0.8l0.4-0.6l0.3-0.6l0.1-0.4l0.1-0.4l0.1-0.6l0.5-0.2l0.3-0.3l0.4-0.6l0.2-0.6l0.7-1l0.1-0.5
		l0.1-0.5l-0.3-0.9l0.1-0.6l-0.9-0.9l-0.3-0.6l-0.4-0.9l-0.1-0.6l0.2-0.7l-0.1-0.4l-0.3-0.6l-0.7-0.1l-0.7-0.2l-0.4-0.2l-0.3-0.1
		l-0.4-0.2l-0.6-0.2l-0.5-0.1l-0.4,0.1l-0.6,0.3l-0.3,0.2v0.7l0.1,0.4v0.5l-0.3,0.3l-0.4,0.1l-0.3,0.1l-1.1-0.1l-0.4-0.5l-0.4-0.5
		l-0.3-0.2l-0.3-0.1l-0.7-0.2l-0.3-0.2l-0.4-0.2l-0.2-0.2l-0.4-0.3l-0.3-0.3l-0.4-0.2l-0.6-0.3l-0.6-0.1l-0.4,0.2l-0.4,0.2l-0.2,0.4
		l-0.3,0.4l-0.1,0.3l-0.4,0.4l-0.3,0.2h-0.6l-0.4-0.3v-0.4l0.3-0.5l0.2-0.3l0.1-0.3l-0.3-0.5h-0.6l-0.3-0.2l-0.4-0.3l-1.2-1.3
		l0.3-0.6l-1,0.4l-0.4,0.1h-0.4l-0.8-0.2l-0.3,0.2l-0.5,0.1l-0.2-0.2l-0.6-0.7l-0.5-0.2l-0.4-0.1l-0.6,0.3l-0.4,0.2l-0.8,0.1
		l-0.3-0.3l-0.5-0.3l-0.5-0.4l-0.2-0.3l-0.6-0.3l-0.5-0.2l-0.4-0.1l-0.4,0.2l-0.3,0.2l-0.3,0.2l-0.4,0.2l-0.4,0.1l-0.4,0.2H92h-0.5
		l-0.4,0.2H90h-0.6l-0.5-0.1l-0.8,0.4h-0.9l-0.4-0.2l-0.3-0.1l-0.5-0.3l-0.4-0.1l-0.5-0.1l-0.8-0.1l-1.2-0.2l-0.3-0.2l-0.3-0.2
		l-0.6-0.2l-0.3-0.1l-0.8-0.1l-0.6,0.1l-0.6-0.4l-0.4-0.1l-0.3-0.3l-0.3-0.2l-0.2-0.3l-0.5-0.5l-0.6-0.4l-0.5-0.4l-0.3-0.3l0.1-0.4
		h0.5l0.5,0.2h0.5l0.4-0.2l-0.4-0.6l-0.6-0.2l0.1-0.3l0.4-0.3l0.7-0.7l0.3-0.7l0.2-0.3l0.6-0.6l1,0.1l0.4-0.2l0.3-0.4l0.2-1.4
		l-0.2-0.4v-0.5v-0.8l0.1-0.7l0.2-0.6l0.3-0.3l0.5-0.5l0.5-0.5l0.5-0.1l0.5-0.3l0.1-0.3l0.2-0.3v-0.3v-0.4l-0.4-0.4l-0.5-0.4
		l-0.2-0.4l-0.1-0.6l0.3-0.3L84,389l0.7-0.3l0.3-0.1l0.5-0.2l0.5-0.3l0.3-0.2l0.1-0.5l0.3-0.3l0.3-0.1l0.8-0.1l0.6-0.4l1.4-1.1
		l0.5-0.3l0.4-0.3l0.3-0.3l0.4-0.7v-0.3l-0.3-0.7l-0.2-0.4l-0.5-0.6l0.1-0.6l0.3-0.3l0.3-0.4l0.2-0.4l0.3-0.6l0.1-0.3v-0.4l-0.1-0.5
		l-0.6-0.9l-0.2-0.4l-0.1-0.3v-0.8l-0.1-0.3v-0.4l-0.1-0.4l-0.2-0.3l-0.1-0.4v-0.3l-0.1-0.5l-0.1-0.7l-0.2-0.6l-0.1-0.4l-0.1-0.4
		l-0.2-0.4l-0.2-0.4l-0.2-0.5l-0.1-0.3l-0.2-0.5l0.2-0.7l0.2-0.3l0.9-0.5h0.8l0.6-0.1l0.9,0.1l0.4-0.1l0.4-0.4l0.3-0.3v-0.9l0.1-1
		l0.1-0.7l0.2-0.2l0.4-0.3l0.5-0.2l0.4-0.1l0.7-0.3l0.9,0.1l0.4,0.1h0.5l0.3-0.2v-0.4l-0.1-0.4l-0.1-0.5l-0.2-0.4l-0.2-0.3l-0.2-0.6
		l-0.2-0.3l-0.2-0.9v-0.4v-0.5v-0.8l0.8-0.3l0.5,0.2l0.9,1l0.3,0.3l0.3,0.2l0.4,0.3l0.6,0.2l0.9,0.1l1.2,0.1l0.5-0.1l0.3-0.5
		l0.2-0.6l-0.1-0.6l-0.1-0.6l-0.2-0.6l-0.1-0.4l-0.3-0.4l-0.3-0.4l-0.4-0.5l-0.3-0.4l-0.3-0.4l-0.1-0.4l0.1-0.9l0.1-0.6l0.4-1
		l0.1-0.4l0.1-0.5V351l-0.1-0.4l-0.3-0.4l-0.4-0.2l-0.2-0.4l-0.7,0.1l-2.2-0.2l-0.8-0.1l-0.4-0.1l-0.7-0.2l-0.3-0.1l-0.3-0.1
		l-0.7-0.3l-0.7-0.3l-0.3-0.2l-0.5-0.5l-0.1-0.4L93,347l-0.6-0.7l-0.6-0.1l-0.4,0.1l-0.4,0.2l-0.1,0.3l-0.2,0.3l-0.3,0.2l-0.3,0.2
		h-0.4l-0.4,0.2l-0.6,0.1l-0.6,0.1l-0.7,0.6l-0.3,0.2l-0.5,0.1l-0.4-0.2l-0.3-0.1l-0.6-0.4l-0.4-0.3l-0.5-0.4l-0.4-0.1l-0.3-0.2
		l-0.7-0.1h-0.5l-0.4,0.1l-0.9-0.1l-0.9-0.1l-0.7,0.2l-0.5,0.2l-0.2,0.3l-0.6,0.1l-0.3-0.2l-0.2-0.3l-0.3-0.3l-0.4-0.2l-0.4-0.2
		l-0.3-0.2l-0.7-0.5l-0.4-0.3v-0.8l0.3-0.3l0.3-0.5l0.3-0.5l-0.2-0.4H76h-0.5h-0.3l-0.6,0.2h-0.4h-0.7l-0.5-0.1l-0.3-0.1l-0.5-0.1
		l-0.5-0.1l-0.6-0.2l-0.3-0.3l-0.5-0.5l-0.4-0.3l-0.3-0.1l-0.3-0.1l-0.6-0.3l-0.5-0.3l-0.4-0.4l0.1-1.2l0.2-0.6l0.2-0.3l0.3-0.3
		l0.2-0.3l0.2-0.6l0.3-0.4l0.1-0.8v-0.6l0.3-0.3v-0.8V334l-0.2-0.4l-0.1-0.4l-0.2-0.3l-0.3-0.4l-0.5-0.1h-0.4l-0.4,0.1l-0.3-0.3
		l0.3-0.4l0.7-0.2l0.4-0.1h0.6l0.4-0.2l0.1-1l-0.1-0.4l-0.1-0.3l-0.2-0.7v-0.6l0.2-0.4l0.1-0.8l-0.2-0.4l-0.2-0.3l-0.5-0.4v-0.9
		l0.1-0.8l-0.2-0.3l-0.1-0.4l0.1-0.5l-0.6,0.1l-0.5-0.3l-0.5,0.2l-0.3,0.1h-1l-0.3-0.1l-0.6-0.6l-0.2-0.4l-0.2-0.3l-0.2-0.4
		l-0.1-0.5l-0.1-0.3v-0.4l0.2-1l0.2-0.3l0.3-0.3l0.3-0.2l0.3-0.3l0.3-0.2l0.5-0.3l0.6-0.3l0.5-0.2l0.9-0.7l0.8-0.7l0.2-0.6l-0.3-0.4
		l-0.4-0.2l-0.3-0.1l-0.5-0.1l-0.5-0.5l-0.2-0.5l-0.1-0.4V313V312v-0.4l-0.2-0.3l-0.6-0.9V310l-0.4-0.4l0.1-0.8l0.1-0.4V308v-0.4
		l-0.2-0.3l-0.2-0.5l-0.3-0.3l-0.3-0.6l-0.5-0.5l-0.3-0.1l-0.4-0.1l-0.4,0.1h-0.3l-0.8-0.1l-0.5-0.1l-0.4-0.2l-0.3-0.2l-0.4-0.2
		h-0.7l-0.9-0.1l-0.4-0.5l-0.2-0.4l0.1-0.7l0.8-0.7l0.4-0.4l0.1-0.4v-0.3l-0.1-0.5l-0.2-0.4l0.1-0.5l0.1-0.5v-0.7l-0.1-0.4l-0.3-0.4
		l-0.2-0.4l0.3-0.8l0.1-0.3l0.2-0.4l0.1-0.4l0.2-0.3l0.3-0.6l-0.3-0.2l-0.5-0.1l-0.4-0.5l0.1-0.4l0.1-0.4l0.7-0.4l0.3-0.2h0.4
		l0.3,0.1l0.4,0.3l0.4,0.3H63l0.3-0.2l0.3-0.2l0.5-0.4l0.3-0.4l0.2-0.3l0.9,0.2v-0.5l0.3-1.1l0.6,0.2l0.9-0.2l0.4-0.1l0.3-0.2
		l0.4-0.1l0.4-0.1l0.4-0.2l0.4-0.2l0.2-0.2l0.3-0.3l0.3-0.4l0.2-0.4l0.4-0.3l0.3-0.2l0.4-0.2l0.3-0.3l0.3-0.3l0.2-0.2l0.2-0.5
		l0.2-0.3l0.1-1.1l-0.1-0.4l-0.2-0.3l-0.2-0.3l-0.6-0.5l-0.3,0.2l-0.3,0.3l-0.5,0.3l-1.8,0.3l-1.2-0.3l-2.2-0.2l-0.4,0.1l-0.3,0.2
		l-1.2,0.3L63,285l-0.4-0.3l-0.4,0.3l-0.2,0.4l-0.3,0.3l-0.4,0.2l-0.5-0.1l-0.5-0.5h-0.6l-0.4,0.1h-0.4h-0.4h-0.6l-0.6,0.2l-0.4,0.1
		l-0.7,0.2h-0.4l-0.4,0.1l-0.5-0.2l-0.2-0.4l-0.1-0.7l-0.6-0.4l-0.4-0.2l-0.6-0.3l-0.6-0.2l-1.4-0.1h-1.1l-0.7,0.1l-0.5-0.1
		l-1.2-0.1h-0.7h-0.4l-1.2-0.2h-1.1l-0.6,0.3l-0.2,1h-0.4l-0.3-0.2l-0.3-0.2l-0.4-0.2l-0.4-0.3l-0.3-0.1l-0.3-0.1h-0.8h-0.5h-0.4
		h-1.1l-2-0.3h-0.3l-0.5-0.1h-1.2h-0.3l-0.6,0.4l-0.6,0.3l-0.8,0.3l-0.6-0.1h-0.5l-0.5,0.1l-0.5,0.1H30l-0.6,0.1l-0.4,0.2l-0.5,0.2
		l-1.2,0.2l-0.5,0.1l-0.6,0.1l-1,0.2l-0.7,0.2l-0.7,0.1l-0.6,0.5l-0.6,0.2l-1,0.3l-0.3,0.5l-0.6,0.3l-0.8,0.3l-0.5,0.1h-0.5
		l-1.1,0.1l-0.7,0.2l-0.7,0.4l-0.7,0.6l-0.8,0.4l-0.4-0.2l-0.5,0.1l-0.1,0.4l-0.2,0.2l-0.6-0.3l-0.4,0.2l-0.3,0.3l-0.1,0.3l-0.4,0.1
		l-0.5-0.1l-0.4,0.3l-0.2,0.4l-0.3,0.2l-0.5,0.2l-0.5,0.3l-0.2,0.3l-0.3,0.3l-0.6,0.5l-0.3,0.2L8.4,293l-0.5,0.2l-0.4,0.2l-0.4,0.2
		v0.5l-0.2,0.3l-0.3,0.3H6.1l-0.4-0.5l-0.3-0.1L5,294.2l-0.3,0.5L4.5,295H3.8l-0.5-0.1l-0.6,0.5l-0.2-0.2l-0.1-0.9l-0.4-0.6
		l-0.7-0.3l-0.3-0.2L0.7,293l-0.3-0.4l-0.7-0.3l-0.4-0.1l-0.3-0.2l-0.7-0.4l-0.4-0.1l-0.3-0.2l-0.3-0.2l-0.2-0.2l-0.5-0.7l-0.7-0.4
		l-0.3-0.5l0.3-0.3l0.4-0.2l0.4-0.2l0.3-0.2h0.4l0.4-0.1l0.3-0.3l0.2-0.2l0.4-0.3l0.6-0.3l0.4-0.2l0.4-0.2l0.3-0.2l0.4-0.3l1.7-0.4
		l-0.1-0.4l0.2-0.3l0.2-0.7l0.1-0.5l0.2-0.4l0.1-0.4l0.2-0.3l0.7-0.6l1.2-0.9l1.2-1.1l0.3-0.2l0.5-0.2l0.4-0.2l0.4-0.2l0.3-0.2
		l0.4-0.3l0.3-0.3l0.3-0.3l0.2-0.4l0.3-0.4l0.3-0.3l0.4-0.4l0.3-0.5l-0.1-0.6l-0.2-0.3l-0.3-0.3l-0.4-0.4l-0.4-0.7l0.1-0.8l0.3-0.6
		l0.2-0.4l0.3-0.4l0.2-0.3l0.2-0.2l0.5-0.8v-0.6l-0.3-0.6l-0.2-0.3l-0.3-0.3l-0.7-0.4l-0.6-0.3l-0.4-0.1l-0.4-0.1H7.8l-0.6-0.2
		l-0.4-0.2l-0.3-0.5l0.3-1.5l0.7-0.5l1.2,0.1l0.4-0.2l0.5-0.5l-0.1-0.7l-0.1-0.4l-0.1-0.4L8.6,263l-0.2-0.6L8.1,262l-0.2-0.4
		l-0.1-0.3L7.7,261v-0.6L7.6,260l-0.1-0.3l-0.6-0.5H6.5L6,259.4l-0.3,0.1l-0.4,0.1H4.9H4.3l-1-0.1H2.7h-1l-0.8,0.1l-0.3,0.1H0.3
		l-0.5-0.1l-0.3-0.3l0.2-0.5l0.6-0.6l0.2-0.3l0.4-0.5l0.2-0.4l0.2-0.3l0.2-0.3l0.1-0.3l0.2-0.6l0.2-0.3l0.1-0.5l0.2-0.4l0.1-1.8
		l0.2-0.9v-0.3l0.2-0.4l0.1-0.4l0.1-0.4l0.2-0.4l0.1-0.4l0.1-1.8v-0.5l-0.1-0.4v-0.4l-0.1-0.5l0.1-0.6v-0.5v-0.4l-0.1-0.5v-0.3
		L3,243.2l-0.3-0.6l-0.2-0.4v-0.5l0.6-0.5l0.8-0.6l0.3-0.2l0.5-0.2l0.3-0.2l0.6-0.3l0.6-0.1l0.4-0.1l0.3-0.1l0.3-0.2l0.4-0.1
		l0.4-0.1l0.6-0.2l0.6-0.5l0.7-0.5l0.4-0.3l0.5-0.3l0.4-0.3l0.8-0.3l0.7,0.1l0.3,0.1l0.5,0.3l1.8,0.1h0.5l0.4-0.1l0.7-0.8l0.1-0.3
		v-0.9l-0.7-0.7l-0.3-0.2l-0.5-0.1l-0.4-0.2l-0.4-0.1l-0.3-0.3l-0.6-0.8v-0.3l-0.1-0.4l0.1-0.7l0.1-1.7v-0.6l-0.1-0.4l-0.2-0.4
		l-0.1-0.4v-0.4l-0.1-0.6l0.2-0.7l0.1-0.4l0.2-0.7l0.2-0.7l0.1-0.4l0.2-0.3v-0.5l0.1-0.8l0.1-0.4l0.6-0.3l0.4-0.2l0.3-0.2l0.3-0.3
		l0.3-0.3l0.4-0.3l0.3-0.5l0.4-0.4l0.2-0.4l0.2-0.4l0.2-0.4l0.2-0.3l0.2-0.4l0.3-0.4l0.2-0.3l0.2-0.3l0.2-0.5l0.3-0.4l0.2-0.3
		l0.2-0.4l0.2-0.4l0.3-0.6l0.2-0.3l0.2-0.4l0.2-0.2l0.2-0.4l0.1-0.3l0.1-0.3l0.2-0.3l0.7-0.4l0.6,0.2l0.4,0.4l0.5,0.6l0.2,0.3
		l0.4,0.6l0.3,0.5l0.3,0.4l0.3,0.3l0.4,0.2h0.5l0.5-0.1l0.6-0.1l0.3-0.2l0.3-0.1l0.4-0.2l0.6-0.4l0.3-0.2l0.4-0.3l0.6-0.5l0.4-0.3
		l0.1-0.3l0.2-0.6l0.3-0.8l0.3-0.1l0.4-0.3l0.4-0.1l0.4,0.1l0.3,0.1l0.6-0.1l0.4-0.1l0.5-0.3l0.5-0.5l0.7-0.5l0.3-0.3l0.3-0.4
		l0.2-0.8l0.3-0.3l0.1-0.3l0.1-0.8l0.1-0.4l0.2-0.7l0.5-0.1l0.1,0.3l0.6,0.4h0.8l0.3-0.4L39,206l0.3-0.4l0.2-0.5l0.1-0.5l0.1-0.7
		l0.1-0.4v-1v-0.8l-0.1-0.6l-0.2-0.5l-0.3-0.6l-0.1-0.5l-0.2-0.3l0.2-0.7l0.4-0.3h0.5l0.3-0.2l0.6-0.2l0.9-1l0.3-0.4l0.2-0.4
		l0.1-0.7l-0.1-0.7l-0.1-0.4l-0.3-0.6l-0.3-0.6l0.3-0.7l0.5,0.1l0.5,0.2l0.6,0.4l0.3,0.2h0.8l0.3-0.1h0.4l0.3,0.3l0.6,0.7l0.3,0.3
		l0.3,0.2l0.9,1.1l0.1,0.4l0.1,0.3l0.2,0.3l0.3,0.2l0.4,0.3l0.4,0.1l0.7,0.1l1.5-1.2l0.6-0.3l0.5-0.2l0.3-0.2h0.3l0.4-0.1h0.5
		l0.4-0.3l0.2-0.6l0.1-0.4l0.1-0.8l0.1-0.3l0.1-0.5l0.2-0.6l0.4-0.6l0.3-0.2L56,191l0.3-0.3l0.4-0.2l0.9-1.1v-0.8l-0.1-0.3l0.1-0.5
		l0.2-0.7l0.2-0.3l0.2-0.3l0.2-0.4l0.4-0.5l0.2-0.3l0.1-0.9l0.2-0.3l0.4-0.5l0.4-0.4l0.4-0.3l0.6-0.4l0.6-0.6l0.1-0.5l0.6-0.3
		l0.5-0.1l0.3,0.1l0.5,0.1l0.4,0.2l0.3,0.1l0.3,0.2l0.6,0.4l0.4,0.2l0.3,0.3l0.3,0.3l0.4,0.2l0.3,0.3l0.5,0.4l0.4,0.1h0.4l0.4-0.1
		l0.3-0.2l0.5-0.4l0.5-0.4l0.6-0.4l0.5-0.3l0.3-0.2l0.4-0.1l0.3-0.3l0.4-0.4v-1.4l-0.1-0.4v-0.3l-0.1-0.4l-0.1-0.4l-0.2-0.3
		l-0.2-0.4l-0.1-0.3l-0.1-0.9l-0.4-0.7l-0.2-0.4l-0.4-0.4l-0.4-0.2l-0.2-0.6l-0.5-0.3l-0.4-0.2l-0.3-0.1l-0.6-0.1l-0.2-0.5l0.1-0.4
		l-0.1-0.6V172l-0.2-0.6v-0.5l-0.1-0.3l-0.2-0.6l-0.1-0.7V169l-0.5-0.4l-0.4-0.1l-0.3-0.4l0.2-0.6l0.2-0.7l-0.1-0.6l-0.2-0.4
		l0.2-0.4l0.1-0.3l0.6-0.3l0.5-0.1h0.8l0.4-0.2l0.9-0.4l0.7,0.2l0.1,0.3l0.5,0.6l0.2,0.6l-0.2,0.6l-0.2,0.4l0.3,0.7h0.6l0.4-0.3
		l0.2-0.3l0.4-0.3l0.4-0.4l0.6-0.4l0.5-0.5l-0.1-0.3l-0.3-0.5l0.1-0.5l0.3-0.2l0.4-0.1l0.3-0.4l0.2-0.6v-0.5V162v-0.6V161l-0.2-0.8
		l-0.1-0.4l-0.2-0.3l-0.8-0.6l-1-0.2l-0.3-0.2l0.2-0.8l0.3-0.6l0.1-0.3l0.3-0.6v-0.6L73,155l0.5-0.3l0.5-0.1l0.3-0.4l0.4-0.5
		l0.4-0.4l0.3-0.3l0.4-0.7l0.1-0.4l0.2-0.6l0.2-0.4l0.3-0.6l0.1-0.3v-0.6l0.4-1.4l0.2-1l0.1-0.8l0.1-0.4l0.2-1l0.1-0.5l0.1-0.3v-1.2
		v-1l0.3-1.4l0.1-0.4l0.5-0.4l0.2-0.3l0.4-0.7l0.1-0.4l0.1-0.4l0.1-0.7l0.1-1.7v-0.5v-1v-0.6l-0.1-0.3l-0.2-0.5l-0.7-1.2l0.1-1.4
		l0.2-0.5l0.1-0.5l0.1-0.3l0.1-0.5l0.2-0.3v-0.4l0.2-0.9l-0.1-0.6v-0.4l-0.1-0.6v-0.3l-0.2-0.4l-0.1-0.3l-0.2-0.4l-0.2-0.4l-0.2-0.6
		l0.2-0.8l0.6-0.7l0.3-0.3l0.1-0.4l0.3-0.5v-0.7l-0.1-0.7v-0.5l-0.1-0.3v-0.4l-0.1-0.4v-0.7l-0.1-0.8v-0.5l-0.1-0.4l-0.1-0.6v-1
		l0.6-0.3l0.3-0.1l0.3-0.3l0.2-0.4V112l-0.1-0.3V111l-0.1-0.4v-0.3l-0.3-0.7l-0.9,0.1l-0.4-0.5L79,109l-0.1-0.8l0.1-1.2v-0.7v-0.6
		l-0.1-0.8v-0.4l-0.1-0.6v-0.4l-0.1-0.5l-0.1-0.4l0.1-0.7l0.3-0.4l0.3-0.3l0.5-0.5l0.2-0.3l0.2-0.3l0.2-0.4l0.3-0.4l0.1-0.3v-0.7
		l-0.2-0.4l0.1-0.4l0.1-0.3l0.1-0.4l0.3-0.3l0.3-0.5l0.3-0.6v-0.9v-0.3l-0.1-0.5v-0.4l-0.1-0.3l-0.7-0.6l-0.3-0.2l-0.3-0.3L80.1,92
		l0.1-0.4l0.2-0.6v-0.7l-0.2-0.3l-0.3-0.2L79.5,89l-0.1-0.4l0.1-0.3l0.2-0.4l0.2-0.3l0.4-0.6v-0.5l-0.2-0.4l-0.3-0.7l0.1-0.7
		l0.2-0.4l0.2-0.3l0.2-0.3l0.2-0.7l0.2-0.4l-0.1-0.7l0.3-0.8L81,80.6l-0.3-0.3l-0.4-0.2l-0.6-0.6l-0.4-0.3h-0.5l-0.7,0.3l-0.3,0.2
		l-0.4-0.1l-0.3-0.3l-0.3-0.2h-0.5l-0.6,0.4l-0.4,0.3l-0.3-0.1l-0.3-0.6l0.1-0.5v-1V77v-0.4v-0.4l-0.1-0.3l-0.2-0.4l-0.2-0.4
		L74,74.6l-0.4-0.1l-0.3,0.2l-0.4,0.4l-0.4,0.5l-0.3,0.2l-0.6-0.2l-0.4-0.2L70.8,75l-0.3-0.1l-0.6-0.2l-0.5-0.3l-0.4-0.3l-0.8-0.7
		l-0.4-0.3l-0.6,0.5l-0.4,2l-0.1,0.4v0.7v0.4l0.1,0.3v0.4l-0.1,0.6l-0.1,0.4l-0.2,0.4l-0.2,0.4L66,79.8l-0.4,0.1L65.3,80l-0.2,0.3
		l-0.3,0.4l-0.4,0.5l-0.2,0.3l-0.4,0.2l-0.3,0.2L63,81.7l-0.7-0.1l-0.6-0.1l-0.3-0.2l-0.3-0.2l-0.3-0.4l-0.4-0.5l-0.2-0.5l-0.1-0.4
		l-0.1-0.3l0.1-0.9v-0.8l-0.1-0.3L60,76.5V75l-0.1-0.3v-0.4L59.7,74l-0.3-0.6l-0.2-0.5l-0.2-0.3l-0.2-0.3l-0.2-0.4l-0.2-0.4
		l-0.3-0.3l-0.6-0.8l-1-1.1l-0.2-0.3l0.1-0.6l0.3-0.2l0.4-0.2l0.5-0.5l0.3-0.4l-0.1-0.6l-0.4-0.3l-0.3-0.1L56.8,66l0.1-0.6v-1.3
		v-0.4l-0.1-0.5L56.7,63l-0.7-0.6l-0.4-0.2L55.4,62L55,61.5l-0.2-0.3l0.2-0.7l0.2-0.2l0.4-0.3l0.4-0.3l0.3-0.2l0.3-0.2l0.1-0.3v-0.6
		v-0.5l-0.1-0.5l-0.1-0.7l-0.1-0.4l-0.1-0.6l-0.5-0.6L55.3,55l-0.4-0.1l-1.1-0.2l-0.2-0.3l-0.1-0.4l0.1-1l0.3-0.9l0.3-0.1l0.5,0.1
		l0.3,0.2l0.3-0.1l0.5-0.6l-0.4-0.2h-0.6l0.2-1.4l0.1-0.7l0.2-0.3l0.1-0.4l0.1-0.4l0.2-0.4l0.3-0.3l0.4-0.7l0.1-1l-0.1-0.4l-0.5-0.9
		l-0.1-0.6l-0.2-0.5v-0.4L55.5,43l-0.8-0.8l-0.5-0.3l-0.3-0.1l-0.4-0.3L53.3,41l3.8,1.2l0.4-0.4l-0.1-0.6l-0.2-0.5l0.1-0.6l0.2-0.6
		l0.5-0.4l0.5-0.2l0.6,0.2l0.5,0.2h0.6h0.6l0.5-0.2l0.5-0.3l0.5-0.4l0.4-0.4l0.1-0.6L62.6,37l-0.2-0.6L62,35.9l-0.3-0.5v-0.6v-0.6
		l-0.4-0.5l-0.4-0.4l-0.3-0.5v-0.6l-0.1-0.6l0.2-0.5l0.6,0.2l0.5-0.3l0.4-0.4l0.4-0.4l0.5-0.2h0.6l0.4-0.4l0.5-0.3l0.6,0.1l0.3,0.5
		l0.1,0.6l0.2,0.5l0.3,0.6l0.2,0.5l0.1,0.6l0.1,0.5l0.1,0.6l0.1,0.6l0.3,0.5l0.4,0.4l0.4,0.5l0.4,0.5l0.2,0.5l0.1,0.6l0.1,0.6
		l0.1,0.5l0.1,0.6v0.6v0.6l-0.2,0.5l-0.2,0.6l0.1,0.6l0.3,0.5l0.2,0.5v0.7l-0.1,0.6l0.1,0.6l-0.1,0.6l-0.1,0.6v0.6l0.4,0.5h0.6H70
		l0.6-0.1l0.5-0.3l0.5-0.4l0.3-0.4l0.5-0.4l0.6-0.2l0.6-0.1l0.5,0.1h0.6l0.6-0.3l0.3-0.4l0.4-0.5l0.5-0.2l0.6-0.3l0.5-0.2l0.6-0.1
		l0.5,0.2l0.5,0.4l0.4,0.4l0.5,0.3l0.6,0.1l0.6,0.1h0.5l0.5-0.4l0.4-0.4l0.3-0.5l0.3-0.5l0.3-0.5l0.4-0.4l0.6-0.1h0.6l0.5,0.2
		l0.4-0.4l0.3-0.5l0.3-0.5l0.1-0.6l0.1-0.6l0.1-0.6v-0.6v-0.6l0.2-0.6l0.2-0.5l0.3-0.5l0.5-0.3l0.6-0.1l0.4-0.5l0.1-0.5l-0.3-0.5
		L88.2,34l-0.1-0.6l-0.2-0.5l-0.2-0.5l-0.3-0.6l-0.1-0.5l-0.2-0.6l-0.2-0.5l-0.2-0.6l-0.2-0.5l-0.4-0.5l-0.4-0.3l-0.6-0.3L84.7,28
		l-0.4-0.4L84,27.1l-0.1-0.5l-0.1-0.5l-0.2-0.6l-0.2-0.5l-0.2-0.5L83.1,24l0.1-0.6l0.4-0.5l0.2-0.5l0.2-0.6v-0.6v-0.6l-0.1-0.6v-0.6
		L83.8,19l-0.1-0.6l-0.1-0.6l-0.1-0.5l-0.2-0.6l-0.1-0.6l-0.1-0.5L83,15.1l-0.2-0.5l-0.1-0.6l0.1-0.6h0.8l0.6,0.1l0.5-0.1l0.5-0.3
		l0.5-0.4l0.6-0.2l0.5-0.3l0.4-0.4l0.2-0.6l0.2-0.6v-0.6l-0.1-0.5l-0.1-0.6l-0.2-0.6L87,8.1l-0.1-0.6l-0.1-0.6l-0.1-0.5V5.8l0.1-0.7
		l0.1-0.6L87,4V3.4V2.8V2.2V1.7V1.1l0.2-0.6v-0.6v-0.6v-0.6v-0.6l0.2-0.6l0.3-0.4l0.6,0.1l0.5,0.2l0.6,0.2l0.6,0.1l0.5-0.1L91-2.5
		l0.5-0.3L92-3.2l0.4-0.4L92.8-4l0.5-0.3L93.8-4l0.4,0.4l0.4,0.5L95-2.6l0.3,0.5l0.2,0.5l0.2,0.6l-0.1,0.5L95.4,0v0.6l0.1,0.6
		l0.1,0.5l0.1,0.6l0.2,0.6l0.1,0.5v0.6l-0.1,0.6l-0.1,0.6l0.1,0.6v0.6l0.1,0.6l0.2,0.5l0.4,0.4l0.6,0.1l0.6-0.1l0.6-0.1L99,8.2
		l0.5,0.2l0.6-0.1l0.4-0.4l0.3-0.4l0.4-0.5l0.5-0.3l0.6-0.1l0.6-0.1l0.4-0.4l0.1-0.6V5L103,4.4L102.6,4l-0.5-0.1l-0.5-0.3l-0.5-0.4
		L101,2.7l-0.1-0.6V1.7l0.2-0.6l0.1-0.6l0.1-0.6l0.2-0.6l0.1-0.6l0.2-0.5l0.5-0.3l0.5-0.3l0.5-0.3l0.5-0.4l0.4-0.4l0.5-0.3l0.5-0.3
		l0.4-0.4l0.5-0.4l0.4-0.4l0.1-0.6l0.1-0.6v-0.6v-0.6L106.3-8l-0.2-0.5L105.9-9l-0.3-0.6l-0.2-0.5l-0.3-0.5l-0.3-0.5l-0.3-0.5
		l-0.1-0.6l0.1-0.6l0.3-0.5l0.2-0.5l0.2-0.5l0.3-0.5l0.4-0.4h0.6l0.5,0.3l0.4,0.4l0.6,0.2l0.5-0.1l0.5-0.4l0.5-0.3l0.5-0.1h0.6
		l0.6-0.1l0.4-0.4l0.6-0.2l0.5-0.2l0.1,0.5l-0.1,0.7l-0.1,0.6l-0.1,0.5l-0.2,0.6v0.6v0.6v0.6v0.6l-0.1,0.6l0.1,0.6V-9l-0.1,0.6v0.7
		v0.6L112-6.6L111.9-6l-0.1,0.6l0.1,0.6v0.6l0.1,0.6v0.6v0.6v0.6l-0.1,0.6v0.6v0.6v0.6V1l-0.2,0.6L111.5,2l-0.1,0.6l-0.2,0.5
		l-0.1,0.6l-0.2,0.8l-0.2,0.6l-0.1,0.6l-0.1,0.6l-0.2,0.5l-0.1,0.7V8v0.6l-0.1,0.6v0.6v0.6v0.6l0.1,0.6l0.1,0.5l0.2,0.6l0.3,0.5
		l0.3,0.5l0.1,0.6l0.1,0.6l-0.1,0.6l0.1,0.6v0.5l0.2,0.6l0.4,0.4l-0.1,0.6v0.6l0.1,0.6l0.2,0.5l0.2,0.6l0.2,0.5l0.2,0.5l0.3,0.6
		l0.1,0.5v0.6l-0.1,0.6l-0.2,0.6l-0.1,0.6v0.6v0.6l-0.1,0.7l0.1,0.5l0.1,0.6l0.1,0.6v0.6l0.1,0.5v0.7l-0.2,0.5l-0.1,0.6l-0.3,0.5
		l-0.3,0.5l-0.3,0.5l-0.1,0.6l0.2,0.5l0.4,0.5l0.3,0.5l0.2,0.6l0.2,0.5l0.3,0.5l0.5,0.4l0.4,0.3l0.3,0.5l0.1,0.6l0.1,0.6l0.2,0.5
		l0.4,0.5l0.4,0.4l0.5,0.4l0.4,0.4l0.2,0.6v0.6l0.1,0.5l0.3,0.5l0.4,0.4l0.3,0.5l0.3,0.5l0.4,0.5l0.3,0.5l0.3,0.6l0.2,0.5l0.2,0.5
		l0.1,0.6v0.6v0.6l0.2,0.5l0.3,0.5l0.5,0.3l0.6,0.2l0.4,0.2l0.4-0.6v-0.6V48v-0.6v-0.6l0.1-0.6l0.2-0.6l0.1-0.5v-0.7L122,44l0.2-0.6
		l0.3-0.5l0.3-0.4L123,42v-0.6l-0.4-0.5l-0.3-0.5l-0.2-0.6l0.1-0.5l0.4-0.5l0.5-0.3l0.2-0.6v-0.6L123,37l-0.3-0.5l-0.4-0.5l-0.2-0.5
		V35l0.3-0.5l0.3-0.5v-0.6l0.1-0.6l0.2-0.5l0.1-0.6l0.1-0.6v-0.6V30l-0.4-0.5l-0.4-0.4l-0.2-0.5l-0.1-0.6l0.2-0.6l0.3-0.5l0.3-0.5
		l0.3-0.5l0.4-0.3h0.6l0.6-0.1l0.6,0.1h0.6l0.6,0.2h0.6l0.4-0.4l0.3-0.5l0.3-0.5l0.5-0.1l0.6-0.1l0.6-0.1l0.5-0.2l0.4-0.4l0.2-0.5
		v-0.6l0.3-0.5l0.4-0.5l0.3-0.5l0.2-0.5V20l-0.1-0.5l-0.1-0.6l0.1-0.6l0.4-0.5l0.4-0.4l0.2-0.5l0.5-0.4l0.5-0.2l0.3,0.1l0.6,0.2h0.6
		l0.5-0.3l0.4-0.4l0.2-0.5l0.1-0.6l0.1-0.6l0.1-0.6v-0.6l0.1-0.6l0.2-0.6l0.3-0.4l0.5-0.4h0.6l0.6,0.1h0.6h0.6l0.5-0.3l0.5-0.4
		l0.5-0.4L142,10l0.2,0.6l0.1,0.5v0.6v0.6l-0.1,0.6l-0.2,0.6V14l-0.1,0.6l0.1,0.6l0.3,0.5l0.1,0.6l0.2,0.5l0.1,0.6l0.1,0.5l0.4,0.5
		l0.4,0.4l0.5,0.3l0.6,0.2h0.6l0.6,0.1l0.4,0.5l0.2,0.5l0.5,0.4l0.3,0.5l0.3,0.5v0.6v0.6v0.6l0.1,0.6l-0.1,0.6l-0.2,0.6l-0.2,0.5
		l-0.1,0.6l0.1,0.5l0.5-0.2L148,26l0.4-0.5l0.4-0.3l0.6-0.2h0.6h0.6l0.5,0.3l0.5,0.3l0.4,0.4l0.4,0.4l0.3,0.5l0.4,0.5l0.4,0.5
		l-0.1,0.6l0.2,0.8l0.4,0.4l0.5,0.4l0.2,0.5l-0.2,0.6l-0.1,0.6v0.6l0.2,0.5l0.4,0.5l0.3,0.5l0.4,0.4l0.6,0.1l0.5,0.3l0.5,0.3
		l0.4,0.4l0.4,0.5l0.2,0.5v0.6l-0.2,0.5l-0.1,0.6l-0.2,0.6l-0.1,0.6v0.6l0.5,0.3l0.5,0.2l0.6,0.2l0.6,0.1l0.5,0.2l0.5,0.3l0.5,0.4
		l0.3,0.5l0.6,0.2l0.5,0.2l0.4,0.4l0.3,0.5l0.1,0.6l-0.2,0.5l-0.5,0.5l-0.4,0.4l-0.2,0.5l0.4,0.3l0.4,0.5l0.3,0.5l0.2,0.5l-0.1,0.5
		l-0.4,0.5l-0.3,0.5l-0.4,0.5l-0.4,0.4l-0.5,0.1h-0.6l-0.6,0.1h-0.6l-0.5,0.3l-0.5,0.4l-0.5,0.2h-0.5L157,50l-0.5,0.2l-0.6,0.1h-0.6
		l-0.3,0.5l-0.4,0.5l-0.2,0.5l-0.1,0.6l0.2,0.6l0.3,0.5l0.3,0.5l0.2,0.5v0.6l0.1,0.6l0.2,0.5l0.3,0.5l0.4,0.5l0.3,0.5l-0.1,0.5
		l0.1,0.6l0.1,0.6l0.2,0.5l0.3,0.5l0.4,0.5L158,61l0.4,0.5v0.4l0.1,0.6l0.3,0.5l0.4,0.5l0.3,0.5l0.4,0.4l0.5,0.4l0.3,0.5l0.4,0.5
		l0.3,0.5v0.6l-0.2,0.5l-0.2,0.6l0.2,0.5l0.4,0.4l0.5,0.3l0.5,0.2l0.6,0.2l0.5,0.3l0.5,0.2l0.5,0.2l0.6,0.1l0.6,0.2l0.5,0.2l0.5,0.2
		l0.5,0.4l0.3,0.5l0.2,0.5v0.6l-0.1,0.6l-0.6,0.2h-0.6l-0.2,0.5l-0.1,0.6l0.1,0.6l0.4,0.5l0.1,0.5v0.6l-0.1,0.7v0.6l0.2,0.5l0.1,0.8
		l0.9,0.1h0.5l0.4-0.5l0.2-0.5l0.5-0.3l0.6-0.1l0.5-0.1l0.5-0.4l0.3-0.5l0.3-0.5l0.3-0.5l0.4-0.4l0.2-0.5l0.2-0.6v-0.6l0.2-0.6
		l0.2-0.5l0.3-0.5l0.3-0.5l0.4-0.4l0.6,0.2l0.1,0.6l0.1,0.5l0.4,0.5l0.5,0.1l0.6,0.1l0.6,0.2l0.5,0.2l0.6,0.1l0.6,0.2l0.5,0.2
		l0.6,0.2l0.5,0.1l0.6-0.1l0.5-0.2l0.4-0.5l0.5-0.3l0.5-0.2l0.5-0.4l0.4-0.4l0.3-0.5l0.3-0.5V71l-0.2-0.5l0.1-0.6l0.5-0.3l0.5-0.1
		l0.6-0.1l0.5-0.2l0.5-0.3l0.5-0.3l0.5,0.2l0.4,0.4v0.6l0.2,0.5l0.2,0.6l0.2,0.5v0.6l0.2,0.5l0.5,0.4l-0.1,0.5l-0.2,0.6l-0.1,0.6
		l-0.1,0.6v0.6l0.2,0.6l0.1,0.5l0.3,0.5l0.4,0.5l0.4,0.4l0.5,0.3l0.4,0.4l0.3,0.5v0.6v0.6l-0.1,0.6l-0.1,0.6v0.6l0.1,0.6l0.3,0.5
		l0.5,0.3l0.4,0.3l0.6,0.2l0.6,0.1l0.6-0.2h0.6l0.5,0.2l0.1,0.6l-0.2,0.5l-0.3,0.5l-0.3,0.5l-0.4,0.5l-0.2,0.5l-0.1,0.6l0.4,0.4h0.5
		h0.6l0.1,0.6l0.5,0.2l0.6,0.2l0.1,0.5l0.1,0.6l0.2,0.5l0.1,0.6l-0.1,0.6l-0.1,0.5l-0.2,0.6l-0.1,0.6V94l-0.1,0.6l-0.1,0.6v0.7v0.6
		l0.1,0.5l0.5,0.3l0.6,0.1h0.6l0.6-0.1l0.5,0.3l0.3,0.5l0.1,0.6v0.6l0.1,0.6v0.5l0.2,0.6l0.2,0.5l0.3,0.5l0.4,0.5l0.4,0.4l0.4,0.4
		l0.4,0.5l0.4,0.5l0.2,0.5l0.1,0.6l-0.1,0.6v0.6l0.2,0.6l0.2,0.5l0.4,0.5l0.5,0.3l0.3,0.5l-0.1,0.6l0.1,0.6l0.2,0.5l-0.1,0.6
		l-0.1,0.6v0.6l0.1,0.6l0.3,0.5l0.5,0.4l0.5,0.1h0.6h0.6h0.6h0.6l0.6-0.1h0.6l0.5,0.3l0.3,0.5l0.3,0.5l0.2,0.5l-0.3,0.7l-0.3,0.5
		l-0.3,0.5l-0.2,0.5l-0.3,0.5l-0.1,0.6l0.1,0.6l0.1,0.5l-0.1,0.6l-0.3,0.5l-0.1,0.6l-0.2,0.6l-0.1,0.5l-0.2,0.6l-0.1,0.5l-0.1,0.7
		l0.2,0.5l0.3,0.5l0.5,0.3l0.6,0.1l0.4,0.4l0.5,0.4l0.5,0.2l0.6,0.1l0.5,0.2l0.4,0.5l0.1,0.5l0.2,0.6l0.3,0.5l0.6,0.1l0.5,0.2
		l0.3,0.5v0.6v0.6l0.1,0.6v0.6l0.5,0.4l0.6,0.1l0.6-0.1l0.5,0.3l0.5,0.3l0.6,0.1l0.6,0.1l0.5,0.3l0.3,0.4v0.6l-0.1,0.6l0.3,0.5
		l0.5,0.2l0.6,0.2l0.2,0.5v0.6l-0.2,0.5l-0.3,0.5l-0.2,0.5l-0.2,0.6l-0.4,0.4l-0.3,0.5l-0.1,0.6l0.2,0.6l0.2,0.5l0.2,0.5l0.4,0.5
		l0.5,0.4l0.4,0.3l0.6,0.2l0.4-0.3l0.2-0.6l0.4-0.4l0.5,0.2l0.5,0.4h0.5l0.2-0.6l-0.2-0.5l-0.2-0.6l0.1-0.5l0.4-0.5l0.6-0.1l0.5,0.1
		l0.5,0.3l0.5,0.3l0.4,0.5l0.1,0.5l-0.2,0.5l-0.4,0.4l-0.5,0.2l-0.4,0.5l-0.3,0.4l-0.4,0.5l-0.5,0.2l-0.2,0.5l0.2,0.5l0.2,0.6v0.5
		l-0.2,0.6l-0.1,0.6l-0.1,0.6v0.6l0.1,0.6l-0.1,0.5l-0.1,0.6l-0.5,0.3l-0.6-0.1l-0.5-0.3l-0.3-0.5l-0.5-0.3l-0.5-0.2l-0.4,0.4
		l0.3,0.5l-0.2,0.5l-0.5,0.2l-0.3,0.5v0.6l0.1,0.5l0.2,0.6l0.2,0.5l0.5,0.4l0.4,0.3l0.5,0.4l0.4,0.4l0.4,0.4l0.3,0.5l0.2,0.6
		l0.3,0.5l0.5,0.1l0.6,0.2h0.6l0.5,0.3l0.5,0.2l0.4,0.5l0.2,0.5l0.4,0.4l0.5,0.3l0.4,0.3l0.5,0.4l0.3,0.5l0.4,0.5l0.3,0.5l0.5,0.3
		l0.5,0.3l0.5,0.3l0.4,0.4l0.4,0.4l0.2,0.6l0.1,0.5l0.1,0.6l-0.2,0.6l0.1,0.5l0.6,0.2l0.4,0.3l0.1,0.6l-0.4,0.5l-0.1,0.5v0.6
		l-0.6,0.1l-0.5-0.2l-0.5-0.2H229l-0.5,0.3l-0.4,0.4l-0.4,0.3l-0.3,0.5v0.6l0.3,0.5l0.3,0.5l0.5,0.2l0.4,0.5l0.1,0.5l0.1,0.6
		l0.1,0.6l0.3,0.4h0.5l0.4-0.4l0.4-0.5l0.5-0.3h0.6l0.5,0.2l0.5,0.3l0.5,0.3l0.5,0.2l0.5,0.3l0.5,0.2l0.4,0.4l0.4,0.5l0.5,0.3
		l0.5,0.2l0.4,0.5l-0.1,0.6v0.6l0.4,0.4l0.4,0.5l0.2,0.5l0.2,0.5l0.1,0.6l0.2,0.5l0.1,0.6l0.3,0.5l0.3,0.5l0.2,0.5l0.1,0.6l0.1,0.6
		l0.8,0.5l0.5,0.1l0.5-0.3l0.4-0.4l0.5-0.3l0.3-0.5l0.2-0.5l0.4-0.4l0.4-0.5l0.5-0.3l0.6-0.2h0.5l0.4,0.5l0.3,0.5l0.3,0.5l0.5,0.3
		l0.6,0.1l0.6-0.1l0.5-0.1l0.6-0.1l0.4,0.4l0.5,0.4l0.4,0.3l0.5,0.3l0.6,0.2l0.5,0.3l0.5,0.2l0.5,0.3l0.5,0.2h0.6l0.5-0.2l0.7-0.1
		l0.3-0.6l0.4-0.5l0.5-0.3l0.5-0.4l0.4-0.4l0.4-0.4l0.3-0.5l0.5-0.3l0.5-0.4l0.5-0.2l0.5-0.3l0.5-0.3l0.5-0.4l0.4-0.4l0.4-0.5
		l0.4-0.4l0.3-0.7l0.5-0.4l0.5-0.3l0.5-0.2l0.6-0.1l0.5-0.1l0.6-0.2l0.5-0.2l0.5-0.1l0.6-0.2l0.5-0.2l0.5-0.2l0.6-0.2l0.4-0.5
		l0.4-0.4l0.4-0.5l0.3-0.4l0.4-0.5l0.4-0.4l0.5-0.2h0.6l0.6-0.1l0.5-0.1l0.6-0.2l0.5-0.1l0.6-0.2l0.5-0.2l0.6-0.1l0.5-0.2l0.5-0.2
		l0.6-0.2l0.5-0.1l0.5-0.3l0.8-0.2l0.4-0.4l0.4-0.4l0.4-0.4l0.6-0.1l0.5,0.3l0.5,0.3l0.5,0.3l0.4,0.3l0.6,0.2l0.4,0.4l0.5,0.3v0.6
		v0.6l-0.1,0.5l-0.3,0.5l-0.4,0.5l-0.4,0.4l-0.4,0.4l-0.1,0.6l0.2,0.6l0.5,0.2l0.5,0.3l0.5,0.4l0.4,0.4l0.3,0.5l0.2,0.5l0.4,0.5
		l0.6,0.1h0.6l0.5-0.2l0.6-0.2l0.4-0.4l0.2-0.5l0.2-0.5l0.3-0.5l0.3-0.5l0.5-0.3l0.5-0.3l0.5-0.2l0.5-0.3l0.4-0.4l0.4-0.4l0.5-0.3
		h0.5l0.5-0.3l0.5-0.2l0.6-0.2l0.5-0.2l0.5-0.2l0.5-0.4l0.3-0.5l0.4-0.4l0.3-0.5l0.4-0.4l0.5-0.3l0.3,0.4v0.7l0.3,0.4l0.6,0.1
		l0.6-0.2l0.5,0.2l0.5,0.2l0.5-0.1l0.6-0.2h0.5l0.6,0.2l0.5-0.2l0.4-0.4l0.2-0.5l0.1-0.6V169v-0.6v-0.7v-0.5l0.1-0.7l0.1-0.5v-0.7
		v-0.6l-0.1-0.5v-0.6l0.3-0.5h0.6l0.5-0.2l0.5-0.4l0.4-0.4l0.4-0.4l0.5-0.4l0.3-0.4l0.3-0.5l-0.3-0.7l-0.1-0.6l-0.2-0.5l-0.3-0.5
		l-0.3-0.5l-0.3-0.5l-0.2-0.6l0.2-0.5l0.2-0.6l0.1-0.5l0.1-0.6v-0.6l-0.1-0.6l-0.2-0.5l-0.2-0.5l-0.2-0.6l-0.3-0.4l-0.1-0.6v-0.3
		l0.1-0.7l-0.2-0.5l-0.2-0.5l0.2-0.6L304,148l-0.4-0.4l-0.3-0.7l0.2-0.6l0.2-0.5l0.1-0.6l-0.1-0.5l-0.3-0.5l-0.5-0.5l-0.4-0.4
		l-0.2-0.6l-0.3-0.5l-0.2-0.5l-0.1-0.5l-0.2-0.6l-0.2-0.5l-0.7-0.6l0.4-0.8l-1-1l-0.8-0.9l-0.2-1.7l0.3-1.7l0.8-1.7l-0.8-1.5
		l-0.5-1.3l0.4-1.4l1.7-1.7l0.4-1.7l-0.1-2l-0.4-1.7l0.2-1.4v-1.4l-1.2-1.6l0.2-0.4l-0.1-0.6l-0.1-0.6l0.2-0.6l0.1-0.5l0.3-0.5
		l0.3-0.5l0.4-0.4l0.4-0.5l0.3-0.4l0.3-0.5l0.2-0.6l0.2-0.5l0.2-0.5l0.4-0.5l0.4-0.4l0.4-0.4l0.5,0.5l0.3,0.5l0.4,0.5l0.4,0.4
		l0.6,0.2l0.6,0.1l0.5-0.2l0.6-0.2l0.5-0.2l0.5-0.2l0.5-0.2l0.5-0.3l0.5-0.4l0.6,0.2l0.5,0.2l0.6,0.2l0.5,0.2h0.5l0.6-0.1l0.8-0.2
		l-0.3-1.4l0.1-1.3l0.2-0.7l0.9-1l1-1.5l0.8-0.7l0.2-0.6l0.5-0.6l0.7-0.2l0.2-0.2l0.4-0.6v-0.5l0.2-0.4l1.1-0.2l1.2-0.1l0.7-2.1
		l1.5-1.2l0.4-0.4l0.5-0.3l0.5-0.3L325,95l0.4-0.4l0.5-0.4l0.5-0.3l0.4-0.4l0.3-0.5l0.5-0.3l0.5-0.3l0.5-0.2L329,92l0.4-0.5l0.4-0.4
		l0.3-0.5l0.5-0.3l0.5-0.2l0.5-0.4l0.4-0.4l0.4-0.5l0.4-0.4l0.4-0.4l0.4-0.5l0.4-0.4l0.5-0.4l0.3-0.4L335,86l0.2-0.5l-0.1-0.6
		l-0.3-0.5v-0.3l0.2-0.6V83v-0.6v-0.6l0.1-0.6l0.1-0.5l0.3-0.5l0.3-0.5l0.5-0.4l0.5-0.4l0.4-0.4l0.6-0.2l0.5-0.3l0.2-0.5l-0.3-0.4
		h-0.6H337l-0.6,0.1l-0.5-0.2l-0.3-0.5l-0.2-0.5l-0.2-0.6l0.1-0.6l0.1-0.6l0.1-0.6l-0.3-0.5l-0.4-0.5l-0.5-0.2l-0.5,0.1l-0.6,0.2
		l-0.5,0.2l-0.6-0.1l-0.4-0.4l-0.2-0.5l-0.3-0.5l0.4-0.7l0.2-0.5l0.2-0.5l0.3-0.5l0.2-0.6l0.3-0.5l0.4-0.4l0.5-0.2l0.5-0.4l0.4-0.4
		l0.5-0.3l0.5-0.3l0.4-0.4l0.5-0.3l0.5-0.3l0.4-0.4l0.4-0.5l0.2-0.5l0.2-0.5l0.3-0.6l0.2-0.5l0.4-0.4l0.4-0.4l0.4-0.4l0.1-0.6
		l0.2-0.6l0.5-0.1l0.6-0.1l0.6-0.1l0.4-0.5l0.5-0.2l0.5,0.2l0.5,0.4l0.4,0.4l0.5,0.3l0.5,0.2l0.4,0.4l0.4,0.5l0.3,0.5l0.5,0.3
		l0.6-0.1l0.4-0.3l0.5-0.3l0.6-0.2l0.6-0.1h0.5l0.6-0.1l0.6-0.1l0.5-0.2l0.5-0.3l0.4-0.4l0.4-0.4l0.4-0.5l0.5-0.3l0.6-0.2l0.5-0.1
		l0.5-0.3l0.4-0.5l0.3-0.4v-0.6l-0.1-0.6l-0.3-0.5l-0.4-0.4l-0.4-0.4v-0.6v-0.6v-0.6l-0.1-0.6l-0.1-0.5V52l-0.1-0.6l-0.2-0.5
		l-0.1-0.6l-0.2-0.5l-0.2-0.5l-0.1-0.6l-0.1-0.6l-0.4-0.6l-0.3-0.5l-0.3-0.5l-0.3-0.5l-0.4-0.5l-0.4-0.4l0.2-0.4l0.2-0.5l0.2-0.5
		l0.3-0.5l0.4-0.5l0.5-0.3l0.4-0.4l0.4-0.5l0.3-0.5l0.2-0.5l0.1-0.6l-0.1-0.5v-0.6l0.1-0.6v-0.6l0.1-0.6l0.4-0.5l0.6-0.1h0.5
		l0.6,0.3l0.4,0.4l0.2,0.5l0.1,0.6l0.3,0.5l0.4,0.4h0.6l0.6-0.1h0.6l0.5,0.2l0.3,0.5l0.4,0.4l0.6-0.1l0.5-0.1l0.6-0.1l0.5-0.2
		l0.6,0.1l0.5,0.3l0.6-0.1l0.5-0.2l0.6-0.2l0.6,0.1l0.5,0.2l0.4,0.4l0.5,0.5l0.4,0.3l0.6-0.1l0.4-0.4l0.4-0.4l0.4-0.5l0.4-0.3
		l0.5-0.3l0.6-0.1l0.6-0.1l0.6,0.1l0.5,0.2l0.5,0.3l0.5,0.2l0.6,0.2h0.5l0.6-0.5l0.2-0.5l0.3-0.5h0.5l0.4,0.5l0.4,0.4l0.3,0.5
		l0.4,0.5l0.5,0.3l0.5,0.3h0.6l0.6-0.1l0.4-0.4l0.4-0.4l0.3-0.5l0.5-0.3l0.5-0.3h0.6l0.5,0.2l0.5,0.3L384,40l0.4,0.3l0.4,0.5
		l0.1,0.6v0.6l-0.5,0.2h-0.6l-0.6,0.2l-0.5,0.2l-0.5,0.3l-0.4,0.4l-0.2,0.5l-0.2,0.6l-0.2,0.5l-0.2,0.5l-0.5,0.4l-0.5,0.1l-0.6-0.1
		l-0.6-0.2l-0.5-0.1l-0.5,0.2l-0.6,0.3l-0.5,0.2l-0.6,0.1h-0.5l-0.3,0.4l-0.1,0.6l0.3,0.5l0.1,0.5l0.3,0.5l0.4,0.5l0.1,0.5v0.7
		l0.1,0.5v0.9l0.1,0.6l-0.2,0.6l-0.2,0.5l-0.2,0.5l-0.1,0.3l0.2,0.5l0.5,0.3l0.1,0.5l-0.2,0.6l-0.1,0.5l-0.1,0.6l0.2,0.6l0.2,0.5
		l0.2,0.5l0.4,0.5l0.4,0.4l0.6,0.1l0.4-0.3l0.3-0.5l0.5-0.4l0.5-0.2l0.8-0.2l0.3,0.5l0.5,0.4l0.4,0.4l0.3,0.5v0.6v0.6l-0.1,0.6
		l-0.1,0.6v0.6l0.5,0.2l0.4-0.4l0.4-0.5l0.5-0.3l0.6-0.1l0.5,0.1l0.1,0.6l-0.2,0.5l0.1,0.6l0.5,0.2l0.2,0.5l-0.2,0.5l-0.2,0.6
		l-0.3,0.4l-0.5,0.4l-0.2,0.3l-0.6,0.1l-0.5,0.2l-0.5,0.3l-0.3,0.5l0.2,0.5l0.4,0.4h0.6l0.6-0.2h0.5l0.3,0.5l-0.2,0.5l-0.3,0.5
		l-0.2,0.5l-0.2,0.6v0.6l-0.1,0.6l-0.3,0.4l-0.5,0.5l-0.5,0.2l-0.5,0.2l-0.5,0.4l-0.2,0.5l-0.1,0.6l-0.1,0.5v0.6l0.3,0.5l0.2,0.5
		l-0.1,0.6l-0.5,0.4l-0.6-0.1l-0.4-0.3l-0.5-0.4h-0.6l-0.6,0.1h-0.5l-0.5,0.4l-0.2,0.4l0.6,0.2l0.6,0.1l0.3,0.1h0.4l0.9,0.3l0.4,0.3
		v0.6l-0.1,0.3l0.1,0.6l0.3,0.5l0.5,0.2l0.4,0.5l0.3,0.5l0.4,0.4l0.5,0.2l0.5,0.3l0.5,0.4l0.2,0.6l0.7,0.5l0.4,0.4l0.5,0.4l0.4,0.3
		l0.6,0.2l0.5,0.1l0.6,0.1h0.7l0.5,0.2l0.3,0.5l0.3,0.5l0.4,0.4l0.2,0.6l0.4,0.4l0.5,0.3l0.5-0.2l0.5-0.3l0.6-0.1l0.5-0.1l0.6-0.1
		h0.6l0.6-0.2l0.4-0.3l0.3-0.5l0.5-0.3l0.5-0.2l0.6-0.1l0.6-0.2l0.5-0.1l0.5-0.2l0.6-0.1l0.5,0.3l0.4,0.3h0.9l0.5-0.2l0.6-0.1
		l0.6-0.1L403,85l0.5-0.1l0.6-0.1l0.6-0.1l0.5-0.1l0.6-0.1h0.6h0.6l0.5-0.4l0.2-0.4v-0.4l0.5-0.3l0.5-0.3l0.2-0.5l-0.1-0.5l0.1-0.6
		l0.4-0.4l0.5-0.3l0.4-0.5l0.3-0.5l0.2-0.6l0.2-0.4l0.4-0.5l0.2-0.5l0.2-0.6l0.4-0.5l0.3-0.5l0.4-0.4l0.5-0.2l0.5-0.1l0.5-0.4
		l0.4-0.4l0.5-0.4l0.6-0.1l0.5-0.3l0.4-0.3l0.5-0.4l0.5,0.3l0.5,0.3l0.5,0.3l0.5,0.2l0.5,0.4l0.4,0.3h0.6h0.6l0.6,0.2l0.5,0.2
		l0.6,0.1l0.5,0.2l0.3,0.5v0.6l-0.3,0.5l-0.3,0.5l-0.2,0.5l-0.1,0.6l-0.1,0.6l0.2,0.5l0.2,0.5l0.5,0.3h0.6l0.5-0.2l0.4-0.3l0.3-0.5
		l0.3-0.5l0.4-0.3l0.6-0.1l0.5,0.2l0.3,0.5l0.2,0.5l-0.1,0.6v0.6l0.2,0.6l0.3,0.5l0.2,0.5v0.6v0.6l-0.1,0.6l-0.3,0.5l-0.3,0.5
		l-0.5,0.3h-0.6l-0.4,0.3l-0.1,0.5l-0.1,0.6v0.6v0.6l0.2,0.6l0.1,0.5l0.3,0.5l0.5,0.3l0.5,0.3l0.5,0.3l0.5,0.2l0.5,0.3l0.4,0.4V92
		l-0.3,0.5l-0.4,0.4l-0.2,0.5l0.1,0.6v0.6l-0.1,0.6l-0.2,0.6l-0.1,0.5l0.3,0.5l0.1,0.5l0.2,0.5L428.7,98.2L428.7,98.2"/>
</g>
</svg>
