<?xml version="1.0" encoding="utf-8"?>
<!-- Generator: Adobe Illustrator 27.0.0, SVG Export Plug-In . SVG Version: 6.00 Build 0)  -->
<svg version="1.1" id="Layer_1" xmlns="http://www.w3.org/2000/svg" xmlns:xlink="http://www.w3.org/1999/xlink" x="0px" y="0px"
	 viewBox="0 0 500 500" style="enable-background:new 0 0 500 500;" xml:space="preserve">
<style type="text/css">
	.st0{fill:#E74646;stroke:#FFFFFF;stroke-width:4.6041;stroke-linecap:square;stroke-linejoin:bevel;stroke-miterlimit:3.998;}
</style>
<g transform="matrix(0.999751,0,0,0.999751,18.6633,21.7738)">
	<path vector-effect="none" class="st0" d="M265,5.6h0.4l0.6-0.2l1.2-0.2l1.2-0.2l0.6-0.2l0.6-0.2h1.2l1.2,0.2l1,0.6l0.6,0.8l0.6,1
		l0.2,1.2l0.4,1.2l-0.4,0.8l-0.4,0.6l-0.2,1.2l0.4,1.2l0.4,1l0.2,1.2l0.2,1.2l-0.2,1.2l-0.4,1l0.2,1.2l1,0.4l1.2,0.4l0.6,0.4
		l0.4,1.2l-0.2,1l-0.8,0.8l-0.8,1l-0.6,1l0.6,1h1l1.2-0.4l1.2,0.2l1,0.2l0.6-0.8l0.6-0.8l1-0.8l1-0.6l1-0.4l1.3-0.2l1.2,0.2l1,0.4
		l0.8,0.8l1,0.8l0.2,1v1.2l-0.4,1l-0.4,1.2l0.6,1l1.2,0.2h1.2h1h1.2h1.2l1.2-0.4l1.2-0.2h1.2l1,0.6l0.2,1.2l0.8,0.8l1.2,0.6l1,0.4
		l1,0.6l0.4,1l0.4,1.2l0.4,1.2l0.2,1.2l0.2,1.2l0.2,1.2h1h1.2l1.2,0.2l-2.7,1.2l-4.2,1.7l-2.1,2.5l-3.5,2.7l-2.5,1.9l-0.6,2.3
		l-1.5,0.8h-1.3l-3.3,0.4l-2.3,0.6l-2.5,1.5l-1.7,1.3l-1.5,2.3l-1,2.7l-2.3,1.2l-0.2,4.2l1,2.3l-0.2,1.7l1.3,2.9l-0.6,1.5h-3.1
		l-0.6,1.3l0.4,2.3l-1.5,1.7l-1.3,0.2h-3.1l-2.3,1.3l-1.9,1.2l-2.3,0.8l-2.5-0.8l-1.9-0.4l-1.5-0.8l-2.7-1.5l-2.3-0.4l-2.3-0.6
		l-4.2-0.2h-3.3h-3.7l-3.3,1.2l-2.3,0.4h-1.3l-3.7,0.4l-3.3,2.3l-1.9,1.7l-1.5,3.5l-2.3,4l-1,2.3l-4,0.6l-2.5,0.8l-3.3,1.2l-2.9,1.3
		v1.2l-1,1.3l-0.4,1.3l1.9,0.6l2.1-1.3l1.3-1.9l1.7-0.8l2.9,0.2h3.5l1.7-0.4l1.7-0.4l1.3-1.7l1.5-2.7l1-2.9l1-1.5V91v-0.8l0.4-1.2
		l0.8-1.2l1-0.6l0.8-0.4l0.8-0.2l2.3-0.8h0.6l1.2-0.2l1.2-0.2l1-0.2l2.9,0.2h1h2.1l0.8-0.2h0.8l0.6,0.8l0.8,0.4l0.8,1.2l0.2,0.8
		l0.4,0.8l0.4,1.2l0.2,1.2v1.3l0.4,1.2l0.4,2.1l0.6,1.7l0.4,1.3l1,1.5l1,0.8l0.8,0.4l0.6,0.6l0.4,0.8l0.2,1v1.7v1l-0.4,1.2l-0.4,1.2
		l-0.4,1l-0.2,1l3.1-0.6l0.8-0.2h0.8l3.3,0.4l0.8,0.2l1.9,0.2l1.2,0.4l1.2-0.2h1.3l1.7,0.2l1.3-0.2l0.8-0.4l0.8-0.8l0.2-1l0.6-0.6
		l1.2-0.6l1.3-0.6l0.8-0.2l1.7-0.8l2.3-0.6l1.7-2.3l1.2-0.8l0.8-0.2l1.2,0.2l0.6-1.3l0.6-0.6l0.8-0.6l0.8-0.6l0.8-1l2.7-2.1l0.8-1
		l1.2-1.3l0.6-0.4l1.5-0.2l2.3-2.5l1.5-1l2.1-1.2l1-0.8l2.7-1.3l0.8-0.2l1-0.6l1.3-0.4l3.1-0.4h1.7l2.1,0.2l1,0.2h1l0.8,0.4h0.8
		l0.6-0.6l0.6-0.4l1,0.4l0.8,0.8l0.8,1l1.7,0.6l1-0.4l0.8,0.2l2.1,1.3l1,0.4L324,90l3.1,2.5l1.7,1.9l0.8,0.8l1.7,1.2l1.3,0.8
		l0.6,0.6l2.1,2.1l1,1.7l0.6,0.6l0.8,1l1.3,1.5l0.6,1l0.2,0.8l1.3,1l1.2,0.4l0.8,1l0.6,1.5l0.4,0.8l0.4,0.8l0.6,0.4h1.9l1-0.6
		l0.4,0.8l0.8,0.8l0.6,0.6l0.6,1.2l0.4,0.8l0.6,0.8l0.4,0.8l0.4,0.4l1,1.3l0.6,0.4l1,0.6l1.3,1.2l0.4,0.4l1.2,1.2l1,0.2h1l0.8-0.8
		l0.4-0.8l1.7-0.4h0.8l0.8-0.2l1.5-0.2l1,1l0.4,0.4l1.2-0.4l1,0.2l1.2,0.8l0.8,0.4l1,0.6l0.4,0.8l1-0.2l0.6,1l0.6,0.8h1.3h0.8
		l0.6,0.2l0.8,0.2l1,0.2l0.6,0.4l1.5,1l0.8,0.6l0.6,0.4l1.2,0.4l1.5-0.2l1.5-0.2l1.2-0.2l0.8-1l1.2,0.2l1-0.8l1.2-0.8l1-0.2l1-0.2
		l0.8-0.2l1.2-0.4l0.6-0.2l0.6-0.2l1-0.6l1.3-0.6l0.8-0.2l0.4,1l1.3,0.6l0.8,1l-0.2,0.6l-0.8,0.8l-0.8,0.6l-0.6,0.4l-1,0.2l-0.8,0.2
		l-0.8,0.4l-0.6,0.4l-0.6,0.4l-0.6,0.4l-0.6,0.8l-0.6,0.4l-0.6,1l-1,0.6l-1.5,0.4l-0.8,0.4l-1,0.4l-0.6,0.4v1.2l1.2-0.4l0.6-0.6
		l0.8-0.2l0.6,0.8l-0.6,1.2l-0.4,0.8l-0.2,1l-0.4,1.2l-0.2,0.6l-0.6,1.2l-0.2,2.5l-0.8-0.2h-1h-1.3h-1.2l-1.3-0.4l-0.4-0.4l-1.2,0.8
		l-0.4,0.6l-0.2,0.8l-0.4,0.6l-0.8,1l-0.4,0.8l-0.2,0.8l-1.7,2.3l-2.3,1.9l-0.4,0.8l-0.8,0.2l-0.8,0.4l-2.7,1.9l-0.6,0.6l-1,1.2
		l-0.8,0.8l-0.8,0.4l-0.4,0.8l0.2,1l-0.4,0.8l-0.4,1.2l-0.4,0.6l-0.8,1.2l-1.3,1l-0.8,1.2l-0.8,0.2l-1-0.4l-0.8,0.6l0.8,0.4v1
		l0.6,1.2l-0.2,0.8l-1.2,0.2l-0.6-0.2l-1.7,1.2l-1,0.4l-0.8-0.4l-0.4-0.6l-1.2,0.8l-1.9,0.6l-0.6,0.8l-1.2,0.6h-0.8l-0.6-0.2l-1-0.2
		l-1.5-0.6l-0.2,1l-0.4,1l-0.8,0.8l-0.8,0.6l-0.2,1.2l-1.2,1l-0.8-0.2l-0.2-1l0.2-1.5l-0.4-1l-0.2-1.2h-1l-0.6,0.6l-1.2,0.6
		l-0.6,0.4l-0.6,1v0.8l-0.4,0.6l-0.8-0.4l-1.5,1.2l0.2,0.6l0.4,0.6l0.2,1.2l0.4,1.5l-2.5,2.3l0.8,1.9l0.6,1.2v1.3l0.2,1h0.8l1-0.8
		l0.2-1.2l0.6-2.7l0.2-1.2l3.5-1.7l0.2,1.2v1.2h1.3v3.1l-0.8,1l-0.6,0.8l-0.8,0.8l-0.4,0.6l-0.4,0.8l0.4,1h1l0.4-0.6l1-1.2l1.5-1.9
		l0.6-0.8l0.6-0.6l1-1.2l1.5-2.1l0.2-2.5l0.6-1l1.7-0.4l1.9-0.4l1-0.4l0.8-0.4l1-0.2l1-0.4l0.6-0.4l0.6-1.3l1.3-0.6l0.6-1.2l0.8-0.6
		l1-0.4l1-0.8l1-0.6h1.2l0.4,1.3l1.2-0.2l0.8-0.4l1.2-0.4l-0.2,2.3l-0.2,0.8l-0.2,1.2l0.2,1.3l0.2,0.8l1.2,1.2l0.8,0.2l0.8-1l1,0.4
		l0.8-0.6l0.6-1l0.2-0.8l-0.2-1l0.4-1.2l0.6-2.1l0.6-1l1.3,0.4h0.8h0.8l0.4-0.6l-0.4-0.6l-0.8,0.2L376,170l-0.8,0.2l-0.6-0.2l-1-1
		h-1.2l-1,1l-1,0.4l-0.8-0.2l-1.2,0.6l-0.6,0.2l-0.8-1.2v-0.8l0.8-0.4l1-1.2l1.2-2.1l0.8-1l0.8-0.4l1-0.4l0.8-0.6l0.4-0.8l0.8-0.4
		l2.5,0.2l1-1.3l1.2-0.2l0.6,0.4l1-0.6l1.3-0.4l0.4-0.6l-0.2-0.6l0.8-1l1.2,0.4l1.5,0.2l1-0.2l0.8,0.8l-0.6,1l0.2,0.6l0.4,0.6l1.2-1
		l1.7,0.6l-0.2,0.8l-0.2,0.8l0.8,0.2h0.8v1.9l-1.2,1.2l-0.4,1l-0.6,0.6l-0.8,0.2l-0.4,0.8l0.2,1.3l-0.6,1l-0.6,0.2l-0.8-0.4
		l-1.3-0.4l-0.6,0.6v1l0.6,0.8l0.8,0.4l0.8,0.2l0.6,0.4l0.6,0.2l1,0.4l0.2,1l0.2,1.5l0.8,1.2l1.5,1.2l0.2,0.6l0.2,0.6v1.5l-0.8,0.4
		l-0.2,0.8l0.4,0.6l-0.8,0.6l-0.6,0.8l-1-0.6l-1-0.4l-1.2,0.6l-0.6,0.4l-0.4,0.8l0.4,0.8l0.8,0.4l0.4,0.6l-0.4,1v1.7l0.2,0.6
		l0.6,0.6l0.4,0.6l0.4,1l0.6,0.4l0.2,1.7l-0.2,0.6l-2.1,0.4l0.4,1l0.2,0.8l-0.6,0.4h-1v0.8l0.6,0.4l0.6,0.2l0.4,1.5l1.9,0.4h1.2
		l1-0.6l0.8-0.4l0.8-0.2l0.8,0.2l0.4,1.3l0.6,1l-1.7,0.4l-0.4,0.8l-0.6,0.6l0.2,0.8l0.4,0.6l0.4,0.6l0.2,1.2l-0.6,0.4h-1.2l-0.2,0.6
		l-0.4,0.8l-1,0.8l-0.6,0.6l-1.2,0.4l-1.3,0.4l-0.8,0.8l-0.6,0.8l-0.8,0.6l-0.8,1.2l-2.1,0.4l-1,0.4l-0.6-0.8l-1-0.6l-0.8-0.8
		l-1-0.8l-1.3-0.8v-1.5l1-1.2l0.8-1.3l0.4-1.2v-0.8l-1.5-1.5v-1.9l-0.2-0.8l1.2-0.4l0.6-1l-0.4-0.6H377l-1.2,0.4l-0.4-1l1-1l0.4-0.8
		l1-0.6l-0.4-0.8l0.6-0.8l-0.4-0.6l-1.7,1.3l-1,0.4l-0.6-0.6v-1.2l0.2-0.8l-0.8-1.2l1.2-1.7h-1l-1,1.3l-1.2-0.2l-0.6,1.2l0.8,0.4
		l1,0.6l0.4,1.2l-1.3,0.6l0.2,0.6l0.8,0.6l-0.2,1.3l0.2,0.8l-0.8,1l0.4,1.5l1,3.1l-0.2,1l-0.2,1.5l-0.4,1.7l-1,2.3l-1,1.2H370
		l-0.6-0.8v-0.8l-0.6-0.6l-0.8,0.2l-0.4,1.7l-0.2,0.8l-0.4,0.6l-2.1,0.6h-1.3l-0.6,0.2l-0.8,0.2l-0.6-0.4l-0.6-0.6l-0.4-1.9
		l-0.4-1.9V208l-0.2-1.2v-1l0.2-1.3L360,203l1-1l-0.8-0.8l0.4-0.6l1.2-1l0.2-0.6l-1.2-1l-0.8,1.2h-0.8l-1-0.2l-0.8,0.6l-0.2,0.8
		l1.2,0.6l0.4,1.5v1.5l0.4,1.9v1l-0.4,1.3v0.6l0.8,1.9l0.6,2.1H359l-0.6-0.6l-0.4-0.6l-1-2.1l-1.3-1.9l-0.4-1l-0.4-1.3l-0.2-0.8
		l-0.4-0.6l-1.7,0.4l-0.6-0.6l-1-0.6l-0.8,0.6l-1.5-1l0.8,1.2l0.6,1.5l0.2,1.3l-0.4,1.2l-1,1.3l-0.4,0.6l0.2,0.8l-0.4,1h-1l0.6,1.3
		l0.6,1.3h-1.2l-0.2,0.8l-0.8,0.8l-1.3,0.2l-0.6-1.2l-0.6,1.2l-0.4,1l-0.6,0.8l-1.2-0.4l-0.6-0.4l-1.7-0.4l-1.9,0.2l-0.2,0.8v0.8
		l1.3-0.2l0.8,0.2l1-0.2l0.4,0.4l0.6,0.6l1.2,0.4v1.2l-0.6,0.6l-2.1,1l0.2,0.6l-0.6,0.6l-0.8,0.4l0.2,0.8l1,0.4l2.3,0.4h1.9l0.8-0.2
		l1.2-0.8l1-0.2l0.8-0.4l1-0.8l0.8-0.4l1-0.4l0.8-0.2h0.6l1.7,0.2l1.9,1l0.6,0.2h1l1.9-0.2l-0.6,1.5v1.3l0.4,1.3v1l0.4,1l1.7-0.2
		l1.2-0.2l0.6,0.8v0.8l-0.4,0.6l0.2,0.8h1.2l0.6-0.6l0.8,0.8h0.8l2.1,1.2l-0.8,0.4l-1-0.2l-1-0.4l-1,0.4l0.8,0.8v1l0.6,1l-1.2-0.4
		l-0.2,0.8v1l0.2,1.2l1,0.6l0.6-0.6l1-0.6l-0.4,1.7l0.6,0.6l0.6-0.6l0.4,1.2l1-0.4l0.8-0.2l0.8,0.2l0.4,0.6l-1.3,1l-1,0.4l-0.6,1.2
		v1.2l-1,0.2l-1-0.2l-1-0.2l-0.6,1l-0.8-0.2l-1.9-0.6l-2.7-1.3l-0.8,0.4v1l-0.6-0.2l-1-0.2l-1.7-0.4l-1.5-0.6l-2.1-1.9l-0.8-0.4
		l-1,0.6l-0.8,0.6l-0.6,0.8l1.3,1.2l-0.6,1.3l0.4,0.8l1.2-0.4l1.2,0.4l2.1,0.8l1.2,0.6l0.8,0.4l1-0.6l1.5-0.4l0.6,0.2l0.8,1l0.2,0.8
		l0.8,0.4l0.8-0.4l0.6,0.2v0.8l-0.2,1.3l1.2,0.2l0.8,1l0.4-0.6l0.6-0.2l1-0.2l0.8-0.8l1-0.4l0.4,1l-1.3,1.5l1,0.8l0.4,1.2l-1.3,1.2
		l-1,1v0.6h1.3l0.8-0.2l0.8,0.4l-0.4,1l0.2,0.8l-2.3,0.2l-0.8,0.8l-0.6,0.4l-0.6,1.9l-0.2,0.8l-0.2,0.8l0.4,2.7l-0.4,0.8l-0.6,0.4
		l-1,0.2l-1,0.4l-1.2,0.2l-1,0.4l-0.6,0.4l-1.9,1l-0.6,1l-2.1,0.4l-1,0.4h-2.7l-0.8-0.2h-2.3l-1.9,0.4l1,0.8l-0.8,0.8l1.5,0.4
		l0.8,0.4l1.7,0.4l0.6,0.2l0.8,0.6l0.4,1.9l0.4,1.3l0.8,2.5l0.6,1.2l0.4,1.3l1,1.9l1.3,2.5l0.4,1.2l0.8,1.2l1.7,1.7l1.2,1.3l0.8,1.2
		l0.6,0.8l-0.2,1l-0.2,0.8l-0.8,0.4l-0.6,1v1l1.5,2.7l2.1,3.7l0.2,1.2l-0.2,1.2l-0.2,0.8l1,0.8l0.6-0.2l1.5,1.2l1,0.4l1-0.4l1.3-1
		l0.2,1v1.3l-0.2,0.8l-0.4,1v1.3l-0.2,1.2l-0.8,0.6l1,0.8l-1.3,0.8l-0.8,0.2l0.2,0.6l-0.4,0.6l0.8,0.2l-0.2,1.2l-2.1,1.3l-1.2,0.6
		h-1l0.2-1.5l0.4-1.2l0.4-0.6l-0.2-1l-0.6-0.6l-0.2-0.8l-1.2-1.5l-0.8-0.6l-0.8-0.2l-1.3,0.2l-1-1.2l-0.6-0.4l-1.2-0.4l-0.8-0.4
		l-0.8-0.2h-0.6h-1.2h-1l-1.2,0.6l-0.6,0.4l-0.6,1l-0.8,0.6l0.4,1l1,0.4l0.4,0.8l-1.2,0.4l-0.6-0.2l-0.6,1l-1.2-0.4l-1-1l-1.2,0.2
		l-1.3,0.4l0.4,1.2l1,0.6l-0.4,1l1,0.4l0.8,0.4h1l0.6,0.8l-0.4,0.6h-0.8l0.4,1l-1.5,1.5l-0.6,0.8l-0.6,0.4h-1.2h-1l-0.2,1l-0.6,0.8
		l-0.6,0.2l0.6,1l0.8,1.2l-0.4,0.6l-1.2,0.6l0.2,0.8l0.6,0.4l0.8-0.2l1.2-0.8l-0.4,1.2l0.2,0.8l-0.2,0.8l-0.8,0.4l-0.4,0.8l-0.2,1.2
		l-0.4,0.8l-0.8,0.2l-1.3-0.2v-0.8l-0.8-0.2l-0.6-0.4l-0.4-1.3l-0.6-0.6l-1-0.2l-0.8-0.2l-0.4-1l-1,0.4l-1.2,0.2l-0.8,0.8l-0.8,1.2
		l-0.2,1.2l0.2,2.3l-0.2,1.2l0.2,1l0.2,0.8l0.6,1l0.8,0.6l1.2-0.4l1.5-1.9l-0.4,1.7l-0.2,1.3l0.6,1.3l0.4,0.6l-0.8,0.2l-0.8,0.2
		l-0.8-0.2l-1-0.2l-0.4-0.8l-0.6,0.2l-0.6-0.6l-1,0.2l-0.6,0.4l0.2,0.8l0.8,0.4l0.8,0.4l-0.4,1l-0.6,0.4l-0.4-0.8l-0.8-0.6l-0.6-0.2
		l-1.3,1.3h1l-1,1.2l-1.2,1l-0.6,0.4l-1.3,0.8l-0.8-0.8l-0.8,0.6l-1.2,0.6l-0.4-0.8l0.2-1.2l-0.4-0.4l0.2-1.2v-1.3l-0.8-0.8v-1.2
		l-0.8-0.8l-0.6-0.4l-0.2-2.1l-0.8-1l0.2-0.8l1.2-0.6l0.6,0.6l0.8-0.6l1-1l0.6-0.4l0.8-0.8l0.6-0.6l1.3-1l0.4-0.6l0.2-1.9l-0.2-0.8
		l0.2-1l1.2-0.8l0.8-0.4h1.3l1.2,0.4l1.5,0.8l0.8,0.6l0.8-0.4l-1.2-1l-0.6-0.8l-0.6-2.1l-0.6-0.8l-0.4-1.9l-0.2-1l-0.4-0.8l-0.4-1
		l-1-2.7l-1.5-1l-1-0.4l-0.6-0.6l-0.6-0.8l0.8-1.7l-1-0.4l-0.2-1l-0.2-0.6l-0.6-1.2l-0.6-0.6l-0.6-0.2l0.2-1l-0.6-0.6l-0.8-0.2
		l-1,0.4l0.4,2.1l0.2,1.2l-1.2,0.8l-0.6,0.6l-0.8-0.2l-0.8,1.2l-1.2,0.4l0.6,0.8l0.4,1l-0.8,1l-0.6,0.6l0.2,1l-0.6,1.2l-0.6,1
		l-1,0.2h-0.8l-1.9,0.2l-0.8-1.7l-1,0.2l-0.8-0.2l-0.4-0.8l-1-0.4l-0.6,0.4l0.4,0.6l-0.4,0.8l-1,0.2v0.8h0.8l1.3,0.2l1,0.2l1.3,0.4
		l1.7,0.2l1.3-0.2l1-0.2l0.2,0.8v0.8l0.2,0.6l1.2,0.8l0.6,0.8l-0.2,0.8l-0.6,0.8l-0.4,1.9l0.4,0.6l-1.5,1.2l-1,1l-0.4,0.8l0.6,0.8
		l0.2,0.8l-0.6,1.2l-1.2-0.4l-0.8,0.2l-0.8,0.4l-0.4,0.6l0.2,1l-0.4,1l-1.3,0.8l-1.2,0.2l-1-0.4l-0.8,0.6l-0.8,1.3l-0.2,1l-0.6,1.9
		l-0.6,1l0.6,0.8l-0.4,1.3l-0.2,0.8l-0.2,0.8l0.8,1.7l0.4,0.6v1l-0.2,0.8l-1,1.3l-0.2,0.6l-0.6,0.8h-0.8l-0.6,1.9l-0.4,0.4l-0.8,0.4
		l-0.6,0.2l-1.2-0.2h-0.8l-1.2-0.8l-1-0.6l-1-0.2h-2.1l-1.7-0.2l-1.2,0.2l-1,0.8l-0.8,0.4H286h-1.2h-0.8l-1.2-0.8l-1.2-0.6l-0.8-0.6
		l-1-0.4l-0.6-0.4l-2.1-0.2l-1.5-0.2l-1-0.2h-1.7l-3.7-0.4l-0.8-0.2l-0.8,1.2l-0.4,0.6l0.8,1h1.2l2.1,0.2l1.7,0.2h1l0.6,1l0.4,1.2
		l1,0.6l0.8,0.6l1.2,0.8h0.8l1.3,0.2l2.1,0.2l2.3,0.2l1.2,0.4l1.5,1l1.2,0.8l1,1l1.3,1.5l-0.2,1.2l-0.2,0.8v1.5v0.8l-0.4,1.3
		l-0.6,0.8l-1.7,1.2l-1.3,1.5l-0.8,0.6l-1,1.3l-0.4,0.6l-0.6,0.6l-0.8,1.3l-1.2,2.3l-1,2.9l-1,2.1l-0.4,1.3l-1.2,1.3l-0.6,1l-1,0.8
		l-1,0.4l-1.3-0.4l-1.7,1.7l0.8,0.4v1.5l-1.3,0.6l0.2,1.9l-0.2,1v1l1.3,1.3l0.4,1.3l-0.8,0.8l-0.4,0.6l-0.2,0.8l-0.8,0.8l-0.8,0.6
		l-0.4,0.6l-1,1.3l-0.8,0.4l-0.6-0.4h-1.2l-0.8,1.7l-0.2,1v1.9l0.4,1.7l0.8,1.9l1.3,1.7l0.4,1l1.2,1h0.6l1.3-0.4l1.2-0.4l1-0.4
		l1.2,0.2l0.8,1.2l0.6,0.4l0.8,1l-0.2,0.8l-0.4,0.8l-0.6,0.8l-0.6,1l-0.2,0.6l-0.4,1l-0.4,1l-0.4,0.6v1.9l0.4,0.6l0.2,0.8v1.3
		l0.2,1.2l-0.8,1l-0.6,0.4l-1.5,0.4l-0.6-0.4l-0.2-0.8l-1-0.8l-1-0.8l-1,0.4l-0.6,0.2l-2.5-1.7l-1.2-0.2l-0.2,0.8l0.2,0.6l-0.2,0.8
		l0.8,0.4v0.6l-0.8,1.2l-0.4,0.8l-0.4,0.6l-0.2,1l0.2,0.6l-0.4,0.6v0.6l1,0.6l0.8,0.8l0.6,1.2l-0.4,0.6l1,0.6l-0.2,1.2l-0.4,0.6
		l-0.8,1.2l-1.5,0.4l-0.6,0.8l0.2,0.6l-0.2,0.6l1,0.6l0.6,1.2l-0.4,1.3l-0.4,0.6l-0.8,0.4l-0.2,0.8l0.8,1.3l0.2,0.8l-0.6,1l-0.6,0.4
		l-1.3,0.6l-0.6,0.4l-0.8,0.8l-0.4,0.4l-1.2,0.2l-0.8-0.4l-0.4-0.4l-0.2-1l-0.8-0.6h-1.2l-1.3,1l-0.8-0.4l-1-0.8l-0.4-0.6l-0.4-0.8
		l0.2-1.2l0.2-1.2l-0.4-1l-0.6-1l-0.2-1.2l0.6-0.8l1-0.8l-0.4-1l-1-0.8l-1-0.8l-0.6-1l-0.4-1l-0.6-1.2l-0.6-0.8l-0.8-0.8l-1-0.8
		l-1-0.8l-0.6-0.8l-0.4-1l-0.4-1.2l-0.2-1.2l-0.2-1.2l-0.4-1l-1.2-0.6l-1-0.2l-1.2,0.2l-1,0.4l-1.2,0.4l-1,0.4l-1.2-0.4l-0.8-0.8
		l-0.6-1l-0.6-0.8l-0.6-1.2l-0.6-0.8l-0.8,0.2l-1.2,0.2l-1.2,0.4l-1.2,0.2l-1,0.2l-1.2,0.2l-1.2,0.4l-1,0.2h-1.3l-1,0.4l-1,0.4
		l-1,0.8l-0.8,1l-0.6,1l-0.6,1l-0.8,1l-0.8,0.8l-0.8,1l-0.8,0.8l-1,0.6l-1,0.8l-1,0.4l-1.2,0.2l-0.8-0.6l-0.8-0.8l-0.2-0.2l-0.6-0.8
		l-1-0.6h-0.8l-1.2,0.4l-0.8,0.6l-0.8,0.8l-0.6,1l-0.6,1l-1,0.6l-0.6,1l0.2,1.2l-1,0.4l-1.2,0.4l-1,0.6l-0.8,0.6l-1.2,0.4h-1
		l-1.2-0.6l-0.2-1l-1.2-0.4l-0.8,0.8l-0.6,0.8l-1-0.2l-0.4-1.2l-0.4-1l-0.8-0.8l-1.2,0.2l-1,0.6l-0.8,0.2l-0.6-0.4l-1.2-0.4l-1-0.4
		l-1-0.8l-0.4-0.4l-0.4-0.4l-0.8-0.8l-0.6-1l-1-0.6l-0.8-0.8l-1-0.6l-0.2-1.5l0.2-1.2l-0.2-1.2l-0.4-1l-1.2-0.2l-0.6-0.8l0.4-1.2
		l0.8-0.8l0.6-1l-0.2-1.3l-0.2-1.2l-0.2-1v-1.3v-1.2l-0.2-1.2l-0.8-0.8h-1.2l-1,0.4l-1,0.6l-1-0.6v-1l0.2-1.2v-1.2l-0.6-1l-0.6-1
		l-1-0.8L168,416l-1-0.8l-0.8-0.8l0.2-1.2l0.2-1.2v-1.2v-1.2v-1.2l0.2-1v-1.2l-0.4-1.2h-1.2l-1.2,0.2l-1,0.4l-1.2,0.2h-1.2h-1.3
		l-1.2,0.2l-1,0.4l-0.6,1l0.2,1.2l0.4,1l-0.4,0.8h-1l-1-0.8l-0.8-0.8l-1.2-0.2l-0.8,0.8l0.2,1v1.2l-0.2,1.2l-0.2,1L152,415l-0.4,1
		l-0.4,1.2l-0.2,1l-0.2,1.2l-0.4,1l-0.2,1.2l-0.2,1l-0.4,1.2l-0.4,1l-0.6,1l-0.8,0.8l-1,0.2l-1-0.8l-0.4-0.4l-0.6-0.4l-1-0.4
		l-1.2-0.2h-1.2l-1,0.4l-1,0.4l-1,0.6l-0.8,1l-0.4,1v1.2l-0.4,1.2l-0.8,0.8l-1,0.8l-0.8,0.8l-1,0.6l-0.8,0.8l-0.8,1l-0.6,1l-0.8,1
		l-0.4,1l-0.4,0.6l-1.2,0.2l-1.2,0.2l-1-0.2h-1.2l-1.2,0.2l-1.2,0.2h-1.2l-1.2,0.2h-1.3h-1.2l-1-0.2l-1.2-0.4l-0.8-0.6l-0.6-1
		l-0.4-1.2l0.2-1.2l-0.2-1.2l-0.6-1l-1-0.2l-1,0.6l-1,0.6l-1,0.8l-1,0.2l-1.2-0.2l-1-0.2l-1.2-0.4l-0.4-0.4l-0.6-0.2l-1-0.4
		l-1.2-0.2l-1.2,0.4l-0.6,0.8l-0.8,0.8H100h-0.6l-1-0.6h-1.2l-0.2,1l0.2,1.2l-0.8,0.8l-1,0.4h-1.2h-0.6h-0.6h-1l-1.2-0.2l-1-0.8
		l-0.2-1.3l-0.2-1l-0.8-1l-0.6-1l-0.8-0.8l-0.6-1l0.2-1.2l0.4-1l1-0.8l1-0.2l0.8-1l0.4-1v-1.2l-0.4-1l-0.2-1.2v-1.2l0.2-1l-0.2-1.2
		l-0.4-1.2l0.2-1l0.2-1.2l-0.6-1l-0.8-0.8l-0.6-1l-0.6-0.8l-1-1l-0.4-1v-1.2l0.4-1l0.6-1v-1.2l-0.6-1l-0.4-1l-0.8-0.8l-0.6-1l-0.6-1
		l-0.8-1l-0.2-1l-0.4-1.2l-0.2-1.2l-0.2-1l-0.2-1.2l-0.4-1l-0.4-1.2l-0.8-1.7l-0.4-1l-0.4-1.2l-0.4-1l-0.4-1l-0.4-1l-0.6-1.2
		l-0.6-0.8l-0.6-1l-0.6-1l-1-0.8l-1-0.4l-1-0.6l-1-0.4l-1.2-0.6l-0.8-0.6l-1-0.8l-0.6-1v-1v-1.2l0.2-1l-0.2-1.7l-0.2-1.2l-0.4-1
		l-0.8-1v-1l0.6-1l0.8-1l0.6-0.8l0.8-1l0.8-1l0.8-0.8l1-0.4l1-0.8l0.6-0.8l0.6-1.2l0.2-1l0.2-1.2l-0.2-1.2l-0.4-1l-0.8-0.8l-1-0.4
		l-1.2,0.2l-0.6-0.8l0.6-1l0.8-0.8l1-0.8l0.6-1l0.4-1l0.4-1.2l0.2-1l-0.6-1l-1.2-0.4l-1-0.4h-1.2l-1-0.2l-1.2-0.4l-0.8-0.8l-1-0.6
		l-1-0.8l-0.4-1l-0.2-1.2l-0.8-0.8l-1.2-0.4h-1l-1,0.8l-0.2,1l-0.4,1.2l-1,0.8l-1,0.4l-1,0.4l-1.2,0.2l-1,0.4l-0.8,1l-1,0.4h-1.2
		l-0.4-0.8l-0.4-1.2l-1-0.6l-1-0.4l-1.2-0.2l-1.2,0.2l-1,0.4l-1.2,0.2l-1.2,0.2h-0.6h-0.6l-1.2,0.2l-0.4,1l0.2,1.2l0.8,0.8l0.4,1
		l-0.8,0.6l-1.2-0.4l-1-0.4l-1-0.4l-1.2-0.4l-0.8-0.8l-0.6-0.8l-0.6-1l-0.6-0.8l0.6-0.6l0.8-0.8l1-0.8l0.8-0.6l1-0.8l0.4-1l0.6-1
		l-0.4-1.2l-0.4-1l-0.4-1l-0.8-1l-0.8-0.8l-0.6-1l-0.6-0.8l-0.6-1l-0.2-1.2v-1.2l0.2-1.2l0.4-1l0.4-1.2l0.4-1l0.4-1v-1.2l-0.8-0.8
		l-1.2-0.4l-1-0.2l-1-0.4l-0.2-1.2l0.2-1.2l-0.2-1.2l-0.8-0.8v-1.2l-0.4-1l-0.6-1l-0.4-1l-0.4-1.2l0.2-1.2l0.4-1l0.4-1.2l0.4-1
		l0.2-1.2l-0.2-1.2l-0.4-1l-0.6-1l-0.2-1.2l0.2-1l0.4-1.2v-1l-0.6-1l-1-0.4l-1.2-0.6l-0.4-1l-0.6-1l-0.2-1.2l-0.2-1.2l-0.4-1v-1.2
		l-0.6-1l-0.2-1.2V286l-1.2-1.3l-0.8-0.8l-0.8-0.8l-0.8-1l-1-0.4l-1.2-0.2l-1.2-0.2l-1-0.4l-1-0.6l-1-1.3l0.2-1.2l-0.2-1l-0.6-1
		l-0.4-1.2l-0.4-1l-0.4-1.2L16,272l-0.8-1l-0.8-1.2l-1.2,0.8l-0.8,0.2h-0.4l-1,0.6l-1.2,0.4l-0.8,0.6l-1.2,0.2l-0.4-1l0.6-1l0.8-0.8
		l1-0.8l-0.4-1l-0.6-1l-1-0.8l-1-0.6L6.3,265l-0.8-0.8l-1-0.6l-1.2-0.2l-1,0.6l-1.2,0.2l-1-0.4l-1.2-0.2h-1.2l-1.3-0.2v-1l-0.4-1.2
		l-0.6-0.8l-1-1l-0.4-1l-0.4-1v-1.2v-1.2l-0.4-1l-1-0.8l-0.8-0.8l-0.2-1.2l0.2-1l1-0.6l0.2-1l-1.2-0.4l-1-0.6l-0.6-1l-0.2-1.2V245
		v-1.2l-0.2-1.2l-0.2-1.2v-1.2v-1.2l0.6-1l1-0.6l1-0.6l0.6-0.8l0.4-1.2l0.4-1l-0.2-1.2l-0.6-1.2l-0.4-1l-0.6-0.8l0.2-0.8l1-0.6
		l1-0.4l1.2-0.2l1.2,0.2l1,0.4h1.2l1.2,0.2l1.2-0.2l1-0.4l0.8-1v-1l-0.4-1.2l0.2-1l0.4-1.2l0.4-1l0.4-1l0.4-1.2l0.4-1l0.2-1.2L4,217
		l-0.6-1l1.3-1l0.8-1l0.8-0.8l0.8-0.8l1-0.4l1.2-0.4l1.2-0.2h1.2h1.2l1.2-0.2l1.2-0.2l0.6-0.8v-1.2l-0.4-1l-0.4-1.2l-0.2-1.2
		l0.2-1.2l0.6-0.8l1.2,0.2l1,0.8l0.8,0.6l1.5-0.4l1-0.6h1.2l1,0.6h1.2l0.8-1l-0.2-1.2l0.4-1l1-0.4l1.2-0.2l0.8-0.8l0.6,0.2l1.2,0.4
		l1-0.2l1.2-0.2l1-0.6l0.4-1l0.2-1v-1.2l-0.2-1.3l0.2-1l0.2-0.6l0.4-0.6l0.4-0.8l0.2-0.2l0.8-0.8l0.8-0.8l1-0.6l0.6-1l0.2-1.2
		l0.6-0.8h1.2l0.8-0.6l0.2-1.2l0.6-1l0.8-0.6l0.8-1l1.2-0.2h1.2l1,0.4H47l0.8-0.8l0.6-1l0.8-1l0.6-0.8l0.8-1l0.6-1l0.6-1l0.8-1
		l0.8-0.8l0.8-0.8l0.8-1l0.4-1l0.4-1l0.2-1.2l0.4-1v-1.2v-1.2l-0.4-1.2l-0.4-1l-0.2-1.2l0.4-1.2l1-0.4l0.6-1l-0.2-1.2l0.2-1l0.6-1h1
		l1,0.6l0.8-0.6l0.8-1l0.6-1l0.8-0.8l0.4-0.8l0.4-0.2l0.6-1l0.4-1l0.2-1.2v-1.2v-1.2l0.4-1.2l0.8-0.6h1.2l1.2-0.2l1-0.4l0.8-1l0.4-1
		l-0.2-1.2l0.2-1.2v-1.2l-0.4-1l0.4-1.2l0.6-1.2l0.4-1.2l-0.6-1.3l-0.2-1.2l-0.2-1.2l-0.4-1l-0.6-1.2l-0.6-0.8l-0.8-1l-0.4-1
		l-0.2-1.2l-0.6-1l1-1.2l0.8-0.8l1.2-0.4l0.8-0.8l0.4-1l-0.4-1.2l-1-0.2H68l-1.2,0.4l-1.2,0.4l-1-0.2l-0.2-1.2l0.6-0.8l1-0.8l1-0.6
		l1-0.6l0.8-0.8l0.8-0.8l1-0.8l0.8-0.8l0.4-1l-0.8-0.6l-1-0.2l-1-0.6l-0.8-1v-1.2l-0.2-1.2l-0.4-1l-0.6-0.6l-0.2-0.4l-0.4-1v-1.2
		v-1.3v-1l1.2-1.2l0.8-0.6l0.8-0.8l1-1l0.8-0.6l1-0.6l1.2-0.4l1.2-0.2h1.2l1,0.4l1,0.6l1,0.6l1,0.4l1,0.6l1,0.8l0.8,0.8l1,0.6l1,0.4
		l0.8-0.8l0.6-1l0.8-0.8h1.2l1,0.2l1.2,0.4l1,0.2l1.2,0.4l1,0.2h1.2h1.2l1,0.2l1.2,0.4l1,0.4l0.6,0.2l0.6,0.2l1,0.2l1.2-0.2l1-0.8
		v-1.2l0.2-1.2l0.2-1l0.6-1.2l0.6-1l1-0.6l1-0.4l1-0.6l1-0.6l0.8-0.8l1-0.4l1.2-0.2h1.2l1,0.8l1,0.8l1-0.4l1-0.4l1-0.6l1-0.6
		l0.8-0.8l0.8-0.8l-0.4-0.6l-1-0.4l-1-0.8l-1-0.8l-1-0.4l-1-0.6l-0.2-1.2l0.6-1l-0.4-1l-1-0.8l-0.6-1l0.2-1l-0.6-1.2l-0.8-0.6
		l-0.4-1.2v-1.2v-1.2l-0.4-1.2l-0.6-0.8l-1.2-0.2l-0.2,0.2l-0.8,0.4l-1,0.6l-1,0.4l-1-0.6l-0.8-0.8l-1.2-0.2l-1.2-0.2l-0.8-0.8v-1.2
		l0.6-1l0.6-1l0.2-1.2v-1l-0.8-1l-0.6-1l0.4-1.3l0.6-0.2l0.4-0.2l1.2-0.2l1.2-0.4l1-0.4l1-0.6l1-0.6l0.6-1l0.6-1l0.2-1l0.8-1l0.8-1
		l0.8-0.8l1-0.8l0.8-0.6l1.2-0.2h1.2l0.6,1l0.4,1l0.4,1l0.4,1.2l0.6,0.8l0.6-0.2l0.4-0.2l0.6-1l0.4-1l0.6-1.2l0.8-0.8l0.8-0.8
		l0.8-0.8l0.8-1l0.6-1l0.2-1.2l-0.2-1.2l-0.2-1.2l-0.2-1.2l-0.2-1.2v-1.2l0.2-1.2l0.2-1l1.2-0.6l1,0.4l1.2,0.4l1,0.4l1-0.4v-0.8
		v-0.4V42l0.4-1.2l0.8-0.8l0.4-1.2l0.6-1l0.6-1l0.2-1v-1.2l-0.8-1.2l-0.6-1l-0.2-1.2l-0.2-1.2v-1.2l0.2-1.2l0.6-1l0.6-1l0.4-1
		l0.2-1.2l0.2-1.2l0.2-1l0.4-1.2l0.8-1l0.8-0.8l0.8-1l0.6-0.8l0.4-1.2l0.2-1.2l-0.4-1l-0.2-1.2v-1.2v-1.2V9.5l-0.2-1.3V7l0.4-1
		l-0.2-1.2l-0.2-1l-0.2-1.2l-0.8-1l0.6-1l1-0.6l1-0.4l1-0.6l1.2-0.2h1.2l1-0.2l0.8-1l1.2-0.2h1.2h1.2l1-0.8l0.8-0.6l1.2-0.4h1.2
		l0.8,1l1,0.4l1-0.6l1-0.6h1.2l1,0.2l1.2,0.2l1.2,0.2l1-0.2l1.2-0.2l1.2-0.4l1-0.4h1.2h1.2l0.2,0.6l0.6,1l0.8,0.8l0.8,1l0.4,1.2
		l0.4,1l0.2,1.2l0.4,1l0.4,1l0.8,1l0.4,1l0.4,1.2l0.8,0.8l0.8,1l0.6,0.8l1,0.8l1.2,0.4l1,0.6h1.2l1.2,0.2l1,0.4l1.2,0.2l1.2,0.4
		l1,0.4l0.8,0.8l1,0.8l0.6,1l0.6,1l1,0.8l0.8,0.8l1,0.6l1,0.8l1,0.4l1,0.2l1.2,0.2l1,0.4l1.2,0.2l1.2,0.2L195,21h1h1.2h1.2l1.2-0.2
		l1.2-0.4l1.2-0.2l1.2-0.2l1-0.4l1.2-0.4l1-0.2l1.2-0.4l1-0.4l1-0.6l2.1-0.8l-0.4,0.8v1.2l-0.4,1.2l-0.4,1l-0.6,1l-0.6,1l-0.4,1.2
		l0.6,1l0.8,0.8L211,26l1.2-0.2l1.2-0.2l0.8-0.6l0.8-0.8l0.2-1.2V22l0.4-1l0.8-0.8l1,0.8l0.4,1l0.4,1l0.4,1.2l0.4,1l0.6,1v1.2
		l-0.4,1.2l-0.2,1l0.2,1.2l1.2,0.4l0.8,0.8v1.2l0.8,0.8l1,0.4l0.8,1l0.6,0.8l0.6,1l1.7,0.4l1-0.8l0.4-1l0.6-1l1.2-1.2l0.8-1l0.8-0.8
		l1-0.8l0.2-1l0.2-1.2l0.4-1l1-0.4h1.2l1.2-0.4l0.8-0.6l0.2-1.2l0.6-1l1,0.2l0.4,1.2l0.8,0.4l1-0.2l1-0.6l0.6-1l0.8-1l0.8-0.6l1-0.8
		l0.4-1l0.2-1.2l-0.2-1.2l-0.4-1.2l-0.6-1l-0.6-1l-0.4-1l0.8-1l1-0.4l1.2-0.2l1.2-0.2h1.2l1.2-0.2l0.4-0.8l0.8-1l0.8-0.8l1-0.6
		l0.8-1l1-0.6h1.2l1,0.4l1.2,0.6l1,0.2l1.2,0.2l1-0.6l0.8-0.6l1-1l0.8-0.6l1-0.6L265,5.6L265,5.6"/>
	<path vector-effect="none" class="st0" d="M383.3,97.2l1,0.4h1l0.2-0.8l0.8-0.6l0.8-0.8l1,0.4l1,0.4l1.2-0.2l1.2-0.2l1.2-0.2l1-0.4
		l1-0.4l1.2-0.2l1,0.6l0.4,1l0.8,0.8l1,0.8l1,0.6h1.2h1.2l1.2-0.2l1.2,0.2l0.6,0.8l0.4,1l0.4,1h1.2l0.8-0.6l0.2-1.2l1,0.6l1,0.8
		l1,0.6l1,0.2l0.8,1.3l1,0.6l1-0.4l1.2,0.2l1,0.8l1,0.8l1,0.6l0.8,1l0.8,0.8l1.2,0.4l0.8,0.8l-0.6,1v1.2l-1.2,0.2l-0.6,0.8l-0.8,0.8
		l-0.6,1v1.2l0.6,1l0.6,1l-0.8,0.8l-1,0.6l-1,0.6l-1.2-0.2l-1-0.6l-1-0.6l-1-0.4l-1.2-0.4l-1-0.4l-1.2-0.4l-1.3-0.6l-1-0.2l-1-0.6
		l-1.2-0.2l-1.2-0.4l-1.2-0.4l-0.8-0.6l-1.2-0.2h-1.2h-1.2l-1.2,0.2l-0.8-0.6l-0.8-0.2l-1.2,0.2l-1.2,0.2l-1.2,0.4l-0.8,0.6
		l-1.2,0.2l-1-0.4l-1-0.6l-0.6-1l-0.6-1l-1-0.6l-1,0.6l-1-0.4l-0.6-1l-0.4-1.2l0.2-1.2l-0.2-1.2l-0.2-1.2l-0.4-1l-0.6-1l-0.2-1.2
		l-0.4-1l-0.8-0.8l-1-0.8l-0.8-1l-0.8-1l-0.2-1.2l0.2-1.2l1-0.4h1.2l1,0.6l0.6,1L383.3,97.2"/>
	<path vector-effect="none" class="st0" d="M409.7,144.6l0.2,1.2l0.4,1.2l0.4,1l0.2,1.2l-0.4,1l-0.2,1.2l-0.4,1l-0.2,1.2l-1,0.2
		l-0.4-1l0.2-1.2l-1-0.2l-0.4,1.2l-1,0.2v-1l-0.4-0.8l-0.8,1l-1,0.4l-0.6-0.8l-0.2-1.2l-0.8-0.6l-0.2-1.2l-1-0.6l0.2-1l-0.8-1
		l-1.2,0.2l-0.8-0.6h-1.2l-0.8,0.8l-1,0.6l-1-0.4l0.4-1l0.4-1.2l0.2-1.2l0.2-1l0.2-1.2V140l0.4-1l0.8-0.8l1.2-0.2l1.2-0.2l1.2-0.4
		l1,0.4l0.8,1l0.6,1l0.6,0.8l1,1l0.6,0.8l1,0.8l1.5,0.8h1.2L409.7,144.6L409.7,144.6"/>
	<path vector-effect="none" class="st0" d="M403.6,72.9h1.2h1.2l0.6,0.8l0.4,1.2l0.6,0.8l0.8,0.8l-0.8,1l-0.6,0.8l0.6,1l-0.4,1.2
		l-0.6,1l0.6,1l0.6,1l0.2,0.8l-1,0.4l-1.5,0.4l-1-0.8l-1-0.6l-1-0.2l-1.2-0.2l-1.2-0.2l-1-0.2l-1.2-0.4l-1-0.4l-1-0.6l-1.2-0.4
		l-1-0.4l-1.2-0.2l-0.8-0.6l0.6-1l0.8-0.6l0.4-1l1-0.6l1-0.8l1.2-0.2h1l1-0.6l1.2-0.4l1-0.6l0.8-0.8l0.8-0.6L403.6,72.9L403.6,72.9"
		/>
	<path vector-effect="none" class="st0" d="M393,227.1l-1.2,0.2l-1.2-0.2l-0.6-1l-0.4-1l-1.2-0.2l-1-0.4l0.4-1v-1.2l-0.8-0.8
		l-1.2-0.4l-0.6-0.2l-0.4-1l-0.2-1l0.2-1l-0.4-1.2l0.6-1l0.8-1l1-0.6l0.8-0.8l0.6-1l0.8-1l1-0.6l1.2-0.2l1-0.6l1.2-0.2l0.6,1l0.4,1
		l-0.2,1.2l0.4,1l0.2,1.2l0.4,1l0.4,1l0.4,1.2l-0.4,1l-0.6,1l0.4,1.2l-0.2,1.2l-0.4,1l-0.4,1.2l-0.6,1L393,227.1"/>
	<path vector-effect="none" class="st0" d="M422.1,115.9l1.2,0.2h1.2l0.8,0.8l1.2,0.2h1.2l1-0.6l0.8-0.6l1,0.6v1l1,0.8l0.4,1
		l-0.2,1.2l0.8,0.8l0.2,1l-0.8,0.8l-1,0.6l0.6,1l-0.2,1l-1-0.4l-1.2,0.2l-0.4,1l0.8,0.8l1,0.6l0.6,1l0.2,1l-1.2,1h-1.2l-1.2-0.4
		l-1,0.4l-1.2-0.4l-0.4-0.8l0.6-1l0.2-1.2v-1.2l0.4-1v-1.2l-0.6-1l-0.6-1l-1-0.8l-1-0.4l-1.2-0.2l-1-0.4l-0.8-0.8l0.6-1l1-0.4
		l0.2-1.2L422.1,115.9L422.1,115.9"/>
	<path vector-effect="none" class="st0" d="M420.1,55.3l-0.2,1l1,0.6h1.2h1.2l1.2,0.2l1,0.4l0.8,0.8l-0.6,0.8v0.8l0.8,1l0.4,1
		l-0.8,0.4l-1-0.2l-1.2-0.4l-1-0.4l-1.2-0.2l-1.2,0.2h-1.2l-0.6,0.8l-1.2,0.2l-1.2,0.2l-1,0.4l-1.2,0.2l-1.2-0.2l-1-0.6h-1.2l-0.2-1
		l-0.2-1.2l-0.8-0.8V58v-1.2l-0.2-1.2l0.8-0.8l1,0.6l1,0.2h1.2l1.2-0.4l1,0.2l1,0.6l1-0.4l0.6-1l1-0.6h1L420.1,55.3L420.1,55.3"/>
	<path vector-effect="none" class="st0" d="M378.9,116.4l-1.2,0.2h-1.2l-1.7-0.2l-1.2-0.2l-1-0.8l-1.2-0.2l-0.8-0.8l-0.4-1l-0.4-1.2
		v-1.2v-1.2l-1-0.6l-1-0.6l-0.4-1.2l1.2-0.2l1.2-0.2l1-0.2l1.2-0.4l1.2-0.2l1,0.4l0.6,1l0.4,1.2l1,0.6l1,0.2l0.8,0.6l0.4,1.2l0.4,1
		l0.2,1.2l0.2,1.2l0.2,1.2L378.9,116.4L378.9,116.4"/>
	<path vector-effect="none" class="st0" d="M425,78.5l0.8,0.8l0.8,0.8v1.2l-0.6,1l-1,0.6l-1.2-0.4l-1-0.6l-0.2-1.2h-1l-0.8,0.8
		l-0.6,1l-0.8,0.8l-1,0.4l-1.2,0.2h-1.2l-1.2,0.4l-0.8,0.4l-1.2,0.2l-1-0.4l0.4-1l1-0.6l-0.4-0.8l-1,0.4l-1,0.4l-1.2,0.2l-0.2-1
		l0.2-1.2l0.6-0.8l1.2-0.4l1.2-0.2h1.2h1.2l1,0.4l1-0.4l1-0.8l1.2-0.4l1.2,0.2h1.2l1.2-0.2l1.2-0.2L425,78.5"/>
	<path vector-effect="none" class="st0" d="M417.3,129.5l1.2,0.2l1,0.6l1,0.6l0.8,0.8l0.8,1l-0.6,0.6l-1.2-0.6l-1-0.4v1l1,0.4
		l0.2,1.2l0.2,1l1.2,0.4l0.6,0.8l-0.4,1l-1,0.4l-1-0.6l-1-0.8l-1-0.4l-1.2-0.2l-1-0.6l-1-0.8l-1-0.4l-1-0.8l-0.6-1l-1-0.6l-0.6-1v-1
		l0.8-0.8h1.2l1.2,0.2l1.2-0.2l1.2-0.2L417.3,129.5L417.3,129.5"/>
	<path vector-effect="none" class="st0" d="M390.3,301.1l-1,0.4l-1-0.4v-1.2l1.2-0.2l1-0.4l0.6-1.3v-1.2l-1-0.4l-0.8-0.6l0.2-1.2
		l1-0.8l0.8-0.6l-0.4-1.2l-1-0.6l0.4-1.2l1-0.4h1.2l1,0.4l0.6,1l0.6,1l0.2,1.2l1.2,0.2l0.8,0.8l-0.6,1l-0.2,1v1l-0.8,1l-1,0.6
		l-1,0.4l-1,0.6l-0.8,0.8L390.3,301.1L390.3,301.1"/>
	<path vector-effect="none" class="st0" d="M425,23.5l1.2,0.2h1.2l1-0.6l1.2-0.2l1.2-0.2h1.2l1.2,0.2l1.2-0.4l0.6,0.6l0.2,1
		l-0.2,1.2L434,26l-1-0.4l-1.2,0.2l-1.2,0.2l-1.2,0.4l-1.2,0.2h-1.2l-1.2,0.2l-0.6,1l-1,0.6l-1-0.6l-1.2-0.2l-0.8-0.8v-1.2l0.4-1.2
		l0.4-1l-0.8-0.8l-0.4-0.6l1-0.6l0.8,0.8l1,0.6L425,23.5"/>
	<path vector-effect="none" class="st0" d="M326.5,374.7l-0.4,1v1.2l-0.4,1l-1.2,0.4l-0.8,0.8l-0.6,1l-0.8,0.8l-1,0.6l-0.8-0.6
		l0.8-1l0.6-1l-0.8-0.8l-1-0.2l-1,0.6l-1,0.4l-1.2-0.4v-1l0.8-1l1-0.6l0.8-0.8l0.8-0.8l1.2,0.2l0.6,0.4l0.8-0.8l0.8-0.8l1.2-0.2
		l1-0.6l1,0.2l0.2,1L326.5,374.7L326.5,374.7"/>
	<path vector-effect="none" class="st0" d="M421.9,143.6l-0.8,1.3l-1.2-0.2l-1-0.6l-1-0.6l-1-0.6l-1-0.4l-1-0.6l-1-0.6l-1-0.8
		l-0.4-1.2l-1-0.6l-0.8-0.8l1-0.4l1.2-0.2l1.2-0.2l1,0.6l0.8,0.8l1,0.8l1,0.4l1.2,0.2l1.2,0.4l0.6,0.8l0.4,1L421.9,143.6"/>
	<path vector-effect="none" class="st0" d="M319.2,359.3l0.8,0.8l0.8,0.4l0.8,0.6l-0.6,0.8l-1.2,0.4l-0.8,1l-1,0.4l-1.2,0.2
		l-1.2,0.2l-0.8-0.8l-0.6-1l-1,0.4l-1,0.6l-1,0.6l-1.2-0.4l-0.4-1l0.2-1.2l1-0.6l1-0.6l0.8-1l1.2-0.2l1.2,0.2l1-0.4l1-0.4h1.2
		L319.2,359.3"/>
	<path vector-effect="none" class="st0" d="M378.1,217.2l1,0.4h1.2l1.2-0.2l1-0.2l0.6,1l0.4,1.2l0.8,0.8l0.6,1l-0.2,1.2l-0.8,1
		l-1-0.2l-1.2-0.2l-1.2-0.2l-1-0.6l-1-0.8l-1-0.6l-1.2-0.2h-1.2l-0.8-0.6l0.4-1l-0.2-1.2l0.8-0.6h1.2L378.1,217.2"/>
	<path vector-effect="none" class="st0" d="M404.7,89.1l1.2,0.2h1.2l0.6,0.8l-0.8,1l-0.6,0.8l-1.2,0.2l-0.2,1l-0.8,1l-1,0.6
		l-0.6,0.8h-1l-0.8-0.8l-0.6-1l-0.4-1l0.2-1.2l0.6-1l0.8-0.8l1.2-0.4h1.2L404.7,89.1L404.7,89.1"/>
	<path vector-effect="none" class="st0" d="M399.9,213l-1,0.6l-0.8-1l0.6-1l0.2-1.2l0.4-1l0.4-1l-0.2-1.2v-1.2l1-0.2l0.8,0.6l0.4,1
		v1.2l0.6,0.6h1.2l0.6,1l-0.4,1l-1,0.8h-1.2l-0.8,0.8L399.9,213L399.9,213"/>
	<path vector-effect="none" class="st0" d="M386.8,265.4L386,266l-1.3-0.6l0.2-1l0.4-1.2l0.8-0.8l1-0.2l1-0.8l0.8-0.8l1.2-0.4
		l1.2,0.2l-0.2,1.2l-0.6,1l-1,0.6l-1,0.6l-0.6,1L386.8,265.4L386.8,265.4"/>
	<path vector-effect="none" class="st0" d="M384.5,127.4l-1.2,0.2l-1-0.4l-0.6-1v-1.2l0.2-1l0.6-1.2l0.6-0.8l1.2-0.2l1.2,0.2
		l0.8,0.8l0.8,0.8l0.8,0.8v1.7l-1.2,0.4l-1,0.4L384.5,127.4L384.5,127.4"/>
	<path vector-effect="none" class="st0" d="M381.8,227.8l-1,0.6l-1.2-0.6l-1-0.6l-1-0.6l-0.4-0.8l-0.6-1l-0.8-0.4l0.6-0.8l1-1l1-0.4
		l1,0.8l1,0.8l0.6,1v1l0.8,0.8V227.8L381.8,227.8"/>
	<path vector-effect="none" class="st0" d="M418.8,147.9l0.6,1l-0.8,0.8l-1-0.6l-1-0.6l-1.2,0.4l-1.2-0.2l-1-0.8l-1-0.6l-1-0.6v-1.2
		l1-0.2l1.2,0.4l1,0.4l1,0.6l1,0.6l1,0.4L418.8,147.9"/>
	<path vector-effect="none" class="st0" d="M312.8,372.8h1.2l1-0.4l0.6,0.8l-0.8,0.8l-0.6,1l-0.4,1.2l-1-0.6l-0.8-0.8l-1,0.6l-1,0.6
		l-1,0.4l-0.2-1.2l0.2-1.2l0.6-0.8l0.6-1l0.8-0.6l1,0.4L312.8,372.8L312.8,372.8"/>
	<path vector-effect="none" class="st0" d="M381.2,108l-1,0.8l-1.3-0.2l-0.6-1v-1.2l-1-0.8l-0.8-0.8l0.8-0.8l1-0.8l1-0.6h1.2
		l0.6,0.8l0.4,1.2l0.2,1.2l-0.2,1.2L381.2,108L381.2,108"/>
	<path vector-effect="none" class="st0" d="M429,111.6l-1.2,0.2l-1-0.2l-1-0.6l-0.6-0.8l0.2-1.2l-0.2-1.2v-1.2l1.2-0.4l1-0.4l1,0.2
		l-0.4,1l0.6,1l1,0.6l0.4,1l-0.2,1.2L429,111.6L429,111.6"/>
	<path vector-effect="none" class="st0" d="M438.1,32v1l-1-0.2l-1.2-0.2l-1-0.4l-0.8-0.8l0.4-1.2l0.2-0.8l0.4-1l1.2-0.6l1,0.8
		l1.2,0.2l0.2,1.2l-0.4,1L438.1,32L438.1,32"/>
	<path vector-effect="none" class="st0" d="M413,181l-1,0.6h-0.6l-0.6-1.2l0.8-0.8l1-0.4l0.8-0.8l1-0.8l1.2-0.2l0.8,0.8l-0.8,0.6
		l-1,0.8l-0.6,1L413,181L413,181"/>
	<path vector-effect="none" class="st0" d="M419.6,124.7l1.2,0.2l1.2-0.2l1,0.2l0.4,1l-0.6,0.8l-1,0.4l-1.2,0.4l-1.7,0.2h-1.2
		l-1-0.6v-1l1-0.8l0.8-0.8L419.6,124.7"/>
	<path vector-effect="none" class="st0" d="M296,363.3h-1.2h-1.2h-1.2l-1-0.2l-1-0.6v-1l1.2-0.4h1.2h1.2l1.3-0.8l0.8,0.4l1,1l-0.2,1
		L296,363.3"/>
	<path vector-effect="none" class="st0" d="M326.1,358.7l-0.6,1l-0.8-0.6l-0.6-1l0.6-1l0.6-0.6l1.2-0.4h1.2l1.2,0.2l1,0.4l-0.4,1
		l-1,0.4l-1.2,0.2L326.1,358.7"/>
	<path vector-effect="none" class="st0" d="M319,371.6h-1l0.4-1l1-0.8l0.2-1l0.6-1l1-0.4l1,0.2l0.6,1l-0.4,0.8l-1.2,0.4l-0.2,1.2
		l-0.8,0.6H319L319,371.6"/>
	<path vector-effect="none" class="st0" d="M320.9,420.8l0.8,0.8l-0.4,1l-1-0.4l-1-0.6l-1.2-0.2l-0.4,0.6h-1l-1-0.8l0.2-1.2l1-0.4
		l1-0.4l1.2,0.2l1,0.4L320.9,420.8L320.9,420.8"/>
	<path vector-effect="none" class="st0" d="M380.3,81l-1.5,0.4l0.2-1.2l0.4-1l0.2-1.2l0.6-1V76l0.6-0.8l0.8,0.6l0.2,1.2l-0.4,1
		L381,79l-0.4,1L380.3,81"/>
	<path vector-effect="none" class="st0" d="M392,145.9l-0.8,0.8l-0.6-1l-0.6-1.3l0.8-0.8l0.8-1l0.4-1l1,0.4l0.6,1l-0.2,1.2l-0.8,1
		L392,145.9"/>
	<path vector-effect="none" class="st0" d="M390.5,93.3l-1,0.8l-1.2-0.2l-0.2-1.2l-1-0.8l0.4-0.8l0.6-0.8h1.2l1-0.6l1,0.4l0.2,1.2
		l-0.2,1.2L390.5,93.3L390.5,93.3"/>
	<path vector-effect="none" class="st0" d="M434.4,117.8l-0.8,0.6l-1-0.6l-0.2-1.2l-0.2-1.2l-0.4-1l-0.2-1.2l1-0.6l0.6,1l0.8,0.8
		l1,0.2l-0.4,1l-0.2,1L434.4,117.8"/>
	<path vector-effect="none" class="st0" d="M377.7,268.3l1,0.2h1.2l1.2-0.2l0.2,1.2l-0.4,1l-0.6,1l-1,0.4l-1-0.8l-1-0.2l-1-0.2
		l-0.4-1.2l0.8-0.8L377.7,268.3L377.7,268.3"/>
	<path vector-effect="none" class="st0" d="M385.3,259.8l-1,0.4l0.2-1l0.6-1l-0.2-1l-0.8-1l0.6-1l1-0.2h1.2l0.6,1l-0.6,0.8l-0.2,1.2
		l-0.6,1L385.3,259.8L385.3,259.8"/>
	<path vector-effect="none" class="st0" d="M458.9,23l-0.2,1l-1-0.4l-1.2-0.4l-1,0.6l-0.8-0.8l0.6-1l0.8-1l0.8-0.6l1.2-0.4l0.8,0.6
		v1.2L458.9,23L458.9,23"/>
	<path vector-effect="none" class="st0" d="M416.7,50.9l-0.4,1h-0.8l-1.2-0.2l-1.2-0.4l-0.8-0.8l0.8-0.6l1.2-0.2l0.8-0.8l1-0.2
		l0.8,1L416.7,50.9L416.7,50.9"/>
	<path vector-effect="none" class="st0" d="M463.9,22.2l-0.4,1l-1-0.6l-0.4-1L461,21l-1-0.4l0.4-1l1.2,0.2l1.2,0.4l0.6,0.8
		L463.9,22.2L463.9,22.2"/>
	<path vector-effect="none" class="st0" d="M431.1,59.8l0.4,1H430l-0.8-0.8l-1,0.4l-0.6-0.8l0.6-1l0.8-0.8l1.2-0.2l0.6,1L431.1,59.8
		L431.1,59.8"/>
	<path vector-effect="none" class="st0" d="M455.8,84.6l-1.2,0.6l-0.8-0.8l-0.8-0.8l-0.6-1l0.2-1l1,0.4l1,0.6l0.8,0.8L455.8,84.6
		L455.8,84.6"/>
	<path vector-effect="none" class="st0" d="M332.1,401.7l-0.6,0.8l-0.8-0.6l-0.8-1.3l0.8-0.8l0.8-0.8l0.8,0.6l0.2,1.2L332.1,401.7"
		/>
	<path vector-effect="none" class="st0" d="M445.4,6.2l1.2,0.2l1.2-0.2l0.8,0.8l-0.6,1l-1,0.4l-1.5-0.2l-1-0.6l0.2-1L445.4,6.2"/>
	<path vector-effect="none" class="st0" d="M464.3,91.2l-0.8,0.6l-0.8-1l-0.4-1l0.2-1.2l1.2,0.2l1,0.6l0.6,1.2L464.3,91.2
		L464.3,91.2"/>
	<path vector-effect="none" class="st0" d="M392.6,119.9l-0.8,0.8h-0.6l-0.8-1l0.4-1l0.2-1.2l1-0.6l1,0.6v1.2L392.6,119.9
		L392.6,119.9"/>
	<path vector-effect="none" class="st0" d="M451.9,84.6l-0.2,1.2l-1.2-0.8l-0.6-1l-0.4-1l0.6-0.8l1.2,0.2l0.2,1.2L451.9,84.6"/>
	<path vector-effect="none" class="st0" d="M356.7,343.5l-1,0.2l0.2-1.2l0.8-0.8l0.8-0.8h1.2l-0.4,1l-0.8,0.8L356.7,343.5
		L356.7,343.5"/>
	<path vector-effect="none" class="st0" d="M307.2,399l-0.8,1l-1-0.6v-1l-0.2-1.2l1-0.4l1.2,0.2l0.2,1L307.2,399L307.2,399"/>
	<path vector-effect="none" class="st0" d="M404.7,115.7l0.8,1l-0.8,0.4l-1-0.4h-1l-1-0.6l-0.4-0.8h1.2l1.2,0.2L404.7,115.7"/>
	<path vector-effect="none" class="st0" d="M320.3,330l-0.8,1l-0.6-0.6l0.2-1.2l0.4-1l0.6-0.6l1,0.4l-0.2,1L320.3,330L320.3,330"/>
	<path vector-effect="none" class="st0" d="M404.2,118.6l-0.4,0.4h-1.2l-0.8-0.2l-1.2-0.6l0.2-0.8l1.2-0.4l1.5,0.8L404.2,118.6
		L404.2,118.6"/>
	<path vector-effect="none" class="st0" d="M263.5,461.6l-0.8,0.6l-0.6-0.8l0.2-1.2l0.4-1l0.6-0.8l0.6,1l-0.2,1.2L263.5,461.6"/>
	<path vector-effect="none" class="st0" d="M394.3,303.6l-1,0.6l-0.8-0.6l0.8-0.8l1-0.6l0.8,0.4L394.3,303.6L394.3,303.6"/>
	<path vector-effect="none" class="st0" d="M408.8,51.1l-1.2,0.2l-1-0.4l0.4-1l1.3-0.8l0.6,1L408.8,51.1L408.8,51.1"/>
	<path vector-effect="none" class="st0" d="M269.2,438.9l-1,0.6l-0.8-0.8l0.8-0.8l1-0.4l0.8,0.6L269.2,438.9L269.2,438.9"/>
	<path vector-effect="none" class="st0" d="M316.8,382.2l-0.8,0.8l-0.4-0.6l0.2-1.2l1-0.6l0.8,0.8L316.8,382.2L316.8,382.2"/>
	<path vector-effect="none" class="st0" d="M413.6,42l-0.6,0.8l-0.8-0.8l0.4-1.2l1-0.4l0.6,0.6L413.6,42L413.6,42"/>
	<path vector-effect="none" class="st0" d="M346.5,343.7l-0.6,1l-0.4-1l-0.6-0.8l0.6-1l0.8,0.6L346.5,343.7L346.5,343.7"/>
	<path vector-effect="none" class="st0" d="M423.6,245.6L423,246l-0.6-0.8l0.6-1l1-0.4l0.4,1L423.6,245.6L423.6,245.6"/>
	<path vector-effect="none" class="st0" d="M321.9,384l-1,0.6l-0.2-0.8l0.8-0.8l1-0.6l0.2,1L321.9,384L321.9,384"/>
	<path vector-effect="none" class="st0" d="M340.4,344.1h-1.2l0.2-1l0.8-0.8l1-0.4l-0.4,1.2L340.4,344.1L340.4,344.1"/>
	<path vector-effect="none" class="st0" d="M393.9,266.6l-0.6,0.4l-0.6-0.8l0.2-0.8l1-0.6l0.6,0.6L393.9,266.6L393.9,266.6"/>
	<path vector-effect="none" class="st0" d="M412.4,175.4l-1.3,1l-0.2-1.3l1-0.6h1.2L412.4,175.4"/>
	<path vector-effect="none" class="st0" d="M434.6,81.7l0.2,1l-1.5-0.4l-1.2-0.2l0.6-1h1L434.6,81.7L434.6,81.7"/>
	<path vector-effect="none" class="st0" d="M373.7,318.4l-0.4,1l-0.6-0.4l-1-0.6l0.4-1h1.2L373.7,318.4L373.7,318.4"/>
	<path vector-effect="none" class="st0" d="M291.4,400.9l-1.3,0.8l-0.8-0.8l0.8-0.8l1.2-0.2L291.4,400.9"/>
	<path vector-effect="none" class="st0" d="M398.4,116.2l-0.2,1.2l-0.8-0.4l-0.4-1l0.4-1.2l1,0.2V116.2L398.4,116.2"/>
	<path vector-effect="none" class="st0" d="M423,29.5l-0.4,1h-1h-1.2l0.4-1.2l1-0.2L423,29.5L423,29.5"/>
	<path vector-effect="none" class="st0" d="M425.5,20.3l-0.4,1l-1.5-0.4v-1l1.2-0.2L425.5,20.3"/>
	<path vector-effect="none" class="st0" d="M415.9,101.4l-0.8,0.4v-1.2l0.8-1.3l0.6,1L415.9,101.4"/>
	<path vector-effect="none" class="st0" d="M426.9,241.7l-1,0.4l-0.4-1l0.8-0.8l1.2,0.2L426.9,241.7"/>
	<path vector-effect="none" class="st0" d="M329.9,362.6l-0.6,1l-1.2-0.2l0.4-1l0.8-0.6L329.9,362.6"/>
	<path vector-effect="none" class="st0" d="M369.3,301.5l-1.3,0.8h-1.2l0.2-0.8l1-0.4L369.3,301.5"/>
	<path vector-effect="none" class="st0" d="M289.5,394.9l-0.6,1l-1-0.2l0.2-1.2l1-0.4L289.5,394.9"/>
	<path vector-effect="none" class="st0" d="M443.1,13.7l-0.8,0.6l-1-0.4l0.2-1.2h1.2L443.1,13.7"/>
	<path vector-effect="none" class="st0" d="M440.4,11.8h-1.2l-0.8-0.6l0.8-0.8l1,0.4L440.4,11.8"/>
	<path vector-effect="none" class="st0" d="M477.6,53l-1.2,0.8v-1.2l0.8-0.6L477.6,53"/>
	<path vector-effect="none" class="st0" d="M368.7,325.4l-1,0.6l-0.4-1l1.3-0.6V325.4"/>
	<path vector-effect="none" class="st0" d="M321.1,317.3l-0.8,0.6l-0.6-1.3l1-0.4L321.1,317.3"/>
	<path vector-effect="none" class="st0" d="M457.9,13.1l-0.8,0.4l-1-0.8l1-0.4L457.9,13.1"/>
	<path vector-effect="none" class="st0" d="M408.4,135.5v1.2h-1.2l-0.6-0.4l0.8-0.8H408.4"/>
	<path vector-effect="none" class="st0" d="M383.1,279.9l-0.8,0.8l-0.6-0.8l0.8-0.8L383.1,279.9"/>
	<path vector-effect="none" class="st0" d="M297,392.6l-0.8,0.6l-0.2-1.2l1-0.6V392.6"/>
	<path vector-effect="none" class="st0" d="M299.5,394.2l-0.2,1l-1-0.6l0.2-1.2L299.5,394.2"/>
	<path vector-effect="none" class="st0" d="M372.3,306.1l0.2,1.2h-0.8l-0.2-1.3L372.3,306.1"/>
	<path vector-effect="none" class="st0" d="M417.4,40.3l0.2,1l-1.2-0.4l-0.2-0.8L417.4,40.3"/>
	<path vector-effect="none" class="st0" d="M347.9,348.5l-0.6,1l-0.2-1H347.9"/>
</g>
</svg>
